<svg width="390" height="717" viewBox="0 0 390 717" fill="none" xmlns="http://www.w3.org/2000/svg">
<path d="M-105.009 605.088V611.513C-94.1397 614.055 -83.27 613.384 -72.4527 609.547C-83.9526 610.315 -94.8223 608.828 -105.009 605.088ZM-105.009 544.761V527.929C-120.868 537.76 -129.847 555.743 -131.895 581.782C-133.05 595.88 -125.436 605.423 -109.105 610.41C-107.74 610.842 -106.375 611.178 -105.062 611.465V605.04C-109.42 603.457 -113.674 601.443 -117.822 599.045C-126.696 572.143 -122.443 554.016 -105.062 544.713M162.113 574.972C237.046 591.373 311.611 588.16 385.704 565.333C420.098 554.688 443.046 562.984 454.493 590.27C455.228 542.939 423.879 526.395 360.394 540.589C233.948 568.69 107.029 564.182 -20.257 527.114C-58.0648 516.132 -86.3156 516.42 -105.009 527.929V544.761C-90.5164 536.992 -66.8341 535.362 -34.0149 539.822C31.7811 548.981 97.157 560.682 162.113 574.924M177.446 435.713C174.243 434.178 170.83 432.932 167.259 431.925C75.8377 406.844 -14.9535 402.768 -105.062 419.792V443.865C-11.1727 432.596 82.9791 429.862 177.446 435.713ZM430.6 253.151C494.296 276.84 550.01 268.209 597.795 227.351C547.384 250.226 492.983 252.815 434.539 235.168C372.156 216.226 309.616 197.764 246.97 179.733C128.506 150.001 11.1969 151.584 -104.957 184.384V215.747C-84.8978 212.006 -64.8387 208.553 -44.6746 205.388C117.479 179.637 275.904 195.558 430.6 253.199M146.686 689.889C146.056 689.985 145.426 690.081 144.849 690.177C115.6 694.301 86.6667 702.069 58.0483 713.483C55.8428 714.394 53.6374 715.353 51.4844 716.456C82.5183 709.742 113.657 704.851 144.849 701.782C145.426 701.782 146.056 701.686 146.686 701.638C196.677 696.794 246.929 696.603 297.497 701.11C246.299 686.964 196.046 683.223 146.686 689.937M354.576 708.112C356.729 708.447 358.883 708.783 361.088 709.167C381.882 712.524 398.003 706.625 409.345 691.376C401.206 695.02 390.546 699 377.366 703.316C369.857 705.81 362.243 707.392 354.576 708.112ZM1054.8 298.899V299.091C1032.11 299.571 1009.48 302.448 986.9 307.675C900.467 327.624 814.297 348.436 728.336 370.159C680.814 382.196 632.609 383.107 583.722 372.845C435.694 341.866 286.878 315.012 137.275 292.234C71.0592 282.067 11.9321 294.967 -40.1061 330.933C9.41154 317.937 61.1346 313.765 115.063 318.465C225.808 327.72 334.138 349.923 440.052 385.073C572.169 428.808 701.766 426.793 828.79 379.079C902.252 351.409 977.605 333.139 1054.8 324.363V324.507H1054.85C1055.48 324.411 1056.11 324.363 1056.69 324.315C1058.89 324.027 1061.1 323.788 1063.25 323.596L1163.44 318.321H1164.12L1127.52 305.709C1122.8 304.75 1118.07 303.934 1113.35 303.263L1072.91 299.283L1068.87 299.139C1064.83 298.947 1060.78 298.899 1056.74 298.947C1056.16 298.947 1055.53 298.947 1054.9 298.947H1054.85M1253.39 57.833C1258.49 54.5721 1263.68 52.3662 1268.99 51.2153C1276.97 49.9205 1285.84 50.8796 1295.72 54.0446C1296.35 54.3323 1297.03 54.62 1297.71 54.9077C1295.51 84.9751 1278.54 104.493 1246.78 113.508L1232.18 116.625L1215.43 118.495C1209.49 118.783 1203.24 118.831 1196.68 118.783C1188.96 118.687 1181.24 118.543 1173.58 118.399L1119.7 115.426L1057.68 108.952C1057.32 108.952 1057 108.856 1056.74 108.808C1056.37 108.808 1056.11 108.808 1055.85 108.76L1054.9 108.617C982.331 98.9778 910.602 82.5294 839.712 59.2716C776.804 38.5553 712.321 22.9222 646.262 12.3723C521.444 -7.48082 397.991 -3.4047 275.851 24.6486C195.72 43.0151 115.641 61.4775 35.5619 79.9878C4.00293 87.3728 -2.61342 80.2276 15.6078 58.5523C27.5278 44.5496 41.1281 44.0221 56.4087 57.0177C24.6922 22.0111 1.42992 30.5949 -13.4831 82.7692C-15.5311 90.0583 -12.1179 95.9087 -3.13852 100.273C27.4227 115.186 59.3493 115.762 92.6936 102.047C111.492 94.3262 130.291 86.5576 149.09 78.741C384.759 7.1932 623.472 10.9816 865.18 90.0583C967.628 123.578 1072.12 139.068 1178.67 136.574C1179.46 136.574 1180.24 136.574 1181.03 136.526L1248.35 124.537L1256.12 121.756C1263.89 118.927 1271.56 115.666 1279.07 111.973C1283.53 109.767 1287.47 107.322 1290.88 104.636C1292.56 103.581 1294.25 102.526 1295.93 101.471C1313.67 90.0583 1317.51 76.9188 1307.43 62.0529C1304.27 57.4493 1301.07 53.7568 1297.82 50.8796C1295.09 47.5707 1291.67 45.5087 1287.58 44.6935C1279.33 41.9121 1270.67 43.9262 1261.53 50.7837C1260.8 51.1673 1260.06 51.5989 1259.33 51.9825C1256.7 53.4212 1254.76 55.4352 1253.5 57.9768" fill="#C0454F"/>
</svg>
