<svg width="59" height="59" viewBox="0 0 59 59" fill="none" xmlns="http://www.w3.org/2000/svg">
<g filter="url(#filter0_d_1_461)">
<ellipse cx="29.6474" cy="28.7995" rx="25.9765" ry="25.7126" transform="rotate(-6.65481 29.6474 28.7995)" fill="#FF6F84"/>
<path d="M26.5919 2.6102C41.1941 0.906576 54.4098 11.2437 56.098 25.7137C57.7861 40.1835 47.3051 53.2846 32.7031 54.9883C18.101 56.692 4.8845 46.3558 3.19612 31.8859C1.50786 17.4159 11.9897 4.31389 26.5919 2.6102Z" stroke="#581F28" stroke-width="1.30784"/>
</g>
<path d="M28.4492 33.4855L27.9351 33.7525L27.7441 37.7244L26.5555 37.8337L26.5011 39.7784L34.3187 39.059L33.6819 37.178L32.6713 37.271L31.6093 33.109L31.0952 33.376L31.6193 37.3731L30.7711 37.4512L30.0604 33.782L29.5121 33.8485L29.7762 37.5427L28.8704 37.6261L28.4397 33.4971M21.4111 30.779L21.1192 32.4937L26.417 35.1085L26.4845 33.3073L21.4116 30.7843M27.8892 30.6544L28.3314 32.3712L29.5337 30.4495L30.7535 32.2394C30.8635 31.9989 31.2235 31.7782 31.8387 31.5769L31.9098 30.3916C31.1864 30.0456 30.3343 29.6203 29.3421 29.1062C29.0428 29.4713 28.5568 29.9875 27.8944 30.6539M27.6385 23.8191L24.8993 24.1783L23.1785 26.8389L24.839 29.7509L28.0865 29.2914L29.2171 26.9905L27.6385 23.8191ZM32.6791 29.1045L35.0934 28.1376L35.6783 25.5279L33.6819 23.4452L31.0657 23.9377L30.0124 27.0834L32.6791 29.1045ZM38.4776 29.171L32.8436 33.2097L33.3842 34.8478L38.9869 30.8709L38.4728 29.1768L38.4776 29.171Z" fill="#581F28"/>
<path d="M32.8336 33.2038L38.4677 29.1651L38.8057 28.9357L36.6423 21.6817C34.6314 20.5379 32.2486 19.5409 29.489 18.6965C27.6981 19.5524 25.335 20.6754 22.4001 22.0707L20.9423 30.5474L21.4122 30.7774L26.485 33.3004L26.4175 35.1016L26.3309 37.8476L27.7499 37.717L27.9409 33.7451L28.455 33.4781L28.8857 37.6071L29.7915 37.5237L29.5274 33.8295L30.0757 33.763L30.7864 37.4322L31.6347 37.3541L31.1104 33.357L31.6246 33.09L32.6866 37.252L34.158 37.1166L33.3942 34.8293L32.8536 33.1913M35.0887 28.1311L32.6744 29.0981L30.0077 27.077L31.061 23.9313L33.6772 23.4387L35.6736 25.5215L35.0887 28.1311ZM24.8951 24.1772L27.6343 23.818L29.2129 26.9894L28.0823 29.2903L24.8348 29.7498L23.1743 26.8378L24.8951 24.1772ZM28.3267 32.3647L27.8845 30.648C28.5521 29.9811 29.033 29.4653 29.3322 29.1002C30.3192 29.6149 31.177 30.045 31.8998 30.3857L31.8288 31.571C31.2136 31.7722 30.8536 31.9929 30.7436 32.2334L29.5238 30.4436L28.3215 32.3652L28.3267 32.3647Z" fill="white"/>
<path d="M40.3598 18.7097C40.0562 18.4778 40.0384 18.1044 40.3307 17.6884C40.3307 17.6884 40.541 17.3965 40.8388 16.9735C40.9937 16.7581 41.1767 16.5076 41.3646 16.2438C41.5517 15.9738 41.7564 15.6889 41.9547 15.4048C42.1657 15.1192 42.3641 14.8351 42.5519 14.5713C42.751 14.2935 42.915 14.0453 43.0769 13.8354C43.3812 13.4117 43.5795 13.1275 43.5795 13.1275C43.5795 13.1275 43.1954 12.8668 42.824 12.6047C42.4239 12.3713 42.0349 12.1239 42.0349 12.1239C41.6694 11.9119 41.5224 11.5345 41.6988 11.2275C41.873 10.9016 42.2951 10.8269 42.6875 11.0485C42.6875 11.0485 42.9852 11.2301 43.442 11.5078C43.6648 11.6537 43.9293 11.8265 44.2016 12.0111C44.4739 12.1958 44.7626 12.4103 45.0569 12.6178C45.3321 12.8276 45.6152 13.0492 45.8651 13.2619C46.1276 13.4731 46.3577 13.6818 46.5581 13.8557C46.9531 14.2106 47.213 14.454 47.213 14.454C47.5459 14.7716 47.5752 15.1882 47.3154 15.4413C47.0436 15.7022 46.6415 15.6727 46.3411 15.3577C46.3411 15.3577 46.0026 15.0471 45.6578 14.7373C45.3074 14.4344 44.9585 14.1442 44.9585 14.1442C44.9585 14.1442 44.7277 14.4257 44.3951 14.8273C44.2197 15.0323 44.0338 15.2577 43.8199 15.5182C43.6115 15.7716 43.3856 16.0399 43.1533 16.3088C42.9345 16.5826 42.7149 16.8501 42.5066 17.1035C42.3038 17.3499 42.0996 17.5838 41.9313 17.7944C41.5988 18.196 41.3792 18.4635 41.3792 18.4635C41.0452 18.8525 40.676 18.9402 40.3598 18.7097Z" fill="#420D17"/>
<path d="M36.8679 16.6653C36.5097 16.5162 36.4031 16.1531 36.5921 15.6791C36.5921 15.6791 36.7365 15.3186 36.9507 14.7844C37.0497 14.531 37.1739 14.2173 37.3029 13.8904C37.4369 13.5501 37.582 13.1959 37.7208 12.8423C37.8603 12.4951 37.9991 12.1415 38.133 11.8013C38.2628 11.4806 38.387 11.167 38.4909 10.9003C38.7002 10.3794 38.8446 10.0188 38.8446 10.0188C39.0337 9.54488 39.447 9.39481 39.9804 9.61264C40.5026 9.8445 40.6793 10.2567 40.4499 10.7163C40.4499 10.7163 40.2843 11.0602 40.0411 11.566C39.9111 11.8294 39.7657 12.1264 39.6161 12.443C39.4554 12.7736 39.289 13.1113 39.117 13.456C38.9577 13.7991 38.7914 14.1368 38.6362 14.4604C38.4803 14.7778 38.3293 15.0818 38.2098 15.3249C37.9617 15.8439 37.789 16.1823 37.789 16.1823C37.5667 16.6474 37.2339 16.8263 36.8679 16.6653Z" fill="#420D17"/>
<path d="M28.7208 14.5271C28.7596 15.0254 28.572 15.3465 28.197 15.3839C27.8354 15.426 27.5718 15.1513 27.5091 14.6685C27.5091 14.6685 27.4461 14.294 27.3682 13.7366C27.3233 13.4617 27.2852 13.1352 27.2258 12.7921C27.1785 12.4412 27.1226 12.0721 27.0793 11.7017C27.0163 11.3271 26.9604 10.9581 26.913 10.6072C26.8664 10.2626 26.822 9.93677 26.7834 9.66122C26.6991 9.10457 26.6432 8.73556 26.6432 8.73556C26.5617 8.14677 26.8296 7.79727 27.4386 7.72621C27.8834 7.68068 28.1479 7.8535 28.5588 8.28929C28.5588 8.28929 28.7828 8.55594 29.1125 8.95665C29.2777 9.16015 29.4656 9.39282 29.6628 9.64988C29.8536 9.90767 30.053 10.1836 30.2524 10.4594C30.4335 10.7438 30.6202 11.0212 30.7927 11.2875C30.9525 11.5553 31.1031 11.7987 31.2246 12.0136C31.4621 12.4506 31.6242 12.7372 31.6242 12.7372L31.6764 12.7438C31.6764 12.7438 31.7027 12.4734 31.7453 12.0674C31.7607 11.8683 31.7787 11.6371 31.8009 11.3863C31.8224 11.1292 31.8431 10.8658 31.8694 10.5954C31.8894 10.3257 31.9164 10.0616 31.9379 9.80452C31.9537 9.55444 31.9781 9.32246 31.9934 9.12336C32.0234 8.71887 32.0497 8.44847 32.0497 8.44847C32.0948 7.95311 32.4244 7.69188 32.9586 7.7505C33.4997 7.81465 33.7699 8.14593 33.6923 8.63872C33.6923 8.63872 33.6397 9.01403 33.5504 9.57182C33.5058 9.85072 33.4536 10.1751 33.398 10.5253C33.3488 10.8747 33.2898 11.2508 33.2308 11.6268C33.171 11.9966 33.1113 12.3664 33.062 12.7158C33.0064 13.066 32.955 13.3966 32.9152 13.6622C32.8211 14.2333 32.7677 14.6023 32.7677 14.6023C32.6785 15.1601 32.4208 15.4321 32.0236 15.3893C31.7308 15.3598 31.5693 15.1877 31.3294 14.6747C31.3294 14.6747 31.1856 14.3796 30.9679 13.9467C30.852 13.7247 30.7148 13.4861 30.5613 13.2176C30.4086 12.9554 30.226 12.6584 30.0598 12.3914C29.8795 12.1133 29.6921 11.8296 29.5083 11.5774C29.3231 11.3126 29.155 11.084 28.989 10.8742C28.6784 10.4712 28.467 10.2031 28.467 10.2031L28.3965 10.205C28.3965 10.205 28.4153 10.4765 28.4503 10.8861C28.4674 11.0878 28.4818 11.3216 28.5048 11.5735C28.515 11.8269 28.5338 12.0984 28.559 12.3692C28.5842 12.6399 28.603 12.9114 28.6133 13.1648C28.6426 13.416 28.657 13.6498 28.6677 13.8523C28.6963 14.2627 28.7208 14.5271 28.7208 14.5271Z" fill="#420D17"/>
<path d="M25.4053 15.9281C25.0313 16.029 24.7172 15.8174 24.5564 15.3206C24.5564 15.3206 24.4385 14.9716 24.2654 14.4253C24.1761 14.1556 24.0746 13.8365 23.9645 13.4993C23.8481 13.1628 23.7351 12.8004 23.6164 12.4451C23.4971 12.0835 23.3841 11.7212 23.2662 11.3721C23.1632 11.0404 23.0617 10.7213 22.966 10.4524C22.7937 9.9124 22.6743 9.55079 22.6743 9.55079C22.5086 9.06729 22.7411 8.6901 23.294 8.52375C23.849 8.37624 24.2456 8.57821 24.3676 9.07317C24.3676 9.07317 24.463 9.45029 24.5973 9.99474C24.662 10.2736 24.7445 10.595 24.8229 10.9359C24.9154 11.2879 25.0037 11.6595 25.0906 12.0185C25.1861 12.3956 25.2737 12.761 25.3591 13.1074C25.4446 13.4539 25.5207 13.776 25.5918 14.0541C25.7268 14.6048 25.8151 14.9764 25.8151 14.9764C25.9372 15.4714 25.7906 15.8131 25.4053 15.9281Z" fill="#420D17"/>
<path d="M22.2891 14.1904C22.4565 14.5782 22.5456 14.956 22.5627 15.3232C22.5784 15.6778 22.5355 16.0265 22.424 16.3387C22.3259 16.6557 22.1608 16.9486 21.9461 17.2028C21.8402 17.3425 21.7187 17.4585 21.5845 17.576C21.4503 17.6935 21.302 17.7999 21.1395 17.8952C20.9714 17.9976 20.8018 18.0874 20.6364 18.1576C20.4646 18.2286 20.297 18.2799 20.1343 18.318C19.7968 18.4019 19.464 18.4153 19.1358 18.3581C18.802 18.308 18.4736 18.1935 18.1618 18.0008C17.8387 17.8221 17.54 17.5768 17.2706 17.2518C17.2706 17.2518 17.0998 17.0554 16.8396 16.7547C16.7064 16.6048 16.5639 16.4305 16.3938 16.2403C16.2364 16.0486 16.0663 15.8584 15.894 15.6494C15.7169 15.4536 15.5517 15.2501 15.3887 15.0655C15.2242 14.8683 15.0753 14.6947 14.9421 14.5447C14.6883 14.2434 14.5175 14.0469 14.5175 14.0469C14.1893 13.6587 14.2607 13.2239 14.7021 12.8733C15.1449 12.5352 15.6048 12.5643 15.9028 12.9687C15.9028 12.9687 16.0609 13.1667 16.2823 13.4654C16.3972 13.6239 16.5348 13.8115 16.6725 13.9991C16.8172 14.1923 16.957 14.3987 17.1095 14.6037C17.2684 14.808 17.4209 15.0129 17.56 15.2131C17.704 15.4 17.8345 15.5821 17.9488 15.7342C18.1772 16.0386 18.3177 16.2513 18.3177 16.2513C18.4766 16.4555 18.6445 16.6269 18.8058 16.7418C18.9876 16.8669 19.1657 16.9607 19.3507 17.0028C19.7157 17.1002 20.0941 17.037 20.4599 16.8097C20.8263 16.5888 21.0478 16.2829 21.1259 15.9046C21.1625 15.7221 21.1659 15.5307 21.1219 15.3195C21.0914 15.113 21.0199 14.8858 20.8976 14.6646C20.8976 14.6646 20.7817 14.4426 20.6131 14.0995C20.5228 13.9318 20.4161 13.7342 20.308 13.524C20.1999 13.3139 20.0776 13.0926 19.961 12.8644C19.8436 12.6299 19.7276 12.4079 19.6125 12.1922C19.4987 11.989 19.3977 11.7844 19.3067 11.6105C19.1395 11.2799 19.0109 11.0594 19.0109 11.0594C18.7783 10.6092 18.9613 10.1932 19.4602 9.95039C19.9797 9.71793 20.4189 9.8449 20.6134 10.2996C20.6134 10.2996 20.7196 10.5482 20.877 10.9053C20.9568 11.0933 21.0459 11.3057 21.1435 11.5362C21.234 11.7611 21.3458 12.0027 21.4512 12.245C21.5567 12.4873 21.6628 12.7358 21.7541 12.9671C21.8574 13.1905 21.9528 13.4022 22.0319 13.5839C22.1907 13.9536 22.2891 14.1904 22.2891 14.1904Z" fill="#420D17"/>
<path d="M15.1511 22.3993C15.577 22.687 15.7076 23.0346 15.4953 23.365C15.2972 23.7064 14.9236 23.7563 14.4768 23.5093C14.4768 23.5093 14.1536 23.3305 13.6863 23.0731C13.4586 22.9406 13.1836 22.788 12.881 22.6196C12.5925 22.4623 12.2828 22.2884 11.9731 22.1145C11.6571 21.9413 11.3474 21.7673 11.0519 21.6045C10.7564 21.4416 10.4813 21.2891 10.2536 21.1565C9.7863 20.8991 9.47026 20.7259 9.47026 20.7259C9.11958 20.5313 8.9197 20.3064 8.86769 20.026C8.81495 19.7393 8.90447 19.4042 9.16017 19.0052C9.16017 19.0052 9.47687 18.5226 9.81894 18.0371C10.1618 17.5579 10.5146 17.1093 10.5146 17.1093C10.8288 16.7162 11.1477 16.418 11.4818 16.1944C11.8166 15.9771 12.1609 15.8415 12.4879 15.7779C12.8227 15.7261 13.1416 15.7589 13.4418 15.8512C13.7434 15.956 14.0228 16.1462 14.2835 16.3959C14.445 16.568 14.5954 16.7542 14.695 16.9463C14.8016 17.1439 14.8766 17.3452 14.9205 17.5565C14.9701 17.7608 14.9767 17.9828 14.9691 18.1938C14.9545 18.3992 14.916 18.6201 14.8372 18.8266C14.8372 18.8266 15.4007 18.971 15.9514 19.1168C16.4981 19.2821 17.0462 19.4601 17.0462 19.4601C17.1994 19.5059 17.3727 19.613 17.4818 19.7212C17.7793 20.0111 17.793 20.4042 17.5466 20.6621C17.317 20.899 17.0751 20.9208 16.5617 20.7643C16.5617 20.7643 15.9889 20.5956 15.3986 20.4417C14.7907 20.3025 14.1907 20.1752 14.1907 20.1752C14.1907 20.1752 13.9901 20.4405 13.7966 20.7113C13.6039 20.9884 13.4175 21.2648 13.4175 21.2648C13.4175 21.2648 13.8426 21.5462 14.2875 21.8317C14.7197 22.1187 15.1511 22.3993 15.1511 22.3993ZM12.464 20.644C12.464 20.644 12.6616 20.3536 12.86 20.0695C13.0654 19.7909 13.2772 19.5115 13.2772 19.5115C13.5458 19.1683 13.6812 18.8406 13.6771 18.5291C13.6792 18.2169 13.5347 17.9155 13.2345 17.6577C12.9414 17.4055 12.623 17.3217 12.2953 17.379C11.9753 17.4482 11.6469 17.6647 11.3495 18.0368C11.3495 18.0368 11.116 18.3505 10.8825 18.6642C10.6561 18.9834 10.4374 19.3145 10.4374 19.3145C10.4374 19.3145 10.9516 19.6428 11.4531 19.9726C11.961 20.3017 12.464 20.644 12.464 20.644Z" fill="#420D17"/>
<path d="M46.367 43.409C46.367 43.409 46.1142 43.1711 45.724 42.8029C45.5237 42.629 45.3048 42.4063 45.059 42.174C44.8211 41.9535 44.5612 41.7102 44.3021 41.4731C44.0478 41.2227 43.7752 40.9808 43.5493 40.7526C43.3035 40.5203 43.0734 40.3116 42.8787 40.1307C42.4878 39.7562 42.2413 39.5176 42.2413 39.5176C41.9978 39.3042 41.8755 39.0829 41.8513 38.8757C41.8208 38.6692 41.9059 38.462 42.0806 38.2506C42.0806 38.2506 42.2014 38.1283 42.3585 37.9318C42.5227 37.7408 42.7296 37.4748 42.935 37.1962C43.1348 36.9247 43.3275 36.6476 43.4698 36.4337C43.6056 36.2205 43.6981 36.0761 43.6981 36.0761C43.8606 35.8152 44.1748 35.7531 44.4979 35.9318C44.8154 36.1176 44.9225 36.4297 44.7566 36.7164C44.7566 36.7164 44.6627 36.8482 44.5444 37.0466C44.4127 37.2402 44.2431 37.4955 44.0538 37.7467C43.8715 38.0035 43.6878 38.2477 43.5427 38.4365C43.3968 38.619 43.3007 38.7321 43.3007 38.7321C43.3007 38.7321 43.6772 39.0382 44.0481 39.3514C44.4317 39.663 44.8146 39.9684 44.8146 39.9684C44.8146 39.9684 44.9092 39.8428 45.0734 39.6518C45.2242 39.456 45.4128 39.1985 45.6133 38.9332C45.8075 38.6687 45.9883 38.3994 46.1256 38.1988C46.2552 37.9864 46.3484 37.8482 46.3484 37.8482C46.5206 37.5608 46.8383 37.4728 47.155 37.6522C47.4583 37.8269 47.5281 38.1497 47.332 38.4527C47.332 38.4527 47.2332 38.5979 47.0917 38.818C46.9502 39.0382 46.7582 39.3216 46.5598 39.6057C46.3481 39.885 46.1419 40.1573 45.9785 40.3546C45.8101 40.5652 45.7028 40.6923 45.7028 40.6923C45.7028 40.6923 46.1013 41.0213 46.4983 41.3378C46.8904 41.6676 47.2867 41.9778 47.2867 41.9778C47.2867 41.9778 47.4172 41.8289 47.6095 41.6028C47.7947 41.3711 48.033 41.0441 48.2728 40.7297C48.4978 40.398 48.7298 40.0718 48.893 39.8172C49.0498 39.5634 49.1655 39.3972 49.1655 39.3972C49.3916 39.0207 49.7501 38.8961 50.0802 39.0804C50.4025 39.2528 50.4536 39.6351 50.2169 40.0319C50.2169 40.0319 50.0874 40.2443 49.8856 40.5543C49.6768 40.8587 49.3972 41.2732 49.1147 41.6626C48.8132 42.0543 48.5109 42.4396 48.2752 42.7344C48.0374 43.0104 47.8795 43.2007 47.8795 43.2007C47.6058 43.4999 47.3428 43.6707 47.0954 43.6995C46.8487 43.7347 46.5986 43.6302 46.367 43.409Z" fill="#420D17"/>
<path d="M38.5733 49.8542C38.0938 50.0438 37.7341 49.8821 37.5549 49.3937C37.5549 49.3937 37.4243 49.0461 37.2351 48.5271C37.1402 48.2644 37.0259 47.9468 36.9054 47.6298C36.7777 47.3073 36.6598 46.9582 36.5292 46.6106C36.3979 46.2567 36.2744 45.9147 36.1523 45.5852C36.031 45.2619 35.9175 44.9505 35.8226 44.6879C35.6334 44.1689 35.5021 43.815 35.5021 43.815C35.3986 43.5342 35.3756 43.2823 35.4368 43.0905C35.4966 42.8862 35.6279 42.7436 35.8299 42.6564C36.0144 42.5839 36.1737 42.5717 36.3624 42.6452C36.5383 42.7201 36.7436 42.8808 36.9923 43.1382C36.9923 43.1382 37.1899 43.3443 37.5087 43.6509C37.6673 43.7979 37.8557 43.9796 38.0575 44.1661C38.2594 44.3527 38.488 44.5488 38.7096 44.7393C38.932 44.9362 39.1662 45.1253 39.3808 45.3103C39.6002 45.4821 39.8054 45.6427 39.9823 45.7812C40.3482 46.0505 40.581 46.227 40.581 46.227L40.6344 46.1889C40.6344 46.1889 40.6015 45.9063 40.5297 45.4564C40.504 45.2366 40.4542 44.975 40.4037 44.7072C40.3517 44.4268 40.2926 44.1409 40.2328 43.8487C40.1722 43.5502 40.1082 43.2776 40.0443 43.0049C39.9747 42.7393 39.9073 42.4926 39.857 42.282C39.7303 41.8576 39.6473 41.5872 39.6473 41.5872C39.5358 41.2373 39.4874 40.9883 39.517 40.8003C39.5394 40.6067 39.6326 40.4685 39.7914 40.3418C39.9686 40.2065 40.1567 40.1655 40.3615 40.2116C40.5599 40.2585 40.77 40.4058 40.9769 40.6363C40.9769 40.6363 41.2151 40.9141 41.5859 41.3355C41.7653 41.5501 41.9864 41.7917 42.2168 42.0576C42.4464 42.3173 42.6902 42.588 42.9355 42.8713C43.1808 43.1546 43.4246 43.4254 43.655 43.6913C43.8783 43.9517 44.1001 44.1995 44.2795 44.4141C44.6502 44.8356 44.8948 45.1126 44.8948 45.1126C45.2357 45.4993 45.1994 45.9046 44.7946 46.2383C44.3883 46.5594 44.0079 46.4956 43.6894 46.0808C43.6894 46.0808 43.5227 45.8647 43.2794 45.543C43.1573 45.379 43.0133 45.1921 42.8615 44.9933C42.7097 44.7946 42.543 44.5785 42.3763 44.3625C42.216 44.1456 42.05 43.9358 41.8982 43.7371C41.7457 43.5321 41.6017 43.3452 41.4804 43.1875C41.23 42.8602 41.0704 42.6497 41.0704 42.6497L41.0352 42.6793C41.0352 42.6793 41.0963 42.9268 41.2029 43.2899C41.2503 43.4753 41.3006 43.6859 41.3594 43.9146C41.4127 44.1503 41.4737 44.3978 41.5284 44.646C41.5831 44.8943 41.6385 45.1488 41.679 45.3859C41.7259 45.6224 41.7642 45.8407 41.7933 46.0346C41.857 46.4155 41.8998 46.6715 41.8998 46.6715C41.9799 47.2478 41.8442 47.5183 41.5072 47.7167C41.1639 47.9159 40.8457 47.8894 40.3871 47.5419C40.3871 47.5419 40.177 47.3945 39.8727 47.1563C39.717 47.0344 39.5464 46.8952 39.3609 46.7386C39.1698 46.589 38.9702 46.4213 38.7769 46.2529C38.59 46.0837 38.3959 45.909 38.2168 45.7517C38.0369 45.5881 37.8783 45.4411 37.7409 45.3107C37.4717 45.0429 37.284 44.8675 37.284 44.8675L37.2467 44.8782C37.2467 44.8782 37.3592 45.1261 37.5181 45.4958C37.5979 45.6839 37.6997 45.8948 37.8037 46.1245C37.9077 46.3543 38.0131 46.5966 38.1264 46.8508C38.2326 47.0994 38.3444 47.341 38.4483 47.5707C38.5452 47.795 38.6414 48.0129 38.7276 48.2002C38.8928 48.5692 39.0053 48.8171 39.0053 48.8171C39.2148 49.2892 39.0584 49.6575 38.5733 49.8542Z" fill="#420D17"/>
<path d="M27.9708 50.7581C27.9406 51.2708 27.599 51.5398 27.0339 51.4912C26.4673 51.43 26.1908 51.0994 26.2598 50.5886C26.2598 50.5886 26.3084 50.2328 26.3815 49.7024C26.4212 49.4368 26.4637 49.139 26.5088 48.8092C26.5531 48.473 26.6024 48.1235 26.6453 47.7748C26.7009 47.4246 26.7494 47.0689 26.7945 46.739C26.8452 46.4021 26.8869 46.0981 26.9274 45.8388C27.0006 45.3083 27.0498 44.9589 27.0498 44.9589C27.1003 44.5647 27.2098 44.291 27.384 44.1306C27.5567 43.9577 27.8005 43.8975 28.125 43.9233C28.125 43.9233 28.5144 43.9542 28.908 43.9656C29.3016 43.9769 29.7 43.975 29.7 43.975C30.0272 43.9686 30.3271 44.0037 30.5948 44.0934C30.8688 44.1823 31.1155 44.3127 31.3229 44.4922C31.5367 44.6709 31.7168 44.8918 31.8576 45.1617C32.0047 45.431 32.1063 45.7501 32.1544 46.1073C32.1871 46.3326 32.1952 46.5672 32.163 46.7874C32.1371 47.0068 32.0774 47.2111 31.9901 47.3995C31.8964 47.5886 31.7822 47.7674 31.6263 47.9193C31.4775 48.0767 31.2933 48.2064 31.0871 48.3132C31.0871 48.3132 31.4129 48.7907 31.757 49.2598C32.1081 49.7344 32.4769 50.1942 32.4769 50.1942C32.5825 50.3282 32.668 50.5092 32.6934 50.6717C32.7537 51.0784 32.4187 51.4039 31.9112 51.4631C31.4339 51.5061 31.1787 51.3577 30.8607 50.8919C30.8607 50.8919 30.5022 50.3545 30.1706 49.8268C29.8565 49.2842 29.5544 48.7339 29.5544 48.7339C29.5544 48.7339 29.1884 48.7384 28.8265 48.7233C28.4654 48.7145 28.1099 48.6987 28.1099 48.6987C28.1099 48.6987 28.0726 49.2059 28.0431 49.7249C28.0073 50.2446 27.9708 50.7581 27.9708 50.7581ZM28.1839 47.5699C28.1839 47.5699 28.5133 47.5823 28.8569 47.6059C29.1856 47.6121 29.5254 47.6043 29.5254 47.6043C29.95 47.6057 30.2767 47.4848 30.4902 47.2753C30.7029 47.0596 30.8017 46.7489 30.7753 46.3573C30.7497 45.9721 30.613 45.6825 30.4034 45.4842C30.1881 45.2929 29.9007 45.1991 29.5403 45.1966C29.5403 45.1966 29.2322 45.2007 28.9359 45.1971C28.639 45.1872 28.3406 45.1647 28.3406 45.1647C28.3406 45.1647 28.3016 45.7676 28.2626 46.3704C28.2222 46.9607 28.1839 47.5699 28.1839 47.5699Z" fill="#420D17"/>
<path d="M18.7955 45.4223L19.2953 44.5811C19.4283 44.3428 19.5832 44.1274 19.7347 43.9379C19.8926 43.7476 20.0526 43.5762 20.2141 43.4173C20.3827 43.264 20.5479 43.1365 20.7209 43.0208C20.8938 42.9052 21.069 42.8084 21.2464 42.7304C21.5948 42.5752 21.952 42.4953 22.318 42.4908C22.4915 42.4896 22.6799 42.5059 22.8577 42.5424C23.042 42.5782 23.2284 42.6328 23.4177 42.7126C23.612 42.779 23.783 42.8672 23.9421 42.9633C24.1012 43.0593 24.2498 43.1756 24.3731 43.2949C24.64 43.5438 24.8487 43.8441 24.9983 44.1894C25.0639 44.3663 25.1296 44.5432 25.1791 44.7475C25.2216 44.9462 25.2521 45.1527 25.2658 45.3802C25.2788 45.6015 25.2805 45.8368 25.2576 46.0814C25.241 46.3252 25.2006 46.5845 25.141 46.846L24.9252 47.8068C24.8664 48.0747 24.7913 48.3126 24.702 48.5394C24.6064 48.767 24.4952 48.9709 24.3761 49.163C24.1231 49.5298 23.7979 49.8288 23.4236 50.0379C23.0289 50.2367 22.585 50.3458 22.0843 50.3533C21.8411 50.3626 21.5807 50.3357 21.3111 50.2844C21.0408 50.2268 20.7689 50.1567 20.4927 50.0489C20.2031 49.9363 19.9493 49.8004 19.7146 49.6623C19.4791 49.5179 19.2683 49.3643 19.094 49.1937C18.7392 48.8532 18.4886 48.4687 18.3507 48.0584C18.2072 47.655 18.1883 47.218 18.2527 46.7777C18.2976 46.5561 18.3551 46.3329 18.4444 46.1061C18.5337 45.8793 18.6484 45.6495 18.7955 45.4223ZM20.5832 45.2583L20.1456 46.1368C19.989 46.4478 19.8943 46.7389 19.8426 47.0123C19.8051 47.2967 19.8217 47.5494 19.882 47.7906C19.9606 48.0233 20.0829 48.2445 20.2586 48.4277C20.4413 48.6164 20.6705 48.7615 20.9537 48.8749C21.2363 48.9819 21.5123 49.0325 21.7675 49.0154C22.0298 49.0039 22.2643 48.9193 22.4824 48.8047C22.6912 48.6658 22.8767 48.4914 23.0421 48.2557C23.2019 48.027 23.3304 47.751 23.4199 47.416L23.7212 46.4707C23.8185 46.1474 23.8714 45.8294 23.8836 45.5479C23.8958 45.2664 23.8664 45.0152 23.802 44.7936C23.732 44.579 23.6317 44.3807 23.4857 44.2322C23.3454 44.0767 23.1707 43.9571 22.9545 43.8677C22.739 43.7847 22.5231 43.7526 22.3074 43.7777C22.1029 43.7889 21.8931 43.8643 21.6877 43.9774C21.4893 44.096 21.2897 44.2593 21.1024 44.4721C20.9214 44.6842 20.7406 44.9535 20.5832 45.2583Z" fill="#420D17"/>
<path d="M12.1672 44.507C11.7656 44.0956 11.7658 43.6564 12.1437 43.3132C12.1437 43.3132 12.4169 43.0649 12.8292 42.6858C13.033 42.5029 13.2711 42.2842 13.5268 42.0507C13.7825 41.8172 14.0557 41.5689 14.3226 41.3213C14.5959 41.073 14.8691 40.8247 15.1311 40.5905C15.3861 40.3507 15.625 40.1383 15.8223 39.9561C16.2347 39.577 16.5079 39.3287 16.5079 39.3287C16.746 39.11 16.9705 38.9947 17.175 38.9836C17.3921 38.971 17.5949 39.0555 17.7855 39.256C17.7855 39.256 17.9016 39.3698 18.0885 39.5389C18.2699 39.7151 18.5205 39.9341 18.7767 40.1461C19.0385 40.351 19.2947 40.563 19.4985 40.7111C19.7015 40.8529 19.8416 40.9511 19.8416 40.9511C20.0871 41.1261 20.1195 41.4597 19.9234 41.7626C19.7153 42.0733 19.3842 42.1565 19.1175 41.9649C19.1175 41.9649 18.9916 41.8777 18.8027 41.747C18.6251 41.6022 18.3796 41.4272 18.1446 41.2318C17.9025 41.0309 17.6746 40.8411 17.5033 40.6956C17.3313 40.5438 17.2285 40.4349 17.2285 40.4349C17.2285 40.4349 16.8558 40.8221 16.49 41.2148C16.1292 41.5943 15.7564 41.9815 15.7564 41.9815C15.7564 41.9815 16.2159 42.3925 16.6788 42.7777C17.1551 43.1676 17.6539 43.5295 17.6539 43.5295C17.9687 43.7474 18.028 44.0906 17.8185 44.3887C17.6096 44.6931 17.2558 44.7471 16.9262 44.5119C16.9262 44.5119 16.4047 44.1208 15.8945 43.7157C15.4081 43.2951 14.9211 42.8682 14.9211 42.8682C14.9211 42.8682 14.5251 43.2772 14.1369 43.698C13.7466 44.1 13.3577 44.5145 13.3577 44.5145C13.0025 44.887 12.5667 44.8996 12.1672 44.507Z" fill="#420D17"/>
<defs>
<filter id="filter0_d_1_461" x="2.06401" y="1.77295" width="55.1668" height="56.5178" filterUnits="userSpaceOnUse" color-interpolation-filters="sRGB">
<feFlood flood-opacity="0" result="BackgroundImageFix"/>
<feColorMatrix in="SourceAlpha" type="matrix" values="0 0 0 0 0 0 0 0 0 0 0 0 0 0 0 0 0 0 127 0" result="hardAlpha"/>
<feMorphology radius="0.3" operator="dilate" in="SourceAlpha" result="effect1_dropShadow_1_461"/>
<feOffset dy="2.1647"/>
<feComposite in2="hardAlpha" operator="out"/>
<feColorMatrix type="matrix" values="0 0 0 0 0.54902 0 0 0 0 0.352941 0 0 0 0 0.368627 0 0 0 1 0"/>
<feBlend mode="normal" in2="BackgroundImageFix" result="effect1_dropShadow_1_461"/>
<feBlend mode="normal" in="SourceGraphic" in2="effect1_dropShadow_1_461" result="shape"/>
</filter>
</defs>
</svg>
