<svg width="572" height="320" viewBox="0 0 572 320" fill="none" xmlns="http://www.w3.org/2000/svg">
<path d="M38.5939 43.5258L38.6597 42.2658L38.7743 37.6603L38.7908 37.3453L38.8299 35.389C40.7189 15.4369 50.1154 4.74669 67.0195 3.31834C297.977 18.6778 455.42 28.2103 539.348 31.9284L539.404 32.0577C546.033 31.5578 551.859 32.1782 556.856 33.9177C564.815 37.2018 569.051 44.309 569.566 55.2394C570.418 63.0794 568.472 70.5963 563.715 77.8018C558.153 86.8605 549.603 90.545 538.076 88.8432L525.644 86.3612L520.133 177.294C519.81 184.188 519.464 190.803 519.095 197.139L519.092 197.202C517.616 223.025 515.305 249.841 512.172 277.637C511.291 283.15 510.047 288.101 508.43 292.476L506.202 298.866C503.968 303.677 501.057 307.442 497.468 310.16C491.722 314.534 480.651 316.204 464.254 315.183C430.744 311.372 394.417 307.577 355.262 303.799C277.382 296.228 220.602 291.958 184.924 290.977C179.038 290.796 159.869 290.135 127.394 288.98C98.0712 287.915 78.9009 287.292 69.8581 287.109L22.2488 286.137C19.852 286.1 13.8595 286.014 4.27072 285.892C-0.44048 259.366 1.5013 238.646 10.1093 223.72C18.3027 224.691 25.5041 225.56 31.6897 226.301C32.792 212.461 33.6894 198.193 34.37 183.484L34.5907 179.263C35.2252 165.436 35.8358 151.343 36.423 136.97L38.4472 51.162C38.4933 50.28 38.5122 49.4345 38.516 48.6387L38.5258 48.4497C38.5486 46.8084 38.5712 45.1671 38.5939 43.5258ZM71.7481 15.5051C58.4311 14.9731 50.9302 22.9702 49.2217 39.4699C48.1842 76.2197 47.146 112.982 46.1085 149.732L46.2344 149.739L44.7823 178.722C43.8506 195.818 42.812 212.062 41.6664 227.454C42.2078 227.482 46.7161 227.945 55.1653 228.855C68.9803 230.247 89.3093 232.131 116.165 234.507C155.374 237.985 189.946 240.803 219.881 242.962C249.781 245.068 286.952 246.469 331.395 247.15C375.802 247.791 409.192 247.869 431.563 247.396C453.897 246.921 469.713 246.257 479.013 245.391C487.682 251.745 492.397 260.33 493.132 271.146C493.831 281.921 490.542 290.025 483.276 295.457C480.946 296.561 478.491 297.14 475.924 297.22C469.099 297.369 462.669 296.717 456.647 295.265C459.306 301.633 465.968 305.329 476.646 306.355C480.839 306.574 484.497 305.906 487.609 304.338C496.206 298.559 501.264 285.848 502.795 266.218L516.085 84.4717C517.265 68.1718 519.748 56.4253 523.545 49.2327C524.965 46.4641 526.661 44.2154 528.632 42.4865C450.697 35.9736 298.402 26.9756 71.7481 15.5051ZM561.464 62.9019C562.01 57.2829 561.088 52.4588 558.686 48.4166C556.246 44.3724 552.443 42.2531 547.276 42.0714L547.15 42.0648C541.147 43.3935 536.383 47.099 532.87 53.1946L548.062 54.8101C554.407 58.3004 555.709 65.0268 551.995 74.9781C548.328 75.077 545.269 74.9044 542.807 74.4346C546.813 79.9126 550.969 80.8248 555.289 77.1718C558.955 72.9793 561.021 68.2231 561.464 62.9019ZM541.433 69.309C542.737 69.2508 544.986 69.4568 548.156 69.9132C549.831 63.7214 549.432 60.7314 546.984 60.9446C544.534 61.1956 542.684 63.9795 541.433 69.309ZM537.938 60.0927C536.847 59.9472 534.267 59.5596 530.172 58.9286C528.318 63.7211 527.004 69.5275 526.231 76.3475L526.099 78.8675L538.349 81.2136C533.168 74.7898 533.03 67.7579 537.938 60.0927ZM371.316 296.173L371.883 296.203L407.045 299.81C407.422 299.83 407.773 299.874 408.111 299.929L418.347 300.97C418.51 300.978 418.685 301.013 418.847 301.059L445.967 303.93C446.557 303.998 447.134 304.079 447.723 304.148L452.117 304.63C452.533 304.652 452.909 304.697 453.247 304.753L453.813 304.782C448.492 297.896 445.97 289.88 446.232 280.759C446.456 271.636 449.182 263.453 454.395 256.233C441.257 257.1 411.478 257.274 365.045 256.742C306.624 256.088 255.653 254.22 212.13 251.148L211.753 251.128C210.496 251.025 209.074 250.925 207.475 250.842L200.182 250.271C199.643 250.205 199.078 250.15 198.486 250.119L198.171 250.103L195.971 249.924C194.424 249.806 192.79 249.67 191.067 249.542C157.208 246.849 107.739 242.823 42.6569 237.487C38.5463 237.146 34.3602 236.801 30.0859 236.451L15.4407 235.243C11.1746 248.501 10.318 261.988 12.8821 275.729C13.9292 275.746 17.6971 275.879 24.1608 276.129C48.2714 276.922 109.764 279.177 208.641 282.868C241.682 284.305 291.62 288.305 358.443 294.869L371.316 296.173ZM458.46 267.817C455.613 273.985 454.575 281.031 455.336 288.942C456.595 289.008 460.462 289.172 466.926 289.422C463.277 282.661 463.007 275.509 466.091 267.963C464.11 267.948 461.575 267.891 458.46 267.817ZM484.614 284.345C485.848 282.477 486.688 280.411 487.147 278.161C487.709 275.372 487.699 272.441 487.101 269.377C485.082 262.108 481.788 257.514 477.217 255.594C470.402 253.848 464.854 256.123 460.573 262.431C463.127 262.603 467.176 262.903 472.71 263.318C478.138 265.75 480.604 271.223 480.12 279.752C475.165 279.619 471.759 279.567 469.902 279.596C470.106 281.249 470.506 283.001 471.08 284.838C472.147 287.838 473.521 289.577 475.226 290.045C476.593 290.458 478.164 290.111 479.951 289.029C481.777 287.899 483.336 286.338 484.614 284.345ZM475.801 275.42C475.093 271.34 473.788 268.77 471.912 267.699C470.111 270.763 469.409 273.317 469.808 275.359L475.801 275.42Z" fill="#63594F"/>
<path d="M471.913 267.699C473.788 268.77 475.093 271.339 475.802 275.42L469.808 275.359C469.41 273.317 470.111 270.763 471.913 267.699ZM487.147 278.161C486.689 280.411 485.849 282.477 484.615 284.345C483.336 286.338 481.778 287.899 479.951 289.029C478.165 290.111 476.594 290.458 475.226 290.045C473.521 289.577 472.148 287.838 471.08 284.838C470.507 283.001 470.106 281.249 469.902 279.596C471.759 279.567 475.166 279.619 480.12 279.751C480.604 271.223 478.138 265.75 472.71 263.318C467.177 262.903 463.127 262.603 460.573 262.431C464.854 256.123 470.402 253.848 477.217 255.594C481.788 257.514 485.083 262.108 487.102 269.377C487.699 272.441 487.71 275.372 487.147 278.161ZM548.157 69.9131C544.986 69.4568 542.737 69.2507 541.434 69.3089C542.684 63.9794 544.534 61.1955 546.984 60.9446C549.432 60.7314 549.831 63.7214 548.157 69.9131ZM558.686 48.4165C561.088 52.4588 562.01 57.2828 561.464 62.9018C561.022 68.2231 558.955 72.9793 555.289 77.1718C550.97 80.8247 546.813 79.9125 542.807 74.4345C545.27 74.9044 548.329 75.0769 551.995 74.978C555.709 65.0268 554.407 58.3004 548.062 54.8101L532.87 53.1946C536.383 47.0989 541.147 43.3934 547.151 42.0648L547.276 42.0714C552.443 42.2531 556.246 44.3723 558.686 48.4165Z" fill="#8D877F"/>
<path d="M455.336 288.942C454.576 281.031 455.613 273.985 458.461 267.817C461.575 267.891 464.11 267.948 466.091 267.963C463.008 275.509 463.278 282.661 466.926 289.422C460.463 289.172 456.595 289.008 455.336 288.942Z" fill="#BAB0A5"/>
<path d="M371.883 296.203L371.316 296.173L358.444 294.869C291.621 288.305 241.683 284.304 208.642 282.868C109.765 279.177 48.2717 276.922 24.1612 276.129C17.6975 275.879 13.9296 275.746 12.8825 275.729C10.3184 261.987 11.175 248.501 15.441 235.243L30.0863 236.451C34.3605 236.801 38.5467 237.146 42.6573 237.487C107.739 242.823 157.209 246.849 191.068 249.542C192.791 249.67 194.425 249.806 195.971 249.924L198.172 250.103L198.486 250.119C199.078 250.15 199.643 250.205 200.183 250.271L207.476 250.842C209.075 250.925 210.496 251.025 211.753 251.128L212.131 251.148C255.653 254.22 306.625 256.088 365.045 256.742C411.478 257.274 441.257 257.1 454.395 256.233C449.182 263.453 446.457 271.636 446.232 280.759C445.97 289.88 448.493 297.896 453.814 304.782L453.247 304.753C452.909 304.697 452.533 304.652 452.117 304.63L447.724 304.148C447.134 304.079 446.557 303.998 445.968 303.93L418.847 301.059C418.686 301.013 418.511 300.978 418.347 300.97L408.112 299.929C407.774 299.874 407.423 299.83 407.045 299.81L371.883 296.203ZM49.2221 39.4698C50.9306 22.9702 58.4314 14.973 71.7485 15.505C298.402 26.9755 450.697 35.9735 528.633 42.4864C526.661 44.2154 524.965 46.4641 523.546 49.2326C519.748 56.4252 517.265 68.1718 516.085 84.4716L502.796 266.218C501.265 285.847 496.206 298.559 487.61 304.338C484.497 305.906 480.839 306.574 476.646 306.355C465.969 305.329 459.306 301.633 456.647 295.265C462.669 296.717 469.099 297.369 475.925 297.22C478.492 297.14 480.946 296.561 483.276 295.457C490.542 290.025 493.832 281.921 493.132 271.145C492.397 260.33 487.683 251.745 479.013 245.391C469.713 246.257 453.897 246.921 431.564 247.396C409.192 247.869 375.803 247.791 331.396 247.149C286.953 246.468 249.781 245.068 219.881 242.962C189.946 240.803 155.374 237.985 116.165 234.507C89.3097 232.131 68.9806 230.246 55.1657 228.855C46.7165 227.945 42.2082 227.482 41.6668 227.454C42.8124 212.062 43.851 195.818 44.7826 178.722L46.2348 149.738L46.1089 149.732C47.1464 112.982 48.1846 76.2196 49.2221 39.4698Z" fill="#E4E1D5"/>
<path d="M530.172 58.9284C534.267 59.5595 536.848 59.9471 537.939 60.0925C533.031 67.7577 533.168 74.7896 538.349 81.2135L526.099 78.8674L526.231 76.3474C527.004 69.5273 528.318 63.721 530.172 58.9284Z" fill="#BAB0A5"/>
</svg>
