<svg width="594" height="435" viewBox="0 0 594 435" fill="none" xmlns="http://www.w3.org/2000/svg">
<path d="M66.4323 49.4928C68.7522 35.812 75.9498 29.1775 88.037 29.5891C311.441 39.655 461.876 47.6814 539.33 53.6686C536.375 56.8032 533.881 61.5666 531.858 67.9346C527.244 81.9927 523.543 110.801 520.767 154.334C520.665 156.456 520.552 158.614 520.405 160.809C520.211 164.023 520.025 167.13 519.848 170.143L519.469 170.121C519.252 173.679 519.039 177.355 518.83 181.138C518.926 181.525 519.036 181.936 519.144 182.334C517.519 209.601 516.509 226.833 516.101 234.02C515.541 243.271 514.502 269.014 512.993 311.236C511.518 353.421 508.897 379.291 505.117 388.858C502.611 395.279 499.798 399.746 496.68 402.259L496.465 406.87C494.506 407.697 491.926 408.037 488.736 407.878C484.578 407.765 481.381 407.074 479.158 405.803C477.419 404.812 475.826 403.271 474.379 401.203C473.406 399.782 472.306 397.797 471.103 395.248C469.276 391.455 467.93 388.212 467.064 385.509C466.881 385.007 466.721 384.492 466.572 383.988C465.902 384.118 465.222 384.284 464.553 384.45C462.991 384.79 461.417 385.141 459.82 385.482C459.961 386.116 460.09 386.762 460.232 387.432C460.304 387.773 460.387 388.125 460.495 388.511C460.946 390.531 461.523 392.452 462.227 394.273C463.75 398.172 465.813 401.626 468.428 404.61C468.778 405.13 469.234 405.623 469.795 406.112L469.854 406.11L469.916 406.179C466.957 406.165 463.9 406.084 460.746 405.936L455.696 405.701C449.349 405.275 440.327 404.541 428.632 403.5L428.678 402.446C400.799 400.31 367.791 398.368 329.654 396.632C257.16 393.333 215.724 391.37 205.346 390.768C151.083 387.567 123.768 385.956 123.389 385.946C92.1037 384.523 64.759 384.416 41.3545 385.613C37.1369 385.833 33.1469 386.129 29.3839 386.487C28.4371 384.485 27.5497 382.493 26.7333 380.498C20.9993 366.996 20.3636 353.408 24.8268 339.758C31.3057 340.889 37.9597 341.955 44.7886 342.944C44.6928 342.58 44.6321 342.203 44.5947 341.814L49.0901 343.087C55.1397 298.076 59.6574 243.912 62.6089 180.632L62.966 181.021L63.4043 163.679C64.8498 128.347 65.8551 90.2854 66.4323 49.4928ZM56.7674 344.637C56.166 344.031 55.681 343.374 55.3021 342.701C54.979 343.269 54.6424 343.789 54.2927 344.275C55.1256 344.4 55.9467 344.524 56.7792 344.637M193.709 345.982C210.374 347.639 219.793 348.595 221.992 348.861C239.657 351.347 252.915 353.054 261.777 353.971C273.668 355.194 286.822 355.994 301.252 356.382C311.606 356.653 324.818 356.729 340.898 356.609C350.307 356.595 357.724 356.462 363.148 356.21C371.325 355.837 378.71 355.149 385.29 354.123C386.173 353.997 387.115 353.857 388.115 353.691L387.735 353.669C362.474 353.571 324.601 352.299 274.141 349.863L193.709 345.982Z" fill="#E4E1D5"/>
<path d="M55.5647 49.4284C57.3149 29.6963 66.5606 19.0718 83.2787 17.5676C311.898 31.4961 467.737 40.0646 550.809 43.2726L550.87 43.3414C557.446 42.8596 563.208 43.4601 568.144 45.1431C576.022 48.3432 580.259 55.3532 580.832 66.1621C581.722 73.9062 579.832 81.3465 575.162 88.5067C569.705 97.4938 561.266 101.178 549.858 99.5587L536.618 96.9985C531.396 139.329 527.866 188.641 526.016 244.923C523.892 310.849 521.257 354.697 518.124 376.49C515.291 396.048 507.983 408.261 496.178 413.117L496.465 406.882L496.681 402.27C499.799 399.757 502.611 395.279 505.118 388.87C508.897 379.303 511.519 353.433 512.993 311.248C514.514 269.025 515.542 243.283 516.102 234.032C516.509 226.845 517.52 209.613 519.145 182.346C519.351 178.48 519.585 174.413 519.836 170.143C520.025 167.13 520.211 164.011 520.393 160.809C520.54 158.614 520.665 156.456 520.755 154.334C523.543 110.8 527.232 81.9931 531.847 67.9349C533.87 61.5669 536.364 56.8154 539.318 53.669C461.865 47.6817 311.43 39.6553 88.0134 29.5899C75.9262 29.1783 68.7285 35.8127 66.4086 49.4936C65.8315 90.2861 64.8261 128.348 63.3806 163.68L62.9423 181.022L62.5853 180.632C59.6223 243.925 55.116 298.077 49.0664 343.088L44.571 341.815L38.4026 340.093C45.5296 291.754 50.1183 242.262 52.1455 191.631C52.7738 175.974 53.3537 159.952 53.8969 143.565C54.2577 128.711 54.6078 114.556 54.9468 101.087C55.1065 78.5591 55.3003 61.3321 55.5524 49.417M572.864 73.7824C573.377 68.2254 572.427 63.454 570.037 59.4793C567.6 55.4945 563.822 53.4272 558.715 53.2651C558.679 53.2663 558.655 53.2672 558.655 53.2672C552.691 54.6267 547.98 58.297 544.523 64.278L559.563 65.8512C565.851 69.2616 567.187 75.9011 563.56 85.77C559.931 85.8987 556.907 85.7338 554.465 85.2878C558.455 90.6733 562.582 91.5566 566.832 87.9263C570.437 83.7627 572.447 79.052 572.864 73.7824ZM558.524 71.924C556.095 72.1877 554.288 74.9502 553.078 80.2242C554.366 80.1549 556.586 80.3484 559.738 80.781C561.355 74.6522 560.954 71.6958 558.524 71.924ZM549.572 71.129C548.49 70.9899 545.919 70.5958 541.884 69.9578C539.885 75.3308 538.557 81.9228 537.899 89.7573L550.099 92.0112C544.94 85.6967 544.764 78.732 549.572 71.129Z" fill="#63594F"/>
<path d="M541.884 69.9578C545.931 70.5954 548.489 70.9899 549.571 71.129C544.763 78.732 544.939 85.6849 550.099 92.0112L537.899 89.7573C538.557 81.9346 539.885 75.3308 541.884 69.9578Z" fill="#BAB0A5"/>
<path d="M553.078 80.2242C554.288 74.9501 556.095 72.1876 558.524 71.9239C560.955 71.7075 561.355 74.6521 559.738 80.7809C556.598 80.3479 554.378 80.1544 553.078 80.2242ZM570.037 59.4674C572.427 63.454 573.377 68.2135 572.864 73.7705C572.447 79.0401 570.436 83.7508 566.832 87.9144C562.581 91.5447 558.455 90.6614 554.465 85.2759C556.895 85.7223 559.931 85.8869 563.56 85.7581C567.187 75.901 565.851 69.2615 559.563 65.8393L544.523 64.2661C547.968 58.2855 552.678 54.6034 558.655 53.2553C558.655 53.2553 558.679 53.2544 558.714 53.2532C563.833 53.403 567.599 55.4826 570.037 59.4674Z" fill="#8D877F"/>
<path d="M12.4681 357.05C12.3173 350.463 13.9839 341.054 17.4674 328.811C32.0509 331.193 43.0485 332.922 50.4477 333.973L61.9259 335.566C84.4824 338.494 107.158 340.779 129.989 342.431C142.805 343.361 159.669 344.313 180.559 345.289L274.141 349.852C285.154 350.325 304.038 351.17 330.783 352.376C357.502 353.535 388.328 352.69 423.261 349.829C446.7 347.933 464.19 346.165 475.719 344.537C485.845 346.048 492.969 353.026 497.103 365.448C492.446 366.312 490.047 366.74 489.928 366.733L488.927 366.875C482.532 367.445 476.411 368.703 470.585 370.638C470.244 370.709 469.939 370.779 469.634 370.849L469.545 374.024C469.532 375.315 469.566 376.603 469.683 377.901C469.937 381.407 470.536 384.605 471.478 387.471C472.378 390.505 473.752 393.178 475.596 395.468C478.342 399.134 482.326 401.667 487.548 403.08C492.734 404.446 499.928 401.055 509.131 392.905L508.281 402.984C499.951 413.706 490.949 418.534 481.253 417.458L477.139 417.261C464.686 416.554 449.005 415.276 430.109 413.437C421.203 412.605 407.818 411.648 389.966 410.565C333.093 407.161 275.88 403.877 218.329 400.734L189.798 399.213C152.088 397.201 123.792 395.968 104.921 395.501C79.2625 394.885 52.4771 395.195 24.5765 396.433C18.6645 383.92 15.0016 374.085 13.5886 366.951C12.9144 363.626 12.5488 360.325 12.4914 357.037M26.7339 380.51C27.5621 382.504 28.4377 384.497 29.3845 386.499C33.1471 386.129 37.1375 385.845 41.3552 385.625C64.7714 384.427 92.1166 384.546 123.39 385.958C123.769 385.98 151.084 387.579 205.347 390.78C215.725 391.394 257.161 393.344 329.654 396.644L331.895 396.753L331.897 396.813C341.276 397.297 350.313 397.793 358.984 398.325C384.77 399.861 407.376 401.521 426.815 403.305C442.977 404.815 454.287 405.692 460.723 405.949C463.877 406.097 466.934 406.178 469.893 406.191C469.574 405.883 469.279 405.574 468.997 405.276C466.104 402.148 463.843 398.476 462.204 394.286C461.5 392.464 460.923 390.544 460.472 388.524C460.364 388.149 460.28 387.785 460.209 387.445C458.588 379.454 458.972 371.57 461.382 363.768C462.124 361.351 463.099 359.127 464.317 357.096C464.452 356.89 464.587 356.696 464.722 356.49C459.527 357.207 453.714 357.827 447.271 358.363C421.273 360.516 392.418 361.551 360.705 361.433C356.005 361.375 351.245 361.319 346.414 361.266C343.004 361.233 316.126 360.292 265.805 358.432L198.762 355.295C150.366 352.987 113.983 350.668 89.6246 348.324C66.5837 346.088 44.988 343.221 24.8266 339.746C20.3633 353.397 20.9987 366.973 26.7331 380.486M472.147 362.298L471.385 363.828L486.384 360.905L484.768 359.388C484.488 359.162 484.231 358.946 483.987 358.73C481.288 356.731 478.924 356.14 476.894 356.957C476.169 357.22 475.154 357.978 473.85 359.255C473.804 359.292 473.782 359.34 473.784 359.376C473.692 359.45 473.624 359.559 473.581 359.679C473.036 360.657 472.558 361.526 472.147 362.298Z" fill="#63594F"/>
<path d="M471.384 363.816L472.147 362.286C472.557 361.514 473.035 360.644 473.581 359.667C473.624 359.547 473.691 359.438 473.783 359.363C473.781 359.316 473.804 359.28 473.85 359.243C475.154 357.977 476.168 357.208 476.893 356.945C478.935 356.127 481.3 356.718 483.986 358.718C484.231 358.934 484.487 359.161 484.767 359.376L486.383 360.893L471.384 363.816Z" fill="#8D877F"/>
<path d="M29.3842 386.499C28.4373 384.497 27.55 382.504 26.7336 380.51C20.9996 367.008 20.3638 353.42 24.8271 339.77C44.9767 343.245 66.5723 346.112 89.6251 348.348C113.995 350.691 150.379 353.022 198.763 355.318L265.806 358.455C316.138 360.304 343.004 361.244 346.414 361.289C351.245 361.343 356.005 361.399 360.706 361.457C392.418 361.563 421.285 360.539 447.271 358.387C453.703 357.851 459.528 357.23 464.722 356.513C464.587 356.719 464.452 356.913 464.317 357.119C463.099 359.139 462.124 361.363 461.382 363.792C458.984 371.593 458.589 379.478 460.21 387.468C460.281 387.809 460.364 388.161 460.473 388.548C460.923 390.567 461.5 392.488 462.204 394.309C463.844 398.512 466.105 402.171 468.997 405.3C469.28 405.609 469.575 405.907 469.894 406.215C466.934 406.201 463.878 406.121 460.724 405.972C454.288 405.715 442.977 404.826 426.815 403.328C407.376 401.544 384.758 399.885 358.984 398.349C350.314 397.816 341.277 397.308 331.886 396.836L331.884 396.777C331.137 396.745 330.39 396.712 329.643 396.667C257.149 393.368 215.713 391.406 205.335 390.803C151.073 387.603 123.758 385.992 123.378 385.982C92.093 384.559 64.7483 384.452 41.3438 385.649C37.1262 385.869 33.1362 386.165 29.3733 386.523L29.3842 386.499Z" fill="#E4E1D5"/>
</svg>
