<svg
    width="321" height="122" viewBox="0 0 321 122"
    fill="none"
    xmlns="http://www.w3.org/2000/svg"
>
    <g filter="url(#filter0_d_110_557)">
        <path d="M293.271 2.26376C290.714 3.1472 288.487 4.44781 286.616 6.1656C284.988 7.6748 283.704 9.41714 282.725 11.3926H37.3543C36.4122 9.41714 35.1154 7.68707 33.4638 6.1656C31.5797 4.44781 29.3653 3.15947 26.8083 2.26376C24.2514 1.31898 21.6455 0.901799 19.0028 1.0245C16.3235 1.13493 13.7788 1.76069 11.3564 2.91407C8.90956 4.03063 6.87867 5.5153 5.25151 7.36806C3.79563 9.04904 2.69455 10.9386 1.92379 13.0245C0.382265 16.7177 -0.229449 20.2883 0.0764077 23.7116C0.418968 27.7116 2.02166 31.5398 4.89672 35.184L4.77437 59.9325L4.65203 80.4478C1.17749 86.3619 -0.339558 92.0552 0.0764077 97.5398C0.272156 100.08 0.883871 102.571 1.91155 104.988C2.68231 107.098 3.79563 108.988 5.23928 110.644C6.86644 112.534 8.89733 114.031 11.3442 115.135C13.7666 116.251 16.3113 116.865 18.9906 116.975C21.6332 117.086 24.2391 116.693 26.8083 115.773C29.3653 114.89 31.5919 113.577 33.4638 111.834C35.1154 110.35 36.4122 108.62 37.3543 106.656H282.725C283.692 108.632 284.988 110.35 286.616 111.834C288.5 113.577 290.714 114.89 293.271 115.773C295.828 116.681 298.446 117.086 301.125 116.975C303.805 116.865 306.337 116.251 308.723 115.135C311.194 114.018 313.237 112.521 314.828 110.644C316.284 108.988 317.385 107.098 318.156 104.988C319.098 102.767 319.66 100.546 319.868 98.3496C320.358 92.9018 318.596 87.4907 314.62 82.1165L314.534 59.9325H314.498L314.412 35.9938C317.691 31.8589 319.526 27.638 319.917 23.3558C320.235 19.957 319.648 16.5092 318.168 12.9877C317.397 10.9018 316.284 9.0245 314.84 7.33125C313.25 5.47849 311.207 3.99382 308.735 2.87726C306.35 1.73615 303.805 1.11039 301.138 0.987688C298.458 0.877259 295.84 1.28217 293.283 2.22695M11.3931 10.2638C12.2495 9.66253 13.0203 9.20855 13.6932 8.88953C23.2848 6.06744 29.9892 8.69321 33.8063 16.7668C34.0755 16.7914 38.6389 16.8159 47.4843 16.8282C69.3347 16.8282 99.2965 16.8404 137.37 16.8527H186.943C188.803 16.8404 190.638 16.8282 192.448 16.8159C226.178 16.8159 252.996 16.8159 272.913 16.8159C281.551 16.8159 286.004 16.8036 286.261 16.7791C290.102 8.70548 296.807 6.06744 306.374 8.9018C307.084 9.22082 307.854 9.6748 308.674 10.276C310.95 11.9079 312.43 13.5644 313.115 15.2454C313.201 15.4417 313.274 15.6257 313.323 15.7975C315.623 21.8466 314.4 27.773 309.653 33.5644V84.9999C314.436 90.3374 315.66 96.0797 313.323 102.215C313.262 102.411 313.201 102.62 313.115 102.816C312.43 104.497 310.95 106.153 308.674 107.785C307.854 108.362 307.084 108.816 306.374 109.159C296.807 111.957 290.102 109.319 286.261 101.233C285.992 101.221 281.551 101.209 272.913 101.196C252.996 101.196 226.178 101.196 192.448 101.196C190.613 101.172 188.778 101.159 186.943 101.159C186.662 101.159 186.392 101.159 186.111 101.159H149.763C149.114 101.159 148.564 101.159 148.111 101.159C145.726 101.159 143.389 101.159 141.089 101.159C139.804 101.159 138.569 101.159 137.37 101.159C99.2965 101.172 69.3347 101.184 47.4843 101.196C38.6389 101.209 34.0877 101.233 33.8063 101.245C29.9892 109.319 23.2848 111.969 13.6932 109.172C13.008 108.828 12.2373 108.374 11.3931 107.797C9.11755 106.166 7.6372 104.509 6.95208 102.828C6.86644 102.632 6.80526 102.423 6.7808 102.227C4.59086 96.4846 5.50843 91.0981 9.55798 86.0429V32.411C5.54513 26.9877 4.61533 21.4539 6.7808 15.7975C6.80526 15.6257 6.86644 15.4417 6.95208 15.2454C7.6372 13.5644 9.11755 11.9079 11.3931 10.276M310.093 93.4785C310.032 91.049 309.078 88.9999 307.23 87.3067C306.374 86.5091 305.42 85.9079 304.368 85.503C297.37 83.6134 292.904 85.0122 291.008 89.6993C289.038 94.3251 290.31 97.2944 294.813 98.6073C294.017 101.515 293.442 103.785 293.1 105.417L306.46 106.104C306.227 104.595 305.787 102.227 305.138 99C308.099 98.8895 309.751 97.049 310.093 93.4785ZM293.014 92.1411C293.381 89.7116 294.666 88.2269 296.856 87.6871C299.021 87.1472 301.223 87.2208 303.474 87.8957C305.75 88.5582 307.035 90.2638 307.316 93.0368C307.548 95.773 305.946 97.0368 302.532 96.8036C302.875 98.4355 303.315 100.742 303.854 103.736L301.884 103.699C301.86 103.38 301.847 103.074 301.847 102.755L301.762 101.294C301.762 100.779 301.737 100.362 301.676 100.055C301.566 99.5398 301.419 99.0613 301.248 98.595H300.991C300.758 98.6809 300.648 98.9141 300.648 99.2822C300.648 100.656 300.71 102.104 300.82 103.65H299.535C299.596 102.963 299.633 102.129 299.657 101.123C299.719 100.153 299.719 99.4907 299.657 99.1472C299.657 98.865 299.596 98.6809 299.486 98.595C299.486 98.5337 299.462 98.5092 299.4 98.5092C299.339 98.6196 299.278 98.7791 299.192 98.9754C298.874 99.5521 298.666 99.9938 298.556 100.301C298.385 100.84 298.214 101.552 298.042 102.448L297.871 103.601L296.122 103.564C296.831 100.423 297.235 98.4233 297.321 97.5644C294.103 96.3374 292.672 94.5214 293.002 92.1288M300.697 93.1349C300.722 93.5644 300.881 93.9447 301.162 94.2883C301.505 94.6932 301.896 94.9263 302.361 95.0122C302.814 95.0981 303.315 95.049 303.854 94.8895C304.624 94.6564 305.138 94.3374 305.395 93.9079C305.567 93.5644 305.591 93.1717 305.481 92.7055C305.371 92.3374 305.138 91.9938 304.796 91.6748C304.453 91.3312 304.037 91.0981 303.56 90.9877C303.107 90.8772 302.63 90.9018 302.153 91.0736C301.701 91.2454 301.346 91.5153 301.089 91.8834C300.807 92.2269 300.673 92.6441 300.71 93.1227M295.877 91.1595C295.596 91.2699 295.351 91.4539 295.155 91.7116C294.984 91.9693 294.886 92.2392 294.862 92.5214C294.8 93.1472 295.045 93.6871 295.583 94.1533C296.036 94.5214 296.636 94.7668 297.382 94.8773C297.981 94.9386 298.483 94.8527 298.874 94.6196C299.388 94.3374 299.67 93.8588 299.731 93.2085C299.816 92.8404 299.767 92.4846 299.608 92.1411C299.437 91.773 299.168 91.503 298.801 91.3312C298.569 91.2208 298.14 91.1349 297.516 91.0736C296.746 91.0122 296.207 91.049 295.889 91.1595M294.299 36.8159C292.133 37.7852 291.093 39.4908 291.179 41.9079C291.24 43.0245 291.73 44.092 292.672 45.1227C293.357 45.6503 294.238 46.092 295.314 46.4478L295.4 72.6932C293.834 73.0613 292.696 73.7362 291.986 74.7055C290.249 77.7362 290.677 80.2392 293.271 82.2392C295.657 83.3803 297.859 82.9263 299.841 80.865C301.725 83.2944 303.78 83.7361 306.031 82.1901C307.108 81.503 307.854 80.3619 308.246 78.7668C308.845 76.1165 307.438 74.1165 304.013 72.7668V71.9938L304.135 46.8527C308.038 44.3128 309.151 41.5521 307.463 38.5828C305.322 36.2392 302.667 35.9325 299.474 37.638C297.712 36.3251 295.975 36.0429 294.262 36.7791M294.299 42.3006C293.724 40.9263 294.201 39.9938 295.706 39.4785C297.211 38.9018 298.556 39.7116 299.719 41.8711C300.881 39.5276 302.496 38.9509 304.539 40.1165C306.08 42.0061 304.955 43.6625 301.162 45.0858C301.174 45.9693 301.248 52.3006 301.37 64.1043C301.444 69.0736 301.456 72.5582 301.407 74.5582C304.967 75.6993 305.97 77.2208 304.441 79.0981C303.413 79.6993 302.483 79.8711 301.664 79.6134C301.664 80.0184 301.664 80.0061 301.627 79.5766C300.856 79.319 300.183 78.6441 299.621 77.5153C298.422 79.5766 297.076 80.3374 295.559 79.822C294.079 79.2453 293.614 78.276 294.152 76.9141C294.666 75.7239 296.048 74.9386 298.299 74.5582L298.336 44.8773C296.171 44.5582 294.825 43.7116 294.274 42.3128M291.008 17.7607C289.038 22.3865 290.31 25.3558 294.813 26.6687C294.017 29.5766 293.442 31.8466 293.1 33.4785L306.46 34.1656C306.227 32.6564 305.787 30.3006 305.138 27.0981C308.099 26.9877 309.751 25.1227 310.093 21.5276C310.032 19.0981 309.078 17.049 307.23 15.3558C306.374 14.5582 305.42 13.957 304.368 13.5521C297.37 11.6625 292.904 13.0613 291.008 17.7484M293.014 20.2024C293.381 17.773 294.666 16.3006 296.856 15.7975C299.021 15.2208 301.223 15.2822 303.474 15.9693C305.75 16.6564 307.035 18.3619 307.316 21.1104C307.548 23.8466 305.946 25.1104 302.532 24.8773C302.875 26.5092 303.315 28.8159 303.854 31.8098H301.884C301.86 31.4662 301.847 31.1349 301.847 30.8282L301.762 29.3681C301.762 28.8527 301.737 28.4601 301.676 28.1656C301.566 27.6257 301.419 27.1227 301.248 26.6687C301.162 26.6687 301.077 26.6809 300.991 26.7055C300.758 26.7914 300.648 27.0245 300.648 27.3926C300.648 28.7668 300.71 30.2147 300.82 31.7607L299.535 31.7239C299.596 31.0368 299.633 30.2024 299.657 29.1963C299.719 28.2515 299.719 27.6135 299.657 27.2699C299.657 26.9509 299.596 26.7546 299.486 26.6687C299.486 26.6073 299.462 26.5828 299.4 26.5828C299.339 26.73 299.278 26.9018 299.192 27.0981C298.874 27.638 298.666 28.0674 298.556 28.3865C298.385 28.9263 298.214 29.638 298.042 30.5337L297.871 31.7362L296.122 31.6503C296.831 28.5092 297.235 26.5092 297.321 25.6503C294.103 24.4233 292.672 22.6073 293.002 20.2147M303.56 19.0858C303.107 18.9754 302.63 19 302.153 19.1717C301.701 19.3435 301.346 19.6135 301.089 19.9816C300.807 20.3251 300.673 20.7177 300.71 21.184C300.734 21.638 300.893 22.0429 301.174 22.3865C301.517 22.7914 301.908 23.0245 302.373 23.1104C302.826 23.1717 303.328 23.1104 303.866 22.9386C304.637 22.7055 305.151 22.3865 305.408 21.957C305.579 21.6135 305.603 21.2208 305.493 20.7546C305.383 20.3865 305.151 20.0429 304.808 19.7239C304.465 19.4049 304.049 19.1963 303.572 19.0858M295.877 19.2576C295.596 19.3435 295.351 19.5153 295.155 19.773C294.984 20.0306 294.886 20.3006 294.862 20.5828C294.8 21.2085 295.045 21.7484 295.583 22.2147C296.036 22.5828 296.636 22.8282 297.382 22.9386C297.981 23 298.483 22.9141 298.874 22.6809C299.388 22.3987 299.67 21.9202 299.731 21.2699C299.816 20.9018 299.767 20.546 299.608 20.2024C299.437 19.8343 299.168 19.5644 298.801 19.3926C298.569 19.2822 298.14 19.1963 297.516 19.1349C296.746 19.1104 296.207 19.1472 295.889 19.2576M32.1058 91.638C31.5308 92.3006 31.2249 93.2453 31.1637 94.5091C31.3105 97.3067 32.7297 98.9386 35.4335 99.3926C38.1128 99.822 40.0336 98.4478 41.1958 95.2822H278.92C280.058 98.4478 281.967 99.822 284.646 99.3926C287.35 98.9386 288.793 97.3067 288.965 94.5091C288.879 93.2576 288.549 92.3006 287.986 91.638C289.491 89.3558 289.613 87.2576 288.328 85.3435C286.591 83.0368 284.267 82.5337 281.367 83.8466C280.168 84.5091 279.336 85.7116 278.847 87.4907H41.2448C40.7554 85.7239 39.9235 84.5091 38.7245 83.8466C35.825 82.5337 33.5005 83.0368 31.7632 85.3435C30.5153 87.2576 30.6254 89.3558 32.1058 91.638ZM34.1611 95.6134C32.8276 93.7852 33.4638 92.3496 36.0819 91.2822C33.6595 90.2269 32.7664 89.0245 33.3904 87.6871C33.9654 86.3128 35.0298 85.8834 36.5957 86.3987C38.1006 86.9386 39.0548 88.092 39.4586 89.8711H280.682C281.025 88.1042 281.979 86.9509 283.545 86.3987C285.05 85.8834 286.126 86.3128 286.75 87.6871C287.325 89.0245 286.408 90.2269 284.022 91.2822C286.616 92.3374 287.264 93.7852 285.992 95.6134C283.692 97.0981 281.759 96.1042 280.229 92.6196H152.54C148.588 92.595 144.784 92.5828 141.113 92.5828H137.394V92.6196H39.8378C38.333 96.1042 36.4367 97.0981 34.1611 95.6134ZM15.7975 85.503C14.6841 85.9079 13.7176 86.4969 12.8979 87.3067C11.0506 88.9877 10.0963 91.049 10.0351 93.4785C10.3532 97.049 11.9804 98.8895 14.9411 99C14.2804 102.227 13.84 104.595 13.6198 106.104L26.9796 105.417C26.637 103.785 26.0865 101.515 25.3157 98.6073C29.7568 97.2944 31.0292 94.3251 29.1206 89.6993C27.1876 85.0122 22.7465 83.6134 15.7975 85.503ZM12.8123 93.049C13.0692 90.276 14.3171 88.5705 16.5682 87.9079C18.8683 87.2208 21.1071 87.1472 23.2726 87.6993C25.4136 88.2392 26.6737 89.7239 27.0775 92.1533C27.42 94.546 26.0009 96.3619 22.8077 97.5889C22.8689 98.4478 23.2481 100.448 23.9577 103.589L22.2082 103.626L22.037 102.472C21.8901 101.589 21.7189 100.877 21.5231 100.325C21.413 100.006 21.205 99.5644 20.9236 99C20.8135 98.8036 20.7279 98.6441 20.6667 98.5337C20.6422 98.5337 20.6055 98.5582 20.5811 98.6196C20.4954 98.7055 20.422 98.8895 20.3731 99.1717V101.147C20.4587 102.141 20.5321 102.988 20.5811 103.675H19.2965C19.3821 102.129 19.4188 100.681 19.4188 99.3067C19.4188 98.9386 19.3087 98.7055 19.0763 98.6196H18.8683C18.6725 99.0736 18.5135 99.5644 18.4034 100.08C18.3789 100.399 18.3422 100.804 18.3177 101.319L18.2321 102.779C18.2076 103.098 18.1954 103.405 18.1954 103.724L16.189 103.761C16.7884 100.767 17.2533 98.4478 17.5959 96.8282C14.1214 97.0613 12.5309 95.7975 12.8123 93.0613M20.5321 92.1411C20.3609 92.4846 20.2997 92.8404 20.3609 93.2085C20.4465 93.8711 20.7401 94.3374 21.254 94.6196C21.6577 94.8527 22.1348 94.9386 22.7098 94.8773C23.4806 94.7668 24.0923 94.5214 24.545 94.1533C25.0588 93.6993 25.3035 93.1595 25.2668 92.5214C25.2423 92.2392 25.12 91.9693 24.9242 91.7116C24.7285 91.4539 24.4838 91.2699 24.2024 91.1595C23.921 91.049 23.395 91.0122 22.6242 91.0736C21.9635 91.1349 21.5109 91.2208 21.254 91.3312C20.9359 91.503 20.7034 91.773 20.5321 92.1411ZM16.5193 90.9877C16.0299 91.0981 15.6262 91.3312 15.2836 91.6748C14.9655 91.9938 14.7453 92.3374 14.5985 92.7055C14.4517 93.1595 14.4884 93.5644 14.6841 93.9079C14.9655 94.3374 15.4671 94.6687 16.1767 94.8895C16.7762 95.0613 17.29 95.0981 17.7182 95.0122C18.1709 94.9263 18.5746 94.6809 18.9172 94.2883C19.1986 93.9447 19.3576 93.5644 19.3821 93.1349C19.4066 92.6441 19.2842 92.2392 19.0028 91.8957C18.7704 91.5276 18.4156 91.2576 17.9385 91.0858C17.4858 90.9141 17.0087 90.8895 16.5315 90.9999M20.6178 37.6748C17.4002 35.957 14.7453 36.276 12.6288 38.6196C10.9527 41.5889 12.0415 44.3374 15.9198 46.8895L16.0054 72.8036C12.6166 74.1411 11.2341 76.1411 11.858 78.8036C12.2006 80.3987 12.9224 81.5398 14.0357 82.2269C16.2868 83.7729 18.3667 83.3312 20.2752 80.9018C22.2694 82.9631 24.4349 83.4171 26.7594 82.276C29.3775 80.276 29.818 77.7607 28.0807 74.7423C27.3711 73.773 26.2455 73.0981 24.704 72.73L24.5817 46.5214C25.7806 46.1533 26.7227 45.6993 27.3956 45.1472C28.3376 44.1165 28.8514 43.049 28.9371 41.9325C28.9983 39.503 27.9461 37.8098 25.7806 36.8404C24.1045 36.1042 22.3795 36.3865 20.6178 37.6993M18.9172 45.2576C14.99 43.8834 13.8767 42.1779 15.5895 40.1165C17.6448 38.9509 19.2353 39.5276 20.3731 41.8711C21.5965 39.6993 22.9301 38.9018 24.3859 39.4785C25.8908 39.9938 26.3801 40.9386 25.8418 42.3006C25.2668 43.6993 23.9944 44.5582 22.0002 44.865V58.7791H22.037V74.3619C24.0556 74.6809 25.3524 75.5153 25.9275 76.8895C26.5025 78.2638 26.0131 79.2331 24.4716 79.7975C22.9912 80.3128 21.6577 79.5398 20.4587 77.4908C19.2965 79.7484 17.6815 80.276 15.6384 79.0736C14.048 77.1227 14.9778 75.4908 18.4523 74.1901C18.3911 70.6073 18.5502 60.9632 18.9172 45.2454M20.2385 50.1779L20.0672 51.3312L20.1039 51.3681C20.1406 50.9877 20.1896 50.5828 20.2263 50.1656M25.3157 26.6687C29.7568 25.3558 31.0292 22.3865 29.1206 17.7607C27.1876 13.0736 22.7465 11.6748 15.7975 13.5644C14.6841 13.9693 13.7176 14.5582 12.8979 15.3681C11.0506 17.049 10.0963 19.1104 10.0351 21.5398C10.3532 25.1349 11.9804 26.9877 14.9411 27.1104C14.2804 30.3128 13.84 32.6687 13.6198 34.1779L26.9796 33.4908C26.637 31.8589 26.0865 29.5889 25.3157 26.6809M23.2726 15.7975C25.4136 16.3128 26.6737 17.7852 27.0775 20.2024C27.42 22.595 26.0009 24.411 22.8077 25.638C22.8689 26.4969 23.2481 28.4969 23.9577 31.638L22.2082 31.7239L22.037 30.5214C21.8901 29.638 21.7189 28.9263 21.5231 28.3742C21.413 28.0552 21.205 27.638 20.9236 27.0858C20.8135 26.8895 20.7279 26.7177 20.6667 26.5705C20.6422 26.5705 20.6055 26.595 20.5811 26.6564C20.4954 26.7423 20.422 26.9386 20.3731 27.2576V29.184C20.4587 30.1779 20.5321 31.0245 20.5811 31.7116L19.2965 31.7484C19.3821 30.2024 19.4188 28.7546 19.4188 27.3803C19.4188 27.0122 19.3087 26.7791 19.0763 26.6932C19.0151 26.6687 18.9539 26.6564 18.8683 26.6564C18.6725 27.1104 18.5135 27.6135 18.4034 28.1533C18.3789 28.4355 18.3422 28.8404 18.3177 29.3558L18.2321 30.8159C18.2076 31.1349 18.1954 31.4539 18.1954 31.7975H16.189C16.7884 28.8036 17.2533 26.4846 17.5959 24.865C14.1214 25.0981 12.5309 23.8343 12.8123 21.0981C13.0692 18.3619 14.3171 16.6441 16.5682 15.957C18.8683 15.2699 21.1071 15.2208 23.2726 15.7852M17.9262 19.1717C17.4736 19 16.9964 18.9754 16.5193 19.0858C16.0299 19.1963 15.6262 19.4171 15.2836 19.7239C14.9655 20.0429 14.7453 20.3865 14.5985 20.7546C14.4517 21.2085 14.4884 21.6135 14.6841 21.957C14.9655 22.3865 15.4671 22.7177 16.1767 22.9386C16.7762 23.1104 17.29 23.1717 17.7182 23.1104C18.1709 23.0245 18.5746 22.7791 18.9172 22.3865C19.1986 22.0429 19.3576 21.6503 19.3821 21.184C19.4066 20.73 19.2842 20.3251 19.0028 19.9816C18.7704 19.6135 18.4156 19.3435 17.9385 19.1717M25.279 20.5828C25.2546 20.3006 25.1322 20.0306 24.9365 19.773C24.7407 19.5153 24.496 19.3435 24.2147 19.2576C23.9333 19.1472 23.4072 19.0981 22.6364 19.1349C21.9758 19.1963 21.5231 19.2822 21.2662 19.3926C20.9481 19.5644 20.7156 19.8343 20.5444 20.2024C20.3731 20.546 20.3119 20.9018 20.3731 21.2699C20.4587 21.9325 20.7523 22.3987 21.2662 22.6809C21.6699 22.9141 22.1471 23 22.7221 22.9386C23.4928 22.8282 24.1045 22.5828 24.5572 22.2147C25.0711 21.7607 25.3157 21.2208 25.279 20.5828ZM41.2448 23.1104C40.7554 21.3067 39.9235 20.0674 38.7245 19.3803C35.825 18.0674 33.5005 18.5828 31.7632 20.9263C30.5153 22.8404 30.6254 24.9386 32.1058 27.2208C31.5308 27.8834 31.2249 28.8282 31.1637 30.092C31.3105 32.8895 32.7297 34.5214 35.4335 34.9754C38.1128 35.3803 40.0336 34.0061 41.1958 30.865H47.4843C79.3056 30.8282 137.37 30.7791 137.37 30.7791C137.37 30.7791 231.353 30.8282 272.913 30.8527C276.571 30.8527 278.92 30.8527 278.92 30.8527C280.058 33.9938 281.967 35.3681 284.646 34.9631C287.35 34.5092 288.793 32.8773 288.965 30.0797C288.879 28.8282 288.549 27.8711 287.986 27.2085C289.491 24.9263 289.613 22.8282 288.328 20.9141C286.591 18.5705 284.267 18.0552 281.367 19.3681C280.168 20.0552 279.336 21.2944 278.847 23.0981H41.2448M33.3904 23.2822C33.9654 21.9447 35.0298 21.5153 36.5957 21.9938C38.1006 22.5092 39.0548 23.6625 39.4586 25.4662L47.4965 25.4417C81.6302 25.4171 137.382 25.3803 137.382 25.3803L272.925 25.4539C277.574 25.4539 280.682 25.4662 280.682 25.4662C281.025 23.6625 281.979 22.5092 283.545 21.9938C285.05 21.503 286.126 21.9325 286.75 23.2822C287.325 24.6196 286.408 25.822 284.022 26.8773C286.616 27.9079 287.264 29.3435 285.992 31.2085C283.692 32.6932 281.759 31.6748 280.229 28.1656C279.52 28.1656 277.085 28.1901 272.938 28.1901C255.516 28.1901 228.699 28.1901 192.473 28.1656H129.136C92.5432 28.1779 65.3341 28.1901 47.5087 28.1901C43.1533 28.1901 40.5964 28.1901 39.8501 28.1656C38.3453 31.6748 36.4489 32.6932 34.1734 31.2085C32.8398 29.3558 33.476 27.9079 36.0941 26.8773C33.6718 25.822 32.7787 24.6196 33.4026 23.2822H33.3904Z" fill="black" />
    </g>
    <path d="M14.0689 8.88956C13.3838 9.20858 12.613 9.66256 11.7688 10.2638C9.49327 11.8957 8.01292 13.5521 7.3278 15.2331C7.24216 15.4294 7.18099 15.6135 7.15652 15.7853C4.99105 21.4417 5.92086 26.9754 9.9337 32.3988V86.0184C5.89639 91.0736 4.96658 96.4724 7.15652 102.202C7.18099 102.399 7.24216 102.607 7.3278 102.804C8.01292 104.485 9.49327 106.141 11.7688 107.773C12.6252 108.35 13.396 108.804 14.0689 109.147C23.6606 111.945 30.365 109.307 34.1821 101.221C34.4512 101.209 39.0391 101.184 47.9089 101.172C69.7471 101.159 99.6355 101.147 137.611 101.135C138.81 101.135 140.045 101.135 141.33 101.135C143.63 101.135 145.967 101.135 148.352 101.135C148.817 101.135 149.368 101.135 150.004 101.135H186.352C186.633 101.135 186.903 101.135 187.184 101.135C189.019 101.135 190.854 101.147 192.689 101.172C226.517 101.172 253.408 101.172 273.35 101.172C281.951 101.172 286.38 101.196 286.637 101.209C290.478 109.282 297.182 111.932 306.75 109.135C307.459 108.791 308.23 108.337 309.05 107.761C311.325 106.129 312.806 104.472 313.491 102.791C313.576 102.595 313.65 102.386 313.699 102.19C316.036 96.0552 314.812 90.3129 310.029 84.9754V33.5521C314.788 27.7607 316.011 21.8343 313.699 15.7853C313.638 15.6135 313.576 15.4294 313.491 15.2331C312.806 13.5521 311.325 11.8957 309.05 10.2638C308.23 9.66256 307.459 9.20858 306.75 8.88956C297.182 6.06747 290.478 8.69324 286.637 16.7669C286.367 16.7791 281.939 16.7914 273.35 16.8037C253.408 16.8037 226.529 16.8037 192.689 16.8037C190.879 16.8159 189.031 16.8282 187.184 16.8405H137.611C99.6477 16.8405 69.7471 16.8405 47.9089 16.8159C39.0268 16.8037 34.4512 16.7791 34.1821 16.7546C30.365 8.68097 23.6606 6.04293 14.0689 8.87729M39.088 19.3804C40.287 20.0675 41.1189 21.3067 41.6083 23.1104H279.21C279.7 21.3067 280.532 20.0675 281.731 19.3804C284.63 18.0675 286.955 18.5828 288.692 20.9264C289.977 22.8405 289.854 24.9386 288.349 27.2208C288.924 27.8834 289.242 28.8282 289.328 30.092C289.157 32.8896 287.725 34.5215 285.009 34.9754C282.33 35.3804 280.422 34.0061 279.284 30.865C279.284 30.865 276.959 30.865 273.338 30.865C231.876 30.8405 137.598 30.7914 137.598 30.7914C137.598 30.7914 79.7548 30.8405 47.8967 30.865H41.5471C40.3848 34.0184 38.4641 35.3926 35.7847 34.9877C33.081 34.5337 31.6618 32.9018 31.515 30.1043C31.5762 28.8527 31.882 27.8957 32.457 27.2331C30.9767 24.9509 30.8666 22.8527 32.1145 20.9386C33.8517 18.5951 36.1762 18.0797 39.0758 19.3926M29.4841 17.7485C31.3926 22.3742 30.1203 25.3435 25.6792 26.6564C26.45 29.5644 27.0005 31.8343 27.3431 33.4662L13.9833 34.1534C14.2157 32.6442 14.6561 30.2883 15.3046 27.0859C12.3439 26.9754 10.7045 25.1104 10.3986 21.5153C10.4598 19.0859 11.4141 17.0368 13.2614 15.3435C14.0811 14.546 15.0599 13.9448 16.161 13.5399C23.11 11.6503 27.5511 13.0491 29.4841 17.7362M13.0045 38.6073C15.1088 36.2638 17.7759 35.957 20.9935 37.6626C22.7552 36.3497 24.4803 36.0675 26.1564 36.8037C28.3218 37.773 29.374 39.4785 29.3128 41.8957C29.2272 43.0123 28.7133 44.0797 27.7713 45.1104C27.0862 45.6503 26.1441 46.1043 24.9574 46.4846L25.0797 72.6932C26.6213 73.0613 27.7468 73.7362 28.4564 74.7055C30.1937 77.7362 29.7532 80.2393 27.1351 82.2393C24.7984 83.3803 22.6329 82.9264 20.6509 80.865C18.7424 83.2945 16.6626 83.7362 14.4115 82.1902C13.2981 81.5031 12.5763 80.3619 12.2337 78.7669C11.6098 76.1165 12.9923 74.1166 16.3812 72.7669L16.2955 46.8527C12.4295 44.3129 11.3284 41.5521 13.0045 38.5828M28.8479 59.9325H28.7623L28.7256 49.3926C35.7847 45.4785 40.0178 40.9264 41.4125 35.7362C41.5104 35.7362 43.6759 35.7362 47.9334 35.7362C66.0768 35.7362 95.9774 35.7607 137.635 35.773H141.354V35.7362H279.015C280.434 40.9264 284.667 45.4908 291.702 49.3926L291.665 59.9325H291.628L291.591 68.5828C284.679 72.2638 280.495 76.7914 279.039 82.1534H41.4003C39.9444 76.7914 35.7725 72.2638 28.8846 68.5828V68.4969L28.8479 59.9325ZM13.2614 87.2945C14.0811 86.4969 15.0599 85.8957 16.161 85.4908C23.11 83.6012 27.5511 85 29.4841 89.6871C31.3926 94.3129 30.1203 97.2822 25.6792 98.5951C26.45 101.503 27.0005 103.773 27.3431 105.405L13.9833 106.092C14.2157 104.583 14.6561 102.215 15.3046 98.9877C12.3439 98.8773 10.7045 97.0368 10.3986 93.4662C10.4598 91.0368 11.4141 88.9877 13.2614 87.2945ZM31.5272 94.4846C31.5884 93.2331 31.8942 92.2761 32.4693 91.6135C30.9889 89.3313 30.8788 87.2331 32.1267 85.319C33.864 83.0123 36.1885 82.5092 39.088 83.8221C40.287 84.4846 41.1189 85.6871 41.6083 87.4662H279.21C279.7 85.6994 280.532 84.4846 281.731 83.8221C284.63 82.5092 286.955 83.0123 288.692 85.319C289.977 87.2331 289.854 89.3313 288.349 91.6135C288.924 92.2761 289.242 93.2208 289.328 94.4846C289.157 97.2822 287.725 98.9141 285.009 99.3681C282.33 99.7975 280.422 98.4233 279.284 95.2576H41.5716C40.4093 98.4233 38.4885 99.7975 35.8092 99.3681C33.1054 98.9141 31.6863 97.2822 31.5395 94.4846M295.176 26.6564C290.674 25.3435 289.414 22.3742 291.371 17.7485C293.28 13.0613 297.733 11.6626 304.731 13.5521C305.783 13.957 306.737 14.546 307.594 15.3558C309.441 17.0368 310.396 19.0981 310.457 21.5276C310.114 25.1227 308.463 26.9754 305.502 27.0981C306.162 30.3006 306.603 32.6564 306.823 34.1656L293.463 33.4785C293.806 31.8466 294.369 29.5767 295.176 26.6687M291.542 41.908C291.457 39.4785 292.497 37.7853 294.662 36.8159C296.375 36.0797 298.112 36.3619 299.874 37.6748C303.067 35.957 305.722 36.2761 307.863 38.6196C309.539 41.5889 308.438 44.3497 304.535 46.8896L304.413 72.0307V72.8037C307.826 74.1411 309.233 76.1411 308.646 78.8037C308.242 80.3988 307.508 81.5399 306.432 82.227C304.181 83.773 302.113 83.3313 300.241 80.9018C298.247 82.9632 296.057 83.4172 293.671 82.2761C291.078 80.2761 290.649 77.7607 292.387 74.7423C293.096 73.773 294.234 73.0981 295.8 72.73L295.714 46.4846C294.638 46.1288 293.757 45.6871 293.072 45.1595C292.13 44.1288 291.64 43.0613 291.579 41.9448M307.606 87.2945C309.453 88.9754 310.408 91.0368 310.469 93.4662C310.126 97.0368 308.475 98.8773 305.514 98.9877C306.175 102.215 306.615 104.583 306.835 106.092L293.475 105.405C293.818 103.773 294.381 101.503 295.188 98.5951C290.686 97.2822 289.426 94.3129 291.383 89.6871C293.292 85 297.745 83.6012 304.743 85.4908C305.795 85.8957 306.75 86.4846 307.606 87.2945ZM32.0411 66.4846C33.1299 67.1472 34.1454 67.8221 35.0752 68.4969C39.5529 71.7362 42.3423 75.1963 43.4434 78.9018H276.935C278.036 75.1963 280.813 71.7362 285.266 68.4969C286.221 67.8098 287.248 67.1472 288.337 66.4846V51.4049C282.073 47.6135 278.268 43.4662 276.935 38.9877H43.4434C42.1099 43.4662 38.305 47.6135 32.0411 51.4049V66.4846Z" fill="#777C8C" />
    <path d="M296.807 87.1227C294.617 87.6626 293.332 89.1473 292.965 91.5767C292.623 93.9694 294.066 95.7853 297.284 97.0123C297.198 97.8712 296.795 99.8712 296.085 103.012L297.835 103.049L298.006 101.896C298.177 101.012 298.348 100.301 298.52 99.7485C298.63 99.4295 298.85 98.9878 299.156 98.4233C299.242 98.227 299.315 98.0675 299.364 97.9571C299.425 97.9571 299.449 97.9816 299.449 98.043C299.56 98.1289 299.621 98.3129 299.621 98.5951C299.682 98.9387 299.682 99.589 299.621 100.571C299.596 101.564 299.547 102.411 299.498 103.098H300.783C300.673 101.552 300.612 100.104 300.612 98.7301C300.612 98.362 300.722 98.1289 300.954 98.043H301.211C301.383 98.497 301.529 98.9878 301.639 99.5031C301.701 99.8221 301.725 100.227 301.725 100.742L301.811 102.202C301.811 102.522 301.823 102.828 301.847 103.147L303.817 103.184C303.279 100.19 302.838 97.8712 302.496 96.2516C305.909 96.4847 307.512 95.2209 307.279 92.4847C306.998 89.7117 305.713 88.0062 303.438 87.3436C301.187 86.6565 298.985 86.5829 296.819 87.135M295.094 91.1473C295.29 90.8896 295.535 90.7056 295.816 90.5951C296.134 90.4847 296.672 90.4479 297.443 90.5092C298.067 90.5706 298.495 90.6565 298.728 90.7669C299.095 90.9387 299.364 91.2086 299.535 91.5767C299.706 91.9203 299.743 92.2761 299.657 92.6442C299.596 93.3068 299.315 93.773 298.801 94.0552C298.397 94.2884 297.908 94.3743 297.308 94.3129C296.574 94.2025 295.975 93.9571 295.51 93.589C294.972 93.135 294.727 92.5951 294.788 91.9571C294.813 91.6749 294.911 91.4049 295.082 91.1473M301.113 93.7117C300.832 93.3681 300.673 92.9878 300.648 92.5583C300.624 92.0675 300.746 91.6626 301.028 91.3191C301.285 90.951 301.639 90.681 302.092 90.5092C302.581 90.3375 303.046 90.3129 303.499 90.4233C303.988 90.5338 304.392 90.7669 304.735 91.1105C305.077 91.4295 305.31 91.773 305.42 92.1411C305.53 92.5951 305.505 93 305.334 93.3436C305.077 93.773 304.563 94.1043 303.793 94.3252C303.254 94.497 302.753 94.5338 302.3 94.4479C301.847 94.362 301.444 94.1166 301.101 93.724M295.645 38.9019C294.14 39.4172 293.663 40.362 294.238 41.724C294.776 43.1227 296.134 43.9816 298.299 44.2884L298.263 73.9694C296.024 74.3497 294.641 75.135 294.115 76.3252C293.577 77.6994 294.042 78.6687 295.522 79.2332C297.027 79.7485 298.385 78.9755 299.584 76.9264C300.147 78.043 300.82 78.7301 301.59 78.9878C301.627 79.4295 301.639 79.4417 301.627 79.0246C302.447 79.2822 303.364 79.1105 304.404 78.5092C305.946 76.6319 304.93 75.1105 301.37 73.9694C301.419 71.9694 301.395 68.4847 301.334 63.5154C301.211 51.724 301.138 45.3804 301.126 44.497C304.918 43.0737 306.044 41.4172 304.502 39.5276C302.447 38.362 300.844 38.9387 299.682 41.2822C298.52 39.1105 297.174 38.3129 295.669 38.8896M296.807 15.2209C294.617 15.7362 293.332 17.2086 292.965 19.6258C292.623 22.0184 294.066 23.8344 297.284 25.0614C297.198 25.9203 296.795 27.9203 296.085 31.0614L297.835 31.1473L298.006 29.9448C298.177 29.0614 298.348 28.3497 298.52 27.7976C298.63 27.4786 298.85 27.0614 299.156 26.5092C299.242 26.3129 299.315 26.1411 299.364 25.9939C299.425 25.9939 299.449 26.0184 299.449 26.0798C299.56 26.1657 299.621 26.362 299.621 26.681C299.682 27.0246 299.682 27.6626 299.621 28.6074C299.596 29.6013 299.547 30.4479 299.498 31.135L300.783 31.1718C300.673 29.6258 300.612 28.1779 300.612 26.8037C300.612 26.4356 300.722 26.2025 300.954 26.1166C301.04 26.0921 301.126 26.0798 301.211 26.0798C301.383 26.5338 301.529 27.0368 301.639 27.5767C301.701 27.8589 301.725 28.2638 301.725 28.7792L301.811 30.2393C301.811 30.5583 301.823 30.8773 301.847 31.2209H303.817C303.279 28.227 302.838 25.908 302.496 24.2884C305.909 24.5215 307.512 23.2577 307.279 20.5215C306.998 17.7853 305.713 16.0675 303.438 15.3804C301.187 14.6933 298.985 14.6442 296.819 15.2086M295.094 19.1964C295.29 18.9387 295.535 18.7669 295.816 18.681C296.134 18.5706 296.672 18.5215 297.443 18.5583C298.067 18.6197 298.495 18.7056 298.728 18.816C299.095 18.9878 299.364 19.2577 299.535 19.6258C299.706 19.9694 299.743 20.3252 299.657 20.6933C299.596 21.3559 299.315 21.8221 298.801 22.1043C298.397 22.3375 297.908 22.4233 297.308 22.362C296.574 22.2516 295.975 22.0062 295.51 21.6381C294.972 21.1841 294.727 20.6442 294.788 20.0062C294.813 19.724 294.911 19.454 295.082 19.1964M302.092 18.5951C302.581 18.4233 303.046 18.3988 303.499 18.5092C303.988 18.6197 304.392 18.8405 304.735 19.1473C305.077 19.454 305.31 19.8099 305.42 20.1779C305.53 20.6319 305.505 21.0368 305.334 21.3804C305.077 21.8099 304.563 22.1411 303.793 22.362C303.254 22.5338 302.753 22.5951 302.3 22.5338C301.847 22.4479 301.444 22.2025 301.101 21.8098C300.82 21.4663 300.661 21.0737 300.636 20.6074C300.612 20.1534 300.734 19.7485 301.015 19.4049C301.272 19.0368 301.627 18.7669 302.08 18.5951M36.0208 90.7178C33.4027 91.773 32.7665 93.2209 34.1 95.0491C36.3756 96.5338 38.2719 95.5399 39.7767 92.0552H137.186V92.0184H140.905C144.576 92.0184 148.393 92.0307 152.332 92.0552H280.144C281.685 95.5399 283.606 96.5338 285.906 95.0491C287.191 93.2209 286.53 91.7853 283.936 90.7178C286.322 89.6626 287.24 88.4602 286.665 87.1227C286.041 85.7485 284.976 85.3191 283.459 85.8344C281.893 86.3743 280.939 87.5276 280.596 89.3068H39.3975C38.9937 87.5399 38.0395 86.3865 36.5347 85.8344C34.9687 85.3191 33.9043 85.7485 33.3293 87.1227C32.7053 88.4602 33.5984 89.6626 36.0208 90.7178ZM16.5071 87.3313C14.256 87.9939 13.0081 89.6994 12.7512 92.4724C12.4698 95.2086 14.0603 96.4724 17.5348 96.2393C17.1922 97.8712 16.7273 100.178 16.1279 103.172L18.1343 103.135C18.1343 102.816 18.1465 102.509 18.171 102.19L18.2566 100.73C18.2811 100.215 18.3178 99.7976 18.3423 99.4908C18.4524 98.9755 18.6114 98.497 18.8072 98.0307H19.0152C19.2476 98.1166 19.3577 98.3497 19.3577 98.7178C19.3577 100.092 19.321 101.54 19.2354 103.086H20.52C20.4588 102.399 20.3976 101.564 20.312 100.558V98.5829C20.3732 98.3006 20.4343 98.1166 20.52 98.0307C20.5444 97.9694 20.5811 97.9448 20.6056 97.9448C20.6668 98.0553 20.7524 98.2148 20.8625 98.4111C21.1439 98.9878 21.3519 99.4295 21.462 99.7362C21.6578 100.276 21.829 100.988 21.9759 101.883L22.1471 103.037L23.8966 103C23.1871 99.8589 22.7956 97.8589 22.7466 97C25.9398 95.773 27.3589 93.9571 27.0164 91.5644C26.6126 89.135 25.3525 87.6503 23.2115 87.1105C21.046 86.5706 18.8194 86.6442 16.5071 87.3191M15.2225 91.0982C15.5651 90.7546 15.9811 90.5215 16.4582 90.4111C16.9476 90.3007 17.4125 90.3252 17.8651 90.497C18.3545 90.6687 18.7093 90.9387 18.9295 91.3068C19.2109 91.6503 19.3455 92.0675 19.3088 92.546C19.2843 92.9755 19.1253 93.3559 18.8439 93.6994C18.5013 94.1043 18.1098 94.3375 17.6449 94.4233C17.2167 94.5092 16.7029 94.4602 16.1034 94.3007C15.3938 94.0675 14.8922 93.7485 14.6108 93.319C14.4151 92.9755 14.3784 92.5829 14.5252 92.1166C14.672 91.7485 14.8922 91.4049 15.2103 91.0859M20.312 92.6442C20.2508 92.2761 20.312 91.9203 20.4833 91.5767C20.6546 91.2086 20.8992 90.9387 21.2051 90.7669C21.462 90.6565 21.9147 90.5706 22.5753 90.5092C23.3461 90.4479 23.8722 90.4847 24.1536 90.5951C24.4349 90.7056 24.6796 90.8896 24.8754 91.1473C25.0711 91.4049 25.1935 91.6749 25.2179 91.9571C25.2424 92.5829 25.01 93.1227 24.4961 93.589C24.0435 93.9571 23.4317 94.2025 22.661 94.3129C22.086 94.3743 21.6088 94.2884 21.2051 94.0552C20.6913 93.773 20.3976 93.2945 20.312 92.6442ZM15.5284 39.5399C13.8156 41.6013 14.9289 43.3068 18.8561 44.681C18.4768 60.3988 18.3178 70.043 18.3912 73.6258C14.9167 74.9264 13.9746 76.5583 15.5773 78.5092C17.6327 79.7117 19.2354 79.1841 20.3976 76.9264C21.5966 78.9878 22.9301 79.7485 24.4105 79.2332C25.952 78.6565 26.4291 77.6871 25.8664 76.3252C25.3036 74.9632 24.0067 74.1166 21.9759 73.7976V58.2148H21.9392V44.3006C23.9333 43.9816 25.2179 43.135 25.7807 41.7362C26.319 40.362 25.8419 39.4295 24.3248 38.9141C22.869 38.3375 21.5354 39.1473 20.312 41.3068C19.1742 38.9632 17.5837 38.3865 15.5284 39.5522M20.0061 50.7546L20.1774 49.6013C20.1285 50.0184 20.0918 50.4111 20.0551 50.8037C20.0551 50.8037 20.0306 50.7914 20.0184 50.7669M27.0164 19.6258C26.6126 17.1964 25.3525 15.724 23.2115 15.2209C21.046 14.6442 18.8194 14.7056 16.5071 15.3927C14.256 16.0798 13.0081 17.7853 12.7512 20.5338C12.4698 23.27 14.0603 24.5338 17.5348 24.3006C17.1922 25.9326 16.7273 28.2393 16.1279 31.2332H18.1343C18.1343 30.8896 18.1465 30.5583 18.171 30.2516L18.2566 28.7914C18.2811 28.2761 18.3178 27.8835 18.3423 27.589C18.4524 27.0491 18.6114 26.546 18.8072 26.0921C18.8928 26.0921 18.9662 26.1043 19.0152 26.1289C19.2476 26.2148 19.3577 26.4479 19.3577 26.816C19.3577 28.1902 19.321 29.6381 19.2354 31.1841L20.52 31.1473C20.4588 30.4602 20.3976 29.6258 20.312 28.6197V26.6933C20.3732 26.3743 20.4343 26.1779 20.52 26.0921C20.5444 26.0307 20.5811 26.0062 20.6056 26.0062C20.6668 26.1534 20.7524 26.3252 20.8625 26.5215C21.1439 27.0614 21.3519 27.4908 21.462 27.8099C21.6578 28.3497 21.829 29.0614 21.9759 29.9571L22.1471 31.1595L23.8966 31.0737C23.1871 27.9326 22.7956 25.9326 22.7466 25.0737C25.9398 23.8467 27.3589 22.0307 27.0164 19.6381M24.8754 19.1964C25.0711 19.454 25.1935 19.724 25.2179 20.0062C25.2424 20.6319 25.01 21.1718 24.4961 21.6381C24.0435 22.0062 23.4317 22.2516 22.661 22.362C22.086 22.4233 21.6088 22.3375 21.2051 22.1043C20.6913 21.8221 20.3976 21.3436 20.312 20.6933C20.2508 20.3252 20.312 19.9694 20.4833 19.6258C20.6546 19.2577 20.8992 18.9878 21.2051 18.816C21.462 18.7056 21.9147 18.6197 22.5753 18.5583C23.3461 18.5338 23.8722 18.5706 24.1536 18.681C24.4349 18.7669 24.6796 18.9387 24.8754 19.1964ZM16.4704 18.5092C16.9598 18.3988 17.4247 18.4233 17.8774 18.5951C18.3667 18.7669 18.7215 19.0368 18.9418 19.4049C19.2231 19.7485 19.3577 20.1411 19.321 20.6074C19.2965 21.0614 19.1375 21.4663 18.8561 21.8098C18.5136 22.2148 18.1221 22.4479 17.6572 22.5338C17.229 22.5951 16.7151 22.5338 16.1156 22.362C15.406 22.1289 14.9044 21.8099 14.623 21.3804C14.4273 21.0368 14.3906 20.6442 14.5374 20.1779C14.6842 19.8099 14.9044 19.4663 15.2225 19.1473C15.5651 18.8283 15.9811 18.6197 16.4582 18.5092M36.5347 21.4295C34.9687 20.9387 33.9043 21.3681 33.3293 22.7178C32.7053 24.0553 33.5984 25.2577 36.0208 26.3129C33.4027 27.3436 32.7665 28.7792 34.1 30.6442C36.3756 32.1289 38.2719 31.1105 39.7767 27.6013C40.523 27.6135 43.0922 27.6258 47.4843 27.6258C65.3097 27.6258 92.4576 27.6258 128.928 27.6013H192.265C228.613 27.6135 255.504 27.6258 272.913 27.6258C277.024 27.6258 279.434 27.6258 280.144 27.6013C281.685 31.1105 283.606 32.1289 285.906 30.6442C287.191 28.7914 286.53 27.3436 283.936 26.3129C286.322 25.2577 287.24 24.0553 286.665 22.7178C286.041 21.3804 284.976 20.951 283.459 21.4295C281.893 21.9448 280.939 23.0982 280.596 24.9019C280.596 24.9019 277.526 24.9019 272.901 24.8896C227.83 24.8651 137.174 24.816 137.174 24.816C137.174 24.816 81.6302 24.8528 47.4721 24.8773L39.373 24.9019C38.9693 23.0982 38.015 21.9448 36.5102 21.4295H36.5347Z" fill="#C0B8AA" />
    <path d="M28.5701 59.9816H28.6557L28.6924 68.546V68.6319C35.5803 72.3129 39.7522 76.8405 41.2081 82.2025H278.81C280.266 76.8405 284.45 72.3129 291.363 68.6319L291.399 59.9816H291.436L291.473 49.4417C284.438 45.5276 280.217 40.9755 278.786 35.7853H141.639V35.8221H137.92C95.6996 35.8098 65.5543 35.7975 47.4843 35.7853C43.3858 35.7853 41.2937 35.7853 41.1959 35.7853C39.8012 40.9755 35.5681 45.5399 28.5089 49.4417L28.5456 59.9816M34.883 68.546C33.9532 67.8589 32.9377 67.1963 31.8489 66.5337V51.454C38.1128 47.6626 41.9177 43.5153 43.2512 39.0368H276.743C278.076 43.5153 281.881 47.6626 288.145 51.454V66.5337C287.056 67.1963 286.028 67.8712 285.074 68.546C280.633 71.7853 277.856 75.2454 276.743 78.9509H43.2512C42.1501 75.2454 39.3607 71.7853 34.883 68.546Z" fill="#535761" />
    <defs>
        <filter
            id="filter0_d_110_557" x="0" y="0.969971"
            width="321.001"
            height="121.024" filterUnits="userSpaceOnUse" color-interpolation-filters="sRGB"
        >
            <feFlood flood-opacity="0" result="BackgroundImageFix" />
            <feColorMatrix in="SourceAlpha" type="matrix" values="0 0 0 0 0 0 0 0 0 0 0 0 0 0 0 0 0 0 127 0" result="hardAlpha" />
            <feOffset dx="1" dy="5" />
            <feComposite in2="hardAlpha" operator="out" />
            <feColorMatrix type="matrix" values="0 0 0 0 0 0 0 0 0 0 0 0 0 0 0 0 0 0 0.25 0" />
            <feBlend mode="normal" in2="BackgroundImageFix" result="effect1_dropShadow_110_557" />
            <feBlend mode="normal" in="SourceGraphic" in2="effect1_dropShadow_110_557" result="shape" />
        </filter>
    </defs>
</svg>