<svg width="144" height="240" viewBox="0 0 144 240" fill="none" xmlns="http://www.w3.org/2000/svg">
<path d="M18.9632 56.784C18.9271 56.9408 18.903 57.1216 18.903 57.3266C18.903 61.2207 19.7097 65.2595 21.311 69.4429C21.3953 69.684 22.6595 72.4328 25.1037 77.7013C27.0301 81.8365 28.2702 85.0796 28.8361 87.4064C29.5224 90.1432 29.8595 93.6153 29.8595 97.8349C29.8595 100.005 29.2936 101.608 28.1739 102.657C27.2468 103.501 26.0669 103.923 24.6221 103.923C23.8997 103.923 22.491 103.586 20.408 102.898C20.2033 102.296 19.4087 101.608 18 100.849C16.2783 99.9688 15.1946 99.3058 14.7492 98.8597C12.7385 97.0151 11.5224 95.7854 11.0769 95.1826C10.0294 93.6997 8.6689 92.0118 6.98328 90.119C5.86355 88.829 5.08094 87.7078 4.63545 86.7433C4.18997 85.7789 3.31104 84.4286 1.98662 82.7046C0.698328 81.1734 0.0361204 80.3898 0 80.3536C1.8903 86.5866 3.16656 91.8069 3.85284 96.0265C4.37057 99.6072 4.63545 103.586 4.63545 107.962C4.63545 111.253 4.25017 117.764 3.49164 127.493C2.68495 137.222 2.28763 142.72 2.28763 144.01C2.28763 144.094 2.80535 148.687 3.85284 157.814C4.29833 160.382 4.75585 162.54 5.23746 164.264C6.32107 168.327 7.88629 172.583 9.93311 177.043C11.414 180.335 16.0495 185.265 23.8395 191.812C27.3672 193.898 32.689 195.851 39.7926 197.659L39.8528 190.847C34.9525 189.28 30.5819 187.375 26.7291 185.121C25.4408 184.361 23.9358 183.168 22.214 181.564C19.7699 179.274 17.8435 176.862 16.4348 174.331C11.0528 164.65 8.36789 155.282 8.36789 146.24C8.36789 143.986 8.75318 137.234 9.51171 125.986C10.1498 116.703 10.2702 111.06 9.87291 109.047C9.78863 106.998 9.63211 104.791 9.3913 102.416L9.0903 99.5228C11.2936 102.621 14.3518 105.093 18.2408 106.937C21.0462 108.227 23.4783 108.951 25.5251 109.107C27.3672 104.888 30.5458 100.885 35.0368 97.1116C35.0729 96.4244 35.097 95.7251 35.097 95.0018C35.097 89.4198 33.2548 82.6202 29.5585 74.627C27.4756 70.0819 26.2114 67.2125 25.7659 66.0069C24.598 62.9929 24.0201 60.3767 24.0201 58.1705C24.0201 54.192 25.79 49.9121 29.3177 45.3308C31.8823 42.0395 34.2301 39.6644 36.3612 38.2177C36.9632 44.9691 39.7686 51.5758 44.7893 58.0499C45.4274 58.8577 46.0776 59.6172 46.7157 60.3406C49.9666 63.9574 53.4221 66.4048 57.0702 67.6948C59.0809 68.4181 61.1398 68.7798 63.2709 68.7798C63.7886 68.7798 64.5592 68.7195 65.5585 68.599C66.7264 68.4784 67.5452 68.3337 68.0268 68.177C68.3518 68.0565 68.713 67.8997 69.1104 67.6948C69.6763 67.4175 70.3505 67.0558 71.1572 66.6097C71.7592 66.2119 72.3371 65.8261 72.903 65.4644C74.6247 65.4644 76.4789 63.2702 78.4415 58.8939C80.2114 54.9154 81.0903 51.8652 81.0903 49.7312C81.0903 47.2356 79.501 43.0401 76.3344 37.1327C74.6127 33.9137 73.3605 31.2011 72.602 28.9948C70.9164 25.6191 71.4341 20.2301 74.1672 12.8397C73.0475 16.1792 73.3003 20.218 74.9498 24.956C76.7197 30.0196 78.598 33.552 80.6087 35.5654C82.5712 37.4943 85.0395 39.363 88.0134 41.1714C89.5425 42.0515 90.903 42.7749 92.107 43.3415C96.8388 45.3549 100.391 48.8873 102.763 53.9509C104.653 57.9294 105.676 62.5107 105.833 67.6948C105.833 68.1409 105.833 68.5628 105.833 68.9607C105.833 71.8903 105.797 73.8795 105.712 74.9284C105.628 75.2901 105.375 76.134 104.93 77.4602C104.484 78.6296 104.268 79.6664 104.268 80.5948C104.268 85.6945 104.785 89.3354 105.833 91.5055C108 92.7473 110.023 94.1217 111.913 95.6046C112.359 95.6889 112.84 95.7492 113.358 95.7854C113.683 95.8216 114.02 95.8457 114.381 95.8457C114.899 95.8818 115.441 95.906 116.007 95.906C118.692 95.906 121.28 94.9656 123.773 93.0728C126.217 91.18 128.384 88.4674 130.274 84.9349C130.395 85.815 130.611 87.2618 130.936 89.2751C131.141 90.6857 131.237 91.5417 131.237 91.8672C131.237 96.5329 132.321 105.37 134.488 118.391C136.692 131.411 137.799 139.549 137.799 142.804C137.799 148.712 135.813 155.559 131.839 163.36C127.385 172.197 121.81 178.791 115.104 183.132L115.405 191.45C116.97 190.606 118.535 189.726 120.1 188.798C123.556 186.664 127.084 183.517 130.696 179.334C133.549 175.994 135.777 172.884 137.378 169.99C139.34 166.458 140.966 161.792 142.254 156.005C143.422 150.821 144 146.421 144 142.804C144 140.152 143.555 136.39 142.676 131.532C141.712 126.432 141.086 123.056 140.809 121.405C140.653 119.994 140.063 116.739 139.064 111.639C138.666 109.626 136.258 93.2777 131.839 62.571C129.311 79.4133 123.592 88.6723 114.682 90.3602C112.72 90.2758 111.275 89.7574 110.348 88.7929C109.264 87.6234 108.722 85.6342 108.722 82.8251C108.722 81.2217 109.047 78.7502 109.686 75.4107C110.203 72.8789 110.504 70.3109 110.589 67.6948C110.625 66.887 110.649 66.1034 110.649 65.3438C110.649 56.3018 108.217 49.2249 103.365 44.1252C101.438 42.16 98.8134 40.0864 95.4783 37.9163C93.7565 36.8674 92.2033 35.9512 90.8428 35.1434C85.5813 32.8528 81.4876 27.6928 78.5619 19.6514C76.5993 14.3105 78.0201 7.75205 82.8361 0C69.1946 8.64419 63.8488 19.1932 66.8227 31.6472C66.9431 32.25 67.0876 32.8287 67.2441 33.3953C67.8462 35.3604 69.0502 37.9766 70.8562 41.2317C72.6983 44.4869 73.5411 47.6576 73.3846 50.756C73.2281 53.8544 72.1806 56.5068 70.2542 58.713C68.412 60.8831 65.9799 61.9682 62.9699 61.9682C58.4789 61.9682 55.0475 61.0037 52.6756 59.0747C50.2676 57.1096 47.8956 54.192 45.5719 50.334C43.2482 46.3917 40.8401 39.8212 38.3478 30.6224C25.4288 41.1112 18.9632 49.8277 18.9632 56.784Z" fill="#F3735C"/>
<path d="M134.488 118.391C132.321 105.37 131.237 96.5329 131.237 91.8672C131.237 91.5417 131.141 90.6857 130.936 89.2751C130.611 87.2618 130.395 85.815 130.274 84.935C128.384 88.4674 126.217 91.18 123.773 93.0728C121.28 94.9656 118.692 95.906 116.007 95.906C115.441 95.906 114.899 95.8819 114.381 95.8457C114.02 95.8457 113.683 95.8216 113.358 95.7854C112.84 95.7492 112.359 95.689 111.913 95.6046C119.414 101.512 124.531 109.409 127.264 119.295C129.191 128.698 125.603 137.475 116.488 145.637C125.001 149.736 128.89 154.318 128.167 159.381C126.722 163.721 122.171 165.988 114.502 166.193L115.104 183.132C121.81 178.791 127.385 172.197 131.84 163.36C135.813 155.559 137.799 148.712 137.799 142.804C137.799 139.549 136.692 131.411 134.488 118.391ZM9.09033 99.5228L9.39133 102.416C9.63213 104.791 9.78866 106.998 9.87294 109.047C10.2703 111.06 10.1499 116.703 9.51173 125.986C8.7532 137.234 8.36792 143.986 8.36792 146.24C8.36792 155.282 11.0529 164.65 16.4348 174.331C17.8435 176.862 19.7699 179.274 22.2141 181.564C23.9358 183.168 25.4408 184.361 26.7291 185.121C30.582 187.375 34.9525 189.28 39.8529 190.847L40.0937 168.544C33.5559 168.508 29.4622 166.832 27.8127 163.54C25.0796 158.115 28.3305 153.016 37.5652 148.229C37.5291 148.193 37.505 148.145 37.505 148.109C37.3846 147.952 37.2883 147.771 37.204 147.566C25.2482 138.006 21.0703 125.95 24.6823 111.398C24.9231 110.59 25.2 109.831 25.5251 109.107C23.4783 108.951 21.0462 108.227 18.2408 106.937C14.3519 105.093 11.2937 102.621 9.09033 99.5228ZM74.1673 12.8397C71.4341 20.2301 70.9164 25.6191 72.602 28.9948C73.3606 31.2011 74.6127 33.9137 76.3345 37.1327C79.501 43.0402 81.0903 47.2357 81.0903 49.7313C81.0903 51.8652 80.2114 54.9154 78.4415 58.8939C76.479 63.2702 74.6248 65.4644 72.903 65.4644C72.3372 65.8261 71.7592 66.2119 71.1572 66.6097C70.3505 67.0558 69.6763 67.4175 69.1104 67.6948C68.7131 67.8997 68.3519 68.0565 68.0268 68.177C67.5452 68.3338 66.7265 68.4784 65.5586 68.599C64.5592 68.7196 63.7887 68.7798 63.2709 68.7798C61.1398 68.7798 59.081 68.4182 57.0703 67.6948C53.4221 66.4048 49.9666 63.9574 46.7157 60.3406C46.0776 59.6172 45.4275 58.8577 44.7893 58.0499C39.7686 51.5758 36.9632 44.9691 36.3612 38.2177C34.2301 39.6645 31.8823 42.0395 29.3178 45.3308C25.79 49.9121 24.0201 54.192 24.0201 58.1705C24.0201 60.3768 24.598 62.9929 25.7659 66.0069C26.2114 67.2126 27.4756 70.0819 29.5586 74.627C33.2549 82.6202 35.097 89.4198 35.097 95.0018C35.097 95.7251 35.0729 96.4244 35.0368 97.1116C37.8061 94.7365 41.1171 92.47 44.9699 90.2999C47.9438 88.6964 51.1706 87.3462 54.6622 86.2611C66.1004 82.801 78.285 82.6443 91.204 85.7789C92.7331 86.1406 94.2502 86.5625 95.7793 87.0448C96.0562 87.1292 96.3452 87.2015 96.6221 87.2859C99.9572 88.5277 103.027 89.9382 105.833 91.5055C104.785 89.3354 104.268 85.6945 104.268 80.5948C104.268 79.6665 104.484 78.6296 104.93 77.4602C105.375 76.134 105.628 75.2901 105.712 74.9284C105.797 73.8796 105.833 71.8903 105.833 68.9607C105.833 68.5628 105.833 68.1409 105.833 67.6948C105.676 62.5107 104.653 57.9294 102.763 53.9509C100.391 48.8873 96.8388 45.3549 92.1071 43.3416C90.903 42.7749 89.5425 42.0516 88.0134 41.1715C85.0395 39.3631 82.5713 37.4944 80.6087 35.5654C78.598 33.552 76.7198 30.0196 74.9499 24.9561C73.3004 20.218 73.0475 16.1793 74.1673 12.8397Z" fill="#F79659"/>
<path d="M37.8662 148.109C37.6254 147.952 37.4086 147.771 37.2039 147.566C37.2882 147.771 37.3846 147.952 37.505 148.109C37.505 148.145 37.529 148.193 37.5652 148.229C37.6494 148.193 37.7458 148.145 37.8662 148.109ZM42.2006 100.306C40.3585 101.753 38.6728 103.284 37.1437 104.888C36.4575 105.575 35.6628 106.491 34.7357 107.661C33.327 109.795 32.1712 112.025 31.2441 114.352C28.4387 122.755 31.509 132.773 40.4548 144.432C41.5023 145.842 42.6581 147.265 43.9464 148.712C44.1029 148.917 44.2715 149.109 44.428 149.314C44.2715 149.399 44.1029 149.471 43.9464 149.555C42.7785 150.074 41.8153 150.52 41.0568 150.882C40.816 151.038 40.5993 151.183 40.3946 151.304C38.4682 152.352 37.0595 153.257 36.1805 154.016C35.7351 154.414 35.3377 154.824 34.9765 155.222C34.82 155.379 34.6755 155.523 34.5551 155.644C34.519 155.728 34.4949 155.788 34.4949 155.825C34.3745 155.909 34.2902 155.981 34.2541 156.066C33.327 157.235 33.0862 158.381 33.5317 159.502C33.8929 160.346 34.531 160.973 35.4581 161.37C36.0963 161.648 36.9872 161.889 38.107 162.094C38.7932 162.178 39.4916 162.251 40.214 162.335C41.4541 162.419 42.7424 162.455 44.0668 162.455C45.8367 162.455 47.6187 162.359 49.4247 162.154C51.7123 161.913 54.0361 161.515 56.408 160.948C58.1779 160.551 59.4541 160.309 60.2608 160.225H60.3812C60.4173 160.309 60.4655 160.37 60.5016 160.406C60.6581 160.611 60.7424 160.852 60.7424 161.129C60.8267 161.25 60.8869 161.407 60.923 161.612L63.6922 171.498C63.8126 171.895 63.933 172.257 64.0535 172.583C66.0642 173.27 68.1471 173.764 70.3143 174.09L69.9531 164.143C71.1932 164.421 72.024 167.82 72.4213 174.331C73.9504 174.487 75.5277 174.536 77.1772 174.451C77.0207 172.004 76.7919 168.881 76.515 165.108C76.515 163.938 76.5511 163.094 76.6354 162.576C76.7558 162.094 77.3337 161.612 78.3812 161.129L79.6454 174.331C80.9698 174.21 82.3304 174.029 83.7391 173.788C83.7391 171.618 83.715 168.749 83.6789 165.168C84.9672 164.77 85.6896 167.495 85.8461 173.366C87.7364 172.92 89.6628 172.366 91.6254 171.678V168.845L92.408 157.091C93.1665 157.247 93.9371 157.416 94.6956 157.573C98.3438 158.332 101.643 158.923 104.568 159.321C106.495 159.562 108.265 159.743 109.866 159.863C111.467 159.984 112.936 160.02 114.261 159.984C114.417 159.984 114.598 159.984 114.803 159.984C117.692 159.827 119.655 159.237 120.702 158.236C120.787 158.151 120.847 158.115 120.883 158.115C122.364 154.414 120.305 151.159 114.682 148.35C114.405 148.229 114.104 148.109 113.779 147.988C112.696 147.47 111.516 146.988 110.227 146.541C110.348 146.421 110.444 146.276 110.528 146.12C111.335 145.155 112.07 144.191 112.756 143.226C119.257 134.22 122.003 126.95 121.003 121.405C120.124 115.859 117.247 110.458 112.395 105.189C105.327 97.5577 95.0568 92.892 81.5718 91.2042C67.1598 89.3958 54.0361 92.4339 42.2006 100.306ZM44.2474 117.306C44.7652 117.269 45.4876 117.402 46.4146 117.727C48.618 118.415 50.2916 118.933 51.4113 119.295C53.422 119.898 55.1076 120.464 56.4682 120.983C58.2742 121.622 64.0173 123.756 73.6856 127.372C73.7217 127.409 73.7819 127.433 73.8662 127.433L72.4815 119.174C72.2046 117.245 72.0361 115.774 71.9999 114.774C71.9157 113.122 72.0842 111.663 72.4815 110.373C72.7223 109.288 73.2401 108.685 74.0468 108.565C74.733 108.529 75.2869 108.806 75.7324 109.409C75.9371 109.855 76.0695 110.494 76.1538 111.338L77.6588 123.756C78.3812 119.379 79.5852 115.497 81.2708 112.121C81.632 112.001 81.9692 111.916 82.2943 111.88C82.8601 112.278 83.2213 112.845 83.3779 113.568C83.5825 114.292 83.5825 115.256 83.3779 116.462C83.0167 119.319 82.3545 123.297 81.3912 128.397C82.1136 128.156 82.8361 127.939 83.5585 127.734C85.1598 127.288 87.8086 126.709 91.505 125.986C98.0066 124.696 104.087 123.9 109.746 123.575C107.855 126.866 103.629 128.964 97.0434 129.844C101.655 132.894 102.618 136.318 99.933 140.091C96.5979 144.034 92.5645 145.734 87.8327 145.215C87.2307 145.131 86.7491 145.071 86.3879 145.034C81.6561 143.949 78.5016 141.454 76.9364 137.56C75.2508 142.382 70.6996 145.01 63.2708 145.456C60.1765 145.577 57.3471 144.817 54.7825 143.166C51.9772 141.032 50.713 138.38 50.9899 135.209C51.2307 132.038 53.4822 129.687 57.7324 128.156C49.7498 124.262 45.006 120.705 43.525 117.486C43.7297 117.366 43.9705 117.306 44.2474 117.306ZM59.2374 112.182C63.0902 115.039 66.004 117.993 67.9665 121.043C67.3645 121.525 66.5578 121.344 65.5585 120.5L50.2073 107.781C52.3745 107.817 55.3846 109.288 59.2374 112.182ZM53.9397 145.999C55.4688 146.879 56.9137 147.542 58.2742 147.988C59.6829 148.434 61.5009 148.446 63.7524 148.048C66.0401 147.651 66.9792 147.868 66.5819 148.712C66.4615 148.796 66.317 148.892 66.1605 149.013C64.8722 149.977 63.4755 150.604 61.9464 150.882C60.2969 151.123 58.7558 150.978 57.311 150.46C56.9859 150.303 56.4922 150.038 55.806 149.676C54.7223 149.073 53.8795 148.47 53.2775 147.868C52.7598 147.385 52.2541 146.819 51.7725 146.18C50.9658 145.215 50.4722 144.408 50.2675 143.769C50.1471 143.527 50.1471 143.347 50.2675 143.226C50.3879 143.106 50.5324 143.081 50.6889 143.166C50.7732 143.202 50.8936 143.31 51.0501 143.467C52.0133 144.432 52.9765 145.276 53.9397 145.999ZM67.1839 152.027C67.9063 149.495 69.2307 147.385 71.1571 145.698C71.6749 145.251 72.1805 144.854 72.6621 144.492C74.2274 143.323 75.7926 142.467 77.3578 141.9C78.3571 142.78 79.2601 143.672 80.0668 144.552C85.1598 149.7 87.1464 153.172 86.0267 154.981C85.9063 155.017 85.81 155.065 85.7257 155.101C85.1237 155.258 84.5217 155.282 83.9197 155.162C82.9203 155.005 81.8728 154.462 80.7892 153.534C79.1879 152.244 77.9839 150.484 77.1772 148.229C74.3718 154.981 71.4943 157.452 68.5685 155.644C67.81 155.005 67.3404 153.799 67.1839 152.027ZM84.2207 123.153C84.618 122.912 85.0394 122.634 85.4849 122.309C88.1698 120.416 91.4086 118.415 95.1772 116.281C97.6213 114.87 99.7886 114.05 101.679 113.809C102.522 113.725 103.088 113.894 103.364 114.292L96.3812 118.511C94.0575 119.922 92.408 120.838 91.4447 121.284C90.2046 121.887 88.4347 122.586 86.1471 123.394C85.1839 123.756 84.5578 123.695 84.2809 123.213C84.2809 123.177 84.2568 123.153 84.2207 123.153ZM86.5083 147.928C86.2314 147.687 86.111 147.446 86.1471 147.205V147.084C86.3036 146.807 86.5083 146.662 86.7491 146.662C86.8334 146.662 87.0742 146.686 87.4715 146.722C90.1565 147.325 92.5524 147.349 94.6354 146.783C96.4775 146.264 98.0668 145.3 99.3912 143.889C100.078 143.166 100.439 142.78 100.475 142.744C100.956 142.346 101.402 142.057 101.799 141.9C102.04 142.828 101.884 143.793 101.318 144.793C100.872 145.517 100.21 146.276 99.331 147.084C98.6086 147.602 98.127 147.928 97.8862 148.048C97.6093 148.205 97.1999 148.386 96.6822 148.591C96.0802 148.832 95.4541 149.037 94.816 149.194C92.733 149.64 90.4213 149.435 87.8929 148.591C87.2548 148.434 86.7852 148.205 86.5083 147.928ZM79.9464 135.51C80.1029 135.908 80.2835 136.318 80.4882 136.716C80.4882 136.559 80.4642 136.39 80.428 136.234V135.992C80.2715 135.836 80.1029 135.667 79.9464 135.51Z" fill="#F9EDC8"/>
<path d="M44.9699 90.3C41.1171 92.4701 37.806 94.7366 35.0368 97.1116C30.5458 100.885 27.3672 104.888 25.5251 109.107C25.2 109.831 24.9231 110.59 24.6823 111.398C21.0703 125.95 25.2482 138.006 37.204 147.566C37.4087 147.771 37.6254 147.952 37.8662 148.109C37.7458 148.145 37.6495 148.193 37.5652 148.229C28.3305 153.016 25.0796 158.115 27.8127 163.541C29.4622 166.832 33.5559 168.508 40.0937 168.544L39.8529 190.848L39.7927 197.659L39.4917 220.264C40.9726 226.931 46.7759 230.572 56.8897 231.175C56.8897 236.721 61.3806 239.614 70.3746 239.855C79.3686 240.133 87.8087 240 95.7191 239.433C103.629 238.831 106.76 235.117 105.11 228.282C112.334 228.197 116.043 223.616 116.248 214.538L115.405 191.45L115.104 183.132L114.502 166.193C122.171 165.988 126.722 163.721 128.167 159.381C128.89 154.318 125.001 149.736 116.488 145.637C125.603 137.475 129.191 128.699 127.264 119.295C124.531 109.409 119.414 101.512 111.913 95.6046C110.023 94.1217 108 92.7473 105.833 91.5056C103.027 89.9383 99.9572 88.5277 96.6221 87.2859C96.3452 87.2016 96.0562 87.1292 95.7793 87.0448C94.2502 86.5626 92.7331 86.1406 91.204 85.7789C78.285 82.6444 66.1004 82.8011 54.6622 86.2612C51.1706 87.3462 47.9438 88.6965 44.9699 90.3ZM37.1438 104.888C38.6729 103.284 40.3585 101.753 42.2007 100.306C54.0361 92.4339 67.1599 89.3958 81.5719 91.2042C95.0569 92.892 105.327 97.5577 112.395 105.189C117.247 110.458 120.124 115.859 121.003 121.405C122.003 126.95 119.258 134.22 112.756 143.226C112.07 144.191 111.335 145.155 110.528 146.12C110.444 146.276 110.348 146.421 110.227 146.541C111.516 146.988 112.696 147.47 113.779 147.988C114.104 148.109 114.405 148.229 114.682 148.35C120.305 151.159 122.364 154.414 120.883 158.115C120.847 158.115 120.787 158.151 120.702 158.236C119.655 159.237 117.692 159.827 114.803 159.984C114.598 159.984 114.417 159.984 114.261 159.984C112.936 160.02 111.468 159.984 109.866 159.863C108.265 159.743 106.495 159.562 104.569 159.321C101.643 158.923 98.3438 158.332 94.6957 157.573C93.9371 157.416 93.1666 157.247 92.408 157.091L91.6254 168.845V171.678C89.6629 172.366 87.7365 172.92 85.8462 173.366C85.6897 167.495 84.9672 164.77 83.6789 165.168C83.7151 168.749 83.7392 171.618 83.7392 173.788C82.3305 174.029 80.9699 174.21 79.6455 174.331L78.3813 161.129C77.3338 161.612 76.7559 162.094 76.6355 162.576C76.5512 163.094 76.5151 163.938 76.5151 165.108C76.792 168.881 77.0208 172.004 77.1773 174.451C75.5278 174.536 73.9505 174.487 72.4214 174.331C72.0241 167.82 71.1933 164.421 69.9532 164.143L70.3144 174.09C68.1472 173.764 66.0642 173.27 64.0535 172.583C63.9331 172.257 63.8127 171.895 63.6923 171.498L60.9231 161.612C60.887 161.407 60.8268 161.25 60.7425 161.129C60.7425 160.852 60.6582 160.611 60.5017 160.406C60.4656 160.37 60.4174 160.309 60.3813 160.225H60.2609C59.4542 160.309 58.1779 160.551 56.408 160.948C54.0361 161.515 51.7124 161.913 49.4248 162.154C47.6187 162.359 45.8368 162.455 44.0669 162.455C42.7425 162.455 41.4542 162.419 40.2141 162.335C39.4917 162.251 38.7933 162.178 38.107 162.094C36.9873 161.889 36.0963 161.648 35.4582 161.37C34.5311 160.973 33.893 160.346 33.5318 159.502C33.0863 158.381 33.3271 157.235 34.2542 156.066C34.2903 155.981 34.3746 155.909 34.495 155.825C34.495 155.788 34.5191 155.728 34.5552 155.644C34.6756 155.523 34.8201 155.379 34.9766 155.222C35.3378 154.824 35.7351 154.414 36.1806 154.016C37.0596 153.257 38.4682 152.353 40.3947 151.304C40.5993 151.183 40.8161 151.038 41.0569 150.882C41.8154 150.52 42.7786 150.074 43.9465 149.555C44.103 149.471 44.2716 149.399 44.4281 149.314C44.2716 149.109 44.103 148.917 43.9465 148.712C42.6582 147.265 41.5024 145.842 40.4549 144.432C31.509 132.773 28.4388 122.755 31.2442 114.352C32.1713 112.025 33.3271 109.795 34.7358 107.661C35.6629 106.491 36.4575 105.575 37.1438 104.888ZM44.1873 168.303C45.8368 168.182 47.6188 167.965 49.5452 167.64C49.6656 177.887 49.8101 186.507 49.9666 193.5C49.9666 195.79 50.0027 197.9 50.087 199.829C50.3278 209.595 50.5927 214.875 50.8696 215.683C51.5077 217.733 53.7953 218.902 57.7325 219.179C59.2134 219.3 61.3204 219.264 64.0535 219.059C64.5351 216.406 64.9204 214.236 65.1973 212.548C66.7626 212.633 68.1713 212.693 69.4114 212.729C69.8569 215.864 70.194 218.275 70.4348 219.963C71.1211 217.274 71.7351 214.755 72.301 212.428C72.903 212.705 73.5291 212.85 74.1672 212.85C74.4442 212.85 75.0462 212.85 75.9733 212.85C76.0937 216.069 76.2141 219.143 76.3345 222.073C77.5024 220.59 78.0442 217.516 77.9599 212.85C79.3686 212.765 80.994 212.826 82.8361 213.031C82.9204 215.804 82.9927 218.07 83.0769 219.842C84.2448 219.035 84.883 216.708 85.0034 212.85C87.4475 212.693 89.5425 212.524 91.2642 212.368C92.0709 215.502 92.5044 217.25 92.5886 217.612C92.8656 217.612 93.3472 217.636 94.0335 217.672C94.19 217.672 94.4187 217.696 94.6957 217.733C96.7786 217.612 98.3679 217.528 99.4515 217.491C102.425 216.527 104.123 214.815 104.569 212.368C104.484 212.452 104.424 212.512 104.388 212.548L104.207 212.729L104.629 211.946C104.665 211.5 104.689 211.066 104.689 210.619C104.689 210.463 104.689 210.294 104.689 210.137L104.629 165.59C106.555 165.831 108.361 166.012 110.047 166.133C110.252 173.402 110.432 179.913 110.589 185.663C110.673 188.521 110.733 191.185 110.769 193.681C111.046 206.979 111.046 214.743 110.769 216.949C110.203 221.53 107.555 223.544 102.823 222.977C100.174 220.686 98.3679 220.083 97.4047 221.168C101.462 229.487 101.342 233.647 97.0435 233.647C92.7452 233.683 90.0241 233.731 88.8562 233.767L80.5485 233.827C78.0201 233.827 72.7826 233.864 64.8361 233.948C61.5853 233.743 60.285 231.259 60.9231 226.473C50.2435 226.232 44.8736 223.363 44.7893 217.853C44.7532 215.924 44.6689 209.571 44.5485 198.804C44.5124 196.755 44.4642 194.561 44.4281 192.234C44.3438 185.519 44.2716 177.55 44.1873 168.303ZM84.4616 182.589L90.7826 181.685L97.5853 183.795L97.3445 189.883L91.505 185.483L87.7726 185.603L86.1472 187.833L88.9164 189.702L94.9365 191.39L98.0067 193.922L98.4883 201.216L89.8194 205.616L84.7024 204.29L80.7291 205.134L80.1873 197.719L88.3746 201.939L91.9866 200.191L91.505 197.418L83.5585 194.344L80.1873 189.883L84.4616 182.589ZM69.291 180.057L80.2475 178.972L76.9967 183.493L71.8796 202.301L66.0401 202.06L56.9499 187.472L53.2174 184.277L65.7391 181.383L64.3545 185.905L69.6522 195.489L73.0234 183.674L69.291 180.057ZM71.1572 145.698C69.2308 147.385 67.9064 149.495 67.184 152.027C67.3405 153.799 67.8101 155.005 68.5686 155.644C71.4943 157.452 74.3719 154.981 77.1773 148.229C77.984 150.484 79.188 152.244 80.7893 153.534C81.8729 154.462 82.9204 155.005 83.9197 155.162C84.5218 155.282 85.1238 155.258 85.7258 155.101C85.81 155.065 85.9064 155.017 86.0268 154.981C87.1465 153.172 85.1599 149.7 80.0669 144.552C79.2602 143.672 78.3572 142.78 77.3579 141.9C75.7927 142.467 74.2274 143.323 72.6622 144.492C72.1806 144.854 71.6749 145.251 71.1572 145.698ZM46.4147 117.728C45.4876 117.402 44.7652 117.269 44.2475 117.306C43.9706 117.306 43.7298 117.366 43.5251 117.486C45.006 120.705 49.7499 124.262 57.7325 128.156C53.4823 129.687 51.2308 132.038 50.99 135.209C50.7131 138.38 51.9773 141.032 54.7826 143.166C57.3472 144.817 60.1766 145.577 63.2709 145.456C70.6997 145.01 75.2509 142.382 76.9365 137.56C78.5017 141.454 81.6562 143.949 86.388 145.034C86.7492 145.071 87.2308 145.131 87.8328 145.215C92.5646 145.734 96.598 144.034 99.9331 140.091C102.618 136.318 101.655 132.894 97.0435 129.844C103.629 128.964 107.856 126.866 109.746 123.575C104.087 123.9 98.0067 124.696 91.505 125.986C87.8087 126.709 85.1599 127.288 83.5585 127.734C82.8361 127.939 82.1137 128.156 81.3913 128.397C82.3545 123.297 83.0167 119.319 83.3779 116.462C83.5826 115.256 83.5826 114.292 83.3779 113.568C83.2214 112.845 82.8602 112.278 82.2943 111.88C81.9692 111.916 81.6321 112.001 81.2709 112.121C79.5853 115.497 78.3813 119.379 77.6589 123.756L76.1539 111.338C76.0696 110.494 75.9371 109.855 75.7325 109.409C75.287 108.806 74.7331 108.529 74.0468 108.565C73.2402 108.685 72.7224 109.288 72.4816 110.373C72.0843 111.663 71.9157 113.122 72 114.774C72.0361 115.774 72.2047 117.245 72.4816 119.174L73.8662 127.433C73.782 127.433 73.7218 127.409 73.6856 127.372C64.0174 123.756 58.2743 121.622 56.4683 120.983C55.1077 120.464 53.4221 119.898 51.4114 119.295C50.2917 118.933 48.6181 118.415 46.4147 117.728ZM71.5184 134.546C72.4455 134.992 73.2402 135.329 73.9264 135.57C71.7231 139.344 68.2917 141.381 63.6321 141.659C58.3345 141.695 55.505 139.971 55.1438 136.475C55.3485 133.617 57.4676 131.616 61.5251 130.447L64.0535 131.532C61.8502 134.268 61.6455 136.33 63.4515 137.741C63.5719 137.825 63.7284 137.897 63.9331 137.982C64.3305 138.138 64.6796 138.247 64.9565 138.283C66.3652 138.729 67.8462 138.44 69.4114 137.439C70.1338 136.993 70.6154 136.559 70.8562 136.113C71.0609 135.836 71.2776 135.305 71.5184 134.546ZM96.3813 133.762C96.4656 133.798 96.5378 133.859 96.6221 133.943C96.5258 133.895 96.4535 133.834 96.3813 133.762ZM88.3144 136.836C90.0843 135.233 90.2769 133.485 88.9164 131.592C93.0943 131.025 95.7793 132.195 96.9833 135.088C97.3445 137.258 95.7793 138.97 92.2876 140.212C86.5084 141.816 82.5713 140.658 80.4883 136.716C80.2836 136.318 80.103 135.908 79.9465 135.51C80.103 135.667 80.2716 135.836 80.4281 135.992C82.7519 138.126 85.3886 138.404 88.3144 136.836Z" fill="black"/>
<path d="M80.2474 178.972L69.2909 180.057L73.0233 183.674L69.6521 195.489L64.3544 185.904L65.739 181.383L53.2173 184.277L56.9497 187.472L66.04 202.06L71.8795 202.301L76.9965 183.493L80.2474 178.972ZM90.7825 181.685L84.4614 182.589L80.1872 189.883L83.5584 194.344L91.5049 197.418L91.9865 200.191L88.3745 201.939L80.1872 197.719L80.729 205.134L84.7022 204.29L89.8193 205.616L98.4882 201.216L98.0066 193.922L94.9363 191.39L88.9163 189.702L86.1471 187.833L87.7725 185.603L91.5049 185.482L97.3444 189.883L97.5852 183.795L90.7825 181.685ZM88.9163 131.592C90.2768 133.485 90.0842 135.233 88.3143 136.836C85.3885 138.404 82.7517 138.126 80.428 135.992V136.233C80.4641 136.39 80.4882 136.559 80.4882 136.716C82.5711 140.658 86.5083 141.815 92.2875 140.212C95.7792 138.97 97.3444 137.258 96.9832 135.088C95.7792 132.195 93.0942 131.025 88.9163 131.592ZM96.622 133.943C96.5377 133.858 96.4654 133.798 96.3812 133.762C96.4534 133.834 96.5256 133.895 96.622 133.943ZM73.9263 135.57C73.24 135.329 72.4454 134.992 71.5183 134.546C71.2775 135.305 71.0608 135.836 70.8561 136.113C70.6153 136.559 70.1337 136.993 69.4113 137.439C67.846 138.44 66.3651 138.729 64.9564 138.283C64.6795 138.247 64.3303 138.138 63.933 137.982C63.7283 137.897 63.5718 137.825 63.4514 137.74C61.6454 136.33 61.8501 134.268 64.0534 131.532L61.525 130.447C57.4674 131.616 55.3484 133.617 55.1437 136.475C55.5049 139.971 58.3343 141.695 63.632 141.659C68.2915 141.381 71.723 139.344 73.9263 135.57Z" fill="white"/>
<path d="M49.5451 167.64C47.6187 167.965 45.8368 168.182 44.1873 168.303C44.2715 177.55 44.3438 185.519 44.4281 192.234C44.4642 194.561 44.5123 196.755 44.5485 198.805C44.6689 209.571 44.7531 215.924 44.7893 217.853C44.8735 223.363 50.2434 226.232 60.923 226.473C60.2849 231.259 61.5852 233.743 64.8361 233.948C72.7826 233.864 78.02 233.827 80.5485 233.827L88.8562 233.767C90.0241 233.731 92.7451 233.683 97.0434 233.647C101.342 233.647 101.462 229.487 97.4047 221.169C98.3679 220.083 100.174 220.686 102.823 222.977C107.554 223.544 110.203 221.53 110.769 216.949C111.046 214.743 111.046 206.979 110.769 193.681C110.733 191.185 110.673 188.521 110.589 185.663C110.432 179.913 110.251 173.402 110.047 166.133C108.361 166.012 106.555 165.831 104.629 165.59L104.689 210.137C104.689 210.294 104.689 210.463 104.689 210.619C104.689 211.066 104.665 211.5 104.629 211.946L104.207 212.729L104.388 212.548C104.388 212.548 104.484 212.452 104.569 212.368C104.123 214.815 102.425 216.527 99.4515 217.491C98.3679 217.528 96.7786 217.612 94.6956 217.733C94.4187 217.696 94.1899 217.672 94.0334 217.672C93.3471 217.636 92.8655 217.612 92.5886 217.612C92.5043 217.25 92.0709 215.502 91.2642 212.368C89.5424 212.524 87.4475 212.693 85.0033 212.85C84.8829 216.708 84.2448 219.035 83.0769 219.842C82.9926 218.07 82.9204 215.804 82.8361 213.031C80.9939 212.826 79.3685 212.765 77.9598 212.85C78.0441 217.516 77.5023 220.59 76.3344 222.073C76.214 219.143 76.0936 216.069 75.9732 212.85C75.0461 212.85 74.4441 212.85 74.1672 212.85C73.5291 212.85 72.903 212.705 72.301 212.428C71.7351 214.755 71.121 217.274 70.4347 219.963C70.1939 218.275 69.8568 215.864 69.4113 212.729C68.1712 212.693 66.7625 212.633 65.1973 212.548C64.9204 214.236 64.5351 216.406 64.0535 219.059C61.3204 219.264 59.2133 219.3 57.7324 219.179C53.7953 218.902 51.5077 217.733 50.8695 215.683C50.5926 214.875 50.3277 209.595 50.0869 199.829C50.0026 197.9 49.9665 195.791 49.9665 193.5C49.81 186.507 49.6655 177.887 49.5451 167.64Z" fill="#F8ECC6"/>
<path d="M86.1471 147.205C86.111 147.446 86.2314 147.687 86.5083 147.928C86.7853 148.205 87.2548 148.434 87.893 148.591C90.4214 149.435 92.7331 149.64 94.816 149.194C95.4542 149.037 96.0803 148.832 96.6823 148.591C97.2 148.386 97.6094 148.205 97.8863 148.048C98.1271 147.928 98.6087 147.602 99.3311 147.084C100.21 146.276 100.872 145.517 101.318 144.793C101.884 143.793 102.04 142.828 101.799 141.9C101.402 142.057 100.957 142.346 100.475 142.744C100.439 142.78 100.078 143.166 99.3913 143.889C98.0669 145.3 96.4776 146.264 94.6354 146.783C92.5525 147.349 90.1565 147.325 87.4716 146.722C87.0742 146.686 86.8334 146.662 86.7492 146.662C86.5084 146.662 86.3037 146.807 86.1471 147.084V147.205ZM85.4849 122.309C85.0395 122.634 84.618 122.912 84.2207 123.153C84.2568 123.153 84.2809 123.177 84.2809 123.213C84.5578 123.695 85.1839 123.756 86.1471 123.394C88.4348 122.586 90.2047 121.887 91.4448 121.284C92.408 120.838 94.0575 119.922 96.3813 118.511L103.365 114.292C103.088 113.894 102.522 113.725 101.679 113.809C99.7886 114.05 97.6214 114.87 95.1772 116.281C91.4087 118.415 88.1699 120.416 85.4849 122.309ZM58.2742 147.988C56.9137 147.542 55.4689 146.879 53.9398 145.999C52.9766 145.276 52.0134 144.432 51.0502 143.467C50.8936 143.31 50.7732 143.202 50.6889 143.166C50.5324 143.081 50.3879 143.106 50.2675 143.226C50.1471 143.347 50.1471 143.527 50.2675 143.769C50.4722 144.408 50.9659 145.215 51.7726 146.18C52.2542 146.819 52.7599 147.385 53.2776 147.868C53.8796 148.47 54.7224 149.073 55.806 149.676C56.4923 150.038 56.9859 150.303 57.311 150.46C58.7558 150.978 60.297 151.123 61.9465 150.882C63.4756 150.604 64.8722 149.977 66.1605 149.013C66.317 148.892 66.4615 148.796 66.5819 148.712C66.9793 147.868 66.0401 147.651 63.7525 148.048C61.501 148.446 59.6829 148.434 58.2742 147.988ZM67.9665 121.043C66.004 117.993 63.0903 115.039 59.2374 112.182C55.3846 109.288 52.3746 107.817 50.2073 107.781L65.5585 120.5C66.5578 121.344 67.3645 121.525 67.9665 121.043Z" fill="#847750"/>
</svg>
