<svg width="593" height="435" viewBox="0 0 593 435" fill="none" xmlns="http://www.w3.org/2000/svg">
<path d="M526.828 49.4928C524.508 35.8119 517.311 29.1775 505.223 29.5891C281.819 39.655 131.384 47.6813 53.9307 53.6686C56.8851 56.8032 59.3792 61.5665 61.4022 67.9346C66.0167 81.9927 69.7174 110.8 72.4935 154.334C72.5958 156.456 72.7086 158.614 72.8557 160.809C73.0494 164.023 73.2351 167.13 73.4123 170.143L73.7919 170.121C74.0089 173.679 74.2217 177.355 74.4308 181.138C74.3342 181.525 74.225 181.936 74.1162 182.334C75.7412 209.601 76.7515 226.833 77.1594 234.02C77.719 243.271 78.7589 269.014 80.2677 311.236C81.7423 353.421 84.3637 379.291 88.1433 388.858C90.6497 395.279 93.4621 399.746 96.5805 402.259L96.7956 406.87C98.7547 407.697 101.335 408.037 104.524 407.878C108.683 407.765 111.879 407.074 114.102 405.803C115.842 404.812 117.435 403.271 118.881 401.203C119.855 399.782 120.955 397.797 122.158 395.248C123.985 391.455 125.331 388.212 126.196 385.509C126.38 385.007 126.54 384.492 126.688 383.988C127.358 384.118 128.039 384.284 128.707 384.45C130.27 384.79 131.843 385.141 133.441 385.482C133.3 386.116 133.17 386.762 133.028 387.432C132.957 387.773 132.873 388.125 132.765 388.511C132.315 390.531 131.738 392.452 131.034 394.273C129.511 398.172 127.447 401.626 124.832 404.61C124.482 405.13 124.027 405.623 123.465 406.112L123.406 406.11L123.344 406.179C126.304 406.165 129.36 406.084 132.514 405.936L137.564 405.701C143.912 405.275 152.933 404.541 164.628 403.5L164.583 402.446C192.461 400.31 225.469 398.368 263.607 396.632C336.101 393.332 377.537 391.37 387.914 390.767C442.177 387.567 469.492 385.956 469.871 385.946C501.157 384.523 528.501 384.416 551.906 385.613C556.124 385.833 560.114 386.129 563.877 386.487C564.823 384.485 565.711 382.493 566.527 380.498C572.261 366.996 572.897 353.408 568.434 339.758C561.955 340.889 555.301 341.955 548.472 342.943C548.568 342.58 548.628 342.203 548.666 341.814L544.17 343.087C538.121 298.076 533.603 243.912 530.652 180.632L530.294 181.021L529.856 163.679C528.411 128.347 527.405 90.2853 526.828 49.4928ZM536.493 344.637C537.095 344.031 537.579 343.374 537.958 342.701C538.282 343.269 538.618 343.789 538.968 344.275C538.135 344.399 537.314 344.524 536.481 344.637M399.551 345.982C382.887 347.639 373.467 348.595 371.268 348.861C353.604 351.347 340.346 353.054 331.484 353.971C319.593 355.194 306.438 355.994 292.009 356.382C281.654 356.653 268.443 356.729 252.362 356.609C242.953 356.595 235.537 356.462 230.113 356.21C221.936 355.837 214.551 355.149 207.971 354.123C207.088 353.997 206.146 353.857 205.146 353.691L205.525 353.669C230.786 353.571 268.659 352.299 319.119 349.863L399.551 345.982Z" fill="#E4E1D5"/>
<path d="M537.696 49.4284C535.946 29.6963 526.7 19.0718 509.982 17.5675C281.363 31.4961 125.523 40.0646 42.4517 43.2725L42.3901 43.3413C35.8145 42.8596 30.0528 43.46 25.1168 45.1431C17.2389 48.3432 13.0016 55.3532 12.4289 66.162C11.5387 73.9061 13.429 81.3465 18.0988 88.5067C23.5559 97.4937 31.9944 101.178 43.4025 99.5587L56.643 96.9985C61.8644 139.329 65.3943 188.641 67.2448 244.923C69.3687 310.849 72.0034 354.697 75.1363 376.49C77.9698 396.048 85.2773 408.26 97.083 413.117L96.7952 406.882L96.58 402.27C93.4616 399.757 90.6496 395.279 88.1429 388.87C84.3633 379.303 81.7419 353.433 80.2673 311.248C78.7466 269.025 77.7185 243.283 77.159 234.031C76.751 226.845 75.7407 209.613 74.1157 182.346C73.9096 178.48 73.6751 174.413 73.4241 170.143C73.2351 167.13 73.0498 164.011 72.8675 160.809C72.7204 158.614 72.5958 156.456 72.5053 154.334C69.7174 110.8 66.0284 81.993 61.4139 67.9349C59.391 61.5668 56.8964 56.8153 53.9425 53.6689C131.396 47.6816 281.831 39.6553 505.247 29.5898C517.334 29.1782 524.532 35.8126 526.852 49.4935C527.429 90.286 528.434 128.348 529.88 163.68L530.318 181.022L530.675 180.632C533.638 243.925 538.144 298.077 544.194 343.088L548.69 341.815L554.858 340.093C547.731 291.754 543.142 242.262 541.115 191.631C540.487 175.974 539.907 159.952 539.364 143.565C539.003 128.711 538.653 114.556 538.314 101.087C538.154 78.5591 537.96 61.3321 537.708 49.417M20.3964 73.7824C19.8833 68.2253 20.8337 63.454 23.2235 59.4793C25.661 55.4945 29.4389 53.4271 34.546 53.265C34.5814 53.2663 34.6051 53.2671 34.6051 53.2671C40.5695 54.6267 45.2802 58.2969 48.7372 64.278L33.6971 65.8512C27.4097 69.2616 26.0735 75.901 29.7003 85.77C33.3294 85.8987 36.3534 85.7337 38.7955 85.2878C34.8052 90.6733 30.6787 91.5566 26.4281 87.9263C22.8238 83.7627 20.8131 79.052 20.3964 73.7824ZM34.7364 71.924C37.1652 72.1876 38.9728 74.9501 40.1824 80.2242C38.8947 80.1548 36.6746 80.3483 33.5227 80.7809C31.9055 74.6522 32.3063 71.6957 34.7364 71.924ZM43.6888 71.129C44.7708 70.9898 47.3414 70.5958 51.3764 69.9577C53.3754 75.3308 54.704 81.9227 55.3611 89.7572L43.1612 92.0111C48.3208 85.6966 48.4968 78.732 43.6888 71.129Z" fill="#63594F"/>
<path d="M51.3766 69.9577C47.3298 70.5953 44.7711 70.9898 43.6891 71.129C48.497 78.732 48.3214 85.6848 43.1615 92.0111L55.3614 89.7572C54.7038 81.9346 53.3757 75.3308 51.3766 69.9577Z" fill="#BAB0A5"/>
<path d="M40.1824 80.2241C38.9728 74.9501 37.1652 72.1875 34.7364 71.9239C32.3058 71.7075 31.9055 74.6521 33.5227 80.7809C36.6627 80.3478 38.8829 80.1543 40.1824 80.2241ZM23.2239 59.4674C20.8337 63.4539 19.8837 68.2134 20.3968 73.7705C20.8135 79.0401 22.8242 83.7508 26.4285 87.9144C30.6791 91.5447 34.8056 90.6614 38.7959 85.2759C36.3656 85.7223 33.3298 85.8868 29.7007 85.7581C26.0735 75.9009 27.4097 69.2615 33.6975 65.8393L48.7376 64.266C45.2924 58.2855 40.5821 54.6034 34.6055 53.2552C34.6055 53.2552 34.5818 53.2544 34.5464 53.2531C29.4279 53.403 25.6614 55.4825 23.2239 59.4674Z" fill="#8D877F"/>
<path d="M580.792 357.049C580.943 350.463 579.277 341.054 575.793 328.811C561.21 331.193 550.212 332.922 542.813 333.973L531.335 335.566C508.778 338.494 486.102 340.779 463.271 342.431C450.456 343.361 433.591 344.313 412.702 345.289L319.119 349.852C308.107 350.325 289.222 351.17 262.478 352.376C235.759 353.535 204.932 352.69 170 349.829C146.561 347.933 129.071 346.165 117.541 344.537C107.415 346.047 100.291 353.026 96.1578 365.448C100.814 366.312 103.214 366.74 103.332 366.732L104.333 366.875C110.728 367.445 116.85 368.703 122.676 370.638C123.016 370.709 123.321 370.779 123.627 370.849L123.715 374.024C123.729 375.314 123.695 376.603 123.578 377.901C123.323 381.407 122.725 384.605 121.783 387.471C120.882 390.504 119.509 393.178 117.664 395.468C114.918 399.134 110.935 401.667 105.712 403.08C100.527 404.446 93.3326 401.055 84.1292 392.905L84.9791 402.984C93.31 413.706 102.312 418.534 112.008 417.458L116.122 417.261C128.575 416.554 144.255 415.276 163.151 413.437C172.058 412.605 185.443 411.648 203.294 410.565C260.168 407.161 317.381 403.877 374.932 400.734L403.463 399.213C441.172 397.201 469.468 395.968 488.34 395.501C513.998 394.884 540.783 395.195 568.684 396.433C574.596 383.92 578.259 374.085 579.672 366.951C580.346 363.626 580.712 360.325 580.769 357.037M566.527 380.51C565.698 382.504 564.823 384.497 563.876 386.499C560.113 386.129 556.123 385.845 551.905 385.625C528.489 384.427 501.144 384.546 469.871 385.958C469.491 385.98 442.176 387.579 387.914 390.779C377.536 391.394 336.1 393.344 263.606 396.644L261.366 396.753L261.363 396.813C251.984 397.296 242.947 397.793 234.277 398.325C208.491 399.861 185.885 401.521 166.446 403.305C150.284 404.814 138.973 405.692 132.537 405.948C129.383 406.097 126.327 406.178 123.367 406.191C123.686 405.883 123.981 405.574 124.264 405.276C127.156 402.148 129.417 398.476 131.057 394.286C131.761 392.464 132.338 390.544 132.788 388.524C132.896 388.149 132.98 387.785 133.051 387.445C134.672 379.454 134.289 371.57 131.879 363.768C131.136 361.351 130.162 359.127 128.944 357.096C128.809 356.89 128.674 356.696 128.539 356.49C133.733 357.206 139.546 357.827 145.99 358.363C171.988 360.516 200.842 361.551 232.555 361.433C237.256 361.375 242.016 361.319 246.847 361.266C250.257 361.233 277.134 360.292 327.455 358.432L394.498 355.295C442.894 352.987 479.277 350.668 503.636 348.324C526.677 346.088 548.273 343.221 568.434 339.746C572.897 353.396 572.262 366.972 566.527 380.486M121.113 362.298L121.875 363.828L106.877 360.905L108.493 359.388C108.773 359.162 109.029 358.946 109.274 358.73C111.972 356.731 114.336 356.14 116.367 356.957C117.091 357.22 118.106 357.978 119.41 359.255C119.456 359.292 119.478 359.34 119.477 359.376C119.569 359.45 119.636 359.559 119.679 359.679C120.224 360.657 120.703 361.526 121.113 362.298Z" fill="#63594F"/>
<path d="M121.876 363.816L121.114 362.286C120.703 361.514 120.225 360.644 119.68 359.666C119.637 359.547 119.569 359.438 119.477 359.363C119.479 359.316 119.457 359.28 119.411 359.243C118.106 357.977 117.092 357.208 116.368 356.945C114.325 356.127 111.961 356.718 109.274 358.717C109.03 358.934 108.773 359.161 108.493 359.376L106.877 360.893L121.876 363.816Z" fill="#8D877F"/>
<path d="M563.876 386.499C564.823 384.497 565.71 382.504 566.527 380.509C572.261 367.008 572.897 353.42 568.433 339.769C548.284 343.244 526.688 346.112 503.635 348.348C479.265 350.691 442.882 353.022 394.498 355.318L327.455 358.455C277.122 360.304 250.257 361.244 246.846 361.289C242.015 361.343 237.255 361.399 232.555 361.457C200.842 361.563 171.975 360.539 145.989 358.387C139.558 357.851 133.733 357.23 128.538 356.513C128.673 356.719 128.808 356.913 128.943 357.119C130.162 359.139 131.136 361.363 131.878 363.792C134.277 371.593 134.672 379.478 133.051 387.468C132.98 387.809 132.896 388.161 132.788 388.548C132.337 390.567 131.76 392.488 131.056 394.309C129.416 398.512 127.156 402.171 124.263 405.3C123.98 405.609 123.686 405.907 123.367 406.215C126.326 406.201 129.383 406.12 132.537 405.972C138.973 405.715 150.284 404.826 166.445 403.328C185.884 401.544 208.502 399.885 234.276 398.349C242.947 397.816 251.984 397.308 261.375 396.836L261.377 396.777C262.124 396.745 262.87 396.712 263.618 396.667C336.111 393.368 377.547 391.406 387.925 390.803C442.188 387.603 469.503 385.992 469.882 385.982C501.167 384.559 528.512 384.451 551.917 385.648C556.134 385.869 560.124 386.164 563.887 386.523L563.876 386.499Z" fill="#E4E1D5"/>
</svg>
