<?xml version="1.0" encoding="UTF-8"?><svg id="Layer_2" xmlns="http://www.w3.org/2000/svg" xmlns:xlink="http://www.w3.org/1999/xlink" viewBox="0 0 552.11 566.99"><defs><style>.cls-1{fill:none;}.cls-2{fill:#a19887;}.cls-3{fill:#f9eeca;}.cls-4{fill:#ed72b1;}.cls-5{fill:#2c2c36;}.cls-6{fill:#cfdd42;}.cls-7{fill:#e3e4e8;}.cls-8{fill:#ffe47b;}.cls-9{fill:#c7c7c7;}.cls-10{fill:#f2bbda;}.cls-11{fill:#4c4d5e;}.cls-12{clip-path:url(#clippath-1);}.cls-13{fill:#fff;}.cls-14{fill:#cfdf51;}.cls-15{fill:#f9edc8;}.cls-16{fill:#a65904;}.cls-17{fill:#fcf7e4;}.cls-18{fill:#f5bdbc;}.cls-19{fill:#6e6e6e;}.cls-20{clip-path:url(#clippath);}.cls-21{fill:#a19889;}</style><clipPath id="clippath"><rect class="cls-1" width="552.11" height="566.99"/></clipPath><clipPath id="clippath-1"><rect class="cls-1" width="552.11" height="566.99"/></clipPath></defs><g id="Layer_1-2"><g id="Jim_Unicorn"><g class="cls-20"><g class="cls-12"><path class="cls-7" d="M389.8,164.05c-.51,16.31-10.54,61.7-30.1,136.18-6.64.07-15.68.35-27.11.84-60.24,4.11-173.39-4.77-164.73,79.81,2.34,8.83,24.44,45.71,27.97,53.38l-7.99,6.19c-25.28-10.45-26.45,35.65-32.88,61.4-.52,3.61,3.34,21.59,4.72,53.76,9.01,9.3,22.28,6.84,33.83-3.37-7.72-28.09-4.04-60.63-1.46-71.09,0,0,33.93,29.23,64.1-6.43,0,0,26.44,31.42,36.56-17.74,0,0,98.08,2.02,141.5-53.17l10.4,19.68c12.72,15.36,36.24-18.33,36.24-18.33l1.6,34.63c18.63,11.07,31.73,9.38,39.29-5.08-6.66-15.02-9.74-25.49-9.23-31.42,13.98,5.55,24.89,3.5,32.72-6.15-41.53-43.72,8.66-128.79-52.93-85.2.38-21.66-29.94-35.76-38.16-43.17,0,0-19.55-87.51-64.32-104.73"/><path class="cls-19" d="M426.29,103.93c.92-1.1,1.39-2.19,1.39-3.29,0-.27-.02-.52-.05-.72-1.15-4.57-7.39-6.35-18.73-5.34,22.57-7.5,30.26-15.33,23.07-23.48-9-6.88-29.39.18-61.16,21.19,1.01,9.51,2,24.57,2.97,45.16-7.66,4.9-13.8,8.8-18.41,11.69.47.58,1.16,1.41,2.07,2.51,9.87-4.98,17.4-8.71,22.58-11.19-1.87-26.05-3.24-41.57-4.11-46.57,29.87-18.17,47.51-24.16,52.91-17.96,2.62,3.06-10.64,11.33-39.78,24.81,20.82-2.04,31.25-1.86,31.29.54.12,2.33-9.31,6.15-28.3,11.48,10.85.58,17.02,1.69,18.51,3.32,2.35,1.43-4.18,6.19-19.57,14.31,5.33.7,8.95,1.65,10.87,2.86,3.6,2.14-3.07,6.51-20.01,13.08-9.7,3.77-16.94,6.56-21.72,8.38.24.21.45.4.62.56.94.88,1.45,1.39,1.53,1.53.34.5,10.22-1.88,17.84-4.58,15.34-5.55,24.33-10.26,26.99-14.14,2.71-3.89,1.24-7.21-4.41-9.96,3.04-1.16,5.82-2.62,8.32-4.38,3.63-2.49,5.47-4.93,5.52-7.34.05-2.38-1.57-3.98-4.88-4.79,1.29-.62,3.88-1.73,7.78-3.3,3.24-1.28,5.53-2.74,6.86-4.37"/><path class="cls-13" d="M410.54,116.09c-1.49-1.63-7.66-2.73-18.51-3.32,18.99-5.33,28.42-9.15,28.3-11.48-.04-2.4-10.47-2.58-31.29-.54,29.14-13.48,42.4-21.75,39.78-24.81-5.41-6.2-23.05-.21-52.92,17.96.87,5,2.24,20.52,4.11,46.56-5.18,2.48-12.71,6.21-22.58,11.19-.9-1.1-1.59-1.93-2.07-2.51-.32-.38,1.15,7.02,1.15,7.02,0,0,3.84-1.22,3.6-1.43,4.78-1.82,12.02-4.61,21.72-8.38,16.94-6.58,23.61-10.94,20.01-13.08-1.92-1.21-5.55-2.16-10.88-2.86,15.4-8.11,21.92-12.88,19.57-14.3"/><path class="cls-19" d="M127.92,184.57c.09.2.19.4.31.6.51.88,1.39,1.54,2.64,1.98,1.82.67,4.34.75,7.56.24,3.82-.56,6.41-.9,7.76-1.02-2.26,2.22-2.82,4.27-1.66,6.15,1.16,1.89,3.77,2.97,7.82,3.26,2.83.21,5.73.07,8.71-.42-3.23,4.84-2.85,8.18,1.14,10.03,3.96,1.85,13.36,1.38,28.2-1.43,7.36-1.39,12.79-2.47,16.28-3.24.04-.4.07-.89.08-1.47.01-.12.19-.77.52-1.94.06-.22.14-.46.23-.71-4.68.77-11.77,1.93-21.27,3.48-16.6,2.7-23.96,2.36-22.09-1.02.94-1.86,3.09-4.65,6.43-8.38-15.52,1.4-22.66.99-21.43-1.24.41-1.97,5.68-5.51,15.81-10.61-19.38,4.19-29.56,5.32-30.55,3.38-1.1-1.92,7.79-7.55,26.67-16.88-30.89,4.12-46,4.35-45.33.67,1.36-7.48,18.23-10.98,50.61-10.49,1.65,4.44,8,17.77,19.04,39.99,9.71-.88,17.31-1.74,22.8-2.59.35-2.24.55-3.56.62-3.96l.11-.52c-5.45.44-12.59,1-21.42,1.67-8.23-17.48-14.67-30.65-19.3-39.5-34.25-1.03-53.35,3.3-57.31,13.01-1.9,9.87,7.91,12.5,29.43,7.91-9.51,4.51-13.66,8.86-12.44,13.05M132.33,183.76c-.26,0-.5.02-.72.05v-.04s.07-.01.13-.02c.17,0,.37.01.6.01"/><path class="cls-13" d="M170.58,190.69c-3.34,3.73-5.49,6.52-6.43,8.38-1.87,3.38,5.49,3.72,22.09,1.02,9.5-1.55,16.59-2.71,21.27-3.48-.09.26-.16.49-.23.71-.33,1.17-.51,1.82-.52,1.94-.01.58,1.79-8.59,1.45-6.35-5.49.84-13.09,1.71-22.8,2.59-11.05-22.22-17.4-35.55-19.04-39.99-32.38-.49-49.25,3.01-50.61,10.49-.67,3.68,14.44,3.46,45.33-.67-18.89,9.33-27.78,14.96-26.67,16.88.99,1.94,11.17.81,30.55-3.38-10.13,5.11-15.4,8.64-15.81,10.62-1.23,2.23,5.92,2.65,21.43,1.24"/><path class="cls-11" d="M236.77,193.57c-10.13-17.65-1.9-55.51-22.51-8.43-10.36,22.55-38.02,101.72-33.08,111.68,3.05,6.15,13.66,2.65,19.17,1.61l3.44-14.84,31.55-18.59c2.34-6.83-8.95-11.39-16.34-5.2,8.62-18,25.08-44.17,17.78-66.22"/><path class="cls-4" d="M137.89,294.87c-8.57-2.85-18.21-2.8-26.25,1.03-13.79,7.18-18.94,23.71-25.19,37.07-2.94,6.57-5.55,12.56-8.72,18.97-3.47,6.48-6.39,13.48-12.64,17.71-9.26,6.1-19.65,6.29-30.04,1.43-5.13-2-10.07-4.83-15.47-4.81-4.16.14-3.75,2.92-1.44,4.91,4.17,3.79,11.33,5.85,14.49,9.33,2.13,2.08,4.44,4.35,7.18,6.47,9.78,8.43,24.43,18.17,37.78,15.01,3.06-.86,6.3-2.67,9.17-4.33,3.89-2.3,7.58-.65,10.78-3.69,3.31-3.18,8.07-8.19,10.79-11.92,3.9-5.38,8.2-10.62,11.91-16.67,4.11-6.32,5.18-16.83,9.46-22.85,3.71-5.28,9.55-8.38,15.64-10.12,5.42-1.53,11.1-2.82,16.07-1.78,5.48,1.11,10.07,4.61,14.54,7.82,2.44,1.72,7.46-2.32,4.55-6.46-6.67-9.5-13.16-18.45-19.69-23.69-6.91-5.55-14.17-10.1-22.72-13.36l-.2-.07Z"/><path d="M257.04,476.74l.05.04c.07-.11.12-.24.18-.39-.06.14-.13.26-.23.35M188.52,420.8l-.69-1.05c1.46,2.97,2.74,5.24,3.86,6.8.23.34.45.64.67.92l.3-.13c-.99-1.3-1.74-2.34-2.24-3.13-.84-1.53-1.48-2.67-1.91-3.4M376.86,207.43l.05.04c.07-.1.14-.15.21-.16-.07.01-.15.05-.26.12"/><path class="cls-8" d="M183.61,531.36c-3.96-1.83,2.48,18.3,2.97,24.71,4.35-5.29,10.87,1.93,6.92-3.83-1.15-1.05-9.96-18.42-9.89-20.88M179.25,529.1c-7.66-1.73,4.1,27.66,2.51,31.26,7.45-4.22.28-13.72.6-20.44-1.38-1.72-.64-11.83-3.11-10.82M162.03,536.62c4.49-8.5,6.29,21.97,6.39,24.95-.08-.17-.17-.33-.24-.47,19.49,9.31,3.34-20.88,4.73-31.34-16.25-.76-18.46,24.77-6.54,31.49-4.62-1.56-7.98-20.15-4.33-24.63M495.61,414.15c-15.48,14.66,1.2,45.45,22.16,27.29,10.96-2.42-4.64-19.66-4.97-27.52-2.63-8-11.52-.85-17.19.23M532.77,376.89c-24.65-2.47-18.85,11.9-12.72,29.71,37.03,2.31,16.43-15.68,12.72-29.71"/><path class="cls-13" d="M172.87,529.49c.01.09.02.18.04.27.07,2.39.52,5.85,1.36,10.36.99,5.26,1.61,8.45,1.85,9.57.61,2.78,1.43,6.1,2.45,9.95.21.67.44,1.25.68,1.74.28.54.6.94.93,1.2.36.23.68.31.94.24.38-.11.58-.53.61-1.27.01-.37.02-.76.03-1.19-.06-1.85-.42-4.31-1.06-7.39l-4.73-22.79-.15-.76c-.16-.74-.35-1.26-.57-1.57-.41-.59-.88-.8-1.41-.64-.76.22-1.09.98-.98,2.27M180.54,526.06c-.18.02-.25.18-.21.48l.26,2.66.31,3.02c.23,2.25.48,3.92.75,5.01l.72,2.69c.14.8.3,2.03.48,3.68.11.59.32,1.51.64,2.75.34,1.2.55,2.12.64,2.75.09.45.18,1.16.28,2.15.09.93.2,1.66.33,2.19.07.26.31,1.07.73,2.41.11.35.2.7.28,1.06.1.51.16.97.18,1.39.02.64.21.92.57.84.17-.05.27-.23.29-.54.06-.71,0-1.55-.2-2.53-.02-.18-.06-.36-.12-.53-.36-1.35-.61-2.37-.77-3.05-.2-1.98-.41-3.46-.63-4.44-.38-1.26-.63-2.21-.74-2.87-.1-.51-.17-1.26-.21-2.26-.08-1.05-.15-1.81-.21-2.26-.42-1.59-.73-2.78-.93-3.57-.14-.62-.36-2.05-.66-4.3-.15-1.14-.31-2.21-.47-3.22-.13-.5-.24-.99-.33-1.46-.17-.83-.4-1.45-.7-1.87-.08-.14-.18-.21-.3-.19M507.23,410.48c0,.18-.01.38-.01.6-.04,1.1.13,2.51.51,4.22.08.36.2.9.35,1.64.19.74.53,1.8,1.01,3.2,1.33,3.63,2.75,7.11,4.25,10.44l1.13,2.32c.48.85,1.28,2.08,2.4,3.7.96,1.3,1.76,2.28,2.39,2.93.28.27.55.51.82.71.74.57,1.51.97,2.3,1.2l.24-.21c-.06-.72-.42-1.6-1.08-2.64-.16-.25-.33-.51-.51-.76l-2.53-3.64c-1.3-2.02-2.81-4.96-4.54-8.81l-1.98-4.3c-.66-1.74-1.35-3.93-2.1-6.57l-.87-3.17-.23-.7c-.27-.88-.63-1.23-1.1-1.04-.23.09-.39.39-.48.88M499.04,411.41c-.25-.3-.55-.35-.89-.16-.16.14-.25.38-.27.72-.03.22-.04.48-.03.78,0,.76.11,1.74.29,2.93-.26-.39-.55-.67-.84-.85l-.08-.22c-.15-.47-.3-.89-.44-1.27-.33-.93-.67-1.63-1.01-2.1-.47.15-.7.47-.7.96.18.65.35,1.29.53,1.94.05.18.11.37.17.57-.32.1-.55.32-.69.64-.13.41.1,1.11.69,2.1.28.51.66,1.53,1.13,3.05.54,1.79,1.31,3.71,2.31,5.77.62,1.26,1.61,3.11,2.97,5.54,2.01,3.69,3.73,6.51,5.17,8.45,1.26,1.69,2.58,3.16,3.96,4.41.73.91,1.43,1.65,2.12,2.23.71.55,1.23.68,1.56.39.31.08.55.03.71-.14.33-.29.28-.74-.13-1.35-.16-.25-.29-.48-.41-.68.21-.06.35-.2.45-.42.11-.29.04-.61-.22-.97-.2-.37-.8-1.08-1.79-2.14-.49-.51-.98-1.06-1.45-1.64-.08-.14-.16-.28-.24-.42-4.75-8.14-7.98-16.02-9.68-23.65-.28-1.18-.5-1.94-.67-2.29-.14-.35-.35-.61-.65-.78-.3-.23-.58-.27-.84-.12-.16.14-.27.35-.33.64-.11-.35-.21-.69-.32-1.01-.01-.09-.04-.16-.07-.22-.1-.32-.21-.55-.32-.69M528.22,376.45c0,.06.03.12.07.17.1.32.33.76.68,1.33.16.28.31.75.46,1.4.17.62.48,1.41.91,2.39.79,1.81,1.32,2.99,1.61,3.53.36.62.93,1.54,1.73,2.74.77,1.21,1.84,3.09,3.21,5.65,1.29,2.2,2.59,3.87,3.9,5.01.72.61,1.45,1.07,2.19,1.4.28-.68.19-1.44-.26-2.29-.12-.2-.6-.84-1.44-1.91-.62-.77-1.38-1.93-2.28-3.49l-6.2-10.69c-.08-.14-.57-1.25-1.49-3.32-.34-.78-.68-1.45-.99-2.01-.27-.42-.53-.8-.79-1.13-.29-.39-.57-.55-.84-.48-.23.06-.39.26-.47.61-.1.41-.1.77,0,1.1M525.52,374.98c-.13-.32-.26-.6-.39-.86M524.34,375.09c.03.7.06,1.41.1,2.13l-.05-.04c-.52-.02-.94.25-1.26.81-.19.39-.31.91-.34,1.55-.03.95.11,2.36.42,4.24l.53,2.67c.17.59.48,1.46.94,2.62,1.23,3.12,2.33,5.58,3.3,7.37,1.38,2.62,2.9,4.81,4.56,6.57.64.68,1.36,1.36,2.18,2.04.17.16.36.32.57.47,1.22.93,2.32,1.43,3.3,1.48.43.07.76-.02.97-.26.21-.27.18-.75-.1-1.45-.25-.52-.51-1.01-.79-1.49-.87-1.5-1.79-2.82-2.76-3.97l-2.09-2.33c-.58-.71-1.29-1.9-2.11-3.56-1.18-2.49-2.29-5.04-3.33-7.64-.88-2.32-1.7-4.71-2.45-7.16-.17-.59-.38-1.03-.63-1.33.53-.37.99-.65,1.4-.82.12-.04.23-.09.35-.14-.15-.92-.54-1.37-1.18-1.35h-.04"/><path class="cls-16" d="M162.02,536.53s0,.06.01.09c-.26.34-.41.84-.44,1.52-.06,0-.13.03-.22.07-.28.16-.5.39-.64.68-.2.36-.3.95-.32,1.78,0,1.61.23,4.41.69,8.4.27,2.31.55,4.08.84,5.32.46,1.92,1.11,3.55,1.92,4.9.42.68.86.97,1.3.88.27-.04.46-.17.59-.4.16.53.36,1.02.61,1.47.39.89.85,1.64,1.39,2.24.31-.22.44-.7.41-1.42v-.04s.01-.91.01-.91c.08.14.16.3.24.47.26-.34.38-.81.36-1.42-.03-1.12-.19-2.47-.49-4.04-.38-1.75-.66-3.06-.84-3.95-.19-1.01-.43-2.53-.69-4.56l-1.41-11.09c-.07-.54-.17-.92-.29-1.15-.2-.4-.52-.6-.95-.61-.3.04-.52.19-.67.45-.07.13-.13.29-.17.48-.16-.1-.35-.14-.56-.11-.48.06-.71.38-.7.96M489.43,419.57c-.15.05-.24.18-.27.4-.18.75-.31,1.46-.41,2.11-.01.12-.03.25-.04.37.01.09,0,.18,0,.28-.07-.05-.13-.09-.2-.11-.26-.12-.5-.1-.72.05-.34.17-.52.65-.54,1.44-.01.37,0,.75.01,1.14-.01.15,0,.31.01.46-.06.04-.1.07-.12.11-.03-.03-.07-.05-.1-.08-.27-.24-.52-.22-.72.05-.05.07-.09.13-.11.2-.06-.02-.14-.04-.24-.06-.54-.17-.98.05-1.33.68-.14.32-.22.85-.25,1.58-.04,2.71.33,6.79,1.11,12.22.11.87.33,1.48.65,1.83.22.28.52.45.89.52.67,1.86,1.63,3.12,2.87,3.78.18.19.35.35.52.48.69.4,1.26.35,1.72-.13.38-.35.48-1.01.29-1.96l-.02-.13c.19-.15.34-.39.45-.74.01-.12.04-.25.09-.38-.01-.12-.02-.24,0-.37.05.15.11.29.19.43.09.23.2.46.32.69.21.46.49.8.82,1.03.4.28.76.33,1.07.13-.03-.03-.05-.05-.06-.08-.48-1.34,1.25,2.19.73.62,1.15,1.83-.24-1.94.27-1.34l1.68,2.02c.18.22.33.41.44.58.36.41.61.68.75.82.38.32.89.63,1.54.94,1.04.53,1.87.82,2.49.86-.27-.64-.88-1.48-1.84-2.54-.21-.22-.44-.44-.68-.69-1.66-1.73-3.17-3.63-4.54-5.7l-1.16-1.9c-.96-1.55-1.69-2.91-2.18-4.1-.13-.32-.4-1.17-.79-2.54-.82-3.24-1.33-6.61-1.51-10.12-.02-1.03-.17-1.83-.45-2.4,0-.06-.03-.1-.06-.13-.18-.25-.37-.35-.54-.29M515.65,380.84c-.17.11-.27.26-.31.45-.06.25-.05.63.01,1.14,0,.21,0,.49.02.82,0,.18-.01.38-.01.6-.1-.08-.18-.13-.25-.15-.2-.13-.41-.19-.62-.19-.02.09-.09.16-.2.21-.15.02-.25.03-.31.04-.23.06-.37.28-.42.65-.27-.21-.6-.26-.98-.15-.38.11-.67.32-.88.62-.3.5-.45,1.17-.46,2.02.01.09.01.2,0,.32.02,1.28.13,2.92.33,4.93.11,1.05.24,2.21.41,3.46l.97,6.99c.23,1.73.65,2.94,1.25,3.62.53.54,1.06.76,1.59.66.5-.13.84-.46,1.01-1,.16.31.48.76.95,1.34.53.57.99.81,1.37.73.54-.07.84-.52.92-1.35.04-.37.05-.78.02-1.24-.03-.45-.13-.96-.29-1.51,0-.03,0-.06-.01-.09.22.52.43.99.64,1.42.04.09.08.17.12.26.83,1.69,1.79,3.1,2.89,4.23.29.33.58.46.87.39.1-.62-.13-1.46-.7-2.51-.33-.63-.62-1.26-.89-1.89-1.36-2.93-2.48-5.93-3.38-9.01-.89-3.08-1.58-6.21-2.06-9.41-.14-1.11-.22-1.95-.24-2.53.02-.76.02-1.34,0-1.73-.03-.67-.13-1.23-.31-1.69v-.04c-.17-.28-.36-.47-.58-.56-.16-.04-.32.01-.48.15"/><path d="M229.93,487.51c-17.35,4.59-32.1-2.84-44.24-22.3,6.51,26.16,23.06,36.42,49.64,30.76,30.62-9.17,39.32-39.17,26.09-90.01,3.35,47.73-7.14,74.91-31.5,81.55"/><path d="M231.23,322.43l1.93-6.19c-17.68-4.22-32.42-2.74-44.19,4.44-11.46,7.53-19.28,17.29-23.49,29.29-7.28,25.15,1.91,54.22,27.58,87.2-12.47-6.88-22.27-2.97-29.4,11.72-14.11,34.11-16.48,70.69-7.11,109.75,5.93,6.19,12.77,8.94,20.53,8.25,7.69-.98,15.46-5.78,23.3-14.38-9.23-14.91-11.1-38.58-5.6-71.01l-3.57-7.38-1.93-2.85c-.34-.53-.67-1.02-.97-1.47-4.12,21.9-5.94,41.02-5.46,57.36-8.77-3.72-16.31-1.28-22.64,7.31-2.12-37.21,2.11-65.5,12.71-84.88,1.54-2.85,3.29-4.81,5.25-5.89,3.97-2.19,16.42,1.8,37.36,11.98-33.6-43.11-47.17-77.1-40.7-101.95,8.43-24.08,27.08-34.49,55.96-31.23l.45-.06ZM186.09,443.57c.07.08.2.16.39.22-.78-.17-.91-.25-.39-.22M163,554.36c-.34-2.15-.9-6.04-1.67-11.69,4.12-8.91,11.6-11.61,22.44-8.11l6.02,17.33c-9.2,7.3-18.13,8.12-26.79,2.47"/><path d="M175.02,339.95h.04s.76-1.16.76-1.16l-.81,1.16ZM121.24,350.59c-.36.93-.8,1.99-1.32,3.18-14.53,31.82-32.04,46.43-52.52,43.83-9.02-.58-17.85-5.12-26.48-13.63-9.18-10.08-16.88-15.12-23.12-15.12,4.22-1.89,10.73.48,19.51,7.11,5.88,4,13.35,4.22,22.41.66,9.06-3.56,16.45-11.09,22.18-22.59,5.15-10.38,11.59-22.72,19.32-37,2.49-3.98,3.97-6.4,4.43-7.25,11.34-16.25,25.71-18.29,43.1-6.12,14.84,10.37,25.36,20.84,31.56,31.4l1.97-5.83c-20.76-26.66-37.56-40.32-50.39-40.98-15.37-2.09-27.71,5.42-37.02,22.53-10.42,20.51-17.4,34.28-20.95,41.32-4.15,8.21-9.6,14.21-16.35,17.99-6.75,3.75-14.14,2.99-22.16-2.29-12.35-8.08-22.69-7.94-31.03.43-1.17,1.28-2.13,2.75-2.89,4.4-1.42,3.11-1.83,6.24-1.23,9.38.48,2.74,1.59,4.81,3.33,6.23.04.06.08.11.11.17.07.05.15.1.25.15.1.05.18.1.25.15,1.08.77,2.3,1.19,3.68,1.25,3.99.27,6.67-2.14,8.04-7.22-3.81,3.66-6.72,3.82-8.75.46-1.53-4.42.12-7.73,4.95-9.92,4.91-2.26,10.5.58,16.78,8.52,4.85,6.12,8.8,10.57,11.85,13.37,14.68,12.8,30.96,15.46,48.84,8,16.98-8.77,29.53-23.98,37.64-45.62,8.52-25.46,24.43-31.34,47.75-17.64l3.1-4.56.03-.1c-14.9-8.72-27.26-11.05-37.07-6.99-8.42,2.6-15.02,10.04-19.79,22.32"/><path d="M437.45,406.82c-2-1.35-3.55-4.23-4.65-8.65-42.78,44.88-99.11,61.78-168.96,50.7l-.46,6.91c41.23,9.25,78.86,7.2,112.89-6.13,23.25-9.93,43.65-24.21,61.19-42.82"/><path d="M462.39,378.57l.59-1.4c-5.77-31.4-11.41-47.78-16.91-49.12-10.92-3.19-24.72,9.61-41.41,38.4,18.81-21.22,31.01-31.19,36.6-29.91,4.38.43,9.9,17.87,16.56,52.32.38-.84.79-1.75,1.24-2.72l.25-.53c1.12-3.98,2.15-6.32,3.09-7.02"/><path d="M491.37,321.99v-.09c-6.92,5.08-15.21,16.41-24.89,33.99-9.52,22.28-13.54,35.98-12.07,41.11,19.63-42.08,33.34-64.75,41.12-68.03,11.42-5.21,15.31,3.42,11.67,25.9-2.61,19.02-2.19,36.59,1.27,52.68,2.6,12.16,6.04,21.51,10.31,28.04-5.71,10.46-16.3,11.39-31.76,2.81-4.87-20.38-2.88-49.58,5.96-87.59-5.57,6.21-10.33,19.08-14.27,38.62-3.43,16.97-2.57,34.8,2.56,53.47,23.66,14.26,38.95,11.28,45.88-8.95-6.42-9.26-10.43-18.83-12.04-28.72h-.04c-.02-.11-.03-.23-.05-.35l.05.04c-3.24-16.07-3.4-32.48-.49-49.23,2.11-15.19,1.58-25.36-1.59-30.51-4.26-6.96-11.46-8.02-21.6-3.18"/><path d="M433.02,380.15c-1.6-6.15-3.55-12.34-5.87-18.58.51,17.28,2.19,31.69,5.05,43.24,3.77,14.78,9.45,24.12,17.06,28.02,8.19,3.3,17.95-3.41,29.26-20.14.09-3.91.39-10.14.87-18.69-9.96,17.01-17.1,26.73-21.41,29.15-.17.08-.33.17-.47.25-.2.12-.38.2-.56.26-1.3.57-2.49.69-3.6.38-.18,0-.35-.01-.51-.03-.64-.04-1.35-.31-2.11-.82-2.32-1.43-4.35-3.55-6.09-6.36-1.3-2.02-2.58-4.82-3.84-8.4-1.3-3.6-3.89-13.03-7.78-28.28"/><path d="M514.3,413l.76-2.24c-11.5-6.67-22.92-.64-34.27,18.11l1.54,4.77c11.16-15.34,21.82-22.22,31.97-20.63"/><path d="M279.6,489.33c8.07-4.1,13.25-15.38,15.55-33.81l-6.15.81c-3.64,17.21-8.17,25.77-13.6,25.66-4.49-.38-11.62-3.98-21.37-10.79l-3.13,4.34c12.5,12.23,22.07,16.83,28.7,13.8"/><path d="M491.08,312.82l1.26,9.56c8.6-14.19,16.49-20.85,23.66-20,4.74,1.35,6.68,5.48,5.83,12.38-.78,16.72-.77,29.1.05,37.15.78,8.02,2.98,16.62,6.59,25.79.57,1.08,1.18,2.39,1.84,3.91,1.23,2.91,2.26,5,3.06,6.26.03.03.07.04.1.03.17.4.38.82.62,1.24,1.04,1.87,2.9,4.49,5.6,7.85-3.48,7.31-13.09,8.52-28.82,3.65l1.81,6.84c18.36,7.75,30.18,3.75,35.44-12.01-14.58-17.86-21.01-38.97-19.28-63.33.27-3.26.48-6.27.64-9.03.86-11.49-.15-19.17-3.03-23.02-3.41-5.12-9.08-6.55-16.99-4.29-5.65,1.5-11.76,7.18-18.35,17.02"/><path d="M509.08,387.21l.83,6.28c6.05-12.33,14.29-16.76,24.72-13.29l-2.39-4.25c-8.93-4.97-16.65-1.22-23.16,11.26"/><path d="M438.16,230.36c.22,2.8.67,6,1.35,9.59.69,3.59,2.4,9.12,5.15,16.58,1.11,3.14,3.74,8.39,7.87,15.76,23.77,13.49,36.4,31.62,37.87,54.4l7.78-3.3c3.45-21.91-10.11-41.56-40.66-58.96-7.77-15.59-12.14-29.65-13.12-42.18l-6.37-1.9c.06,6.23.1,9.57.13,10.02"/><path class="cls-14" d="M217.54,392.45c.58,2.11.18,5.85.91,8.42-28.26,35.88-35.83,56.36-29.39,56.41,7.72.96,19.51-6.55,35.08-29.81.1-.27,11.9-16.98,13.86-20.16-1.42-5.66-2.66-14.47-3.95-19.72-3.05,1.42-17.86,2.64-16.51,4.87"/><path class="cls-3" d="M222.88,341.01c-2.12-4.81.53-4.58-14.37,2.08,0,0,7.21,36.89,7.21,36.89.33-.5,10.15-1.81,13.29-4.29,0,0-3.12-19.2-6.14-34.68"/><path class="cls-17" d="M218.76,388.65c.53,7.19,6.67,2.86,12.73-1.07-.62-2.62-1.25-8.29-1.86-10.82-2.38.93-11.46,2.45-13.33,2.2l2.46,9.69Z"/><path class="cls-18" d="M240.49,417.38l-2.49-10.09c-1.69,2.97-32.83,52.17-51.09,50.79.13.12,4.37,9.06,9.03,7.68l11.2-3.04c12.96-6.29,32.03-42.7,33.36-45.35"/><path d="M208.51,343.08l-6.57.75c3.38,12.48,8.21,30.48,14.48,54-21.87,27.46-33.47,45.75-34.81,54.86.05,11.12,5.33,16.54,15.83,16.25,14.21-1.23,29.58-18.72,46.12-52.46-3.53-15.1-9.42-40.91-17.67-77.45l-6.3,2c1.18,5.91,2.24,11.09,3.2,15.56.01.05.02.09.02.12l.08.45c2.2,9.88,3.43,15.42,3.69,16.6.11.44.22.86.32,1.28-.64.25-1.26.47-1.85.68-1.57.53-2.98.93-4.22,1.2-1.23.29-2.3.45-3.23.47l-.15-.56-.57-2.2c-.08.01-1.9-6.74-1.95-6.7l-6.43-24.85ZM220.81,389.1c-.76-2.71-1.34-4.82-1.76-6.35l-.41-1.56c1.55.07,3.67-.35,6.36-1.26,1.19-.4,2.12-.73,2.8-.98.61,2.53,1.22,5.1,1.84,7.71-.88.54-1.8,1-2.76,1.39-1.65.68-3.37,1.13-5.17,1.33-.26.05-.52.08-.78.1-.04-.13-.08-.26-.12-.4M222.02,393.4s0-.04-.01-.08c.08.01.15.01.21,0,2.62-.02,5.45-.74,8.5-2.15,1.28,5.25,2.64,10.71,4.06,16.37-1.96,3.18-3.88,6.19-5.76,9.03-.94,1.48-1.88,2.91-2.82,4.29-15.57,23.26-27.22,34.41-34.94,33.45-6.44-.04,4.47-18.01,32.73-53.89-.73-2.57-1.38-4.91-1.96-7.02M237.26,411.44l.74,2.88c-1.33,2.65-2.64,5.2-3.92,7.64l-1.37-1.51c-.2-.19-.37-.34-.5-.45,1.68-2.74,3.36-5.6,5.05-8.57M219.68,438.26c3.62-4.64,7.28-9.9,10.98-15.78.45,1.09.99,2.04,1.62,2.85-3.34,6.01-6.59,11.31-9.74,15.89-.29-.37-.63-.74-1-1.12l-1.85-1.84M217.7,440.72c.88,1.12,1.84,2.19,2.9,3.2-5.37,7.28-10.51,12.46-15.42,15.55-.15-.2-.31-.39-.49-.58-.94-.86-1.61-1.55-2.02-2.06-.23-.35-.46-.66-.67-.92,1.5-.97,3.1-2.21,4.81-3.7,3.58-3.18,7.21-7.01,10.89-11.49M189.91,459.73c.73.15,1.49.21,2.3.21,3.59.07,6.66-2.33,7.35-2.66l1.18,1.38c.49.55,1.13,1.18,1.9,1.87.1.09.2.17.3.24-2.02,1.02-3.98,1.67-5.89,1.97-3.26.04-5.64-.96-7.14-3"/><path class="cls-3" d="M316.4,371.09l-15.44,2.03c1.05,5.88,2.23,12.49,3.51,19.83,3.55.39,11.08.27,14-2.48-.9-5.61-1.71-13.87-2.08-19.38"/><path class="cls-17" d="M319.26,390.96c-3.38.58-11.21,4.82-15.4,4.21.49,2.7,1.27,8.22,1.77,11.06,3.83,1.21,11.09-.12,14.45-1.73l-.83-13.54Z"/><path class="cls-14" d="M307.9,407.11c-4.79,5.94,2.1,18.36,4.85,25.38,3.9,8.62,8.95,18.69,14.2,26.59,2.26,3.36,5.36,7.08,8.09,9.88,6.56,6.55,15.38,7.59,16.02,2.09,0-3.94-1.02-7.87-2.72-11.81-2.8-6-7.05-12.46-10.57-18.25-3.18-5.29-12.33-19.53-15.2-24.19l-1.39-11.64-13.27,1.94Z"/><path class="cls-18" d="M305.06,417.3c-.19.06-2.12,5.28-2.31,5.47l-.74,5.18,11.89,33.11,16.21,19.57s18.99,10.65,21.77-6.96c0,0-10.32,4.73-18.97-4.52-9.61-10.27-27.84-51.85-27.84-51.85"/><path d="M320.84,369.64l-6.17.83c.2,2.55.4,5.22.61,8,.06.78.11,1.56.15,2.35l1.12,8.38.05.33c-.15.09-.3.17-.46.24-1.67.92-3.31,1.59-4.91,2.01-2.03.54-3.99.69-5.9.45,0-.09,0-.17-.04-.24-1.29-7.34-2.46-13.95-3.51-19.83l-6.14.82c1.79,9.52,4.15,22.2,7.06,38.02-2.12,6.8-3.8,11.97-5.04,15.51,4.32,16.68,12.22,33.86,23.71,51.56,9.25,8.32,17.9,11.21,25.96,8.65,6.68-3.63,8.92-10.98,6.71-22.03-.92-8.24-10.54-25.37-28.86-51.4-1.46-17.46-2.9-32.01-4.34-43.65M317.21,394.07l.06.41,1.2,8.87c-.26.12-.53.25-.82.38-1.33.57-2.78,1-4.35,1.3-1.57.27-3.29.17-5.14-.29-.21-.05-.41-.11-.61-.16-.5-2.85-1-5.62-1.49-8.33,3.77.23,7.2-.35,10.29-1.75.16-.07.31-.15.46-.24.13-.06.26-.12.39-.18M308.69,408.65c5.65,1.38,10.18-1.47,10.28-1.54,0,0,1.26,8.82,1.64,12.02,23.59,33.75,32.53,51.77,26.81,54.05-11.47.12-24.25-18.27-38.34-55.2-.04-.05-.76-9.33-.79-9.44M304.94,421.67c0-.05,0-.12.01-.21.12-.3.25-.57.38-.81.08.18.14.39.18.64,1.39,3.96,2.79,7.72,4.2,11.29-.47.38-.96.93-1.46,1.64-.45.68-.9,1.31-1.34,1.88-.8-2.47-1.81-5.7-3.04-9.72.42-1.43.78-3,1.07-4.71M310.68,435.14s0-.04.04-.05c1.8,4.48,3.62,8.64,5.47,12.47-.23.15-.45.35-.66.6-.68.8-1.57,1.98-2.67,3.54-1.73-3.85-3.39-8.09-4.96-12.72.05-.06.07-.11.06-.14l2.73-3.72M314.34,454.82c.02-.06.04-.1.06-.14.62-.65,1.22-1.4,1.78-2.24.62-.85,1.1-1.53,1.44-2.06,3.87,7.58,7.77,13.58,11.7,17.98.47.54.96,1.06,1.45,1.57-.07.09-.13.23-.19.4-.32.3-.71.74-1.18,1.31-.69.91-1.31,1.79-1.85,2.62-4.76-4.55-9.17-11.04-13.22-19.46M330.11,476.47l1.44-2.06c.29-.43.54-.82.74-1.16.14-.36.25-.75.32-1.18.32.26.68.53,1.09.83,2.01,1.47,4.72,2.89,6.43,3.52.3.12-.27-.12,0,0,1.27.47,2.57.69,3.9.65,2.03.02,3.88-.53,5.55-1.65-1.4,4.11-4.98,6.03-10.76,5.75-3.01-.95-5.91-2.53-8.7-4.71"/><path class="cls-11" d="M361.5,154.79c-4.78-1.7-26.94,1.74-32.63,1.91-20.07,1.37-30.2,4.19-47.6,7.63l-48.45,17.56-12.85,4.52,18.92,24.44,7.35,19.27c.52,4.58,6.43,36.27,6.43,36.27,0,0-17.77,1.79-26.01,5.4-11.46,4.39-25.01,14.22-27.33,27.27-.69,7.76.12,14.61-.59,25.06-1.15,16.97,10.08,46.4,10.08,46.4,30.75-12.32,65.96,28.48,115.47,7.76,3.94-1.71,4.62-3.58,3.91-7.44-2.24-16.56-4.15-34.77-5.73-54.65,10.65,2.16,16.57-2.62,29.3-4.75,38.66-9.95,28.26-55.08,24.51-85.43-1.66-13.68-2.85-23.95-3.56-30.79-1.22-11.41-2.07-21.69-2.55-30.85-.22-4.51-1.3-8.74-5.93-8.28-.81-.56-1.73-1-2.75-1.31"/><path class="cls-3" d="M246.85,268.85c.15.02.33.06.53.11,1.07-.26,2-.57,2.81-.92,1.13-.49,1.96-1.04,2.49-1.64-1.24-.74-2.69-1.19-4.34-1.37-.39-.05-.78-.11-1.16-.19-1.85-.24-4.18-.23-6.98.02-1.18.12-2.27.26-3.29.4,0,.08-.01.16-.03.23-.46,1.95-1.85,3.43-4.17,4.44-.2.09-.4.17-.62.24,1.75-.12,3.79-.19,6.1-.23,3.39-.09,6.25-.36,8.59-.82-.04-.13-.09-.24-.14-.34.12.04.19.07.22.07M251.43,313.55l.23-.02v-.04s-.23.06-.23.06Z"/><path d="M247.38,268.96c-.21-.06-.38-.09-.53-.11-.03,0-.1-.03-.22-.07.05.1.1.21.14.34.19-.07.4-.12.61-.15"/><path d="M341.77,273.26c-12.7-14.21-32.7-19.34-59.99-15.39,24.85,1.64,44.85,6.77,59.99,15.39M322.51,171.22c-11.61,14.76-25.54,24.52-41.77,29.27,19.82.54,33.74-9.21,41.77-29.27M255.12,322.91c7.04,9.68,13.69,15.47,19.96,17.37,6.21,1.88,12.59,1.83,19.14-.17-14.57,0-27.6-5.73-39.1-17.2M233.72,324.7c-1.26-1.1-2.82-2.47-4.68-4.11,5.61,10.39,13.9,18.42,24.85,24.1.54.31,1.11.63,1.7.95,1.15.54,2.36,1.07,3.63,1.6,3.32,1.4,7,2.7,11.04,3.91,2.23.68,8.1,2.23,17.61,4.66,4.1,1.04,7.31,1.98,9.63,2.82,2.94,1.04,6.66,2.87,11.16,5.48-2.38-5.23-12.46-10.24-30.25-15.03-17.76-4.81-32.66-12.95-44.71-24.39M209.92,276.56c.49-.27.9-.6,1.22-.98.28-.27.56-.57.84-.9-.3.21-.63.41-.99.61-.38.38-.74.8-1.07,1.28M261.5,195.67c7.88.94,16.62-.73,26.23-5.01-18.78,2.72-34,1.42-45.67-3.9,5.02,4.96,11.51,7.93,19.44,8.91"/><path d="M248.71,263.49l7.06.94c-2.08-32.26-11.07-54.35-26.98-66.29,11.08,21.31,17.72,43.09,19.91,65.35"/><path d="M327.07,252.91c-2.13-3.49-5.5-8.42-10.11-14.78-13.35-2.23-37.14-1.84-71.37,1.17-4.08,5.07-7.47,11.07-10.18,18,5.52,8.4,11.44,13.73,17.76,15.97,28-2.31,46.83-1.38,56.51,2.79,4.2-3.9,6.92-6.46,8.16-7.69,18.7,1.07,37.6,8.51,56.7,22.3l2.88-9.33c-13.39-16.19-30.17-25.67-50.34-28.43M248.36,245.51c30.72-3.13,52.61-3.36,65.68-.7,2.49,3.66,4.68,6.79,6.58,9.41-1.89,3.69-5.8,8.87-11.74,15.56-20.3-3.69-38.35-3.9-54.17-.63-5.15-3.55-9.39-7.85-12.7-12.89l6.35-10.74Z"/><path class="cls-6" d="M314.04,244.81c-13.07-2.66-34.96-2.43-65.68.7l-6.35,10.74c3.31,5.04,7.54,9.34,12.7,12.89,15.82-3.27,33.88-3.06,54.17.64,5.94-6.68,9.85-11.87,11.74-15.56-1.89-2.61-4.09-5.75-6.58-9.4"/><path d="M271.89,249.48c-8.07.15-16.65,2.75-25.72,7.81,14.99-2.64,26.67-3.81,35.05-3.51,8.29.31,16.82,1.32,25.59,3.03-.49-.24-.9-.48-1.23-.71-.09-.72-3.71-2.04-10.84-3.96-7.16-1.95-14.78-2.83-22.85-2.65"/><path d="M373.5,202.35l-6.69,3.62c6.23,42.54,8.35,69.55,6.36,81.01-3.53,13.67-19.6,22.45-48.21,26.33-.2-.58-.46-1.32-.79-2.22-.89-2.35-2.72-4.59-5.49-6.72l6.87,71.35c-4.85,2.22-11.3,3.95-19.36,5.19-14.62,2.2-29.87.2-45.75-5.99-24.31-9.95-41.02-12.61-50.12-7.97-7.48-27.5-10.41-48.26-8.78-62.29,1.02-12.85,9.42-22.05,25.22-27.6,3.08-1.11,6.72-2.04,10.91-2.8l-.94-7.18c-1.14.15-2.27.31-3.4.49-6.41,1.27-11.99,2.96-16.77,5.08-3.36,1.51-6.34,3.25-8.94,5.24-6.6,5.83-10.9,13.06-12.9,21.69-3.01,12.54.82,38.17,11.48,76.91,3.95-2.59,7.57-3.89,10.85-3.89,1.79-.02,4.48.08,8.07.31,2.21.14,4.09.22,5.65.26,2.34.64,5.34,1.64,9.02,3.01l13.33,4.87c4.86,1.83,8.58,3.15,11.16,3.96,4.16,1.34,7.96,2.35,11.4,3.02,10.11,1.93,21.19,1.82,33.24-.31,8.96-1.54,16.15-4.03,21.57-7.45.93-.58,1.72-1.15,2.38-1.73-1.59-14.15-3.56-33.52-5.91-58.11,33.8-3.29,52.1-14.29,54.91-33.01,2.17-13.83-.62-42.19-8.36-85.08"/><path d="M236.73,267.07l.94,7.18c17.29-3.22,44-3.84,80.13-1.87-23.81-7.55-50.84-9.32-81.08-5.31"/><path class="cls-11" d="M235.33,275.24c4.8,6.59,94.77,13.56,81.68-2.61-24.61-4.18-60.52-6.97-81.68,2.61"/><path d="M239.19,264.93l-1.51,9.33c14-4.37,43.94-3.59,89.81,2.34-14.51-9.44-43.94-13.33-88.3-11.67"/><path class="cls-15" d="M233.2,263.84c-5.84,2.57-21.01,6.31-21.3,13.54,1.3,5.23,11.68,2.86,15.09,2.06,2.05,10.5,7.19,23.37,13.46,31.95,14.18,11.08,22.98-6.55,22.37-18.64-.24-4.88-2.55-22.8-4.18-27.21,0,0-15.59-5.34-25.45-1.71"/><path class="cls-2" d="M263.99,291.79c-.23-.33-.7-.32-1.41.05l-7.93,4.24c-1.73.96-3.16,1.63-4.3,2.03-2.1.7-4.53.96-7.29.78-1.78-.1-4.25-.48-7.4-1.13-1.69-.33-2.89-.71-3.62-1.17-.4-.25-.71-.33-.94-.24-.18.05-.26.2-.26.45-.03.25.01.45.13.62.15.22.49.48,1.02.78,6.72,3.41,12.71,4.49,18,3.25,2.16-.47,5.07-1.72,8.73-3.75,1.39-.76,2.44-1.45,3.15-2.06,1.07-.9,1.79-1.89,2.16-2.98.14-.35.13-.64-.02-.86M227.02,282.04c-.13.17-.08.42.15.76.85,1.35,2.08,2.4,3.7,3.16,1.24.6,2.82,1.06,4.75,1.39,3.89.67,7.73.69,11.51.04,3.95-.7,7.5-2.11,10.63-4.23,2.04-1.39,3.55-2.86,4.54-4.38.34-.62.38-1.05.1-1.29-.27-.21-.63-.19-1.09.05-1.19.46-2.9,1.31-5.14,2.55-2.25,1.21-3.97,2.06-5.19,2.55-3.49,1.43-7.61,2.16-12.36,2.17-4.53.02-8.02-.86-10.48-2.64-.56-.35-.93-.39-1.11-.13"/><path d="M248.94,273.77c-.35-.38-.68-.52-.97-.42-.26.12-.35.47-.27,1.04.33,2.03.85,5.09,1.57,9.2.72,4.07,1.23,7.14,1.53,9.2.98,6.51,1.64,13.4,1.99,20.69,1.63-.12,3.06-.3,4.31-.52-.19-3.78-.47-7.32-.85-10.61-.99-8.91-2.72-17-5.2-24.28-.69-1.98-1.39-3.41-2.12-4.29M238.52,277.15c0,.67.09,1.62.28,2.84,2.62,16.69,3.99,25.37,4.11,26.02.39,2.72.75,5.35,1.08,7.89l4.49-.18s.06,0,.09-.01c-1.39-10.1-3.35-20.13-5.87-30.08-.54-2.06-1.01-3.64-1.4-4.74-.59-1.72-1.29-3.19-2.09-4.43-.42.73-.65,1.62-.7,2.69"/><path d="M209.54,276.4c-2.44,6.22,2.51,8.3,14.83,6.22,2.6,14.47,6.98,24.5,13.13,30.08,4.41,3.92,9.07,5.5,13.99,4.73,13.24-2.29,16.57-19.66,9.99-52.1-7.58-6.52-17.19-8.01-28.83-4.47-10.87,3.62-18.57,8.8-23.1,15.54M228.31,276.85c-8.71,1.33-12.83,1.31-12.38-.06,2.49-3.7,6.55-6.72,12.18-9.04,10.14-4.59,20.01-4.46,29.62.39,3.73,27.2,1.33,41.61-7.18,43.25-8.96,1.06-16.37-10.46-22.25-34.54"/><path d="M237.37,210.89c-.12.26-.22.53-.3.82l.09-1.06c-.22-.27-.45-.53-.7-.77l-18.8,47.93c-4.84,3.22-8.61,8.47-11.31,15.73,11.14-12.94,20.26-16.69,27.37-11.27,1.63.12,3.45-.26,5.47-1.13-1.79-5.3-6.3-7.75-13.52-7.35l15.01-37.53c-1.91-3.19-3.01-4.98-3.31-5.36"/><path d="M239.96,180.29l-2.26-3.07c-9.26,2.26-18.7,5.7-28.32,10.31-16.39,35.81-27.07,70.51-32.04,104.09-1.06,9.78,5.41,13.64,19.42,11.59l5.56-9.65c-11.11,3.67-17.08,3.1-17.9-1.68,4.5-29.14,14.12-62.45,28.87-99.93,9.48-5.7,18.37-9.58,26.67-11.66"/><path class="cls-11" d="M196.35,39.03c14.51-13.09,68.4-35.26,80.15-34.76l43,16.71c-4.36,8.26-18.9,8.69-18.9,8.69l15.11,11.72c23.12,20.31,47.38,55.64,48.55,86.72-1.3,15.21-17.42,21.19-29.39,27.15-23.12,10.97-45.02,28.05-71.5,29.44-7.09.43-13.88.15-20.86,1.09-13.22,1.73-30.43,7.32-43.49,1.16-31.18-14.71-13.92-118.88-2.66-147.92"/><path class="cls-5" d="M207.25,111.25l105.61-30.49c9.3,15.97,23.69,36.77,16.15,53.85-14.46,6.58-32.32,13.09-48.41,13.4-10.42,2.82-23.4,10.82-35.38,10.32-42.66,19.93-39.51-.4-37.97-47.08"/><path d="M313.46,65.93c-1.88-3.14-8.19-8.59-18.93-16.38-10.74-7.78-25.71-13.67-44.93-17.68,9.2-1.29,20.24.61,33.12,5.67,12.91,5.06,23.15,14.52,30.74,28.38M199.49,42.21s-7.72,26.49-11.71,55.2c-3.96,28.7-3.87,51.19.27,67.47,3.06,20.21,20.55,26,52.47,17.36-7.26,5.68-16.99,8.99-29.2,9.92-11.64,1.08-20.19-2.49-25.65-10.71-3.45-6.2-5.72-14.13-6.81-23.79-4.71-34.94.25-75.29,14.86-121.04C216,19.05,243.63,6.85,276.62,0c15.25,7.48,30.54,13.79,45.88,18.93-2.05,10.63-6.55,13.89-26.27,13.15l-8.26-5.25c12.61,2.83,23.09-.79,24.89-5.07-6.31-1.8-18.07-6.46-35.28-13.97-5.68-.26-17.5,2.98-35.46,9.73-17.94,6.74-32.15,14.97-42.64,24.68"/><path d="M271.08,18c15.88,2.1,34.17,12.16,54.88,30.19,23.35,23.66,37.65,46.77,42.9,69.33,5.16,22.3-10.6,36.16-47.3,41.59,18.34-9.18,29.85-15.92,34.53-20.23,7.55-8.33,5.52-24.12-6.1-47.36-18.34-31.27-44.65-55.78-78.91-73.51"/><path d="M205.6,104.86l3.91,4.31c-2.26,29.69-.86,47.39,4.22,53.11,2.09,1.93,11.18.16,27.25-5.33l1.86,5.42c-13.68,5.55-23,8.02-27.95,7.42-3.22-.4-5.63-1.87-7.26-4.41-5.32-9.15-6-29.33-2.03-60.53"/><path d="M228.03,40.3c-5.61-1.32-8.91-2.89-9.91-4.71,18.54.29,34.11,2.47,46.73,6.51,15.78,5.08,31.75,15.58,47.91,31.48,9.26,11.26,16.18,23.85,20.78,37.75,1.88,5.48,2.8,10.61,2.76,15.4-.73,4.49-3.1,7.8-7.12,9.94-5.5,1.99-16.37,5.71-32.62,11.16l-1.49-6.95c11.98-4.12,22.11-7.71,30.41-10.77,3.47-2.32,4.36-6.83,2.66-13.52-3.61-11.18-8.42-21.29-14.43-30.32-11.67-16.25-25.47-27.64-41.42-34.16-13.12-5.77-27.88-9.71-44.26-11.83"/><path d="M235.28,133.62c12.1-12.63,44.14-19.4,61.29-21.34,5.5,3.14,2.21,11.04,4.14,16.99,2.74,6.44,6.15,14.35,6.56,21.96-4.64,2.01-23.13,11.35-27.51,12.5-.58,1.7-8.1,4.87-9.86,5.53-.85-1.57-2.39-2.16-4.33-2.11-21.1,9.2-26.29-15.76-29.91-31.46M235.66,135.69c-.1-.52-.18-1.02-.25-1.5"/><path class="cls-15" d="M291.04,100.38c8.83-7.01,13.79,19.75,13.79,19.75l7.12,28.69c-1.07,4.91-6.24,8.63-14.53,9.87l.99,8.04-16.69,6.1s-24.41,12.46-18.9-1.66c-5.87.95-18.37,6.73-21-1.91l-14.2-41.7c4.61.4,8.56-2.03,8.56-2.03,10.13,22.29,7.85,48.21,25.78,34.54l-5.82-8.98s25.51-9.37,28.99-11.08c0,0-2.14,13.42,2.83,12.44,18.49-3.64,14.75-9.19,11.44-21.29-2.13-7.79-8.9-24.14-8.36-30.79"/><path d="M235.97,130.18l3.77-.14c4.5,13.49,7.7,22.61,9.58,27.37.75,1.96,1.98,3.09,3.68,3.37l4.75-1.51c-2.3-4.09-4.18-7.44-5.66-10.06l35.26-12.56c.72,4.74,1.49,9.16,2.33,13.27l7.51-3.01c2.13-.65,2.89-2.26,2.27-4.83-.83-2.95-1.59-5.57-2.27-7.85-2.59-8.48-5.42-17.53-8.49-27.15l3.19-2.46c1.82,6.04,4.04,13.1,6.65,21.19,2.61,8.09,4.39,14.1,5.32,18.03.14,2.72-1.03,4.86-3.53,6.43-3.23,1.23-7.81,2.95-13.74,5.14-.52-2.27-1.56-6.68-3.12-13.22-1.82.72-3.83,1.59-6.03,2.59l3.15,11.82c-1.66-.23-3.44-3.86-5.35-10.91-2.54.8-4.77,1.55-6.68,2.26,2.83,6.5,4.06,10.87,3.69,13.1-1.2-.74-3.2-4.87-6-12.39-2.19.81-4.87,1.78-8.03,2.91,2.76,4.56,4.9,8.04,6.4,10.44-.43.16-.85.31-1.26.46-5.86,2.12-8.8,3.19-8.83,3.2-.29.11-.59.2-.88.28-.3.09-.6.17-.89.24-.09.02-.18.04-.26.06-.1.01-.2,0-.29-.02-2.98.23-5.22-1.85-6.73-6.23-4.47-12.15-7.64-22.09-9.52-29.81M226.89,132.65l3.95-1.14s.07-.01.12,0c.04.04.07.08.09.13l10.67,32.13c.28.63.56,1.25.86,1.85,2.05,4.66,4.81,6.93,8.28,6.82,4.65-1.28,9.41-2.79,14.29-4.52.04-.01.08-.01.12,0,.04.01.07.03.1.05.02.05.04.08.04.11,0,.05,0,.1-.03.14-1.27,2.14-1.84,3.8-1.73,4.96.13,1.12.91,1.79,2.34,2.01l30.1-10.73c-.66-2.71-1.18-4.81-1.56-6.31-.01-.04,0-.09.03-.13.01-.04.04-.08.08-.11,2.49-.9,6.18-2.26,11.07-4.09,2.95-1.21,4.28-3.12,3.98-5.73-.36-1.7-.73-3.22-1.09-4.55-2.02-7.12-5.43-19.79-10.24-38.01,0-.03,0-.08.03-.13.02-.03.05-.05.1-.08.04-.02.08-.02.12,0l4.83,1.69s.06.03.1.05c.01.03.02.05.03.07,2.46,9.39,5.85,21.86,10.16,37.42,1.91,5.43.82,9.58-3.25,12.46-.03.01-.05.02-.07.03l-10.34,3.74c.56,3.02,1.05,5.61,1.47,7.77,0,.04,0,.07-.01.09-.03.06-.07.1-.12.12-3.67,1.43-9.56,3.65-17.68,6.65-7.15,2.65-12.03,4.41-14.62,5.3-3.14,1.04-5.57.71-7.31-.99l-.05-.02c-1.3-1.82-1.84-3.57-1.63-5.26-1.69.56-4.28,1.36-7.77,2.4h-.04c-6.88,1.35-11.66-1.74-14.32-9.24l-11.25-34.66s0-.07,0-.12c0-.02.02-.06.05-.1.02-.01.06-.02.11-.04"/><path class="cls-3" d="M198.68,78.77s15.51-27.85,42.71-38.23c2.41-.92,4.95-.2,7.27.23,43.47,7.93,61.77,36.89,61.77,36.89,0,0,.89,9.25-4.65,17.64,0,0,24.88,4.77,1.82,17.13-8.87,4.76-19.55,7.74-19.55,7.74l2.61,13.18c-11.29,6.97-37.65,14.48-40.68,10.49-1.44-1.89-7.42-12.64-7.42-12.64-15.46,6.09-41.59,10.68-23.1-9.7l-11.78-11.67-7.49-9.69s-1.52-21.36-1.52-21.36"/><path d="M276.11,126.07c.57-.31,1.67,1.18,3.31,4.49,1.04,2,1.92,4.35,2.64,7.06l-1.43,2.03c-1.21-2.32-1.93-3.77-2.17-4.37-1.17-3.2-1.93-5.62-2.3-7.26-.05-.61-.08-.94-.07-1,.04-.26.05-.58.03-.95M259.64,145.49c-3.83-7.39-5.07-11.68-3.72-12.85,1.25-.15,3.27,3.82,6.07,11.91l-2.35.93M268.73,141.88c-2.62-8.11-3.79-12.88-3.51-14.31,2.57,1.82,4.75,6.48,6.52,13.96l-3.01.35Z"/><path d="M222.27,118.66c5.42-1.65,9.69-1.6,12.82.14-14.48,4.88-21.13,9.55-19.94,14.01,2.64,4.21,12.29,2.38,28.95-5.49,2.18,4.23,7.16,14.99,7.77,16.57,10.64-.72,22.34-4.65,35.08-11.8-1.05-4.92-2.08-9.6-3.09-14.05,20.54-5.57,30.55-10.73,30.03-15.49-2.16-3.95-10.03-3.38-23.62,1.72,2.31-4.64,5.9-7.45,10.78-8.44,4.91-8.19,7.39-16.11,7.44-23.76,1.8,1.76,3.81,3.8,6.01,6.13-.71,5.82-2.69,10.99-5.94,15.52,5.69.23,9.23,2.77,10.6,7.61.44,1.52.46,3.05.04,4.57-2.75,6.59-12.1,11.85-28.05,15.8.54,4.91,1.09,9.1,1.63,12.58-17.08,8.72-31.27,13.57-42.56,14.55-1.7-3.56-4.28-8.83-7.74-15.81-18.21,8.8-28.82,9.66-31.86,2.58-1.84-5.06.23-9.75,6.21-14.07-4.71-3.95-8.63-7.55-11.74-10.8-2.1-2.06-3.84-4.22-5.24-6.49-7.08-9.54-6.7-20.96,1.13-34.28,11.65-16.77,25.1-27.56,40.33-32.35,4.51,1.25,7.7,1.59,9.55,1-32.5,14.74-48.66,32.94-48.47,54.61.65,7.07,7.27,15.55,19.88,25.44"/><path d="M264.75,118.44c-2.78,6.7-5.46,9.67-8.04,8.91-.27-.14-.51-.34-.73-.58-.38-.4-.65-.92-.81-1.54-.28-1.21-.2-2.48.24-3.8.48-1.36,2.3-5.82,5.47-13.35,10.62,4.22,15.69,7.58,15.2,10.08,0,.71-.15,1.42-.45,2.11-.3.53-.61.96-.93,1.31-.05.08-.11.14-.18.19-1.05,1.2-2.52,1.5-4.43.89-1.66-.6-3.44-2-5.33-4.21"/><path d="M252.4,83.56c.04-.07.1-.12.19-.17-.62-9.15,2.31-14.75,8.78-16.79h.04c3.02-.46,6.03.91,9.02,4.08,5.12,6.79,10.5,10.93,16.15,12.4.05.01.08.04.11.08.02.04.04.08.04.11-.02.07-.04.12-.07.15-3.07,2.64-5.29,6.82-6.68,12.53l.02-.05c-1.12,5.83-3.54,9.44-7.27,10.82-4.97,1.62-9.49-.07-13.57-5.08-.48,6.39-2.6,10.9-6.34,13.51-.35.18-.71.39-1.08.64h-.04c-.49.26-.95.45-1.39.58-2.67.98-5.81.24-9.42-2.21-3.51-2.43-7.63-3.5-12.36-3.23-.06.02-.1.02-.13-.03-.04-.01-.07-.04-.07-.09,0-.05,0-.1.03-.14,2.95-4.65,4.1-9.04,3.46-13.18-.33-2.14-.65-3.92-.98-5.34-1.25-6.77-1.05-11.49.62-14.15l.02-.05c.8-1.08,1.76-1.91,2.87-2.51.48-.32.97-.58,1.48-.77l.03-.02c5.6-1.26,11.11,1.71,16.53,8.89M258.1,73.84c-.34.43-.63.92-.87,1.47-1.2,2.68-1.59,5.63-1.18,8.84.25,2.22,1.04,5,2.37,8.33v.04c.93,2.06,2.12,3.99,3.58,5.8,3.86,4.44,7.55,5.48,11.07,3.12,1.8-1.32,3.19-4.03,4.18-8.14.97-4.04,2.46-7.06,4.47-9.06-4.5-1.02-8.06-3.27-10.7-6.75-2.59-3.46-4.19-5.26-4.8-5.39-.02.01-.04,0-.05-.02-3.24-1.66-5.92-1.08-8.06,1.76M250.84,88.34v-.04c-2.8-4.86-5.96-7.76-9.47-8.71-1.02-.36-1.96-.46-2.81-.28-2.09.39-3.5,1.49-4.21,3.3-.74,1.89-.77,4.5-.11,7.83,1.33,6.65,1.62,11.24.87,13.76-.37,1.5-.92,2.72-1.66,3.65,3.1-.15,6.61.91,10.53,3.19v.04c3.66,1.66,6.54,1.33,8.67-.97,3.49-4.41,2.9-11.67-1.79-21.76M241.27,86.41c.82-2.11,2.05-2.61,3.7-1.49,3.7,3.46,5.93,7.95,6.72,13.46.75,5.5-.3,8.12-3.14,7.85-2.81-.31-5.16-3.28-7.07-8.92l-.3-1.58c-.7-4.18-.67-7.29.09-9.32M260.43,87.38c-.75-3.85-.72-6.79.1-8.82,1.59-3.4,3.84-2.93,6.76,1.4,5.41,9.33,6.11,15.08,2.11,17.27-4.16.7-7.15-2.58-8.96-9.85M247.57,59.99c-.72-1.22-.38-2.73,1-4.53,1.38-1.8,3.61-3.46,6.68-4.96,3.08-1.48,6.77-1.31,11.07.53,4.26,1.79,7.52,4.36,9.8,7.69,2.27,3.3,1.63,3.97-1.91,2-9.35-7.66-17.09-7.92-23.23-.79-1.55,1.23-2.69,1.26-3.42.07M236.14,65.98c-1.69-.21-3.75.37-6.17,1.73-2.42,1.36-4.25,3.62-5.49,6.79-1.25,3.14-2.06,6.63-2.45,10.48-.36,3.84-1.05,4.45-2.09,1.83-1.58-11.3.78-19.13,7.06-23.48,3.4-2.04,6.69-2.84,9.87-2.38,2.37.36,3.34,1.5,2.91,3.42-.23.74-1.45,1.29-3.65,1.63"/><path class="cls-21" d="M272.07,48.06c.66.22,1.08.28,1.27.16,5.25,1.74,8.61,5.99,10.08,12.75-4.14-6.53-8.28-10.6-12.45-12.22-.04-.21-.03-.38.03-.51.16-.32.52-.38,1.07-.17M215.49,80.76c-1.76-3.89-1.74-8.19.07-12.91,1.83-4.76,6.43-8.38,13.81-10.87-9.93,5.43-14.56,13.36-13.88,23.78"/><path class="cls-13" d="M250.83,88.31v.04c4.7,10.09,5.29,17.35,1.8,21.76-2.12,2.31-5.01,2.63-8.66.97v-.04c-3.93-2.28-7.44-3.34-10.54-3.19.74-.94,1.3-2.15,1.66-3.65.75-2.52.46-7.1-.87-13.76-.66-3.33-.62-5.94.11-7.83.71-1.81,2.12-2.91,4.21-3.3.85-.18,1.79-.08,2.81.28,3.52.95,6.68,3.85,9.46,8.71M244.97,84.92c-1.65-1.12-2.89-.62-3.7,1.49-.76,2.03-.79,5.14-.09,9.32l.3,1.58c1.9,5.64,4.26,8.61,7.07,8.92,2.84.27,3.89-2.35,3.14-7.85-.78-5.51-3.02-10-6.72-13.46M257.23,75.31c.24-.55.54-1.04.87-1.47,2.14-2.84,4.83-3.42,8.06-1.76,0,.03.02.03.05.02.61.14,2.22,1.93,4.8,5.39,2.63,3.48,6.19,5.73,10.69,6.75-2.01,2-3.5,5.02-4.47,9.06-.98,4.11-2.38,6.82-4.18,8.14-3.52,2.36-7.21,1.32-11.07-3.12-1.46-1.81-2.65-3.75-3.57-5.81v-.04c-1.34-3.34-2.13-6.11-2.38-8.33-.41-3.21-.01-6.15,1.18-8.84M260.53,78.56c-.82,2.03-.85,4.97-.1,8.82,1.81,7.27,4.8,10.55,8.96,9.85,4-2.19,3.3-7.95-2.11-17.27-2.91-4.33-5.17-4.8-6.76-1.4"/><path class="cls-21" d="M283.26,104.49c-2.11,3.6-5.39,5.38-9.83,5.33,5.89-2.18,9.48-7.41,10.74-15.68,1.52,3.27,1.22,6.72-.91,10.35M240.79,119.99c-.81-.57-2.35-2.46-4.62-5.68,6.35,4.67,11.97,6.1,16.85,4.28-.02.01-.03.03-.02.05-.04.27-.16.52-.35.74-.66.9-1.52,1.6-2.57,2.08-.98.45-2.03.69-3.16.71-2.06-.02-4.1-.75-6.13-2.18"/><path class="cls-11" d="M216.49,38.54c-1.41,0-2.35-.31-2.82-.9-.42-.5-.51-1.13-.27-1.86.24-.71.67-1.25,1.27-1.61.85-.5,2.15-.69,3.9-.55,4.27.25,8.51.66,12.73,1.24.01.02.03.02.05.02,2.7,0,5.34.31,7.93.93.85.18,1.85.45,3.02.79,1.65.46,3.1.88,4.35,1.24,5.69,1.42,11.34,3.16,16.94,5.24,14.64,5.39,28.11,12.74,40.39,22.06,3.07,2.35,5.54,4.44,7.41,6.27,3.69,3.6,7.62,8.68,11.78,15.24,3.07,4.86,5.56,9.33,7.47,13.41,2.36,5.01,4.04,9.84,5.04,14.49.11.48.09.84-.07,1.09-.22.3-.55.35-1,.16-.36-.17-.66-.44-.93-.81-2.57-3.49-6.36-9.79-11.38-18.91-4.53-8.26-8.5-14.4-11.9-18.43-5.6-6.64-13.57-12.93-23.91-18.87-10.57-6.05-21.53-10.8-32.89-14.22-.97-.11-2.03-.32-3.16-.61-.83-.22-2.2-.62-4.1-1.21-.85-.26-1.66-.49-2.43-.72-9.14-2.09-18.28-3.25-27.43-3.48"/><path d="M228.03,40.3c-5.61-1.32-8.92-2.89-9.91-4.71,18.55.29,34.12,2.47,46.73,6.51,15.78,5.07,31.75,15.56,47.91,31.48,9.26,11.26,16.19,23.85,20.78,37.75,1.89,5.48,2.81,10.61,2.76,15.4-.73,4.49-3.1,7.8-7.12,9.94-2.27.82-5.47,1.94-9.58,3.35l-2.37-6.91c2.93-1.05,5.68-2.04,8.25-2.99,3.47-2.32,4.36-6.83,2.66-13.52-3.6-11.19-8.4-21.3-14.4-30.33-11.7-16.25-25.52-27.63-41.46-34.15-13.12-5.77-27.88-9.71-44.26-11.83"/><path class="cls-11" d="M323.51,154.69c-7.47,19.05,16.37,28.27,28.44,39.58,11.9,7.21,17.37,21.51,24.58,10.6,2.27-6.09,14.51-24.26,8.34-29.95-37.35-34.47-42.48-44.16-61.36-20.23"/><path d="M347.22,192.39c10.82,13.58,16.43,29.26,16.82,47.04,8.16-13.37,12.87-23.24,14.14-29.61-23.28-20.16-38.55-30.44-45.82-30.85,5.2,5.04,10.15,9.51,14.87,13.43M330.45,142.24c-6,5.26-9.13,12.69-9.39,22.28,6.28-11.69,11.84-18.11,16.68-19.26,6.6-.96,21.13,7.38,43.6,25.03-2.81-4.71-2.28-7.05,1.59-7.01-16.33-12.21-28.14-19.82-35.41-22.82-6.39-3.66-12.07-3.07-17.06,1.79"/><path class="cls-9" d="M418.96,102.66c.17,1.06.25,2.24.23,3.54.07,3.99-.24,7.88-.93,11.65l-.14,3.63c1.45-5.44,2-11.04,1.64-16.81-.09-1.68-.26-3.13-.49-4.35-.23-.85-.47-1.69-.73-2.51-.38-1.05-.86-2.09-1.43-3.1.25.88.5,1.81.74,2.79.02.12.04.26.08.42.11.56.22,1.14.33,1.73.4,1.6.64,2.61.71,3.01M413.79,123.53c-.17-.84-.26-1.78-.28-2.82-.25,1.25-.28,2.2-.09,2.86.14.54.44.98.88,1.34-.17-.36-.34-.82-.51-1.39M414.83,89.9s.03.04.04.05c0-.49-.2-.99-.59-1.49-.1-.14-.22-.27-.36-.41.29.58.59,1.2.9,1.85M409.1,91.59c.34.65.99,1.51,1.95,2.58.66.75,1.18,1.4,1.53,1.93.18.24.34.45.46.65.12.23.26.49.4.78-.24-.76-.48-1.49-.72-2.19-.99-1.49-2.09-3.15-3.29-4.98-.48-.76-.95-1.41-1.39-1.96.02.09.02.18.01.28.35,1.29.7,2.26,1.04,2.92M405.24,81.02c-.17.1-.29.22-.37.36-.15.22-.05.62.31,1.18.13.2.27.4.43.6.04-.06.07-.08.1-.08-.13-.41-.1-.76.09-1.04.25-.52.72-.75,1.41-.69.38,0,.83.13,1.36.4-.83-.54-1.73-.83-2.68-.84-.27,0-.49.03-.65.1"/><path class="cls-7" d="M401.34,79.42s-1.08,3.19-1.21,4.3c-.29,3.25,2.88,6.35,3.54,9.58,3.81,16.95.2,34.3-8.1,49.44-4.65,9.22-5.86,19.85-4.14,29.99.61,3.09,1.71,5.84,2.9,8.67,2.13,4.95,3.84,11.62,4.25,17.29-.02,8.91,2.85,15.04,10.13,20.51,6.6,5.43,15.45,4.68,23.49,4.69,6.85.16,13.62,1.51,20.32.5,8.99-1.24,18.34-3.36,27.33-2.55,13.34.8,15.87,8.2,25.6,14.78,9.47,6.21,22.57,3.66,26.31-7.8,2.73-8.55,7.19-7.67,12.87-12.54,4.19-4.37,3.13-11.86.75-17.04-6.09-11.36-17.13-16.57-29.09-17.58-7.3-.46-22.48-3.19-22.48-3.19-3.84-5.16-7.73-15.6-10.95-20.66-4.34-6.61-14.96-19.36-21.07-24.25-8.03-6.34-11.93-6.13-21.87-7.96-5.99-1.02-9.62.06-15.19-1.31-3.73-.8-9.24,1.97-11.19.6,0,0,.02-8,.12-10.99,1.11-13.54-.71-17.3-7.26-28.54-.59-1.2-1.25-2.55-2.11-3.47-.57-.6-4.13-2.64-4.5-2.47"/><path class="cls-8" d="M442.97,84.95c1.26-3.67,2.9-8.79,4.92-15.34-.33.69-.66,1.35-.98,1.97-5.21,11.08-8.39,18.5-9.54,22.28-.05.36-.46,1.96-1.25,4.81l-1.49,5.65c-.43,1.71-.57,3.01-.41,3.92.02.34.1.64.25.9.94-3.1,2.23-6.88,3.86-11.32,2.59-7.21,4.14-11.5,4.65-12.87M459.19,74.38c.5-4.16,1.01-10.29,1.52-18.38.13-1.72.17-3.02.13-3.91-.03-1.43-.19-2.7-.47-3.8-.22-.91-.55-1.64-1-2.18.11,2.72.03,5.6-.23,8.64-.4,4.09-1.28,8.98-2.64,14.67-3.1,12.9-7.28,25.53-12.53,37.91-.19.28-.33.45-.43.49-.17.13-.37.14-.6.02-.2-.12-.34-.29-.44-.51-.08-.35-.04-.8.13-1.35,3.92-12.64,6.87-22.79,8.85-30.44,2.47-9.81,4.32-18.91,5.57-27.3-4.03,13.75-7.35,24.55-9.96,32.4-3.3,9.95-7.02,20.03-11.15,30.24.2.12.4.2.6.26.98.18,1.93-.13,2.86-.96.58-.5,1.18-1.36,1.79-2.56-.05.39.15.7.61.94.4.2.81.21,1.23.02.26-.15.61-.39,1.05-.73.41-.37.73-.62.96-.74.39-.16.97-.3,1.74-.42.83-.05,1.4-.17,1.74-.37.46-.31.85-.74,1.17-1.31.14-.35.36-.9.67-1.65l2.04-6.36c1.61-.19,2.77-1.71,3.5-4.57,1.4-5.27,2.5-11.28,3.3-18.06"/><path class="cls-13" d="M457.89,45.16c-.29,1.06-.57,2.09-.85,3.09-1.25,8.39-3.11,17.49-5.57,27.3-1.98,7.66-4.93,17.8-8.85,30.44-.16.56-.2,1.01-.13,1.35.09.22.24.4.44.51.23.12.43.12.6-.01.1-.05.24-.21.43-.49,5.26-12.38,9.43-25.02,12.53-37.91,1.36-5.7,2.24-10.59,2.64-14.67.26-3.04.34-5.92.23-8.64-.12-1.47-.25-2.91-.41-4.29l-1.06,3.33ZM457.96,42.11c.25-.3.53-.6.84-.9-.04-.43-.11-.84-.21-1.21-.24.46-.45,1.16-.63,2.11"/><path class="cls-16" d="M458.95,41.82l.26-.93-.4.31c-.31.29-.59.59-.84.9-.75.88-1.46,1.91-2.13,3.1-.08.17-.15.38-.22.61-.39.44-.68,1.15-.86,2.13-.31.78-.63,1.62-.96,2.52-1.18,3.56-2.98,9.31-5.39,17.24-.2.64-.38,1.27-.51,1.9-2.02,6.56-3.66,11.67-4.92,15.34-.51,1.36-2.06,5.65-4.65,12.87-1.63,4.45-2.92,8.22-3.86,11.32-.2.58-.37,1.14-.53,1.67-.4,1.26-.27,2.03.39,2.33.51-.18.94-.73,1.31-1.66.09-.2.19-.4.3-.6,4.13-10.21,7.84-20.29,11.15-30.24,2.61-7.85,5.93-18.65,9.96-32.4.28-1,.56-2.03.85-3.09l1.06-3.33Z"/><path class="cls-10" d="M408.57,81.76c-.53-.27-.98-.41-1.36-.4-.69-.06-1.16.17-1.41.69-.19.28-.22.63-.09,1.04-.03,0-.06.02-.1.08-.12.01-.24.06-.34.14-.53.33-.78.77-.76,1.32.04.4.25.79.63,1.17.14.11.54.4,1.21.88.5.4,1.06.97,1.7,1.72.45.54.91,1.2,1.39,1.96,1.2,1.83,2.29,3.49,3.29,4.98.24.7.49,1.43.72,2.19.12.53.23,1.09.33,1.68.17,1.02.32,2.17.43,3.43.09,1.71.12,3.68.12,5.9l-.13,3.5c-.26,2.55-.46,4.49-.6,5.81-.1.99-.13,1.95-.09,2.86.02,1.04.11,1.98.28,2.82.17.57.34,1.03.51,1.39.1.17.19.3.27.4.47.64,1.03.91,1.68.81.68-.1,1.16-.52,1.44-1.28.12-.2.22-.67.32-1.42-.02-.12-.01-.28.01-.45l.1-1.49.14-3.63c.69-3.77,1.01-7.66.93-11.65.01-1.31-.06-2.49-.23-3.54-.07-.4-.31-1.41-.71-3.01-.11-.59-.22-1.17-.33-1.73-.04-.16-.07-.3-.08-.42-.24-.97-.49-1.9-.74-2.79-.52-1.41-1.11-2.73-1.78-3.97-.15-.23-.3-.48-.45-.74v-.05s-.01-.02-.03-.05c-.31-.65-.61-1.26-.91-1.85-.67-1.21-1.29-2.2-1.86-2.97-.85-1.17-1.78-2.11-2.79-2.82-.08-.07-.17-.13-.25-.17-.08-.07-.16-.14-.25-.21-.07-.04-.14-.08-.21-.12M470.92,202.29c-.29.88-.36,1.76-.2,2.67.15.96.51,1.75,1.07,2.37.66.75,1.54,1.26,2.63,1.52,1.04.22,2.07.2,3.11-.06,1.57-.38,3.36-1.41,5.37-3.1l2.04-1.7c.76-.7,1.27-1.27,1.54-1.72.36-.44.78-1.22,1.26-2.35.15-.26.39-.64.69-1.14.24-.46.4-.86.47-1.22.11-.38.08-1.11-.09-2.2-.22-1.37-.58-2.26-1.07-2.69-.49-.46-1.51-.79-3.07-.98-1.29-.13-2.19-.13-2.69.02-.26.12-.68.34-1.27.66-2.26,1.26-3.87,2.32-4.83,3.17-.59.56-1.41,1.49-2.45,2.79-1.32,1.57-2.16,2.89-2.51,3.97"/><path class="cls-4" d="M392.35,146.81c6.93-8.72,4.91-11.74-.84-10.32-10.25,2.55-31.36,10.23-35.78,33.96-1.74,9.37-.73,29.83,4.86,40.96-13.9,9.46-39.6,46.27-13.8,82.76-15.81,18.75-11.01,47.47,28.8,44.03,14.02-1.21,29.76-24.74,11.6-39.36-1.61-.77,3.83-4.94,4.46-9.22.66-4.51-3.38-9.14.04-10.02,24.59-6.34,20.55-40.18,11.47-52.59-2.49-3.41-11.89-16.05-11.89-16.05,0,0-4.99-27.11,1.06-64M509.87,94.45c-16.05-23.29-116.07,32.12-84.67,29.69,6.45-.77,21.61,1.02,21.61,1.02,28.52-10.51,28.35,10.58,42.17,15.52,7.81,2.8,25.73-5.54,25.73-5.54,0,0-1.46,14.67,10.1,10.32,6.72-2.54,10.53-7.82,10.53-7.82,0,0-16.9,2.32-9.03-16.17,0,0-17.22,3.14-24.08,5.79-9.23,3.55,12.03-23.31,7.65-32.81"/><path d="M527.22,208.72c.53-.81.21-2.13-.96-3.95-1.17-1.82-3.6-3.48-7.3-4.99-4.56-.95-9.18-1-13.85-.17,1.3,1.47,4.79,2.3,10.45,2.47,3.6,6.39,6.78,9.11,9.55,8.15.16-.04.31-.08.47-.12.57-.17,1.11-.63,1.64-1.39M438.4,164.3c-2.41.03-2.68-1.13-.83-3.48-5.43,4.45-11.06,6.12-16.88,5.02,5.91,3.76,11.81,3.25,17.71-1.53M415.98,153.33c1.93,1.13,4.23,1.98,6.93,2.57,2.67.55,6.45.47,11.35-.24,2-1.14,1.8-2.08-.6-2.81-4.5,1.16-12.21-.28-23.13-4.31,1.71,2.13,3.53,3.73,5.46,4.8M413.72,158.92c2.57,1.57,6.18,2.7,10.84,3.39,4.63.65,8.55-.31,11.77-2.88-1.13-.45-1.3-1.22-.53-2.3-2.74,1.66-6.53,2.33-11.39,2.02-3.71-.29-7.69-.84-11.97-1.66.02.06.04.14.06.24.13.41.54.81,1.22,1.2M417.37,105.47v-.77c-.05.21-.07.4-.07.58,0,.06.01.12.07.19M405.26,94.89c.02-.42.05-.77.09-1.04-.12-.23-.23-.47-.32-.73.08.59.15,1.18.23,1.76M540.85,143.62c-.05.04-.12.08-.2.11.05,0,.11.01.18.02,0-.06.01-.1.02-.13M454.8,118.9l-.04-.05v.04s.04,0,.04,0Z"/><path d="M452.37,153.41c-3.21-9.13-5.4-12.27-6.58-9.4,2.36,7.33,4.12,14.1,5.27,20.3,1.15,6.21.69,9.33-1.37,9.35-3.42.39-8.74-7.83-15.98-24.65-1.38-1.92-1.92-1.77-1.63.44,2.37,11.98,6.2,20.97,11.49,26.97,3.99,3.74,7.7,3.93,11.12.59,1.97-2.36,2.22-6.85.74-13.47-.67-3.05-1.7-6.43-3.07-10.14"/><path d="M436.4,96.86c.05.15.25.3.61.47,2.99,1.22,6.02,1.32,9.08.31,1.01-.38,2.09-.88,3.22-1.52,1.48-.8,2.63-1.55,3.45-2.23.88-.69,1.93-1.74,3.15-3.15.63-.75,1.13-1.44,1.51-2.07.41-.79.7-1.52.85-2.21.12-.44.08-.79-.14-1.03-.21-.25-.5-.32-.85-.21-.29.13-.55.3-.8.52-.63.54-1.55,1.48-2.78,2.83-1.17,1.31-2.12,2.26-2.87,2.84-.8.62-1.97,1.36-3.5,2.2-1.08.6-1.85.99-2.31,1.17-.84.35-1.82.64-2.95.84-1.36.27-2.81.39-4.34.34-.43,0-.74.04-.94.12-.37.17-.51.43-.4.78M460.82,69.82c-.32.32-.97,1.07-1.94,2.26-2.15,2.63-4.37,4.5-6.65,5.62-3,1.46-5.82,1.65-8.46.57-.44.15-.56.48-.37,1.01.1.26.38.54.84.85,2.2,1.42,4.76,1.69,7.68.82,2.28-.7,4.53-2.1,6.75-4.22,3.09-2.9,4.58-5.79,4.47-8.67-.77.38-1.55.96-2.32,1.77M449.99,63.07c-.77-.11-1.26,0-1.46.33-.26.37-.19.73.19,1.07.24.24.6.41,1.07.5,3.18.62,6.71-.58,10.58-3.58,2.54-1.98,3.74-3.95,3.6-5.91-.87.54-1.97,1.35-3.29,2.44-1.56,1.3-2.61,2.14-3.14,2.51-2.69,1.97-5.21,2.85-7.55,2.64"/><path d="M425.8,117.24c2.55-.73,5.1-1.81,7.65-3.24,14.3-38.45,22.7-60.94,25.23-67.45,2.38,12.99-1.23,33.42-10.83,61.31,1.9-.83,3.31.22,5.93-.95,11.82-36.94,13.74-62.07,4.07-71.3l-32.04,81.62Z"/><path d="M387.18,206.93c.12,1.33.15.95.24,2.26,15.24,21.95,21.28,37.14,19.65,47.79-.71,8.88-5.84,15.76-15.4,20.62-1.36-10.82-4.81-16.2-10.36-16.14-5.48.06-8.24,2.95-8.26,8.67-.16,5.55,4.46,9.07,13.85,10.57,2.73,7.71,2.31,13.04-1.26,15.99-5.81-4.78-10.82-5.44-15.03-1.96-.62.56-1.11,1.21-1.48,1.96-.68,1.28-.92,2.56-.72,3.83.13.65.34,1.24.64,1.77.08.13.16.28.26.44,3.88,4.9,9.06,4.8,15.55-.3,7.8,5.4,9.39,12.52,4.76,21.36-6.16,9.44-15.24,13.19-27.25,11.27-12.32-3.57-19.4-9.71-21.25-18.4-1.34-8.14,1.47-15.13,8.42-20.96-9.4-23.64-11.88-42.02-7.44-55.14,2.1-8.86,9.39-17.9,21.88-27.14-9.18-21.33-9.51-39.26-1-53.78,5.75-10.77,21.48-21.13,47.2-31.08,1.23-2.28,1.24-3.66.03-4.15-31.13,10.21-50.02,22.35-56.64,36.41-5.81,11-4.49,27.71,3.98,50.14-13.71,8.75-22.35,21.08-25.92,36.98-1.84,10.9,2.04,26.42,11.64,46.55-10.25,7.18-12.91,17.3-7.97,30.37,4.77,10.52,14.43,16.65,28.96,18.37,10.09,1.01,19.39-2.66,27.91-11,3.45-3.73,5.8-7.85,7.05-12.38,2.29-7.43-.65-14.5-8.8-21.19,5.42-3.39,6.18-8.64,2.28-15.77,9.47-3.66,16.01-8.93,19.62-15.8,4.03-9.22,3.3-20.2-2.2-32.94-4.76-11.02-12.04-19.99-23.14-28.99M384.35,275.71c-5.77-2.71-7.8-5.51-6.09-8.39,2.49-1.42,4.59-.8,6.29,1.85,1.65,2.58,2.53,5.22,2.64,7.91-.83-.44-1.77-.89-2.84-1.37M372.64,298.91c.52-3.13,3.67-3.15,9.45-.07-4.63,3.18-7.78,3.21-9.45.07"/><path d="M513.12,91.92c-1.48-2.47-4.28-4.27-8.39-5.4-4.01-1-9.52-1.18-16.54-.55-19.46,1.63-42.67,12.57-69.64,32.83l-.17,4.54c.76-.45,1.53-.9,2.32-1.35.94,0,9.24.43,24.88,1.3,15.64.87,25.06,1.99,27.43,6.36,8.04,14.88,19.94,20.25,39.64,7.92-.3,7.41,3.15,10.98,10.36,10.72,6.33-.26,11.9-4.72,16.71-13.38-10.23,2.01-14.74,1.26-13.53-2.27,1.11-3.48,1.89-6.48,2.33-9.01.38-2.51-.31-4.04-2.06-4.6-2.16-1.19-6.63-.45-13.42,2.21-6.5,2.55-9.96,3.84-10.39,3.88-1.13,0,.59-4.4,5.15-13.21l3.87-7.45c2.46-5.92,2.94-10.1,1.46-12.54M506.33,93.98c.06.04.14.12.24.26,1.74,1.41.55,6.82-3.57,16.24-4.17,9.35-5.97,15.35-5.39,17.97.58,2.6,3.44,2.83,8.58.68l4.05-1.68c2.08-.8,3.53-1.34,4.36-1.63,1.66-.61,3.12-1,4.39-1.18,1.21-.18,2.35-.22,3.44-.11,1.05.1,1.14,1.83.25,5.19-2.71,7.68.54,10.96,9.75,9.82-3.41,2.39-6.62,3.7-9.62,3.93-2.97.2-4.91-1.35-5.79-4.66-.39-2.12-.52-5.11-.38-6.98-20.24,9.59-33.9,7.49-38.98-6.29-2.34-5.81-24.5-10.22-56.15-4.08,43.92-26.07,72.2-35.23,84.84-27.48"/><path d="M393.74,74.99s-.05.05-.06.08c9.58,25.55,8.01,49.97-4.71,73.26l.04.05c-4.5,10.21-5.18,29.13-2.02,56.77.39.32.71.61.99.86,1.91,1.73,3.87,3.9,5.88,6.5.62.81,1.45,1.95,2.48,3.42l.05-.04c-3.18-37.2-3.73-58.24-1.64-63.12.75-2.09,1.7-4.26,2.83-6.48,2.67-5.44,4.97-10.98,6.91-16.64v-.04s.35-1.6.35-1.6l-.05.04c4.3-12.29,3.58-27.42-2.16-45.39,8.98,9.48,11.44,24.81,7.37,46.01,0,.03,0,.06-.01.09h.09s.06.02.09.02c29.27-2.77,48.14,1.85,56.63,13.87l16.3,26.8v.05c3.74,5.46,6.82,9.95,9.23,13.45v.05s.06-.04.09-.03c10.94.51,20.13,1.68,27.56,3.51,14.61,3.99,22.58,10.43,23.91,19.33v.04c.82,3.06.31,5.54-1.55,7.47-1.89,1.95-5.09,3.34-9.61,4.16-15.63,2.82-30.63-2.27-45-15.26h-.05c-.09-.05-.12-.05-.09-.02-.03,0-.06.02-.1.08-.03.03-.04.06-.01.09.05.28.17.58.34.91,2.82,5.83,7.74,11.48,14.77,16.93,1.22.92,2.29,1.64,3.19,2.18h.04c7.76,4.04,15.98,5.13,24.67,3.28-3.72,6.74-7.92,10.41-12.63,11.03-4.8.67-10.1-1.77-15.9-7.32-5.84-5.94-12.05-9.04-18.61-9.3-6.56-.32-15.89.09-27.99,1.23-12.12,1.1-24.33-3.23-36.62-13.01h-.04c-.06-.01-.09,0-.1.03-.06.02-.08.05-.06.08,0,.03,0,.06.03.1,9.4,14.79,21.68,22,36.85,21.61,3.97-.13,10.42-.51,19.35-1.14,8.84-.64,15.39,1.09,19.64,5.19,4.28,4.1,7.41,6.86,9.4,8.27,9.52,6.23,18.05,5.11,25.61-3.36,2.86-3.35,4.88-7.67,6.07-12.96,9.75-2.99,15.24-7.89,16.47-14.69v-.04c.61-6.4-.84-12.56-4.35-18.48-6.92-10.61-24.3-16.58-52.15-17.9l-22.21-36.63c-7.98-12.54-25.97-18.1-53.95-16.67,7.41-16.36,5.94-29.22-4.4-38.56-6.72-5.48-13.75-8.23-21.08-8.25-.06.02-.1.05-.1.08-.03,0-.03.01,0,.05M414.82,122.61c3-16.44.17-29.75-8.51-39.95,12.14,9.3,14.97,22.62,8.51,39.95"/><path class="cls-15" d="M412.35,109.54c-10.03,4.7-28.9,19.4-28.72,29.94,0,0,8.79-4.44,12.01-6.92,15.24-10.05,40.88-3.14,57.54-10.04,18.73-19.03-29.57-20.17-40.84-12.98"/><path class="cls-2" d="M438.58,112.05c-4.98,1.18-8.45,3.76-10.64,6.42-2.29,2.53-4.63,9.47.85,9.28,1.35-.04,4.03-.3,3.22-1.72-8.86,1.1-1.39-7.1,3.01-8.88,6.18-2.51,16.84-4.31,24.19.36-6.49-7.74-15.43-6.18-20.63-5.46"/><path class="cls-2" d="M435.72,106.13c-3.09.58-5.9,1.18-8.41,1.81-2.88.72-5.74,2.43-8.59,5.15-2.85,2.71-4.82,5.52-5.92,8.41-.73,2.01-1.2,3.68-1.42,5.01l3.91-.44c3.3-8.33,8.38-14.19,15.26-17.59,1.94-.95,3.67-1.74,5.18-2.35"/><path d="M430.72,108c-.6-.4-1.25-.73-1.94-.99-.7-.24-1.79-.46-3.28-.66-1.35-.18-2.61-.34-3.79-.48l-.86.35c10.15,5.51,14.03,11.52,11.63,18.04l-.5.46c-.2.19-.35.38-.45.57-.12.22-.17.46-.13.72.02.15.07.27.13.35,0,.35.11.57.34.66.66,0,1.28-.45,1.85-1.34.12-.18.23-.37.33-.57.28-.23.55-.49.8-.79.83-.98,1.43-2.11,1.81-3.36.69-2.49.43-4.97-.78-7.46-1.07-2.18-2.79-4.01-5.18-5.5M430.6,105.9c-.55.18-.77.44-.68.78.04.24.23.4.58.49.72.26,1.68.43,2.88.52,1.7.09,2.66.16,2.9.2.13.02,1.28.29,3.44.81,1.63.46,2.57.73,2.81.8,1.02.38,2.2,1.42,3.53,3.11,1.37,1.72,1.83,4.53,1.37,8.43-.22,2.03-.51,3.44-.86,4.24.23-.2.45-.44.64-.7.1-.13.2-.28.3-.45.08-.12.15-.26.22-.41.24-.37.48-.81.74-1.34.58-1.29.9-2.01.94-2.14.55-1.53.79-3.08.72-4.67-.04-1.08-.22-2.09-.52-3.03-.42-1.3-1.12-2.47-2.08-3.48-.99-1.04-2.12-1.82-3.38-2.32-.54-.22-1.62-.5-3.25-.86-2.18-.44-3.93-.69-5.22-.74-1.93-.08-3.63.17-5.08.76"/><path d="M439.97,101.28c-2.71-.18-6.9.07-12.58.75-5.68.71-10.88,2.04-15.61,4-.49.2-.95.38-1.37.53-10.77,4.72-19.4,12.5-25.89,23.33-6.46,10.85-9.71,16.19-9.74,16.01-3.32,1.94-2.91,1.71,1.24-.68,4.15-2.39,11.54-5.49,22.18-9.3,10.66-3.79,19.47-5.85,26.43-6.19,6.96-.31,12.04-.57,15.23-.78,3.22-.18,5.86-.57,7.92-1.15,2.59-.71,4.84-1.8,6.77-3.25,2.15-1.59,3.69-3.49,4.6-5.7.07.03.14.05.2.07.33-.99.53-1.74.58-2.24.07-.77.03-1.64-.15-2.61-.27-1.58-.81-3.22-1.63-4.93-.57-.72-1.19-1.42-1.87-2.11-2.21-2.21-4.8-3.68-7.79-4.4-2.98-.73-5.83-1.18-8.54-1.36M439.32,106.94c2.83.18,6.2.96,10.09,2.36,2.2.81,3.65,1.74,4.36,2.8.56.82.83,1.78.79,2.86,0,1.06-.29,2.03-.83,2.93-.89,1.54-2.44,2.81-4.64,3.8-2.08.9-5.13,1.54-9.16,1.92-6.54-.26-12.56-.09-18.06.5-5.47.61-11.32,1.77-17.54,3.49-6.22,1.73-12.45,4.56-18.68,8.49,4.56-6.71,9.69-12.34,15.37-16.88,6.35-5.07,13.03-8.45,20.04-10.13,2.23-.54,5.65-1.09,10.28-1.65,3.55-.41,6.21-.57,7.99-.48"/><path class="cls-9" d="M413.8,123.52c-.17-.83-.26-1.76-.28-2.79-.27,1.22-.31,2.17-.13,2.85.16.56.47,1,.91,1.34-.17-.34-.33-.81-.5-1.39M417.82,97.52c.15.68.29,1.39.42,2.14.39,1.59.63,2.6.71,3.01.17,1.07.25,2.25.24,3.53.07,3.98-.24,7.87-.93,11.67l-.16,3.63c1.44-5.45,2-11.07,1.67-16.83-.1-1.69-.27-3.13-.52-4.31-.45-2.04-1.17-3.91-2.15-5.61.27.88.51,1.8.73,2.78M409.1,91.59c.36.65,1.02,1.52,1.99,2.61.64.74,1.15,1.37,1.53,1.9.18.25.34.47.45.67.12.23.24.47.37.73-.22-.73-.45-1.45-.69-2.15-.99-1.51-2.09-3.18-3.3-5-.49-.76-.96-1.41-1.4-1.96.01.09.02.18.04.27.32,1.3.66,2.27,1.02,2.92M407.2,81.34c.43,0,.9.17,1.43.5-.87-.59-1.79-.89-2.77-.91-.24,0-.45.04-.62.13-.17.08-.29.19-.37.32-.15.23-.05.63.29,1.19.15.19.29.39.44.58.03-.03.05-.05.08-.06-.11-.41-.08-.76.09-1.06.24-.49.71-.72,1.41-.69M414.26,88.5c-.11-.14-.22-.28-.33-.41.29.57.6,1.18.93,1.84v.09c0-.52-.2-1.02-.6-1.52"/><path class="cls-7" d="M413.57,119.57c2.7-9.98-2.14-28.2-4.79-30.19-1.71-.92-1-4.86-3.17-6.23.69.44-8-4.67-7.08-5.04l6.96,33.99c.65,22.45-17.17,24.86,5.04,32.43,20.68-4.94,38.59-5.87,53.72-2.77,6.11-18.99-51.71-16.16-51.71-16.16l1.02-6.03Z"/><path class="cls-10" d="M413.07,85.09c-2.38-3.68-10.08-5.11-10.08-5.11,2.44,2.99,7.51,11.41,8.75,15.38,1.54,4.94,4.93,26.78.51,31.66,8.55-9.46,11.3-27.67.82-41.94"/><path d="M393.72,74.99s-.04.07-.03.1c9.6,25.55,8.03,49.97-4.69,73.28v.04c-3.54,7.98-4.51,15.98-2.91,23.98l7.49-.99c-1.37-7.4-.98-13.61,1.15-18.64.76-2.11,1.7-4.27,2.84-6.49,2.69-5.43,5.01-10.97,6.94-16.61v-.05s.33-1.64.33-1.64l-.04.05c4.26-12.27,3.53-27.41-2.18-45.4,8.98,9.5,11.44,24.83,7.37,46,0,.03,0,.06.01.09,0,.03.02.06.06.08h.09c29.3-2.8,48.18,1.84,56.65,13.9v-.05s10.72,17.71,10.72,17.71l8.39-1.1-12.66-20.93c-7.98-12.52-25.96-18.08-53.95-16.68,7.41-16.34,5.96-29.19-4.34-38.55-6.75-5.47-13.78-8.21-21.12-8.22-.06,0-.09.03-.08.06-.03,0-.04.02-.04.05M414.82,122.65c3.01-16.46.16-29.8-8.55-40,12.15,9.33,15,22.66,8.55,40"/></g></g></g></g></svg>