<svg width="572" height="320" viewBox="0 0 572 320" fill="none" xmlns="http://www.w3.org/2000/svg">
<path d="M532.804 43.5258L532.738 42.2658L532.624 37.6603L532.607 37.3453L532.568 35.389C530.679 15.4369 521.283 4.7467 504.379 3.31835C273.421 18.6778 115.978 28.2103 32.0506 31.9284L31.9942 32.0577C25.3651 31.5578 19.5395 32.1782 14.5424 33.9177C6.58351 37.2018 2.34688 44.309 1.83256 55.2394C0.979914 63.0794 2.92579 70.5963 7.68345 77.8018C13.245 86.8605 21.7955 90.545 33.3217 88.8432L45.754 86.3612L51.2655 177.294C51.5881 184.188 51.9339 190.803 52.303 197.139L52.3063 197.202C53.7826 223.025 56.0936 249.841 59.2259 277.637C60.1075 283.15 61.3511 288.101 62.9686 292.476L65.1965 298.866C67.4301 303.677 70.3414 307.442 73.9302 310.16C79.6761 314.534 90.7473 316.204 107.145 315.183C140.655 311.372 176.981 307.577 216.136 303.799C294.017 296.228 350.796 291.958 386.474 290.977C392.361 290.796 411.529 290.135 444.004 288.98C473.327 287.915 492.497 287.292 501.54 287.109L549.149 286.137C551.546 286.1 557.539 286.014 567.127 285.892C571.839 259.366 569.897 238.646 561.289 223.72C553.095 224.691 545.894 225.56 539.709 226.301C538.606 212.461 537.709 198.193 537.028 183.484L536.807 179.263C536.173 165.436 535.562 151.343 534.975 136.97L532.951 51.162C532.905 50.28 532.886 49.4345 532.882 48.6387L532.872 48.4497C532.85 46.8084 532.827 45.1671 532.804 43.5258ZM499.65 15.5051C512.967 14.9731 520.468 22.9702 522.176 39.4699C523.214 76.2197 524.252 112.982 525.29 149.732L525.164 149.739L526.616 178.722C527.548 195.818 528.586 212.062 529.732 227.454C529.19 227.482 524.682 227.945 516.233 228.855C502.418 230.247 482.089 232.131 455.233 234.507C416.024 237.985 381.452 240.803 351.517 242.962C321.617 245.069 284.446 246.469 240.003 247.15C195.596 247.791 162.206 247.869 139.835 247.396C117.501 246.921 101.685 246.257 92.3856 245.391C83.716 251.745 79.0012 260.33 78.2662 271.146C77.5671 281.921 80.8566 290.025 88.1224 295.457C90.4526 296.561 92.9069 297.14 95.474 297.22C102.299 297.369 108.729 296.717 114.751 295.265C112.092 301.633 105.43 305.329 94.7522 306.355C90.5595 306.574 86.9011 305.906 83.7891 304.338C75.1922 298.559 70.1341 285.848 68.6028 266.218L55.3135 84.4717C54.1331 68.1718 51.6505 56.4253 47.853 49.2327C46.4331 46.4641 44.7374 44.2154 42.7659 42.4865C120.702 35.9736 272.996 26.9756 499.65 15.5051ZM9.93453 62.9019C9.38826 57.2829 10.3102 52.4588 12.7123 48.4166C15.1521 44.3724 18.9552 42.2531 24.122 42.0714L24.2479 42.0648C30.2512 43.3935 35.0153 47.099 38.5281 53.1946L23.3361 54.8101C16.9913 58.3004 15.6891 65.0268 19.4035 74.9781C23.07 75.077 26.1289 74.9044 28.5915 74.4346C24.5853 79.9126 20.4288 80.8248 16.1094 77.1718C12.4435 72.9793 10.3768 68.2231 9.93453 62.9019ZM29.9648 69.309C28.6614 69.2508 26.4122 69.4568 23.2419 69.9132C21.5673 63.7214 21.9665 60.7314 24.4143 60.9446C26.8641 61.1956 28.714 63.9795 29.9648 69.309ZM33.4599 60.0927C34.5507 59.9472 37.1312 59.5596 41.2267 58.9286C43.0806 63.7211 44.3942 69.5275 45.1674 76.3475L45.2991 78.8675L33.0491 81.2136C38.2305 74.7898 38.3678 67.7579 33.4599 60.0927ZM200.082 296.173L199.516 296.203L164.354 299.81C163.976 299.83 163.625 299.874 163.287 299.929L153.052 300.97C152.888 300.978 152.713 301.013 152.551 301.059L125.431 303.93C124.841 303.998 124.265 304.079 123.675 304.148L119.281 304.63C118.866 304.652 118.489 304.697 118.151 304.753L117.585 304.782C122.906 297.896 125.429 289.88 125.166 280.759C124.942 271.636 122.216 263.453 117.003 256.233C130.141 257.1 159.92 257.274 206.353 256.742C264.774 256.088 315.745 254.22 359.268 251.148L359.646 251.128C360.903 251.025 362.324 250.925 363.923 250.842L371.216 250.271C371.755 250.205 372.321 250.15 372.912 250.119L373.227 250.103L375.427 249.924C376.974 249.806 378.608 249.67 380.331 249.542C414.19 246.849 463.66 242.823 528.741 237.487C532.852 237.146 537.038 236.801 541.312 236.451L555.957 235.243C560.224 248.501 561.08 261.988 558.516 275.729C557.469 275.746 553.701 275.879 547.237 276.129C523.127 276.922 461.634 279.177 362.757 282.868C329.716 284.305 279.778 288.305 212.955 294.869L200.082 296.173ZM112.938 267.817C115.785 273.985 116.823 281.031 116.062 288.942C114.803 289.008 110.936 289.172 104.472 289.422C108.121 282.661 108.391 275.509 105.307 267.963C107.288 267.948 109.823 267.891 112.938 267.817ZM86.7839 284.345C85.55 282.477 84.7097 280.411 84.2512 278.161C83.6888 275.372 83.6996 272.441 84.297 269.377C86.3157 262.108 89.6106 257.514 94.1816 255.594C100.996 253.848 106.544 256.123 110.826 262.431C108.272 262.603 104.222 262.903 98.6886 263.318C93.2606 265.75 90.7945 271.223 91.2782 279.752C96.233 279.619 99.6391 279.567 101.497 279.596C101.293 281.249 100.892 283.001 100.319 284.838C99.2508 287.838 97.8772 289.577 96.1721 290.045C94.8049 290.458 93.2338 290.111 91.4476 289.029C89.621 287.899 88.0622 286.338 86.7839 284.345ZM95.5968 275.42C96.3051 271.34 97.6101 268.77 99.4857 267.699C101.287 270.763 101.989 273.317 101.591 275.359L95.5968 275.42Z" fill="#63594F"/>
<path d="M99.4854 267.699C97.6097 268.77 96.3048 271.339 95.5965 275.42L101.59 275.359C101.989 273.317 101.287 270.763 99.4854 267.699ZM84.2509 278.161C84.7094 280.411 85.5497 282.477 86.7836 284.345C88.0619 286.338 89.6207 287.899 91.4473 289.029C93.2335 290.111 94.8046 290.458 96.1718 290.045C97.8769 289.577 99.2505 287.838 100.318 284.838C100.891 283.001 101.292 281.249 101.496 279.596C99.6388 279.567 96.2327 279.619 91.2779 279.751C90.7942 271.223 93.2603 265.75 98.6883 263.318C104.222 262.903 108.271 262.603 110.825 262.431C106.544 256.123 100.996 253.848 94.1813 255.594C89.6103 257.514 86.3154 262.108 84.2967 269.377C83.6993 272.441 83.6885 275.372 84.2509 278.161ZM23.2416 69.9131C26.4119 69.4568 28.6611 69.2507 29.9645 69.3089C28.7137 63.9794 26.8638 61.1955 24.414 60.9446C21.9662 60.7314 21.567 63.7214 23.2416 69.9131ZM12.712 48.4165C10.3099 52.4588 9.38795 57.2828 9.93422 62.9018C10.3765 68.2231 12.4432 72.9793 16.1091 77.1718C20.4285 80.8247 24.585 79.9125 28.5912 74.4345C26.1286 74.9044 23.0697 75.0769 19.4032 74.978C15.6888 65.0268 16.991 58.3004 23.3358 54.8101L38.5278 53.1946C35.015 47.0989 30.2509 43.3934 24.2476 42.0648L24.1217 42.0714C18.9549 42.2531 15.1518 44.3723 12.712 48.4165Z" fill="#8D877F"/>
<path d="M116.062 288.942C116.822 281.031 115.785 273.985 112.937 267.817C109.823 267.891 107.288 267.948 105.307 267.963C108.39 275.509 108.121 282.661 104.472 289.422C110.935 289.172 114.803 289.008 116.062 288.942Z" fill="#BAB0A5"/>
<path d="M199.515 296.203L200.082 296.173L212.954 294.869C279.777 288.305 329.716 284.304 362.756 282.868C461.633 279.177 523.126 276.922 547.237 276.129C553.701 275.879 557.469 275.746 558.516 275.729C561.08 261.987 560.223 248.501 555.957 235.243L541.312 236.451C537.038 236.801 532.852 237.146 528.741 237.487C463.659 242.823 414.189 246.849 380.331 249.542C378.608 249.67 376.973 249.806 375.427 249.924L373.227 250.103L372.912 250.119C372.32 250.15 371.755 250.205 371.215 250.271L363.923 250.842C362.324 250.925 360.902 251.025 359.645 251.128L359.267 251.148C315.745 254.22 264.773 256.088 206.353 256.742C159.92 257.274 130.141 257.1 117.003 256.233C122.216 263.453 124.942 271.636 125.166 280.759C125.428 289.88 122.906 297.896 117.584 304.782L118.151 304.753C118.489 304.697 118.865 304.652 119.281 304.63L123.674 304.148C124.264 304.079 124.841 303.998 125.43 303.93L152.551 301.059C152.713 301.013 152.888 300.978 153.051 300.97L163.286 299.929C163.624 299.874 163.976 299.83 164.353 299.81L199.515 296.203ZM522.176 39.4698C520.468 22.9702 512.967 14.9731 499.65 15.505C272.996 26.9755 120.701 35.9735 42.7655 42.4864C44.737 44.2154 46.4327 46.4641 47.8526 49.2326C51.6501 56.4252 54.1327 68.1718 55.3131 84.4716L68.6024 266.218C70.1337 285.847 75.1918 298.559 83.7887 304.338C86.9007 305.906 90.559 306.574 94.7518 306.355C105.43 305.329 112.092 301.633 114.751 295.265C108.729 296.717 102.299 297.369 95.4736 297.22C92.9065 297.14 90.4522 296.561 88.1219 295.457C80.8562 290.025 77.5666 281.921 78.2658 271.145C79.0007 260.33 83.7156 251.745 92.3852 245.391C101.685 246.257 117.501 246.921 139.835 247.396C162.206 247.869 195.595 247.791 240.003 247.149C284.446 246.468 321.617 245.068 351.517 242.962C381.452 240.803 416.024 237.985 455.233 234.507C482.089 232.131 502.418 230.247 516.232 228.855C524.682 227.945 529.19 227.482 529.731 227.454C528.586 212.062 527.547 195.818 526.616 178.722L525.163 149.738L525.289 149.732C524.252 112.982 523.214 76.2196 522.176 39.4698Z" fill="#E4E1D5"/>
<path d="M41.2264 58.9284C37.1309 59.5595 34.5504 59.9471 33.4596 60.0925C38.3675 67.7577 38.2302 74.7896 33.0488 81.2135L45.2988 78.8674L45.1671 76.3474C44.3939 69.5273 43.0803 63.721 41.2264 58.9284Z" fill="#BAB0A5"/>
</svg>
