<svg width="657" height="206" viewBox="0 0 657 206" fill="none" xmlns="http://www.w3.org/2000/svg">
<path d="M638.307 3.07123C634.342 1.23124 630.156 0.207491 625.735 0.0276423C621.314 -0.152206 616.989 0.511849 612.748 2.03364C608.506 3.51393 604.831 5.67211 601.695 8.53585C598.973 11.0261 596.832 13.8898 595.271 17.1132H61.9091C60.2926 13.8898 58.1511 11.0261 55.4847 8.53585C52.307 5.67211 48.6044 3.51393 44.3629 2.03364C40.1214 0.511849 35.8109 -0.152206 31.4451 0.0276423C27.024 0.207491 22.8101 1.23124 18.8035 3.07123C14.7555 4.91121 11.3844 7.38758 8.71795 10.4727C6.27254 13.2396 4.43502 16.3523 3.1916 19.8109C0.608027 25.9396 -0.400532 31.8469 0.152103 37.5191C0.704738 44.1181 3.35739 50.4266 8.09623 56.4723L7.68175 145.497C1.96198 155.278 -0.53869 164.686 0.152103 173.72C0.469868 177.911 1.49224 182.048 3.1916 186.101C4.43502 189.56 6.27254 192.673 8.71795 195.44C11.3844 198.525 14.7555 201.001 18.8035 202.841C22.8101 204.681 27.024 205.705 31.4451 205.885C35.8247 206.065 40.1214 205.428 44.3629 203.948C48.6044 202.426 52.307 200.254 55.4847 197.446C58.1511 194.955 60.2926 192.078 61.9091 188.799H595.271C596.832 192.078 598.973 194.955 601.695 197.446C604.831 200.254 608.506 202.426 612.748 203.948C616.989 205.428 621.314 206.065 625.735 205.885C630.156 205.705 634.342 204.681 638.307 202.841C642.411 201.001 645.768 198.525 648.393 195.44C650.838 192.673 652.676 189.56 653.919 186.101C655.48 182.408 656.434 178.741 656.751 175.103C657.58 166.069 654.707 157.118 648.116 148.264L647.702 57.8558C653.187 51.0354 656.24 44.0628 656.89 36.9657C657.345 31.3351 656.365 25.6214 653.919 19.8109C652.676 16.3523 650.838 13.2396 648.393 10.4727C645.768 7.38758 642.411 4.91121 638.307 3.07123ZM645.63 23.4771C645.768 23.7953 645.878 24.1273 645.975 24.4455C649.802 34.4063 647.743 44.1873 639.827 53.7746V153.037C647.743 161.85 649.802 171.34 645.975 181.536C645.878 181.813 645.768 182.117 645.63 182.435C644.483 185.244 642.01 187.997 638.238 190.667C636.857 191.594 635.585 192.327 634.439 192.88C618.592 197.542 607.498 193.198 601.143 179.876C599.526 179.738 508.687 179.668 328.624 179.668C248.631 179.668 186.252 179.696 141.488 179.737C85.396 179.737 56.8939 179.779 55.9682 179.876C49.6129 193.198 38.5326 197.542 22.7411 192.88C21.5391 192.327 20.2542 191.594 18.8726 190.667C15.1009 187.997 12.6278 185.244 11.4811 182.435C11.3844 182.117 11.3015 181.813 11.2048 181.536C7.57123 171.99 9.10479 163.039 15.8331 154.697V51.9069C9.16005 42.9145 7.61267 33.7561 11.2048 24.4455C11.3015 24.1273 11.3844 23.7953 11.4811 23.4771C12.6278 20.7102 15.1009 17.971 18.8726 15.2456C20.2542 14.3187 21.5391 13.5854 22.7411 13.0321C38.5326 8.36983 49.6129 12.7139 55.9682 26.0365C56.8939 26.1333 85.396 26.1748 141.488 26.1748C186.252 26.2163 248.631 26.244 328.624 26.244C508.687 26.244 599.526 26.1748 601.143 26.0365C607.498 12.7139 618.592 8.36983 634.439 13.0321C635.585 13.5854 636.857 14.3187 638.238 15.2456C642.01 17.971 644.483 20.7102 645.63 23.4771ZM26.1259 153.798C24.3299 154.531 22.7134 155.555 21.2904 156.841C18.2509 159.608 16.6621 162.998 16.5239 167.01C17.118 172.917 19.8674 175.961 24.7444 176.141C23.6391 181.439 22.9207 185.368 22.6029 187.9L44.7083 186.793C44.1142 184.068 43.1885 180.319 41.9451 175.518C49.309 173.346 51.409 168.435 48.2313 160.784C45.0122 153.037 37.6346 150.713 26.1259 153.798ZM38.4911 157.464C42.0833 158.391 44.1971 160.826 44.8465 164.796C45.3991 168.808 43.0228 171.81 37.7313 173.789C37.8694 175.214 38.5188 178.52 39.6655 183.68L36.7642 183.819L36.4879 181.882C36.253 180.402 35.9767 179.226 35.6589 178.354C35.4793 177.842 35.1339 177.109 34.6227 176.141C34.4431 175.822 34.3049 175.546 34.2082 175.31C34.1668 175.352 34.1115 175.407 34.0701 175.449C33.9319 175.629 33.8214 175.975 33.7247 176.486V179.737C33.8628 181.398 33.9734 182.781 34.0701 183.888H31.9286C32.0668 181.356 32.1635 178.949 32.2049 176.694C32.2049 176.099 31.9977 175.698 31.5832 175.518H31.2378C30.9201 176.251 30.6575 177.067 30.4779 177.939C30.4365 178.396 30.3812 179.073 30.3398 179.945L30.2016 182.366C30.1602 182.919 30.1325 183.445 30.1325 183.957L26.8167 184.026C27.7838 179.046 28.5437 175.241 29.0964 172.613C23.3904 172.931 20.7654 170.842 21.2213 166.318C21.6772 161.753 23.7772 158.917 27.5075 157.81C31.2378 156.662 34.899 156.537 38.4911 157.464ZM25.297 164.035C24.7444 164.547 24.3713 165.114 24.1917 165.765C23.9569 166.498 24.0121 167.148 24.3299 167.702C24.7858 168.435 25.6148 168.988 26.8167 169.362C27.7838 169.638 28.6404 169.708 29.3727 169.569C30.1049 169.472 30.7543 169.085 31.3069 168.393C31.7628 167.84 32.0253 167.176 32.0668 166.387C32.1082 165.654 31.9286 164.976 31.5141 164.381C31.0997 163.786 30.5056 163.371 29.7181 163.136C28.9306 162.818 28.1569 162.749 27.3694 162.929C26.5404 163.108 25.8496 163.482 25.297 164.035ZM40.08 163.205C39.5688 163.025 38.6984 162.97 37.455 163.067C36.3911 163.164 35.6589 163.302 35.2444 163.482C34.6503 163.759 34.2359 164.201 34.001 164.796C33.7247 165.391 33.628 166 33.7247 166.595C33.8628 167.66 34.3464 168.435 35.1753 168.947C35.8247 169.32 36.6536 169.431 37.6622 169.292C38.8642 169.154 39.8451 168.781 40.6326 168.186C41.503 167.397 41.9037 166.498 41.807 165.488C41.807 164.976 41.6274 164.52 41.2543 164.105C40.978 163.69 40.5912 163.385 40.08 163.205ZM34.1391 60.6227C28.7924 57.8143 24.3713 58.3123 20.8759 62.1444C18.1127 67.0834 19.9503 71.6211 26.4023 75.7714L26.5404 132.769C20.9174 135.024 18.6239 138.345 19.6325 142.73C20.2266 145.359 21.4285 147.254 23.2246 148.402C26.9963 150.989 30.4503 150.27 33.5865 146.258C36.8609 149.62 40.453 150.367 44.3629 148.472C48.6873 145.151 49.4057 141.001 46.5044 136.021C45.3576 134.402 43.4925 133.295 40.9089 132.7L40.7017 75.1489C42.6774 74.5955 44.2524 73.8346 45.3991 72.8662C46.9188 71.206 47.7478 69.449 47.8859 67.6091C48.0241 63.6386 46.2695 60.8302 42.6359 59.17C39.8727 57.9664 37.0405 58.4506 34.1391 60.6227ZM31.3069 73.1429C24.8134 70.8878 22.9759 68.0518 25.7805 64.6347C29.1931 62.6978 31.8319 63.6662 33.7247 67.5399C35.7003 63.9844 37.9385 62.6563 40.4254 63.5279C42.9122 64.3995 43.6997 65.9904 42.7741 68.3008C41.807 70.5558 39.6931 71.9669 36.4188 72.5203V95.4855H36.4879V135.398C39.8451 135.951 41.9866 137.362 42.9122 139.618C43.8379 141.873 43.0504 143.464 40.5635 144.39C38.0767 145.262 35.8385 144.017 33.8628 140.655C31.9286 144.349 29.276 145.193 25.9187 143.214C23.1555 139.853 24.993 137.03 31.4451 134.775C31.4451 131.967 31.4451 125.921 31.4451 116.652C31.4036 113.47 31.376 109.943 31.376 106.069V95.4855H31.3069V73.1429ZM26.1259 20.7102C24.3299 21.4434 22.7134 22.4672 21.2904 23.7538C18.2509 26.5207 16.6621 29.9101 16.5239 33.9221C17.118 39.8294 19.8674 42.873 24.7444 43.0529C23.6391 48.3515 22.9207 52.2805 22.6029 54.8122L44.7083 53.7054C44.1142 50.98 43.1885 47.2309 41.9451 42.4303C49.309 40.2583 51.409 35.3471 48.2313 27.6966C45.0122 19.9493 37.6346 17.6251 26.1259 20.7102ZM31.2378 42.4303C30.9201 43.1635 30.6575 43.9798 30.4779 44.8513C30.4365 45.3079 30.3812 45.9858 30.3398 46.8573L30.2016 49.2784C30.1602 49.8318 30.1325 50.3575 30.1325 50.8694L26.8167 50.9385C27.7838 45.9581 28.5437 42.126 29.0964 39.4559C23.3904 39.8294 20.7654 37.7543 21.2213 33.2304C21.6772 28.665 23.7772 25.8289 27.5075 24.7222C31.2378 23.5739 34.899 23.4494 38.4911 24.3763C42.0833 25.3032 44.1971 27.7381 44.8465 31.7086C45.3991 35.7206 43.0228 38.7227 37.7313 40.701C37.8694 42.126 38.5188 45.4324 39.6655 50.5927L36.7642 50.731L36.4879 48.7942C36.253 47.3139 35.9767 46.138 35.6589 45.2664C35.4793 44.7545 35.1339 44.0213 34.6227 43.0529C34.4431 42.7347 34.3049 42.458 34.2082 42.2228C34.1668 42.2643 34.1115 42.3196 34.0701 42.3611C33.9319 42.541 33.8214 42.873 33.7247 43.3296V46.6498C33.8628 48.2685 33.9734 49.6519 34.0701 50.8002H31.9286C32.0668 48.2685 32.1635 45.8613 32.2049 43.6062C32.2049 42.956 31.9977 42.5963 31.5832 42.4995C31.4865 42.458 31.376 42.4303 31.2378 42.4303ZM31.3069 35.3056C31.7628 34.7107 32.0253 34.0328 32.0668 33.2996C32.1082 32.5663 31.9286 31.9161 31.5141 31.3627C31.0997 30.7679 30.5056 30.2975 29.7181 29.9793C28.9306 29.7441 28.1569 29.7026 27.3694 29.8409C26.5404 30.0208 25.8496 30.3943 25.297 30.9477C24.7444 31.4596 24.3713 32.0268 24.1917 32.677C23.9569 33.4102 24.0121 34.0605 24.3299 34.6138C24.7858 35.3056 25.6148 35.8589 26.8167 36.274C27.7838 36.5507 28.6404 36.6475 29.3727 36.5507C30.1049 36.3708 30.7543 35.9558 31.3069 35.3056ZM35.2444 30.3943C34.6503 30.671 34.2359 31.1137 34.001 31.7086C33.7247 32.3035 33.628 32.9122 33.7247 33.5071C33.8628 34.5723 34.3464 35.3471 35.1753 35.8589C35.8247 36.2325 36.6536 36.3431 37.6622 36.2048C38.8642 36.0665 39.8451 35.6791 40.6326 35.0289C41.503 34.2956 41.9037 33.4102 41.807 32.4003C41.807 31.8884 41.6274 31.4319 41.2543 31.0169C40.978 30.6018 40.5912 30.2975 40.08 30.1176C39.5688 29.9378 38.6984 29.8686 37.455 29.9101C36.3911 30.0485 35.6589 30.2145 35.2444 30.3943ZM455.316 151.1C453.34 152.165 451.959 154.171 451.171 157.118H205.94C205.152 154.171 203.77 152.165 201.795 151.1C197.374 149.066 193.782 149.606 191.018 152.691C188.214 149.509 184.566 148.928 180.104 150.962C178.073 152.027 176.678 154.047 175.89 157.049L68.2644 157.118C67.4769 154.171 66.0953 152.165 64.1196 151.1C59.3255 148.928 55.5123 149.758 52.6524 153.59C50.5386 156.731 50.7182 160.189 53.2051 163.966C52.2379 165.073 51.7129 166.664 51.6162 168.739C51.8511 173.346 54.1998 176.03 58.6623 176.763C63.1249 177.496 66.3301 175.241 68.2644 169.984L141.488 169.915L175.959 169.846C177.893 175.103 181.071 177.358 185.492 176.625C187.882 176.251 189.678 175.338 190.88 173.858C192.082 175.38 193.892 176.348 196.337 176.763C200.759 177.496 203.936 175.241 205.87 169.984H451.309C453.202 175.241 456.38 177.496 460.842 176.763C463.288 176.348 465.084 175.38 466.231 173.858C467.433 175.338 469.229 176.251 471.619 176.625C476.081 177.358 479.259 175.103 481.152 169.846L588.915 169.984C590.85 175.241 594.027 177.496 598.448 176.763C602.911 176.03 605.287 173.346 605.564 168.739C605.425 166.664 604.9 165.073 603.975 163.966C606.462 160.189 606.641 156.731 604.527 153.59C601.668 149.758 597.827 148.928 592.991 151.1C591.015 152.165 589.634 154.171 588.846 157.118L481.221 157.049C480.433 154.047 479.052 152.027 477.076 150.962C472.613 148.928 468.966 149.509 466.161 152.691C463.398 149.606 459.779 149.066 455.316 151.1ZM464.227 157.464C464.6 158.294 464.614 159.055 464.296 159.747C463.785 161.089 462.265 162.306 459.737 163.413C464.061 165.114 465.153 167.494 462.984 170.538C459.157 173.028 456.007 171.395 453.52 165.626C450.715 165.626 432.52 165.599 398.947 165.557C387.522 165.516 377.74 165.488 369.589 165.488V165.557H357.085C345.162 165.599 335.187 165.626 327.174 165.626V165.557H313.082L300.924 165.626C289.18 165.626 279.951 165.626 273.223 165.626C272.352 165.626 271.496 165.626 270.667 165.626C266.204 165.626 262.336 165.626 259.062 165.626V165.557H258.164C239.65 165.599 225.807 165.626 216.647 165.626C209.228 165.626 204.903 165.626 203.66 165.626C201.132 171.395 197.968 173.028 194.196 170.538C192.027 167.494 193.091 165.114 197.374 163.413C194.845 162.306 193.326 161.089 192.814 159.747C192.497 159.055 192.51 158.294 192.884 157.464C192.925 157.422 192.953 157.367 192.953 157.326C193.961 155.209 195.716 154.559 198.203 155.389C200.731 156.219 202.306 158.114 202.9 161.061H216.647L259.062 160.992V161.061H273.223L313.082 160.992H327.174V161.061L364.269 160.992H369.589V160.923L454.211 161.061C454.805 158.114 456.38 156.219 458.908 155.389C461.395 154.559 463.15 155.209 464.158 157.326C464.158 157.367 464.186 157.422 464.227 157.464ZM468.096 159.816C468.275 158.889 468.344 158.045 468.303 157.256C469.311 155.084 471.066 154.393 473.553 155.181C476.081 156.053 477.629 157.976 478.181 160.923L591.886 161.061C592.439 158.114 594 156.219 596.583 155.389C599.112 154.517 600.894 155.209 601.902 157.464C602.87 159.678 601.377 161.656 597.412 163.413C601.695 165.114 602.759 167.494 600.59 170.538C596.818 173.028 593.654 171.395 591.126 165.626C588.363 165.626 570.195 165.599 536.622 165.557C504.197 165.516 484.979 165.46 478.941 165.419C476.413 171.229 473.249 172.889 469.477 170.399C467.308 167.397 468.275 165.031 472.379 163.274C470.071 162.209 468.648 161.061 468.096 159.816ZM189.015 159.816C188.504 161.061 187.081 162.209 184.732 163.274C188.877 165.031 189.872 167.397 187.703 170.399C183.876 172.889 180.726 171.229 178.239 165.419C173.638 165.46 161.383 165.488 141.488 165.488C135.23 165.529 128.225 165.557 120.488 165.557C86.9572 165.599 68.7894 165.626 65.9847 165.626C63.4564 171.395 60.2926 173.028 56.5209 170.538C54.3518 167.494 55.4432 165.114 59.7676 163.413C55.761 161.656 54.2689 159.678 55.2774 157.464C56.2445 155.209 58.013 154.517 60.5965 155.389C63.1249 156.219 64.6999 158.114 65.2939 161.061L141.488 160.992L178.929 160.923C179.524 157.976 181.099 156.053 183.627 155.181C186.114 154.393 187.882 155.084 188.946 157.256C188.808 158.045 188.835 158.889 189.015 159.816ZM592.991 30.3943C591.015 31.5011 589.634 33.5347 588.846 36.4815L481.221 36.3431C480.433 33.3964 479.052 31.3627 477.076 30.256C472.613 28.2223 468.966 28.8449 466.161 32.1236C463.398 28.9417 459.779 28.3607 455.316 30.3943C453.34 31.5011 451.959 33.5347 451.171 36.4815H205.94C205.152 33.5347 203.77 31.5011 201.795 30.3943C197.374 28.3607 193.782 28.9417 191.018 32.1236C188.214 28.8449 184.566 28.2223 180.104 30.256C178.073 31.3627 176.678 33.3964 175.89 36.3431L68.2644 36.4815C67.4769 33.5347 66.0953 31.5011 64.1196 30.3943C59.3255 28.2223 55.5123 29.08 52.6524 32.9537C50.5386 36.0388 50.7182 39.4974 53.2051 43.3296C52.2379 44.4363 51.7129 46.0273 51.6162 48.1025C51.8511 52.7093 54.1998 55.3932 58.6623 56.1264C63.1249 56.8182 66.3301 54.5632 68.2644 49.3476L141.488 49.2784L175.959 49.2092C177.893 54.4663 181.071 56.7213 185.492 55.9881C187.882 55.5731 189.678 54.6323 190.88 53.152C192.082 54.6738 193.892 55.6699 196.337 56.1264C200.759 56.8182 203.936 54.5632 205.87 49.3476H451.309C453.202 54.5632 456.38 56.8182 460.842 56.1264C463.288 55.6699 465.084 54.6738 466.231 53.152C467.433 54.6323 469.229 55.5731 471.619 55.9881C476.081 56.7213 479.259 54.4663 481.152 49.2092L588.915 49.3476C590.85 54.5632 594.027 56.8182 598.448 56.1264C602.911 55.3932 605.287 52.7093 605.564 48.1025C605.425 46.0273 604.9 44.4363 603.975 43.3296C606.462 39.4974 606.641 36.0388 604.527 32.9537C601.668 29.08 597.827 28.2223 592.991 30.3943ZM601.902 36.7582C602.87 38.9717 601.377 40.95 597.412 42.707C601.695 44.464 602.759 46.8573 600.59 49.9009C596.818 52.3911 593.654 50.731 591.126 44.9205C588.363 44.962 570.195 44.962 536.622 44.9205C504.197 44.879 484.979 44.8513 478.941 44.8513C476.413 50.6203 473.249 52.2251 469.477 49.6934C467.308 46.6913 468.275 44.3395 472.379 42.6378C470.071 41.5726 468.648 40.3966 468.096 39.11C468.331 38.2385 468.4 37.3807 468.303 36.5507C469.311 34.434 471.066 33.7561 473.553 34.5447C476.081 35.4162 477.629 37.3392 478.181 40.286L591.886 40.4243C592.439 37.4222 594 35.5131 596.583 34.683C599.112 33.8529 600.894 34.5447 601.902 36.7582ZM464.296 39.11C463.785 40.3966 462.265 41.6003 459.737 42.707C464.061 44.464 465.153 46.8573 462.984 49.9009C459.157 52.3911 456.007 50.731 453.52 44.9205C450.715 44.962 432.52 44.962 398.947 44.9205C386.927 44.879 376.731 44.8513 368.345 44.8513H354.115C344.444 44.8513 331.291 44.879 314.67 44.9205H299.542V44.8513C289.733 44.8513 275.945 44.879 258.164 44.9205H243.035C219.092 44.962 205.967 44.962 203.66 44.9205C201.132 50.731 197.968 52.3911 194.196 49.9009C192.027 46.8573 193.091 44.464 197.374 42.707C194.845 41.6003 193.326 40.3966 192.814 39.11C192.497 38.3768 192.51 37.5882 192.884 36.7582L192.953 36.689C193.961 34.517 195.716 33.8529 198.203 34.683C200.731 35.5131 202.306 37.4222 202.9 40.4243L243.035 40.3551L299.542 40.286V40.3551L454.211 40.4243C454.805 37.4222 456.38 35.5131 458.908 34.683C461.395 33.8529 463.15 34.517 464.158 36.689L464.227 36.7582C464.6 37.5882 464.614 38.3768 464.296 39.11ZM178.929 40.286C179.524 37.3392 181.099 35.4162 183.627 34.5447C186.114 33.7561 187.882 34.434 188.946 36.5507C188.766 37.3807 188.78 38.2385 189.015 39.11C188.504 40.3966 187.081 41.5726 184.732 42.6378C188.877 44.3395 189.872 46.6913 187.703 49.6934C183.876 52.2251 180.726 50.6203 178.239 44.8513C173.638 44.8513 161.383 44.879 141.488 44.9205H120.488C86.9572 44.962 68.7894 44.962 65.9847 44.9205C63.4564 50.731 60.2926 52.3911 56.5209 49.9009C54.3518 46.8573 55.4432 44.464 59.7676 42.707C55.761 40.95 54.2689 38.9717 55.2774 36.7582C56.2445 34.5447 58.013 33.8529 60.5965 34.683C63.1249 35.5131 64.6999 37.4222 65.2939 40.4243L141.488 40.3551L178.929 40.286ZM635.82 156.841C634.439 155.555 632.85 154.531 631.054 153.798C619.49 150.713 612.126 153.037 608.949 160.784C605.729 168.435 607.816 173.346 615.235 175.518C613.95 180.319 613.024 184.068 612.472 186.793L634.508 187.9C634.19 185.368 633.472 181.439 632.366 176.141C637.243 175.961 639.993 172.917 640.587 167.01C640.49 162.998 638.901 159.608 635.82 156.841ZM629.603 157.81C633.375 158.917 635.503 161.753 635.959 166.318C636.373 170.842 633.72 172.931 628.014 172.613C628.608 175.241 629.368 179.046 630.294 184.026L626.978 183.957C626.978 183.445 626.951 182.919 626.909 182.366L626.84 179.945C626.799 179.073 626.73 178.396 626.633 177.939C626.453 177.067 626.218 176.251 625.942 175.518H625.528C625.155 175.698 624.975 176.099 624.975 176.694C624.975 178.949 625.044 181.356 625.182 183.888H623.11C623.207 182.781 623.289 181.398 623.386 179.737C623.428 178.119 623.428 177.04 623.386 176.486C623.289 175.975 623.179 175.629 623.041 175.449C623.041 175.407 622.999 175.352 622.902 175.31C622.806 175.546 622.695 175.822 622.557 176.141C622.004 177.109 621.659 177.842 621.521 178.354C621.203 179.226 620.927 180.402 620.692 181.882L620.416 183.819L617.445 183.68C618.647 178.52 619.283 175.214 619.379 173.789C614.088 171.81 611.739 168.808 612.333 164.796C612.927 160.826 615.027 158.391 618.62 157.464C622.212 156.537 625.873 156.662 629.603 157.81ZM615.856 164.105C615.539 164.52 615.345 164.976 615.304 165.488C615.262 166.498 615.677 167.397 616.547 168.186C617.28 168.781 618.247 169.154 619.449 169.292C620.512 169.431 621.355 169.32 622.004 168.947C622.833 168.435 623.289 167.66 623.386 166.595C623.524 166 623.455 165.391 623.179 164.796C622.903 164.201 622.46 163.759 621.866 163.482C621.452 163.302 620.72 163.164 619.656 163.067C618.412 162.97 617.556 163.025 617.1 163.205C616.547 163.385 616.133 163.69 615.856 164.105ZM629.741 162.929C629.009 162.749 628.249 162.818 627.462 163.136C626.674 163.371 626.08 163.786 625.666 164.381C625.21 164.976 625.003 165.654 625.044 166.387C625.085 167.176 625.348 167.84 625.804 168.393C626.356 169.085 627.02 169.472 627.807 169.569C628.539 169.708 629.368 169.638 630.294 169.362C631.537 168.988 632.366 168.435 632.781 167.702C633.099 167.148 633.154 166.498 632.919 165.765C632.739 165.114 632.366 164.547 631.814 164.035C631.261 163.482 630.57 163.108 629.741 162.929ZM637.478 142.73C638.487 138.345 636.193 135.024 630.57 132.769L630.709 75.7714C637.161 71.6211 639.026 67.0834 636.304 62.1444C632.753 58.3123 628.332 57.8143 623.041 60.6227C620.098 58.4506 617.238 57.9664 614.475 59.17C610.841 60.8302 609.114 63.6386 609.294 67.6091C609.391 69.449 610.192 71.206 611.712 72.8662C612.914 73.8346 614.475 74.5955 616.409 75.1489L616.271 132.7C613.646 133.295 611.753 134.402 610.606 136.021C607.705 141.001 608.423 145.151 612.748 148.472C616.658 150.367 620.277 149.62 623.593 146.258C626.674 150.27 630.114 150.989 633.886 148.402C635.682 147.254 636.884 145.359 637.478 142.73ZM625.804 73.1429C625.845 74.7615 625.845 82.2044 625.804 95.4855H625.735C625.735 99.2623 625.735 102.79 625.735 106.069C625.735 109.943 625.735 113.47 625.735 116.652C625.735 125.921 625.707 131.967 625.666 134.775C632.118 137.03 633.955 139.853 631.192 143.214C627.835 145.193 625.182 144.349 623.248 140.655C621.272 144.017 619.034 145.262 616.547 144.39C614.06 143.464 613.273 141.873 614.199 139.618C615.166 137.362 617.307 135.951 620.623 135.398V95.4855H620.692L620.761 72.5203C617.445 71.9669 615.304 70.5558 614.337 68.3008C613.411 65.9904 614.226 64.3995 616.754 63.5279C619.241 62.6563 621.452 63.9844 623.386 67.5399C625.32 63.6662 627.973 62.6978 631.33 64.6347C634.135 68.0518 632.297 70.8878 625.804 73.1429ZM635.82 23.7538C634.439 22.4672 632.85 21.4434 631.054 20.7102C619.49 17.6251 612.126 19.9493 608.949 27.6966C605.729 35.3471 607.816 40.2583 615.235 42.4303C613.95 47.2309 613.024 50.98 612.472 53.7054L634.508 54.8122C634.19 52.2805 633.472 48.3515 632.366 43.0529C637.243 42.873 639.993 39.8294 640.587 33.9221C640.49 29.9101 638.901 26.5207 635.82 23.7538ZM625.528 42.4995C625.155 42.5963 624.975 42.956 624.975 43.6062C624.975 45.8613 625.044 48.2685 625.182 50.8002H623.11C623.207 49.6519 623.289 48.2685 623.386 46.6498C623.428 45.0312 623.428 43.9244 623.386 43.3296C623.289 42.873 623.179 42.541 623.041 42.3611C623.041 42.3196 622.999 42.2643 622.902 42.2228C622.806 42.458 622.695 42.7347 622.557 43.0529C622.004 44.0213 621.659 44.7545 621.521 45.2664C621.203 46.138 620.927 47.3139 620.692 48.7942L620.416 50.731L617.445 50.5927C618.647 45.4324 619.283 42.126 619.379 40.701C614.088 38.7227 611.739 35.7206 612.333 31.7086C612.927 27.7381 615.027 25.3032 618.62 24.3763C622.212 23.4494 625.873 23.5739 629.603 24.7222C633.375 25.8289 635.503 28.665 635.959 33.2304C636.373 37.7543 633.72 39.8294 628.014 39.4559C628.608 42.126 629.368 45.9581 630.294 50.9385L626.978 50.8694C626.978 50.3575 626.951 49.8318 626.909 49.2784L626.84 46.8573C626.799 45.9858 626.73 45.3079 626.633 44.8513C626.453 43.9798 626.218 43.1635 625.942 42.4303C625.804 42.4303 625.666 42.458 625.528 42.4995ZM621.866 30.3943C621.452 30.2145 620.72 30.0485 619.656 29.9101C618.412 29.8686 617.556 29.9378 617.1 30.1176C616.547 30.2975 616.133 30.6018 615.856 31.0169C615.539 31.4319 615.345 31.8884 615.304 32.4003C615.262 33.4102 615.677 34.2956 616.547 35.0289C617.28 35.6791 618.247 36.0665 619.449 36.2048C620.512 36.3431 621.355 36.2325 622.004 35.8589C622.833 35.3471 623.289 34.5723 623.386 33.5071C623.524 32.9122 623.455 32.3035 623.179 31.7086C622.903 31.1137 622.46 30.671 621.866 30.3943ZM632.919 32.677C632.739 32.0268 632.366 31.4596 631.814 30.9477C631.261 30.3943 630.57 30.0208 629.741 29.8409C629.009 29.7026 628.249 29.7441 627.462 29.9793C626.674 30.2975 626.08 30.7679 625.666 31.3627C625.21 31.9161 625.003 32.5663 625.044 33.2996C625.085 34.0328 625.348 34.7107 625.804 35.3056C626.356 35.9558 627.02 36.3708 627.807 36.5507C628.539 36.6475 629.368 36.5507 630.294 36.274C631.537 35.8589 632.366 35.3056 632.781 34.6138C633.099 34.0605 633.154 33.4102 632.919 32.677Z" fill="black"/>
<path d="M645.975 24.4455C645.878 24.1273 645.768 23.7953 645.629 23.4771C644.483 20.7102 642.01 17.971 638.238 15.2456C636.856 14.3187 635.585 13.5855 634.439 13.0321C618.592 8.36986 607.498 12.7139 601.142 26.0365C599.526 26.1748 508.687 26.244 328.624 26.244C248.63 26.244 186.252 26.2163 141.488 26.1748C85.3959 26.1748 56.8937 26.1333 55.9681 26.0365C49.6128 12.7139 38.5325 8.36986 22.7409 13.0321C21.5389 13.5855 20.2541 14.3187 18.8725 15.2456C15.1007 17.971 12.6277 20.7102 11.481 23.4771C11.3843 23.7953 11.3014 24.1273 11.2047 24.4455C7.61253 33.7561 9.15991 42.9145 15.833 51.907V154.697C9.10465 163.039 7.57109 171.99 11.2047 181.536C11.3014 181.813 11.3843 182.117 11.481 182.435C12.6277 185.244 15.1007 187.997 18.8725 190.667C20.2541 191.594 21.5389 192.327 22.7409 192.88C38.5325 197.542 49.6128 193.198 55.9681 179.876C56.8937 179.779 85.3959 179.738 141.488 179.738C186.252 179.696 248.63 179.668 328.624 179.668C508.687 179.668 599.526 179.738 601.142 179.876C607.498 193.198 618.592 197.542 634.439 192.88C635.585 192.327 636.856 191.594 638.238 190.667C642.01 187.997 644.483 185.244 645.629 182.435C645.768 182.117 645.878 181.813 645.975 181.536C649.802 171.34 647.743 161.85 639.827 153.037V53.7746C647.743 44.1873 649.802 34.4063 645.975 24.4455ZM631.054 20.7102C632.85 21.4434 634.439 22.4672 635.82 23.7538C638.901 26.5207 640.49 29.9101 640.587 33.9221C639.993 39.8295 637.243 42.873 632.366 43.0529C633.471 48.3515 634.19 52.2805 634.508 54.8122L612.471 53.7054C613.024 50.98 613.95 47.2309 615.235 42.4303C607.815 40.2583 605.729 35.3471 608.948 27.6966C612.126 19.9493 619.49 17.6251 631.054 20.7102ZM630.57 132.769C636.193 135.024 638.487 138.345 637.478 142.73C636.884 145.359 635.682 147.254 633.886 148.402C630.114 150.989 626.674 150.27 623.593 146.258C620.277 149.62 616.658 150.367 612.748 148.472C608.423 145.151 607.705 141.001 610.606 136.021C611.753 134.402 613.646 133.295 616.271 132.7L616.409 75.1489C614.475 74.5955 612.914 73.8346 611.712 72.8662C610.192 71.206 609.39 69.4491 609.294 67.6091C609.114 63.6386 610.841 60.8302 614.475 59.1701C617.238 57.9665 620.098 58.4507 623.041 60.6227C628.332 57.8143 632.753 58.3123 636.304 62.1445C639.026 67.0834 637.16 71.6211 630.708 75.7714L630.57 132.769ZM631.054 153.798C632.85 154.531 634.439 155.555 635.82 156.841C638.901 159.608 640.49 162.998 640.587 167.01C639.993 172.917 637.243 175.961 632.366 176.141C633.471 181.439 634.19 185.368 634.508 187.9L612.471 186.793C613.024 184.068 613.95 180.319 615.235 175.518C607.815 173.346 605.729 168.435 608.948 160.784C612.126 153.037 619.49 150.713 631.054 153.798ZM588.846 36.4815C589.634 33.5348 591.015 31.5011 592.991 30.3943C597.827 28.2223 601.667 29.0801 604.527 32.9537C606.641 36.0388 606.461 39.4974 603.975 43.3296C604.9 44.4363 605.425 46.0273 605.563 48.1025C605.287 52.7094 602.911 55.3932 598.448 56.1265C594.027 56.8182 590.85 54.5632 588.915 49.3476L481.152 49.2092C479.259 54.4663 476.081 56.7214 471.619 55.9881C469.228 55.5731 467.432 54.6323 466.23 53.1521C465.084 54.6739 463.288 55.6699 460.842 56.1265C456.38 56.8182 453.202 54.5632 451.309 49.3476H205.87C203.936 54.5632 200.758 56.8182 196.337 56.1265C193.892 55.6699 192.082 54.6739 190.88 53.1521C189.678 54.6323 187.882 55.5731 185.492 55.9881C181.071 56.7214 177.893 54.4663 175.959 49.2092L141.488 49.2784L68.2642 49.3476C66.33 54.5632 63.1247 56.8182 58.6622 56.1265C54.1996 55.3932 51.851 52.7094 51.6161 48.1025C51.7128 46.0273 52.2378 44.4363 53.2049 43.3296C50.7181 39.4974 50.5384 36.0388 52.6523 32.9537C55.5122 29.0801 59.3253 28.2223 64.1194 30.3943C66.0951 31.5011 67.4767 33.5348 68.2642 36.4815L175.89 36.3432C176.677 33.3964 178.073 31.3628 180.104 30.256C184.566 28.2223 188.214 28.8449 191.018 32.1237C193.781 28.9417 197.374 28.3607 201.795 30.3943C203.77 31.5011 205.152 33.5348 205.939 36.4815H451.171C451.959 33.5348 453.34 31.5011 455.316 30.3943C459.778 28.3607 463.398 28.9417 466.161 32.1237C468.966 28.8449 472.613 28.2223 477.076 30.256C479.052 31.3628 480.433 33.3964 481.221 36.3432L588.846 36.4815ZM451.171 157.118C451.959 154.171 453.34 152.165 455.316 151.1C459.778 149.066 463.398 149.606 466.161 152.691C468.966 149.509 472.613 148.928 477.076 150.962C479.052 152.027 480.433 154.047 481.221 157.049L588.846 157.118C589.634 154.171 591.015 152.165 592.991 151.1C597.827 148.928 601.667 149.758 604.527 153.59C606.641 156.731 606.461 160.189 603.975 163.966C604.9 165.073 605.425 166.664 605.563 168.739C605.287 173.346 602.911 176.03 598.448 176.763C594.027 177.496 590.85 175.241 588.915 169.984L481.152 169.846C479.259 175.103 476.081 177.358 471.619 176.625C469.228 176.251 467.432 175.338 466.23 173.858C465.084 175.38 463.288 176.348 460.842 176.763C456.38 177.496 453.202 175.241 451.309 169.984H205.87C203.936 175.241 200.758 177.496 196.337 176.763C193.892 176.348 192.082 175.38 190.88 173.858C189.678 175.338 187.882 176.251 185.492 176.625C181.071 177.358 177.893 175.103 175.959 169.846L141.488 169.915L68.2642 169.984C66.33 175.241 63.1247 177.496 58.6622 176.763C54.1996 176.03 51.851 173.346 51.6161 168.739C51.7128 166.664 52.2378 165.073 53.2049 163.966C50.7181 160.189 50.5384 156.731 52.6523 153.59C55.5122 149.758 59.3253 148.928 64.1194 151.1C66.0951 152.165 67.4767 154.171 68.2642 157.118L175.89 157.049C176.677 154.047 178.073 152.027 180.104 150.962C184.566 148.928 188.214 149.509 191.018 152.691C193.781 149.606 197.374 149.066 201.795 151.1C203.77 152.165 205.152 154.171 205.939 157.118H451.171ZM609.501 79.9909L609.225 125.852C597.758 131.981 590.85 139.452 588.501 148.264H67.9879C65.5977 139.452 58.6622 131.981 47.195 125.852L46.9878 79.9909C58.6345 73.5302 65.6392 66.0181 67.9879 57.4407C68.3609 57.4407 92.8565 57.4684 141.488 57.5099C222.864 57.5099 371.868 57.4823 588.501 57.4407C590.808 66.0181 597.799 73.5302 609.501 79.9909ZM21.2902 23.7538C22.7133 22.4672 24.3297 21.4434 26.1258 20.7102C37.6344 17.6251 45.0121 19.9493 48.2312 27.6966C51.4088 35.3471 49.3088 40.2583 41.945 42.4303C43.1884 47.2309 44.1141 50.98 44.7081 53.7054L22.6028 54.8122C22.9205 52.2805 23.6389 48.3515 24.7442 43.0529C19.8672 42.873 17.1179 39.8295 16.5238 33.9221C16.6619 29.9101 18.2508 26.5207 21.2902 23.7538ZM20.8758 62.1445C24.3712 58.3123 28.7923 57.8143 34.139 60.6227C37.0403 58.4507 39.8726 57.9665 42.6358 59.1701C46.2693 60.8302 48.024 63.6386 47.8858 67.6091C47.7476 69.4491 46.9187 71.206 45.3989 72.8662C44.2522 73.8346 42.6772 74.5955 40.7015 75.1489L40.9088 132.7C43.4924 133.295 45.3575 134.402 46.5042 136.021C49.4055 141.001 48.6871 145.151 44.3628 148.472C40.4529 150.367 36.8607 149.62 33.5864 146.258C30.4502 150.27 26.9962 150.989 23.2245 148.402C21.4284 147.254 20.2264 145.359 19.6323 142.73C18.6238 138.345 20.9172 135.024 26.5403 132.769L26.4021 75.7714C19.9501 71.6211 18.1126 67.0834 20.8758 62.1445ZM21.2902 156.841C22.7133 155.555 24.3297 154.531 26.1258 153.798C37.6344 150.713 45.0121 153.037 48.2312 160.784C51.4088 168.435 49.3088 173.346 41.945 175.518C43.1884 180.319 44.1141 184.068 44.7081 186.793L22.6028 187.9C22.9205 185.368 23.6389 181.439 24.7442 176.141C19.8672 175.961 17.1179 172.917 16.5238 167.01C16.6619 162.998 18.2508 159.608 21.2902 156.841ZM603.975 122.394V83.3112C593.613 76.9889 587.299 70.1408 585.047 62.767H71.3728C69.1208 70.1408 62.8069 76.9889 52.445 83.3112V122.394C62.8069 128.716 69.1208 135.564 71.3728 142.938H585.047C587.299 135.564 593.613 128.716 603.975 122.394Z" fill="#777C8C"/>
<path d="M44.8463 164.796C44.197 160.826 42.0831 158.391 38.491 157.464C34.8989 156.537 31.2377 156.662 27.5074 157.81C23.7771 158.917 21.6771 161.753 21.2212 166.318C20.7652 170.842 23.3903 172.931 29.0962 172.613C28.5436 175.241 27.7837 179.046 26.8166 184.026L30.1324 183.957C30.1324 183.445 30.16 182.919 30.2015 182.366L30.3396 179.945C30.3811 179.073 30.4364 178.396 30.4778 177.939C30.6574 177.067 30.9199 176.251 31.2377 175.518H31.5831C31.9975 175.698 32.2048 176.099 32.2048 176.694C32.1633 178.949 32.0666 181.356 31.9285 183.888H34.0699C33.9732 182.781 33.8627 181.398 33.7245 179.738V176.486C33.8212 175.975 33.9318 175.629 34.0699 175.449C34.1114 175.407 34.1666 175.352 34.2081 175.311C34.3048 175.546 34.443 175.822 34.6226 176.141C35.1337 177.109 35.4791 177.842 35.6588 178.354C35.9765 179.226 36.2528 180.402 36.4877 181.882L36.764 183.819L39.6654 183.68C38.5186 178.52 37.8693 175.214 37.7311 173.789C43.0226 171.81 45.3989 168.808 44.8463 164.796ZM37.4548 163.067C38.6982 162.97 39.5686 163.025 40.0798 163.205C40.591 163.385 40.9779 163.69 41.2542 164.105C41.6272 164.52 41.8068 164.976 41.8068 165.488C41.9035 166.498 41.5029 167.397 40.6325 168.186C39.845 168.781 38.864 169.154 37.6621 169.293C36.6535 169.431 35.8245 169.32 35.1752 168.947C34.3462 168.435 33.8627 167.66 33.7245 166.595C33.6278 166 33.7245 165.391 34.0008 164.796C34.2357 164.201 34.6502 163.759 35.2443 163.482C35.6588 163.302 36.391 163.164 37.4548 163.067ZM24.1916 165.765C24.3712 165.114 24.7442 164.547 25.2968 164.035C25.8495 163.482 26.5403 163.108 27.3692 162.929C28.1567 162.749 28.9304 162.818 29.7179 163.136C30.5054 163.371 31.0995 163.786 31.514 164.381C31.9285 164.976 32.1081 165.654 32.0666 166.387C32.0252 167.176 31.7627 167.84 31.3068 168.393C30.7541 169.085 30.1048 169.472 29.3725 169.569C28.6403 169.708 27.7837 169.638 26.8166 169.362C25.6146 168.988 24.7857 168.435 24.3297 167.702C24.012 167.148 23.9567 166.498 24.1916 165.765ZM25.7804 64.6347C22.9758 68.0518 24.8133 70.8879 31.3068 73.1429V95.4856H31.3758V106.069C31.3758 109.943 31.4035 113.47 31.4449 116.652C31.4449 125.921 31.4449 131.967 31.4449 134.775C24.9929 137.031 23.1554 139.853 25.9186 143.215C29.2758 145.193 31.9285 144.349 33.8627 140.655C35.8384 144.017 38.0765 145.262 40.5634 144.39C43.0502 143.464 43.8377 141.873 42.9121 139.618C41.9864 137.363 39.845 135.951 36.4877 135.398V95.4856H36.4186V72.5203C39.693 71.967 41.8068 70.5558 42.7739 68.3008C43.6996 65.9905 42.9121 64.3995 40.4252 63.5279C37.9384 62.6563 35.7002 63.9845 33.7245 67.5399C31.8318 63.6663 29.1929 62.6979 25.7804 64.6347ZM30.4778 44.8514C30.6574 43.9798 30.9199 43.1636 31.2377 42.4303C31.3758 42.4303 31.4864 42.458 31.5831 42.4995C31.9975 42.5964 32.2048 42.9561 32.2048 43.6063C32.1633 45.8613 32.0666 48.2685 31.9285 50.8002H34.0699C33.9732 49.6519 33.8627 48.2685 33.7245 46.6499V43.3296C33.8212 42.873 33.9318 42.541 34.0699 42.3612C34.1114 42.3197 34.1666 42.2643 34.2081 42.2228C34.3048 42.458 34.443 42.7347 34.6226 43.0529C35.1337 44.0213 35.4791 44.7545 35.6588 45.2664C35.9765 46.138 36.2528 47.3139 36.4877 48.7942L36.764 50.731L39.6654 50.5927C38.5186 45.4324 37.8693 42.126 37.7311 40.701C43.0226 38.7227 45.3989 35.7206 44.8463 31.7086C44.197 27.7381 42.0831 25.3033 38.491 24.3763C34.8989 23.4494 31.2377 23.5739 27.5074 24.7222C23.7771 25.829 21.6771 28.665 21.2212 33.2304C20.7652 37.7543 23.3903 39.8295 29.0962 39.4559C28.5436 42.126 27.7837 45.9581 26.8166 50.9385L30.1324 50.8694C30.1324 50.3575 30.16 49.8318 30.2015 49.2784L30.3396 46.8574C30.3811 45.9858 30.4364 45.3079 30.4778 44.8514ZM34.0008 31.7086C34.2357 31.1137 34.6502 30.671 35.2443 30.3943C35.6588 30.2145 36.391 30.0485 37.4548 29.9101C38.6982 29.8686 39.5686 29.9378 40.0798 30.1177C40.591 30.2975 40.9779 30.6019 41.2542 31.0169C41.6272 31.4319 41.8068 31.8885 41.8068 32.4003C41.9035 33.4103 41.5029 34.2957 40.6325 35.0289C39.845 35.6791 38.864 36.0665 37.6621 36.2048C36.6535 36.3432 35.8245 36.2325 35.1752 35.859C34.3462 35.3471 33.8627 34.5724 33.7245 33.5071C33.6278 32.9122 33.7245 32.3035 34.0008 31.7086ZM32.0666 33.2996C32.0252 34.0328 31.7627 34.7107 31.3068 35.3056C30.7541 35.9558 30.1048 36.3708 29.3725 36.5507C28.6403 36.6475 27.7837 36.5507 26.8166 36.274C25.6146 35.859 24.7857 35.3056 24.3297 34.6139C24.012 34.0605 23.9567 33.4103 24.1916 32.677C24.3712 32.0268 24.7442 31.4596 25.2968 30.9477C25.8495 30.3943 26.5403 30.0208 27.3692 29.841C28.1567 29.7026 28.9304 29.7441 29.7179 29.9793C30.5054 30.2975 31.0995 30.7679 31.514 31.3628C31.9285 31.9161 32.1081 32.5664 32.0666 33.2996ZM184.732 163.274C187.081 162.209 188.504 161.061 189.015 159.816C188.835 158.889 188.808 158.045 188.946 157.257C187.882 155.084 186.114 154.393 183.627 155.181C181.098 156.053 179.523 157.976 178.929 160.923L141.488 160.992L65.2938 161.061C64.6997 158.114 63.1247 156.219 60.5964 155.389C58.0128 154.517 56.2444 155.209 55.2773 157.464C54.2687 159.678 55.7608 161.656 59.7675 163.413C55.4431 165.114 54.3516 167.494 56.5207 170.538C60.2925 173.028 63.4563 171.395 65.9846 165.626C68.7892 165.626 86.9571 165.599 120.488 165.557C128.225 165.557 135.23 165.53 141.488 165.488C161.383 165.488 173.638 165.46 178.239 165.419C180.725 171.229 183.875 172.889 187.702 170.399C189.872 167.397 188.877 165.031 184.732 163.274ZM468.303 157.257C468.344 158.045 468.275 158.889 468.096 159.816C468.648 161.061 470.071 162.209 472.379 163.274C468.275 165.031 467.308 167.397 469.477 170.399C473.249 172.889 476.413 171.229 478.941 165.419C484.979 165.46 504.197 165.516 536.622 165.557C570.195 165.599 588.363 165.626 591.126 165.626C593.654 171.395 596.818 173.028 600.59 170.538C602.759 167.494 601.695 165.114 597.412 163.413C601.377 161.656 602.869 159.678 601.902 157.464C600.894 155.209 599.112 154.517 596.583 155.389C594 156.219 592.439 158.114 591.886 161.061L478.181 160.923C477.629 157.976 476.081 156.053 473.553 155.181C471.066 154.393 469.311 155.084 468.303 157.257ZM464.296 159.747C464.614 159.055 464.6 158.294 464.227 157.464C464.186 157.423 464.158 157.367 464.158 157.326C463.15 155.209 461.395 154.559 458.908 155.389C456.38 156.219 454.805 158.114 454.211 161.061L369.588 160.923V160.992H364.269L327.174 161.061V160.992H313.081L273.223 161.061H259.061V160.992L216.647 161.061H202.9C202.306 158.114 200.731 156.219 198.203 155.389C195.716 154.559 193.961 155.209 192.952 157.326C192.952 157.367 192.925 157.423 192.883 157.464C192.51 158.294 192.497 159.055 192.814 159.747C193.326 161.089 194.845 162.306 197.374 163.413C193.091 165.114 192.027 167.494 194.196 170.538C197.968 173.028 201.131 171.395 203.66 165.626C204.903 165.626 209.228 165.626 216.647 165.626C225.807 165.626 239.65 165.599 258.163 165.557H259.061V165.626C262.336 165.626 266.204 165.626 270.667 165.626C271.496 165.626 272.352 165.626 273.223 165.626C279.951 165.626 289.18 165.626 300.924 165.626L313.081 165.557H327.174V165.626C335.187 165.626 345.162 165.599 357.085 165.557H369.588V165.488C377.74 165.488 387.521 165.516 398.947 165.557C432.52 165.599 450.715 165.626 453.52 165.626C456.007 171.395 459.157 173.028 462.984 170.538C465.153 167.494 464.061 165.114 459.737 163.413C462.265 162.306 463.785 161.089 464.296 159.747ZM183.627 34.5447C181.098 35.4163 179.523 37.3393 178.929 40.286L141.488 40.3552L65.2938 40.4243C64.6997 37.4223 63.1247 35.5131 60.5964 34.683C58.0128 33.853 56.2444 34.5447 55.2773 36.7582C54.2687 38.9717 55.7608 40.9501 59.7675 42.707C55.4431 44.464 54.3516 46.8574 56.5207 49.901C60.2925 52.3912 63.4563 50.731 65.9846 44.9205C68.7892 44.9621 86.9571 44.9621 120.488 44.9205H141.488C161.383 44.879 173.638 44.8514 178.239 44.8514C180.725 50.6203 183.875 52.2251 187.702 49.6934C189.872 46.6914 188.877 44.3395 184.732 42.6379C187.081 41.5726 188.504 40.3967 189.015 39.1101C188.78 38.2385 188.766 37.3808 188.946 36.5507C187.882 34.434 186.114 33.7561 183.627 34.5447ZM459.737 42.707C462.265 41.6003 463.785 40.3967 464.296 39.1101C464.614 38.3768 464.6 37.5883 464.227 36.7582L464.158 36.689C463.15 34.517 461.395 33.853 458.908 34.683C456.38 35.5131 454.805 37.4223 454.211 40.4243L299.542 40.3552V40.286L243.035 40.3552L202.9 40.4243C202.306 37.4223 200.731 35.5131 198.203 34.683C195.716 33.853 193.961 34.517 192.952 36.689L192.883 36.7582C192.51 37.5883 192.497 38.3768 192.814 39.1101C193.326 40.3967 194.845 41.6003 197.374 42.707C193.091 44.464 192.027 46.8574 194.196 49.901C197.968 52.3912 201.131 50.731 203.66 44.9205C205.967 44.9621 219.092 44.9621 243.035 44.9205H258.163C275.944 44.879 289.733 44.8514 299.542 44.8514V44.9205H314.67C331.291 44.879 344.444 44.8514 354.115 44.8514H368.345C376.731 44.8514 386.927 44.879 398.947 44.9205C432.52 44.9621 450.715 44.9621 453.52 44.9205C456.007 50.731 459.157 52.3912 462.984 49.901C465.153 46.8574 464.061 44.464 459.737 42.707ZM597.412 42.707C601.377 40.9501 602.869 38.9717 601.902 36.7582C600.894 34.5447 599.112 33.853 596.583 34.683C594 35.5131 592.439 37.4223 591.886 40.4243L478.181 40.286C477.629 37.3393 476.081 35.4163 473.553 34.5447C471.066 33.7561 469.311 34.434 468.303 36.5507C468.4 37.3808 468.33 38.2385 468.096 39.1101C468.648 40.3967 470.071 41.5726 472.379 42.6379C468.275 44.3395 467.308 46.6914 469.477 49.6934C473.249 52.2251 476.413 50.6203 478.941 44.8514C484.979 44.8514 504.197 44.879 536.622 44.9205C570.195 44.9621 588.363 44.9621 591.126 44.9205C593.654 50.731 596.818 52.3912 600.59 49.901C602.759 46.8574 601.695 44.464 597.412 42.707ZM635.958 166.318C635.503 161.753 633.375 158.917 629.603 157.81C625.873 156.662 622.212 156.537 618.62 157.464C615.027 158.391 612.927 160.826 612.333 164.796C611.739 168.808 614.088 171.81 619.379 173.789C619.283 175.214 618.647 178.52 617.445 183.68L620.416 183.819L620.692 181.882C620.927 180.402 621.203 179.226 621.521 178.354C621.659 177.842 622.004 177.109 622.557 176.141C622.695 175.822 622.806 175.546 622.902 175.311C622.999 175.352 623.041 175.407 623.041 175.449C623.179 175.629 623.289 175.975 623.386 176.486C623.427 177.04 623.427 178.119 623.386 179.738C623.289 181.398 623.206 182.781 623.11 183.888H625.182C625.044 181.356 624.975 178.949 624.975 176.694C624.975 176.099 625.155 175.698 625.527 175.518H625.942C626.218 176.251 626.453 177.067 626.633 177.939C626.729 178.396 626.799 179.073 626.84 179.945L626.909 182.366C626.951 182.919 626.978 183.445 626.978 183.957L630.294 184.026C629.368 179.046 628.608 175.241 628.014 172.613C633.72 172.931 636.373 170.842 635.958 166.318ZM627.462 163.136C628.249 162.818 629.009 162.749 629.741 162.929C630.57 163.108 631.261 163.482 631.814 164.035C632.366 164.547 632.739 165.114 632.919 165.765C633.154 166.498 633.099 167.148 632.781 167.702C632.366 168.435 631.537 168.988 630.294 169.362C629.368 169.638 628.539 169.708 627.807 169.569C627.02 169.472 626.356 169.085 625.804 168.393C625.348 167.84 625.085 167.176 625.044 166.387C625.003 165.654 625.21 164.976 625.666 164.381C626.08 163.786 626.674 163.371 627.462 163.136ZM615.304 165.488C615.345 164.976 615.539 164.52 615.856 164.105C616.133 163.69 616.547 163.385 617.1 163.205C617.556 163.025 618.412 162.97 619.656 163.067C620.72 163.164 621.452 163.302 621.866 163.482C622.46 163.759 622.902 164.201 623.179 164.796C623.455 165.391 623.524 166 623.386 166.595C623.289 167.66 622.833 168.435 622.004 168.947C621.355 169.32 620.512 169.431 619.449 169.293C618.246 169.154 617.279 168.781 616.547 168.186C615.677 167.397 615.262 166.498 615.304 165.488ZM625.804 95.4856C625.845 82.2045 625.845 74.7615 625.804 73.1429C632.297 70.8879 634.135 68.0518 631.33 64.6347C627.973 62.6979 625.32 63.6663 623.386 67.5399C621.452 63.9845 619.241 62.6563 616.754 63.5279C614.226 64.3995 613.411 65.9905 614.337 68.3008C615.304 70.5558 617.445 71.967 620.761 72.5203L620.692 95.4856H620.623V135.398C617.307 135.951 615.166 137.363 614.198 139.618C613.273 141.873 614.06 143.464 616.547 144.39C619.034 145.262 621.272 144.017 623.248 140.655C625.182 144.349 627.835 145.193 631.192 143.215C633.955 139.853 632.118 137.031 625.666 134.775C625.707 131.967 625.735 125.921 625.735 116.652C625.735 113.47 625.735 109.943 625.735 106.069C625.735 102.79 625.735 99.2624 625.735 95.4856H625.804ZM624.975 43.6063C624.975 42.9561 625.155 42.5964 625.527 42.4995C625.666 42.458 625.804 42.4303 625.942 42.4303C626.218 43.1636 626.453 43.9798 626.633 44.8514C626.729 45.3079 626.799 45.9858 626.84 46.8574L626.909 49.2784C626.951 49.8318 626.978 50.3575 626.978 50.8694L630.294 50.9385C629.368 45.9581 628.608 42.126 628.014 39.4559C633.72 39.8295 636.373 37.7543 635.958 33.2304C635.503 28.665 633.375 25.829 629.603 24.7222C625.873 23.5739 622.212 23.4494 618.62 24.3763C615.027 25.3033 612.927 27.7381 612.333 31.7086C611.739 35.7206 614.088 38.7227 619.379 40.701C619.283 42.126 618.647 45.4324 617.445 50.5927L620.416 50.731L620.692 48.7942C620.927 47.3139 621.203 46.138 621.521 45.2664C621.659 44.7545 622.004 44.0213 622.557 43.0529C622.695 42.7347 622.806 42.458 622.902 42.2228C622.999 42.2643 623.041 42.3197 623.041 42.3612C623.179 42.541 623.289 42.873 623.386 43.3296C623.427 43.9245 623.427 45.0312 623.386 46.6499C623.289 48.2685 623.206 49.6519 623.11 50.8002H625.182C625.044 48.2685 624.975 45.8613 624.975 43.6063ZM631.814 30.9477C632.366 31.4596 632.739 32.0268 632.919 32.677C633.154 33.4103 633.099 34.0605 632.781 34.6139C632.366 35.3056 631.537 35.859 630.294 36.274C629.368 36.5507 628.539 36.6475 627.807 36.5507C627.02 36.3708 626.356 35.9558 625.804 35.3056C625.348 34.7107 625.085 34.0328 625.044 33.2996C625.003 32.5664 625.21 31.9161 625.666 31.3628C626.08 30.7679 626.674 30.2975 627.462 29.9793C628.249 29.7441 629.009 29.7026 629.741 29.841C630.57 30.0208 631.261 30.3943 631.814 30.9477ZM619.656 29.9101C620.72 30.0485 621.452 30.2145 621.866 30.3943C622.46 30.671 622.902 31.1137 623.179 31.7086C623.455 32.3035 623.524 32.9122 623.386 33.5071C623.289 34.5724 622.833 35.3471 622.004 35.859C621.355 36.2325 620.512 36.3432 619.449 36.2048C618.246 36.0665 617.279 35.6791 616.547 35.0289C615.677 34.2957 615.262 33.4103 615.304 32.4003C615.345 31.8885 615.539 31.4319 615.856 31.0169C616.133 30.6019 616.547 30.2975 617.1 30.1177C617.556 29.9378 618.412 29.8686 619.656 29.9101Z" fill="#C0B8AA"/>
<path d="M609.225 125.852L609.501 79.9909C597.799 73.5302 590.808 66.0181 588.501 57.4408C371.868 57.4823 222.864 57.5099 141.488 57.5099C92.8565 57.4684 68.3609 57.4408 67.9879 57.4408C65.6392 66.0181 58.6346 73.5302 46.9878 79.9909L47.195 125.852C58.6622 131.981 65.5978 139.452 67.9879 148.264H588.501C590.85 139.452 597.758 131.981 609.225 125.852ZM603.975 83.3112V122.394C593.613 128.716 587.299 135.564 585.047 142.938H71.3728C69.1208 135.564 62.807 128.716 52.4451 122.394V83.3112C62.807 76.9889 69.1208 70.1408 71.3728 62.767H585.047C587.299 70.1408 593.613 76.9889 603.975 83.3112Z" fill="#545862"/>
</svg>
