<svg xmlns="http://www.w3.org/2000/svg" id="a" viewBox="9.94 24.1 232.69 191.4"><defs><style>.q{fill:#807da6}</style></defs><path id="b" d="M217.28 65.75c-17.9-15.59-40.92-23.48-69.05-23.67-28.06-.1-53.12 7.44-75.17 22.61-21.83 15.2-34.19 33.72-37.08 55.55-2.76 21.73 4.77 40.34 22.61 55.84 17.97 15.46 40.98 23.32 69.05 23.58 28.13.13 53.15-7.39 75.07-22.57 21.92-15.3 34.33-33.8 37.22-55.5 2.8-21.79-4.76-40.41-22.66-55.84Z" style="fill:#161b29"/><path id="c" d="M77.26 66.66c-20.73 14.14-32.45 31.28-35.15 51.4-2.67 20.19 4.48 37.45 21.46 51.79 16.97 14.37 38.75 21.62 65.33 21.75 26.62.23 50.29-6.73 71.02-20.88 20.8-14.14 32.55-31.28 35.25-51.4 2.67-20.19-4.48-37.45-21.46-51.79-16.97-14.34-38.77-21.59-65.38-21.75q-39.87-.285-71.07 20.88" style="fill:#5d6788"/><g id="d"><path d="m140.05 71.2.6 2.9c-.77-.77-1.58-1.47-2.45-2.1-3.17-2.4-6.55-3.9-10.15-4.5-2.17-.37-5.18-.42-9.05-.15-4.8.33-8.43.87-10.9 1.6-1.77.5-4.02 1.37-6.75 2.6-4.27 2-7.78 3.73-10.55 5.2-1.47.77-2.7 1.52-3.7 2.25.2-.37.32-.72.35-1.05q.105-.555-.15-1.05c-.2-.37-.45-.6-.75-.7-.77-.23-1.55.2-2.35 1.3-9.93 13.33-16.62 30.22-20.05 50.65q-1.095 6.75-1.2 11.4v.75c-.23 2.33-.38 4.7-.45 7.1-.13 3.63.25 6.42 1.15 8.35.63 1.43 1.9 3.1 3.8 5 3.33 3.33 7.27 6.67 11.8 10 3.43 2.53 7.73 5.42 12.9 8.65 11.33 7.07 21.38 12.43 30.15 16.1q17.145 7.2 32.7 8.1 7.65.45 13.5-.9c3.13-.73 6.85-2.12 11.15-4.15 4.7-2.3 8.67-4.57 11.9-6.8 4.67-3.23 8.83-6.95 12.5-11.15.1 2.07.27 4.35.5 6.85.13 1.57.53 2.63 1.2 3.2 1.2 1 2.83.78 4.9-.65 2.33-1.6 4.87-4.2 7.6-7.8 4-5.3 7.88-11.58 11.65-18.85 2.5-4.77 5.68-11.45 9.55-20.05 1.33-2.93 2.22-5.3 2.65-7.1.67-2.7.7-5.12.1-7.25-.97-3.37-3.28-6.02-6.95-7.95-2.53-1.37-6-2.32-10.4-2.85q-12-1.395-32.1 1.5c-15.93 2.3-26.67 3.48-32.2 3.55-1.2 0-2.05-.17-2.55-.5-.6-.4-1.12-1.33-1.55-2.8l-7.6-28.95c-.13-.47-.25-.93-.35-1.4 0-2.7-.87-5.6-2.6-8.7-1-2.67-2.08-5-3.25-7-.83-1.43-1.7-2.32-2.6-2.65m-32.45 1.4c4.27-1.2 8.63-1.8 13.1-1.8q6.75-.105 11.4 1.95c4.37 1.9 7.83 5.22 10.4 9.95 2.9 13.3 6.07 26.22 9.5 38.75.7 2.47 1.57 4.08 2.6 4.85.67.47 1.5.77 2.5.9.67.07 1.58.07 2.75 0 3.67-.2 14.4-1.57 32.2-4.1 13.1-1.87 23.83-2.35 32.2-1.45 3.7.37 6.58 1.15 8.65 2.35 1.37.8 2.47 1.83 3.3 3.1q1.35 2.055 1.35 4.2-.045 1.905-1.5 5.1-7.395 16.95-11.85 25.35-7.305 13.695-15.45 23.1l-.9-6.3c-.2-1.27-.6-2.03-1.2-2.3a.93.93 0 0 0-.45-.1c-.03-.17-.1-.3-.2-.4q-.405-.555-1.2-.6c-.53-.07-1.02.02-1.45.25-.47.23-1.17.9-2.1 2-1.57 1.83-3.6 3.55-6.1 5.15-1.57 1.03-3.93 2.35-7.1 3.95-4.83 2.53-8.63 4.37-11.4 5.5-4.33 1.77-8.37 2.88-12.1 3.35q-7.395.9-18.9-1.35c-6.17-1.2-11.5-2.62-16-4.25-2.97-1.07-6.33-2.52-10.1-4.35-15.57-7.53-29.28-16.02-41.15-25.45-1.73-1.4-3.07-2.55-4-3.45-1.37-1.37-2.43-2.75-3.2-4.15-1.47-2.7-2.2-6.7-2.2-12 0-3.4.18-7.27.55-11.6q.3-3.345 1.2-11.55l.6-5.3c1.9-6.3 4.3-12.37 7.2-18.2q1.245-2.1 3.6-5.1c2.6-3.27 4.72-5.53 6.35-6.8 1.3-1 2.98-2.05 5.05-3.15 5.47-2.93 10.15-4.95 14.05-6.05m67.4 87.95c.07-.47-.03-.9-.3-1.3-.3-.43-.67-.63-1.1-.6-.6.03-1.2.22-1.8.55-.27.13-.83.6-1.7 1.4l-3.5 3.6c-.5.5-.73.92-.7 1.25 0 .37.18.65.55.85.33.2.72.3 1.15.3 1.13-.07 2.5-.77 4.1-2.1.43-.37 1.05-.95 1.85-1.75.87-.8 1.35-1.53 1.45-2.2m1.4-12.05c-.57-.27-1.12-.28-1.65-.05-.13.07-.45.3-.95.7-1.67 1.67-2.65 2.68-2.95 3.05-.57.63-.87 1.2-.9 1.7-.03.33.05.65.25.95.23.3.5.47.8.5q.405 0 .9-.3c1.93-1 3.28-1.83 4.05-2.5 1.07-.87 1.53-1.77 1.4-2.7-.1-.63-.42-1.08-.95-1.35m8.2 4.5c-.3.07-.72.27-1.25.6-1.23.87-2.48 1.93-3.75 3.2-.33.4-.53.73-.6 1-.07.3 0 .6.2.9.17.27.4.47.7.6.57.2 1.2.18 1.9-.05 1.07-.3 2.45-1.17 4.15-2.6q.855-.645 1.05-1.2c.195-.555.13-.77 0-1.2-.13-.4-.37-.72-.7-.95-.5-.37-1.07-.47-1.7-.3"/><path d="M120.7 70.8c-4.47 0-8.83.6-13.1 1.8-3.9 1.1-8.58 3.12-14.05 6.05-2.07 1.1-3.75 2.15-5.05 3.15-1.63 1.27-3.75 3.53-6.35 6.8q-2.355 3-3.6 5.1c-2.9 5.83-5.3 11.9-7.2 18.2l-.6 5.3q-.9 8.205-1.2 11.55c-.37 4.33-.55 8.2-.55 11.6 0 5.3.73 9.3 2.2 12 .77 1.4 1.83 2.78 3.2 4.15.93.9 2.27 2.05 4 3.45 11.87 9.43 25.58 17.92 41.15 25.45 3.77 1.83 7.13 3.28 10.1 4.35 4.5 1.63 9.83 3.05 16 4.25q11.505 2.25 18.9 1.35c3.73-.47 7.77-1.58 12.1-3.35 2.77-1.13 6.57-2.97 11.4-5.5 3.17-1.6 5.53-2.92 7.1-3.95 2.5-1.6 4.53-3.32 6.1-5.15.93-1.1 1.63-1.77 2.1-2 .43-.23.92-.32 1.45-.25q.795.045 1.2.6c.1.1.17.23.2.4.17 0 .32.03.45.1.6.27 1 1.03 1.2 2.3l.9 6.3q8.145-9.405 15.45-23.1 4.455-8.4 11.85-25.35 1.455-3.195 1.5-5.1 0-2.145-1.35-4.2c-.83-1.27-1.93-2.3-3.3-3.1-2.07-1.2-4.95-1.98-8.65-2.35-8.37-.9-19.1-.42-32.2 1.45-17.8 2.53-28.53 3.9-32.2 4.1-1.17.07-2.08.07-2.75 0-1-.13-1.83-.43-2.5-.9-1.03-.77-1.9-2.38-2.6-4.85-3.43-12.53-6.6-25.45-9.5-38.75-2.57-4.73-6.03-8.05-10.4-9.95q-4.65-2.055-11.4-1.95m62.65 82.8c.53-.33.95-.53 1.25-.6.63-.17 1.2-.07 1.7.3.33.23.57.55.7.95q.195.645 0 1.2c-.195.555-.48.77-1.05 1.2-1.7 1.43-3.08 2.3-4.15 2.6-.7.23-1.33.25-1.9.05-.3-.13-.53-.33-.7-.6-.2-.3-.27-.6-.2-.9.07-.27.27-.6.6-1 1.27-1.27 2.52-2.33 3.75-3.2m-8.6-5.15c.53-.23 1.08-.22 1.65.05.53.27.85.72.95 1.35.13.93-.33 1.83-1.4 2.7-.77.67-2.12 1.5-4.05 2.5q-.495.3-.9.3c-.3-.03-.57-.2-.8-.5-.2-.3-.28-.62-.25-.95.03-.5.33-1.07.9-1.7.3-.37 1.28-1.38 2.95-3.05.5-.4.82-.63.95-.7m-.05 10.8c.27.4.37.83.3 1.3-.1.67-.58 1.4-1.45 2.2-.8.8-1.42 1.38-1.85 1.75-1.6 1.33-2.97 2.03-4.1 2.1-.43 0-.82-.1-1.15-.3-.37-.2-.55-.48-.55-.85-.03-.33.2-.75.7-1.25l3.5-3.6c.87-.8 1.43-1.27 1.7-1.4.6-.33 1.2-.52 1.8-.55.43-.03.8.17 1.1.6" class="q"/></g><g id="e"><path d="m140.05 71.2.6 2.9c-.77-.77-1.58-1.47-2.45-2.1-3.17-2.4-6.55-3.9-10.15-4.5-2.17-.37-5.18-.42-9.05-.15-4.8.33-8.43.87-10.9 1.6-1.77.5-4.02 1.37-6.75 2.6-4.27 2-7.78 3.73-10.55 5.2-1.47.77-2.7 1.52-3.7 2.25.2-.37.32-.72.35-1.05q.105-.555-.15-1.05c-.2-.37-.45-.6-.75-.7-.77-.23-1.55.2-2.35 1.3-9.93 13.33-16.62 30.22-20.05 50.65q-1.095 6.75-1.2 11.4v.75c-.23 2.33-.38 4.7-.45 7.1-.13 3.63.25 6.42 1.15 8.35.63 1.43 1.9 3.1 3.8 5 3.33 3.33 7.27 6.67 11.8 10 3.43 2.53 7.73 5.42 12.9 8.65 11.33 7.07 21.38 12.43 30.15 16.1 10.3 4.33 20.17 6.95 29.6 7.85-.3.57-.62 1.15-.95 1.75-.57.9-.68 1.6-.35 2.1q.555.855 1.65.45c.43-.17.9-.53 1.4-1.1.5-.6 1.15-1.57 1.95-2.9 4.87.23 9.17-.08 12.9-.95 2.73-.63 5.93-1.77 9.6-3.4.53 1.1 1 1.9 1.4 2.4.77-.8 1.03-1.82.8-3.05 0-.13-.02-.25-.05-.35 4.43-2.23 8.2-4.42 11.3-6.55 4.67-3.23 8.83-6.95 12.5-11.15.1 2.07.27 4.35.5 6.85.13 1.57.53 2.63 1.2 3.2 1.2 1 2.83.78 4.9-.65 2.33-1.6 4.87-4.2 7.6-7.8 3.23-4.27 6.38-9.18 9.45-14.75.9.4 1.92.77 3.05 1.1q2.25.645 3-.45c.2-.3.27-.65.2-1.05s-.23-.75-.5-1.05q-.345-.405-1.95-1.2l-1.9-.8c.1-.23.2-.45.3-.65 2.5-4.77 5.68-11.45 9.55-20.05 1.33-2.93 2.22-5.3 2.65-7.1.67-2.7.7-5.12.1-7.25-.97-3.37-3.28-6.02-6.95-7.95-2.53-1.37-6-2.32-10.4-2.85q-12-1.395-32.1 1.5c-15.93 2.3-26.67 3.48-32.2 3.55-1.2 0-2.05-.17-2.55-.5-.6-.4-1.12-1.33-1.55-2.8l-7.6-28.95c-.13-.47-.25-.93-.35-1.4 0-2.7-.87-5.6-2.6-8.7-1-2.67-2.08-5-3.25-7-.83-1.43-1.7-2.32-2.6-2.65m-32.45 1.4c4.27-1.2 8.63-1.8 13.1-1.8q6.75-.105 11.4 1.95c4.37 1.9 7.83 5.22 10.4 9.95 2.9 13.3 6.07 26.22 9.5 38.75.7 2.47 1.57 4.08 2.6 4.85.67.47 1.5.77 2.5.9.67.07 1.58.07 2.75 0 3.67-.2 14.4-1.57 32.2-4.1 13.1-1.87 23.83-2.35 32.2-1.45 3.7.37 6.58 1.15 8.65 2.35 1.37.8 2.47 1.83 3.3 3.1q1.35 2.055 1.35 4.2c-.03.77-.22 1.7-.55 2.8-.57-.83-1.28-1.8-2.15-2.9-.43-.6-.87-.82-1.3-.65q-.195.105-.3.3c-.1.17-.17.38-.2.65 0 .53.08.97.25 1.3v.05c.1-.03.17-.07.2-.1.17-.13.2-.32.1-.55.17.1.33.23.5.4.33.3.63.72.9 1.25.23.47.55 1.17.95 2.1l.2.3s-.07.08-.1.15q-7.395 16.95-11.85 25.35c-.47-.13-.87-.22-1.2-.25-1.23-.13-2.17.15-2.8.85.17.23.45.45.85.65.2.1.53.25 1 .45.17.1.45.33.85.7-4.47 8.1-9.18 15-14.15 20.7l-.9-6.3c-.2-1.27-.6-2.03-1.2-2.3a.93.93 0 0 0-.45-.1c-.03-.17-.1-.3-.2-.4q-.405-.555-1.2-.6c-.53-.07-1.02.02-1.45.25-.47.23-1.17.9-2.1 2-1.57 1.83-3.6 3.55-6.1 5.15-1.57 1.03-3.93 2.35-7.1 3.95-4.4 2.3-7.95 4.03-10.65 5.2l-.6-1.25c-.47-1-.88-1.68-1.25-2.05-.73-.67-1.47-.88-2.2-.65-.33.53-.25 1.3.25 2.3l1.3 2.65c-3.67 1.37-7.12 2.25-10.35 2.65-1.43.17-2.97.25-4.6.25.2-.97.07-1.83-.4-2.6-.97.5-1.92 1.33-2.85 2.5-3.3-.2-6.98-.7-11.05-1.5-6.17-1.2-11.5-2.62-16-4.25-.93-.33-1.9-.7-2.9-1.1 1.83-2.83 3.55-5.43 5.15-7.8.93.17 1.97.35 3.1.55.67.13 1.2.13 1.6 0 .27-.07.48-.22.65-.45s.23-.47.2-.7c-.1-.6-.63-.97-1.6-1.1l-2.45-.5c.87-1.27 1.7-2.45 2.5-3.55 4.53-6.23 9.03-11.65 13.5-16.25 4.57-4.63 11.53-10.63 20.9-18 4.73-3.63 8.33-6.1 10.8-7.4.23-.13.45-.27.65-.4q.345-.255.6-.6c.33-.5.35-.93.05-1.3-.4-.47-1.03-.45-1.9.05-.07.03-.13.07-.2.1-2.77 1.6-6.72 4.33-11.85 8.2-5.23 3.9-9.22 6.97-11.95 9.2-4.3 3.5-8 6.87-11.1 10.1-1.97 2.03-3.97 4.32-6 6.85-.47-.23-.98-.43-1.55-.6-2.37-.73-3.67-1.15-3.9-1.25-1.1-.47-1.67-.7-1.7-.7-.77-.13-1.37-.05-1.8.25-.23.2-.38.47-.45.8-.1.33-.05.62.15.85.13.17.43.35.9.55l6.05 2.15c.2.03.38.08.55.15q-1.2 1.5-2.4 3.15c-1.33 1.8-3 4.13-5 7l-.3-.05c-1.67-.33-2.68-.52-3.05-.55-1.6-.17-3.13-.15-4.6.05.83.97 2.37 1.75 4.6 2.35.53.13 1.15.28 1.85.45-.83 1.2-1.72 2.48-2.65 3.85-.83 1.2-1.55 2.32-2.15 3.35-1.4-.63-2.87-1.32-4.4-2.05q-5.85-2.85-11.4-5.85c2.6-3.47 4.48-6.13 5.65-8 2.03-3.3 4.77-7.37 8.2-12.2-4.23-.43-6.7-.72-7.4-.85-8.33-1.37-16.47-4.62-24.4-9.75-7.13-4.57-13.83-10.43-20.1-17.6-.23-.27-.47-.48-.7-.65.07-.6.12-1.18.15-1.75q.3-3.345 1.2-11.55l.6-5.3c1.9-6.3 4.3-12.37 7.2-18.2q1.245-2.1 3.6-5.1c2.6-3.27 4.72-5.53 6.35-6.8 1.3-1 2.98-2.05 5.05-3.15 5.47-2.93 10.15-4.95 14.05-6.05m-6.55 85.35c4.7 1.93 9.6 3.22 14.7 3.85l-11.45 15.55c-9.43-5.37-18.07-11.17-25.9-17.4-1.73-1.4-3.07-2.55-4-3.45-1.37-1.37-2.43-2.75-3.2-4.15-1.47-2.7-2.2-6.7-2.2-12 0-2.53.1-5.32.3-8.35 2.47 4.27 5.57 8.13 9.3 11.6q3.255 2.955 8.25 6.45c5.17 3.5 9.9 6.13 14.2 7.9m41.9 27.55c.77-.1 1.23-.18 1.4-.25.13-.03.62-.35 1.45-.95.83-.4 1.45-.7 1.85-.9l1.8-1.05c1-.63 1.48-1.27 1.45-1.9-.07-.33-.2-.55-.4-.65-.23-.07-.52 0-.85.2-2.17 1.3-3.95 2.5-5.35 3.6-.6.47-.98.92-1.15 1.35-.67 0-1.22.27-1.65.8l.2.25c.27-.27.68-.43 1.25-.5M175 160.55c.07-.47-.03-.9-.3-1.3-.3-.43-.67-.63-1.1-.6-.6.03-1.2.22-1.8.55-.27.13-.83.6-1.7 1.4l-3.5 3.6c-.5.5-.73.92-.7 1.25 0 .37.18.65.55.85.33.2.72.3 1.15.3 1.13-.07 2.5-.77 4.1-2.1.43-.37 1.05-.95 1.85-1.75.87-.8 1.35-1.53 1.45-2.2m1.4-12.05c-.57-.27-1.12-.28-1.65-.05-.13.07-.45.3-.95.7-1.67 1.67-2.65 2.68-2.95 3.05-.57.63-.87 1.2-.9 1.7-.03.33.05.65.25.95.23.3.5.47.8.5q.405 0 .9-.3c1.93-1 3.28-1.83 4.05-2.5 1.07-.87 1.53-1.77 1.4-2.7-.1-.63-.42-1.08-.95-1.35m8.2 4.5c-.3.07-.72.27-1.25.6-1.23.87-2.48 1.93-3.75 3.2-.33.4-.53.73-.6 1-.07.3 0 .6.2.9.17.27.4.47.7.6.57.2 1.2.18 1.9-.05 1.07-.3 2.45-1.17 4.15-2.6q.855-.645 1.05-1.2c.195-.555.13-.77 0-1.2-.13-.4-.37-.72-.7-.95-.5-.37-1.07-.47-1.7-.3"/><path d="M115.75 161.8c-5.1-.63-10-1.92-14.7-3.85-4.3-1.77-9.03-4.4-14.2-7.9q-4.995-3.495-8.25-6.45c-3.73-3.47-6.83-7.33-9.3-11.6-.2 3.03-.3 5.82-.3 8.35 0 5.3.73 9.3 2.2 12 .77 1.4 1.83 2.78 3.2 4.15.93.9 2.27 2.05 4 3.45 7.83 6.23 16.47 12.03 25.9 17.4zm117.5-30.95c-.2-.03-.4-.07-.6-.1h-3.1c-1.17 0-2.33-.02-3.5-.05v.15c-7.07-.03-14.12-.07-21.15-.1-2.5-.03-5-.05-7.5-.05-5.33-.03-10.65-.07-15.95-.1-.2.07-.38.12-.55.15l-.15.15a1 1 0 0 0-.25.25v.05c.87-.5 1.5-.52 1.9-.05.3.37.28.8-.05 1.3q-.255.345-.6.6c-.2.13-.42.27-.65.4-2.47 1.3-6.07 3.77-10.8 7.4-9.37 7.37-16.33 13.37-20.9 18-4.47 4.6-8.97 10.02-13.5 16.25-.8 1.1-1.63 2.28-2.5 3.55l2.45.5c.97.13 1.5.5 1.6 1.1.03.23-.03.47-.2.7s-.38.38-.65.45c-.4.13-.93.13-1.6 0-1.13-.2-2.17-.38-3.1-.55-1.6 2.37-3.32 4.97-5.15 7.8 1 .4 1.97.77 2.9 1.1 4.5 1.63 9.83 3.05 16 4.25 4.07.8 7.75 1.3 11.05 1.5.93-1.17 1.88-2 2.85-2.5.47.77.6 1.63.4 2.6 1.63 0 3.17-.08 4.6-.25 3.23-.4 6.68-1.28 10.35-2.65l-1.3-2.65c-.5-1-.58-1.77-.25-2.3.73-.23 1.47-.02 2.2.65.37.37.78 1.05 1.25 2.05l.6 1.25c2.7-1.17 6.25-2.9 10.65-5.2 3.17-1.6 5.53-2.92 7.1-3.95 2.5-1.6 4.53-3.32 6.1-5.15.93-1.1 1.63-1.77 2.1-2 .43-.23.92-.32 1.45-.25q.795.045 1.2.6c.1.1.17.23.2.4.17 0 .32.03.45.1.6.27 1 1.03 1.2 2.3l.9 6.3c4.97-5.7 9.68-12.6 14.15-20.7-.4-.37-.68-.6-.85-.7-.47-.2-.8-.35-1-.45-.4-.2-.68-.42-.85-.65.63-.7 1.57-.98 2.8-.85.33.03.73.12 1.2.25q4.455-8.4 11.85-25.35c.03-.07.07-.12.1-.15l-.2-.3c-.4-.93-.72-1.63-.95-2.1-.27-.53-.57-.95-.9-1.25-.17-.17-.33-.3-.5-.4.1.23.07.42-.1.55-.03.03-.1.07-.2.1v-.05c-.17-.33-.25-.77-.25-1.3.03-.27.1-.48.2-.65m-49.9 22.75c.53-.33.95-.53 1.25-.6.63-.17 1.2-.07 1.7.3.33.23.57.55.7.95q.195.645 0 1.2c-.195.555-.48.77-1.05 1.2-1.7 1.43-3.08 2.3-4.15 2.6-.7.23-1.33.25-1.9.05-.3-.13-.53-.33-.7-.6-.2-.3-.27-.6-.2-.9.07-.27.27-.6.6-1 1.27-1.27 2.52-2.33 3.75-3.2m-8.6-5.15c.53-.23 1.08-.22 1.65.05.53.27.85.72.95 1.35.13.93-.33 1.83-1.4 2.7-.77.67-2.12 1.5-4.05 2.5q-.495.3-.9.3c-.3-.03-.57-.2-.8-.5-.2-.3-.28-.62-.25-.95.03-.5.33-1.07.9-1.7.3-.37 1.28-1.38 2.95-3.05.5-.4.82-.63.95-.7m-.05 10.8c.27.4.37.83.3 1.3-.1.67-.58 1.4-1.45 2.2-.8.8-1.42 1.38-1.85 1.75-1.6 1.33-2.97 2.03-4.1 2.1-.43 0-.82-.1-1.15-.3-.37-.2-.55-.48-.55-.85-.03-.33.2-.75.7-1.25l3.5-3.6c.87-.8 1.43-1.27 1.7-1.4.6-.33 1.2-.52 1.8-.55.43-.03.8.17 1.1.6m-30.35 26c-.17.07-.63.15-1.4.25-.57.07-.98.23-1.25.5l-.2-.25c.43-.53.98-.8 1.65-.8.17-.43.55-.88 1.15-1.35 1.4-1.1 3.18-2.3 5.35-3.6.33-.2.62-.27.85-.2.2.1.33.32.4.65.03.63-.45 1.27-1.45 1.9l-1.8 1.05c-.4.2-1.02.5-1.85.9-.83.6-1.32.92-1.45.95" style="fill:#605d81"/></g><g id="f"><path d="M222.5 148.95c2.23-1.83 4.33-3.77 6.3-5.8 2.27-2.4 4.08-5.1 5.45-8.1 1-2.2.7-4.18-.9-5.95-1.43-1.53-3.17-2.6-5.2-3.2-3.13-.77-6.3-1.22-9.5-1.35-2.67-.03-5.3-.07-7.9-.1-2.97-.07-5.93.1-8.9.5-2.87.2-5.77.53-8.7 1-3.03.67-6.02 1.48-8.95 2.45-2.6 1-5.08 2.2-7.45 3.6-1.63 1-2.45 2.45-2.45 4.35.53 1.8 1.42 3.32 2.65 4.55 2.13 2.07 4.5 3.88 7.1 5.45s5.37 2.85 8.3 3.85c2.53.8 5.15 1.57 7.85 2.3 3.07.83 6.2 1.28 9.4 1.35a17.7 17.7 0 0 0 8.15-1.85c1.73-.8 3.32-1.82 4.75-3.05m8.7-14.35a40 40 0 0 0-8.45-1.1c-3.23-.27-6.48-.35-9.75-.25-2.97.07-5.97.1-9 .1-3.67.03-7.33.38-11 1.05-4.53.67-9 1.75-13.4 3.25l-2.15-2.4c2.2-1.8 4.68-3.07 7.45-3.8 2.73-.73 5.5-1.32 8.3-1.75s5.62-.73 8.45-.9c3.1-.33 6.22-.53 9.35-.6 2.73-.07 5.52 0 8.35.2 3.1.07 6.18.48 9.25 1.25 2.8.73 3.67 2.38 2.6 4.95"/><path d="M222.75 133.5c2.87.07 5.68.43 8.45 1.1 1.07-2.57.2-4.22-2.6-4.95-3.07-.77-6.15-1.18-9.25-1.25-2.83-.2-5.62-.27-8.35-.2-3.13.07-6.25.27-9.35.6-2.83.17-5.65.47-8.45.9s-5.57 1.02-8.3 1.75c-2.77.73-5.25 2-7.45 3.8l2.15 2.4c4.4-1.5 8.87-2.58 13.4-3.25 3.67-.67 7.33-1.02 11-1.05 3.03 0 6.03-.03 9-.1 3.27-.1 6.52-.02 9.75.25" style="fill:#d6dee8"/></g><g id="g"><g id="h"><path d="m144.15 118.35-1 1.65q-.6 1.05-.75 1.8c-.4.67-.57 1.43-.5 2.3 0 .2.03.38.1.55-.07.23-.1.48-.1.75q.045 1.05.75 1.8c.57.6 1.73 1.15 3.5 1.65.1.03.2.07.3.1.27.77 1.17 1.5 2.7 2.2.93.37 1.72.63 2.35.8 1.03.3 2.63.48 4.8.55 5 0 8.97-.7 11.9-2.1l1.45-.65c.33-.07.55-.17.65-.3.23-.23.22-.48-.05-.75-.17-.17-.48-.22-.95-.15-2.83.57-4.97.95-6.4 1.15s-3.62.3-6.55.3c-1.37 0-2.4-.05-3.1-.15-.3-.07-.78-.18-1.45-.35.73-.07 1.58-.18 2.55-.35 5.97-1.07 10.45-2.8 13.45-5.2 1.07-.9 1.87-1.73 2.4-2.5.9-1.23 1.47-2.58 1.7-4.05.2-1 .17-1.83-.1-2.5-.33-1.1-1.18-1.98-2.55-2.65-1.93-1.03-4.55-1.4-7.85-1.1-4.23.4-8.22 1.5-11.95 3.3-2.4 1.13-4.17 2.43-5.3 3.9m.5 5.75c.07-.13.13-.28.2-.45.03-.07.12-.45.25-1.15.03-.13.07-.25.1-.35v-.05c.1-.2.18-.45.25-.75.3-.77.78-1.45 1.45-2.05l1.35-1.05q6.75-4.35 14.7-4.2 2.4 0 4.2.6c.87.33 1.45.73 1.75 1.2.57.83.48 1.93-.25 3.3-.93 1.6-2.67 3.02-5.2 4.25-2.9 1.43-5.82 2.38-8.75 2.85q-5.595 1.005-9.45-.75c-.03 0-.05-.02-.05-.05-.27-.53-.45-.98-.55-1.35m1.9-1.9c-.03.17.05.43.25.8q.15.345.9.6c.63.2 1.33.23 2.1.1 1.3-.23 2.47-.68 3.5-1.35.87-.6 1.37-1.13 1.5-1.6.24-.7.16-1.3-.25-1.8-.37-.5-.82-.83-1.35-1-.67-.23-1.57-.17-2.7.2-1.03.33-1.9.87-2.6 1.6-.73.73-1.18 1.55-1.35 2.45m-9.2-5.3c.27-.97.32-1.95.15-2.95-.33-1.73-1.22-2.98-2.65-3.75-.93-.53-2.23-.8-3.9-.8-3.13-.03-6.48.53-10.05 1.7-2.73.87-5.9 2.2-9.5 4-1.27.67-2.18 1.2-2.75 1.6-.97.67-2 1.58-3.1 2.75-1.03.97-1.8 1.82-2.3 2.55q-.9 1.2-1.5 2.85c-.27.93-.28 1.65-.05 2.15.1.17.22.32.35.45v.05c.17.87.58 1.58 1.25 2.15.43.4 1.15.83 2.15 1.3 2.07.8 3.95.98 5.65.55.53-.03 1.1-.08 1.7-.15 6.13-.67 11.52-2.52 16.15-5.55-3.83 3.57-8.58 6.5-14.25 8.8-.27.1-1.9.7-4.9 1.8l-5.65 2c-.03.2.18.3.65.3.13 0 .65.13 1.55.4.53.17 1.23.18 2.1.05 3.93-.5 8-1.82 12.2-3.95 6.07-3.1 10.85-6.93 14.35-11.5 1.87-2.37 2.72-4.48 2.55-6.35 0-.2-.07-.35-.2-.45m-31.45 5.35c.27-.37.42-.58.45-.65.07-.1.12-.18.15-.25v-.05c.93-1.07 1.67-1.83 2.2-2.3 1.17-1.07 2.98-2.1 5.45-3.1 2.07-.83 3.85-1.43 5.35-1.8 4.07-1.1 8.2-1.45 12.4-1.05.7.07 1.2.2 1.5.4.23.2.45.53.65 1 .17.4.23.75.2 1.05-.03.4-.2.8-.5 1.2-.3.47-.97 1.22-2 2.25-.8.87-1.6 1.6-2.4 2.2-1 .77-2.48 1.6-4.45 2.5-2.93 1.4-5.17 2.32-6.7 2.75-2.03.6-4.5.98-7.4 1.15q-2.1.195-3.45 0c-1.27-.2-2.28-.63-3.05-1.3 0-.4.15-.93.45-1.6zm9.55-2.95c-1.44.46-2.71 1.14-3.8 2.05-1.1.94-1.75 1.66-1.95 2.15-.16.53.02 1.03.55 1.5q1.2.555 2.55.15 1.365-.36 2.25-.6.945-.18 3-1.2c1.4-.67 2.22-1.39 2.45-2.15.07-.2.1-.38.1-.55s-.02-.33-.05-.5c-.24-.6-.79-1.02-1.65-1.25-.86-.19-2.01-.06-3.45.4"/><path d="M144.85 123.65c-.07.17-.13.32-.2.45.1.37.28.82.55 1.35 0 .03.02.05.05.05q3.855 1.755 9.45.75c2.93-.47 5.85-1.42 8.75-2.85 2.53-1.23 4.27-2.65 5.2-4.25.73-1.37.82-2.47.25-3.3-.3-.47-.88-.87-1.75-1.2q-1.8-.6-4.2-.6-7.95-.15-14.7 4.2l-1.35 1.05c-.67.6-1.15 1.28-1.45 2.05-.07.3-.15.55-.25.75v.05c-.03.1-.07.22-.1.35-.13.7-.22 1.08-.25 1.15m1.95-.65c-.2-.37-.28-.63-.25-.8.17-.9.62-1.72 1.35-2.45.7-.73 1.57-1.27 2.6-1.6 1.13-.37 2.03-.43 2.7-.2.53.17.98.5 1.35 1 .41.5.49 1.1.25 1.8-.13.47-.63 1-1.5 1.6-1.03.67-2.2 1.12-3.5 1.35-.77.13-1.47.1-2.1-.1q-.75-.255-.9-.6m-40.45-1.4c-.03.07-.18.28-.45.65l-1.15 2.4c-.3.67-.45 1.2-.45 1.6.77.67 1.78 1.1 3.05 1.3q1.35.195 3.45 0c2.9-.17 5.37-.55 7.4-1.15 1.53-.43 3.77-1.35 6.7-2.75 1.97-.9 3.45-1.73 4.45-2.5.8-.6 1.6-1.33 2.4-2.2 1.03-1.03 1.7-1.78 2-2.25.3-.4.47-.8.5-1.2.03-.3-.03-.65-.2-1.05-.2-.47-.42-.8-.65-1-.3-.2-.8-.33-1.5-.4-4.2-.4-8.33-.05-12.4 1.05-1.5.37-3.28.97-5.35 1.8-2.47 1-4.28 2.03-5.45 3.1-.53.47-1.27 1.23-2.2 2.3v.05c-.03.07-.08.15-.15.25m5.3-.25c1.09-.91 2.36-1.59 3.8-2.05s2.59-.59 3.45-.4c.86.23 1.41.65 1.65 1.25.03.17.05.33.05.5s-.03.35-.1.55c-.23.76-1.05 1.48-2.45 2.15q-2.055 1.02-3 1.2-.885.24-2.25.6-1.35.405-2.55-.15c-.53-.47-.71-.97-.55-1.5.2-.49.85-1.21 1.95-2.15" style="fill:#e8e6d6"/></g></g><g id="i"><path d="M86.25 84.8c.53-.73 1.05-1.43 1.55-2.1q2.55-3.6 4.2-6.6c.83-1.53 1.02-2.73.55-3.6-14.53 11.9-27.03 29.58-37.5 53.05-4.9 11.03-8.45 21.15-10.65 30.35-2.03 8.77-3.43 19.2-4.2 31.3-.27 4.9-.3 8.88-.1 11.95.27 4.37 1.05 8.22 2.35 11.55.97 2.47 2.22 3.98 3.75 4.55 2.03.77 4.6-.2 7.7-2.9l8.95-7.8c3.13-2.77 5.43-4.95 6.9-6.55 2.37-2.63 4.03-5.27 5-7.9.8-2.13 1.3-4.67 1.5-7.6.07-.87.12-3.5.15-7.9.1-15.87 2.95-31.18 8.55-45.95.77-2 1.25-3.55 1.45-4.65.03-.3.07-.58.1-.85.13-1.4-.05-2.65-.55-3.75-.43.67-.85 1.35-1.25 2.05-4.03 6.8-7.23 14.02-9.6 21.65-2.6 8.43-4.07 17-4.4 25.7-.27 7.03-.47 11.07-.6 12.1-.53 4.53-1.73 8.25-3.6 11.15-1.3 2-3.53 4.35-6.7 7.05-3.8 3.3-7.67 6.57-11.6 9.8q-1.95-3.405-2.55-8.1c-.33-2.3-.45-5.2-.35-8.7.43-17.77 3.63-35.18 9.6-52.25 5.93-17.07 14.27-32.68 25-46.85 1.6-2.03 2.97-3.78 4.1-5.25.9-1.17 1.65-2.15 2.25-2.95"/><path d="M87.85 82.9c0-.07-.02-.13-.05-.2-.5.67-1.02 1.37-1.55 2.1-.6.8-1.35 1.78-2.25 2.95-1.13 1.47-2.5 3.22-4.1 5.25-10.73 14.17-19.07 29.78-25 46.85-5.97 17.07-9.17 34.48-9.6 52.25-.1 3.5.02 6.4.35 8.7q.6 4.695 2.55 8.1c3.93-3.23 7.8-6.5 11.6-9.8 3.17-2.7 5.4-5.05 6.7-7.05 1.87-2.9 3.07-6.62 3.6-11.15.13-1.03.33-5.07.6-12.1.33-8.7 1.8-17.27 4.4-25.7 2.37-7.63 5.57-14.85 9.6-21.65.4-.7.82-1.38 1.25-2.05.5 1.1.68 2.35.55 3.75.03-.03.07-.05.1-.05.03-.07.07-.13.1-.2.07-.07.12-.13.15-.2s.07-.13.1-.2v-.2c0-.07.02-.13.05-.2s.05-.13.05-.2v-.2c.03-.07.07-.13.1-.2v-.4c0-.07.02-.13.05-.2v-3.25c0-.07-.02-.13-.05-.2.03-.07.05-.13.05-.2v-.6c0-.07.02-.13.05-.2v-4.8c.03-.07.05-.13.05-.2v-1c0-.07.02-.13.05-.2v-.4c0-.07.02-.13.05-.2v-5.25c0-.07-.02-.13-.05-.2.03-.07.05-.13.05-.2.03-.07.05-.13.05-.2v-4c.03-.07.05-.13.05-.2V99c.03-.07.07-.13.1-.2v-.45c0-.07.02-.13.05-.2v-2.8c.03-.07.07-.13.1-.2v-1c.03-.07.05-.13.05-.2v-1.6c0-.07-.02-.13-.05-.2V88.5c0-.07.02-.13.05-.2v-1.6c0-.07.02-.13.05-.2v-2.6c.03-.07.07-.13.1-.2v-.6c-.03-.07-.07-.13-.1-.2" class="q"/></g><g id="j"><g id="k"><path d="M62.61 91.94h-.1c-2.69.21-5.22.47-7.6.79-11.98 1.68-22.77 4.66-32.37 8.96q-3.825 2.415-5.55 4.71c-.56.59-.79 1.08-.68 1.47 0 .8.75 1.4 2.25 1.78 6.11 1.29 13.53 1.03 22.26-.79 2.24-.38 5.87-1.19 10.9-2.41 1.05-.24 2.1-.49 3.14-.73a8.5 8.5 0 0 0 1.2-.31c.49-.07.94-.16 1.36-.26.24-.07.44-.12.58-.16.07-.03.12-.07.16-.1 1.85-.8 3.46-1.45 4.82-1.94 1.54-.66 3.04-1.24 4.5-1.73 2.51-3.84 4.47-6.67 5.87-8.49.42-.52.75-.98 1-1.36a62 62 0 0 0-4.35.05q-.255.15-.42.21c-.66.42-1.27.47-1.83.16a.77.77 0 0 1-.42-.21c-.7.03-1.4.07-2.1.1-.87.07-1.75.16-2.62.26m84.23-22.84v-.05c-.84.07-1.64.1-2.41.1.1 1.5.16 2.97.16 4.4 0 1.15-.28 1.82-.84 1.99-.35.03-.66 0-.94-.1-.28.14-.54.31-.79.52l-.1.1.1.26a44 44 0 0 1-5.71 3.14c-2.06.91-4.8 1.99-8.22 3.25-6.11 2.24-11.61 3.93-16.5 5.08-.56.21-1.13.37-1.73.47.7.21 1.41.42 2.15.63 8.8.42 17.3.03 25.51-1.15 10.44-1.36 20.29-4.07 29.54-8.12 9.74-4.09 18.37-9.48 25.88-16.19-6.95-.35-15.73.4-26.35 2.25-8.56 1.57-15.14 2.71-19.75 3.4m-80.46-7.84c.21.77.44 1.57.68 2.41.59 2.3 1.26 5.69 1.99 10.16l1.83 11.52c.07 0 .16-.02.26-.05l1.47-.84.05-.26q2.52-.525 5.55-1.2c4.99-1.15 8.17-1.87 9.53-2.15 2.55-.49 5.19-.89 7.91-1.2 2.17-.56 4.44-1.2 6.81-1.94 8.73-2.69 18.28-6.37 28.65-11.05 2.3-1.08 4.24-1.9 5.81-2.46l.05.1.31-.1-.37-.84c.07-.03.12-.05.16-.05-1.01-2.76-2.03-5.81-3.04-9.17-3.11-9.32-5.52-15.94-7.23-19.85q-1.155-2.67-2.67-3.09-.63-.21-1.47 0c-.7.21-1.22.31-1.57.31-.1 0-.19.02-.26.05-1.15.28-2.29.68-3.4 1.2-2.13.98-4.38 2.36-6.76 4.14-.7.49-1.92 1.45-3.67 2.88-.94 1.15-2.3 2.6-4.09 4.35-1.68 1.64-3.16 2.97-4.45 3.98-.84.45-1.78.91-2.83 1.36a78.5 78.5 0 0 1-12.36 5.34c-.28-.07-.58-.17-.89-.31-1.61.38-3.32.54-5.13.47-1.82 0-3.6-.19-5.34-.58-1.26-.31-3.07-.86-5.45-1.62-.21 2.62-.24 5.45-.1 8.49m34.02-7.59c-.14.28-.44.7-.89 1.26l-2.99 3.98c-.07.17-.09.37-.05.58 0 .21.16.37.47.47q3.93.945 10.32-1.2c6.04-2.03 11.04-4.5 14.98-7.44.8-.56 1.31-1.1 1.52-1.62-.31-.14-.61-.24-.89-.31a20 20 0 0 0-3.72-.73c-.87-.14-2.43-.24-4.66-.31-1.82 0-3.16-.28-4.03-.84-1.08-.56-1.55-1.27-1.41-2.15.14-.73.94-1.22 2.41-1.47 2.13-.42 4.02-.59 5.66-.52 1.89-.03 3.86.24 5.92.84 2.1.66 3.54 1.55 4.35 2.67.77.98 1.05 2.17.84 3.56-.31 1.43-1.5 2.88-3.56 4.35-3.32 2.27-6.51 4-9.59 5.19-1.08.38-3.34 1.1-6.76 2.15-1.99.56-3.32.89-3.98 1q-3.51.465-7.23-.63c-1.05-.42-1.78-.82-2.2-1.2-.77-.73-1.07-1.48-.89-2.25.07-.45.49-1 1.26-1.62.94-.91 1.59-1.45 1.94-1.62q.675-.465 2.1-1.26c.31-.17.68-.45 1.1-.84Z" style="fill:#6a404b"/><path d="M61.25 50.4a.54.54 0 0 1-.21-.31c-.14.77-.23 1.52-.26 2.25 0 1.99-.07 3.28-.21 3.88-.07.49-.17 1.17-.31 2.04.35 1.96.8 3.95 1.36 5.97 1.22 8.59 2.51 16.12 3.88 22.58-5.27.42-10.53 1.1-15.77 2.04-6.5 1.19-12.45 2.69-17.86 4.5a84.7 84.7 0 0 0-15.09 5.5c-.31.14-.61.21-.89.21-.87.66-1.68 1.38-2.41 2.15-.42.42-.8.86-1.15 1.31-.24.1-.47.26-.68.47q-2.1 1.575-1.62 2.88c.1.17.21.35.31.52-.1.31-.16.68-.16 1.1-.07 1.08.21 2.2.84 3.35a6.77 6.77 0 0 0 2.36 2.62c1.61 1.19 3.82 1.96 6.65 2.3 3.04.45 6.39.54 10.06.26 2.69-.24 6.06-.75 10.11-1.52 4.99-.98 8.99-1.92 12-2.83.94-.35 1.87-.7 2.78-1.05l11.16-3.88.21-.21 1.2-1.73c1.4-1.92 2.72-3.6 3.98-5.03-1.22.42-2.57.89-4.03 1.41-1.47.49-2.97 1.07-4.5 1.73-1.36.49-2.97 1.13-4.82 1.94-.03.03-.09.07-.16.1-.14.03-.33.09-.58.16-.42.1-.87.19-1.36.26-.42.14-.82.24-1.2.31-1.05.24-2.1.49-3.14.73-5.03 1.22-8.66 2.03-10.9 2.41-8.73 1.82-16.15 2.08-22.26.79-1.5-.38-2.25-.98-2.25-1.78-.1-.38.12-.87.68-1.47q1.725-2.31 5.55-4.71c9.6-4.3 20.39-7.28 32.37-8.96 2.37-.31 4.91-.58 7.6-.79h.1c.87-.1 1.75-.19 2.62-.26.7-.03 1.4-.07 2.1-.1q.15.15.42.21c.56.31 1.17.26 1.83-.16q.15-.045.42-.21c1.36-.07 2.81-.09 4.35-.05 5.52-.1 11.4 0 17.65.31 1.78.35 3.42.61 4.92.79 18.51 2.9 35.83 2.57 51.96-1 8.77-1.96 16.99-4.87 24.67-8.75 8.1-3.98 15.3-8.84 21.58-14.56 1.43-1.19 2.41-2.37 2.93-3.56.28-.77.44-1.54.47-2.3-.07-.84-.37-1.5-.89-1.99-.91-.91-2.44-1.34-4.61-1.31-15.78-.14-31.17 2.36-46.15 7.49v-.05c-.94.17-1.87.4-2.78.68-.14-.73-.26-1.52-.37-2.36-.35-1.5-.94-3.49-1.78-5.97l-2.67-8.07c-1.4-4.5-2.65-8.19-3.77-11.05-1.33-3.46-2.69-6.27-4.09-8.43.49.17 1 .35 1.52.52l-3.25-4.56c-.8-1.19-1.4-2.1-1.78-2.72-.21-.14-.47-.21-.79-.21a14.4 14.4 0 0 0-3.82 0c-3.39.42-6.86 1.66-10.42 3.72-2.06 1.22-4.5 2.97-7.33 5.24-2.55 2.62-5.62 5.22-9.22 7.81-2.24 1.61-4.14 2.88-5.71 3.82-1.22.7-2.37 1.19-3.46 1.47 0 .03.03.07.1.1-2.2.98-4.07 1.62-5.61 1.94-3.28.66-7.72.24-13.31-1.26-1.4-.35-2.43-.52-3.09-.52-1.19-.1-2.15.23-2.88 1-.63.52-1.01 1.47-1.15 2.83m5.82 13.27c-.24-.84-.47-1.64-.68-2.41-.14-3.04-.1-5.87.1-8.49 2.37.77 4.19 1.31 5.45 1.62 1.75.38 3.53.58 5.34.58 1.82.07 3.53-.09 5.13-.47.31.14.61.24.89.31q6.285-2.1 12.36-5.34c1.05-.45 1.99-.91 2.83-1.36 1.29-1.01 2.78-2.34 4.45-3.98 1.78-1.75 3.14-3.2 4.09-4.35 1.75-1.43 2.97-2.39 3.67-2.88 2.37-1.78 4.63-3.16 6.76-4.14 1.12-.52 2.25-.93 3.4-1.2.07-.03.16-.05.26-.05.35 0 .87-.1 1.57-.31q.84-.21 1.47 0 1.515.42 2.67 3.09c1.71 3.91 4.12 10.53 7.23 19.85 1.01 3.35 2.03 6.41 3.04 9.17a.5.5 0 0 0-.16.05l.37.84c.03-.1.07-.16.1-.16 1.5 3.95 2.86 7.21 4.09 9.8.07.14.16.28.26.42-.17.07-.3.14-.37.21l.63 1.52c.24-.21.51-.38.79-.52.28.1.59.14.94.1.56-.17.84-.84.84-1.99 0-1.43-.05-2.9-.16-4.4.77 0 1.57-.03 2.41-.1v.05c4.61-.7 11.19-1.83 19.75-3.4 10.62-1.85 19.4-2.6 26.35-2.25-7.51 6.71-16.13 12.1-25.88 16.19-9.25 4.05-19.1 6.76-29.54 8.12-8.21 1.19-16.71 1.57-25.51 1.15-.73-.21-1.45-.42-2.15-.63.59-.1 1.17-.26 1.73-.47 4.89-1.15 10.39-2.85 16.5-5.08 3.42-1.26 6.16-2.34 8.22-3.25 2.1-.98 4-2.03 5.71-3.14l-.1-.26-.58-1.15c-11.94 5.83-24.38 9.99-37.3 12.47-.42-.03-.79-.09-1.1-.16-4.3-.45-8.56-.79-12.78-1-.87-.14-1.76-.3-2.67-.47.14.1.26.24.37.42-1.96-.07-3.89-.1-5.81-.1-2.34 0-4.7.03-7.07.1 2.1-.28 4.47-.72 7.12-1.31 1.12-.24 2.18-.47 3.2-.68.21.1.4.19.58.26 2.83-.63 6.08-1.43 9.74-2.41 12.57-3.42 23.07-7.25 31.48-11.47 3.53-1.71 6.91-3.6 10.16-5.66l-.26-.63-.05-.1c-1.57.56-3.51 1.38-5.81 2.46-10.37 4.68-19.92 8.36-28.65 11.05-2.37.73-4.64 1.38-6.81 1.94-2.72.31-5.36.72-7.91 1.2-1.36.28-4.54 1-9.53 2.15-2.03.45-3.88.86-5.55 1.2l-.05.26-1.47.84c-.1.03-.19.05-.26.05l-1.83-11.52c-.73-4.47-1.4-7.86-1.99-10.16m32.41-8.76c.45-.56.75-.98.89-1.26-.42.38-.79.66-1.1.84q-1.41.78-2.1 1.26c-.35.17-1 .72-1.94 1.62q-1.155.945-1.26 1.62c-.17.77.12 1.52.89 2.25.42.38 1.15.79 2.2 1.2q3.72 1.095 7.23.63c.66-.1 1.99-.44 3.98-1 3.42-1.05 5.67-1.76 6.76-2.15 3.07-1.19 6.27-2.92 9.59-5.19 2.06-1.47 3.25-2.92 3.56-4.35.21-1.4-.07-2.58-.84-3.56q-1.2-1.68-4.35-2.67c-2.06-.59-4.03-.87-5.92-.84-1.64-.07-3.53.1-5.66.52-1.47.24-2.27.73-2.41 1.47-.14.87.33 1.59 1.41 2.15.87.56 2.22.84 4.03.84 2.24.07 3.79.17 4.66.31 1.33.14 2.57.38 3.72.73.28.07.58.17.89.31-.21.52-.72 1.07-1.52 1.62-3.95 2.93-8.94 5.41-14.98 7.44q-6.39 2.145-10.32 1.2c-.31-.1-.47-.26-.47-.47-.03-.21-.02-.4.05-.58l2.99-3.98Z"/><path d="m136.99 64.28.26.63c-3.25 2.06-6.64 3.95-10.16 5.66-8.42 4.23-18.91 8.05-31.48 11.47-3.67.98-6.91 1.78-9.74 2.41-.17-.07-.37-.16-.58-.26-1.01.21-2.08.44-3.2.68-2.65.59-5.03 1.03-7.12 1.31 2.37-.07 4.73-.1 7.07-.1 1.92 0 3.86.03 5.81.1-.1-.17-.23-.31-.37-.42.91.17 1.8.33 2.67.47 4.23.21 8.49.54 12.78 1 .31.07.68.12 1.1.16 12.92-2.48 25.35-6.64 37.3-12.47l.58 1.15.1-.1-.63-1.52c.07-.07.19-.14.37-.21-.1-.14-.19-.28-.26-.42-1.22-2.58-2.58-5.85-4.09-9.8-.03 0-.07.05-.1.16z" style="fill:#322033"/></g></g></svg>