<svg xmlns="http://www.w3.org/2000/svg" id="a" viewBox="0 0 253 291.35"><defs><style>.e{fill:#9d9c8f}.f{fill:#b6c7a5}.g{fill:#897766}</style></defs><path d="m90.63 197.55-3.12.92c-1.5.37-3.01.75-4.51 1.15l-3.55.91c-.8.27-1.59.54-2.33.79-.57.17-1.12.34-1.68.51-1.33.47-2.65.93-3.94 1.4l-3.69 1.23 5.37-14.82-20.82 5.91c-.5.04-.71.36-.79.52-.93 2.07-1.84 4.19-2.71 6.33-.8 2.04-1.59 4.09-2.35 6.16-.77 2-1.52 4.03-2.26 6.07-.16.45-.31.9-.46 1.35-.02.07-.06.18-.1.31 3.51 5.95 7.55 11.65 12.15 17.07 3.73 4.39 7.61 8.36 11.63 11.91l.86-4.14c.17-.73.33-1.44.5-2.13.43-1.74.87-3.52 1.3-5.36a70 70 0 0 1 1.79-6.24l-1.83 13.82.07.18c.04.11.08.26.12.5.43 1.76.87 3.56 1.3 5.4.14.59.29 1.17.43 1.76 15.46 12.12 32.98 18.37 52.55 18.74.35-.13.7-.22 1.03-.22.27 0 .54.05.77.12.07.03.14.08.21.11q2.355 0 4.68-.12l-52.4-41.88 11.77-28.24Zm98.21 33.02c-.4-1.97-.8-3.92-1.2-5.86-.43-1.97-.87-3.92-1.3-5.85-.43-1.97-.89-3.94-1.35-5.91-.47-1.97-.95-3.93-1.45-5.86-.5-2.04-1-4.04-1.5-6.01-.53-2-1.05-3.99-1.55-6l-.8-3.01c-.3-1.04-.6-2.05-.9-3.06l-.13-.43-18.13-3.16.91 1.39c.76 1.16 1.53 2.36 2.29 3.59 1.49 2.39 2.95 4.83 4.34 7.28.46.79.92 1.59 1.36 2.4l-3.82-.48-18.06-.55 1.1 1.25c.74.84 1.54 1.7 2.36 2.56.75.81 1.5 1.68 2.22 2.56.39.49.79 1 1.19 1.54.23.29.45.6.68.92.24.35.5.69.76 1.01.27.37.55.76.83 1.13.27.41.56.82.86 1.22.33.46.66.94.99 1.43.34.51.7 1.02 1.06 1.51.37.54.75 1.09 1.16 1.66.37.52.71 1.06 1.02 1.61v.09l.03.04c-.45 1.32-.96 2.65-1.52 3.96l-1.49 3.48c-.24.5-.47 1.03-.7 1.55-.2.43-.41.87-.66 1.37-.16.39-.34.77-.5 1.11l-.61 1.02-.51.93-.47.95c-.21.34-.41.7-.59 1.03-.24.37-.48.77-.71 1.17-.5.84-1 1.69-1.49 2.53-.29.46-.59.9-.91 1.37-.29.49-.6.98-.94 1.48-.63 1-1.26 1.98-1.9 2.95l-1.68 2.67-1.6 2.3c-.46.65-.94 1.3-1.44 1.93a136 136 0 0 1-3.83 4.93c-1.52 1.88-3.12 3.7-4.76 5.4-.83.86-1.84 1.54-3.01 2.04l-.46.19.23 5.67c9.69-.59 18.86-2.66 27.51-6.2l.04-.18c.21-.86.41-1.71.61-2.56.37-1.67.73-3.31 1.1-4.96.33-1.57.67-3.11 1-4.66.3-1.47.58-2.93.85-4.36q.405-2.055.75-4.11c.23-1.3.47-2.58.7-3.86l.5-3.02c.13-.96.28-1.92.45-2.89l.4-2.72c.1-.82.21-1.65.34-2.46l.4-2.22c.1-.69.21-1.38.35-2.09l.3-1.93c.07-.55.15-1.11.19-1.58l.06-.06c0 .1.01.2.01.3 0 2.23-.05 4.52-.15 6.81-.07 1.16-.15 2.34-.25 3.53-.1 1.16-.21 2.34-.35 3.53-.13 1.23-.28 2.47-.45 3.73-.17 1.23-.33 2.49-.5 3.73-.2 1.26-.42 2.54-.65 3.84s-.47 2.62-.7 3.94c-.11.58-.13 1.16-.06 1.7.1 1.16.27 2.35.51 3.54.23 1.07.47 2.15.7 3.23l.51 2.66c8.62-4.45 16.68-10.48 24.19-18.07-.23-1.29-.45-2.58-.69-3.86l-1.1-5.81Z" class="g"/><path d="M114.58 196.37c-3.3-2.52-6.73-4.89-10.17-7.04l-.19-.12-.09-.2c-1.07-2.37-2.1-4.82-3.06-7.28l-.59-1.38c-.26-.63-.43-1.27-.5-1.9-.4-3.46-.72-6.99-.95-10.49 0-.28-.02-.49-.04-.69-.14-1.97-.31-3.92-.5-5.83l-.14-1.35 1.2.65c.39.21.83.4 1.29.55 1.16.49 2.26.98 3.37 1.48a92 92 0 0 0 18.39 7.06c1.8.49 3.65.91 5.49 1.24l.59.11v13.35c0 .21.02.43.04.66.05.91-.23 1.69-.82 2.36-.64.84-1.32 1.68-1.99 2.49-2.37 2.97-4.8 5.96-7.2 8.85l-.46.56-3.65-3.06Zm11.57-100.99c.42-.79 1.12-1.56 2.11-2.29.39-.33.84-.65 1.3-.93 1.41-.89 3.07-1.63 4.92-2.18 2.21-.73 4.25-1.1 6.06-1.1.23 0 .46 0 .68.02 1.02.03 2.03.16 2.97.37l2.53.56-2.76.92c-1.69.83-4.46 2.02-8.16 3.49-.58.24-1.12.44-1.64.61-.13.04-.22.07-.3.11-1.03.37-1.84.63-2.49.8-.34.08-.7.14-1.11.21-.78.14-1.74.26-2.85.36l-1.94.35.68-1.31Z" class="f"/><path d="M53.9 176.79c-.29 0-.57-.05-.84-.14-1.6-.54-2.75-1.63-3.39-3.27-1.15-3.01-1.94-6.08-2.34-9.12-.4-3.29-.59-6.66-.56-10 0-1.8.02-3.59.05-5.36.07-1.82.15-3.61.25-5.38.13-1.85.29-3.67.45-5.48.1-1.08.24-2.16.41-3.2 1.06-7.74 2.53-15.48 4.36-23.01 2.04-8.31 5-16.47 8.8-24.25 4.32-8.83 10.07-16.73 17.1-23.45.83-.76 1.68-1.48 2.56-2.15l.14-.11.61-.1s.07-.04.11-.06c.1-.05.19-.11.29-.18l.04-.06.13-.12s.07-.11.12-.22l.02-.05c.02-.06.02-.09.02-.09a.52.52 0 0 0-.16-.34s-.11-.1-.57-.29c-1.71-.51-3.82-.78-6.17-.78q-.72 0-1.47.03c-.21 0-2.94.23-8.12.65-.52.05-1.03.08-1.5.08-2.06 0-3.58-.53-4.49-1.57-.86-.8-.96-1.65-.88-2.24.02-.54.32-1.12.93-1.81 1.79-2.04 4.68-3.54 8.57-4.47 2.58-.6 5.25-.91 7.95-.91 1.24 0 2.52.06 3.79.19 1.9.2 4.14.67 6.67 1.37l.3.09q.15.03.27.09l1.25.38 5.52 1.91c.58.23 1.16.46 1.75.7v-.42c-.03-.32-.08-.7-.14-1.08l-.1-.48-.51-1.51-.1-.2-.02-.05a6 6 0 0 0-.3-.65h-.01l-.14-.28-.09-.15v-.02l-.37-.75c-.12-.21-.26-.47-.4-.75l-.05-.07c-.18-.29-.36-.59-.53-.9-1.19-1.86-1.72-2.56-1.95-2.81q-.84-.975-2.79-2.64c-.48-.41-.95-.83-1.42-1.27a59 59 0 0 1-4.6-4.6c-.77-.83-1.5-1.69-2.18-2.53-.16-.19-.31-.38-.45-.55-.72-.94-.93-1.72-.65-2.38l.25-.5.04-.05c.31-.41.79-.69 1.42-.82.68-.23 1.51-.36 2.39-.36 1.37 0 2.91.32 4.57.94 3.91 1.54 7.45 4.31 10.51 8.23.95 1.26 1.93 2.75 2.91 4.43 1.18 2.05 2.37 4.47 3.54 7.18.67 1.48 1.19 2.48 1.53 2.98l-.11.09.11-.06.06.06v.04q.15.21.27.39c1.12-.55 1.8-1.18 2-1.88 0-.11.03-.21.06-.31.01-.2 0-.42-.05-.64v-.07l-.01-.07c-.09-.52-.2-1.08-.33-1.63-.73-3.51-1.71-7.04-2.93-10.53-.09-.2-.19-.46-.29-.73-.97-2.72-1.53-4.27-1.66-4.68-.35-1.19-.58-2.31-.68-3.36-.07-.54-.1-1.09-.1-1.62 0-.28.02-.53.06-.77.14-1.91 1.1-2.71 1.88-3.04.34-.15.73-.24 1.14-.24.64 0 1.34.19 2.11.58h.02l.22.1c1.05.63 2.12 1.49 3.19 2.56.45.45.92.97 1.4 1.55.5.6 1.02 1.29 1.55 2.05.1.11.18.22.23.33.08.12.23.33.39.55 2.48 3.69 4.42 6.88 5.75 9.49 1.42 2.77 2.82 6.82 4.16 12.05 1.33 5.16 2.14 8.59 2.41 10.21l.95 5.39c.23 1.17.44 2.37.6 3.58.6 4.93 1.09 9.94 1.46 14.9.1 1.36.22 2.72.35 4.08l.04.44-.37.24c-.36.23-.7.46-1.02.68-1.89 1.37-3.14 2.83-3.68 4.35-.12.32-.27.99-.31 2.38v.9c.71 3.26 2.48 5.04 5.38 5.46q1.635.3 3.21.3c1.54 0 3.08-.21 4.6-.63 1.95-.49 3.79-1.2 5.5-2.14l.13-.07.14-.02c4.6-.5 9.19-.98 13.75-1.45 2.13-.27 4.22-.44 6.2-.5 6.99-.63 14.22-1.18 21.43-1.65 3.4-.37 6.87-.56 10.29-.56 1.81 0 3.64.05 5.45.16.99.03 2.02.18 3.03.42.88.27 1.68.68 2.41 1.22.7.58 1.25 1.28 1.66 2.1.46.87.8 1.83 1.01 2.82.48 2.41.72 4.87.72 7.3 0 .78-.02 1.57-.05 2.38-.03.47-.05.92-.05 1.37a44.2 44.2 0 0 1-4.88 16.53 69.1 69.1 0 0 1-13.14 17.49c-.56.52-1.13 1.01-1.71 1.45l-.92.7-.62-3.13c-.13-.69-.29-1.37-.49-2.04-.25-.7-.54-1.42-.86-2.09-.16-.37-.46-.61-.94-.78-.14-.04-.29-.07-.44-.07-.29 0-.54.11-.8.33-.48.38-.89.81-1.25 1.29-.78 1.07-1.52 2.21-2.2 3.38-.3.5-.58.99-.84 1.48l-.88 1.65-.55-2.22c-.04-.19-.07-.32-.1-.44-.06-.21-.11-.42-.15-.62-.04-.1-.06-.2-.07-.31l-.2-.9c-.03-.2-.07-.4-.13-.6-.1-.24-.23-.53-.35-.78a3 3 0 0 0-.38-.52 2.9 2.9 0 0 0-1.12-.49q-.15-.03-.3-.03c-.22 0-.42.05-.62.16-1.33.57-2.27 1.36-2.93 2.44-.52.82-1 1.67-1.42 2.54a75 75 0 0 0-2.63 6c-.81 2.02-1.42 4.17-1.81 6.41l-.08.44-.42.13c-1.55.47-3.22.88-4.97 1.22-1.16.17-2.28.34-3.38.5-5.45.98-10.46 1.48-14.88 1.48-1.28 0-2.54-.04-3.73-.12-5.35-.37-8.86-.74-10.74-1.11-1.85-.4-3.01-.63-3.46-.69-.5-.1-.96-.19-1.44-.25-6.87-1.86-13.51-4.33-19.82-7.37l-5.6-2.7c-.35-.19-.64-.37-.92-.54-1.65-.95-3.29-1.9-4.93-2.84a69 69 0 0 1-5.76-3.69c-1.32-1.02-2.61-2.05-3.84-3.08a50 50 0 0 1-4.61-4.36c-1.05-1.05-2.11-2.12-3.14-3.19l-.18-.19-.02-.26c-.1-1.37-.18-2.73-.25-4.07l-.1-2.56q-.105-2.46-.15-4.86c-.07-2.2-.05-4.39.05-6.5.1-2.01.25-4.04.45-6.04.16-1.68.3-3.34.4-4.92.02-.47.02-.94 0-1.42-.52 1.53-.92 3.14-1.17 4.77-.33 2.17-.68 4.35-1.05 6.56a94 94 0 0 0-1.09 9.48c-.2 3.16-.23 6.41-.1 9.68.1 2.79.25 5.59.45 8.33.27 3.27.33 6.58.2 9.83-.1 3.34-1.03 6.47-2.75 9.29-1.56 2.61-3.48 5-5.72 7.1-2.04 1.91-4.34 3.5-6.82 4.72-.95.42-1.89.8-2.83 1.13-.31.1-.6.14-.88.14Zm95.94-42.5c-.11.02-.33.06-.7.2-.37.11-.94.38-1.84 1.13-.72.57-1.24 1.22-1.55 1.94-.34.74-.25.96-.25.96 0-.03.11-.04.31-.15.33-.16.97-.58 2.2-1.65 1.24-1.16 1.62-1.61 1.73-1.77.09-.17.14-.38.12-.57 0-.05-.02-.08-.03-.1Zm5.19 1.65h.05c.27 0 .75-.12 1.72-.85 1.05-.85 1.75-1.42 2.09-1.69.25-.23.52-.54.75-.89.03-.05.06-.13.06-.25-.75.04-1.58.4-2.47 1.08-1.42 1.03-1.92 1.68-2.08 2.03l-.02.05-.03.04c-.12.17-.19.3-.24.4.05.02.11.05.19.08Zm.95-22.12c.11.42.52 1.34 1.95 3.44 1.12 1.67 2.64 3.3 4.51 4.85 1.9 1.54 3.93 3 6.03 4.35 2.1 1.29 4.6 2.47 7.41 3.48 2.77 1 4.81 1.51 6.06 1.51 2.12-.08 3.04-.24 3.43-.37 1.61-.45 3.69-1.53 6.22-3.21 2.4-1.56 4.77-3.75 7.04-6.51 2.28-2.71 4-5.32 5.1-7.79.59-1.37.98-3.28 1.14-5.66.18-3.1-.06-3.71-.11-3.79-.18-.29-.88-.9-3.24-1.46-1.08-.25-3-.42-5.7-.48-.84-.03-1.67-.04-2.49-.04-1.91 0-3.82.08-5.68.24-2.71.2-4.56.33-5.56.4-4.93.26-8.65.6-11.08.99-2.44.36-3.98.63-4.58.79-.71.14-2.57.56-5.57 1.26-2.79.61-4.57 1.77-5.3 3.44-.26.86-.24 1.99.09 3.28l.18.72c.05.16.1.35.16.56Zm-6.39 13.87c.18 0 .51-.05 1.06-.29.74-.34 1.36-.69 1.81-1.02.42-.36.83-.72 1.19-1.05.45-.41.6-.63.66-.72.08-.16.12-.27.13-.32 0-.03-.03-.09-.05-.12-.13-.22-.22-.23-.27-.23h-.09l-.12.06h-.12c-.49.02-1.08.29-1.76.8-.81.58-1.66 1.3-2.53 2.14-.12.1-.2.19-.25.28l.02.05-.06.19s.02.03.03.04c.06.07.11.15.28.2h.07Zm-61.8-36.48c.42.44.93.87 1.5 1.27.92.63 1.97 1.2 3.12 1.68l.99.41-.76.76s-.07.08-.11.14c-.35.65-.57 1.39-.63 2.16-.06.74-.03 1.49.09 2.23.54 1.81 1.37 3.29 2.43 4.29.92.89 2.36 1.66 4.28 2.29 1.29.43 2.86.64 4.66.64 2.08 0 4.53-.29 7.27-.86.83-.13 1.65-.33 2.49-.58 1.45-.45 2.9-1.06 4.33-1.8 1.14-.58 2.11-1.41 2.91-2.45.46-.6.72-1.28.81-2.09 0-.08.01-.27.05-.52v-.5c0-1.2-.34-2.39-1-3.54-.72-1.05-1.72-2.09-2.92-3.05-2.07-1.54-4.42-2.5-6.95-2.85-.33-.06-.62-.09-.9-.09-.63-.06-1.2-.09-1.78-.09-1.46 0-3.01.17-4.62.52-3.19.61-5.81 1.72-7.8 3.31-.46.33-.87.67-1.24 1.05l-.31.31-.42-.13c-1.98-.62-3.82-1.45-5.48-2.5Z" class="f"/><path d="M106.43 95.28c-3.65 0-6.79-.22-9.32-.66l-1.78-.31 1.5-1c1.57-1.05 3.6-1.81 6.02-2.26 1.52-.3 3-.45 4.4-.45 1.14 0 2.26.1 3.32.3 2.29.42 4.36 1.3 6.14 2.63l1.43 1.06-1.77.23c-2.38.31-5.37.46-8.87.46h-1.08Z" class="f"/><path d="M131.82 259.28c-.1-1.17-.18-2.35-.25-3.52a70 70 0 0 0-.79-6.47c-.29-1.6-.66-3.21-1.08-4.78-.46-1.67-1.01-3.37-1.63-5.04-.07-.27-.09-.46-.09-.65l2.53-62.95 2.61.29 1.57.1 6.08.6c.87.07 1.73.17 2.55.31 1.96.13 4.09.47 6.26 1.01.72.12 1.51.28 2.32.44l.25.05.16.2c.7.87 1.41 1.76 2.11 2.66 1.53 2.03 3.06 4.12 4.57 6.22 1.81 2.65 3.52 5.33 5.08 7.95.23.39.47.78.73 1.17l.78 1.17-21.27-.7 16.21 20.88-.26.42c-.36.6-.71 1.21-1.03 1.81-1.87 3.5-3.79 6.93-5.72 10.18a362 362 0 0 1-5.11 8.42 152 152 0 0 1-9.39 13.56c-1.5 1.9-3.07 3.79-4.67 5.63-.39.48-.82.99-1.26 1.47l-1.11 1.19-.14-1.62Z" class="g"/><path d="M97.33 237.77c-.5-.4-.99-.8-1.46-1.21l-2.69-2.19-2.29-1.79a90 90 0 0 0-9.87-6.59l-.51-.3.19-.56c.37-1.07.73-2.12 1.1-3.16.7-1.94 1.42-3.86 2.16-5.77 2.81-7.13 5.86-14.21 9.06-21.08-.05.01-.09.02-.14.04l-1.83.33h-.06c-.08 0-.11.01-.12.01l-.11.04h-.12c-.12 0-.24.01-.36.04-1.11.26-2.22.53-3.32.79-5.05 1.22-10.08 2.7-14.93 4.38l-1.57.54 7.96-17.93 19.37-5.3 17.4 38.61c1.19 2.45 2.41 4.91 3.64 7.37 1.16 2.31 2.37 4.66 3.59 6.99.57 1.1 1.15 2.22 1.75 3.35q1.695 3.195 3.45 6.39c.59 1.03 1.05 2.15 1.36 3.3.64 2.53 1.12 5.12 1.42 7.71.33 2.95.62 5.96.85 8.93.07 1.17.17 2.35.3 3.53l.2 1.76-34.42-28.22Z" class="g"/><path d="m118.25 199.46 10.31-13.1-.97 21.28zm-13.07-8 1.1-.86 11.75 9.12-5.53 7.72z" class="e"/><path d="m121.21 211.14 2.2-7.19.83.64c.29.23.62.47.98.74.18.1.43.25.71.42.39.21.83.44 1.29.67l.41.2-.25 15.78-6.15-11.26Zm-8.71-3.65 1.61-2.23 6.97 5.98-2.01 9.92z" class="e"/><path d="M167.64 161.83c.9-3.31 2.04-6.6 3.38-9.79.94-2.18 2.28-4.14 4.01-5.83.5-.41 1.08-.61 1.76-.65l.27-.02.21.16c.21.16.39.36.53.61.32.67.55 1.31.73 1.99.31 1.17.53 2.43.67 3.76.05.52.17 1.02.36 1.49l.16.1h.15l.01-.02c.13-.14.23-.27.3-.43.6-1.46 1.31-3 2.12-4.55.37-.71.74-1.39 1.11-2.06.55-1.11 1.47-1.8 2.63-1.97l.36-.05.25.25c.17.17.33.37.49.61 1.4 1.9 1.83 4.31 1.26 7.14l-.06.29-.25.17c-1.6 1.07-3.24 2.11-4.87 3.11-.52.31-1.03.6-1.54.87-1.56.97-3.29 1.8-5.1 2.44-.63.29-1.32.56-2 .8-1.98.91-4.02 1.74-6 2.45l-1.3.46z" style="fill:#9d316a"/><path d="M103.24 105.44c-1.83 0-3.64-.35-5.37-1.05-2.05-.74-3.52-1.78-4.34-3.08l-.06-.1-.03-.11q-.045-.195-.06-.36a5.02 5.02 0 0 1-.18-3.25c.19-.77.63-1.54 1.31-2.3.19-.2.41-.29.64-.29h.08l.08.02c1 .23 2.18.41 3.51.54h.01c.08 0 .23.03.39.08l1.03.34-.71.82c-.16.19-.3.46-.4.82-.33 1.22-.2 2.15.4 2.83.28.33.61.48 1.05.51h.01c.49 0 .81-.13 1.11-.41.42-.31.68-.68.86-1.21.16-.54.2-1.09.12-1.66-.05-.28-.13-.53-.23-.73l-.55-1.09 1.22.05c1.02.04 2.03.07 3.03.07 1.99 0 3.97-.09 5.87-.26 2.41-.2 4.16-.46 5.21-.77.2-.04.3-.07.38-.09l.43-.14.31.33c.67.71 1.06 1.38 1.18 2.06.03.08.06.24.06.38-.04.55-.14 1.02-.29 1.45-.11.3-.26.62-.45.95-.27.39-.52.75-.78 1.15-.64.98-1.48 1.7-2.5 2.16-1.47.7-3 1.22-4.52 1.53q-.105.045-.24.09c-2.02.43-4.45.67-7.31.74h-.27Zm29.32-1.31c-.65 0-1.29-.05-1.86-.16-2.49-.45-4.13-1.73-4.85-3.82-.06-.15-.14-.46-.19-1.45-.07-.73-.07-1.25.02-1.61l.15-.62.63.07c.38.04.79.07 1.21.07.75 0 1.57-.07 2.44-.21l1.92-.38-.66 1.32s-.04.09-.06.15c-.04.12-.1.41-.06 1.03.08.44.23.67.34.78.18.23.4.36.69.45.13.01.25.02.37.02.25 0 .47-.03.66-.1.3-.09.55-.26.78-.53.15-.27.31-.56.49-.88.19-.53.29-1.04.29-1.5v-.34c-.02-.12-.06-.24-.1-.35l-.26-.65 11.02-4.75c.15-.1.29-.19.44-.26.17-.08.34-.13.52-.13h.23l.19.13c.19.14.4.28.62.42h.11l.32.32c.12.09.24.19.34.29.04.03.13.12.21.21.1.09.25.26.4.45.14.18.26.39.38.63.21.47.26.93.16 1.38a8.1 8.1 0 0 1-2.13 3.99c-.26.29-.53.58-.81.86-1.17 1.06-2.77 2.11-4.78 3.13-1.19.59-2.69 1.09-4.48 1.46-1.67.38-3.14.57-4.36.57h-.31Z" style="fill:#fff"/><path d="M160.25 113.9c-1.6-1.79-2.23-3.14-1.96-4.25.03-.2.12-.52.27-.93l.08-.23.2-.13c.73-.47 1.64-.86 2.71-1.14 1.68-.56 3.72-1.11 6.03-1.61 2.31-.53 4.35-.91 6.07-1.11 1.66-.23 4.01-.45 6.99-.65 2.95-.23 6.2-.4 9.63-.5 1.52-.06 2.98-.09 4.33-.09 1.69 0 3.27.05 4.69.14 1.05.07 2.1.27 3.12.58 1.11.19.96 1.98.91 2.74-.07.47-.12.86-.15 1.21l-.06.71-.71-.06c-1.5-.12-3.38-.19-5.61-.19-2.52 0-5.55.08-8.99.24-6.52.3-12.36 1.08-17.36 2.33-4.93 1.21-8.03 2.23-9.22 3.05l-.52.36-.42-.47Z" style="fill:#d6dee8"/><path d="M186.64 211.42q-1.245-5.25-2.4-10.65c-1.03-4.83-2.42-9.63-4.15-14.4-3.6-.9-7.27-1.65-11-2.25-3.4-.5-6.6-.93-9.6-1.3l-5.45-6.7c-1.6-.37-3.2-.75-4.8-1.15-5.9-1.03-11.8-1.7-17.7-2l-.05-.7c4.37.17 8.73.28 13.1.35q5.655.105 11.1-.75c10.43-1.43 20.3-4.7 29.6-9.8.73-.4 1.45-.82 2.15-1.25 2.5-1.6 4.88-3.35 7.15-5.25 5.67-4.8 10.15-10.47 13.45-17 3.6-7.07 5.9-14.45 6.9-22.15.2-2.23.27-4.48.2-6.75-.03-1.57-.12-3.13-.25-4.7-.37-4.1-2.23-7.43-5.6-10a6.7 6.7 0 0 0-3.7-1.5c-1.23-.07-2.4-.13-3.5-.2h-2.5c-4.17-.17-8.37-.15-12.6.05-12.2.6-24.3 1.83-36.3 3.7.03-.07.05-.13.05-.2q.705-1.545.45-3.3c-.07-.5-.2-.98-.4-1.45l-.05-.15c-.05-.14-.1-.28-.15-.4l-.3-.45-.1-.1c-.1-.17-.22-.32-.35-.45a.28.28 0 0 0-.15-.15.7.7 0 0 0-.15-.2c-.2-.23-.43-.43-.7-.6.1-.07.22-.13.35-.2.07-.07.13-.12.2-.15.07-.07.13-.12.2-.15.63-.33 1.15-.78 1.55-1.35.6-.67.97-1.33 1.1-2 0-.07.02-.14.05-.2.1-.17.08-.32-.05-.45-.03-.03-.05-.07-.05-.1-.2-.2-.48-.13-.85.2q-1.005.855-2.1 1.65l-2.3 1.55c-1.13-.57-2.43-.93-3.9-1.1-1.2-.17-2.43-.18-3.7-.05-1.53.08-3.03.37-4.5.85l-.8.3c-.33.13-.67.27-1 .4-.17-1.57-.32-3.13-.45-4.7-.2-2.33-.35-4.67-.45-7-.2-3.9-.63-7.82-1.3-11.75 0-.07-.02-.13-.05-.2v-.1l-.15-1-.05-.35a.5.5 0 0 1-.05-.15c-1.13-6.23-2.5-11.68-4.1-16.35l-1.65-4.4a.5.5 0 0 1-.05-.15l-.05-.15c-.17-.37-.3-.72-.4-1.05-.97-2.73-2.08-5.37-3.35-7.9a44.3 44.3 0 0 0-6.45-9.45c-1.17-1.27-2.45-2.27-3.85-3a11.4 11.4 0 0 0-4.15-1.35c-.33-.03-.65-.05-.95-.05-.97 0-1.8.13-2.5.4-1.07.47-1.9 1.28-2.5 2.45v.05l-.1.2c-.53.97-.83 2.03-.9 3.2-.03 1.3.28 3.08.95 5.35.43 2.03 1.08 4.02 1.95 5.95-.57-1.1-1.05-1.92-1.45-2.45-.17-.23-.32-.45-.45-.65-.8-1.03-1.73-2.02-2.8-2.95-1.17-1.1-2.43-2.07-3.8-2.9-.47-.27-.95-.53-1.45-.8-2.57-1.43-4.85-2.33-6.85-2.7-2.77-.47-5.18-.15-7.25.95-1.13.67-1.92 1.4-2.35 2.2-.8 1.37-.85 2.93-.15 4.7.47 1.2 1.4 2.57 2.8 4.1 1.63 1.93 3.6 3.95 5.9 6.05l3.3 3.05.9.9c.6.73 1.18 1.52 1.75 2.35l.45.7a27.4 27.4 0 0 0-9.05-2.85c-3.4-.53-6.73-.58-10-.15l-1 .15c-3.77.6-7.18 1.8-10.25 3.6-1.7.97-2.93 1.95-3.7 2.95q-1.65 2.25-1.2 4.5.255 1.455 1.65 3.15c.87.93 1.67 1.6 2.4 2 .07.03.15.07.25.1l.85.3c.07 0 .15.02.25.05 1.03.3 2.15.37 3.35.2.17 0 .33-.02.5-.05h.35l1.15-.15c2.8-.3 5.62-.65 8.45-1.05-1 1-1.97 2.03-2.9 3.1-4.47 5.93-8.4 12.27-11.8 19-4.47 8.8-8.02 17.97-10.65 27.5q-3.3 12-5.4 24.45c-1 7.07-1.43 14.22-1.3 21.45.07 4.5.63 8.97 1.7 13.4a29 29 0 0 0 2.25 6.15c.47.97 1.02 1.88 1.65 2.75.5.63 1.12 1.18 1.85 1.65 1.43.97 2.98 1.2 4.65.7.9-.33 1.78-.68 2.65-1.05q6.795-3.045 11.7-8.85c1.1-1.3 2.13-2.65 3.1-4.05.93-1.4 1.75-2.87 2.45-4.4.57-1.27.95-2.58 1.15-3.95.73-5.13.88-10.27.45-15.4a101 101 0 0 0 18.25 13.95l1.5 16.5c-1.17.33-2.32.67-3.45 1-.97.23-2.05.52-3.25.85-1.77.37-3.47.85-5.1 1.45-2.77.97-5.52 1.88-8.25 2.75l-2.3 5.1c-3.6.9-7.18 1.87-10.75 2.9-4.5 1.37-8.97 2.85-13.4 4.45-2.47 5.57-4.8 11.18-7 16.85-.3.78-.57 1.58-.86 2.36.73 1.32 1.48 2.63 2.26 3.93.25-.75.49-1.5.75-2.24.73-2.03 1.48-4.05 2.25-6.05.77-2.07 1.55-4.12 2.35-6.15q1.305-3.195 2.7-6.3c.03-.07.12-.1.25-.1l19.55-5.55-5.4 14.9c1.7-.57 3.4-1.13 5.1-1.7 1.3-.47 2.62-.93 3.95-1.4.53-.17 1.08-.33 1.65-.5.77-.27 1.55-.53 2.35-.8l3.5-.9c1.5-.4 3-.78 4.5-1.15.57-.17 1.13-.33 1.7-.5l-11.4 27.35 52.18 41.7c.93-.04 1.86-.09 2.78-.15l-.21-5.16a9.6 9.6 0 0 0 3.25-2.2 81 81 0 0 0 4.8-5.45c1.33-1.63 2.62-3.28 3.85-4.95.5-.63.98-1.28 1.45-1.95.53-.77 1.07-1.53 1.6-2.3.57-.9 1.13-1.8 1.7-2.7.63-.97 1.27-1.95 1.9-2.95.33-.5.65-1 .95-1.5q.45-.645.9-1.35.75-1.305 1.5-2.55c.23-.4.47-.78.7-1.15q.3-.555.6-1.05c.17-.33.33-.67.5-1 .17-.3.33-.6.5-.9.2-.33.4-.67.6-1 .2-.4.38-.8.55-1.2.23-.47.45-.92.65-1.35.23-.53.47-1.05.7-1.55.5-1.17 1-2.33 1.5-3.5.6-1.4 1.13-2.8 1.6-4.2.03-.1.02-.2-.05-.3 0-.07-.02-.12-.05-.15-.33-.6-.7-1.18-1.1-1.75s-.78-1.12-1.15-1.65q-.555-.75-1.05-1.5c-.495-.75-.67-.98-1-1.45-.3-.4-.58-.8-.85-1.2-.3-.4-.58-.78-.85-1.15-.27-.33-.52-.67-.75-1s-.47-.65-.7-.95c-.4-.53-.8-1.05-1.2-1.55-.73-.9-1.48-1.77-2.25-2.6-.83-.87-1.62-1.72-2.35-2.55l16.4.5 5.15.65c-.67-1.23-1.35-2.45-2.05-3.65-1.4-2.47-2.85-4.9-4.35-7.3-.77-1.23-1.53-2.43-2.3-3.6l16.05 2.8c.3 1 .6 2.02.9 3.05.27 1 .53 2 .8 3 .5 2 1.02 4 1.55 6q.75 2.955 1.5 6c.5 1.93.98 3.88 1.45 5.85s.92 3.93 1.35 5.9c.43 1.93.87 3.88 1.3 5.85q.6 2.895 1.2 5.85c.37 1.93.73 3.87 1.1 5.8q.405 2.16.78 4.35c.82-.82 1.64-1.65 2.44-2.51 0-.05-.02-.09-.02-.14-1.7-8.93-3.63-17.87-5.8-26.8Zm-110.9-79.4c-.03-.87-.07-1.72-.1-2.55-.07-1.63-.12-3.25-.15-4.85-.07-2.2-.05-4.35.05-6.45q.15-3 .45-6c.17-1.7.3-3.35.4-4.95.07-1.37-.05-2.73-.35-4.1-.3.53-.57 1.1-.8 1.7-.67 1.8-1.15 3.67-1.45 5.6-.33 2.17-.68 4.35-1.05 6.55-.53 3.2-.9 6.38-1.1 9.55-.2 3.2-.23 6.45-.1 9.75.1 2.8.25 5.58.45 8.35.27 3.27.33 6.52.2 9.75-.1 3.23-.98 6.22-2.65 8.95-1.53 2.57-3.4 4.88-5.6 6.95-2 1.87-4.22 3.4-6.65 4.6-.9.4-1.82.77-2.75 1.1-.43.13-.85.13-1.25 0-1.4-.47-2.38-1.42-2.95-2.85-1.13-2.97-1.9-5.95-2.3-8.95-.4-3.27-.58-6.57-.55-9.9 0-1.8.02-3.58.05-5.35.07-1.8.15-3.58.25-5.35.13-1.83.28-3.65.45-5.45.1-1.07.23-2.12.4-3.15a230 230 0 0 1 4.35-22.95c2.03-8.3 4.95-16.33 8.75-24.1q6.45-13.2 16.95-23.25c.8-.73 1.63-1.43 2.5-2.1.2-.03.4-.07.6-.1.03-.03.08-.07.15-.1.13-.07.27-.15.4-.25.1-.07.18-.15.25-.25l.05-.05c.07-.1.13-.22.2-.35.03-.03.05-.07.05-.1.07-.2.08-.37.05-.5-.03-.27-.15-.5-.35-.7-.13-.13-.4-.28-.8-.45-2.23-.67-4.88-.93-7.95-.8-.1 0-2.82.22-8.15.65-2.63.27-4.43-.15-5.4-1.25-.57-.53-.8-1.1-.7-1.7 0-.37.25-.83.75-1.4 1.7-1.93 4.43-3.35 8.2-4.25 3.7-.87 7.53-1.1 11.5-.7 1.87.2 4.05.65 6.55 1.35l.35.1s.08.02.15.05c.43.13.87.27 1.3.4l5.5 1.9c.6.23 1.22.48 1.85.75.2.07.42.15.65.25.03-.1.08-.22.15-.35 0-.13.02-.28.05-.45v-.6q-.045-.6-.15-1.2c-.03-.17-.07-.33-.1-.5l-.55-1.65c-.03-.07-.07-.13-.1-.2-.03-.1-.07-.18-.1-.25-.1-.23-.23-.5-.4-.8 0-.07-.02-.1-.05-.1l-.4-.8c-.13-.23-.27-.48-.4-.75l-.1-.15c-.17-.27-.33-.55-.5-.85-1-1.57-1.68-2.55-2.05-2.95q-.855-1.005-2.85-2.7c-.47-.4-.93-.82-1.4-1.25a59 59 0 0 1-4.55-4.55c-.77-.83-1.48-1.67-2.15-2.5-.17-.2-.32-.38-.45-.55-.53-.7-.72-1.25-.55-1.65l.1-.2.1-.2c.2-.27.53-.45 1-.55 1.8-.6 3.98-.42 6.55.55 3.8 1.5 7.2 4.17 10.2 8q1.395 1.845 2.85 4.35c1.17 2.03 2.33 4.4 3.5 7.1.7 1.53 1.23 2.57 1.6 3.1l-.05-.05c.03.07.07.12.1.15q.15.255.3.45c.1.2.2.37.3.5q2.595-1.095 3-2.7c0-.1.02-.18.05-.25.03-.3.02-.62-.05-.95v-.05c-.1-.6-.22-1.18-.35-1.75-.73-3.53-1.72-7.07-2.95-10.6q-.15-.345-.3-.75-1.455-4.05-1.65-4.65c-.33-1.13-.55-2.2-.65-3.2-.07-.53-.1-1.05-.1-1.55 0-.23.02-.45.05-.65.1-1.3.58-2.13 1.45-2.5.73-.33 1.67-.2 2.8.4h.05c1 .6 2.02 1.42 3.05 2.45q.645.645 1.35 1.5c.5.6 1.02 1.28 1.55 2.05.07.07.12.13.15.2.13.2.28.42.45.65 2.47 3.67 4.37 6.8 5.7 9.4 1.4 2.73 2.77 6.7 4.1 11.9 1.33 5.17 2.13 8.55 2.4 10.15l.95 5.4c.23 1.17.43 2.35.6 3.55.6 4.93 1.08 9.88 1.45 14.85.1 1.37.22 2.73.35 4.1-.37.23-.72.47-1.05.7-2.03 1.47-3.35 3.03-3.95 4.7-.2.53-.32 1.4-.35 2.6v1c.77 3.6 2.77 5.63 6 6.1 2.73.5 5.43.38 8.1-.35 2-.5 3.88-1.23 5.65-2.2 4.6-.5 9.18-.98 13.75-1.45 2.13-.27 4.18-.43 6.15-.5a898 898 0 0 1 21.45-1.65c5.23-.57 10.45-.7 15.65-.4.97.03 1.93.17 2.9.4.77.23 1.48.6 2.15 1.1.6.5 1.08 1.12 1.45 1.85.43.83.75 1.72.95 2.65.47 2.37.7 4.75.7 7.15 0 .77-.02 1.55-.05 2.35-.03.47-.05.93-.05 1.4q-.795 8.55-4.8 16.2c-3.43 6.5-7.77 12.27-13 17.3-.53.5-1.08.97-1.65 1.4-.13-.67-.27-1.33-.4-2-.13-.7-.3-1.4-.5-2.1-.27-.77-.57-1.5-.9-2.2-.23-.53-.68-.92-1.35-1.15-.73-.23-1.38-.1-1.95.4-.5.4-.95.87-1.35 1.4q-1.2 1.65-2.25 3.45c-.3.5-.58 1-.85 1.5-.03-.13-.07-.27-.1-.4-.03-.17-.07-.32-.1-.45a5 5 0 0 1-.15-.65.5.5 0 0 1-.05-.2c-.07-.3-.13-.6-.2-.9-.03-.23-.08-.47-.15-.7-.13-.33-.27-.63-.4-.9-.17-.3-.35-.55-.55-.75-.47-.33-.95-.55-1.45-.65s-.97-.03-1.4.2c-1.4.6-2.47 1.5-3.2 2.7-.53.83-1.02 1.7-1.45 2.6a74 74 0 0 0-2.65 6.05c-.83 2.07-1.45 4.25-1.85 6.55-1.53.47-3.17.87-4.9 1.2-1.13.17-2.25.33-3.35.5q-10.545 1.905-18.45 1.35c-5.27-.37-8.82-.73-10.65-1.1-1.87-.4-3.03-.63-3.5-.7-.47-.1-.95-.18-1.45-.25-6.77-1.83-13.3-4.27-19.6-7.3-1.87-.9-3.73-1.8-5.6-2.7-.3-.17-.58-.33-.85-.5q-2.505-1.455-4.95-2.85a68 68 0 0 1-5.7-3.65c-1.3-1-2.57-2.02-3.8-3.05-1.6-1.33-3.12-2.77-4.55-4.3-1.07-1.07-2.12-2.13-3.15-3.2-.1-1.37-.18-2.72-.25-4.05m71.6-40.45.15.15c.11.08.21.16.3.25q.09.075.15.15c.13.13.27.28.4.45.1.13.2.3.3.5.13.3.17.6.1.9-.3 1.4-.95 2.62-1.95 3.65-.27.3-.53.58-.8.85-1.1 1-2.63 2-4.6 3-1.13.57-2.57 1.03-4.3 1.4-1.77.4-3.27.58-4.5.55-.63 0-1.22-.05-1.75-.15-2.23-.4-3.67-1.52-4.3-3.35-.07-.17-.12-.58-.15-1.25-.07-.67-.07-1.13 0-1.4 1.13.13 2.42.08 3.85-.15.17-.03.33-.07.5-.1-.03.07-.07.15-.1.25-.1.3-.13.73-.1 1.3.1.57.28.98.55 1.25.23.3.58.52 1.05.65.53.07 1 .03 1.4-.1.43-.13.82-.4 1.15-.8.17-.3.35-.63.55-1 .23-.63.35-1.23.35-1.8v-.4c-.03-.2-.08-.38-.15-.55l10.45-4.5c.13-.1.27-.18.4-.25.07-.03.13-.05.2-.05.23.17.48.33.75.5.03.03.07.05.1.05m-3.6-1.5c-1.77.87-4.5 2.03-8.2 3.5-.57.23-1.1.43-1.6.6-.13.03-.27.08-.4.15-.93.33-1.72.58-2.35.75-.3.07-.65.13-1.05.2-.77.13-1.7.25-2.8.35l-.55.1c.37-.7 1-1.38 1.9-2.05.4-.33.82-.63 1.25-.9 1.37-.87 2.95-1.57 4.75-2.1 2.43-.8 4.6-1.15 6.5-1.05 1 .03 1.95.15 2.85.35-.1.03-.2.07-.3.1m43.95 62.35c-1.6 1.07-3.22 2.1-4.85 3.1-.5.3-1 .58-1.5.85-1.57.97-3.23 1.77-5 2.4-.67.3-1.33.57-2 .8-2.03.93-4.03 1.75-6 2.45.9-3.3 2.02-6.53 3.35-9.7.9-2.1 2.18-3.97 3.85-5.6.33-.27.77-.42 1.3-.45.13.1.25.23.35.4.27.57.48 1.17.65 1.8.3 1.13.52 2.35.65 3.65.07.67.23 1.3.5 1.9l.55.35.65-.05.2-.2c.2-.2.35-.42.45-.65q.9-2.205 2.1-4.5c.37-.7.73-1.38 1.1-2.05.47-.93 1.17-1.47 2.1-1.6.13.13.27.3.4.5 1.3 1.77 1.68 3.97 1.15 6.6m-68.45 46.95 8.5-10.8-.8 17.55zm7.65 7.7-.2 12.6-4.7-8.6 1.8-5.9c.3.23.63.48 1 .75q.345.195.75.45c.43.23.88.47 1.35.7m-6.6 4.45-1.5 7.4-5.45-11.35.9-1.25zm7.7-26.25c.03.67-.18 1.27-.65 1.8-.67.87-1.33 1.7-2 2.5q-3.555 4.455-7.2 8.85c-1.03-.87-2.07-1.73-3.1-2.6-3.37-2.57-6.78-4.93-10.25-7.1-1.07-2.37-2.08-4.78-3.05-7.25-.2-.47-.4-.93-.6-1.4-.23-.57-.38-1.13-.45-1.7-.4-3.47-.72-6.95-.95-10.45 0-.27-.02-.52-.05-.75-.13-1.93-.3-3.87-.5-5.8.43.23.9.43 1.4.6 1.1.47 2.2.95 3.3 1.45 5.83 3 12 5.37 18.5 7.1 1.83.5 3.68.92 5.55 1.25v12.75c0 .23.02.48.05.75m-10.95 14.6-4.4 6.15-6.8-14.85zm-19.65-20.95 17.15 38.05c1.2 2.47 2.42 4.93 3.65 7.4 1.17 2.33 2.37 4.67 3.6 7 .57 1.1 1.15 2.22 1.75 3.35 1.13 2.13 2.28 4.27 3.45 6.4.57 1 1 2.05 1.3 3.15.63 2.5 1.1 5.03 1.4 7.6.33 2.97.62 5.93.85 8.9.07 1.17.17 2.35.3 3.55l-33.05-27.1c-.5-.4-.98-.8-1.45-1.2-.9-.73-1.8-1.47-2.7-2.2-.77-.6-1.53-1.2-2.3-1.8a91 91 0 0 0-9.95-6.65c.37-1.07.73-2.12 1.1-3.15.7-1.93 1.42-3.85 2.15-5.75 3-7.6 6.22-15.05 9.65-22.35-.3.07-.58.13-.85.2q-.405.045-.75.15l-1.7.3c-.13 0-.25.02-.35.05-.17 0-.33.02-.5.05-1.13.27-2.25.53-3.35.8-5.1 1.23-10.1 2.7-15 4.4l7.15-16.1zm34.1 70.25c-.3-1.63-.67-3.25-1.1-4.85q-.705-2.55-1.65-5.1c-.03-.13-.05-.27-.05-.4l2.5-62.15c.6.07 1.22.13 1.85.2l1.6.1c2.03.2 4.05.4 6.05.6.87.07 1.7.17 2.5.3 2 .13 4.07.47 6.2 1 .77.13 1.55.28 2.35.45.7.87 1.4 1.75 2.1 2.65 1.53 2.03 3.05 4.1 4.55 6.2 1.8 2.63 3.48 5.27 5.05 7.9q.345.6.75 1.2l-21.4-.7 16.85 21.7c-.37.6-.72 1.22-1.05 1.85-1.87 3.5-3.77 6.88-5.7 10.15q-2.505 4.245-5.1 8.4c-2.87 4.67-5.98 9.17-9.35 13.5-1.5 1.9-3.05 3.77-4.65 5.6-.4.5-.82.98-1.25 1.45-.1-1.17-.18-2.33-.25-3.5-.17-2.2-.43-4.38-.8-6.55"/><path d="M146.14 139.02c.53-.27 1.32-.85 2.35-1.75 1-.93 1.62-1.57 1.85-1.9.2-.37.28-.72.25-1.05-.07-.4-.25-.65-.55-.75-.23-.03-.62.05-1.15.25-.57.17-1.25.58-2.05 1.25-.8.63-1.38 1.37-1.75 2.2-.37.8-.42 1.37-.15 1.7.27.3.67.32 1.2.05m3.3-10.6h.15c.37 0 .82-.12 1.35-.35.8-.37 1.45-.73 1.95-1.1.47-.4.88-.77 1.25-1.1.4-.37.67-.67.8-.9.1-.2.17-.37.2-.5.03-.27-.02-.5-.15-.7-.2-.33-.47-.52-.8-.55-.06-.01-.11 0-.16 0-.1 0-.2.01-.29.06-.63.03-1.35.35-2.15.95-.83.6-1.7 1.33-2.6 2.2-.27.23-.43.48-.5.75q-.045.045 0 .15c-.07.2 0 .42.2.65q.255.345.75.45ZM88.89 93.07c.97.67 2.05 1.25 3.25 1.75-.07.07-.13.15-.2.25-.43.8-.68 1.63-.75 2.5-.07.8-.03 1.6.1 2.4.6 2.03 1.48 3.6 2.65 4.7 1 .97 2.52 1.78 4.55 2.45 2.93.97 7.03.9 12.3-.2q1.245-.195 2.55-.6c1.5-.47 2.98-1.08 4.45-1.85 1.23-.63 2.28-1.52 3.15-2.65.53-.7.85-1.52.95-2.45 0-.13.02-.32.05-.55v-.55c0-1.33-.37-2.63-1.1-3.9-.8-1.17-1.83-2.25-3.1-3.25-2.2-1.63-4.63-2.63-7.3-3-.33-.07-.67-.1-1-.1-2.03-.2-4.22-.05-6.55.45q-4.95.945-8.1 3.45c-.47.33-.9.7-1.3 1.1q-3.705-1.155-6.6-3.3c-.23-.17-.42-.22-.55-.15-.23.13-.23.45 0 .95q.9 1.395 2.55 2.55m6.25 2.55c1.03.23 2.23.42 3.6.55.07 0 .15.02.25.05-.23.27-.42.63-.55 1.1-.4 1.47-.22 2.63.55 3.5.4.47.92.72 1.55.75s1.18-.17 1.65-.6q.705-.495 1.05-1.5c.2-.67.25-1.33.15-2-.07-.37-.17-.68-.3-.95 3.1.13 6.1.07 9-.2 2.47-.2 4.25-.47 5.35-.8.17-.03.3-.07.4-.1.57.6.9 1.17 1 1.7.03.1.05.18.05.25-.03.43-.12.83-.25 1.2-.1.27-.23.55-.4.85-.23.33-.48.7-.75 1.1-.57.87-1.3 1.5-2.2 1.9-1.47.7-2.95 1.2-4.45 1.5-.07.03-.15.07-.25.1-1.9.4-4.27.63-7.1.7-1.83.03-3.62-.3-5.35-1-1.93-.7-3.27-1.63-4-2.8-.03-.13-.05-.25-.05-.35-.4-.93-.47-1.9-.2-2.9.17-.67.55-1.33 1.15-2 .03-.03.07-.05.1-.05m11.3-1.05c-3.63 0-6.7-.22-9.2-.65 1.5-1 3.42-1.72 5.75-2.15 2.7-.53 5.18-.58 7.45-.15 2.2.4 4.15 1.23 5.85 2.5-2.6.33-5.88.48-9.85.45m50.35 38.2c-1.23.9-2 1.67-2.3 2.3-.4.6-.53.97-.4 1.1.1.17.33.32.7.45.53.2 1.35-.12 2.45-.95 1.07-.87 1.77-1.43 2.1-1.7q.495-.45.9-1.05.345-.6 0-1.35-1.605-.195-3.45 1.2m-1.85-19.95c.03.1.15.5.35 1.2.17.67.85 1.88 2.05 3.65 1.17 1.73 2.72 3.4 4.65 5 1.93 1.57 3.97 3.03 6.1 4.4 2.17 1.33 4.68 2.52 7.55 3.55s4.97 1.55 6.3 1.55c1.8-.07 3.02-.2 3.65-.4 1.67-.47 3.8-1.57 6.4-3.3 2.47-1.6 4.87-3.82 7.2-6.65 2.33-2.77 4.07-5.42 5.2-7.95.63-1.47 1.03-3.43 1.2-5.9.13-2.33.07-3.73-.2-4.2-.47-.73-1.7-1.33-3.7-1.8-1.13-.27-3.08-.43-5.85-.5-2.8-.1-5.55-.03-8.25.2-2.7.2-4.55.33-5.55.4-4.97.27-8.68.6-11.15 1-2.47.37-4.02.63-4.65.8-.67.13-2.52.55-5.55 1.25-3.03.67-4.97 1.95-5.8 3.85-.33 1.07-.32 2.32.05 3.75-.03 0-.03.03 0 .1m47.65-6.15q-.105.645-.15 1.2c-3.23-.27-8.13-.25-14.7.05-6.6.3-12.43 1.08-17.5 2.35q-7.545 1.845-9.45 3.15-2.1-2.355-1.8-3.6c.03-.2.12-.48.25-.85.67-.43 1.5-.78 2.5-1.05 1.7-.57 3.7-1.1 6-1.6 2.3-.53 4.3-.9 6-1.1 1.67-.23 3.98-.45 6.95-.65 2.97-.23 6.17-.4 9.6-.5 3.43-.13 6.42-.12 8.95.05 1 .07 1.98.25 2.95.55.37.07.5.73.4 2M70.99 241.72q-.045-.345-.15-.6l2.7-20.35q-1.095 2.895-2.1 5.85c-.8 2.3-1.47 4.58-2 6.85-.43 1.83-.87 3.62-1.3 5.35-.17.7-.33 1.42-.5 2.15-.26 1.24-.52 2.5-.78 3.75 1.99 1.79 4.02 3.47 6.08 5.05l-.66-2.64c-.43-1.83-.87-3.63-1.3-5.4Zm94.95 10.55c-.23-1.17-.4-2.32-.5-3.45-.07-.5-.05-1 .05-1.5.23-1.33.47-2.65.7-3.95s.45-2.58.65-3.85c.17-1.27.33-2.52.5-3.75q.255-1.905.45-3.75c.13-1.2.25-2.38.35-3.55.1-1.2.18-2.38.25-3.55.1-2.3.15-4.58.15-6.85 0-.37-.05-.7-.15-1-.07-.17-.13-.3-.2-.4l-.45-.1c-.2.23-.37.48-.5.75q-.105.105-.15.3c-.1.57-.18 1.13-.25 1.7l-.3 1.9c-.13.7-.25 1.4-.35 2.1-.13.73-.27 1.47-.4 2.2-.13.83-.25 1.67-.35 2.5-.13.9-.27 1.8-.4 2.7-.17.97-.32 1.93-.45 2.9-.17 1-.33 2-.5 3-.23 1.27-.47 2.55-.7 3.85-.23 1.37-.48 2.73-.75 4.1-.27 1.43-.55 2.88-.85 4.35-.33 1.53-.67 3.08-1 4.65-.37 1.63-.73 3.28-1.1 4.95-.25 1.07-.51 2.15-.77 3.23 1.32-.52 2.62-1.08 3.92-1.67l.55-2.25.32 1.85c1.14-.54 2.28-1.1 3.41-1.7-.16-.82-.32-1.63-.47-2.45-.23-1.1-.47-2.18-.7-3.25Zm-42.05 15c-.27.11-.55.27-.85.47q1.665.06 3.36.06c.46 0 .91-.01 1.37-.02-.32-.32-.69-.59-1.13-.77-.87-.3-1.78-.22-2.75.25Z"/></svg>