<svg xmlns="http://www.w3.org/2000/svg" id="a" viewBox="0 0 253 291.35"><defs><style>.h{fill:#807da6}.i{fill:#6b525e}</style></defs><path d="m128.51 256.01-.04-.17h.03l-.02-.27s-.75-.33-.78-.34c-8.19-4.61-14.63-8.47-19.15-11.47-6.79-4.52-12.59-9.2-17.24-13.91-3.62-3.62-5.3-6.92-4.99-9.82.18-1.71 1.22-3.66 3.08-5.81 2.69-3.17 4.21-5.09 4.63-5.87l.44-.81-13.24-3.48c-2.42-.64-4.19-1.31-5.26-1.97-1.8-1.1-2.82-2.41-3.12-4.03-.02-.11-.06-.47.1-1.37.11-.55.17-.79.19-.87l4.18-3.98c.25-.22.51-.43.76-.62l2.18-1.63-2.7.34c-7.06.9-13.49 2.01-19.12 3.31-7.74 1.77-14.9 4.04-21.26 6.73-1.08.43-1.68.97-1.82 1.61-.23.77-.11 1.93 1.79 3.06l7.89 5.2.02.08.02.05q.27.675.15 1.68c-.27 1.98-.52 3.93-.76 5.89 3.33 5.49 7.12 10.76 11.39 15.79 4.19 4.94 8.57 9.34 13.13 13.21.52-2.15 1.98-8.22 2.8-11.6l.13.13.28-1.27c.73-3.25 1.59-6.71 2.55-10.3.08-.36.17-.63.26-.85.26.68.39 1.5.41 2.44v.27c-.03.89-.21 2.12-.53 3.67-.6 2.77-2.88 13.23-2.88 13.23l.02.13c.42 2.59.78 5.09 1.09 7.46q23.505 17.91 53.28 17.91c.93 0 1.85-.02 2.77-.04v-.02c-.18-4.13-.4-8.08-.67-11.73Z" class="i"/><path d="M192.84 214.93c-.52-2.73-1.56-7.59-3.09-14.44l8.25-4.44-.65-.68c-1.33-1.39-3.08-2.54-5.23-3.43a60.2 60.2 0 0 0-16.38-3.39l-4.62-.4c-1.33-.07-2.55-.1-3.62-.1h-.48c-1.45.04-3.62.12-6.43.25-.36 0-.71.02-1.03.05l-1.48.17 1.06 1.05c.51.51.94 1.33 1.27 2.45.34 1.11.37 1.46.37 1.49-.09 1.29-.71 2.46-1.94 3.59-.82.82-2.13 1.74-3.9 2.73l-11.92 6.74.74.67c.69.62 1.72 1.4 3.07 2.31 1.41.98 2.42 1.73 3 2.21 2.22 1.85 3.54 3.78 3.9 5.72.27 1.51 0 3.17-.79 4.91-.58 1.22-1.58 2.81-2.98 4.74l-20.88 28.7h-.61l.04.16.18.73c.19.76.35 1.75.48 2.94.23 2.47.43 5.18.59 8.05 2.47-.09 4.91-.26 7.31-.54v-.08c-.01-2.32.37-4.81 1.13-7.4.45-1.51.96-2.72 1.54-3.66.06-.14.11-.27.17-.41.26-.62.5-.78.63-.85.05-.03.11-.04.17-.04l.58-.71.25 1.21c.15.25.34.73.54 1.68.57 3.42.76 6.53.58 9.27v.18c8.78-1.58 17.1-4.47 24.96-8.69.58-5.82 1.01-11 1.28-15.38.13-2.02.25-7.5.35-16.74.1-10.46-.01-17.78-.33-21.77l.1-.04s.08.01.13.04c0 0 .19.1.49.75.14.26.38.9.73 2.5.26 1.28.46 2.46.59 3.49.83 7.23 1.2 15.21 1.1 23.72 0 1.91-.01 3.05-.03 3.72l-.04-.02-.03 1.13c-.03 1.09-.08 2.2-.15 3.34-.17 3.75-.45 8.08-.85 12.87l-.04.52c8.44-5.01 16.33-11.61 23.66-19.77-.09-2.71-.2-5.23-.33-7.48-.33-5.37-.81-9.95-1.41-13.64Z" class="i"/><path d="m141.59 255.52-.06-.27-.25-1.21-.58.71-.37.45c-.21.25-.41.54-.6.85-.58.94-1.08 2.15-1.54 3.66-.76 2.59-1.14 5.08-1.13 7.4v.08c1.84-.21 3.65-.48 5.45-.8.07-.79.1-1.54.09-2.29 0-2.44-.34-5.33-1.01-8.6Z" style="fill:#25293b"/><path d="M109.83 209.96c-2.86-6.38-5.62-12.95-8.21-19.53l-.04-.09-.31-3.09 1.42 1.4c2.46 1.66 6.73 4.97 12.75 9.85.51.44 1 .85 1.5 1.25l.54.43-.42.56c-1.05 1.41-1.9 2.61-2.52 3.56-1.05 1.58-2.21 3.5-3.42 5.7l-.7 1.26-.59-1.32Zm17.16 16.32c-.49-1.02-1.58-2.97-3.22-5.8-2.07-3.66-2.6-4.49-2.74-4.66l-.27-.34.47-1.1 3.15-9.5 3.83 2.93.15 18.15zm-3.67-23.18c-1.6-1.13-2.97-2.12-4.11-2.96l-.6-.44.46-.58c3.41-4.36 6.11-7.97 8.03-10.72l1.31-1.88v4.34l-.1 5.71c-.03 2.86-.05 5.74-.05 8.64v1.39l-4.94-3.51Zm-12.8 8.3 3.55-5.48 6.52 9.52-1.93 13.94z" style="fill:#b5b3a3"/><path d="M127.52 253.74c-8.73-5.11-14.9-8.86-18.33-11.12-7.31-4.87-13.43-9.87-18.17-14.85-2.1-2.24-3.22-4.2-3.44-6.01-.22-1.62.22-3.34 1.3-5.11.69-1.14 1.84-2.5 3.41-4.04 1.4-1.34 2.32-2.49 2.75-3.43.28-.64.39-1.28.34-1.89-.03-.74-.23-1.29-.62-1.74-.32-.35-1.13-.88-3.23-1.38-4.41-1-8.59-2.19-12.42-3.52-1.8-.65-2.85-1.44-3.23-2.42-.17-.41-.03-.91.46-1.69.46-.78 1.19-1.6 2.14-2.42.99-.82 2.65-2.1 5.08-3.93 3.17-2.45 4-2.97 4.34-3.16.28-.14.98-.5 2.11-1.08l-.02-.07c2.1-1.14 4.4-2.24 6.81-3.28l.89-.38.11.96c.2 1.71.39 3.47.59 5.28.13.38.25.78.38 1.19 8.17 20.03 13.8 33.19 16.71 39.04 2.38 4.79 6.76 12.89 13.03 24.07l1.3 2.31-2.29-1.34Zm1.95-2.23c.3-3.78.67-8.18 1.1-13.06.16-7.95.28-19.05.35-32.94l.1-23.9.91.26c9.96 2.8 16.96 5.12 20.81 6.89 1.49.67 2.74 1.62 3.71 2.8.45.64.69.94.81 1.09h.45v.72c0 .27-.04.55-.13.85-.28.79-.94 1.45-2.04 2.08-3.87 2.38-8.13 4.78-12.63 7.11-1.69.86-2.64 1.75-2.83 2.66-.21 1.09.64 2.39 2.53 3.83l5.79 4.35c1.69 1.39 2.65 2.57 2.96 3.62.32 1.25-.02 2.8-1.05 4.79-1.94 3.72-5.19 8.71-9.66 14.84-4.8 6.52-8.11 11.37-9.86 14.43l-1.34-.41ZM23.52 91.05c-.42 0-.83 0-1.25-.01-1.58-.17-3.1-.41-4.58-.71a7.05 7.05 0 0 1-2.61-1.06c-.44-.35-.78-.73-1.06-1.16l-.22-.34.18-.36c.15-.3.32-.58.51-.85a15.9 15.9 0 0 1 4.67-4.1 26.4 26.4 0 0 1 5.13-2.41c1.82-.66 3.58-1.28 5.25-1.85 1.8-.63 3.64-1.2 5.45-1.67 1.23-.33 2.49-.65 3.76-.95 1.52-.27 3.1-.6 4.75-1 1.01-.18 2-.34 3-.51 1.54-.43 3.16-.67 4.75-.71 1.64-.13 3.38-.31 5.12-.54 1.68-.1 3.34-.22 5.04-.35 1.63-.07 3.22-.12 4.79-.15.3-.03.66-.05 1.02-.05h1.31l-.7 1.11c-.24.38-.56.82-.94 1.31-.1.11-.14.16-.17.23l-.03.06-.04.05c-1.25 1.65-2.94 4.1-5.02 7.31l-.11.16-.37.19c-1.76.73-3.57 1.42-5.43 2.09-1.21.4-2.4.82-3.6 1.25-1.51.45-3 .85-4.47 1.22-1.48.34-2.99.7-4.55 1.1-1.08.24-2.14.49-3.2.75-1.39.37-2.87.65-4.4.82-1.34.32-2.8.56-4.26.7-1.21.2-2.57.32-4 .35-1.23.07-2.5.11-3.74.11Zm84.07-19.36c-1.12-.03-2.12-.07-3.03-.1-.95-.03-3.21-.25-6.71-.65v-1.43c2.06-.26 3.64-.53 4.71-.79 1.74-.43 3.52-.94 5.29-1.53 1.68-.5 3.3-1.02 4.84-1.55 1.78-.62 3.54-1.28 5.22-1.94 1.8-.6 3.53-1.31 5.2-2.13.35-.15.67-.28.99-.39 1.18-.53 2.39-1.1 3.5-1.66 1.42-.74 2.74-1.52 3.94-2.34-.25-.66-.6-1.86-1.17-4.14l-.19-.77.79-.11c.94-.13 1.9-.25 2.88-.35 3.99-.53 7.97-1.15 11.8-1.84l7.81-1.3c1.47-.23 2.86-.47 4.19-.7 1.66-.21 3.29-.37 4.86-.51 1.23-.17 2.5-.25 3.76-.25 1.35-.13 2.75-.2 4.1-.2h6.19l-1.41 1.26a71 71 0 0 1-3.99 3.29c-.85.69-1.75 1.38-2.66 2.06-1.37 1.1-2.85 2.1-4.38 2.95-1.53.86-3.03 1.71-4.49 2.55-1.55.84-3.17 1.64-4.81 2.38-1.62.79-3.24 1.55-4.8 2.25-2.12.91-4.29 1.74-6.46 2.48-2.81.87-5.62 1.68-8.4 2.41-1.22.3-2.46.58-3.7.81s-2.48.45-3.72.65l-3.12.4c-1.6.3-3.27.55-4.9.75-1.96.2-3.52.32-4.67.35-1.14 0-2.46.03-3.94.1h-3.54ZM61.58 56.48c-.23-1.52-.5-3.04-.79-4.52-.43-1.99-.81-4.03-1.11-6.03-.24-1.39-.36-2.81-.36-4.21 0-1.28.03-2.55.1-3.79l.05-.98.92.34c1.27.48 2.84.82 4.67 1.01 1.83.16 3.74.25 5.67.25 1.92-.03 3.54-.13 4.81-.29 1.24-.16 2.42-.43 3.5-.81 1.78-.59 3.48-1.24 5.05-1.93l2.88-1.39c.95-.44 1.82-1 2.6-1.65 1.08-.89 2.12-1.83 3.1-2.81l3.05-3.05c1.24-1.31 2.6-2.52 4.03-3.57a43 43 0 0 1 5.96-3.57c1.34-.72 2.82-1.23 4.39-1.51.49-.1 1.01-.2 1.54-.3l.18-.03.17.06c.86.27 1.6.77 2.18 1.48 1.26 1.5 2.16 3.19 2.69 5.01.19.65.41 1.28.63 1.9.43 1.09.85 2.22 1.25 3.36.47 1.3.9 2.56 1.3 3.76.67 1.93 1.32 3.87 1.95 5.8l3.14 9.63-.53.28c-1.11.59-2.26 1.06-3.44 1.4-.67.27-1.4.61-2.11.99-.55.28-1.06.54-1.56.8-1.81.82-3.6 1.61-5.41 2.38-.6.21-1.15.41-1.68.61-1.14.37-2.25.78-3.32 1.24q-2.355.855-4.92 1.86c-1.6.67-3.19 1.23-4.71 1.67-1.55.49-3.08.98-4.59 1.45-1.47.44-3 .9-4.6 1.4-1.33.28-2.62.55-3.92.82-1.44.36-2.97.7-4.5 1l-.04.02-.12.03c-.94.2-1.9.43-2.85.69-1.58.4-3.16.79-4.73 1.16-.35.07-.66.14-.96.2-1.65.36-3.34.78-5.01 1.24-.7.12-1.32.23-1.94.36l-.74.16s-1.32-8.2-1.92-11.9Zm24.31-11.81c.02.13.2.57 1.39 1.35 1.14.72 2.71 1.1 4.67 1.13h.33c1.87 0 3.68-.26 5.4-.77 1.76-.59 3.57-1.24 5.35-1.93a37.6 37.6 0 0 0 4.94-2.5c1.56-.99 3.11-2.28 4.6-3.83 1.38-1.44 2.02-2.81 1.9-4.09-.11-1.22-1.05-2.08-2.89-2.62-1.99-.6-4.03-.9-6.08-.9-.6 0-1.2.03-1.81.08-.49.04-.97.11-1.43.2 1.43.16 3.06.4 4.9.72 2.97.52 4.63 1.23 5.22 2.24.27.46.32.99.14 1.51l-.04.11-.08.09c-1.84 2.31-3.76 4.15-5.71 5.45a32 32 0 0 1-6.46 3.13c-2.33.81-5.07 1.46-8.13 1.93-.83.12-1.56.18-2.18.18-2.63 0-3.29-1.09-3.39-2.01l-.03-.26 1.23-1.84c-.72.79-1.33 1.66-1.83 2.63Z" class="i"/><path d="m117.45 198.8-.07-.03-.05-.04c-3.08-2.45-5.43-4.3-6.99-5.49-2.72-2.1-5.18-3.76-7.31-4.94-.61-.34-1.13-.65-1.55-.93l-.27-.18-.04-.32c-.2-1.43-.39-2.95-.55-4.52l-.23-1.39h.13q-.3-2.46-.6-5.31c-.33-2.93-.62-5.48-.85-7.65-.1-.65-.3-2.81-.6-6.57l-.11-1.32 1.17.63c.43.23.87.46 1.33.69 5.59 2.7 11.47 4.87 17.46 6.45 3.2.89 6.46 1.57 9.72 2.03l.62.09v.63c-.04 4.74-.07 7.97-.1 9.71l-.11 5.38-8.89 11.74-1.51 1.96-.6-.61Z" class="h"/><path d="M53.49 176.97c-.43 0-.83-.09-1.17-.26-.7-.33-1.33-1-1.91-2.04-1.94-3.37-3.12-8.48-3.49-15.16-.83-13.94.69-28.72 4.52-43.92 1.36-5.53 3.17-11.57 5.37-17.96.79-2.41 1.89-5.53 3.25-9.26 1.12-2.53 2.31-4.85 3.56-6.97 1.12-1.77 2.32-3.44 3.56-4.99 1.1-1.41 2.28-2.75 3.49-4l.23-.23 2.18.12c1.68.1 3.36.15 5.01.15 2.01 0 3.97.09 5.81.25 1.58.24 3.15.49 4.75.76 1.51.23 3.09.43 4.71.59 1.49.27 3.01.45 4.57.55 1.55.17 3.08.28 4.59.35 1.48.03 2.97.05 4.47.05 1.94.03 3.9.05 5.9.05s3.89-.05 5.81-.15c1.85-.16 3.76-.38 5.64-.64 1.3-.17 2.6-.35 3.89-.55l.77-.12.06.77c.46 5.9.99 11.9 1.55 17.84l.08.79h-.68c-2.08 1-3.62 2.13-4.59 3.37l-.9 1.48c-.27.56-.47 1.07-.56 1.48l-.03.12-.06.1c-.29.48-.42 1.05-.39 1.75 0 .09.01.19.06.35l.08.23-.08.23c-.04.13-.06.29-.06.47.02.43.19.82.51 1.16.3.32 1.05.81 2.92 1.35.04 0 .08.02.12.02l.48.04.19.46c.09.3.5.91 2.12 1.67.82.3 1.56.55 2.14.71.91.25 2.37.41 4.33.47 4.52 0 8.16-.63 10.82-1.88l.38-.18c-2.09.42-3.77.7-4.93.85-1.37.23-3.48.36-6.24.36-1.36 0-2.36-.07-3.05-.22l-1.36-.3.09-1.42c.68-.07 1.46-.16 2.31-.29 3.86-.71 7.11-1.73 9.63-3.03l.12-.06h.13c7.58-.85 12.47-1.33 14.53-1.47 3.5-.26 7.05-.6 10.57-1 2.92-.24 5.9-.44 8.89-.6 2.32-.17 4.76-.33 7.29-.5 2.95-.27 5.96-.47 8.92-.6a46.5 46.5 0 0 1 6.85.1c.08 0 .26-.01.43-.01 4.39 0 7.08 2.31 7.77 6.67.17.99.3 2 .41 2.99l.16 1.56-1.29-.89c-.86-.6-1.88-1.28-3.04-2.04-.16-.12-.26-.19-.35-.25l-.31-.21v-.37c-.05-1.19-.19-1.47-.2-1.5-.2-.31-.89-.93-3.25-1.48-1.08-.25-3-.42-5.7-.48-.84-.03-1.67-.04-2.49-.04-1.91 0-3.82.08-5.68.24-2.71.2-4.56.33-5.56.4-4.93.26-8.65.6-11.08.99-2.44.36-3.98.63-4.58.79-.71.14-2.57.56-5.57 1.26-2.73.61-4.5 1.74-5.26 3.36l-.13.27-.28.1c-.34.12-.7.28-1.07.47l-.15.08h-.17s-.15.04-.36.2l-.05.04-.06.03c-1.86.98-4.53 2.77-7.95 5.34-3.67 2.75-6.56 4.96-8.58 6.58-3.15 2.63-5.95 5.26-8.32 7.83-1.54 1.67-3.12 3.59-4.7 5.69l-.36.48-.54-.27c-.38-.19-.82-.38-1.29-.58-2.07-.72-3.21-1.12-3.41-1.19-.85-.4-1.32-.63-1.47-.69-.22-.05-.42-.08-.58-.08-.13 0-.24.02-.31.05-.07.09-.13.21-.16.34 0 .04-.01.06.04.13l.04.05.03.05s.11.08.41.21l5.39 2.15c.07.01.25.07.45.15l.88.35-.58.75c-.65.85-1.3 1.77-1.91 2.75-1.14 1.65-2.61 3.82-4.36 6.46l-.27.4-.72-.15c-1.98-.47-2.56-.57-2.73-.59-.79-.11-1.55-.16-2.29-.16h-.03c.69.39 1.57.75 2.64 1.05.46.13 1.02.28 1.68.44l1 .25-.58.85c-.75 1.11-1.55 2.38-2.38 3.77-1.42 2.28-2.52 4.23-3.27 5.79l-.3.62-.63-.27c-3.31-1.4-6.8-3.15-10.38-5.19-.44-.27-.86-.51-1.29-.74l-.74-.4.51-.67c2.51-3.26 4.27-5.73 5.26-7.34 1.26-2.07 2.94-4.6 5-7.52-3-.29-3.75-.43-4.04-.51-5.79-.93-11.62-3.23-17.24-6.84-3.56-2.28-7.03-5.09-10.32-8.34l-.22-.22v-.31c.04-2.38.16-4.54.36-6.42.06-1.24.25-3.19.55-5.76.06-.81.08-1.58.05-2.28-.01-.27-.03-.54-.04-.79-.15.47-.27 1-.38 1.59-.83 3.53-1.48 7.01-1.94 10.37-.07.43-.11.79-.15 1.16-.07.41-.12.77-.15 1.15-.5 3.98-.76 7.91-.8 11.7v1.04c0 1.78.13 4.82.4 9.05.23 4.07.33 7.3.3 9.61-.03 4.4-.57 7.86-1.61 10.27-.58 1.41-1.46 2.89-2.59 4.4-3.63 4.75-8 8.26-12.99 10.43-.84.4-1.58.6-2.24.6Zm37.03-62.29c.18.05.46.08.79.08.27 0 .57-.02.89-.06 3.6-.45 7.35-1.67 11.16-3.63 5.61-2.87 10.07-6.44 13.26-10.6 1.58-2.04 2.34-3.84 2.26-5.36l-.33-.16.14-.56c.21-.84.25-1.69.14-2.52-.28-1.35-.98-2.34-2.13-2.97q-1.155-.66-3.3-.66h-.26c-2.77 0-5.77.52-8.91 1.56-2.56.79-5.54 2.04-8.85 3.71-1.11.61-1.93 1.09-2.4 1.44-.91.62-1.86 1.46-2.85 2.51-.96.86-1.64 1.61-2.08 2.26-.55.74-1 1.59-1.38 2.56-.16.6-.17 1.12-.03 1.42l.35.21.08.51c.1.61.38 1.14.86 1.56.37.31 1 .68 1.88 1.08 1.15.44 2.29.67 3.34.67.51 0 1.02-.06 1.49-.17h.06l.06-.02c.47-.03.99-.1 1.52-.19 5.64-.59 10.63-2.29 14.88-5.04l.88 1.13c-3.65 3.38-8.21 6.2-13.57 8.39l-.05.02h-.05c-.14.05-.9.3-4.52 1.64l-3.32 1.19Z" class="h"/><path d="M93.16 152.24c-3.43-2.53-6.41-4.71-8.94-6.55-1.86-1.34-4.72-4.16-8.76-8.6l-.16-.18-.02-.24c-.1-1.21-.19-2.48-.25-3.82h.05l-.05-.79c-.2-3.13-.3-6.06-.3-8.69v-1.74l1.43 1.43c.64.67 1.29 1.32 1.94 1.94 1.49 1.33 3.4 2.83 5.67 4.44 3.53 2.38 6.82 4.21 9.76 5.42 3.23 1.3 6.62 2.2 10.07 2.65l1.21.16-11.05 15.01-.58-.43Zm47.07 14.35.33-.95c.05-.15.13-.29.22-.41.16-.36.29-.69.37-.97l.02-.06.02-.03v-.04c.15-.5.17-.96.07-1.4-.7.52-1.39 1.29-2.06 2.29l-.59.86-.05.05-.22.41h-.49c-2.04-.17-4.33-.46-6.81-.86-3.27-.5-5.93-.99-7.9-1.46-2.64-.6-5.67-1.47-9.01-2.57-1.13-.37-2.29-.77-3.43-1.21l-.74-.28.46-.92.2-.39h.07c2.05-3.65 3.99-6.91 5.76-9.71l.26-.42 3.33.64c.32.09.56.13.75.13.12 0 .23-.02.31-.05.07-.03.14-.09.2-.17.04-.06.04-.1.04-.15-.01-.05-.08-.34-.87-.44h-.05l-3.2-.88.53-.82c.77-1.2 1.49-2.31 2.16-3.31 3.67-5.54 7.33-10.3 10.87-14.14 3.41-3.68 8.55-8.28 15.28-13.67 2.52-1.98 4.62-3.45 6.25-4.37.41-.24.82-.45 1.21-.63l.43-.26 1.49-.75v1.62c.03.35.1.77.21 1.21l1.06 1.06h-.8c.03.12.07.24.11.38.11.42.52 1.34 1.95 3.44 1.12 1.67 2.64 3.3 4.51 4.85 1.9 1.54 3.93 3 6.03 4.35 2.1 1.29 4.6 2.47 7.41 3.48 2.77 1 4.81 1.51 6.06 1.51 2.12-.08 3.04-.24 3.43-.37 1.61-.45 3.69-1.53 6.22-3.21 2.4-1.56 4.77-3.75 7.04-6.51 2.28-2.71 4-5.32 5.1-7.79.59-1.37.98-3.28 1.14-5.65v-.05c0-.21.03-.4.09-.58l.31-.92.79.57c.27.19.53.42.79.68l.2.2c.12.13.25.27.37.43.32.35.72.83 1.14 1.38l1.48 1.19-.88 10.48c-.25 1.32-.54 2.57-.87 3.78-.27 1.01-.58 2.03-.91 3.04a36.5 36.5 0 0 1-2.8 6.76c-.24.41-.45.79-.64 1.18l-.44.88-.62-.6c-.64-.23-1.14-.36-1.49-.39-.18-.02-.33-.03-.47-.03-.27 0-.5.03-.71.1.15.07.37.19.65.33q.15.045.27.15c.15.1.4.29.88.77l.19.19c.07.04.14.09.21.16l.43.43-.35.5c-.22.31-.42.64-.61.98a40 40 0 0 1-2.47 3.5 121 121 0 0 1-4.58 5.48 52 52 0 0 1-3.18 3.48 49 49 0 0 1-3.61 3.16c-.99.83-2.03 1.63-3.08 2.37l-2.34 1.54-.23-1.02c-.07-.33-.13-.65-.16-.98s-.05-.66-.05-1.02l.2-4.69c.08-.83.2-1.64.35-2.44 0-.15.02-.29.04-.42-.04-.4-.1-.55-.12-.58a.4.4 0 0 0-.09-.1v.21s-.89-.18-.91-.18a120 120 0 0 1-5.35 4.71c-3.41 2.9-6.9 5.45-10.39 7.56-2.08 1.27-4.11 2.37-6.02 3.24l-.63.29-.21-.42h-.02l-.24-.43-.2-.45-.11-.22-.02-.05a2.5 2.5 0 0 0-.18-.41c-.32-.67-.57-1.14-.79-1.48-.05-.06-.12-.15-.2-.23-.31-.26-.64-.41-.95-.42-.01.26.09.64.31 1.1l1.65 3.37-.76.27c-1.9.68-3.75 1.16-5.48 1.43-3.48.54-6.63.81-9.34.81h-2.48Zm-7.22-15.98c-1.4.85-2.66 1.66-3.72 2.42.59-.31 1.01-.52 1.28-.66l1.63-.89c.57-.38.84-.72.91-.92-.03.01-.06.03-.09.04Zm16.83-16.22c-.11.02-.33.06-.7.2-.37.11-.94.38-1.84 1.13-.72.57-1.24 1.22-1.55 1.94-.2.43-.24.68-.24.81v.1c.04 0 .14-.02.3-.1.33-.16.97-.58 2.2-1.65 1.24-1.16 1.62-1.61 1.73-1.77.09-.17.14-.38.12-.57 0-.05-.02-.08-.03-.1Zm5.01 1.57s.11.05.19.08h.05c.27 0 .76-.12 1.72-.85 1.05-.85 1.75-1.42 2.09-1.69.25-.23.52-.54.75-.89a.47.47 0 0 0 .08-.24c-.76.03-1.59.4-2.49 1.08-1.42 1.03-1.92 1.68-2.08 2.03l-.02.05-.03.04c-.11.17-.19.3-.24.4Zm-5.26-8.17c.18 0 .51-.05 1.06-.29.74-.34 1.36-.69 1.81-1.02.42-.36.83-.72 1.19-1.05.45-.41.61-.63.66-.72.05-.11.09-.19.11-.25v-.2c-.16-.22-.25-.23-.3-.23h-.09l-.12.06h-.12c-.49.02-1.08.29-1.76.8-.81.58-1.66 1.3-2.53 2.14-.15.13-.24.24-.28.34v.18l.07.09s.07.1.25.15h.07Z" style="fill:#605d81"/><path d="M93.41 69.99c-1.06 0-2.13-.05-3.19-.16-.98-.1-1.97-.24-2.95-.41l-3.52-.19c-1.16-.1-2.36-.17-3.58-.2h-.01c-1.09 0-2.21-.03-3.31-.1h-4.21c-.93 0-1.87.02-2.83.05h-2.02l-.09-1.43c.76-.1 1.51-.21 2.27-.35l2.09-.4c1.45-.24 2.88-.48 4.3-.75.42-.12.92-.24 1.44-.35 1.87-.3 3.79-.67 5.74-1.1 1.61-.49 3.29-.94 4.93-1.35l2.07-.59c1.66-.46 3.33-.97 4.98-1.49 1.49-.5 3.06-1.02 4.7-1.55 1.77-.62 3.52-1.29 5.2-1.98 1.69-.66 3.3-1.36 4.81-2.08 1.29-.54 2.52-1.09 3.7-1.65l.79-.39 10.43-5.35 4 9.5-.54.32c-.57.34-1.16.67-1.77 1.01-1.28.68-2.57 1.32-3.84 1.92-.58.27-1.16.53-1.74.77-2.72 1.23-5.6 2.38-8.53 3.41-1.43.5-2.85 1-4.25 1.5-1.48.41-2.91.83-4.33 1.26-2.74.94-5.69 1.64-8.76 2.07-.7.04-1.34.06-1.98.06" style="fill:#322033"/><path d="M130.92 104.38c-1.93-.03-3.67-.39-5.19-1.05h-.57l-.04-.58c-.22-.44-.39-.84-.52-1.2l-.16-.43.32-.32s.02-.03.05-.11c.02-.14.07-.42.2-1.03.03-.12.06-.23.09-.31v-.03l.05-.18q.09-.24.24-.66c.31-.82.8-1.56 1.47-2.23l.04-.04 1.34-.98c.52-.34 1.02-.63 1.54-.9 1.07-.64 2.23-1.18 3.4-1.59 2.75-1.06 5.7-1.6 8.75-1.6h.56c1.52 0 2.91.2 4.11.58.99.41 1.64.87 2.02 1.42.7 1 .63 2.3-.21 3.85-.18.33-.38.64-.59.96-1.04 1.27-2.57 2.37-4.58 3.35-2.75 1.36-5.58 2.27-8.4 2.71-1.39.24-2.71.36-3.91.36h-.01Zm.48-7.24c-.19.12-.39.27-.55.43-.54.43-.73.7-.82.86-.21.39-.28.75-.23 1.14.09.43.28.79.57 1.06.19.19.39.31.63.41.12.04.3.08.49.11.07 0 .15.01.23.01.33 0 .63-.08.93-.24l.81-.43 1.67-.52c.81-.36 1.2-.6 1.37-.73.18-.15.35-.32.49-.49.06-.12.15-.33.2-.54.09-.5-.04-.92-.41-1.29-.36-.41-.86-.67-1.53-.8h-.13c-.39 0-.83.06-1.3.18-.2.04-.34.07-.46.1-.51.1-.94.21-1.32.35l-.65.37Zm-38.69 8.22c-.58 0-1.1-.05-1.57-.14-1.3-.18-2.39-.64-3.19-1.37l-.24-.21v-.32c0-.47.15-1.04.46-1.74l1.13-2.37.03-.05c.13-.18.19-.29.22-.34v-.28l.27-.18.1-.15c.87-1.05 1.58-1.78 2.15-2.25 1.13-1.03 2.92-2.05 5.28-3.01 1.95-.81 3.67-1.39 5.1-1.73 2.79-.75 5.66-1.14 8.51-1.14 1.1 0 2.22.06 3.33.17.8.04 1.41.23 1.8.58.28.2.57.59.83 1.14.23.5.31.94.26 1.34-.04.52-.26 1.04-.66 1.52-.24.41-.88 1.14-1.9 2.15-.73.83-1.53 1.58-2.33 2.17-.98.74-2.4 1.52-4.33 2.38-2.78 1.36-4.86 2.22-6.35 2.64-1.93.58-4.33.94-7.11 1.08-.62.08-1.25.13-1.81.13Zm4.51-6.37c-.56.52-.41.85-.33 1.03.05.13.13.37.73.49.12.02.23.04.35.04.27 0 .59-.06.94-.17.51-.11.87-.22 1.15-.36l.56-.33c.35-.16.66-.25 1.01-.33 1.19-.37 2.21-.77 2.96-1.18.46-.22.75-.47.91-.76.12-.18.16-.35.16-.56 0-.19-.03-.34-.09-.39q-.21-.21-.69-.24c-.29-.04-.5-.06-.71-.06-.28 0-.55.03-.82.09l-3.81 1.3-2.32 1.42Z" style="fill:#fff"/><path d="M160.25 114c-1.37-1.52-2.01-2.7-1.99-3.7l-.1-.48.14-.17c.03-.16.12-.46.25-.83l.08-.22.2-.13c.13-.08.26-.15.39-.2.64-.38 1.42-.7 2.32-.94 1.67-.56 3.72-1.1 6.03-1.61 2.31-.53 4.35-.91 6.07-1.11 1.66-.23 4.01-.45 6.99-.65 2.95-.23 6.2-.4 9.63-.5 1.52-.06 2.98-.09 4.33-.09 1.69 0 3.27.05 4.68.14 1.04.07 2.07.26 3.08.57.56.12.89.64.99 1.57v.85l-.03.11v.23l-.02.05c-.06.42-.11.8-.15 1.16l-.06.71-.71-.06c-1.49-.12-3.38-.19-5.61-.19-2.52 0-5.55.08-9 .24-6.52.3-12.36 1.08-17.36 2.33-4.93 1.21-8.03 2.23-9.22 3.05l-.52.35-.42-.47Z" style="fill:#d6dee8"/><path d="M193.79 206.52c-.33-1-.68-1.88-1.05-2.65v-.05c-.17-.3-.33-.6-.5-.9l4.5-2.35c1.1-.57 1.92-1.12 2.45-1.65q1.2-1.35 1.2-3.15c-.03-1.57-.83-2.95-2.4-4.15-1.5-1.19-3.54-2.26-6.1-3.2l-6.15-1.8c-1.3-.33-2.37-.55-3.2-.65-3.73-.47-7.55-.78-11.45-.95-5.18-.1-10.38.16-15.6.8-2.73-1.47-5.92-2.73-9.55-3.8-1.3-.37-3.83-1.02-7.6-1.95q-6.15-1.5-6.6-1.5l-.3-7.5c1.03.1 2.08.18 3.15.25-.23.4-.47.82-.7 1.25-.5.8-.6 1.42-.3 1.85.3.53.78.67 1.45.4.4-.13.83-.45 1.3-.95.4-.53.92-1.32 1.55-2.35 4.2.23 8.35-.08 12.45-.95a42 42 0 0 0 8.95-2.85l.65 1.3c.5 1.2.97 2.02 1.4 2.45.7-.7.93-1.62.7-2.75-.07-.5-.27-1.17-.6-2a45 45 0 0 0 6.3-4c4.7-3.5 9.03-7.38 13-11.65.03-.07.07-.12.1-.15l-.6 3.2c-.5 1.8-.62 3.62-.35 5.45.13.87.67 1.55 1.6 2.05q1.005.555 2.1.6c.37-.03.75-.07 1.15-.1.67-.23 1.33-.5 2-.8.53-.2 1.03-.47 1.5-.8 2.2-1.47 4.32-3.07 6.35-4.8 1.8-1.6 3.53-3.33 5.2-5.2 1.7-1.87 3.23-3.78 4.6-5.75.83-1.2 1.63-2.42 2.4-3.65.5.2 1.05.38 1.65.55 1.33.4 2.23.27 2.7-.4.17-.27.23-.58.2-.95a2 2 0 0 0-.45-.95c-.23-.23-.83-.6-1.8-1.1l-.5-.2c.93-1.83 1.78-3.7 2.55-5.6q1.305-3.255 1.95-6.75v-.1c1.4-6.1 2.08-12.25 2.05-18.45-.03-6.13-2.6-10.58-7.7-13.35-1.07-.3-2.52-.48-4.35-.55-2.57-.1-6.75-.12-12.55-.05-2.3 0-4.8.08-7.5.25-4.13.23-8.73.62-13.8 1.15-6.07.63-12.38 1.45-18.95 2.45.23-.67.42-1.35.55-2.05.2-.93.18-1.7-.05-2.3-.33-1.07-1.15-1.9-2.45-2.5-1.8-.97-4.23-1.3-7.3-1q-4.095.345-7.8 1.65c-.2-2.27-.42-4.53-.65-6.8-.33-3.37-.62-6.77-.85-10.2 1.3-.27 2.58-.57 3.85-.9 1.47-.33 2.93-.72 4.4-1.15 1.93-.5 3.82-1.07 5.65-1.7 1.4-.5 2.8-1.02 4.2-1.55 1.9-.77 3.7-1.55 5.4-2.35 1.37-.67 2.7-1.33 4-2 1.3-.73 2.6-1.5 3.9-2.3.87-.47 1.73-.97 2.6-1.5 1.6-1.07 3.22-2.17 4.85-3.3 1.53-1.17 3.07-2.38 4.6-3.65 1.33-1.13 2.55-2.43 3.65-3.9.6-.83.9-1.7.9-2.6s-.27-1.57-.8-2.1c-.63-.67-1.43-1.03-2.4-1.1-2-.07-3.98-.05-5.95.05-2 .1-3.97.28-5.9.55-1.7.23-3.42.48-5.15.75q-2.655.345-5.7.9c-1.73.33-3.5.63-5.3.9-.7.17-1.4.33-2.1.5q-2.595.495-5.1 1.05l-3.8.9c-1.73.23-3.47.63-5.2 1.2-.63.13-1.25.27-1.85.4l-4.4-14.85-.9-2.9c-.4-1.33-.82-2.62-1.25-3.85-.63-1.9-1.33-3.73-2.1-5.5q-.945-2.25-2.4-4.5c-.27-.37-.45-.77-.55-1.2-.2-.87-.47-1.65-.8-2.35-.47-.9-.98-1.72-1.55-2.45-.27-.33-.52-.67-.75-1-1.3-.33-2.68-.38-4.15-.15-1.37.27-2.72.58-4.05.95-.6.23-1.18.45-1.75.65-1.37.53-2.58 1.12-3.65 1.75-1.6 1.03-3.2 2.12-4.8 3.25-1.33 1-2.57 2.08-3.7 3.25-.97.9-1.98 1.8-3.05 2.7-1.17.93-2.32 1.82-3.45 2.65-1.57 1.2-3.3 2.3-5.2 3.3-1.2.7-2.45 1.32-3.75 1.85-.87.33-1.75.65-2.65.95-1.13.33-2.28.62-3.45.85-1.93 0-3.88-.12-5.85-.35-1.17-.3-2.33-.58-3.5-.85-1.07-.27-2.13-.52-3.2-.75-1.13-.23-2.12.1-2.95 1-.4.43-.67.93-.8 1.5a16.3 16.3 0 0 0-.65 3.85c-.03 1.3-.02 2.6.05 3.9.1 1.97.28 3.88.55 5.75.27 1.93.55 3.83.85 5.7.23 1.33.45 2.67.65 4 .33 2.07.67 4.13 1 6.2.23 1.53.55 3.05.95 4.55-1.8.23-3.58.43-5.35.6q-2.205.195-4.5.6-2.745.45-5.55.9c-1.77.37-3.53.75-5.3 1.15q-2.955.705-6 1.5c-1.27.37-2.53.75-3.8 1.15-1.67.47-3.38 1.02-5.15 1.65-1.73.53-3.47 1.13-5.2 1.8-1.67.67-3.2 1.5-4.6 2.5-1.43.97-2.8 2.17-4.1 3.6q-.795.945-.6 2.25c.13.87.27 1.73.4 2.6.3 1.57 1.15 2.83 2.55 3.8.37.27.75.53 1.15.8.7.43 1.43.73 2.2.9 1.97.4 3.93.67 5.9.8 2.9.2 5.87.07 8.9-.4 2.33-.33 4.67-.73 7-1.2 1.53-.2 3.07-.53 4.6-1 .87-.2 1.73-.38 2.6-.55 1.13-.4 2.28-.78 3.45-1.15 3.4-1.17 6.83-2.37 10.3-3.6-2.6 5.8-5.02 12.55-7.25 20.25-.23.73-.42 1.45-.55 2.15-1.93 6.23-3.48 12.15-4.65 17.75-1.17 5.5-1.95 10.93-2.35 16.3-.33 3.27-.48 6.53-.45 9.8-.07 1.4-.07 2.82 0 4.25.2 8.13 1.5 14.67 3.9 19.6.97 2.2 2.12 3.72 3.45 4.55.67.37 1.48.62 2.45.75 1.4.03 3.08-.37 5.05-1.2 4.8-2.2 9.18-5.77 13.15-10.7 2.47-2.93 4.15-5.9 5.05-8.9.57-2.17.87-4.95.9-8.35-.03-.83-.05-1.68-.05-2.55l-.2-4.55c-.02-.55-.03-1.12-.05-1.7q3.75 3.75 8.1 7.05c3.27 2.5 6.65 4.8 10.15 6.9l1.8 19.85c-.07.03-.13.07-.2.1-.13-.07-.25-.12-.35-.15 0 .07-.02.15-.05.25v.05c-.07 0-.13.02-.2.05q-.15.045-.3.15c-3.13 1.5-5.88 2.93-8.25 4.3l-1.85.9c-.5.27-1.12.67-1.85 1.2-1.3 0-2.7.07-4.2.2-4.07.37-8.88 1.08-14.45 2.15-6.1 1.2-11.27 2.47-15.5 3.8-5.53 1.7-10.42 3.77-14.65 6.2-1.3.7-2.12 1.45-2.45 2.25-.47 1.07-.33 2.27.4 3.6.77 1.47 2.05 2.75 3.85 3.85 1.07.63 2.65 1.4 4.75 2.3.27-.03.6.07 1 .3.37.2.55.33.55.4-.25.84-.49 1.79-.72 2.83.93 1.68 1.92 3.35 2.94 4.99.28-2.24.57-4.49.88-6.77.1-.8.03-1.48-.2-2.05-.03-.13-.05-.22-.05-.25h.05l-8.2-5.4q-1.845-1.095-1.5-2.25c.1-.43.57-.82 1.4-1.15 6.37-2.7 13.42-4.93 21.15-6.7q8.445-1.95 19.05-3.3c-.27.2-.53.42-.8.65l-4.3 4.1c-.07.1-.17.48-.3 1.15-.13.77-.17 1.32-.1 1.65q.495 2.7 3.45 4.5c1.13.7 2.95 1.38 5.45 2.05l12.35 3.25c-.4.73-1.92 2.65-4.55 5.75-1.97 2.27-3.05 4.33-3.25 6.2-.33 3.13 1.4 6.6 5.2 10.4 4.7 4.77 10.48 9.43 17.35 14 4.57 3.03 10.97 6.87 19.2 11.5.07.03.22.1.45.2.27 3.72.49 7.63.66 11.71.68-.01 1.35-.04 2.02-.07-.16-2.87-.35-5.57-.59-8.09-.13-1.23-.3-2.25-.5-3.05h.05l21.1-29c1.43-1.97 2.45-3.58 3.05-4.85.87-1.9 1.15-3.68.85-5.35-.4-2.13-1.78-4.18-4.15-6.15-.6-.5-1.62-1.25-3.05-2.25q-1.995-1.35-3-2.25l11.05-6.25q2.745-1.545 4.05-2.85c1.33-1.23 2.05-2.58 2.15-4.05 0-.3-.13-.88-.4-1.75-.37-1.23-.85-2.15-1.45-2.75.3-.03.62-.05.95-.05 2.87-.13 5.02-.22 6.45-.25 1.19-.01 2.54.02 4.05.1 1.53.13 3.07.27 4.6.4 5.6.37 11 1.48 16.2 3.35 2.03.84 3.68 1.93 4.95 3.25l-7.9 4.25c1.6 7.17 2.67 12.15 3.2 14.95.6 3.67 1.07 8.18 1.4 13.55.14 2.5.26 5.24.35 8.2 1.03-1.13 2.05-2.28 3.06-3.47.35-.41.68-.82 1.02-1.23-.05-1-.11-1.94-.18-2.8-.7-8.7-2.03-16.3-4-22.8Zm17.85-93.75.05-.05v.4c-.07-.17-.08-.28-.05-.35m-135.9 20.05c.03.23.06.47.1.7-.03-.23-.05-.47-.05-.7l-.05-.8c-.2-3.13-.3-6.02-.3-8.65l.2.2q.945 1.005 1.95 1.95c1.53 1.37 3.45 2.87 5.75 4.5 3.6 2.43 6.9 4.27 9.9 5.5 3.3 1.33 6.72 2.23 10.25 2.7l-9.9 13.45c-3.43-2.53-6.42-4.72-8.95-6.55-1.8-1.3-4.68-4.13-8.65-8.5-.1-1.2-.18-2.47-.25-3.8m26.4 12.15c1.4-2.3 3.3-5.13 5.7-8.5-2.97-.27-4.68-.47-5.15-.6-5.8-.93-11.48-3.18-17.05-6.75q-5.295-3.405-10.2-8.25c.03-2.37.15-4.48.35-6.35.07-1.27.25-3.18.55-5.75.07-.87.08-1.67.05-2.4s-.08-1.4-.15-2c-.03-.37-.08-.7-.15-1 0-.1-.02-.18-.05-.25l-.2.25q-.105.15-.15.3c-.5.8-.88 1.93-1.15 3.4-.83 3.53-1.48 7-1.95 10.4v.05c-.07.37-.12.75-.15 1.15-.07.37-.12.75-.15 1.15-.5 4-.77 7.92-.8 11.75v1.05c0 1.8.13 4.83.4 9.1.23 4.07.33 7.25.3 9.55-.03 4.33-.55 7.67-1.55 10-.57 1.37-1.4 2.78-2.5 4.25-3.57 4.67-7.8 8.07-12.7 10.2-1.2.57-2.13.68-2.8.35-.57-.27-1.1-.85-1.6-1.75-1.9-3.3-3.03-8.25-3.4-14.85-.83-13.93.67-28.5 4.5-43.7 1.37-5.53 3.15-11.5 5.35-17.9.8-2.43 1.88-5.52 3.25-9.25 1.1-2.47 2.27-4.75 3.5-6.85 1.1-1.73 2.27-3.37 3.5-4.9 1.1-1.4 2.25-2.72 3.45-3.95.63.03 1.25.07 1.85.1 1.7.1 3.38.15 5.05.15 2 0 3.92.08 5.75.25 1.53.23 3.1.48 4.7.75 1.53.23 3.12.43 4.75.6 1.47.27 3 .45 4.6.55 1.53.17 3.07.28 4.6.35 1.5.03 3 .05 4.5.05 1.93.03 3.9.05 5.9.05s3.92-.05 5.85-.15c1.9-.17 3.8-.38 5.7-.65 1.3-.17 2.6-.35 3.9-.55.47 5.93.98 11.88 1.55 17.85h-.05c-2.27 1.07-3.93 2.28-5 3.65l-.95 1.55c-.33.67-.55 1.23-.65 1.7-.37.6-.53 1.32-.5 2.15 0 .17.03.35.1.55-.07.2-.1.43-.1.7.03.63.27 1.18.7 1.65.53.57 1.62 1.08 3.25 1.55.13.03.23.05.3.05.23.73 1.07 1.43 2.5 2.1q1.35.495 2.25.75c.97.27 2.47.43 4.5.5 4.67 0 8.38-.65 11.15-1.95l1.35-.65c.3-.03.52-.12.65-.25.2-.23.18-.47-.05-.7-.2-.13-.52-.18-.95-.15-2.63.53-4.62.88-5.95 1.05-1.37.23-3.42.35-6.15.35-1.3 0-2.27-.07-2.9-.2q-.45-.105-1.35-.3c.7-.07 1.48-.17 2.35-.3 3.97-.73 7.25-1.77 9.85-3.1 7.6-.83 12.43-1.32 14.5-1.45 3.53-.27 7.07-.6 10.6-1q4.35-.345 8.85-.6c2.33-.17 4.77-.33 7.3-.5 2.97-.27 5.93-.47 8.9-.6 2.27-.13 4.52-.1 6.75.1 4.37-.17 6.88 1.85 7.55 6.05.17 1 .3 1.98.4 2.95-.87-.6-1.88-1.28-3.05-2.05-.13-.1-.25-.18-.35-.25-.03-.97-.13-1.58-.3-1.85-.47-.73-1.7-1.33-3.7-1.8-1.13-.27-3.08-.43-5.85-.5-2.8-.1-5.55-.03-8.25.2-2.7.2-4.55.33-5.55.4-4.97.27-8.68.6-11.15 1-2.47.37-4.02.63-4.65.8-.67.13-2.52.55-5.55 1.25-2.97.67-4.88 1.92-5.75 3.75-.37.13-.75.3-1.15.5-.23 0-.5.12-.8.35-1.9 1-4.58 2.8-8.05 5.4-3.7 2.77-6.57 4.97-8.6 6.6-3.2 2.67-6 5.3-8.4 7.9-1.57 1.7-3.15 3.62-4.75 5.75q-.6-.3-1.35-.6l-3.45-1.2c-.97-.47-1.47-.7-1.5-.7-.7-.17-1.22-.13-1.55.1-.2.2-.33.45-.4.75-.07.27 0 .52.2.75.1.17.35.33.75.5l5.4 2.15q.195.045.45.15c-.67.87-1.32 1.8-1.95 2.8q-1.695 2.445-4.35 6.45l-.25-.05c-1.53-.37-2.47-.57-2.8-.6-1.47-.2-2.88-.22-4.25-.05.77.97 2.2 1.75 4.3 2.35.47.13 1.03.28 1.7.45-.77 1.13-1.57 2.4-2.4 3.8q-2.145 3.45-3.3 5.85c-3.3-1.4-6.73-3.12-10.3-5.15-.43-.27-.87-.52-1.3-.75 2.53-3.3 4.3-5.77 5.3-7.4m-87.5-57.25q.195-.405.45-.75c1.2-1.57 2.68-2.87 4.45-3.9 1.67-1 3.33-1.78 5-2.35 1.83-.67 3.58-1.28 5.25-1.85q2.7-.945 5.4-1.65c1.23-.33 2.48-.65 3.75-.95 1.5-.27 3.08-.6 4.75-1 .97-.17 1.95-.33 2.95-.5 1.57-.43 3.12-.67 4.65-.7 1.7-.13 3.43-.32 5.2-.55 1.63-.1 3.3-.22 5-.35 1.6-.07 3.18-.12 4.75-.15.33-.03.67-.05 1-.05-.23.37-.53.78-.9 1.25-.1.1-.18.22-.25.35-1.27 1.67-2.95 4.12-5.05 7.35-.07.03-.13.07-.2.1-1.7.7-3.48 1.38-5.35 2.05-1.2.4-2.4.82-3.6 1.25-1.47.43-2.93.83-4.4 1.2-1.47.33-2.98.7-4.55 1.1-1.07.23-2.13.48-3.2.75-1.37.37-2.8.63-4.3.8-1.4.33-2.82.57-4.25.7-1.23.2-2.55.32-3.95.35-1.67.1-3.32.13-4.95.1-1.5-.17-2.98-.4-4.45-.7-.87-.17-1.65-.48-2.35-.95-.33-.27-.62-.58-.85-.95m97.15-69.35c.73.23 1.35.65 1.85 1.25 1.2 1.43 2.05 3.02 2.55 4.75.2.67.42 1.32.65 1.95.43 1.1.85 2.22 1.25 3.35.47 1.3.9 2.55 1.3 3.75.67 1.93 1.32 3.87 1.95 5.8l2.95 9.05q-1.605.855-3.3 1.35-1.155.45-2.25 1.05c-.53.27-1.05.53-1.55.8-1.77.8-3.55 1.58-5.35 2.35q-.855.3-1.65.6c-1.13.37-2.25.78-3.35 1.25-1.57.57-3.2 1.18-4.9 1.85q-2.4 1.005-4.65 1.65c-1.57.5-3.1.98-4.6 1.45-1.47.43-3 .9-4.6 1.4-1.27.27-2.55.53-3.85.8-1.47.37-2.97.7-4.5 1-.03 0-.08.02-.15.05-.97.2-1.93.43-2.9.7-1.57.4-3.13.78-4.7 1.15-.33.07-.65.13-.95.2-1.67.37-3.35.78-5.05 1.25-.63.1-1.27.22-1.9.35-.6-3.73-1.2-7.45-1.8-11.15-.23-1.53-.5-3.05-.8-4.55-.43-2-.8-4-1.1-6-.23-1.37-.35-2.73-.35-4.1 0-1.27.03-2.52.1-3.75 1.33.5 2.95.85 4.85 1.05 1.87.17 3.78.25 5.75.25 1.97-.03 3.6-.13 4.9-.3s2.52-.45 3.65-.85q2.7-.9 5.1-1.95l2.9-1.4c1-.47 1.92-1.05 2.75-1.75q1.65-1.35 3.15-2.85l3.05-3.05c1.23-1.3 2.55-2.47 3.95-3.5a42.5 42.5 0 0 1 5.85-3.5c1.3-.7 2.7-1.18 4.2-1.45.5-.1 1.02-.2 1.55-.3m54.5 29.55c1.4-.13 2.77-.2 4.1-.2h4.3c-1.23 1.1-2.55 2.18-3.95 3.25-.87.7-1.75 1.38-2.65 2.05-1.37 1.1-2.8 2.07-4.3 2.9q-2.295 1.305-4.5 2.55c-1.53.83-3.12 1.62-4.75 2.35q-2.445 1.2-4.8 2.25c-2.1.9-4.23 1.72-6.4 2.45-2.8.87-5.58 1.67-8.35 2.4-1.2.3-2.42.57-3.65.8s-2.47.45-3.7.65c-1.03.13-2.07.27-3.1.4-1.63.3-3.27.55-4.9.75-1.93.2-3.47.32-4.6.35-1.13 0-2.45.03-3.95.1h-3.5c-1.1-.03-2.1-.07-3-.1-.93-.03-3.15-.25-6.65-.65 2.1-.27 3.7-.53 4.8-.8 1.77-.43 3.55-.95 5.35-1.55 1.67-.5 3.28-1.02 4.85-1.55q2.7-.945 5.25-1.95c1.8-.6 3.55-1.32 5.25-2.15.3-.13.6-.25.9-.35a88 88 0 0 0 3.6-1.7c1.67-.87 3.18-1.78 4.55-2.75-.2-.1-.67-1.62-1.4-4.55.93-.13 1.88-.25 2.85-.35 4.03-.53 7.98-1.15 11.85-1.85 2.6-.43 5.2-.87 7.8-1.3 1.47-.23 2.87-.47 4.2-.7 1.63-.2 3.23-.37 4.8-.5 1.23-.17 2.47-.25 3.7-.25m-18.25 45.65c.53.77.45 1.8-.25 3.1-.17.3-.35.6-.55.9-.93 1.13-2.37 2.17-4.3 3.1-2.7 1.33-5.43 2.22-8.2 2.65-1.37.23-2.63.35-3.8.35-1.9-.03-3.58-.38-5.05-1.05-.03 0-.05-.02-.05-.05-.23-.47-.42-.88-.55-1.25.1-.1.18-.25.25-.45 0-.07.07-.42.2-1.05.03-.13.07-.25.1-.35v-.05c.07-.17.15-.4.25-.7.27-.7.7-1.35 1.3-1.95l1.3-.95c.47-.3.95-.58 1.45-.85 1.07-.63 2.17-1.15 3.3-1.55 2.87-1.1 5.88-1.62 9.05-1.55 1.47 0 2.77.18 3.9.55.8.33 1.35.72 1.65 1.15m-21.55-35.2c-1.27.67-2.53 1.3-3.8 1.9-.57.27-1.13.52-1.7.75a108 108 0 0 1-8.5 3.4c-1.43.5-2.85 1-4.25 1.5-1.43.4-2.87.82-4.3 1.25-2.73.93-5.62 1.62-8.65 2.05-1.67.1-3.33.07-5-.1-.97-.1-1.93-.23-2.9-.4-1.2-.07-2.4-.13-3.6-.2-1.17-.1-2.37-.17-3.6-.2-1.1 0-2.2-.03-3.3-.1h-4.25c-.93 0-1.88.02-2.85.05h-2c.77-.1 1.53-.22 2.3-.35.7-.13 1.4-.27 2.1-.4 1.43-.23 2.87-.48 4.3-.75.47-.13.95-.25 1.45-.35 1.87-.3 3.78-.67 5.75-1.1q2.505-.75 4.95-1.35l2.1-.6c1.67-.47 3.33-.97 5-1.5 1.5-.5 3.07-1.02 4.7-1.55 1.8-.63 3.55-1.3 5.25-2 1.7-.67 3.32-1.37 4.85-2.1 1.27-.53 2.5-1.08 3.7-1.65.27-.13.53-.27.8-.4l9.75-5 3.45 8.2c-.57.33-1.15.67-1.75 1m76.7 77.4c-.73-.27-1.32-.42-1.75-.45-1.1-.13-1.93.13-2.5.8.17.2.42.38.75.55q.255.105.9.45c.03 0 .07.02.1.05.17.1.43.33.8.7l.15.15.15.15c.03 0 .07.02.1.05-.23.33-.45.68-.65 1.05-.73 1.17-1.53 2.3-2.4 3.4-1.47 1.87-2.98 3.68-4.55 5.45q-1.5 1.8-3.15 3.45c-1.13 1.1-2.32 2.13-3.55 3.1-1 .83-2.02 1.62-3.05 2.35l-1.45.95q-.105-.45-.15-.9c-.03-.3-.04-.61-.05-.95l.2-4.65c.08-.8.2-1.6.35-2.4 0-.17.02-.32.05-.45-.03-.43-.1-.75-.2-.95-.13-.23-.33-.42-.6-.55-.33-.1-.6-.08-.8.05-.03 0-.05.02-.05.05a1.4 1.4 0 0 0-.5 0c-1.73 1.63-3.57 3.25-5.5 4.85-3.4 2.9-6.83 5.4-10.3 7.5a56 56 0 0 1-5.95 3.2l-.1-.2h-.05l-.2-.45-.1-.2c-.07-.2-.15-.38-.25-.55-.3-.63-.57-1.13-.8-1.5-.1-.13-.2-.25-.3-.35-.67-.57-1.33-.75-2-.55-.3.47-.23 1.15.2 2.05l1.3 2.65c-1.87.67-3.65 1.13-5.35 1.4-3.67.57-6.9.83-9.7.8h-1c.03-.1.08-.18.15-.25.2-.43.35-.82.45-1.15.03-.07.05-.12.05-.15.27-.97.17-1.85-.3-2.65-1.03.53-2.03 1.52-3 2.95l-.55.8-.05.05s-.07.1-.1.15c-2.03-.17-4.28-.45-6.75-.85-3.27-.5-5.88-.98-7.85-1.45-2.63-.6-5.62-1.45-8.95-2.55-1.13-.37-2.27-.77-3.4-1.2.03-.07.07-.13.1-.2h.05c2.13-3.8 4.12-7.15 5.95-10.05.87.17 1.82.35 2.85.55.6.17 1.08.18 1.45.05.23-.1.42-.25.55-.45s.18-.42.15-.65q-.195-.9-1.5-1.05l-2.2-.6c.77-1.2 1.48-2.3 2.15-3.3 3.67-5.53 7.27-10.22 10.8-14.05 3.4-3.67 8.47-8.2 15.2-13.6 2.5-1.97 4.55-3.4 6.15-4.3.4-.23.78-.43 1.15-.6.17-.1.33-.2.5-.3.13-.07.27-.13.4-.2v.45c.03.47.12.95.25 1.45-.03.03-.03.07 0 .1-.03 0-.03.03 0 .1.03.1.15.5.35 1.2.17.67.85 1.88 2.05 3.65 1.17 1.73 2.72 3.4 4.65 5 1.93 1.57 3.97 3.03 6.1 4.4 2.17 1.33 4.68 2.52 7.55 3.55s4.97 1.55 6.3 1.55c1.8-.07 3.02-.2 3.65-.4 1.67-.47 3.8-1.57 6.4-3.3 2.47-1.6 4.87-3.82 7.2-6.65 2.33-2.77 4.07-5.42 5.2-7.95.63-1.47 1.03-3.43 1.2-5.9v-.1c0-.13.02-.25.05-.35.23.17.47.37.7.6l.05.05.05.05.1.1c.1.1.2.22.3.35.37.4.77.88 1.2 1.45l1.25 1-.85 10.1a45 45 0 0 1-.85 3.65q-.405 1.5-.9 3c-.7 2.33-1.62 4.55-2.75 6.65-.23.4-.45.8-.65 1.2-.03-.03-.07-.05-.1-.05m-46.2 57.6c0 .2-.03.42-.1.65-.2.57-.77 1.12-1.7 1.65-3.9 2.4-8.1 4.77-12.6 7.1-1.9.97-2.97 2.02-3.2 3.15-.27 1.4.67 2.92 2.8 4.55l5.8 4.35c1.53 1.27 2.43 2.35 2.7 3.25.27 1.03-.07 2.45-1 4.25-1.93 3.7-5.13 8.62-9.6 14.75-4.83 6.57-8.13 11.4-9.9 14.5.3-3.83.67-8.18 1.1-13.05.17-8 .28-19 .35-33l.1-22.95c9.97 2.8 16.87 5.08 20.7 6.85 1.4.63 2.55 1.5 3.45 2.6.63.9 1 1.35 1.1 1.35m-35.1 21.3 2.85-8.6 2.75 2.1.15 17.8c-.5-1.03-1.58-2.98-3.25-5.85-1.6-2.83-2.53-4.42-2.8-4.75zm1.85-12.15a273 273 0 0 1-4.1-2.95c3.43-4.4 6.12-7.98 8.05-10.75v2.05l-.1 5.7c-.03 2.87-.05 5.75-.05 8.65-1.03-.73-2.3-1.63-3.8-2.7m-3.9 13.1-1.55 11.2-6.95-15.35 2.75-4.25zm-17.5-26.35c2.4 1.63 6.62 4.9 12.65 9.8.5.43 1 .85 1.5 1.25q-1.605 2.145-2.55 3.6c-1.07 1.6-2.22 3.52-3.45 5.75-2.87-6.4-5.6-12.9-8.2-19.5-.03-.33-.07-.67-.1-1 .03.03.08.07.15.1m15.65 9.05a.7.7 0 0 0-.2-.15c-3.1-2.47-5.43-4.3-7-5.5-2.77-2.13-5.23-3.8-7.4-5q-.9-.495-1.5-.9c-.2-1.43-.38-2.93-.55-4.5-.03-.2-.07-.4-.1-.6.03 0 .07.02.1.05a313 313 0 0 1-.7-6.15c-.33-2.93-.62-5.48-.85-7.65-.1-.67-.3-2.85-.6-6.55.43.23.88.47 1.35.7a98 98 0 0 0 17.6 6.5c3.23.9 6.5 1.58 9.8 2.05-.03 4.73-.07 7.97-.1 9.7-.03 1.7-.07 3.42-.1 5.15l-8.75 11.55zm40.95-88.3s.04-.06.05-.1c.03-.2.12-.48.25-.85q.15-.105.3-.15c.6-.37 1.33-.67 2.2-.9 1.7-.57 3.7-1.1 6-1.6 2.3-.53 4.3-.9 6-1.1 1.67-.23 3.98-.45 6.95-.65 2.97-.23 6.17-.4 9.6-.5 3.43-.13 6.42-.12 8.95.05 1 .07 1.98.25 2.95.55.23.03.38.35.45.95v.65c-.03.1-.05.2-.05.3v.1q-.105.645-.15 1.2c-3.23-.27-8.13-.25-14.7.05-6.6.3-12.43 1.08-17.5 2.35q-7.545 1.845-9.45 3.15-1.905-2.1-1.8-3.3c-.02-.06-.04-.12-.05-.2m-68.55 76.55s-.02-.05-.05-.05a85 85 0 0 1 6.75-3.25c.2 1.73.4 3.52.6 5.35.13.4.27.82.4 1.25 8.23 20.2 13.82 33.25 16.75 39.15 2.4 4.83 6.75 12.87 13.05 24.1q-13.155-7.695-18.3-11.1c-7.3-4.87-13.32-9.78-18.05-14.75-1.97-2.1-3.05-3.97-3.25-5.6q-.3-2.205 1.2-4.65 1.005-1.65 3.3-3.9c1.47-1.4 2.43-2.62 2.9-3.65.33-.77.47-1.52.4-2.25-.03-.87-.3-1.58-.8-2.15-.57-.63-1.77-1.17-3.6-1.6-4.4-1-8.52-2.17-12.35-3.5-1.57-.57-2.5-1.23-2.8-2-.07-.17.07-.52.4-1.05.43-.73 1.1-1.48 2-2.25.97-.8 2.65-2.1 5.05-3.9 2.33-1.8 3.75-2.83 4.25-3.1.27-.13.98-.5 2.15-1.1"/><path d="M172.54 242.47c.07-1.13.12-2.25.15-3.35.07.03.1-1.58.1-4.85.1-8.57-.27-16.5-1.1-23.8-.13-1.07-.33-2.25-.6-3.55-.3-1.37-.57-2.27-.8-2.7-.27-.57-.53-.92-.8-1.05a.98.98 0 0 0-.8-.05c-.27.1-.43.27-.5.5.33 3.93.45 11.25.35 21.95-.1 9.13-.22 14.7-.35 16.7-.28 4.53-.73 9.81-1.33 15.84 1.63-.85 3.24-1.77 4.83-2.74.4-4.83.68-9.13.85-12.9m-68.9-212.6c-1.83.17-3.5.63-5 1.4 1.97 0 4.77.32 8.4.95s5.23 1.57 4.8 2.8c-1.8 2.27-3.65 4.03-5.55 5.3a30.6 30.6 0 0 1-6.3 3.05c-2.3.8-4.97 1.43-8 1.9-3.03.43-4.62.03-4.75-1.2l3.55-5.3c-2.5 1.37-4.37 3.27-5.6 5.7-.13.6.43 1.32 1.7 2.15 1.27.8 2.95 1.22 5.05 1.25 2.07.03 4.05-.23 5.95-.8q2.7-.9 5.4-1.95c1.7-.7 3.38-1.55 5.05-2.55 1.63-1.03 3.22-2.35 4.75-3.95s2.23-3.15 2.1-4.65c-.13-1.53-1.27-2.62-3.4-3.25-2.67-.8-5.38-1.08-8.15-.85m39.15 226.95c-.2-.97-.43-1.65-.7-2.05-.21-.28-.48-.47-.78-.61-.03-.01-.05-.03-.07-.04-.4-.13-.74-.11-1.04.05-.37.17-.68.57-.95 1.2a32.6 32.6 0 0 0-2.75 9.7c-.08.78-.11 1.51-.11 2.21.47-.05.94-.11 1.41-.17-.01-2.23.35-4.63 1.1-7.2.57-1.9 1.23-3.32 2-4.25.67 3.23 1 6.05 1 8.45 0 .83-.03 1.64-.1 2.42.53-.09 1.06-.19 1.59-.29.18-2.79-.01-5.93-.59-9.43Zm-64.4-51.8c.03-.2.07-.38.1-.55-.1.13-.2.27-.3.4.07.03.13.08.2.15m-2.8 24.2c.33-1.6.52-2.87.55-3.8v-.3c-.03-1.57-.37-2.82-1-3.75-.5.3-.87.97-1.1 2-.97 3.6-1.82 7.03-2.55 10.3a.4.4 0 0 1-.1-.15c-1.13 4.67-2.14 8.83-3.02 12.52a96 96 0 0 0 5.56 4.46c-.32-2.58-.72-5.31-1.18-8.18 1.3-5.97 2.25-10.33 2.85-13.1Zm41.6-128.3c1.73-2.23 2.53-4.22 2.4-5.95 0-.2-.07-.33-.2-.4.23-.93.28-1.87.15-2.8-.33-1.6-1.17-2.77-2.5-3.5-.87-.5-2.08-.75-3.65-.75-2.93-.03-6.07.5-9.4 1.6-2.6.8-5.58 2.05-8.95 3.75-1.17.63-2 1.13-2.5 1.5-.93.63-1.92 1.5-2.95 2.6-.97.87-1.68 1.65-2.15 2.35-.57.77-1.05 1.67-1.45 2.7-.23.87-.23 1.53 0 2 .07.17.18.3.35.4v.05c.13.83.5 1.52 1.1 2.05.43.37 1.12.77 2.05 1.2 1.93.73 3.7.92 5.3.55.5-.03 1.03-.1 1.6-.2 5.73-.6 10.78-2.32 15.15-5.15q-5.4 4.995-13.35 8.25c-.27.07-1.8.62-4.6 1.65l-5.3 1.9c-.07.17.13.25.6.25.13 0 .6.13 1.4.4.5.13 1.17.15 2 .05 3.7-.47 7.5-1.7 11.4-3.7q8.595-4.395 13.5-10.8m-28.35.95 1.1-2.3c.23-.33.35-.55.35-.65.1-.07.17-.13.2-.2v-.05c.83-1 1.52-1.72 2.05-2.15 1.1-1 2.8-1.97 5.1-2.9 1.93-.8 3.6-1.37 5-1.7 3.83-1.03 7.7-1.35 11.6-.95.67.03 1.13.17 1.4.4.23.17.45.47.65.9.17.37.23.68.2.95-.03.4-.2.78-.5 1.15-.27.43-.88 1.13-1.85 2.1q-1.095 1.245-2.25 2.1c-.93.7-2.33 1.47-4.2 2.3-2.73 1.33-4.82 2.2-6.25 2.6-1.9.57-4.22.92-6.95 1.05-1.3.17-2.37.17-3.2 0q-1.8-.255-2.85-1.2c0-.37.13-.85.4-1.45m61.2 31.8c-.23-.03-.62.05-1.15.25-.57.17-1.25.58-2.05 1.25-.8.63-1.38 1.37-1.75 2.2-.2.43-.3.8-.3 1.1q-.045.345.15.6c.27.3.67.32 1.2.05s1.32-.85 2.35-1.75c1-.93 1.62-1.57 1.85-1.9.2-.37.28-.72.25-1.05-.07-.4-.25-.65-.55-.75m4.9-8.6c.1-.2.17-.37.2-.5v-.3a.73.73 0 0 0-.15-.4c-.2-.33-.47-.52-.8-.55-.06-.01-.11 0-.16 0-.1 0-.2.01-.29.06-.63.03-1.35.35-2.15.95-.83.6-1.7 1.33-2.6 2.2-.27.23-.43.48-.5.75v.25c-.03.17.03.35.2.55q.255.345.75.45h.15c.37 0 .82-.12 1.35-.35.8-.37 1.45-.73 1.95-1.1.47-.4.88-.77 1.25-1.1.4-.37.67-.67.8-.9Zm1.85 7.8c-1.23.9-2 1.67-2.3 2.3q-.405.6-.45.9c0 .1.02.17.05.2.1.17.33.32.7.45.53.2 1.35-.12 2.45-.95 1.07-.87 1.77-1.43 2.1-1.7q.495-.45.9-1.05c.13-.2.2-.43.2-.7-.03-.2-.1-.42-.2-.65q-1.605-.195-3.45 1.2m-24.1 17.1c-1.93 1.17-3.53 2.23-4.8 3.2q-.45.405-.45 1.65c.27-.07.43-.12.5-.15.1-.03.53-.3 1.3-.8.77-.4 1.32-.68 1.65-.85l1.65-.9c.9-.6 1.33-1.17 1.3-1.7-.07-.33-.18-.55-.35-.65-.2-.03-.47.03-.8.2m2.7-54.55a5.5 5.5 0 0 0-1.75.2c-.17.03-.32.07-.45.1-.53.1-1.02.23-1.45.4l-.7.4c-.27.17-.5.35-.7.55-.47.37-.78.72-.95 1.05-.27.5-.37 1.02-.3 1.55.13.63.4 1.13.8 1.5.23.23.52.42.85.55.2.07.42.12.65.15.57.07 1.1-.03 1.6-.3l.75-.4 1.6-.5c.77-.33 1.3-.62 1.6-.85q.345-.3.6-.6c.17-.27.28-.55.35-.85q.195-1.155-.6-1.95c-.43-.5-1.07-.83-1.9-1"/><path d="M97.49 101.22q.705.15 1.65-.15c.5-.1.92-.23 1.25-.4l.6-.35c.23-.1.5-.18.8-.25 1.3-.4 2.35-.82 3.15-1.25q.855-.405 1.2-1.05c.17-.23.25-.53.25-.9q0-.6-.3-.9c-.27-.27-.65-.42-1.15-.45-.6-.1-1.18-.08-1.75.05l-3.95 1.35-2.45 1.5c-.67.6-.85 1.23-.55 1.9.17.47.58.77 1.25.9"/></svg>