<svg xmlns="http://www.w3.org/2000/svg" id="a" viewBox="0 0 253 291.35"><defs><style>.e{fill:#a5799a}.g{fill:#809992}.h{fill:#847362}</style></defs><path d="M121.4 265.41c-1.67-1.38-3.35-2.8-4.98-4.23-1.8-1.61-3.63-3.27-5.44-4.94q-.705-.66-1.47-1.32l-.56-.49-.47.58a25.5 25.5 0 0 1-2.83 2.97c-1.89 1.73-4.07 2.81-6.43 3.21-.13.01-.25.02-.37.02-1.37 0-2.29-.72-2.89-2.26a50.4 50.4 0 0 1-3.4-19.57v-.32l-.22-.22c-2-1.9-3.98-3.8-5.94-5.69-1.59-1.56-3.19-3.09-4.75-4.55-1.17-1.14-2.34-2.25-3.5-3.36l-2.17-2.06c-.68-.61-1.42-1.23-2.22-1.85-.55-.39-1.1-.8-1.62-1.23-.6-.47-1.19-.92-1.77-1.37-.45-.32-.86-.65-1.31-1.06-.29-.2-.56-.4-.81-.59.32-.21.65-.42 1.03-.64.38-.28.76-.54 1.16-.77 1.39-.9 2.85-1.8 4.32-2.68 2.21-1.29 4.46-2.53 6.69-3.69 1.61-.89 3.25-1.74 4.9-2.55.26-.14.53-.27.86-.41h.86l-.22-.89c-.08-.34-.39-.71-1-.71h-.12l-1.15-.19c-.61-.07-1.23-.12-1.83-.15-2.76-.2-5.48-.42-8.09-.64-1.74-.27-3.48-.54-5.19-.81l-1.34-14.68-.91.39c-1.23.53-2.53 1.08-3.87 1.64l-1.52.58c-.29.07-.59.16-.83.26-1.03.31-1.99.68-2.82 1.07-2.13.89-3.78 2.27-4.89 4.09-.42.71-.78 1.45-1.06 2.22-1.87 5.15-3.36 10.55-4.43 16.06-.49 2.49-.96 5-1.43 7.51 2.59 3.87 5.42 7.63 8.5 11.26 4.29 5.05 8.77 9.54 13.44 13.48l.4-1.81c.79-3.54 1.65-7.09 2.54-10.52.36-1.33.79-2.68 1.29-4.01.04-.12.09-.24.16-.36h.15c.12.13.22.35.24.73 0 .31-.02.62-.05.95-.03.49-.08.97-.14 1.44a39 39 0 0 1-.64 3.34c-.1.44-.2.89-.3 1.36l-.04.18 4.49 14.82c14.07 9.53 29.76 14.46 47.04 14.81l-.81-.61a54 54 0 0 1-2.22-1.76Zm38.49-18.47c.89-3.57 1.88-7.16 2.94-10.67l-1.27-.63c-2.57 3.57-5.29 7.19-8.08 10.78-3.03 3.9-6.19 7.81-9.39 11.63a62 62 0 0 1-5.28 5.58c-1.06.97-2.25 2.01-3.63 3.16l-.8.67c7.88-.66 15.41-2.32 22.58-4.97 0-1.39.13-2.78.39-4.14.76-3.81 1.62-7.65 2.54-11.42ZM187 210.08c-.33-1.8-.69-3.59-1.06-5.37-.6-2.7-1.28-5.31-2.01-7.75-1.2-3.95-3.83-6.62-7.78-7.91-.77-.3-1.53-.59-2.26-.85a27.5 27.5 0 0 0-4.68-1.32c-.42-.1-.82-.19-1.2-.26l-.84-.15-.1 13.46-15.45 4.16 1.75.84c2.98 1.42 5.97 2.9 8.88 4.39 2.74 1.42 5.51 2.95 8.23 4.54 1.94 1.08 3.8 2.33 5.56 3.71-1.46 1.65-2.91 3.33-4.3 4.99l-3.09 3.59c-1.14 1.26-2.32 2.51-3.51 3.71l-1.71-.56 1.05 1.57s-.03.04-.05.07l.51.51 1.51 1.82c.43.49.72 1.05.9 1.71.66 2.49 1.28 5.07 1.84 7.67.76 3.58 1.45 7.27 2.04 10.97l.3 1.88c6.99-4.23 13.59-9.53 19.81-15.93-.33-3.43-.74-6.92-1.24-10.37-.9-6.38-1.94-12.8-3.1-19.08Z" class="g"/><path d="M109.53 183.67c-.54-.44-1.06-.88-1.57-1.31a145 145 0 0 0-7.82-6.63l-.26-.21v-.33c-.08-1.78-.2-3.55-.36-5.26-.26-2.74-.6-5.52-1-8.27l-.2-1.36 2.43 1.22c2.07.91 4.26 1.83 6.45 2.73 2.16.83 4.33 1.68 6.5 2.55a60 60 0 0 0 15.29 4.41l.58.09.21 3.67-.37.22c-2.96 1.77-5.47 4.17-7.47 7.13l-.49.72-.62-.62c-.11-.11-.21-.2-.32-.28a11.2 11.2 0 0 0-3.5-1.27 6.2 6.2 0 0 0-1.42-.17c-1.86 0-3.5.94-5.04 2.86l-.45.57-.56-.46Zm-3.1-88.39c-3.65 0-6.79-.22-9.32-.66l-1.78-.31 1.5-1c1.57-1.05 3.6-1.81 6.02-2.26 1.52-.3 3-.45 4.4-.45 1.14 0 2.26.1 3.32.3 2.29.42 4.36 1.3 6.14 2.63l1.43 1.06-1.77.23c-2.38.31-5.37.46-8.87.46h-1.08Z" class="h"/><path d="M144.28 166.35c-1.82 0-3.63-.09-5.36-.26-5.33-.54-9.87-1.31-13.51-2.27-4.42-1.14-5.49-1.42-5.61-1.44-2.62-.61-5.2-1.32-7.67-2.12-.7-.2-1.41-.44-2.09-.72-1.24-.39-2.5-.87-3.68-1.41-2.95-1.19-5.89-2.6-8.7-4.18-2.43-1.36-4.81-2.75-7.07-4.11a63.4 63.4 0 0 1-7.5-5.57 66 66 0 0 1-7.12-6.97c-.67-.77-1.42-1.5-2.22-2.17-1.09-.88-2.09-1.85-2.98-2.88l-.2-.23.68-7.16a96.6 96.6 0 0 1 5.19-19.94c.16-.45.33-.91.49-1.38l.85-2.31c.58-1.5 1.15-3 1.7-4.5.28-.76.49-1.55.62-2.36-.01-.02-.03-.04-.04-.05-.08-.05-.16-.1-.24-.16-.07 0-.14-.01-.22-.01-.85 1.73-1.67 3.52-2.43 5.31l-.03.06-.04.06s-.05.09-.07.13l-.02.05-.02.05s-.04.09-.06.15l-.02.05-.22.45c-2.33 4.99-4.35 10.33-6 15.83-1.88 6.15-3.37 12.47-4.43 18.81-.28 1.71-.73 3.36-1.34 4.9l-.26.58c-.42.97-.93 1.93-1.5 2.83l-.19.33-1.68 2.27-.13.13-.04.08-.38.43-.29.29-.17.17a11.85 11.85 0 0 1-5.98 3.22c-.19.03-.33.06-.47.09l-.09.02h-.02l-.1.05h-.17l-2.03.05h-.57c-.47-.04-.87-.1-1.26-.16l-.28-.05-.47-.1c-1.2-.33-2.29-.83-3.25-1.51a5.6 5.6 0 0 1-1.97-2.16c-.72-1.38-1.27-2.83-1.61-4.32l-.05-.14v-.05q-.075-.36-.12-.75c-.3-2.37-.45-4.61-.45-6.63 0-.88.03-1.73.1-2.51.2-2.83.78-5.88 1.73-9.04.63-2.1 1.28-4.11 1.91-5.98l.3-.9c1.33-4.04 2.67-7.48 3.98-10.23.53-1.13 1.09-2.26 1.66-3.37l.55-1.09c1.3-2.76 2.73-5.52 4.27-8.19l.49-.93c.06-.12.14-.24.23-.33l.14-.14.19-.05c1.19-.29 2.44-.73 3.72-1.31 2.18-1.1 4.14-2.64 5.8-4.56 1.58-1.96 2.71-4.16 3.35-6.52l.14-.53h.55c1.58 0 3.15-.26 4.67-.76 1.21-.41 2.4-.98 3.55-1.68 2.49-1.64 4.39-3.76 5.63-6.3.55-1.23.87-2.45.93-3.62v-1.64l1.02.47c.5.23.73.28.8.29.52.13 1.01.19 1.52.19 1.52 0 3.32-.51 5.36-1.52 3.73-1.87 6.48-4.09 8.17-6.61l.69-1.03.55 1.11c.04.09.09.2.14.34.47 1.01.97 1.82 1.48 2.32 1.07 1.07 2.5 1.59 4.37 1.59h.16c1.37-.03 3.08-.47 5.09-1.3.9-.37 1.64-.78 2.18-1.2l.72-.56.38.83c.16.35.35.71.57 1.09.26.44.71.98 1.34 1.6.47.47.91.84 1.3 1.12.61.36 1.33.61 2.1.73.34.05.71.08 1.12.08.53 0 1.12-.04 1.77-.13l.55-.07.21.51c.24.59.45 1.21.63 1.83.64 2.3 1.09 4.71 1.32 7.17q.405 3.75.75 7.5c.27 3.03.55 6.06.85 9.1l.04.45-.39.23c-.32.19-.64.4-.96.62-1.89 1.37-3.14 2.83-3.68 4.35-.12.32-.27.99-.31 2.38v.9c.71 3.26 2.48 5.04 5.38 5.46q1.635.3 3.21.3c1.54 0 3.08-.21 4.6-.63 1.88-.45 3.66-1.14 5.29-2.04l.13-.07s5.9-.62 8.8-.92c1.29 0 2.49-.12 3.64-.34 2.52-.28 5.1-.51 7.73-.71 4.6-.56 9.38-.95 14.17-1.15 5.35-.37 10.75-.73 16.18-1.1.74-.02 1.44-.03 2.14-.03 2.1 0 4.23.08 6.31.23 1.48.15 2.79.65 3.93 1.49 1.31.97 2.11 2.2 2.38 3.65.4 2.12.67 4.25.81 6.33.13 2.49.12 4.96-.05 7.35l-.06.34c-.94 6.16-3.03 12.1-6.23 17.62A64.3 64.3 0 0 1 192 149.56c-.61.65-1.21 1.24-1.75 1.75l-.92.87-.27-1.24c-.3-1.35-.63-2.71-.99-4.01-.18-.74-.46-1.42-.82-2.02-.15-.28-.33-.47-.55-.6s-.45-.25-.68-.34c-.29.13-.56.29-.8.48-1.55 1.2-2.76 2.68-3.61 4.41-.23.52-.49 1.06-.76 1.57l-.92 1.72-.42-1.9c-.06-.29-.13-.57-.2-.83-.14-.89-.32-1.68-.54-2.42-.22-.79-.63-1.34-1.25-1.68-.11-.04-.29-.08-.46-.08-.14 0-.27.02-.41.07l-.1.04h-.11c-1.12.06-1.98.54-2.65 1.46-3.38 4.65-5.59 10-6.57 15.89l-.08.49-3.04.6c-2.53.57-5.12 1.02-7.7 1.36-4.18.77-8.27 1.17-12.1 1.17Zm5.5-31.97s-.25.01-.72.21c-.53.16-1.14.53-1.86 1.13-.72.57-1.23 1.22-1.55 1.94-.33.73-.25.96-.24.96.07-.02.19-.04.41-.15.33-.16.97-.58 2.2-1.65 1.24-1.16 1.62-1.61 1.73-1.77.09-.17.14-.38.12-.57 0-.05-.02-.08-.03-.1h-.05Zm5.39 1.66c.21 0 .69-.11 1.63-.84 1.06-.86 1.76-1.43 2.09-1.69.25-.23.52-.54.75-.89.03-.05.06-.12.06-.23-.83.02-1.67.37-2.57 1.05-1.42 1.03-1.91 1.68-2.08 2.03l-.02.05-.03.04c-.12.17-.19.3-.24.4.05.02.11.05.19.08h.23Zm.71-22.12c.11.42.53 1.34 1.95 3.44 1.12 1.67 2.64 3.3 4.51 4.85 1.9 1.54 3.93 3 6.03 4.35 2.1 1.29 4.6 2.47 7.41 3.48 2.77 1 4.81 1.51 6.06 1.51l2.7-.2.16-.04c.29-.05.53-.1.72-.14 1.57-.44 3.65-1.52 6.17-3.2 2.4-1.56 4.77-3.75 7.04-6.51 2.28-2.71 4-5.32 5.1-7.79.59-1.37.98-3.28 1.14-5.65.18-3.1-.06-3.7-.11-3.79-.18-.29-.88-.9-3.24-1.46-.21-.05-.46-.09-.75-.14l-4.98-.34-7.69.15c-.17 0-.33.01-.5.04h-.06l-.06.01c-.16 0-.32.01-.48.04l-4.92.36h-.12l-10.02.85c-.37.03-.71.08-1.02.14-2.46.37-4 .63-4.61.79-.7.14-2.56.56-5.57 1.26-2.79.61-4.57 1.77-5.3 3.44-.26.86-.24 1.99.09 3.28l.19.75c.04.15.09.33.15.53Zm-6.29 13.87c.18 0 .51-.05 1.06-.29.74-.34 1.36-.69 1.81-1.02.42-.36.83-.72 1.19-1.05.45-.41.61-.63.66-.72.08-.16.12-.27.13-.32 0-.03-.03-.09-.05-.12-.13-.22-.22-.23-.27-.23h-.18l-.06.04h-.2c-.49.04-1.08.31-1.76.82-.81.58-1.66 1.3-2.53 2.14-.12.1-.2.19-.25.28l.02.05-.06.19s.02.03.03.04c.06.08.11.15.28.2h.17Zm-61.8-36.58c.42.44.93.87 1.5 1.27.92.63 1.97 1.2 3.12 1.68l.99.41-.76.76s-.07.08-.11.14c-.35.65-.57 1.39-.63 2.16-.06.74-.03 1.49.09 2.23.54 1.81 1.37 3.29 2.43 4.29.92.89 2.36 1.66 4.28 2.29 1.29.43 2.86.64 4.66.64 2.08 0 4.53-.29 7.27-.86.83-.13 1.65-.33 2.49-.58 1.45-.45 2.9-1.06 4.33-1.8 1.14-.58 2.11-1.41 2.91-2.45.46-.6.72-1.28.81-2.09 0-.08.01-.27.05-.52v-.5c0-1.2-.34-2.39-1-3.54-.72-1.05-1.72-2.09-2.92-3.05-2.07-1.54-4.42-2.5-6.95-2.85-.33-.06-.62-.09-.9-.09-.63-.06-1.2-.09-1.78-.09-1.46 0-3.01.17-4.62.52-3.19.61-5.81 1.72-7.8 3.31-.46.33-.87.67-1.24 1.05l-.31.31-.42-.13c-1.98-.62-3.82-1.45-5.48-2.5Z" class="h"/><path d="M126.15 95.38c.42-.79 1.12-1.56 2.11-2.29.37-.3.8-.61 1.25-.88.99-.65 2.15-1.23 3.42-1.71.49-.17 1-.34 1.54-.51 2.22-.73 4.26-1.1 6.07-1.1.23 0 .46 0 .68.02 1.02.03 2.03.16 2.97.37l2.53.56-2.76.92c-1.69.83-4.46 2.02-8.16 3.49-.78.31-1.48.56-2.09.76-.93.33-1.72.59-2.33.76-.35.08-.73.15-1.18.22-.73.13-1.68.25-2.79.36l-1.94.35.68-1.31Z" class="h"/><path d="M160.07 113.74c-1.47-1.66-2.04-2.93-1.78-3.99.03-.2.12-.52.27-.93l.08-.23.2-.13c.73-.47 1.64-.86 2.71-1.14 1.67-.56 3.72-1.1 6.03-1.61 2.31-.53 4.35-.91 6.07-1.11l.46-.05 6.45-.6h.13c.15 0 .29-.01.41-.04h.05l9-.46h.14c1.49-.06 2.93-.09 4.27-.09 1.67 0 3.23.05 4.63.14 1.15.07 2.2.27 3.22.58 1.1.19.96 1.98.9 2.74-.07.47-.12.86-.15 1.21l-.06.66h-.82c-1.49-.13-3.38-.19-5.59-.19-2.5 0-5.5.08-8.92.24h-.13l-15.36 1.9-.95.19-.91.24c-4.94 1.21-8.04 2.23-9.23 3.05l-1.13.77v-1.14Z" style="fill:#d6dee8"/><path d="M103.24 105.44c-1.83 0-3.64-.35-5.37-1.05-2.05-.74-3.52-1.78-4.34-3.08l-.06-.1-.03-.11q-.045-.195-.06-.36a5.02 5.02 0 0 1-.18-3.25c.19-.77.63-1.54 1.31-2.3.19-.2.41-.29.64-.29h.08l.08.02c1 .23 2.18.41 3.51.54h.01c.08 0 .23.03.39.08l1.03.34-.71.82c-.16.19-.3.46-.4.82-.33 1.22-.2 2.15.4 2.83.28.33.61.48 1.05.51h.01c.49 0 .81-.13 1.11-.41.42-.31.68-.68.86-1.21.16-.54.2-1.09.12-1.66-.05-.28-.13-.53-.23-.73l-.55-1.09 1.22.05c1.02.04 2.03.07 3.03.07 1.99 0 3.97-.09 5.87-.26 2.41-.2 4.16-.46 5.21-.77.2-.04.3-.07.38-.09l.43-.14.31.33c.67.71 1.06 1.38 1.18 2.06.03.08.06.24.06.38-.04.55-.14 1.02-.29 1.45-.11.3-.26.62-.45.95-.27.39-.52.75-.78 1.15-.64.98-1.48 1.7-2.5 2.16-1.47.7-3 1.22-4.52 1.53q-.105.045-.24.09c-2.02.43-4.45.67-7.31.74h-.27Zm29.32-1.31c-.69 0-1.34-.05-1.91-.16-2.46-.45-4.08-1.73-4.8-3.82-.06-.15-.14-.46-.19-1.45-.07-.73-.07-1.25.02-1.61l.15-.62.63.07c.38.04.79.07 1.21.07.75 0 1.57-.07 2.44-.21l1.92-.38-.66 1.32s-.04.09-.06.15c-.04.12-.1.41-.06 1.03.08.44.23.67.34.78.18.23.4.36.69.45.13.01.25.02.37.02.25 0 .47-.03.66-.1.09-.04.22-.11.36-.19.33-.21.64-.63.91-1.23.18-.5.29-1.02.29-1.5 0-.28-.04-.51-.1-.7l-.26-.69.69-.24c3.55-1.25 7.17-2.83 10.76-4.71.18-.09.35-.13.53-.13h.17l.15.08c.3.15.59.34.86.56.29.19.56.42.79.67.32.29.6.67.83 1.13.21.47.26.93.16 1.38-.47 1.57-1.21 2.94-2.2 4.11l-.74.74c-1.17 1.06-2.77 2.11-4.78 3.13-1.19.59-2.69 1.09-4.48 1.46-1.67.38-3.14.57-4.36.57h-.31Z" style="fill:#fff"/><path d="M121.31 262.31a184 184 0 0 1-3.96-3.56c-2.19-1.96-4.38-3.93-6.54-5.9l-.44-.4.31-.51c1.65-2.71 2.78-5.73 3.36-8.96l1.4-.07c1.19 4.13 2.56 8.26 4.08 12.29.82 2.15 1.79 4.24 2.9 6.2l-1.1.9Zm-29.58-27.84c-.43-.43-.85-.84-1.28-1.23-2.09-2.03-4.24-4-6.39-5.89-2.14-1.9-4.27-3.79-6.4-5.65a42.4 42.4 0 0 0-6.14-4.42l-1.12-.66 23.46-12.09c-.94-.15-1.86-.3-2.79-.45-2.63-.43-5.36-.87-8.19-1.3-1.92-.23-3.89-.5-5.85-.8-.68-.1-1.37-.18-2.06-.25l-3.06-.12-.82-13.85 2.69-.64c1.81-.5 3.67-.98 5.54-1.45l3.31-.8c2.39-.63 4.86-1.19 7.34-1.66l.75-.14.09.76c.19 1.53.63 3.11 1.3 4.71 2.32 5.69 6.39 8.75 12.46 9.36l.39.04.18.35c.2.41.39.8.56 1.17l.16.35-.2.33c-3.56 5.87-6.57 12.08-8.94 18.48a67.8 67.8 0 0 0-3.61 14.05c-.06.45-.11.9-.14 1.35l-.11 1.57-1.12-1.12Zm47.12 23.17c1.12-3.45 2.25-8.67 3.37-15.5 1.12-7 1.6-11.29 1.45-12.75-.42-3.69-1.29-7.37-2.56-10.94-2.1-5.8-4.99-11.23-8.6-16.11l-.17-.23.03-.28c.03-.27.05-.53.05-.77.1-1.71.22-3.37.35-5.01l.03-.33.27-.19c1.62-1.15 2.87-2.72 3.71-4.65.38-.88.49-1.71.35-2.54-.39-2.19-1.05-4.28-1.99-6.21l-.55-1.14 1.26.1c.81.07 1.62.15 2.43.25 1.18.1 2.4.21 3.64.35 1.24.13 2.48.29 3.72.45 2.51.37 5.01.75 7.52 1.15 3.81.63 7.63 1.41 11.36 2.31l.54.13.38 13.66-18.11 3.59.78.36c4.1 1.97 8.17 4.01 12.08 6.07 1.99 1.11 3.96 2.23 5.92 3.36.52.31 1.03.63 1.54.98.4.25.85.51 1.31.77.7.45 1.38.88 2.07 1.31.46.22 1 .59 1.58 1.05l.53.43-.39.55c-.19.27-.4.52-.63.74-1.77 2.06-3.49 4.2-5.08 6.32-.8 1.09-1.62 2.19-2.46 3.26a193 193 0 0 0-3.03 4.08l-2.41 3.12c-1.3 1.73-2.61 3.46-3.95 5.2a341 341 0 0 1-4.57 5.57c-.48.64-1.03 1.31-1.62 1.97l-1.69 1.99-7.21 8.21-1.23-.7Z" class="g"/><path d="M167.64 161.86c.77-3.44 1.9-6.75 3.35-9.85.96-2.16 2.33-4.12 4.05-5.81.5-.41 1.08-.61 1.76-.65l.38-.02.23.3q.42.54.66 1.2c.62 2 1.07 4.06 1.34 6.15.03.22.1.35.17.44h.24c.13-.16.24-.34.33-.52.86-1.76 1.73-3.54 2.59-5.34.47-.97 1.11-1.85 1.9-2.61.47-.38.92-.55 1.39-.55h.18l.25.03.18.18c.16.15.31.34.46.56.17.19.28.43.34.71.34 2.06.66 4.13.96 6.24l.06.45-6.03 3.95c-1.57.8-3.16 1.57-4.8 2.3l-.05.02h-.05c-.32.1-.63.2-.92.32-.64.37-1.3.71-1.97 1.01-1.94.94-4 1.73-6.09 2.33l-1.17.34.27-1.19Z" style="fill:#9d316a"/><path d="M105.69 197.36c-.17-.12-.35-.22-.52-.3-.94-.52-1.85-1.04-2.73-1.58h-.36l-.09-.29c-.88-.51-1.75-1.04-2.59-1.58-1.75-1.2-3.36-2.56-4.82-4.05l-.14-.15-.04-.2c-.41-1.86-.68-3.74-.81-5.6v-.3c-.07-1.3-.03-2.64.1-3.97.21-1.69.61-3.39 1.19-5.06l.36-1.05 2.66 2.52c.13.13.26.25.41.36 1.01 1.01 2 1.94 2.98 2.83 1.84 1.64 3.79 3.22 5.8 4.71l1.85 1.29-.63.61q-1.185 1.14-2.28 2.31v.02l-.21.26c-.13.13-.4.59-.1 2.1.07.54.2 1.1.38 1.73 1.13 3.4 1.28 4.33 1.28 4.76v.66l-1.46.13-.21-.14Zm20.1-2.34c.97-1.47 1.59-3.07 1.84-4.76.01-.07.02-.13.02-.2l-5.53-6.37.45-.47c1.63-1.73 3.26-3.48 4.9-5.24l1.09-1.28q.06-.135.18-.24l.54-.54.51.57c2.25 2.52 3.98 5.34 5.14 8.37.44 1.16.81 2.37 1.08 3.6l.06.27-.14.24c-.45.79-.95 1.56-1.5 2.28-.78.93-1.64 1.76-2.57 2.52-.59.52-1.26.98-1.98 1.33-1.03.53-2.17.88-3.39 1.02l-1.54.18.85-1.29Zm1.7 71.56-.22-.27c-.28-.35-.54-.69-.78-1.04a30 30 0 0 1-2.67-4.66c-2.14-4.82-3.97-9.83-5.44-14.9-1.07-3.68-1.93-7.42-2.57-11.13-.77-4.38-1.23-8.82-1.36-13.2v-.27c-.07-1.98-.07-4 0-5.97.03-3.09.2-6.2.5-9.25.06-1.01.17-2.04.3-3.03.03-.47.08-.97.15-1.45l.08-.56 1.57-.15c.17-.04.37-.06.57-.06 1.05-.12 2.12-.46 3.1-1.01.21-.12.42-.26.64-.41l3.9-2.49.4.3c1.6 1.19 3.05 2.52 4.31 3.95 1.1 1.27 2.08 2.67 2.94 4.17l.59.99c3.35 6 6.11 12.32 8.22 18.8.56 1.68.77 3.42.63 5.18-.37 4.69-.92 9.38-1.66 13.96-.54 3.28-1.28 6.57-2.22 9.79-.85 2.88-2.01 5.64-3.46 8.2-.96 1.71-2.19 2.97-3.64 3.73q-1.62.78-3.54.78h-.35Zm-6.37-57.98c-.18 2.58-.12 5.43.19 8.54.17 1.98.39 3.93.65 5.84-.6-4.77-.88-9.58-.84-14.39Z" class="e"/><path d="m99.13 260.29-.21-.35c-2.58-4.31-4.05-9.15-4.35-14.38-.07-1.01-.1-2.02-.1-2.99-.07-1.89-.05-3.81.05-5.69.03-.68.08-1.35.15-2.03.27-3.21.76-6.34 1.47-9.29a70.5 70.5 0 0 1 4.8-13.59c1.47-3.15 3.21-6.21 5.15-9.09.55-.84 1.15-1.67 1.77-2.46q.105-.225.27-.39l.27-.27 2.58.47v-.02l3.15.61-.18.74q-.045.18-.09.42a113 113 0 0 0-1.24 12.39c-.07 1.91-.1 3.85-.1 5.77.07 6.88.85 13.71 2.33 20.29l.05.21-.08.2a39.3 39.3 0 0 1-3.46 6.93c-.56.92-1.15 1.86-1.76 2.77-.78 1.09-1.58 2.14-2.39 3.15a52 52 0 0 1-5.18 5.43l-.04.04-.04.03c-.18.12-.35.24-.5.36-.22.14-.36.24-.5.35l-.08.07-.1.04c-.18.07-.36.12-.54.14-.21.11-.44.16-.67.16h-.41Zm5.68-39.46c-.99 4.03-1.75 8.11-2.26 12.18-.2 1.55-.33 3.11-.4 4.67.05-.75.12-1.5.22-2.24.55-4.83 1.37-9.73 2.44-14.6Zm9.28-21.93c-1.36 0-2.77-.22-4.2-.64l-.33-.1-.58-1.42c-.59-1.14-1.09-2.36-1.47-3.56-.41-1.26-.72-2.55-.92-3.85v-.44l.24-.26c2.93-2.66 6.17-4.98 9.64-6.9l.39-.21.37.25c3.13 2.12 5.97 4.6 8.43 7.37l.25.29-.09.37c-.46 1.81-1.35 3.42-2.62 4.77-1.6 1.74-3.39 2.98-5.33 3.68-1.04.36-2.09.57-3.15.64-.21 0-.4.01-.6.01Z" class="e"/><path d="M43.79 108c-1.5 0-2.6-.41-3.26-1.23-.7-.91-.93-2.12-.7-3.61.27-2.12 1.27-4.7 2.96-7.66.06-.14.11-.27.16-.39-.31.03-.65.05-1.01.08-.33.02-.66.03-.98.03-2.7 0-5.19-.8-7.39-2.37-2.51-1.79-3.89-3.4-4.23-4.93-.36-1.48-.31-2.96.17-4.39.39-1.36 1.15-2.59 2.23-3.64a11.2 11.2 0 0 1 3.51-2.44l.75-.36a32.8 32.8 0 0 1-3.72-4.96c-1.61-2.59-2.45-4.75-2.56-6.58-.07-1.19.08-2.31.44-3.33.5-1.24 1.24-2.15 2.21-2.72.87-.7 2.73-1.26 5.62-1.65.75-.12 1.42-.22 2.03-.3-.47-3.35-.65-5.61-.55-6.89.14-2.43.7-4.77 1.66-6.94.97-2.35 2.4-4.31 4.25-5.82 1.9-1.66 4.17-2.74 6.73-3.2.85-.17 1.7-.26 2.52-.26 1.65 0 3.22.36 4.67 1.07.18.09.35.16.52.22.38-3.15.77-5.2 1.2-6.25.77-1.73 1.39-2.87 1.9-3.52.71-1.23 1.7-2.22 2.88-2.84.47-.27.85-.43 1.19-.48h.23c.7-.01 1.42.23 2.13.72.47.31 1.97 1.36 4.57 3.2.58-.99.92-1.54 1.14-1.85 1.24-2.31 2.89-4.29 4.89-5.88 2.11-1.66 4.43-2.77 6.9-3.29.71-.16 1.39-.25 2.02-.25 1.04 0 1.96.23 2.74.68.65.36 1.84 1.36 3.63 3.05.79.76 1.46 1.42 2.02 1.97l.36-.33c2.75-2.92 6.14-5.28 10.04-6.97 1.05-.49 2.05-.78 2.93-.86.16-.02.33-.02.49-.02.59 0 1.13.12 1.59.35.65.27 1.28.83 1.83 1.64.71 1.1 1.39 2.66 2.09 4.77.59 1.82 1.09 3.18 1.49 4.07 5.72-1.64 9.76-2.43 12.33-2.43.25 0 .48 0 .69.02h.01c1.43 0 2.69.28 3.69.84.88.5 1.73 1.39 2.6 2.74.55.92.9 1.68 1.09 2.35.04.2.08.54.17 1.95-.03 1.94-.19 3.32-.48 4.26 0 .05-.04.26-1.33 3.39.16.04.34.09.56.15.86.21 1.73.58 2.59 1.08q1.35.675 2.1 1.41c.54.46 1.02 1.14 1.4 1.96.18.5.26.95.26 1.4 0 .41-.08.85-.24 1.33l-.02.06-.03.06c-.13.23-.36.66-6.05 5.74l-.07.06-.09.04s-.01.02-.04.05l.06.09c2.7 3.32 4.19 5.53 4.55 6.76.26 1.01.32 2.09.17 3.24-.2 1.27-1.29 2.77-3.33 4.6-2.25 1.9-2.31 2.51-2.31 2.54.26.57.25 1.44-.02 2.68-.42 1.6-1.38 2.18-2.1 2.39-1.05.2-1.27.34-1.29.36l-1.01 1.21-.22-1.59c-.06-.37-.14-.71-.23-1.01-.12-.33-.37-1.07-.74-2.18-.33-.92-.76-2.16-1.3-3.69-.1-.33-.19-.59-.28-.8l-.22-.52.45-.34c.15-.11.3-.21.45-.29 1-.73 1.38-1.05 1.52-1.19q.495-.495.93-1.2c-.02.01-.03.02-.05.04-.68.49-1.69.92-3.08 1.31l-.94.21c-.93.17-1.76.26-2.49.26-.67 0-1.28-.07-1.81-.21-.14-.04-.28-.07-.39-.11-1.16-.47-2.08-.98-2.77-1.52-1.24-.99-2.04-1.76-2.45-2.36l-.06-.08-.03-.09-.23-.23.12-.41c.05-.16.08-.32.11-.48l-6.16 1.82c-1.04.34-2.12.51-3.2.51-.27 0-.54-.01-.82-.03-.42-.03-1.11-.26-3.9-2.56l-.07-.05-1.15-1.52c-4.7 3.84-5.7 4.53-6.04 4.7l-.05.03-.05.02c-.53.19-1.51.66-2.9 1.41-1.59.78-2.6 1.28-3.07 1.51-.85.35-1.84.55-2.98.62-.17 0-.33.01-.48.01-1.25 0-2.29-.26-3.11-.77-.1 0-.14.04-.2.13l-.04.07-.05.05c.01 0-.07.18-.16.72-.5 2.13-1.43 4.11-2.78 5.91a17.2 17.2 0 0 1-4.91 4.29c-.44.27-.96.54-1.52.79-1.68.72-3.85 1.34-6.45 1.85h-.08l.01.1v.1c-.06.49-.33 1.43-1.96 5.19-1.26 2.7-3.21 4.75-5.81 6.12-.08.06-.16.1-.25.13l-.52.26c-1.91.8-3.74 1.19-5.48 1.19-.21 0-.42 0-.63-.02h-.11c-.89-.04-1.74-.18-2.56-.43-1.32-.35-1.76-.39-1.88-.39l-.1.03h-.06a.65.65 0 0 0-.54.23c-.18.16-.16.22-.13.31l.02.07v.07s.08.14.45.36c.95.68 1.99 1.19 3.14 1.53l.83.25-.4.77c-4.23 8.16-6.58 12.99-7 14.38v.72l-.74.04c-.21.01-.4.02-.59.02Z" style="fill:#4f2e2e"/><path d="M190.94 209.72c-.63-3.03-1.38-6.05-2.25-9.05a72 72 0 0 0-3.05-8.7c-.77-1.77-1.95-3.12-3.55-4.05-.83-.5-1.68-.92-2.55-1.25-.97-.4-1.95-.73-2.95-1-4.27-1.3-8.48-2.45-12.65-3.45-4.37-1.07-8.75-1.93-13.15-2.6-3-.43-6-.85-9-1.25-2.43-.23-4.87-.45-7.3-.65v-5.15c1.91.21 3.81.32 5.7.35 1.2-.03 2.42-.05 3.65-.05 6.7 0 13.28-.83 19.75-2.5 1.93-.45 3.83-.97 5.7-1.55 6.03-1.93 11.82-4.4 17.35-7.4a44.2 44.2 0 0 0 7.85-5.6c.19-.17.37-.33.55-.5 2.9-2.63 5.58-5.55 8.05-8.75 3.93-5.07 6.93-10.53 9-16.4a53.1 53.1 0 0 0 2.95-18.95c.03-1.31.05-2.63.05-3.95 0-2.8-.67-5.43-2-7.9-.77-1.43-1.8-2.63-3.1-3.6-.87-.63-1.78-1.18-2.75-1.65-.57-.27-1.15-.45-1.75-.55-.83-.07-1.67-.13-2.5-.2-2.77-.03-5.58-.07-8.45-.1q-3.855 0-7.65.15c-3.5.17-7 .38-10.5.65-4.53.33-9.08.8-13.65 1.4-3.33.4-6.65.85-9.95 1.35-.73.1-1.47.22-2.2.35.87-1.73.87-3.62 0-5.65q-.45-.705-1.05-1.35c-.2-.23-.43-.43-.7-.6.53-.37.98-.68 1.35-.95 1.23-1.03 1.92-2.07 2.05-3.1.03-.23.02-.42-.05-.55-.2-.2-.48-.13-.85.2-1.3 1.1-2.77 2.17-4.4 3.2-1.13-.57-2.43-.93-3.9-1.1-1.2-.17-2.43-.18-3.7-.05-1.23.1-2.47.32-3.7.65-.93.27-1.83.58-2.7.95a202 202 0 0 1-.45-4.65c-.2-2.33-.38-4.68-.55-7.05-.03-.43-.07-.85-.1-1.25 1.03.1 2.22-.17 3.55-.8 1.23-.67 2.1-1.45 2.6-2.35.37-.7.58-1.53.65-2.5 0-.53-.05-1.37-.15-2.5.47-.1 1.03-.37 1.7-.8.63-.43 1.2-.95 1.7-1.55q.795-.9 1.35-1.8l.8-1.45c.63-1.5.82-3.08.55-4.75-.2-1.5-.78-3-1.75-4.5-.4-.53-.82-1-1.25-1.4.23-.1.45-.22.65-.35q4.65-3.345 5.4-7.35c.07-.4.1-.75.1-1.05v-.3c-.03-.57-.22-1.17-.55-1.8-.33-.87-.65-1.52-.95-1.95-.83-1.37-1.97-2.45-3.4-3.25-.6-.3-1.17-.55-1.7-.75.47-.63.85-1.4 1.15-2.3.53-1.57.7-3.2.5-4.9-.23-1.67-.8-3.2-1.7-4.6-.5-.73-1.03-1.38-1.6-1.95-1.17-1.27-2.33-2.1-3.5-2.5-1.47-.67-3.33-1-5.6-1-3.97 0-7.13.75-9.5 2.25q-.405-2.1-.6-2.85c-.47-1.3-1.13-2.57-2-3.8-.73-1.03-1.4-1.78-2-2.25-1.43-1.17-3.12-1.72-5.05-1.65-1.17.03-2.53.35-4.1.95-2.33.83-4.22 1.77-5.65 2.8-1.03.67-2.18 1.63-3.45 2.9-.3.2-.57.43-.8.7-.37-.8-.9-1.57-1.6-2.3-1.2-1.2-2.58-1.97-4.15-2.3q-3.045-.705-7.05.75c-2.87.87-5.32 2.23-7.35 4.1-1.9 1.6-3.23 3.43-4 5.5-.4-.33-.85-.7-1.35-1.1-1.1-.83-2.08-1.32-2.95-1.45-1.27-.27-2.5-.1-3.7.5-1.1.47-2.13 1.23-3.1 2.3-.63.6-1.1 1.2-1.4 1.8-.53.9-1.15 2.33-1.85 4.3-.3.7-.5 1.33-.6 1.9-.1.43-.13.95-.1 1.55-.53-.2-1.1-.35-1.7-.45-1.83-.3-3.78-.13-5.85.5q-3.6 1.005-6.6 3.45c-2.1 1.57-3.77 3.42-5 5.55-1.3 2.13-2.12 4.45-2.45 6.95q-.555 3.75.45 7.2c-3.37.23-5.93 1.18-7.7 2.85-1.13 1.07-1.92 2.5-2.35 4.3-.17.6-.27 1.27-.3 2-.07.9 0 1.9.2 3 .2 1.73.72 3.35 1.55 4.85.87 1.57 2 2.8 3.4 3.7-2.47 1.3-4.25 3.32-5.35 6.05-.7 1.37-1.07 2.78-1.1 4.25q-.105 1.755.45 3.6c.7 2.57 2.28 4.65 4.75 6.25 2.5 1.5 5.1 2.08 7.8 1.75-.9 2.47-1.35 4.45-1.35 5.95q-.15 3.495 2.1 5.4c.83.73 1.87 1.18 3.1 1.35.27.03.57.07.9.1l-2.75 7.25c-.59 1.72-1.11 3.34-1.55 4.85-1.4 4.77-2.13 10.57-2.2 17.4-.03 2.5.47 4.97 1.5 7.4.03.07.07.13.1.2.2.53.45 1.07.75 1.6.83 1.6 1.92 2.95 3.25 4.05 1.07.9 2.3 1.63 3.7 2.2 1.07.47 2.2.73 3.4.8.66.05 1.31.07 1.95.05h.25c.9 0 1.78-.07 2.65-.2l.7-.1c.26-.02.51-.05.75-.1q1.995-.405 3.9-1.2l.55-.25c.18-.08.37-.17.55-.25.83-.37 1.6-.84 2.3-1.4l.1-.05s.08-.03.1-.05c.77-.53 1.45-1.15 2.05-1.85.87-1 1.57-2.07 2.1-3.2.06-.15.13-.31.2-.5l.05-.05c1.23-2.4 2.23-5.42 3-9.05.13.2.28.42.45.65.13.17.28.35.45.55a78 78 0 0 0 3 3.3c1.57 1.7 3.2 3.37 4.9 5q3.75 3.45 7.95 6.45c1.77 1.2 3.55 2.38 5.35 3.55.97.63 1.95 1.25 2.95 1.85l.1.6c.2 1.5.38 3 .55 4.5.17 1.47.3 2.95.4 4.45.03.87.1 1.68.2 2.45l.1.7c-.6-.43-1.2-.87-1.8-1.3l-.85.25c-2.4 2.7-3.78 5.62-4.15 8.75-1.63.17-3.25.35-4.85.55-3.07.57-6.1 1.22-9.1 1.95-2.97.73-5.9 1.58-8.8 2.55-2.1.73-4.17 1.52-6.2 2.35-1.53.67-3.07 1.42-4.6 2.25-.7.33-1.37.73-2 1.2-1.67 1.27-2.93 2.92-3.8 4.95-.27.67-.5 1.33-.7 2q-.255.9-.45 1.8c-.27.97-.52 1.93-.75 2.9-1.4 5.2-2.67 10.42-3.8 15.65-.01.07-.03.13-.04.2.97 1.58 1.98 3.14 3.03 4.67.51-2.75 1.03-5.5 1.56-8.22 1.07-5.5 2.53-10.82 4.4-15.95.27-.73.6-1.43 1-2.1 1.03-1.7 2.55-2.97 4.55-3.8.83-.4 1.75-.75 2.75-1.05.27-.1.53-.18.8-.25l1.6-.6q2.055-.855 3.9-1.65l1.3 14.25c1.9.3 3.82.6 5.75.9 2.67.23 5.38.45 8.15.65q.9.045 1.8.15c.4.07.8.13 1.2.2q.405-.045.45.15c-.07 0-.13.02-.2.05-.33.13-.65.28-.95.45-1.63.8-3.27 1.65-4.9 2.55-2.23 1.17-4.47 2.4-6.7 3.7q-2.25 1.35-4.35 2.7c-.4.23-.8.5-1.2.8q-.6.345-1.2.75c-.47.27-.62.45-.45.55.17.13.33.27.5.4.3.23.62.47.95.7.4.37.83.72 1.3 1.05.57.43 1.15.88 1.75 1.35.53.43 1.08.85 1.65 1.25.77.6 1.48 1.2 2.15 1.8.7.67 1.42 1.35 2.15 2.05 1.17 1.1 2.33 2.22 3.5 3.35 1.57 1.47 3.15 2.98 4.75 4.55 1.97 1.9 3.95 3.8 5.95 5.7-.17 6.87.98 13.48 3.45 19.85.77 1.97 2.1 2.87 4 2.7 2.57-.43 4.85-1.57 6.85-3.4 1.07-.97 2.03-1.98 2.9-3.05.5.43.98.87 1.45 1.3 1.8 1.67 3.62 3.32 5.45 4.95 1.63 1.43 3.3 2.85 5 4.25.73.61 1.49 1.2 2.25 1.78q1.605.06 3.21.06c3.13 0 6.2-.16 9.23-.45q1.875-1.56 3.66-3.18c1.93-1.8 3.72-3.68 5.35-5.65 3.23-3.87 6.37-7.75 9.4-11.65q4.2-5.4 8.1-10.8c-1.07 3.53-2.05 7.1-2.95 10.7-.93 3.8-1.78 7.62-2.55 11.45-.29 1.53-.43 3.04-.42 4.55 1.52-.54 3.02-1.13 4.51-1.76.02-1.44.16-2.88.41-4.34.4-2.27.85-4.53 1.35-6.8.23-1.13.47-2.25.7-3.35q.345-1.755.75-3.45c.3-1.2.6-2.38.9-3.55.17-.53.33-1.05.5-1.55.33 1.93.65 3.88.95 5.85.33 2.1.67 4.2 1 6.3.37 2.41.7 4.81 1 7.21a96 96 0 0 0 3.9-2.27c-.09-.53-.17-1.06-.25-1.59-.6-3.73-1.28-7.4-2.05-11-.57-2.63-1.18-5.2-1.85-7.7a4.8 4.8 0 0 0-1.05-2l-1.5-1.8-.5.4c.13-.17.22-.33.25-.5.03-.07.02-.15-.05-.25.1.03.17.03.2 0 1.3-1.3 2.57-2.63 3.8-4 1.03-1.2 2.07-2.4 3.1-3.6q2.355-2.805 4.8-5.55c-1.97-1.6-4.05-3.02-6.25-4.25-2.73-1.6-5.48-3.12-8.25-4.55-2.93-1.5-5.9-2.97-8.9-4.4l14.1-3.8.1-13.15c.37.07.75.15 1.15.25 1.57.3 3.1.73 4.6 1.3.73.27 1.48.55 2.25.85 3.77 1.23 6.22 3.72 7.35 7.45.73 2.43 1.4 5 2 7.7.37 1.77.72 3.55 1.05 5.35 1.17 6.3 2.2 12.65 3.1 19.05.53 3.66.96 7.3 1.3 10.93 1.57-1.58 3.11-3.23 4.63-4.95-.29-2.08-.59-4.15-.92-6.23-1-6.5-2.15-12.93-3.45-19.3Zm-63.1 56.15c-.27-.33-.52-.67-.75-1-1-1.43-1.87-2.95-2.6-4.55-2.13-4.8-3.93-9.73-5.4-14.8a99 99 0 0 1-2.55-11.05c-.77-4.37-1.22-8.73-1.35-13.1v-.25c-.07-2-.07-3.98 0-5.95.03-3.1.2-6.17.5-9.2q.105-1.545.3-3c.03-.5.08-.98.15-1.45.33-.03.68-.07 1.05-.1.13-.03.28-.05.45-.05 1.23-.13 2.38-.5 3.45-1.1.23-.13.47-.28.7-.45l3.45-2.2a27 27 0 0 1 4.2 3.85q1.605 1.845 2.85 4.05c.2.33.4.67.6 1a104.3 104.3 0 0 1 8.15 18.65c.53 1.6.73 3.23.6 4.9-.37 4.7-.92 9.33-1.65 13.9-.53 3.27-1.27 6.5-2.2 9.7-.83 2.83-1.97 5.52-3.4 8.05-.9 1.6-2.02 2.75-3.35 3.45-.97.47-2.03.7-3.2.7m-33.45-86.45c.2-1.63.58-3.27 1.15-4.9.6.57 1.22 1.15 1.85 1.75.13.13.28.27.45.4.97.97 1.95 1.9 2.95 2.8a81 81 0 0 0 5.85 4.75l1.15.8c-.87.83-1.7 1.68-2.5 2.55v.05c-.47.47-.57 1.38-.3 2.75.07.53.2 1.13.4 1.8.83 2.5 1.25 4.02 1.25 4.55l-.55.05c-.2-.13-.4-.25-.6-.35q-1.455-.795-2.85-1.65c-.02 0-.04-.02-.05-.05-.95-.54-1.88-1.11-2.8-1.7-1.7-1.17-3.27-2.48-4.7-3.95-.4-1.83-.67-3.67-.8-5.5v-.25c-.07-1.3-.03-2.6.1-3.9m-22.45-54.5c.33-2.23.75-4.47 1.25-6.7q1.5-6.705 3.9-13.05c.17-.46.33-.92.5-1.4l.85-2.3c.58-1.5 1.15-3 1.7-4.5.33-.9.57-1.83.7-2.8l-.05-.05a6 6 0 0 0-.25-.35q-.255-.15-.45-.3c-.17-.03-.33-.05-.5-.05s-.33.02-.5.05c-.03.03-.05.08-.05.15-.03.07-.07.13-.1.2-.87 1.77-1.68 3.55-2.45 5.35q-.105.15-.15.3c-.03.07-.07.15-.1.25-.07.13-.13.27-.2.4-2.37 5.07-4.38 10.38-6.05 15.95-1.9 6.2-3.38 12.5-4.45 18.9a23.6 23.6 0 0 1-1.3 4.75l-.25.55c-.42.95-.9 1.87-1.45 2.75l-.2.35-1.6 2.15-.1.1c-.07.07-.12.13-.15.2l-.3.35-.25.25q-.06.075-.15.15a11.1 11.1 0 0 1-5.65 3.05c-.17.02-.33.06-.5.1-.07 0-.13.02-.2.05h-.1l-1.95.05h-.55c-.39-.04-.77-.09-1.15-.15l-.25-.05c-.14-.03-.29-.06-.45-.1-1.1-.3-2.1-.77-3-1.4-.77-.5-1.35-1.13-1.75-1.9-.7-1.33-1.22-2.72-1.55-4.15l-.05-.15c-.04-.22-.07-.46-.1-.7-.3-2.37-.45-4.55-.45-6.55 0-.87.03-1.68.1-2.45.2-2.8.77-5.77 1.7-8.9.63-2.1 1.27-4.08 1.9-5.95l.3-.9c1.33-4.03 2.65-7.42 3.95-10.15.53-1.13 1.08-2.25 1.65-3.35l.55-1.1c1.3-2.77 2.72-5.48 4.25-8.15l.5-.95c.03-.07.07-.12.1-.15 1.23-.3 2.52-.75 3.85-1.35 2.3-1.17 4.32-2.75 6.05-4.75 1.67-2.07 2.83-4.33 3.5-6.8 1.67 0 3.3-.27 4.9-.8 1.27-.43 2.5-1.02 3.7-1.75 2.63-1.73 4.6-3.93 5.9-6.6.6-1.33.93-2.63 1-3.9v-.55c.43.2.77.32 1 .35 1.97.5 4.4.03 7.3-1.4 3.87-1.93 6.68-4.22 8.45-6.85.03.07.07.15.1.25.53 1.17 1.08 2.03 1.65 2.6 1.23 1.23 2.92 1.83 5.05 1.8 1.47-.03 3.25-.48 5.35-1.35.97-.4 1.75-.83 2.35-1.3.17.37.37.75.6 1.15.3.5.78 1.08 1.45 1.75.5.5.97.9 1.4 1.2.73.43 1.53.72 2.4.85.83.13 1.87.12 3.1-.05.23.57.43 1.15.6 1.75.63 2.27 1.07 4.62 1.3 7.05q.405 3.75.75 7.5c.27 3.03.55 6.07.85 9.1-.33.2-.67.42-1 .65-2.03 1.47-3.35 3.03-3.95 4.7-.2.53-.32 1.4-.35 2.6v1c.77 3.6 2.77 5.63 6 6.1 2.73.5 5.43.38 8.1-.35 1.93-.47 3.75-1.17 5.45-2.1 2.87-.3 5.75-.6 8.65-.9 1.27 0 2.5-.12 3.7-.35 2.47-.27 5.02-.5 7.65-.7 4.63-.57 9.35-.95 14.15-1.15 5.37-.37 10.77-.73 16.2-1.1 2.8-.07 5.58 0 8.35.2 1.33.13 2.52.58 3.55 1.35 1.17.87 1.87 1.93 2.1 3.2.4 2.1.67 4.18.8 6.25.13 2.47.12 4.88-.05 7.25l-.05.25q-1.395 9.195-6.15 17.4c-3.1 5.3-6.88 10.05-11.35 14.25-.64.68-1.23 1.26-1.75 1.75-.3-1.37-.63-2.72-1-4.05-.2-.8-.5-1.53-.9-2.2-.2-.37-.47-.65-.8-.85s-.68-.37-1.05-.5c-.47.17-.88.4-1.25.7-1.63 1.27-2.9 2.82-3.8 4.65-.23.53-.48 1.05-.75 1.55-.07-.3-.13-.58-.2-.85-.13-.87-.32-1.68-.55-2.45-.27-.97-.8-1.67-1.6-2.1-.5-.2-.98-.22-1.45-.05-1.33.07-2.4.65-3.2 1.75-3.47 4.77-5.7 10.17-6.7 16.2l-2.55.5q-3.795.855-7.65 1.35c-6.18 1.14-11.95 1.44-17.3.9-5.32-.54-9.78-1.29-13.4-2.25a535 535 0 0 0-5.65-1.45c-2.6-.6-5.13-1.3-7.6-2.1-.7-.2-1.38-.43-2.05-.7-1.27-.4-2.48-.87-3.65-1.4-2.97-1.2-5.85-2.58-8.65-4.15-2.43-1.37-4.78-2.73-7.05-4.1-2.63-1.67-5.1-3.5-7.4-5.5a66 66 0 0 1-7.05-6.9c-.7-.8-1.47-1.55-2.3-2.25-1.07-.87-2.03-1.8-2.9-2.8zm-31.4-21.65c.27-2.07 1.23-4.55 2.9-7.45.27-.67.52-1.18.75-1.55-.57.07-1.33.13-2.3.2-2.93.2-5.57-.53-7.9-2.2s-3.65-3.17-3.95-4.5c-.33-1.37-.28-2.7.15-4 .37-1.27 1.05-2.38 2.05-3.35.93-.97 2.03-1.73 3.3-2.3.7-.33 1.25-.6 1.65-.8-1.6-1.63-3.03-3.48-4.3-5.55-1.53-2.47-2.35-4.55-2.45-6.25-.07-1.1.07-2.12.4-3.05.43-1.07 1.07-1.85 1.9-2.35.83-.67 2.62-1.18 5.35-1.55 1.07-.17 1.98-.3 2.75-.4-.53-3.67-.75-6.15-.65-7.45.13-2.37.67-4.6 1.6-6.7q1.395-3.405 4.05-5.55c1.83-1.6 3.97-2.62 6.4-3.05q3.705-.75 6.75.75c.57.27 1.05.43 1.45.5.4-3.53.82-5.83 1.25-6.9.73-1.63 1.33-2.75 1.8-3.35.7-1.2 1.58-2.08 2.65-2.65.4-.23.72-.37.95-.4.6-.03 1.22.17 1.85.6.5.33 2.23 1.55 5.2 3.65 1-1.7 1.52-2.55 1.55-2.55 1.2-2.23 2.77-4.12 4.7-5.65q3.045-2.4 6.6-3.15c1.73-.4 3.15-.28 4.25.35.6.33 1.77 1.32 3.5 2.95 1.03 1 1.87 1.82 2.5 2.45.23-.23.52-.5.85-.8 2.73-2.9 6.02-5.18 9.85-6.85 1-.47 1.9-.73 2.7-.8.67-.07 1.23.02 1.7.25.57.23 1.08.7 1.55 1.4.67 1.03 1.33 2.57 2 4.6.73 2.27 1.33 3.83 1.8 4.7q9.645-2.805 13.35-2.55c1.37 0 2.5.25 3.4.75.77.43 1.55 1.27 2.35 2.5.5.83.83 1.55 1 2.15q.045.255.15 1.8c-.03 1.8-.18 3.13-.45 4-.03.2-.57 1.55-1.6 4.05.23.1.68.23 1.35.4.8.2 1.6.53 2.4 1 .87.43 1.52.87 1.95 1.3.5.43.92 1.02 1.25 1.75.13.37.2.73.2 1.1 0 .33-.07.7-.2 1.1-.2.37-2.17 2.22-5.9 5.55q-.105.045-.6.6c0 .03-.02.07-.05.1.23.27.37.43.4.5 2.63 3.23 4.12 5.42 4.45 6.55.23.9.28 1.88.15 2.95-.17 1.07-1.2 2.45-3.1 4.15-1.93 1.63-2.77 2.73-2.5 3.3.2.47.18 1.23-.05 2.3-.27 1-.8 1.62-1.6 1.85-.9.17-1.43.35-1.6.55-.07-.4-.15-.77-.25-1.1-.13-.37-.38-1.1-.75-2.2-.33-.93-.77-2.17-1.3-3.7-.1-.33-.2-.62-.3-.85.13-.1.27-.18.4-.25.87-.63 1.42-1.07 1.65-1.3.53-.53 1.02-1.22 1.45-2.05.17-.47.23-.82.2-1.05-.4.03-.97.32-1.7.85q-.9.645-2.85 1.2c-.3.07-.6.13-.9.2-1.63.3-2.95.32-3.95.05-.13-.03-.25-.07-.35-.1-1.07-.43-1.92-.9-2.55-1.4-1.17-.93-1.93-1.67-2.3-2.2a.5.5 0 0 0-.1-.2c.07-.23.12-.47.15-.7.07-.23.12-.45.15-.65.03-.17.1-.3.2-.4l-7.45 2.2q-1.845.6-3.75.45c-.43-.03-1.6-.83-3.5-2.4l-1.55-2.05c-3.83 3.13-6 4.83-6.5 5.1-.57.2-1.57.68-3 1.45-1.57.77-2.58 1.27-3.05 1.5-.73.3-1.63.48-2.7.55q-2.1.105-3.3-.75-.705-.105-1.05.45c-.13.13-.25.5-.35 1.1-.47 2-1.35 3.87-2.65 5.6-1.3 1.67-2.87 3.03-4.7 4.1-.43.27-.92.52-1.45.75q-2.445 1.05-6.3 1.8c-.23.03-.47.07-.7.1-.03 0-.02.25.05.75v.05c-.07.5-.7 2.13-1.9 4.9-1.2 2.57-3.05 4.5-5.55 5.8-.03.03-.07.05-.1.05l-.6.3c-2 .83-3.92 1.2-5.75 1.1h-.15c-.8-.03-1.58-.17-2.35-.4-1.27-.33-2.02-.47-2.25-.4q-.6 0-1.05.45-.495.45-.3 1.05c.03.3.3.6.8.9.97.7 2.07 1.23 3.3 1.6-4.27 8.23-6.62 13.07-7.05 14.5a1 1 0 0 0-.05.25h-.05c-1.57.1-2.65-.22-3.25-.95-.57-.73-.75-1.75-.55-3.05m108.2-9.3c-.43 1.43-1.12 2.7-2.05 3.8l-.7.7c-1.1 1-2.63 2-4.6 3-1.13.57-2.57 1.03-4.3 1.4-1.77.4-3.27.58-4.5.55q-1.005 0-1.8-.15c-2.2-.4-3.62-1.52-4.25-3.35-.07-.17-.12-.58-.15-1.25-.07-.67-.07-1.13 0-1.4 1.13.13 2.42.08 3.85-.15.17-.03.33-.07.5-.1-.03.07-.07.15-.1.25-.1.3-.13.73-.1 1.3.1.57.28.98.55 1.25.23.3.58.52 1.05.65.53.07 1 .03 1.4-.1.17-.07.33-.15.5-.25.47-.3.87-.82 1.2-1.55.23-.63.35-1.23.35-1.8 0-.37-.05-.68-.15-.95 3.6-1.27 7.22-2.85 10.85-4.75.07-.03.13-.05.2-.05.27.13.52.3.75.5.27.17.5.37.7.6.27.23.5.55.7.95.13.3.17.6.1.9m-5-3.9c-1.77.87-4.5 2.03-8.2 3.5-.77.3-1.45.55-2.05.75-.93.33-1.7.58-2.3.75-.3.07-.67.13-1.1.2-.73.13-1.65.25-2.75.35l-.55.1c.37-.7 1-1.38 1.9-2.05.37-.3.77-.58 1.2-.85q1.455-.945 3.3-1.65c.47-.17.97-.33 1.5-.5 2.43-.8 4.6-1.15 6.5-1.05 1 .03 1.95.15 2.85.35-.1.03-.2.07-.3.1m27.9 62.25c.93-2.1 2.23-3.97 3.9-5.6.33-.27.77-.42 1.3-.45.23.3.42.63.55 1 .6 1.93 1.03 3.93 1.3 6q.105.705.6 1.05l.85.05c.27-.3.48-.62.65-.95.87-1.77 1.73-3.55 2.6-5.35.43-.9 1.02-1.7 1.75-2.4.33-.27.67-.38 1-.35.13.13.27.3.4.5.1.1.17.23.2.4.33 2.03.65 4.1.95 6.2l-5.65 3.7c-1.5.77-3.07 1.52-4.7 2.25-.37.1-.72.22-1.05.35-.63.37-1.28.7-1.95 1-1.93.93-3.93 1.7-6 2.3.77-3.4 1.87-6.63 3.3-9.7m-70.1 106.25c-.2.13-.38.27-.55.4-.17.1-.33.22-.5.35-.17.07-.33.1-.5.1q-.195.15-.45.15c-2.53-4.23-3.95-8.92-4.25-14.05-.07-1-.1-1.98-.1-2.95-.07-1.9-.05-3.78.05-5.65.03-.67.08-1.33.15-2 .27-3.2.75-6.27 1.45-9.2 1.13-4.67 2.72-9.15 4.75-13.45q2.205-4.695 5.1-9c.57-.87 1.17-1.7 1.8-2.5.03-.1.08-.18.15-.25l2.45.45c-.4.93-.8 1.87-1.2 2.8-.47 1.1-.93 2.22-1.4 3.35-.1.27-.22.55-.35.85-1.2 3-2.23 6.07-3.1 9.2-1.47 5.2-2.53 10.45-3.2 15.75-.43 3.37-.55 6.72-.35 10.05.1 1.7.3 3.42.6 5.15.2-.4.35-.82.45-1.25.2-.87.32-1.73.35-2.6 0-.5-.02-.98-.05-1.45-.13-2.43-.05-4.87.25-7.3.67-5.8 1.7-11.62 3.1-17.45.8-3.37 1.73-6.68 2.8-9.95.37-1.23.77-2.45 1.2-3.65.4-1.17.82-2.32 1.25-3.45l1.8.35c-.03.13-.07.28-.1.45-.3 1.9-.55 3.82-.75 5.75-.23 2.23-.4 4.48-.5 6.75-.07 1.93-.1 3.87-.1 5.8.07 6.97.85 13.78 2.35 20.45-.9 2.37-2.03 4.63-3.4 6.8-.57.93-1.15 1.85-1.75 2.75a76 76 0 0 1-2.35 3.1c-1.57 1.9-3.27 3.68-5.1 5.35m8.55-61-.45-1.1c-.6-1.17-1.08-2.33-1.45-3.5q-.6-1.845-.9-3.75v-.05c2.9-2.63 6.07-4.9 9.5-6.8 3.1 2.1 5.87 4.52 8.3 7.25a9.9 9.9 0 0 1-2.45 4.45c-1.53 1.67-3.22 2.83-5.05 3.5-.97.33-1.95.53-2.95.6-1.47.07-2.98-.13-4.55-.6m11.25-15.65c-.13-.13-.27-.25-.4-.35-1.23-.7-2.5-1.17-3.8-1.4-2.7-.63-5.08.35-7.15 2.95-.53-.43-1.05-.87-1.55-1.3-2.57-2.33-5.18-4.55-7.85-6.65-.07-1.8-.18-3.57-.35-5.3-.27-2.77-.6-5.53-1-8.3l1.2.6c2.13.93 4.3 1.85 6.5 2.75 2.17.83 4.33 1.68 6.5 2.55a60.2 60.2 0 0 0 15.45 4.45l.15 2.65c-3.07 1.83-5.63 4.28-7.7 7.35m12.5 8.9c-.73.87-1.55 1.67-2.45 2.4-.57.5-1.18.92-1.85 1.25-.97.5-2.02.82-3.15.95 1.03-1.57 1.68-3.25 1.95-5.05q.045-.3 0-.6l-5.25-6.05c1.63-1.73 3.27-3.48 4.9-5.25.4-.47.8-.93 1.2-1.4 0-.03.02-.07.05-.1 2.2 2.47 3.87 5.18 5 8.15.43 1.13.78 2.3 1.05 3.5-.43.77-.92 1.5-1.45 2.2m-19.1 52.3c1.2 4.17 2.57 8.28 4.1 12.35.83 2.2 1.82 4.3 2.95 6.3-1.33-1.17-2.65-2.35-3.95-3.55-2.2-1.97-4.38-3.93-6.55-5.9 1.7-2.8 2.85-5.87 3.45-9.2m-10.25-44.5c.2.4.38.78.55 1.15q-5.4 8.895-9 18.6a68.6 68.6 0 0 0-3.65 14.2c-.07.47-.12.93-.15 1.4-.43-.43-.87-.85-1.3-1.25-2.1-2.03-4.23-4-6.4-5.9-2.13-1.9-4.27-3.78-6.4-5.65-1.97-1.7-4.05-3.2-6.25-4.5l24.25-12.5c-1.67-.27-3.32-.53-4.95-.8-2.63-.43-5.37-.87-8.2-1.3-1.93-.23-3.88-.5-5.85-.8-.7-.1-1.4-.18-2.1-.25-.83-.03-1.65-.07-2.45-.1l-.75-12.6c.7-.17 1.4-.33 2.1-.5 1.83-.5 3.68-.98 5.55-1.45 1.1-.27 2.2-.53 3.3-.8 2.4-.63 4.83-1.18 7.3-1.65.2 1.6.65 3.23 1.35 4.9 2.4 5.9 6.75 9.17 13.05 9.8m56.45 33.25c-.8 1.03-1.6 2.07-2.4 3.1-1.3 1.73-2.62 3.47-3.95 5.2-1.5 1.87-3.02 3.72-4.55 5.55-.5.67-1.03 1.32-1.6 1.95l-1.7 2c-2.4 2.73-4.8 5.47-7.2 8.2 1.13-3.5 2.27-8.7 3.4-15.6 1.13-7.1 1.62-11.42 1.45-12.95-.43-3.77-1.3-7.47-2.6-11.1a63.7 63.7 0 0 0-8.7-16.3c.03-.3.05-.58.05-.85.1-1.67.22-3.32.35-4.95 1.73-1.23 3.05-2.88 3.95-4.95.43-1 .57-1.98.4-2.95-.4-2.27-1.08-4.4-2.05-6.4.8.07 1.6.15 2.4.25 1.2.1 2.42.22 3.65.35s2.47.28 3.7.45c2.5.37 5 .75 7.5 1.15 3.8.63 7.57 1.4 11.3 2.3l.35 12.5-19.65 3.9c.9.43 1.82.87 2.75 1.3 4.1 1.97 8.12 3.98 12.05 6.05 1.97 1.1 3.93 2.22 5.9 3.35.5.3 1 .62 1.5.95.43.27.88.53 1.35.8.67.43 1.35.87 2.05 1.3.47.23.97.57 1.5 1-.17.23-.35.45-.55.65-1.83 2.13-3.55 4.27-5.15 6.4-.8 1.1-1.62 2.18-2.45 3.25-1.07 1.4-2.08 2.77-3.05 4.1"/><path d="M149.34 128.52h.25c.37 0 .82-.12 1.35-.35.8-.37 1.45-.73 1.95-1.1.47-.4.88-.77 1.25-1.1.4-.37.67-.67.8-.9.1-.2.17-.37.2-.5.03-.27-.02-.5-.15-.7-.2-.33-.47-.52-.8-.55h-.2c-.13-.03-.25-.02-.35.05-.63.03-1.35.35-2.15.95-.83.6-1.7 1.33-2.6 2.2-.27.23-.43.48-.5.75q-.045.045 0 .15c-.07.2 0 .42.2.65q.255.345.75.45m-3.9 10.8c.2 0 .43-.07.7-.2.53-.27 1.32-.85 2.35-1.75 1-.93 1.62-1.57 1.85-1.9.2-.37.28-.72.25-1.05-.07-.4-.25-.65-.55-.75h-.15c-.23-.03-.6.05-1.1.25-.57.17-1.25.58-2.05 1.25-.8.63-1.38 1.37-1.75 2.2-.37.8-.42 1.37-.15 1.7.17.17.37.25.6.25m9.4-26.4c.03.1.15.5.35 1.2.17.67.85 1.88 2.05 3.65 1.17 1.73 2.72 3.4 4.65 5 1.93 1.57 3.97 3.03 6.1 4.4 2.17 1.33 4.68 2.52 7.55 3.55s4.97 1.55 6.3 1.55h.1l2.65-.2.25-.05q.435-.075.75-.15c1.67-.47 3.8-1.57 6.4-3.3 2.47-1.6 4.87-3.82 7.2-6.65 2.33-2.77 4.07-5.42 5.2-7.95.63-1.47 1.03-3.43 1.2-5.9.13-2.33.07-3.73-.2-4.2-.47-.73-1.7-1.33-3.7-1.8-.23-.05-.5-.1-.8-.15l-5.05-.35h-.1l-7.65.15c-.2 0-.4.02-.6.05-.2 0-.4.02-.6.05l-4.85.35h-.1l-10.05.85c-.4.03-.77.08-1.1.15-2.47.37-4.02.63-4.65.8-.67.13-2.52.55-5.55 1.25-3.03.67-4.97 1.95-5.8 3.85-.33 1.07-.32 2.32.05 3.75-.03 0-.03.03 0 .1m19.35-7.65 6.4-.6h.1c.2 0 .38-.02.55-.05l8.95-.45h.1c3.4-.13 6.35-.12 8.85.05h.1c1 .07 1.98.25 2.95.55.37.07.5.73.4 2q-.105.645-.15 1.2h-.1c-3.23-.27-8.1-.25-14.6.05h-.1l-15.45 1.9-1 .2c-.32.08-.63.17-.95.25q-7.545 1.845-9.45 3.15v-.05c-1.4-1.53-2-2.72-1.8-3.55.03-.2.12-.48.25-.85.67-.43 1.5-.78 2.5-1.05 1.7-.57 3.7-1.1 6-1.6 2.3-.53 4.3-.9 6-1.1.15-.02.3-.03.45-.05m-14.4 26.4c-.97-.03-2 .37-3.1 1.2-1.23.9-2 1.67-2.3 2.3-.4.6-.53.97-.4 1.1.1.17.33.32.7.45.12.03.24.05.35.05h.12c.53 0 1.21-.32 2.08-.99 1.07-.87 1.77-1.43 2.1-1.7q.495-.45.9-1.05.345-.6 0-1.35-.195-.045-.45 0Zm-70.9-38.6c.97.67 2.05 1.25 3.25 1.75-.07.07-.13.15-.2.25-.43.8-.68 1.63-.75 2.5-.07.8-.03 1.6.1 2.4.6 2.03 1.48 3.6 2.65 4.7 1 .97 2.52 1.78 4.55 2.45 2.93.97 7.03.9 12.3-.2q1.245-.195 2.55-.6c1.5-.47 2.98-1.08 4.45-1.85 1.23-.63 2.28-1.52 3.15-2.65.53-.7.85-1.52.95-2.45 0-.13.02-.32.05-.55v-.55c0-1.33-.37-2.63-1.1-3.9-.8-1.17-1.83-2.25-3.1-3.25-2.2-1.63-4.63-2.63-7.3-3-.33-.07-.67-.1-1-.1-2.03-.2-4.22-.05-6.55.45q-4.95.945-8.1 3.45c-.47.33-.9.7-1.3 1.1q-3.705-1.155-6.6-3.3c-.23-.17-.42-.22-.55-.15-.23.13-.23.45 0 .95q.9 1.395 2.55 2.55m6.25 2.55c1.03.23 2.23.42 3.6.55.07 0 .15.02.25.05-.23.27-.42.63-.55 1.1-.4 1.47-.22 2.63.55 3.5.4.47.92.72 1.55.75s1.18-.17 1.65-.6q.705-.495 1.05-1.5c.2-.67.25-1.33.15-2-.07-.37-.17-.68-.3-.95 3.1.13 6.1.07 9-.2 2.47-.2 4.25-.47 5.35-.8.17-.03.3-.07.4-.1.57.6.9 1.17 1 1.7.03.1.05.18.05.25-.03.43-.12.83-.25 1.2-.1.27-.23.55-.4.85-.23.33-.48.7-.75 1.1-.57.87-1.3 1.5-2.2 1.9-1.47.7-2.95 1.2-4.45 1.5-.07.03-.15.07-.25.1-1.9.4-4.27.63-7.1.7-1.83.03-3.62-.3-5.35-1-1.93-.7-3.27-1.63-4-2.8-.03-.13-.05-.25-.05-.35-.4-.93-.47-1.9-.2-2.9.17-.67.55-1.33 1.15-2 .03-.03.07-.05.1-.05m11.3-1.05c-3.63 0-6.7-.22-9.2-.65 1.5-1 3.42-1.72 5.75-2.15 2.7-.53 5.18-.58 7.45-.15 2.2.4 4.15 1.23 5.85 2.5-2.6.33-5.88.48-9.85.45m-32.5 142.2c.27-1.13.48-2.27.65-3.4q.105-.75.15-1.5c.03-.33.05-.67.05-1-.03-.67-.27-1.15-.7-1.45h-.8c-.2.27-.35.55-.45.85-.5 1.33-.93 2.68-1.3 4.05-.9 3.47-1.75 6.98-2.55 10.55-.11.48-.21.96-.31 1.43.89.77 1.79 1.52 2.7 2.24.09-.46.17-.92.26-1.37.26.73.52 1.46.78 2.18a97 97 0 0 0 5.91 4.23l-4.69-15.47q.15-.705.3-1.35Zm58.8-2.3-1.7 7.85c-.47 2.27-.95 3.9-1.45 4.9q-.255.6-.6.45c-.57-1.47-1.1-2.93-1.6-4.4-2.1-6.17-3.62-12.53-4.55-19.1-.93-6.77-1.22-13.55-.85-20.35.03-.9.08-1.82.15-2.75.03-.4.07-.8.1-1.2-.13.33-.25.67-.35 1-.3.73-.53 1.53-.7 2.4q-1.395 5.7-.6 13.95c.5 5.87 1.42 11.42 2.75 16.65 1.17 4.8 2.68 9.33 4.55 13.6.3.67.63 1.05 1 1.15.73.17 1.32-.38 1.75-1.65q.045-.195.15-.45c.73-2.43 1.53-6 2.4-10.7q.255-1.305-.45-1.35"/></svg>