<svg xmlns="http://www.w3.org/2000/svg" id="a" viewBox="35.42 25.92 215.36 194.95"><defs><style>.l{fill:#926f7e}</style></defs><path id="b" d="M217.28 65.75c-17.9-15.59-40.92-23.48-69.05-23.67-28.06-.1-53.12 7.44-75.17 22.61-21.83 15.2-34.19 33.72-37.08 55.55-2.76 21.73 4.77 40.34 22.61 55.84 17.97 15.46 40.98 23.32 69.05 23.58 28.13.13 53.15-7.39 75.07-22.57 21.92-15.3 34.33-33.8 37.22-55.5 2.8-21.79-4.76-40.41-22.66-55.84Z" style="fill:#161b29"/><path id="c" d="M77.26 66.66c-20.73 14.14-32.45 31.28-35.15 51.4-2.67 20.19 4.48 37.45 21.46 51.79 16.97 14.37 38.75 21.62 65.33 21.75 26.62.23 50.29-6.73 71.02-20.88 20.8-14.14 32.55-31.28 35.25-51.4 2.67-20.19-4.48-37.45-21.46-51.79-16.97-14.34-38.77-21.59-65.38-21.75q-39.87-.285-71.07 20.88" style="fill:#5d6788"/><g id="d"><path d="m140.05 71.2.6 2.9c-.77-.77-1.58-1.47-2.45-2.1-3.17-2.4-6.55-3.9-10.15-4.5-2.17-.37-5.18-.42-9.05-.15-4.8.33-8.43.87-10.9 1.6-1.77.5-4.02 1.37-6.75 2.6-4.27 2-7.78 3.73-10.55 5.2-1.47.77-2.7 1.52-3.7 2.25.2-.37.32-.72.35-1.05q.105-.555-.15-1.05c-.2-.37-.45-.6-.75-.7-.77-.23-1.55.2-2.35 1.3-9.93 13.33-16.62 30.22-20.05 50.65q-1.095 6.75-1.2 11.4v.75c-.23 2.33-.38 4.7-.45 7.1-.13 3.63.25 6.42 1.15 8.35.63 1.43 1.9 3.1 3.8 5 3.33 3.33 7.27 6.67 11.8 10 3.43 2.53 7.73 5.42 12.9 8.65 11.33 7.07 21.38 12.43 30.15 16.1q17.145 7.2 32.7 8.1 7.65.45 13.5-.9c3.13-.73 6.85-2.12 11.15-4.15 4.7-2.3 8.67-4.57 11.9-6.8 4.67-3.23 8.83-6.95 12.5-11.15.1 2.07.27 4.35.5 6.85.13 1.57.53 2.63 1.2 3.2 1.2 1 2.83.78 4.9-.65 2.33-1.6 4.87-4.2 7.6-7.8 4-5.3 7.88-11.58 11.65-18.85 2.5-4.77 5.68-11.45 9.55-20.05 1.33-2.93 2.22-5.3 2.65-7.1.67-2.7.7-5.12.1-7.25-.97-3.37-3.28-6.02-6.95-7.95-2.53-1.37-6-2.32-10.4-2.85q-12-1.395-32.1 1.5c-15.93 2.3-26.67 3.48-32.2 3.55-1.2 0-2.05-.17-2.55-.5-.6-.4-1.12-1.33-1.55-2.8l-7.6-28.95c-.13-.47-.25-.93-.35-1.4 0-2.7-.87-5.6-2.6-8.7-1-2.67-2.08-5-3.25-7-.83-1.43-1.7-2.32-2.6-2.65m-32.45 1.4c4.27-1.2 8.63-1.8 13.1-1.8q6.75-.105 11.4 1.95c4.37 1.9 7.83 5.22 10.4 9.95 2.9 13.3 6.07 26.22 9.5 38.75.7 2.47 1.57 4.08 2.6 4.85.67.47 1.5.77 2.5.9.67.07 1.58.07 2.75 0 3.67-.2 14.4-1.57 32.2-4.1 13.1-1.87 23.83-2.35 32.2-1.45 3.7.37 6.58 1.15 8.65 2.35 1.37.8 2.47 1.83 3.3 3.1q1.35 2.055 1.35 4.2-.045 1.905-1.5 5.1-7.395 16.95-11.85 25.35-7.305 13.695-15.45 23.1l-.9-6.3c-.2-1.27-.6-2.03-1.2-2.3a.93.93 0 0 0-.45-.1c-.03-.17-.1-.3-.2-.4q-.405-.555-1.2-.6c-.53-.07-1.02.02-1.45.25-.47.23-1.17.9-2.1 2-1.57 1.83-3.6 3.55-6.1 5.15-1.57 1.03-3.93 2.35-7.1 3.95-4.83 2.53-8.63 4.37-11.4 5.5-4.33 1.77-8.37 2.88-12.1 3.35q-7.395.9-18.9-1.35c-6.17-1.2-11.5-2.62-16-4.25-2.97-1.07-6.33-2.52-10.1-4.35-15.57-7.53-29.28-16.02-41.15-25.45-1.73-1.4-3.07-2.55-4-3.45-1.37-1.37-2.43-2.75-3.2-4.15-1.47-2.7-2.2-6.7-2.2-12 0-3.4.18-7.27.55-11.6q.3-3.345 1.2-11.55l.6-5.3c1.9-6.3 4.3-12.37 7.2-18.2q1.245-2.1 3.6-5.1c2.6-3.27 4.72-5.53 6.35-6.8 1.3-1 2.98-2.05 5.05-3.15 5.47-2.93 10.15-4.95 14.05-6.05m67.4 87.95c.07-.47-.03-.9-.3-1.3-.3-.43-.67-.63-1.1-.6-.6.03-1.2.22-1.8.55-.27.13-.83.6-1.7 1.4l-3.5 3.6c-.5.5-.73.92-.7 1.25 0 .37.18.65.55.85.33.2.72.3 1.15.3 1.13-.07 2.5-.77 4.1-2.1.43-.37 1.05-.95 1.85-1.75.87-.8 1.35-1.53 1.45-2.2m1.4-12.05c-.57-.27-1.12-.28-1.65-.05-.13.07-.45.3-.95.7-1.67 1.67-2.65 2.68-2.95 3.05-.57.63-.87 1.2-.9 1.7-.03.33.05.65.25.95.23.3.5.47.8.5q.405 0 .9-.3c1.93-1 3.28-1.83 4.05-2.5 1.07-.87 1.53-1.77 1.4-2.7-.1-.63-.42-1.08-.95-1.35m8.2 4.5c-.3.07-.72.27-1.25.6-1.23.87-2.48 1.93-3.75 3.2-.33.4-.53.73-.6 1-.07.3 0 .6.2.9.17.27.4.47.7.6.57.2 1.2.18 1.9-.05 1.07-.3 2.45-1.17 4.15-2.6q.855-.645 1.05-1.2c.195-.555.13-.77 0-1.2-.13-.4-.37-.72-.7-.95-.5-.37-1.07-.47-1.7-.3"/><path d="M120.7 70.8c-4.47 0-8.83.6-13.1 1.8-3.9 1.1-8.58 3.12-14.05 6.05-2.07 1.1-3.75 2.15-5.05 3.15-1.63 1.27-3.75 3.53-6.35 6.8q-2.355 3-3.6 5.1c-2.9 5.83-5.3 11.9-7.2 18.2l-.6 5.3q-.9 8.205-1.2 11.55c-.37 4.33-.55 8.2-.55 11.6 0 5.3.73 9.3 2.2 12 .77 1.4 1.83 2.78 3.2 4.15.93.9 2.27 2.05 4 3.45 11.87 9.43 25.58 17.92 41.15 25.45 3.77 1.83 7.13 3.28 10.1 4.35 4.5 1.63 9.83 3.05 16 4.25q11.505 2.25 18.9 1.35c3.73-.47 7.77-1.58 12.1-3.35 2.77-1.13 6.57-2.97 11.4-5.5 3.17-1.6 5.53-2.92 7.1-3.95 2.5-1.6 4.53-3.32 6.1-5.15.93-1.1 1.63-1.77 2.1-2 .43-.23.92-.32 1.45-.25q.795.045 1.2.6c.1.1.17.23.2.4.17 0 .32.03.45.1.6.27 1 1.03 1.2 2.3l.9 6.3q8.145-9.405 15.45-23.1 4.455-8.4 11.85-25.35 1.455-3.195 1.5-5.1 0-2.145-1.35-4.2c-.83-1.27-1.93-2.3-3.3-3.1-2.07-1.2-4.95-1.98-8.65-2.35-8.37-.9-19.1-.42-32.2 1.45-17.8 2.53-28.53 3.9-32.2 4.1-1.17.07-2.08.07-2.75 0-1-.13-1.83-.43-2.5-.9-1.03-.77-1.9-2.38-2.6-4.85-3.43-12.53-6.6-25.45-9.5-38.75-2.57-4.73-6.03-8.05-10.4-9.95q-4.65-2.055-11.4-1.95m62.65 82.8c.53-.33.95-.53 1.25-.6.63-.17 1.2-.07 1.7.3.33.23.57.55.7.95q.195.645 0 1.2c-.195.555-.48.77-1.05 1.2-1.7 1.43-3.08 2.3-4.15 2.6-.7.23-1.33.25-1.9.05-.3-.13-.53-.33-.7-.6-.2-.3-.27-.6-.2-.9.07-.27.27-.6.6-1 1.27-1.27 2.52-2.33 3.75-3.2m-8.6-5.15c.53-.23 1.08-.22 1.65.05.53.27.85.72.95 1.35.13.93-.33 1.83-1.4 2.7-.77.67-2.12 1.5-4.05 2.5q-.495.3-.9.3c-.3-.03-.57-.2-.8-.5-.2-.3-.28-.62-.25-.95.03-.5.33-1.07.9-1.7.3-.37 1.28-1.38 2.95-3.05.5-.4.82-.63.95-.7m-.05 10.8c.27.4.37.83.3 1.3-.1.67-.58 1.4-1.45 2.2-.8.8-1.42 1.38-1.85 1.75-1.6 1.33-2.97 2.03-4.1 2.1-.43 0-.82-.1-1.15-.3-.37-.2-.55-.48-.55-.85-.03-.33.2-.75.7-1.25l3.5-3.6c.87-.8 1.43-1.27 1.7-1.4.6-.33 1.2-.52 1.8-.55.43-.03.8.17 1.1.6" class="l"/></g><g id="e"><path d="M234.55 131.05c.29.8.35 1.61.2 2.45.12.21.24.42.35.65.23.47.55 1.17.95 2.1l.2.3s-.07.08-.1.15c-2.8 6.42-5.28 11.92-7.45 16.5q-2.925-.09-3.6-.15-3.645-.255-6.3-.9c-.39-.03-.79-.07-1.2-.1a17.5 17.5 0 0 1-8 1.8c-3.2-.07-6.33-.52-9.4-1.35-.42-.11-.83-.23-1.25-.35-4.06.31-8.24.8-12.55 1.45-.5-.37-1.07-.47-1.7-.3-.3.07-.72.27-1.25.6-.13.09-.26.18-.4.25-2.3.43-4.63.89-7 1.4-.47.07-.92.15-1.35.25q-2.295.495-4.35 1.2c-.13.03-.25.07-.35.1-.67.23-1.3.48-1.9.75-2.37 1-4.45 2.23-6.25 3.7-2.47 2-4.9 4.95-7.3 8.85-2.05 3.32-3.74 6.67-5.05 10.05q-3.075 1.86-5.1 3.45c-.6.47-.98.92-1.15 1.35-.67 0-1.22.27-1.65.8l.2.25c.27-.27.68-.43 1.25-.5.77-.1 1.23-.18 1.4-.25.13-.03.62-.35 1.45-.95.83-.4 1.45-.7 1.85-.9l.75-.45c-.85 2.7-1.46 5.42-1.85 8.15-.14 1.01-.26 2.01-.35 3-.18-.03-.36-.06-.55-.1-6.17-1.2-11.5-2.62-16-4.25-.93-.33-1.9-.7-2.9-1.1 1.83-2.83 3.55-5.43 5.15-7.8.93.17 1.97.35 3.1.55.67.13 1.2.13 1.6 0 .27-.07.48-.22.65-.45s.23-.47.2-.7c-.1-.6-.63-.97-1.6-1.1l-2.45-.5c.87-1.27 1.7-2.45 2.5-3.55 4.53-6.23 9.03-11.65 13.5-16.25 4.57-4.63 11.53-10.63 20.9-18 1.62-1.24 3.1-2.34 4.45-3.3-.21-.48-.4-.98-.55-1.5 0-.27.02-.54.05-.8-1.73 1.22-3.66 2.64-5.8 4.25-5.23 3.9-9.22 6.97-11.95 9.2-4.3 3.5-8 6.87-11.1 10.1-1.97 2.03-3.97 4.32-6 6.85-.47-.23-.98-.43-1.55-.6-2.37-.73-3.67-1.15-3.9-1.25-1.1-.47-1.67-.7-1.7-.7-.77-.13-1.37-.05-1.8.25-.23.2-.38.47-.45.8-.1.33-.05.62.15.85.13.17.43.35.9.55l6.05 2.15c.2.03.38.08.55.15q-1.2 1.5-2.4 3.15c-1.33 1.8-3 4.13-5 7l-.3-.05c-1.67-.33-2.68-.52-3.05-.55-1.6-.17-3.13-.15-4.6.05.83.97 2.37 1.75 4.6 2.35.53.13 1.15.28 1.85.45-.83 1.2-1.72 2.48-2.65 3.85-.83 1.2-1.55 2.32-2.15 3.35-1.4-.63-2.87-1.32-4.4-2.05q-5.85-2.85-11.4-5.85c2.6-3.47 4.48-6.13 5.65-8 2.03-3.3 4.77-7.37 8.2-12.2-4.23-.43-6.7-.72-7.4-.85-8.33-1.37-16.47-4.62-24.4-9.75-7.13-4.57-13.83-10.43-20.1-17.6-.23-.27-.47-.48-.7-.65.03-.2.07-.4.1-.6l-.2-.2c-1.83-2.17-3.32-3.92-4.45-5.25-.27 1.2-.5 2.43-.7 3.7q-1.095 6.75-1.2 11.4v.75c-.23 2.33-.38 4.7-.45 7.1-.13 3.63.25 6.42 1.15 8.35.63 1.43 1.9 3.1 3.8 5 3.33 3.33 7.27 6.67 11.8 10 3.43 2.53 7.73 5.42 12.9 8.65 11.33 7.07 21.38 12.43 30.15 16.1 8.34 3.51 16.39 5.89 24.15 7.15.51 3.65 1.54 7.13 3.1 10.45.97 2.03 2.1 3.68 3.4 4.95 1.57 1.53 3.25 2.37 5.05 2.5.67.07 1.28-.03 1.85-.3.47-.2.78-.47.95-.8 2.8.83 6.17.75 10.1-.25q6.555-1.65 11.55-5.4c2.03-1.53 3.43-3.15 4.2-4.85.7-1.53.98-3.8.85-6.8a62 62 0 0 0-.35-4.35c.13 0 .25-.02.35-.05q.045.645.15 1.35c5.37-.93 12.25-2.9 20.65-5.9q2.055-.705 3.75-1.35c-.07.07-.12.15-.15.25-.13.33-.25.67-.35 1v.25s-.07.08-.1.15c-.23.53-.45 1.1-.65 1.7-1.27 3.47-2 6.1-2.2 7.9-.17 1.73 0 3.17.5 4.3.5 1.07 1.42 2.12 2.75 3.15 2.43 1.93 5.2 3.33 8.3 4.2 3.07.83 6.17 1.07 9.3.7 2.67-.33 4.88-1.03 6.65-2.1.33-.2.65-.4.95-.6.03.6.17 1.13.4 1.6 1.6-.2 3.02-1.03 4.25-2.5.87-1.03 1.7-2.5 2.5-4.4 3.13-7.43 5.2-16.95 6.2-28.55.43-5.3.37-9.55-.2-12.75-.53-3-1.52-5.3-2.95-6.9-1.1-1.23-2.7-2.3-4.8-3.2a28.4 28.4 0 0 0-7.85-2.25 496 496 0 0 0 4.85-10.5c.63-1.37 1.15-2.6 1.55-3.7-.27-.43-.55-.87-.85-1.3l-2.65-4.1c-.13-.2-.25-.4-.35-.6-.03.17-.08.33-.15.5-.57-.83-1.28-1.8-2.15-2.9-.13-.18-.26-.33-.4-.45m-11 25.6c.41.1 1.48.28 3.2.55 1.23.19 2.78.42 4.65.7.46.09.91.17 1.35.25.09.02.17.04.25.05 1.9.47 3.78 1.02 5.65 1.65.47.17.88.3 1.25.4q2.445 1.245 3.45 3c.57 1 .88 2.45.95 4.35.13 3.07 0 6.53-.4 10.4q-.3 3.15-1.35 10.35c-.53 3.7-1.02 6.42-1.45 8.15-.27 1.17-.93 3.52-2 7.05a47 47 0 0 0-.9 3.3q-1.845.105-4.5.45c-2.67.33-4.53.53-5.6.6q-6.795.45-10.8-2.25c-.47-.33-.77-.62-.9-.85-.47-.7-.47-1.83 0-3.4 1.4-4.73 2.55-9.3 3.45-13.7.17-.13.33-.25.5-.35.5-2.67.82-5.15.95-7.45-.13.03-.25.08-.35.15-.03-.17-.05-.32-.05-.45-.07-.73-.28-1.38-.65-1.95q-.555-.855-1.35-1.05c.67.07 1.48.17 2.45.3 1.27.17 2.35.22 3.25.15.83-.07 1.37-.3 1.6-.7.13-.27.17-.57.1-.9-.1-.33-.27-.6-.5-.8-.4-.3-1-.52-1.8-.65-1.9-.3-4.75-.28-8.55.05-4 .43-6.4.7-7.2.8-1.77.27-3.43.57-5 .9l-12.15 2.3c-1.7.33-2.97.65-3.8.95-1.37.47-2.43 1.12-3.2 1.95-1.23 1.23-2.08 3.35-2.55 6.35-.37 2.33-.55 4.92-.55 7.75 0 2.07.22 3.83.65 5.3l-.15 3.35c-.07 1.5-.27 2.58-.6 3.25-.4.8-1.18 1.6-2.35 2.4-5.27 3.73-11.2 5.55-17.8 5.45-.8-.03-1.45 0-1.95.1q-2.79-4.29-4.05-9.45c-.61-2.51-.94-5.18-1-8-.01-.63-.01-1.27 0-1.9.16-5.79 1.58-11.81 4.25-18.05 2.24-5.12 4.93-9.15 8.05-12.1 1.14-1.05 2.34-1.97 3.6-2.75 1.55-.95 3.35-1.77 5.4-2.45 1.34-.43 2.77-.82 4.3-1.15.61-.12 1.25-.24 1.9-.35.98-.18 2.05-.35 3.2-.5 5.23-.72 12.22-1.2 20.95-1.45q9.15-.255 15.6-.75c.87.27 1.72.48 2.55.65m-5.5 19.85c.1 0 .22.02.35.05q-.555 0-1.05.3c-.43.23-.78.57-1.05 1-.3.47-.6 1.4-.9 2.8-.13.6-.27 1.23-.4 1.9-.2.07-.38.15-.55.25-.03.13-.05.28-.05.45-4.8 2.13-8.65 3.72-11.55 4.75q-2.1.705-9.6 3c-2.03.6-3.83 1.17-5.4 1.7-.13.83-.22 1.68-.25 2.55-.03-1.33.05-2.63.25-3.9-.23.07-.47.13-.7.2l.05-1.25c.03-1.47.12-2.58.25-3.35.23-1.23.63-2.25 1.2-3.05.73-.97 1.85-1.75 3.35-2.35.77-.3 2.12-.68 4.05-1.15 2.43-.53 6.08-1.47 10.95-2.8 4.27-1 7.95-1.37 11.05-1.1m-116.9-18.25c4.7 1.93 9.6 3.22 14.7 3.85l-11.45 15.55c-9.43-5.37-18.07-11.17-25.9-17.4-1.73-1.4-3.07-2.55-4-3.45-1.37-1.37-2.43-2.75-3.2-4.15-1.47-2.7-2.2-6.7-2.2-12 0-2.53.1-5.32.3-8.35 2.47 4.27 5.57 8.13 9.3 11.6q3.255 2.955 8.25 6.45c5.17 3.5 9.9 6.13 14.2 7.9m76.3-8.1c-.1-.63-.42-1.08-.95-1.35-.57-.27-1.12-.28-1.65-.05-.13.07-.45.3-.95.7-1.67 1.67-2.65 2.68-2.95 3.05-.57.63-.87 1.2-.9 1.7-.03.33.05.65.25.95.23.3.5.47.8.5q.405 0 .9-.3c1.93-1 3.28-1.83 4.05-2.5 1.07-.87 1.53-1.77 1.4-2.7"/><path d="M115.85 162.1c-5.1-.63-10-1.92-14.7-3.85-4.3-1.77-9.03-4.4-14.2-7.9q-4.995-3.495-8.25-6.45c-3.73-3.47-6.83-7.33-9.3-11.6-.2 3.03-.3 5.82-.3 8.35 0 5.3.73 9.3 2.2 12 .77 1.4 1.83 2.78 3.2 4.15.93.9 2.27 2.05 4 3.45 7.83 6.23 16.47 12.03 25.9 17.4zm102.55 14.45c-.13-.03-.25-.05-.35-.05-3.1-.27-6.78.1-11.05 1.1-4.87 1.33-8.52 2.27-10.95 2.8-1.93.47-3.28.85-4.05 1.15-1.5.6-2.62 1.38-3.35 2.35-.57.8-.97 1.82-1.2 3.05-.13.77-.22 1.88-.25 3.35l-.05 1.25c.23-.07.47-.13.7-.2-.2 1.27-.28 2.57-.25 3.9.03-.87.12-1.72.25-2.55 1.57-.53 3.37-1.1 5.4-1.7q7.5-2.295 9.6-3c2.9-1.03 6.75-2.62 11.55-4.75 0-.17.02-.32.05-.45.17-.1.35-.18.55-.25.13-.67.27-1.3.4-1.9.3-1.4.6-2.33.9-2.8.27-.43.62-.77 1.05-1q.495-.3 1.05-.3m16.15-45.5q-.345-1.005-1.2-1.95c-1.43-1.53-3.17-2.6-5.2-3.2-3.13-.77-6.3-1.22-9.5-1.35-2.67-.03-5.3-.07-7.9-.1-2.97-.07-5.93.1-8.9.5-2.87.2-5.77.53-8.7 1-3.03.67-6.02 1.48-8.95 2.45-2.6 1-5.08 2.2-7.45 3.6-1.4.86-2.2 2.04-2.4 3.55-.03.26-.05.53-.05.8.15.52.34 1.02.55 1.5-1.35.96-2.83 2.06-4.45 3.3-9.37 7.37-16.33 13.37-20.9 18-4.47 4.6-8.97 10.02-13.5 16.25-.8 1.1-1.63 2.28-2.5 3.55l2.45.5c.97.13 1.5.5 1.6 1.1.03.23-.03.47-.2.7s-.38.38-.65.45c-.4.13-.93.13-1.6 0-1.13-.2-2.17-.38-3.1-.55-1.6 2.37-3.32 4.97-5.15 7.8 1 .4 1.97.77 2.9 1.1 4.5 1.63 9.83 3.05 16 4.25.19.04.37.07.55.1.09-.99.21-1.99.35-3 .39-2.73 1-5.45 1.85-8.15l-.75.45c-.4.2-1.02.5-1.85.9-.83.6-1.32.92-1.45.95-.17.07-.63.15-1.4.25-.57.07-.98.23-1.25.5l-.2-.25c.43-.53.98-.8 1.65-.8.17-.43.55-.88 1.15-1.35q2.025-1.59 5.1-3.45c1.31-3.38 3-6.73 5.05-10.05 2.4-3.9 4.83-6.85 7.3-8.85 1.8-1.47 3.88-2.7 6.25-3.7.6-.27 1.23-.52 1.9-.75.1-.03.22-.07.35-.1q2.055-.705 4.35-1.2c.43-.1.88-.18 1.35-.25 2.37-.51 4.7-.97 7-1.4.14-.07.27-.16.4-.25.53-.33.95-.53 1.25-.6.63-.17 1.2-.07 1.7.3 4.31-.65 8.49-1.14 12.55-1.45.42.12.83.24 1.25.35 3.07.83 6.2 1.28 9.4 1.35 2.82.03 5.49-.57 8-1.8.41.03.81.07 1.2.1q2.655.645 6.3.9.675.06 3.6.15c2.17-4.58 4.65-10.08 7.45-16.5.03-.07.07-.12.1-.15l-.2-.3c-.4-.93-.72-1.63-.95-2.1-.11-.23-.23-.44-.35-.65.15-.84.09-1.65-.2-2.45M176.5 148.8c.53.27.85.72.95 1.35.13.93-.33 1.83-1.4 2.7-.77.67-2.12 1.5-4.05 2.5q-.495.3-.9.3c-.3-.03-.57-.2-.8-.5-.2-.3-.28-.62-.25-.95.03-.5.33-1.07.9-1.7.3-.37 1.28-1.38 2.95-3.05.5-.4.82-.63.95-.7.53-.23 1.08-.22 1.65.05" style="fill:#6e4959"/><path d="M226.75 157.2c-1.72-.27-2.79-.45-3.2-.55-.83-.17-1.68-.38-2.55-.65q-6.45.495-15.6.75c-8.73.25-15.72.73-20.95 1.45-1.15.15-2.22.32-3.2.5-.65.11-1.29.23-1.9.35-1.53.33-2.96.72-4.3 1.15-2.05.68-3.85 1.5-5.4 2.45-1.26.78-2.46 1.7-3.6 2.75-3.12 2.95-5.81 6.98-8.05 12.1-2.67 6.24-4.09 12.26-4.25 18.05-.01.63-.01 1.27 0 1.9.06 2.82.39 5.49 1 8q1.26 5.16 4.05 9.45c.5-.1 1.15-.13 1.95-.1 6.6.1 12.53-1.72 17.8-5.45 1.17-.8 1.95-1.6 2.35-2.4.33-.67.53-1.75.6-3.25l.15-3.35c-.43-1.47-.65-3.23-.65-5.3 0-2.83.18-5.42.55-7.75.47-3 1.32-5.12 2.55-6.35.77-.83 1.83-1.48 3.2-1.95.83-.3 2.1-.62 3.8-.95l12.15-2.3c1.57-.33 3.23-.63 5-.9.8-.1 3.2-.37 7.2-.8 3.8-.33 6.65-.35 8.55-.05.8.13 1.4.35 1.8.65.23.2.4.47.5.8.07.33.03.63-.1.9-.23.4-.77.63-1.6.7-.9.07-1.98.02-3.25-.15-.97-.13-1.78-.23-2.45-.3q.795.195 1.35 1.05c.37.57.58 1.22.65 1.95 0 .13.02.28.05.45.1-.07.22-.12.35-.15-.13 2.3-.45 4.78-.95 7.45-.17.1-.33.22-.5.35-.9 4.4-2.05 8.97-3.45 13.7-.47 1.57-.47 2.7 0 3.4.13.23.43.52.9.85q4.005 2.7 10.8 2.25c1.07-.07 2.93-.27 5.6-.6q2.655-.345 4.5-.45.345-1.5.9-3.3c1.07-3.53 1.73-5.88 2-7.05.43-1.73.92-4.45 1.45-8.15q1.05-7.2 1.35-10.35c.4-3.87.53-7.33.4-10.4-.07-1.9-.38-3.35-.95-4.35q-1.005-1.755-3.45-3c-.37-.1-.78-.23-1.25-.4-1.87-.63-3.75-1.18-5.65-1.65-.08-.01-.16-.03-.25-.05-.44-.08-.89-.16-1.35-.25-1.87-.28-3.42-.51-4.65-.7" style="fill:#472c37"/></g><g id="f"><path d="M222.5 148.95c2.23-1.83 4.33-3.77 6.3-5.8 2.27-2.4 4.08-5.1 5.45-8.1 1-2.2.7-4.18-.9-5.95-1.43-1.53-3.17-2.6-5.2-3.2-3.13-.77-6.3-1.22-9.5-1.35-2.67-.03-5.3-.07-7.9-.1-2.97-.07-5.93.1-8.9.5-2.87.2-5.77.53-8.7 1-3.03.67-6.02 1.48-8.95 2.45-2.6 1-5.08 2.2-7.45 3.6-1.63 1-2.45 2.45-2.45 4.35.53 1.8 1.42 3.32 2.65 4.55 2.13 2.07 4.5 3.88 7.1 5.45s5.37 2.85 8.3 3.85c2.53.8 5.15 1.57 7.85 2.3 3.07.83 6.2 1.28 9.4 1.35a17.7 17.7 0 0 0 8.15-1.85c1.73-.8 3.32-1.82 4.75-3.05m8.7-14.35a40 40 0 0 0-8.45-1.1c-3.23-.27-6.48-.35-9.75-.25-2.97.07-5.97.1-9 .1-3.67.03-7.33.38-11 1.05-4.53.67-9 1.75-13.4 3.25l-2.15-2.4c2.2-1.8 4.68-3.07 7.45-3.8 2.73-.73 5.5-1.32 8.3-1.75s5.62-.73 8.45-.9c3.1-.33 6.22-.53 9.35-.6 2.73-.07 5.52 0 8.35.2 3.1.07 6.18.48 9.25 1.25 2.8.73 3.67 2.38 2.6 4.95"/><path d="M222.75 133.5c2.87.07 5.68.43 8.45 1.1 1.07-2.57.2-4.22-2.6-4.95-3.07-.77-6.15-1.18-9.25-1.25-2.83-.2-5.62-.27-8.35-.2-3.13.07-6.25.27-9.35.6-2.83.17-5.65.47-8.45.9s-5.57 1.02-8.3 1.75c-2.77.73-5.25 2-7.45 3.8l2.15 2.4c4.4-1.5 8.87-2.58 13.4-3.25 3.67-.67 7.33-1.02 11-1.05 3.03 0 6.03-.03 9-.1 3.27-.1 6.52-.02 9.75.25" style="fill:#d6dee8"/></g><g id="g"><g id="h"><path d="M144.05 118.7v-.05c.17-.3.32-.62.45-.95.33 1.7.77 3.33 1.3 4.9 1.17 3.17 2.78 5.68 4.85 7.55 2.53 2.27 5.57 3.42 9.1 3.45q4.605.045 9.3-2.85c3.63-2.3 6.63-5.67 9-10.1 2.3-4.4 3.53-9.08 3.7-14.05v-1.65c.03-.6.07-1.25.1-1.95l-1.25-10.25-82.8 20.4-12.3 10.6c-.4.87-.73 1.68-1 2.45.03.07.08.13.15.2-.03.07-.05.12-.05.15-.3.5-.6 1.23-.9 2.2-.8 2.3-1.15 4.17-1.05 5.6.03.27.05.52.05.75.1 0 .18-.03.25-.1q-.15.495-.15.9c.93.07 6.15-3.13 15.65-9.6.3-.03.57-.05.8-.05.37 3 1.1 5.95 2.2 8.85q1.35 3.405 2.85 5.4c2.43 3.23 5.67 5.12 9.7 5.65.67.07 1.38.12 2.15.15 2.73-.03 5.6-.72 8.6-2.05 5.13-2.37 9.5-6.23 13.1-11.6 2.63-3.93 4.52-8.13 5.65-12.6.03-.17.1-.3.2-.4.1-.23.22-.55.35-.95m14.8.35c3.53-8.07 6.43-14.45 8.7-19.15l10.05-2.8v.35c-2.27 3.6-5.27 9.18-9 16.75l-1.55 3.15c-1.73 3.57-3.22 6.72-4.45 9.45q-.405.795-.6 1.5c-1.43.3-2.87.33-4.3.1-.9-.17-1.75-.43-2.55-.8.6-1.5 1.38-3.3 2.35-5.4zm-30.9 2.6c-1.77 3.03-4.55 8.17-8.35 15.4-.7 1.43-1.18 2.53-1.45 3.3-.07.17-.17.38-.3.65-1.33.2-2.67.25-4 .15-2.23-.17-4.05-.85-5.45-2.05l6.05-9.75c4.07-6.43 7.68-12.52 10.85-18.25l10.85-2.75c-2.9 4.3-5.63 8.73-8.2 13.3"/><path d="M119.6 137.05c3.8-7.23 6.58-12.37 8.35-15.4 2.57-4.57 5.3-9 8.2-13.3l-10.85 2.75c-3.17 5.73-6.78 11.82-10.85 18.25l-6.05 9.75c1.4 1.2 3.22 1.88 5.45 2.05 1.33.1 2.67.05 4-.15.13-.27.23-.48.3-.65.27-.77.75-1.87 1.45-3.3m47.95-37.15c-2.27 4.7-5.17 11.08-8.7 19.15l-1.35 3.15c-.97 2.1-1.75 3.9-2.35 5.4.8.37 1.65.63 2.55.8 1.43.23 2.87.2 4.3-.1q.195-.705.6-1.5c1.23-2.73 2.72-5.88 4.45-9.45l1.55-3.15c3.73-7.57 6.73-13.15 9-16.75v-.35z" style="fill:#686f7d"/></g></g><g id="i"><path d="M86.25 84.8c.53-.73 1.05-1.43 1.55-2.1q2.55-3.6 4.2-6.6c.83-1.53 1.02-2.73.55-3.6-14.53 11.9-27.03 29.58-37.5 53.05-4.9 11.03-8.45 21.15-10.65 30.35-2.03 8.77-3.43 19.2-4.2 31.3-.27 4.9-.3 8.88-.1 11.95.27 4.37 1.05 8.22 2.35 11.55.97 2.47 2.22 3.98 3.75 4.55 2.03.77 4.6-.2 7.7-2.9l8.95-7.8c3.13-2.77 5.43-4.95 6.9-6.55 2.37-2.63 4.03-5.27 5-7.9.8-2.13 1.3-4.67 1.5-7.6.07-.87.12-3.5.15-7.9.1-15.87 2.95-31.18 8.55-45.95.77-2 1.25-3.55 1.45-4.65.03-.3.07-.58.1-.85.13-1.4-.05-2.65-.55-3.75-.43.67-.85 1.35-1.25 2.05-4.03 6.8-7.23 14.02-9.6 21.65-2.6 8.43-4.07 17-4.4 25.7-.27 7.03-.47 11.07-.6 12.1-.53 4.53-1.73 8.25-3.6 11.15-1.3 2-3.53 4.35-6.7 7.05-3.8 3.3-7.67 6.57-11.6 9.8q-1.95-3.405-2.55-8.1c-.33-2.3-.45-5.2-.35-8.7.43-17.77 3.63-35.18 9.6-52.25 5.93-17.07 14.27-32.68 25-46.85 1.6-2.03 2.97-3.78 4.1-5.25.9-1.17 1.65-2.15 2.25-2.95"/><path d="M87.85 82.9c0-.07-.02-.13-.05-.2-.5.67-1.02 1.37-1.55 2.1-.6.8-1.35 1.78-2.25 2.95-1.13 1.47-2.5 3.22-4.1 5.25-10.73 14.17-19.07 29.78-25 46.85-5.97 17.07-9.17 34.48-9.6 52.25-.1 3.5.02 6.4.35 8.7q.6 4.695 2.55 8.1c3.93-3.23 7.8-6.5 11.6-9.8 3.17-2.7 5.4-5.05 6.7-7.05 1.87-2.9 3.07-6.62 3.6-11.15.13-1.03.33-5.07.6-12.1.33-8.7 1.8-17.27 4.4-25.7 2.37-7.63 5.57-14.85 9.6-21.65.4-.7.82-1.38 1.25-2.05.5 1.1.68 2.35.55 3.75.03-.03.07-.05.1-.05.03-.07.07-.13.1-.2.07-.07.12-.13.15-.2s.07-.13.1-.2v-.2c0-.07.02-.13.05-.2s.05-.13.05-.2v-.2c.03-.07.07-.13.1-.2v-.4c0-.07.02-.13.05-.2v-3.25c0-.07-.02-.13-.05-.2.03-.07.05-.13.05-.2v-.6c0-.07.02-.13.05-.2v-4.8c.03-.07.05-.13.05-.2v-1c0-.07.02-.13.05-.2v-.4c0-.07.02-.13.05-.2v-5.25c0-.07-.02-.13-.05-.2.03-.07.05-.13.05-.2.03-.07.05-.13.05-.2v-4c.03-.07.05-.13.05-.2V99c.03-.07.07-.13.1-.2v-.45c0-.07.02-.13.05-.2v-2.8c.03-.07.07-.13.1-.2v-1c.03-.07.05-.13.05-.2v-1.6c0-.07-.02-.13-.05-.2V88.5c0-.07.02-.13.05-.2v-1.6c0-.07.02-.13.05-.2v-2.6c.03-.07.07-.13.1-.2v-.6c-.03-.07-.07-.13-.1-.2" class="l"/></g><g id="j"><g id="k"><path d="M88.9 47.75c-.68 1.37-1.35 3.24-1.99 5.63-1.25 4.52-2.25 9.21-3.01 14.05-.51 2.64-.71 4.89-.63 6.77a.4.4 0 0 0-.11-.06Q72.945 72.61 63.54 73l-5.46.45c-2.38.38-3.86.66-4.44.85-.58.12-1.54.4-2.9.85-1.39.45-2.66 1.56-3.81 3.36-.3.3-.43.68-.4 1.14-.04.04-.04.1 0 .17-.07 1.56 1.39 3.42 4.38 5.57 1.91 1.33 4.41 2.55 7.51 3.64 10.34 3.8 20.37 5.85 30.08 6.14.28.04.57.08.85.11 3.36.27 6.72.41 10.07.4 1.78-.04 3.56-.11 5.35-.23 5.68-.67 11.26-1.81 16.72-3.41 5.87-1.64 11.72-3.18 17.57-4.61 2.03-.49 4.4-1.08 7.11-1.76.52 3.39.96 6.16 1.31 8.3l.11.8c5.77-1.62 11.5-3.4 17.17-5.35 1.78-.63 3.54-1.27 5.29-1.93.75-.31 1.49-.62 2.22-.91 4.4-1.79 7.59-3.33 9.55-4.61 1.37-.94 2.13-1.85 2.27-2.73v-.51c0-.3-.06-.59-.17-.85-.15-.15-.28-.3-.4-.45-.41-.37-.82-.67-1.25-.91-1.98-1-3.97-1.83-5.97-2.5q-2.07-.6-4.38-1.02c-2.66-.51-6.33-.93-11.03-1.25-3.43-.22-6.15-.28-8.13-.17-.5.03-2.38.08-5.63.17.24-.02.48-.06.74-.11q-.27.03-.51.06c.2-1.54.41-2.76.63-3.64 2.01-9.04 3.22-18.08 3.64-27.13.11-2.85-.02-5.19-.4-6.99-.52-2.54-1.53-4.48-3.01-5.8-1.86-1.49-4.32-2.23-7.39-2.22-.76.02-1.55.08-2.39.17q-12.795 1.56-27.69 14.67c-1.76 1.6-3.11 2.62-4.04 3.07-1.82.9-3.43 1-4.83.28-.45-.23-1.04-.66-1.76-1.31-.69-.67-1.26-1.13-1.71-1.36-.88-.39-1.91-.41-3.07-.06-1.02.28-1.99.77-2.9 1.48-1.4 1.21-2.57 2.84-3.53 4.89m-.41 15.18.85-4.38c.68-3.35 1.38-5.92 2.1-7.73 1.29-2.8 3.01-4.83 5.17-6.08 1.26 1.45 2.85 2.48 4.78 3.07 1.89.62 3.73.61 5.52-.06 1.37-.5 3.16-1.73 5.35-3.7 5.24-4.54 9.66-7.82 13.25-9.84 5.4-2.94 10.51-4.44 15.35-4.49 2.03-.04 3.52.3 4.49 1.02 1.6 1.15 2.47 3.44 2.62 6.88.15 4.15-.17 9.02-.97 14.61-.27 1.84-.54 3.53-.8 5.06l-4.95 1.76c-.24.08-1.35.29-3.36.63q-1.68.27-3.36.63c-15.11 2.48-30.47 3.35-46.06 2.62m46.03-.34c.41-.11.79-.21 1.14-.28 1.06-.2 2.08-.43 3.07-.68l5.8-1.54c.06-.05.09-.09.11-.11.2-.09.43-.19.68-.28l.57-.17c-.52 2.94-.94 5.33-1.25 7.17-.28 2.12-.36 3.88-.23 5.29-7.56 1.88-16.2 3.05-25.93 3.53-4.75.25-10.63.32-17.63.23-3.44-.04-8.43-.12-14.96-.23.1-.22.19-.48.28-.8l1.99-10.18c.45.1.96.18 1.54.23 10.89.85 23.35.47 37.36-1.14 2.92-.35 5.4-.7 7.45-1.02m36.69 14.2c.69 0 1.39.03 2.1.11q1.665.18 3.36.63c1.47.33 2.53.8 3.18 1.42.17.13.3.27.4.4l.06.06h-.06q.135.255.06.51c-.1.32-.44.57-1.02.74l-3.3 1.36L148.5 92.5h-.06v-.06c0-.53-.15-1.29-.45-2.27l-.06-1.88c0-.13-.1-.68-.28-1.65-.07-.47-.18-.89-.34-1.25.8-.22 1.63-.45 2.5-.68 3.33-.9 6.19-1.68 8.59-2.33.16-.06.31-.09.45-.11q.735-.03 6.54-1.14c1.44-.22 3.04-.41 4.78-.57 1.6-.16 3.02-.28 4.26-.34.54-.02.86-.04.97-.06.41-.14.64-.37.68-.68.04-.3-.06-.57-.28-.8-.11-.07-.23-.14-.34-.23-.78-.17-1.59-.3-2.45-.4-.56 0-1.17.05-1.82.17-1.02.04-2.55.21-4.61.51q-1.425.21-2.67.51c-.21-.08-.46-.09-.74-.06-5.22.54-12.89 1.94-23.03 4.21l-22.52 5.12c-2.63.77-5.25 1.39-7.85 1.88-5.75.88-11.53 1.2-17.34.97-1.14-.09-2.31-.18-3.53-.28-3.21-.36-8.63-1.34-16.26-2.96-4.66-1.02-7.86-1.76-9.61-2.22-3.56-1.01-6.58-2.24-9.04-3.7-.65-.38-1.12-.78-1.42-1.19-.3-.19-.55-.38-.74-.57-.19-.14-.32-.27-.4-.4l-.23-.85c.09-.13.18-.25.28-.34.26-.25.72-.46 1.36-.63 4.3-1.2 9.64-1.83 16.04-1.88 4.98.07 9.05.07 12.23 0 .24 0 .46.02.68.06q.18.33 1.08.45c4.01.79 9.53 1.19 16.55 1.19 7.87.06 14.31-.03 19.33-.28 6.93-.38 13.21-1.08 18.82-2.1 1-.2 1.99-.41 2.96-.63l15.98.51c4.94.15 9.83.57 14.67 1.25M103.34 54.8c-1.66-.91-2.85-2.16-3.58-3.75-.31-.59-.58-.91-.8-.97a.89.89 0 0 0-.68.23c-.25.21-.41.44-.45.68-.06.4.09.87.45 1.42.78 1.45 1.92 2.69 3.41 3.7 2.3 1.62 5.09 2.35 8.36 2.22 2.75-.1 5.63-.86 8.64-2.27 2.7-1.26 4.66-2.77 5.86-4.55.72-1.12 1.14-2.32 1.25-3.58.08-1.35-.24-2.49-.97-3.41-.17-.17-.32-.25-.45-.23-.16.02-.27.15-.34.4-.11.56-.17 1.34-.17 2.33 0 1.02-.06 1.78-.17 2.27-.3.95-.93 1.82-1.88 2.62q-1.035.915-2.79 1.71c-3.84 1.98-7.33 2.89-10.46 2.73-1.87-.1-3.62-.61-5.23-1.54Z"/><path d="M148.44 92.5h.06l-.06-.06zm24.85-15.58c-.71-.09-1.41-.12-2.1-.11-4.84-.68-9.73-1.1-14.67-1.25l-15.98-.51c-.97.22-1.95.43-2.96.63-5.61 1.03-11.89 1.73-18.82 2.1-5.02.25-11.47.35-19.33.28-7.02 0-12.54-.4-16.55-1.19q-.9-.12-1.08-.45c-.22-.04-.45-.06-.68-.06-3.17.07-7.25.07-12.23 0-6.39.05-11.74.67-16.04 1.88-.65.16-1.1.37-1.36.63-.1.09-.2.21-.28.34l.23.85c.08.12.21.26.4.4.19.19.44.38.74.57.3.42.77.82 1.42 1.19 2.47 1.45 5.48 2.69 9.04 3.7 1.75.46 4.95 1.2 9.61 2.22 7.63 1.61 13.05 2.6 16.26 2.96 1.21.1 2.39.2 3.53.28 5.81.24 11.59-.09 17.34-.97 2.6-.48 5.21-1.11 7.85-1.88l22.52-5.12c10.14-2.27 17.81-3.67 23.03-4.21.28-.04.53-.02.74.06q1.26-.3 2.67-.51c2.06-.3 3.59-.47 4.61-.51.65-.12 1.26-.18 1.82-.17.85.09 1.67.23 2.45.4.11.09.23.16.34.23.22.23.32.49.28.8s-.27.54-.68.68l.57 1.88 3.3-1.36c.58-.17.92-.42 1.02-.74q.09-.255-.06-.51h.06l-.06-.06c-.1-.13-.23-.27-.4-.4-.65-.62-1.71-1.09-3.18-1.42q-1.695-.435-3.36-.63M89.35 58.55l-.85 4.38c15.6.74 30.95-.13 46.06-2.62q1.68-.36 3.36-.63 3-.51 3.36-.63l4.95-1.76c.26-1.54.52-3.22.8-5.06.8-5.6 1.12-10.47.97-14.61-.15-3.44-1.02-5.73-2.62-6.88-.97-.72-2.47-1.07-4.49-1.02-4.84.05-9.96 1.55-15.35 4.49-3.59 2.02-8.01 5.3-13.25 9.84-2.19 1.97-3.97 3.2-5.35 3.7q-2.67.99-5.52.06c-1.93-.59-3.52-1.62-4.78-3.07-2.16 1.25-3.89 3.28-5.17 6.08-.72 1.81-1.42 4.39-2.1 7.73m10.39-7.5c.73 1.6 1.92 2.85 3.58 3.75 1.61.92 3.36 1.43 5.23 1.54 3.14.16 6.62-.75 10.46-2.73q1.755-.78 2.79-1.71c.95-.8 1.58-1.67 1.88-2.62.11-.49.17-1.25.17-2.27 0-.99.06-1.77.17-2.33.07-.25.18-.38.34-.4.13-.02.29.06.45.23.72.93 1.04 2.06.97 3.41-.11 1.27-.53 2.46-1.25 3.58-1.2 1.78-3.15 3.29-5.86 4.55-3.01 1.41-5.89 2.17-8.64 2.27-3.27.14-6.06-.6-8.36-2.22-1.49-1.01-2.63-2.24-3.41-3.7-.37-.55-.52-1.02-.45-1.42.05-.25.2-.47.45-.68.19-.17.42-.25.68-.23.22.06.48.38.8.97Z" style="fill:#5a5f6b"/><path d="M175.39 80.16c-.11.02-.43.04-.97.06-1.24.07-2.67.18-4.26.34-1.74.16-3.33.35-4.78.57q-5.805 1.095-6.54 1.14c-.14.02-.29.06-.45.11-2.4.65-5.26 1.43-8.59 2.33-.87.24-1.7.46-2.5.68.16.36.27.78.34 1.25.19.97.28 1.52.28 1.65l.06 1.88c.3.98.45 1.74.45 2.27l.06.06 27.47-10.46zm-39.75-17.85c-.35.08-.73.17-1.14.28-2.05.33-4.53.67-7.45 1.02-14.01 1.61-26.47 1.98-37.36 1.14-.58-.05-1.09-.12-1.54-.23L86.16 74.7c-.09.31-.19.58-.28.8 6.53.11 11.51.19 14.96.23 7 .1 12.88.02 17.63-.23 9.73-.47 18.37-1.65 25.93-3.53-.13-1.41-.05-3.17.23-5.29.31-1.84.73-4.23 1.25-7.17l-.57.17c-.26.09-.48.19-.68.28-.02.03-.06.07-.11.11l-5.8 1.54c-.99.26-2.01.48-3.07.68Z" style="fill:#3c414c"/></g></g></svg>