<svg xmlns="http://www.w3.org/2000/svg" id="a" viewBox="0 0 253 291.35"><defs><style>.c{fill:#926f7e}.d{fill:#5a5f6b}.e{fill:#25293b}.g{fill:#a0b0bb}.j{fill:#686f7d}.k{fill:#6e4959}</style></defs><path d="m141.59 255.52-.06-.27s-.03-.07-.05-.09c-.12-.16-.3-.29-.52-.38a1 1 0 0 0-.24-.04h-.03l-.37.45c-.21.25-.41.54-.6.85-1.3 2.95-2.16 6-2.53 9.1-.07.67-.1 1.34-.1 2.04 1.83-.21 3.63-.47 5.42-.79.07-.79.1-1.54.09-2.29 0-2.44-.34-5.33-1.01-8.6Z" class="e"/><path d="M192.84 214.93c-.52-2.72-1.55-7.55-3.07-14.36l8.23-4.53-.65-.68c-1.57-1.64-3.72-2.95-6.37-3.88-2.28-.84-5.48-1.6-9.5-2.27-.12-.04-.24-.07-.33-.07h-.02c-5.73-.74-10.32-1.11-13.67-1.11h-.44c-1.45.04-3.62.12-6.43.25-.36 0-.71.02-1.03.05l-1.17.13.65.98c.33.49.64.99.92 1.5q.81 1.485.81 2.61c0 1.24-.6 2.39-1.83 3.53-.79.75-2.13 1.68-4 2.74l-11.92 6.74.74.67c.69.62 1.72 1.4 3.07 2.31 1.41.98 2.42 1.73 3 2.21 2.22 1.85 3.54 3.78 3.9 5.72.27 1.51 0 3.17-.79 4.91-.58 1.22-1.58 2.81-2.98 4.74l-20.88 28.7h-.58v.16l.2.73c.19.76.35 1.75.48 2.94.23 2.47.43 5.18.59 8.05 2.48-.09 4.93-.26 7.34-.54 0-.7.04-1.38.1-2.04.37-3.1 1.23-6.15 2.53-9.1.06-.14.11-.27.17-.41.26-.62.5-.78.64-.85.05-.03.11-.04.17-.04h.03c.08 0 .17.02.24.04.21.08.39.22.52.38.01.02.03.06.05.09.15.25.34.73.54 1.68.57 3.42.76 6.53.58 9.27v.18c8.78-1.58 17.1-4.47 24.96-8.69.58-5.82 1.01-11 1.28-15.38.13-2.02.25-7.5.35-16.74.1-10.46-.01-17.78-.33-21.77l.1-.04s.08.01.13.04c0 0 .19.1.46.67.58 1.44 1.03 3.48 1.35 6.06.83 7.23 1.2 15.21 1.1 23.72 0 1.91-.01 3.05-.03 3.72l-.04-.02-.03 1.13c-.03 1.09-.08 2.2-.15 3.34-.17 3.75-.45 8.08-.85 12.87l-.04.52c8.44-5.01 16.33-11.61 23.66-19.77-.09-2.71-.2-5.23-.33-7.48-.33-5.37-.81-9.95-1.41-13.64Z" class="d"/><path d="m128.51 256.01-.01-.17-.02-.27s-.75-.33-.78-.34c-8.19-4.61-14.63-8.47-19.15-11.47-6.79-4.52-12.59-9.2-17.24-13.91-3.62-3.62-5.3-6.92-4.99-9.82.18-1.71 1.22-3.66 3.08-5.81 2.69-3.17 4.21-5.09 4.63-5.87l.44-.81-13.24-3.48c-2.42-.64-4.19-1.31-5.26-1.97-1.8-1.1-2.82-2.41-3.12-4.04-.13-.6-.11-1.25.05-1.94.06-.07.13-.15.19-.23 1.39-1.39 1.91-1.86 2.1-2.01l.04-.04.04-.04c.48-.51 1.17-1.17 2.05-1.95.25-.22.51-.43.76-.62l2.18-1.63-2.7.34c-7.06.9-13.49 2.01-19.12 3.31-7.74 1.77-14.9 4.04-21.26 6.73-1.08.43-1.68.97-1.82 1.61-.23.77-.11 1.93 1.82 3.08l4.99 2.99c.71.45 1.04.75 1.2.92l.48.6.22-.22.97.82.04.15.02.05q.27.675.15 1.68c-.27 1.98-.52 3.93-.76 5.89 3.33 5.49 7.12 10.76 11.39 15.79 4.19 4.94 8.57 9.34 13.13 13.21.52-2.15 1.98-8.22 2.8-11.6l.13.13.28-1.27c.73-3.25 1.59-6.71 2.55-10.3.08-.36.17-.63.26-.85.26.68.39 1.5.41 2.44v.27c-.03.89-.21 2.12-.53 3.67-.6 2.77-2.88 13.23-2.88 13.23l.02.13c.42 2.59.78 5.09 1.09 7.46q23.505 17.91 53.28 17.91c.93 0 1.85-.02 2.77-.04v-.02c-.18-4.13-.4-8.08-.67-11.73Z" class="d"/><path d="M102.48 58.14c-3.49 0-7.6-.1-12.22-.31-.79-.07-1.54-.12-2.3-.15-1.54-.07-3.37-.17-5.51-.3l-7.75-.45-.94-.05.3-.89c.06-.18.12-.41.18-.68l1.73-9.88.75.19c.37.09.8.17 1.27.23 4.94.56 10.37.84 16.12.84 5.41 0 11.26-.25 17.38-.75 2.67-.23 4.96-.48 6.81-.75l1.07-.2c.96-.17 1.89-.35 2.77-.54l5.26-1.27c.07-.04.15-.07.22-.08q.255-.09.54-.21l1.65-.5-.15 1.11c-.37 2.73-.65 4.96-.85 6.69-.19 1.89-.21 3.5-.05 4.78l.08.66-.66.13c-1.34.27-2.7.53-4.11.8-1.86.3-3.79.56-5.76.76-4.46.5-9.3.77-14.37.8h-1.46Z" class="e"/><path d="M108.16 158.93c-3.31-1.4-6.8-3.15-10.38-5.19-.44-.27-.86-.51-1.29-.74l-.74-.4.51-.67c2.51-3.26 4.27-5.73 5.26-7.34 1.26-2.07 2.94-4.6 5-7.52-3-.29-3.75-.43-4.04-.51-5.79-.93-11.62-3.23-17.24-6.84-3.56-2.28-7.03-5.09-10.32-8.34l-.22-.22v-.31c.04-2.38.16-4.54.36-6.42 0-.27.03-.65.11-1.05l.06-.33.29-.17c2.21-1.28 6.06-3.83 11.45-7.57l.15-.1.18-.02c.3-.04.56-.06.79-.06h.63l.08.63c.32 2.57.97 5.13 1.91 7.64.77 1.88 1.58 3.41 2.4 4.52 2.03 2.69 4.65 4.2 8.01 4.61l1.85.1c2.24-.03 4.69-.63 7.21-1.79 4.35-2.06 8.12-5.44 11.2-10.05 2.24-3.38 3.88-7.04 4.85-10.88.05-.19.13-.37.25-.53.06-.19.13-.4.23-.63v-.03l.08-.2c.13-.26.26-.53.39-.82l.92-2.06.44 2.22c.29 1.46.67 2.87 1.12 4.21.95 2.66 2.31 4.78 4.04 6.29 2.09 1.88 4.62 2.82 7.53 2.82 2.52 0 5.13-.84 7.77-2.49 2.72-1.76 5.07-4.24 6.97-7.36l.18-.3.35-.04c.91-.1 1.64-.17 2.18-.2 3.49-.26 7.05-.6 10.56-1 2.92-.24 5.9-.44 8.89-.6 2.32-.17 4.76-.33 7.29-.5 2.95-.27 5.96-.47 8.92-.6a46.512 46.512 0 0 1 6.84.1c.08 0 .26-.01.43-.01 4.39 0 7.08 2.31 7.77 6.67.17.99.3 2 .41 2.99l.16 1.56-1.29-.89c-.86-.6-1.88-1.28-3.04-2.04-.16-.12-.26-.19-.35-.25l-.31-.2v-.37c-.05-1.19-.19-1.47-.2-1.5-.2-.31-.89-.93-3.25-1.48-1.08-.25-3-.42-5.7-.48-.84-.03-1.67-.04-2.49-.04-1.91 0-3.82.08-5.68.24-2.71.2-4.56.33-5.56.4-4.93.26-8.65.6-11.08.99-2.44.36-3.98.63-4.58.79-.71.14-2.57.56-5.57 1.26-2.73.61-4.5 1.74-5.26 3.36l-.13.27-.28.1c-.34.12-.7.28-1.07.47l-.15.08h-.17s-.15.04-.36.2l-.05.04-.06.03c-1.86.98-4.53 2.77-7.95 5.34-3.67 2.75-6.56 4.96-8.58 6.58-3.15 2.63-5.95 5.26-8.32 7.83-1.54 1.67-3.12 3.59-4.7 5.69l-.36.48-.54-.27c-.38-.19-.82-.38-1.29-.58-2.07-.72-3.21-1.12-3.41-1.19-.85-.4-1.32-.63-1.47-.69-.22-.05-.42-.08-.58-.08-.13 0-.24.02-.31.05-.07.09-.13.21-.16.34 0 .04-.01.06.04.13l.04.05.03.05s.11.08.41.21l5.39 2.15c.07.01.25.07.45.15l.88.35-.58.75c-.65.85-1.3 1.77-1.91 2.75-1.15 1.65-2.61 3.82-4.36 6.46l-.27.4-.72-.15c-1.98-.47-2.56-.57-2.73-.59-.79-.11-1.55-.16-2.29-.16H110c.69.39 1.57.75 2.64 1.05.46.13 1.02.28 1.68.44l1 .25-.58.85c-.75 1.11-1.55 2.38-2.38 3.77-1.42 2.28-2.52 4.23-3.27 5.79l-.3.62z" class="c"/><path d="M53.49 176.97c-.43 0-.83-.09-1.17-.26-.7-.33-1.33-1-1.91-2.04-1.94-3.37-3.12-8.48-3.49-15.16-.83-13.94.69-28.72 4.52-43.92 1.36-5.53 3.17-11.57 5.37-17.96.79-2.41 1.89-5.53 3.25-9.26 1.12-2.53 2.31-4.85 3.56-6.97 1.12-1.77 2.32-3.44 3.56-4.99.94-1.17 1.93-2.31 2.94-3.39l.27-.29.38.07c2.2.39 4.43.69 6.64.89.29.04.57.1.86.17 4.26.61 8.65.93 12.97.93h.65c5.09-.36 10.2-1.16 15.13-2.38 5.43-1.27 10.96-2.45 16.44-3.51 1.15-.26 2.49-.54 3.96-.8l.71-.13.13.71c.23 1.31.49 3 .75 5.03.27 3.3.55 6.56.85 9.83l.06.61-42.73 10.86-11.28 9.8q-.405.96-.66 2.37l-.41 1.78-.15.73-.05.29-.1.39c-.01.15-.03.29-.05.43l-.16.75c-.43 2-.78 4.03-1.04 6.04l-.3 2.3c-.49 4-.76 7.91-.79 11.66v1.04c0 1.78.13 4.82.4 9.05.23 4.07.33 7.3.3 9.61-.03 4.4-.57 7.86-1.61 10.27-.58 1.41-1.46 2.89-2.59 4.4-3.63 4.75-8 8.26-12.99 10.43-.84.4-1.58.6-2.24.6ZM117.45 198.8l-.07-.03-.05-.04c-3.08-2.45-5.43-4.3-6.99-5.49-2.72-2.1-5.18-3.76-7.31-4.94-.61-.34-1.13-.65-1.55-.93l-.27-.18-.04-.32c-.2-1.43-.39-2.95-.55-4.52l-.23-1.39h.13q-.3-2.46-.6-5.31c-.33-2.93-.62-5.48-.85-7.65-.1-.65-.3-2.81-.6-6.57l-.11-1.32 1.17.63c.43.23.87.46 1.33.69 5.59 2.7 11.47 4.87 17.46 6.45 3.2.89 6.46 1.57 9.72 2.03l.62.09v.63c-.04 4.74-.07 7.97-.1 9.71l-.11 5.38-8.89 11.74-1.51 1.96-.6-.61Z" class="c"/><path d="M127 226.29c-1.05-2.07-2.08-4.18-3.04-6.27q-.615-.9-1.2-1.74h-.79l.29-.74c-.42-.61-.84-1.19-1.26-1.75l-.25-.33.46-1.08c.03-.07.07-.13.1-.19l.04-.17c.43-1.2 1.05-3.04 1.84-5.48l1.16-3.67 3.85 2.94.15 18.15-1.36.33ZM123.32 203.1c-1.6-1.13-2.97-2.12-4.11-2.96l-.6-.44.46-.58c3.41-4.36 6.11-7.97 8.03-10.72l1.31-1.88v4.34l-.1 5.71c-.03 2.86-.05 5.74-.05 8.64v1.39l-4.94-3.51ZM109.83 209.96c-2.86-6.38-5.62-12.95-8.21-19.53l-.04-.09-.31-3.09 1.42 1.4c2.46 1.66 6.73 4.97 12.75 9.85.51.44 1 .85 1.5 1.25l.54.43-.42.56c-1.05 1.41-1.9 2.61-2.52 3.56-1.05 1.58-2.21 3.5-3.42 5.7l-.7 1.26-.59-1.32ZM110.52 211.4l3.55-5.48.61.88c.83 1.19 2.43 3.52 4.8 6.97l.07.04.11.19c.22.38.48.79.77 1.2l.12.17.06 1.99v.07c-.58 3.11-1.11 6.3-1.61 9.48l-.37 2.38-8.11-17.91Z" class="g"/><path d="M92.7 46.23c-5.3 0-10.67-.22-15.97-.65l-.79-.06.84-4.73c.54-3 1.14-5.35 1.79-6.99 1.13-2.65 2.71-4.57 4.71-5.71l.52-.3.39.46c1.04 1.23 2.36 2.11 3.93 2.63.82.28 1.62.43 2.38.43.71 0 1.42-.12 2.1-.37 1.12-.37 2.61-1.4 4.46-3.06 4.62-4.05 8.6-7.01 11.83-8.79 4.92-2.68 9.73-4.04 14.3-4.04 2.04 0 3.55.37 4.62 1.13 1.7 1.18 2.72 3.5 3 6.88.33 3.83.23 8.41-.3 13.63-.2 1.72-.4 3.3-.6 4.77l-.06.45-4.98 1.64c-.21.06-.75.17-3.27.53-1.04.13-2.06.28-3.09.45-8.56 1.13-17.23 1.71-25.8 1.71Zm-7.08-11.89c-.07.07-.07.1-.07.12-.01.06-.04.27.3.82.7 1.23 1.67 2.3 2.91 3.2 1.88 1.37 4.14 2.07 6.72 2.07h.34c2.4 0 4.91-.59 7.47-1.74 2.33-1.04 4.01-2.31 5-3.79.55-.87.85-1.84.88-2.87q.03-1.11-.36-1.95c-.01.3-.01.65 0 1.04.04 1.01 0 1.74-.12 2.24-.28 1.03-.89 1.95-1.83 2.78-.65.58-1.56 1.12-2.69 1.62-3.07 1.52-5.99 2.3-8.65 2.3-.37 0-.74-.01-1.1-.04-1.8-.14-3.48-.66-5-1.55-1.63-.98-2.82-2.26-3.54-3.82-.11-.21-.2-.34-.26-.43M129.47 251.51c.3-3.78.67-8.18 1.1-13.06.16-7.95.28-19.05.35-32.94l.1-23.93 2.79.9c.93.33 4.19 1.25 9.71 2.74 3.98 1.08 7.1 2.28 9.28 3.58 1.49.9 2.73 1.89 3.67 2.94l1.23 1.35v.28c0 .27-.04.55-.13.85-.28.79-.94 1.45-2.04 2.08-3.87 2.38-8.13 4.78-12.63 7.11-1.69.86-2.64 1.75-2.83 2.66-.21 1.09.64 2.39 2.53 3.83l5.79 4.35c1.69 1.39 2.65 2.57 2.96 3.62.32 1.25-.02 2.8-1.05 4.79-1.94 3.72-5.19 8.71-9.66 14.84-4.8 6.52-8.11 11.37-9.86 14.43l-1.34-.41ZM127.52 253.74c-8.73-5.11-14.9-8.86-18.33-11.12-7.31-4.87-13.43-9.87-18.17-14.85-2.1-2.24-3.22-4.2-3.44-6.01-.22-1.62.22-3.34 1.3-5.11.69-1.14 1.84-2.5 3.41-4.04 1.4-1.34 2.32-2.49 2.75-3.43.28-.64.39-1.28.34-1.89-.03-.74-.23-1.29-.62-1.74-.32-.35-1.13-.88-3.23-1.38-4.41-1-8.59-2.19-12.42-3.52-1.8-.65-2.85-1.44-3.23-2.42-.1-.25-.15-.5-.15-.76v-.27l2.68-3.01c.9-.87 2.56-2.18 5.11-4.05 2.31-1.73 3.74-2.75 4.38-3.1.29-.15.99-.5 2.12-1.09l-.02-.07c2.1-1.14 4.4-2.24 6.81-3.28l.89-.38.11.96c.2 1.71.39 3.47.59 5.28.13.38.25.78.38 1.19 8.17 20.03 13.8 33.19 16.71 39.04 2.38 4.79 6.76 12.89 13.03 24.07l1.3 2.31-2.29-1.34ZM88.05 72.14c-2.45 0-4.93-.12-7.38-.35-1.06-.14-2.12-.29-3.19-.46-1.05-.17-2.38-.44-3.95-.81-1.27-.3-2.72-.65-4.36-1.05-1.81-.47-3.83-1-6.07-1.6-4.03-1.1-6.84-1.91-8.34-2.41-3.09-1.09-5.73-2.36-7.87-3.78-.59-.38-1.05-.8-1.37-1.24-.22-.16-.42-.33-.59-.5q-.24-.24-.42-.48l-.1-.13-.23-1.15.11-.22c.1-.21.21-.36.33-.49.37-.32.86-.53 1.54-.69 3.08-.8 6.91-1.21 11.35-1.21.79 0 1.61.01 2.44.04 4.29.27 7.84.42 10.59.45h.05l1.02.17.16.31c.02 0 .15.07.45.15 2.04.49 4.58.88 7.54 1.18 2.01.2 4.27.37 6.72.5h.26c6.5.33 12 .5 16.36.5h1.18c5.91-.07 11.39-.44 16.31-1.1a9 9 0 0 0 1.02-.15c.94-.17 1.87-.32 2.77-.45h.08l15.38 1.09c4.83.33 9.72.94 14.53 1.81.6.02 1.33.11 2.06.25 1.12.17 2.29.41 3.45.71 1.6.44 2.76 1 3.55 1.71.16.13.33.29.46.46l1.2 1.2-.95.03c-.1.43-.45.96-1.48 1.2l-3.23 1.13-.89-2.53-.15-.53.08-.22s-.05-.11-.09-.15a.4.4 0 0 0-.11-.08c-.72-.18-1.49-.34-2.29-.46h-.47c-.37 0-.75.02-1.15.06-1.03.04-2.53.15-4.5.35-.91.1-1.77.21-2.55.34l-.18.03-.17-.06c-.13-.04-.29-.06-.47-.06-3.85.23-9.17.9-15.78 1.99-1.27.2-2.58.42-3.95.65l-2.19.4-20.9 3.85c-2.38.6-4.83 1.05-7.24 1.36-2.79.3-5.6.46-8.38.46Z" class="d"/><path d="m140.23 166.59.33-.95c.05-.15.13-.29.22-.41.16-.36.29-.69.37-.97l.02-.06.02-.03v-.04c.15-.5.17-.96.07-1.4-.7.52-1.39 1.29-2.06 2.29l-.59.86-.05.05-.17.36-.54.05c-2.04-.17-4.33-.46-6.81-.86-3.27-.5-5.93-.99-7.9-1.46-2.64-.6-5.67-1.47-9.01-2.57-1.13-.37-2.29-.77-3.43-1.21l-.74-.28.46-.92.2-.39h.07c2.05-3.65 3.99-6.91 5.76-9.71l.26-.42 3.33.64c.32.09.56.13.75.13.12 0 .23-.02.31-.05.07-.03.14-.09.2-.17.04-.06.04-.1.04-.15-.01-.05-.08-.34-.87-.44h-.05l-3.2-.88.53-.82c.77-1.2 1.49-2.31 2.16-3.31 3.67-5.54 7.33-10.3 10.87-14.14 3.41-3.68 8.55-8.28 15.28-13.67 2.52-1.98 4.62-3.45 6.25-4.37.41-.24.82-.45 1.21-.63l.43-.26 1.49-.75v1.62c.03.35.1.77.21 1.21l1.06 1.06h-.8c.03.12.07.24.11.38.11.42.52 1.34 1.95 3.44 1.12 1.67 2.64 3.3 4.51 4.85 1.9 1.54 3.93 3 6.03 4.35 2.1 1.29 4.6 2.47 7.41 3.48 2.77 1 4.81 1.51 6.06 1.51 2.12-.08 3.04-.24 3.43-.37 1.61-.45 3.69-1.53 6.22-3.21 2.4-1.56 4.77-3.75 7.04-6.51 2.28-2.71 4-5.32 5.1-7.79.59-1.37.98-3.28 1.14-5.65v-.05c0-.21.03-.4.09-.58l.31-.92.79.57c.27.19.53.42.79.68l.2.2c.12.13.25.27.37.43.32.35.72.83 1.14 1.38l1.48 1.19-.88 10.48c-.25 1.32-.54 2.57-.87 3.78-.27 1.01-.58 2.03-.91 3.04a36.5 36.5 0 0 1-2.8 6.76c-.24.41-.45.79-.64 1.18l-.44.88-.62-.6c-.64-.23-1.14-.36-1.49-.39-.18-.02-.33-.03-.47-.03-.27 0-.5.03-.71.1.15.07.37.19.65.33q.15.045.27.15c.15.1.4.29.88.77l.19.19c.07.04.14.09.21.16l.43.43-.35.5c-.22.31-.42.64-.61.98a40 40 0 0 1-2.47 3.5 121 121 0 0 1-4.58 5.48 52 52 0 0 1-3.18 3.48 49 49 0 0 1-3.61 3.16c-.99.83-2.03 1.63-3.08 2.37l-2.34 1.54-.23-1.02c-.07-.33-.13-.65-.16-.98s-.05-.66-.05-1.02l.2-4.69c.08-.83.2-1.64.35-2.44 0-.15.02-.29.04-.42-.04-.4-.1-.55-.12-.58a.4.4 0 0 0-.09-.1v.21s-.89-.18-.91-.18a120 120 0 0 1-5.35 4.71c-3.41 2.9-6.9 5.45-10.39 7.56-2.08 1.27-4.11 2.37-6.02 3.24l-.63.29-.21-.42h-.02l-.24-.43-.2-.45-.11-.22-.02-.05a2.5 2.5 0 0 0-.18-.41c-.32-.67-.57-1.14-.79-1.48-.05-.06-.12-.15-.2-.23-.31-.26-.64-.41-.95-.42-.01.26.09.64.31 1.1l1.65 3.37-.76.27c-1.9.68-3.75 1.16-5.48 1.43-3.48.54-6.63.81-9.34.81h-2.48Zm-7.22-15.98c-1.4.85-2.66 1.66-3.72 2.42.59-.31 1.01-.52 1.28-.66l1.63-.89c.57-.38.84-.72.91-.92-.03.01-.06.03-.09.04Zm16.83-16.22c-.11.02-.33.06-.7.2-.37.11-.94.38-1.84 1.13-.72.57-1.24 1.22-1.55 1.94-.2.43-.24.68-.24.81v.1c.04 0 .14-.02.3-.1.33-.16.97-.58 2.2-1.65 1.24-1.16 1.62-1.61 1.73-1.77.09-.17.14-.38.12-.57 0-.05-.02-.08-.03-.1Zm5.01 1.57s.11.05.19.08h.05c.27 0 .76-.12 1.72-.85 1.05-.85 1.75-1.42 2.09-1.69.25-.23.52-.54.75-.89a.47.47 0 0 0 .08-.24c-.76.03-1.59.4-2.49 1.08-1.42 1.03-1.92 1.68-2.08 2.03l-.02.05-.03.04c-.11.17-.19.3-.24.4Zm-5.26-8.17c.18 0 .51-.05 1.06-.29.74-.34 1.36-.69 1.81-1.02.42-.36.83-.72 1.19-1.05.45-.41.61-.63.66-.72.05-.11.09-.19.11-.25v-.2c-.16-.22-.25-.23-.3-.23h-.09l-.12.06h-.12c-.49.02-1.08.29-1.76.8-.81.58-1.66 1.3-2.53 2.14-.15.13-.24.24-.28.34v.18l.07.09s.07.1.25.15h.07ZM93.16 152.24c-3.43-2.53-6.41-4.71-8.94-6.55-1.86-1.34-4.72-4.16-8.76-8.6l-.16-.18-.02-.24c-.1-1.21-.19-2.48-.25-3.82h.05l-.05-.79c-.2-3.13-.3-6.06-.3-8.69v-1.74l1.43 1.43c.64.67 1.29 1.32 1.94 1.94 1.49 1.33 3.4 2.83 5.67 4.44 3.53 2.38 6.82 4.21 9.76 5.42 3.23 1.3 6.62 2.2 10.07 2.65l1.21.16-11.05 15.01-.58-.43Z" class="k"/><path d="M141.03 108.16c-.57 0-1.15-.05-1.71-.14-.86-.14-1.67-.38-2.42-.7l-.65-.28.27-.66c.37-.91.8-1.93 1.31-3.07.23-.56.48-1.15.75-1.75l1.2-2.75c.07-.18.17-.38.29-.58 2.91-6.76 5.41-12.29 7.37-16.34l.14-.29 10.03-2.85v1.46l-.11.18c-1.98 3.13-4.62 8.07-7.86 14.68l-1.35 2.8c-.92 1.88-1.76 3.66-2.49 5.28-.5 1.08-.97 2.08-1.4 3.01-.22.44-.39.86-.52 1.26l-.12.4-.41.09c-.77.16-1.54.24-2.3.24ZM101.94 119.61c-.35 0-.69 0-1.04-.03-2.12-.14-3.87-.79-5.22-1.92l-.48-.4 5.63-9.13c3.54-5.67 6.75-11.07 9.53-16.07l.15-.27 11.63-3.06-1.05 1.58c-2.51 3.76-4.92 7.68-7.17 11.66-1.51 2.66-3.96 7.23-7.29 13.58-.61 1.22-1.04 2.17-1.26 2.8-.08.2-.17.41-.27.65l-.16.37-.4.06c-.86.12-1.74.19-2.6.19Z" class="j"/><path d="M132.02 75.64v-.72c-.03-.47-.2-1.17-.51-2.06l-.03-.09-.16-1.89c0-.09-.04-.34-.29-1.51-.09-.4-.2-.75-.34-1.03l-.4-.79.86-.22c.77-.2 1.59-.39 2.44-.56 3.15-.7 5.88-1.31 8.18-1.84.18-.05.38-.07.61-.07.26-.02 1.59-.18 6.2-.84 1.43-.17 3.03-.29 4.77-.36a48 48 0 0 1 4.25-.1c.58 0 .72-.02.75-.03.09-.03.12-.07.12-.07l.77-2.09.66 2.43.88 2.49-1.36.47-26.52 8.89h-.89Z" style="fill:#3c414c"/><path d="M160.25 114c-1.37-1.52-2.01-2.7-1.99-3.7l-.1-.48.14-.17c.03-.16.12-.46.25-.83l.08-.22.2-.13c.13-.08.26-.15.39-.2.64-.38 1.42-.7 2.32-.94 1.67-.56 3.72-1.1 6.03-1.61 2.31-.53 4.35-.91 6.07-1.11 1.66-.23 4.01-.45 6.99-.65 2.95-.23 6.2-.4 9.63-.5 1.52-.06 2.98-.09 4.33-.09 1.69 0 3.27.05 4.68.14 1.04.07 2.07.26 3.08.57.56.12.89.64.99 1.57v.85l-.03.11v.23l-.02.05c-.06.42-.11.8-.15 1.16l-.06.71-.71-.06c-1.49-.12-3.38-.19-5.61-.19-2.52 0-5.55.08-9 .24-6.52.3-12.36 1.08-17.36 2.33-4.93 1.21-8.03 2.23-9.22 3.05l-.52.35-.42-.47Z" style="fill:#d6dee8"/><path d="M193.79 206.52c-.33-1-.68-1.88-1.05-2.65v-.05c-.17-.3-.33-.6-.5-.9l4.5-2.35c1.1-.57 1.92-1.12 2.45-1.65q1.2-1.35 1.2-3.15c-.03-1.57-.83-2.95-2.4-4.15-1.6-1.27-3.8-2.38-6.6-3.35-1.9-.63-3.78-1.18-5.65-1.65l-9.6-1.35c-7.63-.7-14.52-.52-20.65.55-2.73-1.47-5.92-2.73-9.55-3.8-1.3-.37-3.83-1.02-7.6-1.95q-6.15-1.5-6.6-1.5l-.3-7.5c1.03.1 2.08.18 3.15.25-.23.4-.47.82-.7 1.25-.5.8-.6 1.42-.3 1.85.3.53.78.67 1.45.4.4-.13.83-.45 1.3-.95.4-.53.92-1.32 1.55-2.35 4.2.23 8.35-.08 12.45-.95a42 42 0 0 0 8.95-2.85l.65 1.3c.5 1.2.97 2.02 1.4 2.45.7-.7.93-1.62.7-2.75-.07-.5-.27-1.17-.6-2a45 45 0 0 0 6.3-4c4.7-3.5 9.03-7.38 13-11.65.03-.07.07-.12.1-.15l-.6 3.2c-.5 1.8-.62 3.62-.35 5.45.13.87.67 1.55 1.6 2.05q1.005.555 2.1.6c.37-.03.75-.07 1.15-.1.67-.23 1.33-.5 2-.8.53-.2 1.03-.47 1.5-.8 2.2-1.47 4.32-3.07 6.35-4.8 1.8-1.6 3.53-3.33 5.2-5.2 1.7-1.87 3.23-3.78 4.6-5.75.83-1.2 1.63-2.42 2.4-3.65.5.2 1.05.38 1.65.55 1.33.4 2.23.27 2.7-.4.17-.27.23-.58.2-.95a2 2 0 0 0-.45-.95c-.23-.23-.83-.6-1.8-1.1l-.5-.2c.93-1.83 1.78-3.7 2.55-5.6q1.305-3.255 1.95-6.75v-.1c1.4-6.1 2.08-12.25 2.05-18.45-.03-6.13-2.6-10.58-7.7-13.35-1.07-.3-2.52-.48-4.35-.55-2.57-.1-6.75-.12-12.55-.05-2.3 0-4.8.08-7.5.25-4.13.23-8.73.62-13.8 1.15-3.27.33-6.6.73-10 1.2.8-2.53 1.23-5.13 1.3-7.8v-1.45c.03-.53.07-1.1.1-1.7l-1.1-9-27.05 6.9c-.2-1.88-.36-3.78-.5-5.7q8.295-1.905 16.5-4.35c1.73-.5 3.45-1.03 5.15-1.6.7-.23 1.42-.48 2.15-.75 4.27-1.53 7.35-2.88 9.25-4.05 1.33-.87 2.05-1.73 2.15-2.6.07-.47-.02-.92-.25-1.35-.13-.17-.27-.32-.4-.45-.4-.37-.83-.68-1.3-.95a46 46 0 0 0-6.15-2.7c-1.37-.43-2.82-.82-4.35-1.15-2.63-.6-6.25-1.13-10.85-1.6-3.33-.37-5.95-.53-7.85-.5-.49 0-2.33-.02-5.5-.05.34 0 .66-.02.95-.05h-.65c.13-1.43.28-2.57.45-3.4 1.57-8.43 2.35-16.87 2.35-25.3 0-2.63-.22-4.8-.65-6.5-.57-2.3-1.58-4.07-3.05-5.3q-3.255-2.595-9.15-1.95c-7.77.87-16 5.18-24.7 12.95-1.53 1.4-2.72 2.28-3.55 2.65-1.6.77-3.03.82-4.3.15-.4-.2-.92-.6-1.55-1.2s-1.15-1-1.55-1.2q-1.2-.555-2.7-.15c-.9.23-1.73.67-2.5 1.3-1.2 1.03-2.2 2.45-3 4.25-.57 1.23-1.12 2.92-1.65 5.05-1.03 4.03-1.85 8.22-2.45 12.55-.4 2.37-.55 4.4-.45 6.1-.03-.03-.07-.05-.1-.05-5.93-1.17-11.58-1.73-16.95-1.7-1.57.07-3.12.13-4.65.2-2 .27-3.23.47-3.7.6-.5.1-1.32.33-2.45.7-1.17.33-2.23 1.27-3.2 2.8-1 1.53.12 3.65 3.35 6.35 1.6 1.27 3.73 2.47 6.4 3.6 5.2 2.27 10.33 4.02 15.4 5.25-.31.42-.61.86-.9 1.3-.01.02-.03.03-.05.05-.21.29-.41.6-.6.95-1.33 2.03-2.6 4.18-3.8 6.45-.07.07-.12.15-.15.25-.07.13-.13.27-.2.4-3.63 6.9-6.93 15.48-9.9 25.75-.23.73-.42 1.45-.55 2.15-1.93 6.23-3.48 12.15-4.65 17.75-1.17 5.5-1.95 10.93-2.35 16.3-.33 3.27-.48 6.53-.45 9.8-.07 1.4-.07 2.82 0 4.25.2 8.13 1.5 14.67 3.9 19.6.97 2.2 2.12 3.72 3.45 4.55.67.37 1.48.62 2.45.75 1.4.03 3.08-.37 5.05-1.2 4.8-2.2 9.18-5.77 13.15-10.7 2.47-2.93 4.15-5.9 5.05-8.9.57-2.17.87-4.95.9-8.35-.03-.83-.05-1.68-.05-2.55l-.2-4.55c-.02-.55-.03-1.12-.05-1.7q3.75 3.75 8.1 7.05c3.27 2.5 6.65 4.8 10.15 6.9l1.8 19.85c-.07.03-.13.07-.2.1-.13-.07-.25-.12-.35-.15 0 .07-.02.15-.05.25v.05c-.07 0-.13.02-.2.05q-.15.045-.3.15c-3.13 1.5-5.88 2.93-8.25 4.3l-1.85.9c-.5.27-1.12.67-1.85 1.2-1.3 0-2.7.07-4.2.2-4.07.37-8.88 1.08-14.45 2.15-6.1 1.2-11.27 2.47-15.5 3.8-5.53 1.7-10.42 3.77-14.65 6.2-1.3.7-2.12 1.45-2.45 2.25-.47 1.07-.33 2.27.4 3.6.77 1.47 2.05 2.75 3.85 3.85q1.05.645 6.3 3c-.25.84-.49 1.79-.72 2.83.93 1.68 1.92 3.35 2.94 4.99.28-2.24.57-4.49.88-6.77.1-.8.03-1.48-.2-2.05-.03-.13-.05-.22-.05-.25h.05l-1.7-1.45c-.07.03-.12.07-.15.1q-.405-.45-1.35-1.05l-5-3q-1.845-1.095-1.5-2.25c.1-.43.57-.82 1.4-1.15 6.37-2.7 13.42-4.93 21.15-6.7q8.445-1.95 19.05-3.3c-.27.2-.53.42-.8.65-.9.8-1.6 1.47-2.1 2-.3.23-1.03.93-2.2 2.1-.1.13-.2.25-.3.35-.23.87-.27 1.68-.1 2.45q.495 2.7 3.45 4.5c1.13.7 2.95 1.38 5.45 2.05l12.35 3.25c-.4.73-1.92 2.65-4.55 5.75-1.97 2.27-3.05 4.33-3.25 6.2-.33 3.13 1.4 6.6 5.2 10.4 4.7 4.77 10.48 9.43 17.35 14 4.57 3.03 10.97 6.87 19.2 11.5.07.03.22.1.45.2.27 3.72.49 7.63.66 11.71.68-.01 1.35-.04 2.02-.07-.16-2.87-.35-5.57-.59-8.09-.13-1.23-.3-2.25-.5-3.05h.05l21.1-29c1.43-1.97 2.45-3.58 3.05-4.85.87-1.9 1.15-3.68.85-5.35-.4-2.13-1.78-4.18-4.15-6.15-.6-.5-1.62-1.25-3.05-2.25q-1.995-1.35-3-2.25l11.05-6.25c1.93-1.1 3.32-2.05 4.15-2.85 1.37-1.27 2.05-2.62 2.05-4.05 0-.87-.3-1.85-.9-2.95-.3-.53-.62-1.05-.95-1.55.3-.03.62-.05.95-.05 2.87-.13 5.02-.22 6.45-.25 3.37-.03 8.03.33 14 1.1.1 0 .18.02.25.05q6.045 1.005 9.45 2.25c2.57.9 4.6 2.13 6.1 3.7l-7.35 4.05-.55.2c1.6 7.17 2.67 12.15 3.2 14.95.6 3.67 1.07 8.18 1.4 13.55.14 2.5.26 5.24.35 8.2 1.03-1.13 2.05-2.28 3.06-3.47.35-.41.68-.82 1.02-1.23-.05-1-.11-1.94-.18-2.8-.7-8.7-2.03-16.3-4-22.8Zm17.85-93.75.05-.05v.4c-.07-.17-.08-.28-.05-.35m-135.9 20.05c.03.23.06.47.1.7-.03-.23-.05-.47-.05-.7l-.05-.8c-.2-3.13-.3-6.02-.3-8.65l.2.2q.945 1.005 1.95 1.95c1.53 1.37 3.45 2.87 5.75 4.5 3.6 2.43 6.9 4.27 9.9 5.5 3.3 1.33 6.72 2.23 10.25 2.7l-9.9 13.45c-3.43-2.53-6.42-4.72-8.95-6.55-1.8-1.3-4.68-4.13-8.65-8.5-.1-1.2-.18-2.47-.25-3.8m-1.75-23.25c-.02.1-.03.2-.05.3-.03.13-.07.27-.1.4-.01.15-.03.3-.05.45l-.15.7a81 81 0 0 0-1.05 6.1l-.3 2.3v.05c-.5 4-.77 7.9-.8 11.7v1.05c0 1.8.13 4.83.4 9.1.23 4.07.33 7.25.3 9.55-.03 4.33-.55 7.67-1.55 10-.57 1.37-1.4 2.78-2.5 4.25-3.57 4.67-7.8 8.07-12.7 10.2-1.2.57-2.13.68-2.8.35-.57-.27-1.1-.85-1.6-1.75-1.9-3.3-3.03-8.25-3.4-14.85-.83-13.93.67-28.5 4.5-43.7 1.37-5.53 3.15-11.5 5.35-17.9.8-2.43 1.88-5.52 3.25-9.25 1.1-2.47 2.27-4.75 3.5-6.85 1.1-1.73 2.27-3.37 3.5-4.9.93-1.17 1.9-2.28 2.9-3.35 2.23.4 4.47.7 6.7.9q.345.045.75.15c4.6.67 9.2.98 13.8.95q7.8-.555 15.3-2.4c5.43-1.27 10.9-2.43 16.4-3.5 1.17-.27 2.48-.53 3.95-.8.23 1.3.48 2.97.75 5 .27 3.27.55 6.53.85 9.8l-42.3 10.75-10.7 9.3c0-.1-.02-.2-.05-.3 0-.1-.02-.18-.05-.25l-.2.25q-.105.15-.15.3c-.5.8-.88 1.93-1.15 3.4l-.4 1.75q-.075.36-.15.75m-28.9-50.55-.15-.75c.07-.13.13-.23.2-.3.23-.2.63-.37 1.2-.5 3.6-.93 8.13-1.32 13.6-1.15 4.3.27 7.83.42 10.6.45.2.03.4.07.6.1.1.2.4.37.9.5q3.15.75 7.65 1.2c2.03.2 4.28.37 6.75.5h.3c7.1.37 12.95.53 17.55.5 5.97-.07 11.43-.43 16.4-1.1q.495-.045 1.05-.15c.93-.17 1.85-.32 2.75-.45l15.3 1.1c4.83.33 9.65.93 14.45 1.8.67.03 1.35.12 2.05.25 1.13.17 2.27.4 3.4.7 1.47.4 2.55.92 3.25 1.55.17.13.3.27.4.4l.05.05h-.05c.1.17.13.33.1.5-.07.33-.38.57-.95.7l-2.62.91-.68.24-26.4 8.85h-.05v-.05c-.03-.53-.22-1.28-.55-2.25l-.15-1.8c0-.13-.1-.67-.3-1.6-.1-.47-.23-.87-.4-1.2.77-.2 1.57-.38 2.4-.55 3.17-.7 5.9-1.32 8.2-1.85.13-.03.28-.05.45-.05.47-.03 2.57-.32 6.3-.85 1.4-.17 2.97-.28 4.7-.35 1.57-.1 2.97-.13 4.2-.1.53 0 .85-.02.95-.05.33-.11.53-.28.61-.5.02-.05.04-.1.04-.15q.045-.405-.3-.75c-.1-.1-.22-.18-.35-.25-.77-.2-1.58-.37-2.45-.5-.57-.03-1.17-.02-1.8.05-1 .03-2.5.15-4.5.35-.93.1-1.8.22-2.6.35-.2-.07-.43-.1-.7-.1-3.93.23-9.23.9-15.9 2-1.27.2-2.58.42-3.95.65-.73.13-1.47.27-2.2.4l-20.9 3.85q-3.6.9-7.2 1.35c-5.2.57-10.4.6-15.6.1q-1.545-.195-3.15-.45c-1.03-.17-2.33-.43-3.9-.8q-1.905-.45-4.35-1.05c-1.8-.47-3.82-1-6.05-1.6-4.03-1.1-6.8-1.9-8.3-2.4-3.03-1.07-5.6-2.3-7.7-3.7-.57-.37-.98-.75-1.25-1.15a5 5 0 0 1-.6-.5c-.13-.13-.25-.27-.35-.4m32.4-18.1c.53-2.97 1.12-5.25 1.75-6.85 1.07-2.5 2.53-4.28 4.4-5.35 1.13 1.33 2.55 2.28 4.25 2.85 1.73.6 3.38.62 4.95.05 1.2-.4 2.77-1.47 4.7-3.2q6.9-6.045 11.7-8.7c4.83-2.63 9.48-3.95 13.95-3.95 1.87 0 3.27.33 4.2 1 1.53 1.07 2.43 3.18 2.7 6.35q.495 5.7-.3 13.5c-.2 1.7-.4 3.28-.6 4.75l-4.55 1.5c-.23.07-1.28.23-3.15.5-1.03.13-2.07.28-3.1.45-13.83 1.83-27.7 2.18-41.6 1.05zm.4 5.65c9.7 1.1 20.92 1.13 33.65.1 2.7-.23 4.98-.48 6.85-.75.37-.07.73-.13 1.1-.2.97-.17 1.9-.35 2.8-.55l5.4-1.3s.07-.05.1-.05c.2-.07.42-.15.65-.25l.5-.15c-.37 2.73-.65 4.97-.85 6.7-.2 1.97-.22 3.62-.05 4.95-1.33.27-2.7.53-4.1.8q-2.745.45-5.7.75c-4.47.5-9.23.77-14.3.8q-5.7.045-13.65-.3c-.77-.07-1.53-.12-2.3-.15-1.53-.07-3.37-.17-5.5-.3l-7.75-.45c.07-.2.13-.45.2-.75l1.6-9.15c.4.1.85.18 1.35.25m42.6 43.35q-3.795 5.7-7.2 11.7c-1.53 2.7-3.97 7.23-7.3 13.6-.63 1.27-1.07 2.23-1.3 2.9-.07.17-.15.37-.25.6-1.17.17-2.33.22-3.5.15-1.97-.13-3.57-.72-4.8-1.75l5.3-8.6c3.57-5.7 6.75-11.07 9.55-16.1zm-18.35 55.05c1.4-2.3 3.3-5.13 5.7-8.5-2.97-.27-4.68-.47-5.15-.6-5.8-.93-11.48-3.18-17.05-6.75q-5.295-3.405-10.2-8.25c.03-2.37.15-4.48.35-6.35 0-.3.03-.63.1-1 2.23-1.3 6.07-3.83 11.5-7.6.27-.03.5-.05.7-.05q.495 3.945 1.95 7.8c.8 1.97 1.63 3.53 2.5 4.7 2.13 2.83 4.97 4.47 8.5 4.9.6.03 1.23.07 1.9.1 2.4-.03 4.92-.65 7.55-1.85 4.5-2.13 8.33-5.57 11.5-10.3q3.45-5.205 4.95-11.1c.03-.13.1-.25.2-.35.07-.23.17-.52.3-.85v-.05c.13-.27.27-.55.4-.85.3 1.5.68 2.93 1.15 4.3 1 2.8 2.42 5 4.25 6.6 2.23 2 4.9 3 8 3 2.67 0 5.38-.87 8.15-2.6 2.83-1.83 5.23-4.37 7.2-7.6.9-.1 1.62-.17 2.15-.2 3.53-.27 7.07-.6 10.6-1q4.35-.345 8.85-.6c2.33-.17 4.77-.33 7.3-.5 2.97-.27 5.93-.47 8.9-.6 2.27-.13 4.52-.1 6.75.1 4.37-.17 6.88 1.85 7.55 6.05.17 1 .3 1.98.4 2.95-.87-.6-1.88-1.28-3.05-2.05-.13-.1-.25-.18-.35-.25-.03-.97-.13-1.58-.3-1.85-.47-.73-1.7-1.33-3.7-1.8-1.13-.27-3.08-.43-5.85-.5-2.8-.1-5.55-.03-8.25.2-2.7.2-4.55.33-5.55.4-4.97.27-8.68.6-11.15 1-2.47.37-4.02.63-4.65.8-.67.13-2.52.55-5.55 1.25-2.97.67-4.88 1.92-5.75 3.75-.37.13-.75.3-1.15.5-.23 0-.5.12-.8.35-1.9 1-4.58 2.8-8.05 5.4-3.7 2.77-6.57 4.97-8.6 6.6-3.2 2.67-6 5.3-8.4 7.9-1.57 1.7-3.15 3.62-4.75 5.75q-.6-.3-1.35-.6l-3.45-1.2c-.97-.47-1.47-.7-1.5-.7-.7-.17-1.22-.13-1.55.1-.2.2-.33.45-.4.75-.07.27 0 .52.2.75.1.17.35.33.75.5l5.4 2.15q.195.045.45.15c-.67.87-1.32 1.8-1.95 2.8q-1.695 2.445-4.35 6.45l-.25-.05c-1.53-.37-2.47-.57-2.8-.6-1.47-.2-2.88-.22-4.25-.05.77.97 2.2 1.75 4.3 2.35.47.13 1.03.28 1.7.45-.77 1.13-1.57 2.4-2.4 3.8q-2.145 3.45-3.3 5.85c-3.3-1.4-6.73-3.12-10.3-5.15-.43-.27-.87-.52-1.3-.75 2.53-3.3 4.3-5.77 5.3-7.4m38.55-46.35c2.97-6.87 5.43-12.33 7.4-16.4l8.8-2.5v.3c-2 3.17-4.63 8.08-7.9 14.75l-1.35 2.8c-.93 1.9-1.77 3.67-2.5 5.3-.5 1.07-.97 2.07-1.4 3-.23.47-.42.92-.55 1.35-1.27.27-2.52.3-3.75.1-.8-.13-1.55-.35-2.25-.65.37-.9.8-1.92 1.3-3.05.23-.57.48-1.15.75-1.75l1.2-2.75c.07-.17.15-.33.25-.5m62.5 37.15c-.73-.27-1.32-.42-1.75-.45-1.1-.13-1.93.13-2.5.8.17.2.42.38.75.55q.255.105.9.45c.03 0 .07.02.1.05.17.1.43.33.8.7l.15.15.15.15c.03 0 .07.02.1.05-.23.33-.45.68-.65 1.05-.73 1.17-1.53 2.3-2.4 3.4-1.47 1.87-2.98 3.68-4.55 5.45q-1.5 1.8-3.15 3.45c-1.13 1.1-2.32 2.13-3.55 3.1-1 .83-2.02 1.62-3.05 2.35l-1.45.95q-.105-.45-.15-.9c-.03-.3-.04-.61-.05-.95l.2-4.65c.08-.8.2-1.6.35-2.4 0-.17.02-.32.05-.45-.03-.43-.1-.75-.2-.95-.13-.23-.33-.42-.6-.55-.33-.1-.6-.08-.8.05-.03 0-.05.02-.05.05a1.4 1.4 0 0 0-.5 0c-1.73 1.63-3.57 3.25-5.5 4.85-3.4 2.9-6.83 5.4-10.3 7.5a56 56 0 0 1-5.95 3.2l-.1-.2h-.05l-.2-.45-.1-.2c-.07-.2-.15-.38-.25-.55-.3-.63-.57-1.13-.8-1.5-.1-.13-.2-.25-.3-.35-.67-.57-1.33-.75-2-.55-.3.47-.23 1.15.2 2.05l1.3 2.65c-1.87.67-3.65 1.13-5.35 1.4-3.67.57-6.9.83-9.7.8h-1c.03-.1.08-.18.15-.25.2-.43.35-.82.45-1.15.03-.07.05-.12.05-.15.27-.97.17-1.85-.3-2.65-1.03.53-2.03 1.52-3 2.95l-.55.8-.05.05-.05.05s-.04.07-.05.1c-2.03-.17-4.28-.45-6.75-.85-3.27-.5-5.88-.98-7.85-1.45-2.63-.6-5.62-1.45-8.95-2.55-1.13-.37-2.27-.77-3.4-1.2.03-.07.07-.13.1-.2h.05c2.13-3.8 4.12-7.15 5.95-10.05.87.17 1.82.35 2.85.55.6.17 1.08.18 1.45.05.23-.1.42-.25.55-.45s.18-.42.15-.65q-.195-.9-1.5-1.05l-2.2-.6c.77-1.2 1.48-2.3 2.15-3.3 3.67-5.53 7.27-10.22 10.8-14.05 3.4-3.67 8.47-8.2 15.2-13.6 2.5-1.97 4.55-3.4 6.15-4.3.4-.23.78-.43 1.15-.6.17-.1.33-.2.5-.3.13-.07.27-.13.4-.2v.45c.03.47.12.95.25 1.45-.03.03-.03.07 0 .1-.03 0-.03.03 0 .1.03.1.15.5.35 1.2.17.67.85 1.88 2.05 3.65 1.17 1.73 2.72 3.4 4.65 5 1.93 1.57 3.97 3.03 6.1 4.4 2.17 1.33 4.68 2.52 7.55 3.55s4.97 1.55 6.3 1.55c1.8-.07 3.02-.2 3.65-.4 1.67-.47 3.8-1.57 6.4-3.3 2.47-1.6 4.87-3.82 7.2-6.65 2.33-2.77 4.07-5.42 5.2-7.95.63-1.47 1.03-3.43 1.2-5.9v-.1c0-.13.02-.25.05-.35.23.17.47.37.7.6l.05.05.05.05.1.1c.1.1.2.22.3.35.37.4.77.88 1.2 1.45l1.25 1-.85 10.1a45 45 0 0 1-.85 3.65q-.405 1.5-.9 3c-.7 2.33-1.62 4.55-2.75 6.65-.23.4-.45.8-.65 1.2-.03-.03-.07-.05-.1-.05m-46.3 58.25c-.2.57-.77 1.12-1.7 1.65-3.9 2.4-8.1 4.77-12.6 7.1-1.9.97-2.97 2.02-3.2 3.15-.27 1.4.67 2.92 2.8 4.55l5.8 4.35c1.53 1.27 2.43 2.35 2.7 3.25.27 1.03-.07 2.45-1 4.25-1.93 3.7-5.13 8.62-9.6 14.75-4.83 6.57-8.13 11.4-9.9 14.5.3-3.83.67-8.18 1.1-13.05.17-8 .28-19 .35-33l.1-22.95 1.55.5c.1.03.2.07.3.1.93.33 4.18 1.25 9.75 2.75 3.93 1.07 6.97 2.23 9.1 3.5 1.43.87 2.6 1.8 3.5 2.8l1.05 1.15c0 .2-.03.42-.1.65m-35.3 21.35.3-.7c.07-.13.13-.25.2-.35l-.05-.05c.43-1.2 1.05-3.03 1.85-5.5l.85-2.7 2.75 2.1.15 17.8c-1.07-2.1-2.08-4.2-3.05-6.3-.5-.73-.98-1.43-1.45-2.1h-.1l.05-.1q-.75-1.095-1.5-2.1m2.15-12.85a273 273 0 0 1-4.1-2.95c3.43-4.4 6.12-7.98 8.05-10.75v2.05l-.1 5.7c-.03 2.87-.05 5.75-.05 8.65-1.03-.73-2.3-1.63-3.8-2.7m-21.4-13.25c2.4 1.63 6.62 4.9 12.65 9.8.5.43 1 .85 1.5 1.25q-1.605 2.145-2.55 3.6c-1.07 1.6-2.22 3.52-3.45 5.75-2.87-6.4-5.6-12.9-8.2-19.5-.03-.33-.07-.67-.1-1 .03.03.08.07.15.1m11.75 17.95c.83 1.2 2.45 3.55 4.85 7.05 0 .03.03.07.1.1.23.4.5.82.8 1.25l.05 1.7c-.57 3.13-1.1 6.3-1.6 9.5l-6.95-15.35zm3.9-8.9a.7.7 0 0 0-.2-.15c-3.1-2.47-5.43-4.3-7-5.5-2.77-2.13-5.23-3.8-7.4-5q-.9-.495-1.5-.9c-.2-1.43-.38-2.93-.55-4.5-.03-.2-.07-.4-.1-.6.03 0 .07.02.1.05a313 313 0 0 1-.7-6.15c-.33-2.93-.62-5.48-.85-7.65-.1-.67-.3-2.85-.6-6.55.43.23.88.47 1.35.7a98 98 0 0 0 17.6 6.5c3.23.9 6.5 1.58 9.8 2.05-.03 4.73-.07 7.97-.1 9.7-.03 1.7-.07 3.42-.1 5.15l-8.75 11.55zm40.95-88.3s.04-.06.05-.1c.03-.2.12-.48.25-.85q.15-.105.3-.15c.6-.37 1.33-.67 2.2-.9 1.7-.57 3.7-1.1 6-1.6 2.3-.53 4.3-.9 6-1.1 1.67-.23 3.98-.45 6.95-.65 2.97-.23 6.17-.4 9.6-.5 3.43-.13 6.42-.12 8.95.05 1 .07 1.98.25 2.95.55.23.03.38.35.45.95v.65c-.03.1-.05.2-.05.3v.1q-.105.645-.15 1.2c-3.23-.27-8.13-.25-14.7.05-6.6.3-12.43 1.08-17.5 2.35q-7.545 1.845-9.45 3.15-1.905-2.1-1.8-3.3c-.02-.06-.04-.12-.05-.2m-68.55 76.55s-.02-.05-.05-.05a85 85 0 0 1 6.75-3.25c.2 1.73.4 3.52.6 5.35.13.4.27.82.4 1.25 8.23 20.2 13.82 33.25 16.75 39.15 2.4 4.83 6.75 12.87 13.05 24.1q-13.155-7.695-18.3-11.1c-7.3-4.87-13.32-9.78-18.05-14.75-1.97-2.1-3.05-3.97-3.25-5.6q-.3-2.205 1.2-4.65 1.005-1.65 3.3-3.9c1.47-1.4 2.43-2.62 2.9-3.65.33-.77.47-1.52.4-2.25-.03-.87-.3-1.58-.8-2.15-.57-.63-1.77-1.17-3.6-1.6-4.4-1-8.52-2.17-12.35-3.5-1.57-.57-2.5-1.23-2.8-2-.07-.17-.1-.33-.1-.5.53-.6 1.37-1.53 2.5-2.8.83-.8 2.5-2.12 5-3.95 2.27-1.7 3.7-2.72 4.3-3.05.27-.13.98-.5 2.15-1.1"/><path d="M142.79 256.82c-.2-.97-.43-1.65-.7-2.05-.23-.3-.52-.52-.85-.65-.4-.13-.75-.12-1.05.05-.37.17-.68.57-.95 1.2a32.6 32.6 0 0 0-2.75 9.7c-.08.78-.11 1.51-.11 2.21.47-.05.94-.11 1.41-.17-.01-2.23.35-4.63 1.1-7.2.57-1.9 1.23-3.32 2-4.25.67 3.23 1 6.05 1 8.45 0 .83-.03 1.64-.1 2.42.53-.09 1.06-.19 1.59-.29.18-2.79-.01-5.93-.59-9.43ZM103.59 39.47c2.47-1.1 4.23-2.45 5.3-4.05.63-1 .97-2.08 1-3.25.03-1.23-.28-2.27-.95-3.1-.17-.17-.32-.25-.45-.25-.13.03-.23.17-.3.4-.1.47-.13 1.15-.1 2.05.03.93 0 1.62-.1 2.05-.23.87-.77 1.67-1.6 2.4-.6.53-1.43 1.03-2.5 1.5-3.43 1.7-6.57 2.43-9.4 2.2-1.7-.13-3.27-.62-4.7-1.45-1.5-.9-2.58-2.07-3.25-3.5q-.45-.855-.75-.9a.68.68 0 0 0-.6.2c-.2.17-.32.37-.35.6-.07.33.07.77.4 1.3.73 1.3 1.77 2.43 3.1 3.4 2.1 1.53 4.6 2.27 7.5 2.2 2.5 0 5.08-.6 7.75-1.8M75.59 229.22c.33-1.6.52-2.87.55-3.8v-.3c-.03-1.57-.37-2.82-1-3.75-.5.3-.87.97-1.1 2-.97 3.6-1.82 7.03-2.55 10.3a.4.4 0 0 1-.1-.15c-1.13 4.67-2.14 8.83-3.02 12.52a96 96 0 0 0 5.56 4.46c-.32-2.58-.72-5.31-1.18-8.18 1.3-5.97 2.25-10.33 2.85-13.1ZM172.54 242.47c.07-1.13.12-2.25.15-3.35.07.03.1-1.58.1-4.85.1-8.57-.27-16.5-1.1-23.8-.33-2.67-.8-4.75-1.4-6.25-.27-.57-.53-.92-.8-1.05a.98.98 0 0 0-.8-.05c-.27.1-.43.27-.5.5.33 3.93.45 11.25.35 21.95-.1 9.13-.22 14.7-.35 16.7-.28 4.53-.73 9.81-1.33 15.84 1.63-.85 3.24-1.77 4.83-2.74.4-4.83.68-9.13.85-12.9M156.79 132.87c-1.23.9-2 1.67-2.3 2.3q-.405.6-.45.9c0 .1.02.17.05.2.1.17.33.32.7.45.53.2 1.35-.12 2.45-.95 1.07-.87 1.77-1.43 2.1-1.7q.495-.45.9-1.05c.13-.2.2-.43.2-.7-.03-.2-.1-.42-.2-.65q-1.605-.195-3.45 1.2M154.94 125.07c.1-.2.17-.37.2-.5v-.3a.73.73 0 0 0-.15-.4c-.2-.33-.47-.52-.8-.55-.06-.01-.11 0-.16 0-.1 0-.2.01-.29.06-.63.03-1.35.35-2.15.95-.83.6-1.7 1.33-2.6 2.2-.27.23-.43.48-.5.75v.25c-.03.17.03.35.2.55q.255.345.75.45h.15c.37 0 .82-.12 1.35-.35.8-.37 1.45-.73 1.95-1.1.47-.4.88-.77 1.25-1.1.4-.37.67-.67.8-.9ZM150.04 133.67c-.23-.03-.62.05-1.15.25-.57.17-1.25.58-2.05 1.25-.8.63-1.38 1.37-1.75 2.2-.2.43-.3.8-.3 1.1q-.045.345.15.6c.27.3.67.32 1.2.05s1.32-.85 2.35-1.75c1-.93 1.62-1.57 1.85-1.9.2-.37.28-.72.25-1.05-.07-.4-.25-.65-.55-.75M132.69 149.97c-1.93 1.17-3.53 2.23-4.8 3.2q-.45.405-.45 1.65c.27-.07.43-.12.5-.15.1-.03.53-.3 1.3-.8.77-.4 1.32-.68 1.65-.85l1.65-.9c.9-.6 1.33-1.17 1.3-1.7-.07-.33-.18-.55-.35-.65-.2-.03-.47.03-.8.2"/><g id="b"><path d="M165.6 164.4c-.1-.22-.17-.5-.21-.87l-.07-1.12-.06-.02-.02-.51c-.03-.63-.06-1.33-.1-2.09-.07-.92-.22-1.39-.33-1.62l-.09-.18.02-.2c.07-.77.18-1.55.33-2.32-.02-.12 0-.23.02-.33.03-.91.08-1.66.15-2.22.23-1.22.62-2.2 1.18-2.98.72-.95 1.8-1.72 3.21-2.3.71-.28 1.9-.62 3.66-1.03 2.08-.46 5.27-1.28 9.47-2.44 3.01-.7 5.71-1.05 8.05-1.05.64 0 1.26.03 1.85.08h.01c.07 0 .22.02.4.07l-.18 1.42c-.2 0-.37.05-.52.14-.14.07-.24.14-.33.2-.01.11-.03.22-.05.33-.29 2.34-.64 4.29-1.01 5.74-.06.27-.13.55-.23.84v.1l-.14.41c-.26.82-.58 1.61-.94 2.34l-.11.22-.21.11c-.46.23-1.03.56-1.7.97-2.65 1.71-5.93 3.3-9.73 4.71-.77.3-3.07 1.12-5.29 1.91-1.64.58-3.46 1.23-4.11 1.47l-.02.05-.34.09c-.61.16-1.18.32-1.72.49l-.6.19-.27-.57Z" class="k"/><path d="M140.4 177.69c-2.86-4.4-4.36-9.62-4.47-15.53-.14-5.61 1.13-11.56 3.76-17.7 2.72-6.18 6.21-10.63 10.38-13.23 2.64-1.61 6.12-2.8 10.36-3.55 4.74-.87 11.86-1.44 21.15-1.71 3.3-.08 8.15-.14 11.54-.14 3.95 0 4.29.08 4.44.11.58.13 2.85.48 6.74 1.04l1.45.31c1.7.41 3.36.88 4.98 1.42.43.16.76.27 1.03.33l.09.02.08.04c1.55.8 2.66 1.77 3.3 2.89.56 1.02.87 2.36.94 4.13.1 2.69-.02 5.77-.35 9.15-.17 1.85-.56 4.81-1.2 9.04-.47 3.23-.89 5.64-1.26 7.16-.23 1.04-.81 3.07-1.76 6.19-.29 1.01-.54 1.95-.74 2.8l-.12.52-.54.03c-1.08.07-2.39.2-3.9.4-2.3.3-3.95.49-4.89.55-.54.03-1.05.05-1.55.05-3.4 0-6.19-.73-8.3-2.17-.49-.32-.8-.61-.99-.9-.53-.84-.56-2-.09-3.55.85-2.86 1.61-5.71 2.24-8.45.04-.16.07-.29.09-.43.25-1.06.46-2.03.66-3l.05-.27.03-.02c.21-1.03.82-5.42.86-6.12a2 2 0 0 1-.05-.5c-.03-.47-.17-.91-.43-1.3-.21-.35-.44-.54-.7-.59l.24-1.42 2.1.25c.85.1 1.61.15 2.27.15h.47c.5-.05.75-.18.8-.28 0 0 .01-.1-.02-.25-.05-.21-.13-.28-.16-.3-.23-.16-.67-.31-1.24-.39-.79-.13-1.79-.19-2.97-.19s-2.64.07-4.27.2c-3.48.4-5.59.63-6.29.7-1.46.22-2.91.49-4.26.79l-10.57 2c-1.45.29-2.52.56-3.18.82-1.1.37-1.94.87-2.52 1.51-.98.98-1.67 2.7-2.07 5.13-.29 1.99-.24 9.94.08 11.03l.03.11-.1 3.06c-.07 1.43-.28 2.44-.63 3.11-.38.8-1.13 1.58-2.28 2.36-4.57 3.23-9.8 4.88-15.56 4.88h-.36c-.24-.01-.44-.02-.63-.02-.36 0-.69.02-.96.06l-.45.06-.25-.38Z" style="fill:#472c37"/><path d="M220.65 135.15q-.705-3.9-2.55-6c-.97-1.07-2.37-2-4.2-2.8-2.77-1.23-5.06-1.74-8.74-2.22-3.43-.46-8.71-1.26-11.91-1.43-11.23-.93-23.63.05-37.2 2.95-.4.07-.8.15-1.2.25q-1.995.405-3.75 1.05c-.13.03-.25.05-.35.05-.57.2-1.12.42-1.65.65-2.03.9-3.83 1.98-5.4 3.25-2.17 1.73-4.28 4.3-6.35 7.7-3.73 6-6.03 12.08-6.9 18.25-1 6.97-.13 13.35 2.6 19.15.83 1.77 1.82 3.22 2.95 4.35 1.37 1.33 2.83 2.05 4.4 2.15.6.07 1.15-.02 1.65-.25.4-.17.67-.4.8-.7 2.43.73 5.37.67 8.8-.2 3.8-.97 7.15-2.53 10.05-4.7 1.77-1.33 2.98-2.75 3.65-4.25q.63-1.38.75-3.6h.05c1.43 0 3.7-.45 6.8-1.35 3.9-1.23 6.92-2.27 9.05-3.1 1.59-.61 3.07-1.26 4.45-1.95-.69 1.74-1.35 3.52-2 5.35q-.15 1.995.45 3.3c.43.93 1.23 1.85 2.4 2.75 2.1 1.67 4.5 2.88 7.2 3.65q4.005 1.095 8.1.6c2.33-.27 4.27-.87 5.8-1.8.27-.17.53-.35.8-.55.03.53.15 1 .35 1.4 1.4-.17 2.63-.88 3.7-2.15.77-.9 1.5-2.18 2.2-3.85 2.73-6.47 4.53-14.75 5.4-24.85.37-4.6.3-8.3-.2-11.1m-10.15-5.75c.43.17.8.28 1.1.35 1.43.73 2.43 1.6 3 2.6.5.9.78 2.17.85 3.8.1 2.67-.02 5.68-.35 9.05q-.255 2.745-1.2 9c-.47 3.23-.88 5.6-1.25 7.1-.23 1.03-.82 3.08-1.75 6.15q-.45 1.545-.75 2.85c-1.1.07-2.42.2-3.95.4-2.3.3-3.92.48-4.85.55-3.97.23-7.1-.43-9.4-2-.4-.27-.67-.5-.8-.7-.4-.63-.4-1.62 0-2.95.86-2.89 1.61-5.73 2.25-8.5.04-.16.08-.32.1-.5.24-.99 1.7-9.67 1.6-9.6-.03-.13-.27-1.6-.6-2.1-.3-.5-.68-.8-1.15-.9.57.07 1.27.15 2.1.25q1.65.195 2.85.15c.73-.07 1.2-.28 1.4-.65.1-.2.12-.45.05-.75s-.2-.53-.4-.7c-.37-.27-.9-.45-1.6-.55-1.63-.27-4.1-.27-7.4 0-3.5.4-5.6.63-6.3.7-1.53.23-2.98.5-4.35.8l-10.55 2c-1.5.3-2.6.58-3.3.85-1.2.4-2.13.97-2.8 1.7-1.07 1.07-1.82 2.9-2.25 5.5-.3 2.03-.27 10.08.1 11.35l-.1 2.95c-.07 1.3-.25 2.23-.55 2.8-.33.7-1.02 1.4-2.05 2.1-4.57 3.23-9.73 4.82-15.5 4.75-.67-.03-1.23-.02-1.7.05q-4.2-6.45-4.35-15.15c-.13-5.53 1.1-11.33 3.7-17.4 2.67-6.07 6.03-10.37 10.1-12.9 2.57-1.57 5.93-2.72 10.1-3.45 4.73-.87 11.75-1.43 21.05-1.7 5.3-.13 15.07-.22 15.8-.05.6.13 2.87.48 6.8 1.05l1.4.3c1.67.4 3.3.87 4.9 1.4m-17.9 14.5c.07 0 .17.02.3.05-.33 0-.63.08-.9.25-.27.13-.48.3-.65.5 0 .17-.02.33-.05.5-.3 2.37-.63 4.27-1 5.7-.07.3-.15.6-.25.9v.1c-.03.1-.07.2-.1.3q-.375 1.2-.9 2.25c-.48.24-1.06.58-1.75 1q-3.945 2.55-9.6 4.65c-1.57.61-10.9 3.83-11.45 4-.07-.15-.12-.36-.15-.65l-.1-1.6h-.05c-.03-.64-.06-1.34-.1-2.1-.06-.84-.22-3.5-.05-4.3q-.045-.105 0-.15c.03-.97.08-1.73.15-2.3.2-1.07.55-1.95 1.05-2.65.63-.83 1.6-1.52 2.9-2.05.67-.27 1.85-.6 3.55-1 2.1-.47 5.27-1.28 9.5-2.45 3.73-.87 6.95-1.18 9.65-.95"/></g></svg>