<svg xmlns="http://www.w3.org/2000/svg" id="a" viewBox="0 0 253 291.35"><defs><style>.h{fill:#ab7480}.i{fill:#a89c6a}.k{fill:#704e25}.l{fill:#a76c8f}</style></defs><path d="m128.76 259.92-.05-.82-2.9.56c-.06-.49-.11-.95-.16-1.37l-.49-4.46-.32-.18c-1.1-.63-2.15-1.24-3.15-1.8l-1.07-.61v9.21l-3.66-1.33c0-2.89.06-6.11.15-9.58v-.42l-.35-.22c-3.2-1.92-5.97-3.64-8.22-5.13-6.79-4.52-12.59-9.2-17.24-13.91-3.62-3.62-5.3-6.92-4.99-9.82.18-1.71 1.22-3.66 3.08-5.81 2.69-3.17 4.21-5.09 4.63-5.87l.44-.81-13.24-3.48c-2.42-.64-4.19-1.31-5.26-1.97-1.8-1.1-2.82-2.41-3.12-4.04-.13-.6-.11-1.24.05-1.93 2.36-2.33 3.85-3.77 4.43-4.28.25-.22.51-.43.76-.62l2.18-1.63-2.7.34c-7.06.9-13.49 2.01-19.12 3.31-7.74 1.77-14.9 4.04-21.26 6.73-1.08.43-1.68.97-1.82 1.61-.23.77-.11 1.93 1.82 3.08l4.99 3c.27.16.98.67 2.86 2.14 0 .02.03.12.03.12l.02.05q.27.675.15 1.68c-.27 1.98-.52 3.93-.76 5.89 3.33 5.49 7.12 10.76 11.39 15.79 4.19 4.94 8.57 9.34 13.13 13.21.52-2.15 1.98-8.22 2.8-11.6l.13.13.28-1.27c.73-3.25 1.59-6.71 2.55-10.3.08-.36.17-.63.26-.85.26.68.39 1.5.41 2.44v.27c-.03.89-.21 2.12-.53 3.67-.6 2.77-2.88 13.23-2.88 13.23l.02.13c.42 2.59.78 5.09 1.09 7.46q23.505 17.91 53.28 17.91c.93 0 1.86-.02 2.78-.04v-.02c-.12-2.74-.26-5.37-.42-7.82Zm64.08-44.99c-.52-2.72-1.55-7.55-3.07-14.36l8.23-4.53-.65-.68c-1.57-1.64-3.72-2.95-6.37-3.88-2.28-.84-5.48-1.6-9.5-2.27-.12-.04-.24-.07-.33-.07h-.02c-5.73-.74-10.32-1.11-13.67-1.11h-.44c-1.45.04-3.62.12-6.43.25-.36 0-.71.02-1.03.05l-.96.11.38.89c.09.22.19.47.27.73.19.6.59 1.4 1.22 2.45.15.26.25.43.3.55v.44c-.09 1.29-.71 2.46-1.94 3.59-.82.82-2.13 1.74-3.9 2.73l-11.92 6.74.74.67c.69.62 1.72 1.4 3.07 2.31 1.41.98 2.42 1.73 3 2.21 2.22 1.85 3.54 3.78 3.9 5.72.27 1.51 0 3.17-.79 4.91-.58 1.22-1.58 2.81-2.98 4.74l-20.21 27.82.03.27c.11 1.16.24 2.34.38 3.55l-.98.19v.71c.24 2.47.43 5.18.59 8.05 2.47-.09 4.91-.26 7.31-.54v-.08c-.01-2.32.37-4.81 1.13-7.4.45-1.51.96-2.72 1.54-3.66.06-.14.11-.27.17-.41.26-.62.5-.78.63-.85.05-.03.11-.04.17-.04l.58-.71.25 1.21c.15.25.34.73.54 1.68.57 3.42.76 6.53.58 9.27v.18c8.78-1.58 17.1-4.47 24.96-8.69.58-5.82 1.01-11 1.28-15.38.13-2.02.25-7.5.35-16.74.1-10.46-.01-17.78-.33-21.77l.1-.04s.08.01.11.03c.2.11.38.37.55.84l.03.06c.51 1.2.93 3.17 1.25 5.85.83 7.23 1.2 15.21 1.1 23.72 0 1.91-.01 3.05-.03 3.72l-.04-.02-.03 1.13c-.03 1.09-.08 2.2-.15 3.34-.17 3.75-.45 8.08-.85 12.87l-.04.52c8.44-5.01 16.33-11.61 23.66-19.77-.09-2.71-.2-5.23-.33-7.48-.33-5.37-.81-9.95-1.41-13.64Z" class="k"/><path d="m141.59 255.52-.06-.27-.25-1.21-.58.71-.37.45c-.21.25-.41.54-.6.85-.58.94-1.08 2.15-1.54 3.66-.76 2.59-1.14 5.08-1.13 7.4v.08c1.84-.21 3.65-.48 5.45-.8.07-.79.1-1.54.09-2.29 0-2.44-.34-5.33-1.01-8.6Z" style="fill:#25293b"/><path d="M85.17 78.11c-3.86-1.86-7.43-3.78-10.61-5.68l-1.26-.76 1.37-.53c1.04-.4 2.13-.79 3.23-1.16 2.12-.76 4.47-1.52 6.98-2.26 3.53-1.11 7.5-2.23 11.78-3.32v-.16l.65-.04c5.17-1.33 12.95-3.49 23.12-6.43l.1-.03h.05c1.6-.46 3.11-.9 4.55-1.32 6.53-1.92 10.66-3.16 12.28-3.69l4.05-1.55-.83 1.66c-2.43 4.86-3.14 6.3-3.32 6.68v.31l-.43.19c-.2.09-1.19.47-7.4 2.67-1.14.37-2.38.8-3.69 1.3-8.51 3-21.86 7.72-40.06 14.15l-.28.1-.27-.13Zm55.91-21c.7-1.49 1.99-4.36 3.94-8.79 1.8-3.9 3.39-7.11 4.73-9.55 4.22-7.33 9.13-12.49 14.6-15.34 1.38-.78 2.66-1.18 3.79-1.18.92 0 1.75.27 2.47.79.93.66 1.6 1.78 1.97 3.31.58 2.13.73 4.56.42 7.2-.13 1.91-.6 4.28-1.37 7.01a140 140 0 0 1-1.76 5.78l-.11.34-.34.11c-.22.08-2.28.93-10.84 4.58-7.65 3.22-13.23 5.48-16.58 6.71l-1.64.6.74-1.58Zm-76.36 2.48a80.3 80.3 0 0 1 1.21-17.36 78.7 78.7 0 0 1 6.66-20.59c1.56-3.16 3.14-5.53 4.69-7.05.77-.69 1.42-1.02 2.02-1.02.08 0 .16 0 .24.02.73.1 1.35.61 1.83 1.53 1.77 3.8 3.11 6.63 4.01 8.47 1.56 3.1 3.35 5.33 5.3 6.62.84.59 1.59.88 2.23.88.29 0 .56-.06.82-.18.76-.32 1.36-1.17 1.82-2.53.12-.42.52-2.17 1.67-8.01.65-3.32 1.65-5.91 2.98-7.69l.71-.96.51 1.08c1.47 3.07 3.24 7.17 5.27 12.19 2.69 6.8 4.33 10.93 4.9 12.29 1.61 3.75 3.3 7.21 5.01 10.27l.5.9-1.02.16c-2.47.4-5.04.86-7.62 1.39-4.67.89-9.59 1.94-14.63 3.1-2.16.5-4.46 1.05-6.89 1.65-6.09 1.49-13.27 3.34-21.34 5.5l-.87.23-.04-.9Zm64.75 191.92c.3-3.78.67-8.18 1.1-13.06.16-7.95.28-19.05.35-32.94l.1-23.93 2.79.9c1.13.4 4.27 1.34 9.62 2.89 3.96 1.11 7.1 2.25 9.33 3.4 1.4.7 2.62 1.63 3.61 2.76.49.66.74.96.87 1.11h.46v.72c0 .27-.04.55-.13.85-.28.79-.94 1.45-2.04 2.08-3.87 2.38-8.13 4.78-12.63 7.11-1.69.86-2.64 1.75-2.83 2.66-.21 1.09.64 2.39 2.53 3.83l5.79 4.35c1.69 1.39 2.65 2.57 2.96 3.62.32 1.25-.02 2.8-1.05 4.79-1.94 3.72-5.19 8.71-9.66 14.84-4.8 6.52-8.11 11.37-9.86 14.43l-1.34-.41Zm-111.55-157c-.41-.21-.88-.47-1.4-.78-1.81-1.2-3.41-2.91-4.79-5.08-1.73-2.72-3.01-5.7-3.79-8.86-.78-3.24-1.01-6.52-.67-9.75.31-3.23 1.2-6.38 2.67-9.34 1.54-2.98 3.53-5.55 5.92-7.67 2.52-2.14 5.13-3.52 7.77-4.11 1.03-.24 2.13-.36 3.26-.36 3.9 0 8.41 1.46 13.41 4.34 3.31 1.91 9.38 6.32 18.03 13.11 3 2.31 5.86 4.37 8.5 6.12 1.06.69 2.1 1.36 3.13 1.99 2.42 1.47 4.7 2.67 6.76 3.55.94.42 1.87.76 2.76 1.02l2.24.64-2.21.74c-.81.27-1.62.51-2.4.71-2.07.63-4.14 1.24-6.18 1.84-2.68.74-5.26 1.45-7.76 2.15-1.25.3-2.46.62-3.65.95a339 339 0 0 1-14.75 3.31c-6.17 1.17-10.79 2.05-13.85 2.65-4.79.93-8.99 1.9-12.49 2.89l-.27.08-.25-.12Zm98.14 152.42c-2.91-1.77-5.22-3.22-6.87-4.32-7.31-4.87-13.43-9.87-18.17-14.85-2.1-2.24-3.22-4.2-3.44-6.01-.22-1.62.22-3.34 1.3-5.11.69-1.14 1.84-2.5 3.41-4.04 1.4-1.34 2.32-2.49 2.75-3.43.28-.64.39-1.28.34-1.89-.03-.74-.23-1.29-.62-1.74-.32-.35-1.13-.88-3.23-1.38-4.41-1-8.59-2.19-12.42-3.52-1.8-.65-2.85-1.44-3.23-2.42-.1-.25-.15-.5-.15-.76v-.27l2.68-3.01c.9-.87 2.56-2.18 5.11-4.05 2.31-1.73 3.74-2.75 4.38-3.1.29-.15.99-.5 2.12-1.09l-.02-.07c2.11-1.14 4.4-2.24 6.81-3.28l.89-.38.11.96c.2 1.71.39 3.47.59 5.28.13.38.25.78.38 1.19 4.86 11.92 8.86 21.51 11.87 28.42l.07.17-.02.18c-.03.38-.05.79-.05 1.24 0 .9.08 1.67.23 2.28.43 1.96 1.51 3.39 3.3 4.39l.2.11.1.21c.36.76.7 1.44.99 2.04.56 1.13 1.25 2.44 2.04 3.93l.09.17v.2c-.21 4.7-.36 9.19-.46 13.34l-.03 1.25-1.06-.65Zm7.7 4.6c-.96-.6-1.89-1.15-2.77-1.63l-.37-.21v-8.42l1.35-.34c.67 1.23 1.38 2.55 2.15 3.95l.07.12.83 7.32-1.26-.78Z" class="k"/><path d="m117.45 198.8-.07-.03-.05-.04c-3.08-2.45-5.43-4.3-6.99-5.49-2.72-2.1-5.18-3.76-7.31-4.94-.61-.34-1.13-.65-1.55-.93l-.27-.18-.04-.32c-.2-1.43-.39-2.95-.55-4.52l-.23-1.39h.13q-.3-2.46-.6-5.31c-.33-2.93-.62-5.48-.85-7.65-.1-.65-.3-2.81-.6-6.57l-.11-1.32 1.17.63c.43.23.87.46 1.33.69 5.59 2.7 11.47 4.87 17.46 6.45 3.2.89 6.46 1.57 9.72 2.03l.62.09v.63c-.04 4.74-.07 7.97-.1 9.71l-.11 5.38-8.89 11.74-1.51 1.96-.6-.61Zm-9.29-39.87c-3.31-1.4-6.8-3.15-10.38-5.19-.44-.27-.86-.51-1.29-.74l-.74-.4.51-.67c2.51-3.26 4.27-5.73 5.26-7.34 1.26-2.07 2.94-4.6 5-7.52-3-.29-3.75-.43-4.04-.51-5.79-.93-11.62-3.23-17.24-6.84-3.56-2.28-7.03-5.09-10.32-8.34l-.22-.22v-.31c.04-2.38.16-4.54.36-6.42 0-.27.03-.65.11-1.05l.06-.33.29-.17c2.21-1.28 6.06-3.83 11.45-7.57l.15-.1.18-.02c.3-.04.56-.06.79-.06h.63l.08.63c.32 2.57.97 5.13 1.91 7.64.77 1.88 1.58 3.41 2.4 4.52 2.03 2.69 4.65 4.2 8.01 4.61l1.85.1c2.24-.03 4.69-.63 7.21-1.79 4.35-2.06 8.12-5.44 11.2-10.05 2.24-3.38 3.88-7.04 4.85-10.88.05-.19.13-.37.25-.53.06-.19.13-.4.23-.63v-.03l.08-.2c.13-.26.26-.53.39-.82l.92-2.06.44 2.22c.29 1.46.67 2.87 1.12 4.21.95 2.66 2.31 4.78 4.04 6.29 2.09 1.88 4.62 2.82 7.53 2.82 2.52 0 5.13-.84 7.77-2.49 2.72-1.76 5.07-4.24 6.97-7.36l.18-.3.35-.04c.91-.1 1.64-.17 2.18-.2 3.49-.26 7.05-.6 10.56-1 2.92-.24 5.9-.44 8.89-.6 2.32-.17 4.76-.33 7.29-.5 2.95-.27 5.96-.47 8.92-.6a46.5 46.5 0 0 1 6.84.1c.08 0 .26-.01.43-.01 4.39 0 7.08 2.31 7.77 6.67.17.99.3 2 .41 2.99l.16 1.56-1.29-.89c-.86-.6-1.88-1.28-3.04-2.04-.16-.12-.26-.19-.35-.25l-.31-.2v-.37c-.05-1.19-.19-1.47-.2-1.5-.2-.31-.89-.93-3.25-1.48-1.08-.25-3-.42-5.7-.48-.84-.03-1.67-.04-2.49-.04-1.91 0-3.82.08-5.68.24-2.71.2-4.56.33-5.56.4-4.93.26-8.65.6-11.08.99-2.44.36-3.98.63-4.58.79-.71.14-2.57.56-5.57 1.26-2.73.61-4.5 1.74-5.26 3.36l-.13.27-.28.1c-.34.12-.7.28-1.07.47l-.15.08h-.17s-.15.04-.36.2l-.05.04-.06.03c-1.86.98-4.53 2.77-7.95 5.34-3.67 2.75-6.56 4.96-8.58 6.58-3.15 2.63-5.95 5.26-8.32 7.83-1.54 1.67-3.12 3.59-4.7 5.69l-.36.48-.54-.27c-.38-.19-.82-.38-1.29-.58-2.07-.72-3.21-1.12-3.41-1.19-.85-.4-1.32-.63-1.47-.69-.22-.05-.42-.08-.58-.08-.13 0-.24.02-.31.05-.07.09-.13.21-.16.34 0 .04-.01.06.04.13l.04.05.03.05s.11.08.41.21l5.39 2.15c.07.01.25.07.45.15l.88.35-.58.75c-.65.85-1.3 1.77-1.91 2.75-1.15 1.65-2.61 3.82-4.36 6.46l-.27.4-.72-.15c-1.98-.47-2.56-.57-2.73-.59-.79-.11-1.55-.16-2.29-.16H110c.69.39 1.57.75 2.64 1.05.46.13 1.02.28 1.68.44l1 .25-.58.85c-.75 1.11-1.55 2.38-2.38 3.77-1.42 2.28-2.52 4.23-3.27 5.79l-.3.62z" class="l"/><path d="M53.49 176.97c-.43 0-.83-.09-1.17-.26-.7-.33-1.33-1-1.91-2.04-1.94-3.37-3.12-8.48-3.49-15.16-.83-13.94.69-28.72 4.52-43.92 1.36-5.53 3.17-11.57 5.37-17.96.78-2.39 1.87-5.47 3.21-9.14v-.59l.67-.05a380 380 0 0 0 16.6-4.33c6.13-1.79 12.91-3.97 20.16-6.49 10.06-3.39 20-6.88 29.54-10.4l.77-.28.18.79c.34 1.47.69 3.62 1.06 6.57.27 3.3.55 6.56.85 9.82l.06.61L87.18 95l-11.28 9.8q-.405.96-.66 2.37l-.41 1.78-.15.73-.05.29-.1.39c-.01.15-.03.29-.05.43l-.16.75c-.43 2-.78 4.03-1.04 6.04l-.3 2.3c-.49 4-.76 7.91-.79 11.66v1.04c0 1.78.13 4.82.4 9.05.23 4.07.33 7.3.3 9.61-.03 4.4-.57 7.86-1.61 10.27-.58 1.41-1.46 2.89-2.59 4.4-3.63 4.75-8 8.26-12.99 10.43-.84.4-1.58.6-2.24.6Z" class="l"/><path d="M112.21 211.12c-.17-.41-.27-.49-.27-.49l-.33-.32-.03-.33v-.49l.24-.21c.09-.08.16-.14.23-.2.15-.16.3-.37.46-.63l.99-1.54.84-.56.41.54c.11.14.23.32.38.53.12.2.34.61.69 1.26.1.18.2.34.29.45l.47.63-.67.42c-.49.31-1.06.75-1.7 1.32q-.27.225-.42.42l-.66.82zm7.53 49.06c-.19 0-.22 0-1.27-.53-.24-.12-.38-.18-.46-.21l-.79.26v-7.59l.95.31c.35.12.49.12.51.12h.11c.1 0 .13-.02.13-.02l.09-.07 1.34-.45v1c0 1.36.02 2.79.05 4.29 0 .77.02 1.47.05 2.13l.04.76h-.76Zm6.63-1.48c-.03-.63-.08-1.3-.15-2.02-.04-.35-.05-.71-.05-1.06-.1-.77-.17-1.6-.2-2.37l-.04-1.04.99.33h.07c.11 0 .3-.03.62-.12l.09-.02h.1l.28-.04.74-.12.09.75c.23 1.95.43 3.47.6 4.52.03.19.06.36.09.52l.21 1.06-1.05-.21s-.14.02-.57.17c-.26.08-.52.17-.82.29l-.93.38-.05-1.01Z" class="h"/><path d="M125.72 250.57c-.26-2.67-.55-5.26-.85-7.67-.72-5.5-1.58-10.38-2.54-14.47l-.02-.09-.36-.69.8-.27c.56-.19 1.11-.42 1.64-.7l1.06-.56v1.2c0 .18.03.39.08.64.8 3.64 1.55 8.61 2.21 14.78q.255 2.25.45 4.26c.17 1.56.33 2.98.5 4.28l.1.81h-.82c-.24 0-.49.04-.74.1-.13.07-.28.13-.44.2l-.9.36-.18-2.17Zm-.02-40.54c-.53-.41-1.09-.71-1.67-.88l-.92-.28 1.56-2.42.36-.36h.3c.22 0 .44.09.61.26q.36.36.48.45c.37.22 1.87 1.07 1.87 1.07l-.87.66s-.09.08-.29.4c-.13.32-.24.58-.33.81l-.37.86-.74-.57Zm-8.48 42.43c0-.68.02-1.36.05-2.04v-3.21c.03-3.91.1-7.87.2-11.77.03-2.16.08-4.33.15-6.5v-.06l.01-.06c.02-.11.04-.22.04-.31v-.82s1.33.17 1.57.21c.18.03.34.04.5.04h.83l-.12.82c-.03.2-.04.4-.04.6v.5c-.07 1.81-.08 4.61-.05 8.34 0 2.79.03 6.17.1 10.04v3.93l-1.92.86-1.32.37v-.95Z" class="h"/><path d="M123.32 203.1c-1.6-1.13-2.97-2.12-4.11-2.96l-.6-.44.46-.58c3.41-4.36 6.11-7.97 8.03-10.72l1.31-1.88v4.34l-.1 5.71c-.03 2.86-.05 5.74-.05 8.64v1.39l-4.94-3.51Zm3.64 8.1c-.08-.1-.16-.2-.23-.27l-.4-.4.29-.48c.13-.22.27-.4.41-.54l1.23-1.23v4.63l-1.29-1.71Zm-17.13-1.24c-2.86-6.38-5.62-12.95-8.21-19.53l-.04-.09-.31-3.09 1.42 1.4c2.46 1.66 6.73 4.97 12.75 9.85.51.44 1 .85 1.5 1.25l.54.43-.42.56c-1.05 1.41-1.9 2.61-2.52 3.56-1.05 1.58-2.21 3.5-3.42 5.7l-.7 1.26-.59-1.32Zm6.9-.88-.83-1-.04-.12c-.14-.4-.25-.55-.29-.6 0 0-.05-.03-.09-.06l-.11-.07-.49-.69-.9-.56 3.92-6.07 7.42 5.67-.58.58c-.08.08-.16.17-.23.28-.5.71-.86 1.27-1.04 1.66l-.19.74-.62-.07c-.39-.04-.84-.06-1.33-.06-.25 0-.5 0-.77.02-1.15.06-2.18.25-3.04.56l-.42.15-.37-.37Zm10.25 24.22c-.1-.55-.19-1.08-.26-1.59-.32-2.05-.69-3.61-1.1-4.62-.03-.05-.08-.14-.13-.22l-.37-.56.53-.41c.52-.4 1-.87 1.43-1.39l1.26-1.53.06 10.19-1.43.14Zm-16.46-21.89 1.78-2.85v2.51c0 .07.02.19.17.56.12.19.23.36.33.52l.29.48-.39.4c-.06.06-.12.13-.16.19l-.72 1.1-1.29-2.9Zm10.01 22.04v-.13q-.06-.69-.06-1.05c-.03-1.58-.07-2.81-.1-3.67l-.02-.61 1.87-.38.94 8.23-1.37.38-1.25-2.77Z" class="i"/><path d="M111.94 210.63h-1.49l1.26-1.25.09-.08 1.18-.96.05 1.47v1.91z" class="i"/><path d="M119.87 226.54c-.7 0-1.47-.09-2.29-.27a7 7 0 0 1-.74-.16c-1.55-.36-2.66-.88-3.36-1.58-1.07-1.03-1.61-2.68-1.61-4.91 0-1.66.26-3.07.76-4.2.17-.46.43-.91.74-1.3.36-.47.88-.99 1.6-1.6 1.36-1.15 2.48-1.83 3.42-2.09.61-.15 1.49-.23 2.69-.23.19-.03.45-.04.7-.04.38 0 .75.04 1.09.1 1.59.3 2.98 1.39 4.12 3.23.09.13.16.29.22.45l.04.11v.12s.04.06.06.08l.13.1.08.15c.16.31.28.63.35.95.09.25.22.85.22 2.57 0 .93-.09 1.75-.27 2.43-.34 1.32-1.37 2.69-3.13 4.17-.99.77-1.8 1.26-2.51 1.52l-.05.02s-.17.04-.23.05c-.26.22-.66.22-.99.22v.07l-.69.03h-.35Zm.6-12.5c-.63.03-1.2.18-1.75.47-.82.44-1.46 1.07-1.96 1.93-.5.83-.77 1.74-.8 2.71 0 .38.04.73.13 1.04l.02.09v.1c0 .05 0 .1.02.13.1.22.21.41.34.6.17.22.37.45.57.66.5.47 1.08.82 1.71 1.02.33.11.64.17.93.17s.53-.05.78-.15c.33-.17.76-.53 1.23-1.06 1.43-1.43 2.26-2.6 2.49-3.5.16-.54.2-.97.11-1.26-.12-.49-.38-.96-.8-1.43-.51-.57-.97-.98-1.37-1.2-.4-.2-.9-.31-1.46-.31h-.2Z" style="fill:#655517"/><path d="M119.69 222.77c-.32 0-.66-.06-.99-.18-.63-.2-1.28-.66-1.9-1.35-.38-.46-.63-.92-.76-1.39-.13-.49-.12-1.01.04-1.55.16-.96.63-1.84 1.38-2.63.82-.82 1.69-1.3 2.6-1.46.28-.07.59-.11.87-.11.48 0 .91.11 1.28.33.19.09.47.28 1.03.83.73.81 1.11 1.47 1.2 2.05.13.98-.32 2-1.38 3.15l-.78.92c-.49.5-.85.79-1.14.96-.43.28-.93.43-1.45.43" style="fill:#897b3d"/><path d="M165.11 164.1c-.18-.24-.29-.57-.34-1l-.1-1.59h-.05c-.03-.51-.05-1.06-.05-1.64-.03-.13-.05-.24-.05-.36v-.2c-.07-.88-.2-1.35-.29-1.57l-.06-.15v-.16c.04-.81.13-1.61.29-2.4-.02-.12 0-.23.02-.33.03-.91.08-1.66.15-2.22.23-1.21.62-2.2 1.18-2.98.72-.95 1.8-1.72 3.21-2.3.71-.29 1.91-.62 3.66-1.03 2.08-.46 5.27-1.29 9.47-2.44 3.01-.7 5.71-1.05 8.05-1.05.64 0 1.26.03 1.85.08h.01c.07 0 .22.02.4.07l-.18 1.42c-.2 0-.37.05-.52.14-.14.07-.24.14-.33.2-.01.11-.03.22-.05.33-.29 2.34-.64 4.29-1.01 5.74-.06.27-.13.55-.23.84l-.04.21-.1.3c-.2.64-.43 1.27-.67 1.85l-.04.08-.05.07c-.05.07-.07.12-.08.15l-.05.19-.08.08v.03l-.08.06-.19.19-.11.02-.99.55c-.16.11-.39.25-.64.39-1.08.7-2.32 1.4-3.63 2.07l-.15.1c-1.01.5-2.08 1-3.19 1.47-.88.37-1.8.73-2.74 1.07-1.51.58-4.6 1.64-9.17 3.16v.25l-.58.12q-.15.03-.27.09l-.08.04-.09.02c-.44.09-.85.21-1.22.33l-.49.16-.31-.42Zm42.56-39.16h-.07c-.96-.21-1.94-.32-2.93-.35l-1.65-.05.18-.18c-.75-.09-1.94-.22-3.83-.42-.44-.03-.88-.09-1.3-.16l-1.3-.22.89-.98c.33-.36.65-.73.98-1.13 2.28-2.7 4-5.32 5.1-7.78.59-1.37.98-3.28 1.14-5.65v-.05c0-.21.03-.4.09-.58l.31-.92.79.57c.27.19.53.42.79.68l.2.2q.18.18.36.42c.32.35.72.83 1.14 1.38l1.48 1.19-.88 10.48c-.21 1.06-.43 2.03-.67 3.01l-.13.55h-.69Zm-78.24 40.29c-2.54-.4-4.66-.81-6.31-1.21-2.64-.6-5.67-1.46-9-2.57-1.13-.37-2.29-.77-3.43-1.21l-.74-.28.46-.92.2-.39h.07c2.05-3.65 3.99-6.91 5.76-9.71l.26-.42 3.33.64c.32.09.56.13.75.13.12 0 .23-.02.31-.05.07-.03.14-.09.2-.17.04-.06.04-.1.04-.15-.01-.05-.08-.34-.87-.44h-.05l-3.2-.88.53-.82c.77-1.2 1.49-2.31 2.16-3.31 3.67-5.54 7.33-10.3 10.87-14.14 3.41-3.68 8.55-8.28 15.28-13.67 2.52-1.98 4.62-3.45 6.25-4.37.41-.24.82-.45 1.21-.63l.43-.26 1.49-.75v1.62c.03.35.1.77.21 1.21l1.06 1.06h-.8c.03.12.07.24.11.38.11.42.52 1.34 1.95 3.44 1.12 1.67 2.64 3.3 4.51 4.85.4.33.81.66 1.23.98l1.33 1.02-1.66.26c-2.54.4-5.15.88-7.76 1.44-.25.04-.45.08-.65.14l-.71-1.2.02-.05.05-.06c.06-.13.1-.22.12-.28v-.2c-.16-.22-.25-.23-.3-.23l-.13.07h-.21c-.49.01-1.08.28-1.76.79-.81.58-1.66 1.3-2.53 2.14-.17.17-.23.3-.26.38l-.02.08v.2l-.07.04-.06.21h-.33c-1.96.84-3.71 1.88-5.21 3.09-2.09 1.67-4.17 4.2-6.19 7.51-2.59 4.16-4.5 8.44-5.67 12.72l-.08.27-.24.15c-.77.47-1.47.93-2.1 1.37l2.26-1.13-.39 1.53c-.26 1-.45 2.03-.58 3.06-.39 2.65-.49 5.24-.3 7.7v1.15l-.83-.13Zm-36.27-12.99c-3.43-2.53-6.41-4.71-8.94-6.55-1.86-1.34-4.72-4.16-8.76-8.6l-.16-.18-.02-.24c-.1-1.21-.19-2.48-.25-3.82h.05l-.05-.79c-.2-3.13-.3-6.06-.3-8.69v-1.74l1.43 1.43c.64.67 1.29 1.32 1.94 1.94 1.49 1.33 3.4 2.83 5.67 4.44 3.53 2.38 6.82 4.21 9.76 5.42 3.23 1.3 6.62 2.2 10.07 2.65l1.21.16-11.05 15.01-.58-.43Z" style="fill:#794a66"/><path d="M101.94 119.61c-.35 0-.69 0-1.04-.03-2.12-.14-3.87-.79-5.22-1.92l-.48-.4 5.63-9.13c3.54-5.67 6.75-11.07 9.53-16.07l.15-.27 11.63-3.06-1.05 1.58c-2.51 3.76-4.92 7.68-7.17 11.66-1.51 2.66-3.96 7.23-7.29 13.58-.61 1.22-1.04 2.17-1.26 2.8-.08.2-.17.41-.27.65l-.16.37-.4.06c-.86.12-1.74.19-2.6.19Zm39.09-11.45c-.57 0-1.15-.05-1.71-.14-.86-.14-1.67-.38-2.42-.7l-.65-.28.27-.66c.37-.91.8-1.93 1.31-3.07.23-.56.48-1.15.75-1.75l1.2-2.75c.07-.18.17-.38.29-.58 2.91-6.76 5.41-12.29 7.37-16.34l.14-.29 10.03-2.85v1.46l-.11.18c-1.98 3.13-4.62 8.07-7.86 14.68l-1.35 2.8c-.92 1.88-1.76 3.66-2.49 5.28-.5 1.08-.97 2.08-1.4 3.01-.22.44-.39.86-.52 1.26l-.12.4-.41.09c-.77.16-1.54.24-2.3.24Z" style="fill:#686f7d"/><path d="M72.62 71.21a1.3 1.3 0 0 1-.26-.17c-.88-.56-1.92-1.24-3.07-2.03-1.27-.87-2.7-1.9-4.27-3.07l-.3-.22.13-4.31.51-.14c5-1.37 10.07-2.68 15.07-3.9 10.49-2.59 21.21-4.96 31.88-7.06.89-.2 1.7-.37 2.4-.5 1-.2 1.79-.35 2.36-.45l.49-.09.25.42c.4.66.81 1.31 1.23 1.91.93 1.46 1.9 2.84 2.88 4.12l.68.88-1.08.26c-.83.2-1.74.43-2.73.7-1.19.3-2.5.65-3.89 1.05-6.42 1.83-12.39 3.58-17.74 5.2l-.42.13-.02-.02c-4.19 1.21-8.11 2.35-11.75 3.44l-.23.1c-2.46.73-4.77 1.45-6.88 2.14-1.13.35-2.19.71-3.16 1.07l-.03.04-.17.05c-.39.12-.74.26-1.04.41l-.15.08h-.1l-.27.13-.32-.16Z" style="fill:#533118"/><path d="M160.25 114c-1.37-1.52-2.01-2.7-1.99-3.7l-.1-.48.14-.17c.03-.16.12-.46.25-.83l.08-.22.2-.13c.13-.08.26-.15.39-.2.64-.38 1.42-.7 2.32-.94 1.67-.56 3.72-1.1 6.03-1.61 2.31-.53 4.35-.91 6.07-1.11 1.66-.23 4.01-.45 6.99-.65 2.95-.23 6.2-.4 9.63-.5 1.52-.06 2.98-.09 4.33-.09 1.69 0 3.27.05 4.68.14 1.04.07 2.07.26 3.08.57.56.12.89.64.99 1.57v.85l-.03.11v.23l-.02.05c-.06.42-.11.8-.15 1.16l-.06.71-.71-.06c-1.49-.12-3.38-.19-5.61-.19-2.52 0-5.55.08-9 .24-6.52.3-12.36 1.08-17.36 2.33-4.93 1.21-8.03 2.23-9.22 3.05l-.52.35-.42-.47Z" style="fill:#d6dee8"/><path d="M139.79 177.26a26 26 0 0 1-2.67-5.35c-.03-.06-.06-.14-.08-.23-.43-1.27-.79-2.59-1.05-3.92-.16-.68-.28-1.4-.35-2.13q-.06-.195-.06-.42c-.13-1.06-.22-2.26-.25-3.48-.14-5.61 1.13-11.57 3.76-17.7 2.72-6.18 6.21-10.63 10.38-13.23 2.64-1.61 6.12-2.8 10.36-3.55 2.14-.4 4.81-.74 7.91-1.01h.21c3.93-.37 8.81-.62 14.43-.75 4.48-.12 7.97-.18 10.38-.18.97 0 1.77 0 2.41.03h.11c1.19.05 1.55.12 1.75.19.51.11 2.78.46 6.68 1.02l1.45.31c.55.14 1.1.27 1.66.4l.2.05.05.05c1.02.26 2.05.57 3.06.92q.63.24 1.02.33l.1.02.09.05c.39.21.76.44 1.12.69.97.61 1.71 1.36 2.17 2.2.56 1 .87 2.35.94 4.11.1 2.69-.02 5.77-.35 9.15-.17 1.85-.56 4.81-1.2 9.04-.47 3.23-.89 5.64-1.26 7.16-.23 1.04-.81 3.07-1.76 6.19-.29 1.01-.54 1.95-.74 2.8l-.12.52-.54.03c-1.08.06-2.39.2-3.9.4-2.34.31-3.94.49-4.89.55-.54.03-1.05.05-1.55.05-3.4 0-6.19-.73-8.3-2.17-.49-.32-.8-.61-.99-.9-.53-.84-.56-2-.09-3.56.79-2.64 1.5-5.27 2.09-7.81.07-.23.11-.39.14-.56.04-.22.09-.43.17-.63.2-.98.65-3.16.65-3.16l.22-.16c.07-.05.15-.11.23-.16.3-1.71.53-3.33.68-4.83l-.23-.91c-.05-.19-.07-.38-.07-.57-.03-.47-.17-.91-.43-1.3-.21-.35-.44-.54-.7-.59l.24-1.42 2.1.25c.82.1 1.56.15 2.18.15h.67c.49-.09.64-.23.68-.29s0-.08-.03-.24l-.02-.09s-.03-.06-.04-.09c-.04-.04-.07-.09-.11-.13-.2-.13-.57-.29-1.23-.39-.79-.13-1.79-.19-2.97-.19s-2.64.07-4.27.2c-3.48.4-5.59.63-6.29.7-1.47.23-2.92.49-4.26.79l-10.57 2c-1.45.29-2.52.56-3.18.82-1.1.37-1.94.87-2.52 1.51-.98.98-1.67 2.7-2.07 5.13-.29 1.98-.44 4.21-.44 6.63 0 .95.06 1.84.19 2.64v.26c.1.56.21 1.07.33 1.52l.03.1-.1 3.06v.13c-.04.78-.11 1.39-.22 1.9-.13.47-.26.82-.43 1.11-.37.78-1.12 1.56-2.27 2.34-4.57 3.23-9.8 4.88-15.56 4.88h-.36c-.24-.01-.44-.02-.63-.02-.36 0-.69.02-.96.06l-.45.06-.25-.38Z" style="fill:#532f45"/><path d="M193.79 206.52c-.33-1-.68-1.88-1.05-2.65v-.05c-.17-.3-.33-.6-.5-.9l4.5-2.35c1.1-.57 1.92-1.12 2.45-1.65q1.2-1.35 1.2-3.15c-.03-1.57-.83-2.95-2.4-4.15-1.6-1.27-3.8-2.38-6.6-3.35-1.9-.63-3.78-1.18-5.65-1.65l-10.3-1.4q-11.895-1.095-19.95.6c-2.73-1.47-5.92-2.73-9.55-3.8-.6-.17-1.27-.33-2-.5 2.07.27 4.43.07 7.1-.6 3.8-.97 7.15-2.53 10.05-4.7 1.77-1.33 2.98-2.75 3.65-4.25.43-.93.7-2.13.8-3.6 1.43 0 3.7-.45 6.8-1.35 3.9-1.23 6.92-2.27 9.05-3.1 1.6-.6 3.08-1.23 4.45-1.9-.7 1.7-1.37 3.47-2 5.3q-.15 1.995.45 3.3c.43.93 1.23 1.85 2.4 2.75 2.1 1.67 4.5 2.88 7.2 3.65q4.005 1.095 8.1.6c2.33-.27 4.27-.87 5.8-1.8.27-.17.53-.35.8-.55.03.53.15 1 .35 1.4 1.4-.17 2.63-.88 3.7-2.15.77-.9 1.5-2.18 2.2-3.85 2.73-6.47 4.53-14.75 5.4-24.85.37-4.6.3-8.3-.2-11.1q-.705-3.9-2.55-6c-.97-1.07-2.37-2-4.2-2.8-.07-.03-.13-.07-.2-.1v-.2c1.4-6.1 2.08-12.25 2.05-18.45-.03-6.13-2.6-10.58-7.7-13.35-1.07-.3-2.52-.48-4.35-.55-2.57-.1-6.75-.12-12.55-.05-2.3 0-4.8.08-7.5.25-4.13.23-8.73.62-13.8 1.15-3.27.33-6.6.73-10 1.2.8-2.53 1.23-5.13 1.3-7.8v-1.45c.03-.53.07-1.1.1-1.7l-1.1-9-27.05 6.9c-.43-4.23-.77-8.52-1-12.85l-.35-2.55c-.07-.5-.15-.97-.25-1.4 1.13-.4 2.25-.82 3.35-1.25q8.295-3.15 13.2-5.25c.17-.03.35-.08.55-.15.83-.27 2.18-.78 4.05-1.55 4.6-1.93 7.97-3.43 10.1-4.5q9.75-5.205 10.2-5.4c.03-.07.67-2.08 1.9-6.05 1.27-4.4 1.98-7.7 2.15-9.9.17-2.93-.05-5.35-.65-7.25-.9-2.7-2.38-4.5-4.45-5.4q-3.945-1.755-9.6 1.5c-5.5 3.23-10.28 8.35-14.35 15.35-1.77 3.03-3.72 7.2-5.85 12.5-1.17.2-2.5.53-4 1-2.07.73-3.63 1.27-4.7 1.6l-7.85 2.5c-.13.03-.27.08-.4.15 0-.07-.02-.12-.05-.15-.43-.8-1.38-2.52-2.85-5.15.2-.1.43-.2.7-.3.37-.17.63-.42.8-.75.23-.3.23-.57 0-.8-.8.1-1.58.23-2.35.4-3.37-6-6.85-13.5-10.45-22.5-1.63-4.03-2.57-6.33-2.8-6.9q-1.695-3.855-3.3-6.6c-1.17-1.93-2.38-2.93-3.65-3-1.53-.07-2.92 1.23-4.15 3.9-2.03 4.73-3.35 9.73-3.95 15-1.7-1.23-3.27-3.32-4.7-6.25-.8-1.67-2.02-4.13-3.65-7.4-1.07-1.73-2.2-2.78-3.4-3.15-1.57-.5-3.27-.02-5.1 1.45-2.23 1.77-4.33 4.85-6.3 9.25a87 87 0 0 0-4.05 10.95c-.1.13-.17.28-.2.45-1.07 3.47-1.97 7.45-2.7 11.95-.37 2.53-.87 6.6-1.5 12.2q-.105 1.005 0 3.15.045 2.055.15 2.4c-.93-.73-1.92-1.48-2.95-2.25-6.13-4.73-11.07-8.2-14.8-10.4-7.8-4.63-14.63-6.23-20.5-4.8-3.37.77-6.6 2.6-9.7 5.5-2.5 2.33-4.57 5.05-6.2 8.15a31.2 31.2 0 0 0-3.25 9.8c-.5 3.4-.45 6.83.15 10.3.67 3.5 1.82 6.73 3.45 9.7 1.73 3.13 3.8 5.55 6.2 7.25.67.43 1.35.83 2.05 1.2l.05.05c.17.17.38.27.65.3.17.07.37.13.6.2.9-.13 2.83-.57 5.8-1.3 1.37-.37 4.1-.92 8.2-1.65l3.6-.55c.87-.13 1.67-.15 2.4-.05 7.33-1.33 14.2-2.72 20.6-4.15-2.33 5.4-4.5 11.57-6.5 18.5-.23.73-.42 1.45-.55 2.15-1.93 6.23-3.48 12.15-4.65 17.75-1.17 5.5-1.95 10.93-2.35 16.3-.33 3.27-.48 6.53-.45 9.8-.07 1.4-.07 2.82 0 4.25.2 8.13 1.5 14.67 3.9 19.6.97 2.2 2.12 3.72 3.45 4.55.67.37 1.48.62 2.45.75 1.4.03 3.08-.37 5.05-1.2 4.8-2.2 9.18-5.77 13.15-10.7 2.47-2.93 4.15-5.9 5.05-8.9.57-2.17.87-4.95.9-8.35-.03-.83-.05-1.68-.05-2.55l-.2-4.55c-.02-.55-.03-1.12-.05-1.7q3.75 3.75 8.1 7.05c3.27 2.5 6.65 4.8 10.15 6.9l1.8 19.85c-.07.03-.13.07-.2.1-.13-.07-.25-.12-.35-.15 0 .07-.02.15-.05.25v.05c-.07 0-.13.02-.2.05q-.15.045-.3.15c-3.13 1.5-5.88 2.93-8.25 4.3l-1.85.9c-.5.27-1.12.67-1.85 1.2-1.3 0-2.7.07-4.2.2-4.07.37-8.88 1.08-14.45 2.15-6.1 1.2-11.27 2.47-15.5 3.8-5.53 1.7-10.42 3.77-14.65 6.2-1.3.7-2.12 1.45-2.45 2.25-.47 1.07-.33 2.27.4 3.6.77 1.47 2.05 2.75 3.85 3.85.7.43 2.82 1.37 6.35 2.8-.03.07-.05.13-.05.2-.25.84-.49 1.79-.72 2.83.93 1.68 1.92 3.35 2.94 4.99.28-2.24.57-4.49.88-6.77.1-.8.03-1.48-.2-2.05-.03-.13-.05-.22-.05-.25h.05c-1.7-1.33-2.77-2.13-3.2-2.4l-5-3q-1.845-1.095-1.5-2.25c.1-.43.57-.82 1.4-1.15 6.37-2.7 13.42-4.93 21.15-6.7q8.445-1.95 19.05-3.3c-.27.2-.53.42-.8.65-.6.53-2.13 2.02-4.6 4.45-.23.87-.27 1.68-.1 2.45q.495 2.7 3.45 4.5c1.13.7 2.95 1.38 5.45 2.05l12.35 3.25c-.4.73-1.92 2.65-4.55 5.75-1.97 2.27-3.05 4.33-3.25 6.2-.33 3.13 1.4 6.6 5.2 10.4 4.7 4.77 10.48 9.43 17.35 14 2.27 1.5 5.02 3.22 8.25 5.15-.1 3.67-.15 7.03-.15 10.1l5.1 1.85v-9q1.5.855 3.15 1.8l.45 4.1c.07.63.15 1.35.25 2.15l2.85-.55c.16 2.52.3 5.13.42 7.81.68-.01 1.35-.04 2.02-.07-.16-2.87-.35-5.57-.59-8.09v-.05l1.05-.2q-.255-2.145-.45-4.2l20.05-27.6c1.43-1.97 2.45-3.58 3.05-4.85.87-1.9 1.15-3.68.85-5.35-.4-2.13-1.78-4.18-4.15-6.15-.6-.5-1.62-1.25-3.05-2.25q-1.995-1.35-3-2.25l11.05-6.25q2.745-1.545 4.05-2.85c1.33-1.23 2.05-2.58 2.15-4.05v-.3c.17 0 .03-.37-.4-1.1-.6-1-.98-1.77-1.15-2.3-.1-.3-.2-.57-.3-.8.3-.03.62-.05.95-.05 2.87-.13 5.02-.22 6.45-.25 3.37-.03 8.03.33 14 1.1.1 0 .18.02.25.05q6.045 1.005 9.45 2.25c2.57.9 4.6 2.13 6.1 3.7l-7.35 4.05-.55.2c1.6 7.17 2.67 12.15 3.2 14.95.6 3.67 1.07 8.18 1.4 13.55.14 2.5.26 5.24.35 8.2 1.03-1.13 2.05-2.28 3.06-3.47.35-.41.68-.82 1.02-1.23-.05-1-.11-1.94-.18-2.8-.7-8.7-2.03-16.3-4-22.8m-118.05-73.7c.03.23.06.47.1.7-.03-.23-.05-.47-.05-.7l-.05-.8c-.2-3.13-.3-6.02-.3-8.65l.2.2q.945 1.005 1.95 1.95c1.53 1.37 3.45 2.87 5.75 4.5 3.6 2.43 6.9 4.27 9.9 5.5 3.3 1.33 6.72 2.23 10.25 2.7l-9.9 13.45c-3.43-2.53-6.42-4.72-8.95-6.55-1.8-1.3-4.68-4.13-8.65-8.5-.1-1.2-.18-2.47-.25-3.8m-1.75-23.25c-.02.1-.03.2-.05.3-.03.13-.07.27-.1.4-.01.15-.03.3-.05.45l-.15.7a81 81 0 0 0-1.05 6.1l-.3 2.3v.05c-.5 4-.77 7.9-.8 11.7v1.05c0 1.8.13 4.83.4 9.1.23 4.07.33 7.25.3 9.55-.03 4.33-.55 7.67-1.55 10-.57 1.37-1.4 2.78-2.5 4.25-3.57 4.67-7.8 8.07-12.7 10.2-1.2.57-2.13.68-2.8.35-.57-.27-1.1-.85-1.6-1.75-1.9-3.3-3.03-8.25-3.4-14.85-.83-13.93.67-28.5 4.5-43.7 1.37-5.53 3.15-11.5 5.35-17.9.8-2.43 1.88-5.52 3.25-9.25v-.05h.05c4.07-.97 7.95-1.95 11.65-2.95 1.73-.47 3.42-.93 5.05-1.4 6.17-1.8 12.9-3.97 20.2-6.5 10.1-3.4 19.95-6.87 29.55-10.4.33 1.43.68 3.6 1.05 6.5.27 3.27.55 6.53.85 9.8l-42.3 10.75-10.7 9.3c0-.1-.02-.2-.05-.3 0-.1-.02-.18-.05-.25l-.2.25q-.105.15-.15.3c-.5.8-.88 1.93-1.15 3.4l-.4 1.75q-.075.36-.15.75m-66-39.45c.3-3.17 1.17-6.2 2.6-9.1 1.5-2.9 3.42-5.38 5.75-7.45 2.43-2.07 4.92-3.38 7.45-3.95 4.47-1.03 9.85.27 16.15 3.9 3.3 1.9 9.28 6.25 17.95 13.05q4.545 3.495 8.55 6.15c1.07.7 2.12 1.37 3.15 2 2.47 1.5 4.75 2.7 6.85 3.6q1.455.645 2.85 1.05c-.8.27-1.58.5-2.35.7-2.1.63-4.17 1.25-6.2 1.85-2.67.73-5.25 1.45-7.75 2.15-1.23.3-2.45.62-3.65.95q-7.695 1.905-14.7 3.3c-6.17 1.17-10.78 2.05-13.85 2.65-4.83.93-9.02 1.9-12.55 2.9q-.6-.3-1.35-.75c-1.7-1.13-3.22-2.75-4.55-4.85a29 29 0 0 1-3.7-8.65c-.77-3.17-.98-6.33-.65-9.5m162.2-46.5c.8.57 1.37 1.53 1.7 2.9.57 2.07.7 4.38.4 6.95q-.195 2.85-1.35 6.9c-.53 1.9-1.12 3.82-1.75 5.75-.3.1-3.93 1.63-10.9 4.6-7.67 3.23-13.18 5.47-16.55 6.7.7-1.5 2.02-4.43 3.95-8.8 1.8-3.9 3.37-7.07 4.7-9.5 4.17-7.23 8.93-12.25 14.3-15.05 2.3-1.3 4.13-1.45 5.5-.45m-30.2 28.9c-2.27 4.53-3.4 6.82-3.4 6.85-.3.13-2.75 1.02-7.35 2.65-1.13.37-2.37.8-3.7 1.3-8.5 3-21.85 7.72-40.05 14.15-3.87-1.87-7.38-3.75-10.55-5.65 1.03-.4 2.1-.78 3.2-1.15 2.13-.77 4.45-1.52 6.95-2.25q5.55-1.755 12.3-3.45c0-.03.02-.05.05-.05 5.2-1.33 12.93-3.48 23.2-6.45h.05q2.445-.705 4.65-1.35c6.57-1.93 10.67-3.17 12.3-3.7zm-19.5 37.4q-3.795 5.7-7.2 11.7c-1.53 2.7-3.97 7.23-7.3 13.6-.63 1.27-1.07 2.23-1.3 2.9-.07.17-.15.37-.25.6-1.17.17-2.33.22-3.5.15-1.97-.13-3.57-.72-4.8-1.75l5.3-8.6c3.57-5.7 6.75-11.07 9.55-16.1zm-1.9-33.05q-1.8.45-3.9 1.05c-6.43 1.83-12.35 3.57-17.75 5.2-.03-.03-.05-.03-.05 0q-6.6 1.905-12.3 3.6l-.05.05c-2.47.73-4.77 1.45-6.9 2.15-1.17.37-2.25.73-3.25 1.1-.03 0-.07.02-.1.05-.43.13-.82.28-1.15.45-.07 0-.13.02-.2.05a.5.5 0 0 1-.15-.1c-.9-.57-1.93-1.25-3.1-2.05-1.27-.87-2.68-1.88-4.25-3.05l.1-3.4c5-1.37 10.02-2.67 15.05-3.9a676 676 0 0 1 31.85-7.05c.9-.2 1.7-.37 2.4-.5 1-.2 1.78-.35 2.35-.45.4.67.82 1.32 1.25 1.95.93 1.47 1.9 2.85 2.9 4.15-.83.2-1.75.43-2.75.7m-10.25-7.55c-4.7.9-9.58 1.93-14.65 3.1q-3.255.75-6.9 1.65c-6.13 1.5-13.25 3.33-21.35 5.5-.23-5.7.17-11.43 1.2-17.2a78 78 0 0 1 6.6-20.4c1.53-3.1 3.05-5.38 4.55-6.85.67-.6 1.22-.87 1.65-.8.5.07.93.45 1.3 1.15 1.77 3.8 3.1 6.62 4 8.45q2.445 4.845 5.55 6.9 2.145 1.5 3.75.75c.93-.4 1.67-1.38 2.2-2.95.2-.67.77-3.37 1.7-8.1.63-3.23 1.58-5.7 2.85-7.4q2.205 4.605 5.25 12.15c2.7 6.83 4.33 10.93 4.9 12.3 1.63 3.8 3.32 7.25 5.05 10.35-2.5.4-5.05.87-7.65 1.4m-6.2 95.65c1.4-2.3 3.3-5.13 5.7-8.5-2.97-.27-4.68-.47-5.15-.6-5.8-.93-11.48-3.18-17.05-6.75q-5.295-3.405-10.2-8.25c.03-2.37.15-4.48.35-6.35 0-.3.03-.63.1-1 2.23-1.3 6.07-3.83 11.5-7.6.27-.03.5-.05.7-.05q.495 3.945 1.95 7.8c.8 1.97 1.63 3.53 2.5 4.7 2.13 2.83 4.97 4.47 8.5 4.9.6.03 1.23.07 1.9.1 2.4-.03 4.92-.65 7.55-1.85 4.5-2.13 8.33-5.57 11.5-10.3q3.45-5.205 4.95-11.1c.03-.13.1-.25.2-.35.07-.23.17-.52.3-.85v-.05c.13-.27.27-.55.4-.85.3 1.5.68 2.93 1.15 4.3 1 2.8 2.42 5 4.25 6.6 2.23 2 4.9 3 8 3 2.67 0 5.38-.87 8.15-2.6 2.83-1.83 5.23-4.37 7.2-7.6.9-.1 1.62-.17 2.15-.2 3.53-.27 7.07-.6 10.6-1q4.35-.345 8.85-.6c2.33-.17 4.77-.33 7.3-.5 2.97-.27 5.93-.47 8.9-.6 2.27-.13 4.52-.1 6.75.1 4.37-.17 6.88 1.85 7.55 6.05.17 1 .3 1.98.4 2.95-.87-.6-1.88-1.28-3.05-2.05-.13-.1-.25-.18-.35-.25-.03-.97-.13-1.58-.3-1.85-.47-.73-1.7-1.33-3.7-1.8-1.13-.27-3.08-.43-5.85-.5-2.8-.1-5.55-.03-8.25.2-2.7.2-4.55.33-5.55.4-4.97.27-8.68.6-11.15 1-2.47.37-4.02.63-4.65.8-.67.13-2.52.55-5.55 1.25-2.97.67-4.88 1.92-5.75 3.75-.37.13-.75.3-1.15.5-.23 0-.5.12-.8.35-1.9 1-4.58 2.8-8.05 5.4-3.7 2.77-6.57 4.97-8.6 6.6-3.2 2.67-6 5.3-8.4 7.9-1.57 1.7-3.15 3.62-4.75 5.75q-.6-.3-1.35-.6l-3.45-1.2c-.97-.47-1.47-.7-1.5-.7-.7-.17-1.22-.13-1.55.1-.2.2-.33.45-.4.75-.07.27 0 .52.2.75.1.17.35.33.75.5l5.4 2.15q.195.045.45.15c-.67.87-1.32 1.8-1.95 2.8q-1.695 2.445-4.35 6.45l-.25-.05c-1.53-.37-2.47-.57-2.8-.6-1.47-.2-2.88-.22-4.25-.05.77.97 2.2 1.75 4.3 2.35.47.13 1.03.28 1.7.45-.77 1.13-1.57 2.4-2.4 3.8q-2.145 3.45-3.3 5.85c-3.3-1.4-6.73-3.12-10.3-5.15-.43-.27-.87-.52-1.3-.75 2.53-3.3 4.3-5.77 5.3-7.4m38.55-46.35c2.97-6.87 5.43-12.33 7.4-16.4l8.8-2.5v.3c-2 3.17-4.63 8.08-7.9 14.75l-1.35 2.8c-.93 1.9-1.77 3.67-2.5 5.3-.5 1.07-.97 2.07-1.4 3-.23.47-.42.92-.55 1.35-1.27.27-2.52.3-3.75.1-.8-.13-1.55-.35-2.25-.65.37-.9.8-1.92 1.3-3.05.23-.57.48-1.15.75-1.75l1.2-2.75c.07-.17.15-.33.25-.5m73.8 46.15q-.255 2.745-1.2 9c-.47 3.23-.88 5.6-1.25 7.1-.23 1.03-.82 3.08-1.75 6.15q-.45 1.545-.75 2.85c-1.1.07-2.42.2-3.95.4-2.3.3-3.92.48-4.85.55-3.97.23-7.1-.43-9.4-2-.4-.27-.67-.5-.8-.7-.4-.63-.4-1.62 0-2.95.8-2.67 1.5-5.28 2.1-7.85q.105-.3.15-.6c.045-.3.08-.38.15-.55.2-1 .4-1.98.6-2.95q.195-.15.45-.3.495-2.805.75-5.25v-.3c.03-.33.05-.65.05-.95q-.15.045-.3.15c-.03-.13-.05-.27-.05-.4a3.33 3.33 0 0 0-.55-1.7c-.3-.5-.68-.8-1.15-.9.57.07 1.27.15 2.1.25 1.07.13 1.98.18 2.75.15h.25c.63-.1 1.05-.32 1.25-.65.1-.2.12-.45.05-.75 0-.07-.02-.13-.05-.2a.5.5 0 0 1-.05-.15c-.1-.13-.2-.25-.3-.35-.37-.27-.9-.45-1.6-.55-1.63-.27-4.1-.27-7.4 0-3.5.4-5.6.63-6.3.7-1.53.23-2.98.5-4.35.8l-10.55 2c-1.5.3-2.6.58-3.3.85-1.2.4-2.13.97-2.8 1.7-1.07 1.07-1.82 2.9-2.25 5.5q-.45 3.045-.45 6.75c0 1 .07 1.92.2 2.75v.2c.1.6.22 1.15.35 1.65l-.1 2.95v.15c-.03.7-.1 1.28-.2 1.75-.1.37-.22.67-.35.9-.33.7-1.02 1.4-2.05 2.1-4.57 3.23-9.73 4.82-15.5 4.75-.67-.03-1.23-.02-1.7.05a25.3 25.3 0 0 1-2.6-5.2.5.5 0 0 1-.05-.15q-.645-1.905-1.05-3.9c-.17-.7-.28-1.42-.35-2.15a.6.6 0 0 1-.05-.25 39 39 0 0 1-.25-3.5c-.13-5.53 1.1-11.33 3.7-17.4 2.67-6.07 6.03-10.37 10.1-12.9 2.57-1.57 5.93-2.72 10.1-3.45 2.13-.4 4.75-.73 7.85-1h.15c4-.37 8.82-.62 14.45-.75q9.45-.255 12.75-.15h.1c.83.03 1.35.08 1.55.15.6.13 2.87.48 6.8 1.05l1.4.3c.53.13 1.08.27 1.65.4l.05.05c1.07.27 2.13.58 3.2.95.43.17.8.28 1.1.35.37.2.72.42 1.05.65q1.35.855 1.95 1.95c.5.9.78 2.17.85 3.8.1 2.67-.02 5.68-.35 9.05m-26.05 9.25h-.1v.05c-.3.17-.63.35-1 .55-.2.13-.42.27-.65.4-1.13.73-2.37 1.43-3.7 2.1l-.05.05c-1 .5-2.05.98-3.15 1.45q-1.305.555-2.7 1.05-2.355.9-9.6 3.3h-.05v.2q-.255.045-.45.15c-.47.1-.9.22-1.3.35-.1-.13-.17-.35-.2-.65l-.1-1.6s-.05.02-.05.05c-.03-.53-.05-1.1-.05-1.7a1 1 0 0 1-.05-.25v-.2c-.07-.83-.18-1.45-.35-1.85.03-.83.13-1.65.3-2.45q-.045-.105 0-.15c.03-.97.08-1.73.15-2.3.2-1.07.55-1.95 1.05-2.65.63-.83 1.6-1.52 2.9-2.05.67-.27 1.85-.6 3.55-1 2.1-.47 5.27-1.28 9.5-2.45 3.73-.87 6.95-1.18 9.65-.95.07 0 .17.02.3.05-.33 0-.63.08-.9.25-.27.13-.48.3-.65.5 0 .17-.02.33-.05.5-.3 2.37-.63 4.27-1 5.7-.07.3-.15.6-.25.9v.1c-.03.1-.07.2-.1.3-.2.63-.42 1.23-.65 1.8-.1.13-.17.27-.2.4zm-31.45 39.35c0 .2-.03.42-.1.65-.2.57-.77 1.12-1.7 1.65-3.9 2.4-8.1 4.77-12.6 7.1-1.9.97-2.97 2.02-3.2 3.15-.27 1.4.67 2.92 2.8 4.55l5.8 4.35c1.53 1.27 2.43 2.35 2.7 3.25.27 1.03-.07 2.45-1 4.25-1.93 3.7-5.13 8.62-9.6 14.75-4.83 6.57-8.13 11.4-9.9 14.5.3-3.83.67-8.18 1.1-13.05.17-8 .28-19 .35-33l.1-22.95 1.55.5c.1.03.2.07.3.1 1.13.4 4.35 1.37 9.65 2.9 3.93 1.1 7 2.22 9.2 3.35 1.33.67 2.47 1.53 3.4 2.6.67.9 1.05 1.35 1.15 1.35m-29.9 65.3c-.03-.63-.08-1.32-.15-2.05-.03-.33-.05-.67-.05-1-.1-.83-.17-1.63-.2-2.4.1.03.18.05.25.05.2 0 .48-.05.85-.15h.1l.3-.05c.23 1.97.43 3.48.6 4.55.03.2.07.38.1.55-.17-.03-.48.03-.95.2-.23.07-.52.17-.85.3m-1.5-15.85q-1.095-8.355-2.55-14.55c0-.07-.02-.13-.05-.2.6-.2 1.18-.45 1.75-.75 0 .23.03.5.1.8.8 3.63 1.53 8.53 2.2 14.7.17 1.5.32 2.92.45 4.25.17 1.57.33 3 .5 4.3-.33 0-.67.05-1 .15-.13.07-.28.13-.45.2-.03-.4-.07-.8-.1-1.2-.27-2.7-.55-5.27-.85-7.7m-5.95-4.6c0 2.8.03 6.15.1 10.05v3.45l-1.45.65-.35.1c0-.67.02-1.33.05-2v-3.25c.03-3.9.1-7.82.2-11.75.03-2.17.08-4.33.15-6.5.03-.17.05-.32.05-.45.27.03.52.07.75.1.2.03.4.05.6.05-.03.23-.05.47-.05.7v.5c-.07 1.8-.08 4.58-.05 8.35m9.9-73.95v.25c-2.53-.4-4.62-.8-6.25-1.2-2.63-.6-5.62-1.45-8.95-2.55-1.13-.37-2.27-.77-3.4-1.2.03-.07.07-.13.1-.2h.05c2.13-3.8 4.12-7.15 5.95-10.05.87.17 1.82.35 2.85.55.6.17 1.08.18 1.45.05.23-.1.42-.25.55-.45s.18-.42.15-.65q-.195-.9-1.5-1.05l-2.2-.6c.77-1.2 1.48-2.3 2.15-3.3 3.67-5.53 7.27-10.22 10.8-14.05 3.4-3.67 8.47-8.2 15.2-13.6 2.5-1.97 4.55-3.4 6.15-4.3.4-.23.78-.43 1.15-.6.17-.1.33-.2.5-.3.13-.07.27-.13.4-.2v.45c.03.47.12.95.25 1.45-.03.03-.03.07 0 .1-.03 0-.03.03 0 .1.03.1.15.5.35 1.2.17.67.85 1.88 2.05 3.65 1.17 1.73 2.72 3.4 4.65 5 .4.33.82.67 1.25 1-2.57.4-5.17.88-7.8 1.45-.23.03-.47.08-.7.15.1-.1.17-.2.2-.3.1-.2.17-.37.2-.5v-.3a.73.73 0 0 0-.15-.4c-.2-.33-.47-.52-.8-.55-.17-.03-.32-.02-.45.05-.63.03-1.35.35-2.15.95-.83.6-1.7 1.33-2.6 2.2-.23.23-.38.47-.45.7h-.05v.05c-2.03.87-3.83 1.93-5.4 3.2-2.17 1.73-4.28 4.3-6.35 7.7-2.63 4.23-4.55 8.53-5.75 12.9-1.2.73-2.23 1.43-3.1 2.1q-.45.405-.45 1.65c.27-.07.43-.12.5-.15.1-.03.53-.3 1.3-.8q.705-.345 1.2-.6-.405 1.545-.6 3.15c-.4 2.7-.5 5.32-.3 7.85m2.9 11.3c.63 1.33 1.35 2.5 2.15 3.5-.2-.07-.38-.13-.55-.2-.9-.2-1.67-.3-2.3-.3l-.2-5.1q.405 1.05.9 2.1m26.5-65.55s.04-.06.05-.1c.03-.2.12-.48.25-.85q.15-.105.3-.15c.6-.37 1.33-.67 2.2-.9 1.7-.57 3.7-1.1 6-1.6 2.3-.53 4.3-.9 6-1.1 1.67-.23 3.98-.45 6.95-.65 2.97-.23 6.17-.4 9.6-.5 3.43-.13 6.42-.12 8.95.05 1 .07 1.98.25 2.95.55.23.03.38.35.45.95v.65c-.03.1-.05.2-.05.3v.1q-.105.645-.15 1.2c-3.23-.27-8.13-.25-14.7.05-6.6.3-12.43 1.08-17.5 2.35q-7.545 1.845-9.45 3.15-1.905-2.1-1.8-3.3c-.02-.06-.04-.12-.05-.2m-38.05 115.7c-.47.03-.7.07-.7.1-.73.03-1.55-.05-2.45-.25-.23-.03-.47-.08-.7-.15-1.43-.33-2.45-.8-3.05-1.4-.93-.9-1.4-2.37-1.4-4.4 0-1.57.23-2.87.7-3.9.17-.43.38-.82.65-1.15q.495-.645 1.5-1.5 1.905-1.605 3.15-1.95c.53-.13 1.37-.2 2.5-.2.6-.07 1.15-.05 1.65.05 1.4.27 2.62 1.23 3.65 2.9q.105.15.15.3c0 .1.02.18.05.25.07.17.17.3.3.4.13.27.23.53.3.8.13.4.2 1.2.2 2.4 0 .87-.08 1.62-.25 2.25-.3 1.17-1.27 2.43-2.9 3.8-.9.7-1.67 1.17-2.3 1.4-.17.03-.33.08-.5.15.07.07-.12.1-.55.1m-20.25-50.15c-.33-2.93-.62-5.48-.85-7.65-.1-.67-.3-2.85-.6-6.55.43.23.88.47 1.35.7a98 98 0 0 0 17.6 6.5c3.23.9 6.5 1.58 9.8 2.05-.03 4.73-.07 7.97-.1 9.7-.03 1.7-.07 3.42-.1 5.15l-8.75 11.55-1 1.3a.7.7 0 0 0-.2-.15c-3.1-2.47-5.43-4.3-7-5.5-2.77-2.13-5.23-3.8-7.4-5q-.9-.495-1.5-.9c-.2-1.43-.38-2.93-.55-4.5-.03-.2-.07-.4-.1-.6.03 0 .07.02.1.05a313 313 0 0 1-.7-6.15m11.67 34.42-.02-.02c-.03-.03-.07-.05-.1-.05.03-.03.08-.07.12-.1.07-.07.14-.13.23-.2.2-.2.4-.47.6-.8l.9-1.4.15-.1c.1.13.22.3.35.5.1.17.32.57.65 1.2.13.23.25.42.35.55-.53.33-1.13.8-1.8 1.4-.2.17-.37.33-.5.5l-.4-.7c-.13-.33-.28-.57-.45-.7zm15.23.03v.75c-.1-.13-.2-.25-.3-.35.1-.17.2-.3.3-.4m-12.15-4-.4-.25 3.1-4.8 6.15 4.7c-.1.1-.2.22-.3.35-.57.8-.95 1.42-1.15 1.85l-.05.2c-.63-.07-1.37-.08-2.2-.05-1.23.07-2.32.27-3.25.6l-.05-.05-.7-.85c-.13-.37-.27-.63-.4-.8-.07-.07-.15-.13-.25-.2zm9.85.9.1-.1c.03 0 .07.02.1.05.33.33.53.52.6.55.4.23.72.42.95.55-.13.1-.3.32-.5.65-.13.33-.25.62-.35.85-.6-.47-1.23-.8-1.9-1zm2.45-16.05-.1 5.7c-.03 2.87-.05 5.75-.05 8.65-1.03-.73-2.3-1.63-3.8-2.7a273 273 0 0 1-4.1-2.95c3.43-4.4 6.12-7.98 8.05-10.75zm-.05 34.1.05 8.2c-.1-.53-.18-1.05-.25-1.55-.33-2.13-.72-3.73-1.15-4.8-.07-.13-.13-.25-.2-.35.57-.43 1.08-.93 1.55-1.5m-25.3-35.7c2.4 1.63 6.62 4.9 12.65 9.8.5.43 1 .85 1.5 1.25q-1.605 2.145-2.55 3.6c-1.07 1.6-2.22 3.52-3.45 5.75-2.87-6.4-5.6-12.9-8.2-19.5-.03-.33-.07-.67-.1-1 .03.03.08.07.15.1m9.25 21.8v.1c0 .13.08.4.25.8.13.2.25.38.35.55-.1.1-.18.2-.25.3l-.6-1.35zm6.35 42.05c.4.13.68.18.85.15.23 0 .42-.05.55-.15l.3-.1c0 1.37.02 2.8.05 4.3 0 .77.02 1.48.05 2.15-.03 0-.35-.15-.95-.45-.47-.23-.75-.33-.85-.3zm3.65-24.65.85 7.45-1.2-2.65c-.03-.43-.05-.77-.05-1-.03-1.6-.07-2.83-.1-3.7.17-.03.33-.07.5-.1m-.25 12.8c.67 1.23 1.38 2.55 2.15 3.95l.65 5.7c-.97-.6-1.9-1.15-2.8-1.65zm87.1-119.95c-.2.97-.42 1.93-.65 2.9h-.05c-1-.2-2.02-.32-3.05-.35.07-.07-1.68-.28-5.25-.65-.43-.03-.85-.08-1.25-.15.33-.37.67-.75 1-1.15 2.33-2.77 4.07-5.42 5.2-7.95.63-1.47 1.03-3.43 1.2-5.9v-.1c0-.13.02-.25.05-.35.23.17.47.37.7.6l.05.05.05.05.1.1c.1.1.2.22.3.35.37.4.77.88 1.2 1.45l1.25 1zM90.39 186.57s-.02-.05-.05-.05a85 85 0 0 1 6.75-3.25c.2 1.73.4 3.52.6 5.35.13.4.27.82.4 1.25 4.9 12.03 8.87 21.53 11.9 28.5-.03.4-.05.83-.05 1.3 0 .97.08 1.78.25 2.45.47 2.13 1.68 3.75 3.65 4.85.37.77.7 1.45 1 2.05.57 1.13 1.25 2.45 2.05 3.95q-.3 7.155-.45 13.35c-2.9-1.77-5.18-3.2-6.85-4.3-7.3-4.87-13.32-9.78-18.05-14.75-1.97-2.1-3.05-3.97-3.25-5.6q-.3-2.205 1.2-4.65 1.005-1.65 3.3-3.9c1.47-1.4 2.43-2.62 2.9-3.65.33-.77.47-1.52.4-2.25-.03-.87-.3-1.58-.8-2.15-.57-.63-1.77-1.17-3.6-1.6-4.4-1-8.52-2.17-12.35-3.5-1.57-.57-2.5-1.23-2.8-2-.07-.17-.1-.33-.1-.5.53-.6 1.37-1.53 2.5-2.8.83-.8 2.5-2.12 5-3.95 2.27-1.7 3.7-2.72 4.3-3.05.27-.13.98-.5 2.15-1.1m121.25-73.8.05-.05v.4c-.07-.17-.08-.28-.05-.35"/><path d="M142.79 256.82c-.2-.97-.43-1.65-.7-2.05-.21-.28-.48-.47-.78-.61-.03-.01-.05-.03-.07-.04-.4-.13-.74-.11-1.04.05-.37.17-.68.57-.95 1.2a32.6 32.6 0 0 0-2.75 9.7c-.08.78-.11 1.51-.11 2.21.47-.05.94-.11 1.41-.17-.01-2.23.35-4.63 1.1-7.2.57-1.9 1.23-3.32 2-4.25.67 3.23 1 6.05 1 8.45 0 .83-.03 1.64-.1 2.42.53-.09 1.06-.19 1.59-.29.18-2.79-.01-5.93-.59-9.43Zm-26.55 9.05h.15s-.08-.07-.15-.1zm56.3-23.4c.07-1.13.12-2.25.15-3.35.07.03.1-1.58.1-4.85.1-8.57-.27-16.5-1.1-23.8-.33-2.77-.77-4.78-1.3-6.05l-.05-.1c-.2-.57-.48-.95-.85-1.15a.98.98 0 0 0-.8-.05c-.27.1-.43.27-.5.5.33 3.93.45 11.25.35 21.95-.1 9.13-.22 14.7-.35 16.7-.28 4.53-.73 9.81-1.33 15.84 1.63-.85 3.24-1.77 4.83-2.74.4-4.83.68-9.13.85-12.9m-96.95-13.25c.33-1.6.52-2.87.55-3.8v-.3c-.03-1.57-.37-2.82-1-3.75-.5.3-.87.97-1.1 2-.97 3.6-1.82 7.03-2.55 10.3a.4.4 0 0 1-.1-.15c-1.13 4.67-2.14 8.83-3.02 12.52a96 96 0 0 0 5.56 4.46c-.32-2.58-.72-5.31-1.18-8.18 1.3-5.97 2.25-10.33 2.85-13.1Zm49.3-10.8c.2-.67.23-1.22.1-1.65-.13-.57-.45-1.13-.95-1.7-.57-.63-1.08-1.08-1.55-1.35-.6-.3-1.28-.43-2.05-.4-.73.03-1.42.22-2.05.55-.93.5-1.68 1.23-2.25 2.2-.57.93-.87 1.95-.9 3.05 0 .47.05.88.15 1.25 0 .17.03.32.1.45.1.23.23.47.4.7.2.27.42.52.65.75.6.57 1.27.97 2 1.2.8.27 1.53.27 2.2 0 .47-.23.97-.65 1.5-1.25 1.5-1.5 2.38-2.77 2.65-3.8m-7.55 2.35c-.3-.37-.5-.73-.6-1.1s-.08-.77.05-1.2c.13-.83.53-1.6 1.2-2.3.7-.7 1.43-1.12 2.2-1.25.7-.17 1.27-.12 1.7.15.17.07.45.3.85.7.6.67.93 1.22 1 1.65q.15 1.095-1.2 2.55l-.8.95c-.4.4-.72.67-.95.8-.57.37-1.18.43-1.85.2-.53-.17-1.07-.55-1.6-1.15m4.35 4c.03-.07.05-.12.05-.15l-.05.05z"/></svg>