<svg xmlns="http://www.w3.org/2000/svg" id="a" viewBox="0 0 253 291.35"><defs><style>.c{fill:#d6c878}.i{fill:#6a414a}</style></defs><path d="M126.96 255.76c0-.78-.02-1.55-.05-2.33-.04-.83-.12-1.65-.26-2.46-.24-1.2-.59-2.39-1.03-3.51-.77-2.05-1.64-4.08-2.57-6.04-.97-2.14-1.95-4.26-2.96-6.36-1-2.1-1.98-4.18-2.95-6.25l-.14-.3-.32-.09c-.27-.08-.53-.13-.77-.17-1.34-.23-2.68-.45-4.05-.66l-4.15-.4c-1.41-.03-2.79-.05-4.17-.05h-4.2c-1.03 0-2.06-.02-3.09-.05-.68-.19-1.35-.37-2-.56-.35-.17-.66-.37-.92-.61l-.04-.04-.04-.03c-.21-.14-.36-.3-.43-.42-.08-.21-.1-.42-.06-.67.23-1.38.58-2.75 1.07-4.08.62-1.8 1.34-3.6 2.12-5.33.83-1.76 1.68-3.51 2.54-5.23.86-1.7 1.75-3.39 2.64-5.09l.5-.95-1.07-.11c-1.01-.1-2.02-.18-3-.25l-3.13-.3-3.9-.2c-1.34-.07-2.66-.12-3.99-.15h-3.9c-1.34 0-2.68.02-4.03.05-.99.04-1.97.07-2.95.07-.49 0-.97 0-1.47-.02-1.27 0-2.55-.15-3.79-.43l-.08-.02h-.08c-.34 0-.65-.08-.87-.21-.35-.26-.66-.56-.93-.88-.27-.33-.48-.71-.63-1.16-.16-.41-.25-.84-.25-1.26.03-1.09.16-2.17.38-3.21.25-1.07.64-2.11 1.14-3.08.92-1.77 1.93-3.52 3.02-5.2.32-.52.68-1.04 1.07-1.55l-.89-1.08c-.9.43-1.79.87-2.67 1.31-.9.47-1.79.94-2.63 1.39q-1.365.66-2.7 1.35-1.365.66-2.7 1.35c-.91.44-1.82.92-2.66 1.4-.62.31-1.24.66-1.83 1.04l-1.8 1.2c-.51.34-1 .68-1.49 1.03-.84.64-1.67 1.32-2.5 2.04-.8.73-1.53 1.53-2.19 2.39-.4.53-.67 1.16-.79 1.89-.08.62 0 1.25.24 1.84.19.52.53.93 1.06 1.25 1.07.52 2.23.94 3.39 1.23q.375.12.78.21c-.29.83-.59 1.67-.88 2.53-.33.99-.68 1.99-1.04 2.97l-1.21 3.22-.9 2.7c-.27.8-.53 1.58-.81 2.38-.23.8-.47 1.62-.7 2.44l-.24.77c2.41 3.52 5.02 6.95 7.84 10.28 4.17 4.91 8.52 9.29 13.06 13.15l.43-1.81c.47-1.9.92-3.81 1.35-5.7l1.4-5.69c.63-2.47 1.25-4.92 1.85-7.37.23-1 .56-1.99.96-2.97.04.12.07.25.1.38.09.27.17.56.23.86.06.28.09.57.09.86 0 .24-.03.47-.09.74q-.15 1.005-.3 1.92l-.4 2.11c-.24 1.37-.35 2.78-.31 4.17 0 1.23.2 2.49.58 3.71.77 2.54 1.67 5.1 2.67 7.6.87 2.24 1.83 4.49 2.87 6.7l1.88 3.99c10.7 6.29 22.28 10.07 34.74 11.32l-.1-.31c-.15-.46-.29-.98-.41-1.55a28 28 0 0 1-.49-3.68c-.08-.68-.07-1.02-.05-1.27 0-.54.08-1.16.23-1.83l.55-2.29c.27-1.09.63-1.9 1.06-2.42.55-.67 1.13-1 1.77-1h.19c.61.07 1.11.43 1.55 1.1.19.27.48.86.78 2.15.61 2.63.71 5.66.29 8.99-.12.89-.3 1.64-.53 2.24l-.09.23c1.55.08 3.12.12 4.69.12h.51v-8.31c.03-1.24.05-2.48.05-3.72Zm59.39-12.75c-.37-2.6-.75-5.21-1.15-7.8-.2-1.41-.42-2.8-.65-4.17-.4-2.44-.82-4.87-1.25-7.31-.27-1.51-.57-3.02-.91-4.49-.37-1.57-.73-3.12-1.1-4.64-.3-1.34-.62-2.66-.95-3.96-.33-1.36-.65-2.72-.95-4.11-.19-.72-.48-1.35-.86-1.88-.03-.05-.06-.1-.05-.18.3-1.01.82-1.88 1.55-2.58.55-.51.95-1.11 1.2-1.83.17-.61.15-1.23-.06-1.83-.16-.48-.4-.92-.73-1.33-1.83-2.21-4.04-3.89-6.56-5-2.4-1.07-4.86-2.14-7.34-3.19-1.63-.76-3.3-1.51-4.98-2.21-1.67-.7-3.34-1.39-5.02-2.06-.86-.33-1.71-.67-2.54-1l-2.25-.9 1.4 1.98c.61.87 1.21 1.8 1.78 2.77.81 1.3 1.57 2.69 2.26 4.13.65 1.38 1.25 2.82 1.77 4.28.45 1.28.77 2.62.97 3.96.08.59.03 1.2-.17 1.82-.05.14-.12.24-.31.36-.23.18-.47.34-.72.47-1.96.23-3.92.48-5.87.74-2.87.33-5.72.68-8.57 1.05-1.44.2-2.88.42-4.32.65l-1.1.18.62.93c.46.7.93 1.41 1.4 2.16.85 1.25 1.68 2.56 2.46 3.89.64 1.15 1.16 2.38 1.54 3.66.35 1.14.56 2.34.62 3.57.03.72-.04 1.44-.23 2.13a.95.95 0 0 1-.33.51c-.59.43-1.21.79-1.82 1.05-2.12.76-4.29 1.5-6.42 2.19l-6.99 2.15v.52a93 93 0 0 0-.06 3.73l.1 6.49c0 2.06-.02 4.13-.05 6.2v6.25c0 2.33-.02 4.68-.05 7.05 0 1.79-.02 3.59-.05 5.4 0 .96-.02 1.92-.05 2.88-.02.52-.04 1.04-.07 1.56l-.02.5c7.62-.24 14.93-1.38 21.91-3.41q.18-.45.39-.84c1.13-2.23 2.28-4.46 3.44-6.68l1.81-3.32c.55-1.1 1.14-2.22 1.74-3.34 1.12-2.15 2.25-4.36 3.36-6.57.37-.77.71-1.57 1.02-2.35 1.33-3.42 1.89-7.08 1.65-10.92-.1-1.36-.29-2.72-.56-4.05-.61-2.85-1.65-5.63-3.07-8.24-.9-1.67-1.85-3.36-2.82-5.03l-.7-1.16c.32.11.65.24.98.41.54.2 1 .49 1.36.85.77.87 1.49 1.8 2.13 2.76.81 1.27 1.58 2.59 2.26 3.93.55 1.09 1 2.25 1.35 3.42.49 1.76.85 3.59 1.08 5.46.26 1.82.38 3.68.34 5.53-.03 1.16-.13 2.37-.29 3.55-.1.58-.23 1.16-.38 1.7-.49 1.58-1.04 3.17-1.64 4.72-.22.61-.48 1.2-.79 1.83l-2.06 4.52c-.12.21-.26.43-.45.7-.11.19-.24.38-.38.54l-.19.23.03.3c.04.35.09.72.16 1.12.4 1.98.84 3.98 1.31 5.93l.2.8c8.45-3.86 16.39-9.17 23.82-15.94-.02-.11-.03-.21-.04-.27-.04-.31-.08-.62-.13-.92Z" class="i"/><path d="M120.27 267.31c.96-1.74 1.38-4.14 1.24-7.14-.14-2.45-.52-4.32-1.17-5.71l-.09-.2-.19-.11c-.17-.1-.37-.16-.57-.16-.27 0-.55.1-.79.27-.61.39-1.12 1.19-1.54 2.41-.56 1.55-.86 2.71-.89 3.63l.15 3.52c0 .47.05.81.18 1.12l.47.94c.36.61.8 1.14 1.3 1.58.56.05 1.11.09 1.67.12l.18-.18z" style="fill:#3d262b"/><path d="m94.3 224.55.31-.87c.4-1.14.85-2.27 1.32-3.35.94-2.02 1.89-4.02 2.86-6.02 1.02-2.04 2.05-4.14 3.05-6.25.28-.63.54-1.29.77-1.97.32-.89.3-1.78-.04-2.73l-.57-1.58 2.25.98 2.16.29 9.66 23.48-21.75-1.99Zm-23.29-23.23-.21-.28c-.78-1.06-.96-2.22-.55-3.45.34-1.08.76-2.14 1.23-3.14 1.39-2.82 3.22-5.45 5.42-7.83 1.98-2.15 4.11-4.14 6.33-5.92.73-.63 1.52-1.25 2.33-1.83 1.78-1.31 3.75-2.52 5.84-3.6 1.47-.74 2.83-1.67 4.04-2.79l1.14-1.05.4 8.95-.65.09c-.4.06-.79.17-1.15.34l-.05.03-.06.02c-1.35.37-2.26 1.15-2.78 2.38-.16.62-.33 1.34-.46 2.05-.12.62-.17 1.23-.14 1.83.06.69.22 1.38.49 2q.21.465.57.96.48.6 1.14.93c.55.36 1.05.65 1.55.9a3.17 3.17 0 0 0 1.96.15c.98-.28 1.96-.68 2.87-1.18l.71-.39 1.1 2.67-.38.34c-.8.7-1.46 1.58-1.99 2.59-.27.51-.47 1.05-.59 1.62-.22 1.24.19 2.35 1.25 3.39l1.34 1.3L71 201.32Zm59.91-28.17 1.04.52c1.32.66 2.64 1.33 3.96 2l-.63 1.29c-.29-.13-.59-.24-.91-.34h-.1q-1.185 0-2.34.54l-1.02.47v-4.49Zm-.23 27.35h.69c1 0 1.92-.17 2.73-.5.62-.25 1.16-.63 1.58-1.11.3-.33.59-.67.88-1.03.54-.65.75-1.37.64-2.2-.16-1.18-.42-2.37-.77-3.53-.33-.98-.95-1.66-1.89-2.04a15.5 15.5 0 0 0-2.96-1.18l-.56-.15.12-2.24.76.09c.3.04.6.05.89.05 1.21 0 2.38-.31 3.48-.92.85-.48 1.43-1.19 1.77-2.16.27-.71.35-1.42.26-2.18-.27-1.95-1.09-3.32-2.5-4.16l.71-1.25 2 1.05c5.94 3.07 10.9 7.37 14.75 12.77 1.93 2.75 3.13 5.79 3.58 9.02l.1.7-.7.11c-3.1.5-6.18 1.02-9.24 1.55-3.07.53-6.17 1.15-9.21 1.84h-.06l-.06.02c-.47.03-.92.1-1.35.23-.5.95-.38 1.83.37 2.75.67.88 1.35 1.74 2.05 2.6.75.92 1.44 1.91 2.06 2.93.79 1.31 1.44 2.7 1.92 4.14.48 1.3.81 2.68.98 4.09.07.62-.06 1.49-1.07 2.14l-1.07.54a201 201 0 0 1-10.86 3.69l-.97.3.96-25.96Z" class="i"/><path d="M45.83 104.96a96 96 0 0 1-4.68-8.06c-3.27-6.17-6.06-12.66-8.29-19.3-.87-2.57-1.63-5.13-2.27-7.6-1.56-5.89-1.56-11.88 0-17.81.93-3.44 2.67-6.52 5.17-9.16 2.72-2.83 6.02-4.7 9.81-5.56 2.53-.61 5.15-.95 7.79-1.02.74 0 1.46-.02 2.19-.05l1.07-.05-3.29 9.2c.47-.77.96-1.53 1.44-2.28a291 291 0 0 1 2.2-3.45c3.93-6.1 8.36-12 13.16-17.53 2.46-2.87 5.27-5.35 8.35-7.38 2.89-1.93 6.14-3.03 9.65-3.27.38-.04.78-.06 1.17-.06 2.02 0 3.91.54 5.61 1.62 1.74 1.08 3.2 2.44 4.35 4.04 1.28 1.78 2.47 3.63 3.54 5.51 1.13 1.98 2.28 3.91 3.43 5.75a23.6 23.6 0 0 0-.84-3.31l-.4-1.34.18-.28c1.04-1.61 2.14-3.2 3.28-4.74 2.44-3.3 5.61-5.7 9.42-7.15 1.67-.58 3.33-.88 4.95-.88 2.09 0 4.16.49 6.17 1.45.5.23.95.55 1.35.94 2.28 2.25 3.56 5.08 3.81 8.41.24 3.42.24 6.87 0 10.25-.23 3-.3 6.1-.2 9.23.06 2.09.42 4.12 1.06 6.04.21.6.51 1.21.88 1.79.39.64.88 1.2 1.46 1.68.56.42 1.24.75 1.98.96.52.1 1.12.16 1.71.16.67 0 1.36-.07 2.04-.22 1.96-.33 3.8-.88 5.5-1.65.46-.18.88-.35 1.29-.55l2-.92-1.07 1.93c-.34.61-.69 1.22-1.07 1.83a61 61 0 0 1-11.33 13.71c-1.57 1.43-3.34 2.43-5.24 2.96-.58.12-1.11.18-1.61.18-1.62 0-3.06-.59-4.28-1.76a18.4 18.4 0 0 1-3.49-4.58c-.6-1.07-1.19-2.17-1.76-3.26-.89-1.74-1.6-3.62-2.11-5.6-.39-1.52-1.15-2.95-2.26-4.23-.02.02-.04.05-.05.07-1.26 1.56-2.2 3.28-2.8 5.15-.68 1.96-1.46 3.92-2.33 5.83l-1.53 3.36-.73-1.06c-1.18-1.81-2.41-3.5-3.66-5.04-.79-.99-1.62-1.97-2.48-2.92a27.6 27.6 0 0 0-3.42-3.32c-.79-.62-1.69-.96-2.75-1.03-.47.09-.92.23-1.34.43-1.05.52-2.04 1.21-2.92 2.03a59.3 59.3 0 0 0-7.85 9.23c-.4.57-.8 1.15-1.19 1.74-1.28 1.79-2.5 3.49-3.66 5.12a98 98 0 0 1-6.74 8.66c-.54.61-1.16 1.16-1.83 1.62-2.37 1.85-4.9 3.61-7.48 5.22-.72.43-1.48.79-2.29 1.07-.99.3-1.98.44-2.98.44h-.33c-3.17-.03-6.14-.9-8.81-2.56l-3.56-2.4c-.28-.2-.57-.38-.85-.56.81 1.77 1.98 3.33 3.51 4.66 1.62 1.43 3.52 2.51 5.65 3.21l2.59.48-11.42 16.91-.59-.92Zm20.36 51.43c-1.87 0-3.73-.02-5.56-.05-3.02-.03-6.02-.31-8.91-.81-1.71-.41-3.38-.85-5.02-1.32-1.61-.44-3.2-.97-4.72-1.57-2-.77-3.99-1.59-5.93-2.46-2.06-.91-4.06-2.01-5.95-3.26-3.93-2.55-7.5-5.64-10.59-9.18-4.12-4.76-7.16-10.19-9.04-16.16-1-3.15-1.07-6.35-.21-9.51.36-1.26.94-2.41 1.72-3.44 1.27-1.65 2.78-3.14 4.49-4.44 2.98-2.18 6.06-4.23 9.16-6.09 1.65-.97 3.36-1.92 5.09-2.82.43-.2.81-.42 1.18-.66l2.81-1.79.42.64a66 66 0 0 0 4.75 7.32c.81 1.04 1.7 2.11 2.61 3.16.83 1 1.7 2 2.59 2.99l.36.4-.28.46c-1.23 1.99-2.49 4-3.76 5.96-1.67 2.66-3.24 5.5-4.66 8.42a33.6 33.6 0 0 0-2.55 7.24c-.54 2.52-.56 5.11-.05 7.7.5 2.46 1.67 4.51 3.47 6.1 1.27 1.17 2.72 2.07 4.33 2.67 1.59.61 3.25 1.06 4.96 1.31.73.11 1.47.17 2.18.17 1.73 0 3.44-.33 5.1-.98 1.43-.48 2.83-.96 4.22-1.46 1.32-.55 2.6-1.35 3.77-2.37q1.8-1.41 3.42-2.97c1.09-1.02 2.13-2.1 3.11-3.21l.54-.61 8.44 9.56 7.08 6.18-2.83 1.26c-1.71.65-3.41 1.23-5.09 1.73-1.36.47-2.79.86-4.21 1.16-2.12.31-4.26.55-6.4.71h-.06Z" style="fill:#a7554a"/><path d="M126.25 95.23c.65-.72 1.34-1.4 2.07-2.01 1.82-1.47 3.88-2.55 6.16-3.24 2.19-.65 4.44-1.01 6.69-1.08.58.04 1.1.09 1.62.16h.06l.05.02c.33.1.67.2 1.03.29l1.82.5-1.68.84a83 83 0 0 1-9.33 3.98 35 35 0 0 1-4.44 1.27c-1.22.21-2.37.36-3.44.46l-1.84.17 1.24-1.37Zm-19.82.05c-3.65 0-6.79-.22-9.32-.66l-1.78-.31 1.5-1c1.57-1.05 3.6-1.81 6.02-2.26 1.52-.3 3-.45 4.4-.45 1.14 0 2.26.1 3.32.3 2.29.42 4.36 1.3 6.14 2.63l1.43 1.06-1.77.23c-2.38.31-5.37.46-8.87.46h-1.08Zm-3.6 90.46-.87-2.25-1.56-1.82-2.42-21.54 2.79 1.39c2.12.88 4.29 1.8 6.46 2.73l3.28 1.29c2.23.87 4.48 1.75 6.75 2.65 1.13.38 2.34.71 3.54.97 2.43.71 4.85 1.34 7.26 1.9l.55.13.26 16.14-9.14 10.19-3.44.12-13.45-11.91Z" class="c"/><path d="M145.27 166.05c-2.02 0-4.05-.11-6.05-.31-2.84-.3-5.68-.71-8.45-1.21-.92-.2-1.81-.39-2.7-.55a96.8 96.8 0 0 1-23.2-6.44 109.7 109.7 0 0 1-17.74-10.17c-3.29-2.39-6.42-5.1-9.3-8.09-2.1-2.1-4.09-4.31-5.89-6.55l-.31-.39.26-.43c1.84-3.08 3.43-6.35 4.75-9.69.85-2.15 1.49-4.38 1.91-6.62 1.32-6.88 1.8-13.84 1.41-20.71l-.09.65c-.43 2.96-.94 5.92-1.51 8.79-.6 2.92-1.33 5.84-2.17 8.71-.81 2.79-1.86 5.57-3.14 8.26-.79 1.75-1.64 3.54-2.5 5.31-1.73 3.58-3.99 6.81-6.73 9.59a34.8 34.8 0 0 1-5.06 4.19c-1.95 1.25-4.06 2.1-6.27 2.51-1.22.3-2.48.46-3.7.46-2.3 0-4.55-.57-6.67-1.68-2.62-1.38-4.06-3.57-4.28-6.48-.07-1.02-.03-2.03.1-3.01.48-3.46 1.56-6.85 3.22-10.08 1.97-3.73 4.09-7.47 6.33-11.1 2.97-4.8 5.9-9.54 8.8-14.2 1.66-2.7 3.33-5.43 4.99-8.19l.16-.27.31-.06a21.1 21.1 0 0 0 5.46-1.89c3.41-1.69 6.43-3.99 8.99-6.84 1.52-1.65 3.02-3.41 4.47-5.22.54-.64 1.07-1.29 1.6-1.95a95 95 0 0 0 3-3.55c2.3-2.9 4.79-5.75 7.39-8.45.58-.58 1.21-1.08 1.88-1.51.96-.69 2.06-1.23 3.23-1.58.26-.13.63-.21 1.01-.21.25 0 .5.04.75.11 1.84.38 3.4 1.15 4.59 2.27.66.6 1.4 1.19 2.17 1.74 1.17.92 2.18 1.96 3.02 3.11q.765 1.155 1.53 2.25l6.57-10.23 3.21 6.49.08.21c1.01 1.3 2.04 2.6 3.08 3.86 1.13 1.46 2.47 2.78 3.98 3.94.2.16.38.33.57.51l.18.18 1.97 19.43-.42.23q-.45.255-.84.63c-.88.72-1.66 1.48-2.36 2.31-.55.64-.98 1.34-1.28 2.1-.3.84-.47 1.62-.5 2.31 0 .25.03.52.08.76.07.48.17.9.29 1.29.11.3.27.66.46 1.04.14.29.32.57.52.83.4.46.88.89 1.4 1.25.5.35 1.06.62 1.68.8 1 .29 2.03.52 3.06.68.31.02.68.03 1.05.03 1.56 0 3.12-.22 4.64-.66.87-.28 1.74-.65 2.56-1.09 1.96-.9 4.07-1.34 6.31-1.34h.44c3.15-.4 6.37-.75 9.57-1.05l18.25-1.6c3.83-.2 7.69-.47 11.5-.8 3.31-.23 6.63-.34 9.88-.34 1.09 0 2.17.01 3.25.04 1.39.17 2.71.41 4 .72.88.27 1.67.66 2.36 1.17a5.4 5.4 0 0 1 1.55 2.23c1.7 4.31 2.3 8.85 1.79 13.48-.2 1.67-.51 3.33-.92 4.95a50 50 0 0 1-3.91 10.25c-2.04 3.91-4.31 7.83-6.73 11.66-.76 1.13-1.58 2.22-2.46 3.24-.37.41-.73.82-1.09 1.24a30 30 0 0 1-4.47 4.11l-1.03.77-.12-1.29a20 20 0 0 0-1.21-5.21c-.31-.78-.91-1.29-1.83-1.56-.08-.02-.21-.03-.34-.03-.46 0-.84.21-1.18.67a28.6 28.6 0 0 0-3.63 5.68l-1.05 2.17-.31-2.39c-.16-1.19-.51-2.44-1.05-3.71-.33-.76-.88-1.21-1.74-1.4-.73.07-1.31.35-1.77.85-.81.88-1.57 1.81-2.25 2.78a26.8 26.8 0 0 0-2.92 5.55 48 48 0 0 0-2.57 8.48l-.09.46-.46.1q-2.55.555-5.01 1.05c-4.52.84-9.11 1.38-13.66 1.61-.91.04-1.81.06-2.71.06Zm4.47-31.66c-.11.02-.33.06-.7.2-.52.15-1.12.53-1.84 1.13-.72.57-1.23 1.22-1.55 1.94-.33.73-.25.96-.24.96 0-.03.11-.04.31-.15.33-.16.97-.58 2.2-1.65 1.24-1.16 1.62-1.61 1.73-1.77.09-.17.14-.38.12-.56 0-.05-.02-.08-.03-.1m5.01 1.57s.11.05.19.08h.05c.27 0 .76-.12 1.72-.85 1.05-.85 1.75-1.42 2.08-1.69.26-.23.52-.54.75-.89.03-.05.06-.13.06-.25-.75.04-1.58.4-2.47 1.08-1.42 1.03-1.91 1.68-2.08 2.03l-.02.05-.03.04c-.12.17-.19.3-.24.4Zm1.13-22.04c.11.42.53 1.34 1.95 3.44 1.12 1.67 2.64 3.3 4.51 4.85 1.9 1.54 3.93 3 6.03 4.35 2.1 1.29 4.6 2.47 7.41 3.48 2.77 1 4.81 1.51 6.06 1.51 2.12-.08 3.04-.24 3.43-.37 1.61-.45 3.69-1.53 6.22-3.21 2.4-1.56 4.77-3.75 7.04-6.51 2.28-2.71 4-5.33 5.1-7.79.59-1.38.98-3.28 1.14-5.65.18-3.1-.06-3.71-.11-3.79-.18-.29-.88-.9-3.24-1.46-1.08-.25-3-.42-5.7-.48-.84-.03-1.67-.04-2.49-.04-1.91 0-3.82.08-5.68.24-2.71.2-4.56.33-5.56.4-4.93.26-8.65.6-11.08.99-2.44.36-3.98.63-4.58.79-.7.14-2.56.56-5.57 1.26-2.79.61-4.57 1.77-5.3 3.44-.26.86-.24 1.99.09 3.28l.19.75c.04.15.09.33.15.53Zm-6.39 13.87c.18 0 .51-.05 1.06-.29.74-.34 1.36-.69 1.81-1.02.42-.36.83-.72 1.19-1.05.45-.41.61-.63.66-.72.08-.16.12-.27.13-.32 0-.03-.03-.08-.05-.12-.13-.22-.22-.23-.27-.23h-.1l-.12.06h-.12c-.49.02-1.08.29-1.76.8-.81.58-1.66 1.3-2.53 2.14-.12.1-.2.19-.25.28l.02.05-.06.19s.02.03.03.04c.06.08.11.15.28.2h.07Zm-61.7-36.58c.42.44.93.87 1.5 1.27.92.63 1.97 1.2 3.12 1.68l.99.41-.76.76s-.07.08-.11.14c-.35.65-.57 1.39-.63 2.15-.06.74-.03 1.49.09 2.23.54 1.81 1.37 3.29 2.43 4.29.92.89 2.36 1.66 4.28 2.29 1.29.43 2.86.64 4.66.64 2.08 0 4.53-.29 7.27-.86.83-.13 1.65-.33 2.49-.58.68-.2 1.35-.42 1.99-.68.76-.35 1.55-.73 2.35-1.13 1.12-.58 2.1-1.4 2.9-2.44.46-.6.72-1.28.81-2.09 0-.08.01-.27.05-.52v-.5c0-1.2-.34-2.39-1-3.54-.63-.93-1.47-1.83-2.48-2.65-.17-.17-.3-.28-.45-.4-2.07-1.54-4.42-2.5-6.95-2.85-.33-.06-.62-.09-.9-.09-.63-.06-1.2-.09-1.78-.09-1.46 0-3.01.17-4.62.52-3.19.61-5.81 1.72-7.8 3.31-.46.33-.87.67-1.24 1.05l-.31.31-.42-.13c-1.98-.62-3.82-1.45-5.48-2.5" class="c"/><path d="M118.45 207.91c-.16 0-.31 0-.47-.02h-.18c-1.32 0-2.33-.68-2.91-1.98-.42-.88-.56-1.85-.41-2.86.07-.58.2-1.18.38-1.76.57-1.58 1.71-2.49 3.32-2.65h.1c1.5.08 2.66.7 3.46 1.86.76 1.18 1.07 2.62.92 4.27-.04.39-.11.77-.23 1.14l-.05.17-.12.12c-1.09 1.12-2.37 1.69-3.81 1.69Zm-21.67-17.57c-.44 0-.88-.08-1.31-.25-.63-.24-1.16-.59-1.57-1.04-.49-.45-.85-1.04-1.02-1.71-.23-.83-.25-1.68-.05-2.49.19-.84.58-1.6 1.16-2.26.59-.75 1.43-1.15 2.41-1.15.09 0 .19 0 .29.01 2.29.23 3.87 1.39 4.71 3.45.33.73.37 1.55.13 2.42-.26.94-.88 1.63-1.79 1.98-.45.18-.88.4-1.28.64-.61.29-1.15.41-1.68.41Zm7.97 11.35c-.59 0-1.19-.1-1.79-.29-1.01-.44-1.69-1.18-2.1-2.23a4.1 4.1 0 0 1-.29-2.04c.2-1.54.96-2.69 2.26-3.44.58-.33 1.22-.5 1.91-.5 2.1.16 3.55 1.18 4.36 3.03.53 1.35.36 2.64-.49 3.73-.23.31-.52.59-.84.83-1.01.61-2.01.9-3.02.9Zm28.26-16.25c-.77 0-1.55-.19-2.33-.58l-.16-.08-1.23-1.66-.02-.21c-.15-1.93.69-3.5 2.45-4.53.74-.48 1.5-.76 2.22-.8h.15l.14.04c.3.11.7.31 1.21.6 1.02.65 1.65 1.51 1.89 2.56q.18.84.06 1.62c-.09.5-.29.94-.59 1.33-.4.45-.85.77-1.37 1.01-.75.43-1.58.67-2.43.67Zm-2.02 14.2c-.52 0-1.03-.06-1.52-.18a3.6 3.6 0 0 1-1.21-.57c-.41-.23-.81-.58-1.13-.98-1.23-1.51-1.31-3.15-.23-4.75 1.21-1.75 2.73-2.63 4.53-2.63.82 0 1.71.19 2.63.56 1.17.54 1.9 1.45 2.18 2.71.17.79.08 1.56-.24 2.3-.37.89-.99 1.71-1.84 2.45-.55.51-1.3.86-2.2 1.02-.35.05-.66.07-.97.07" style="fill:#a2b2c8"/><path d="M167.64 161.85c.77-3.33 1.9-6.64 3.34-9.83.69-1.62 1.68-3.13 2.93-4.45.56-.59 1.18-1.14 1.85-1.63.32-.21.64-.33.98-.38l.47-.07.25.41q.18.3.3.6c.42 1.19.76 2.39 1.03 3.61.29 1.14.59 2.32.91 3.51h.05v-.02c.6-1.11 1.15-2.14 1.68-3.16.71-1.35 1.48-2.67 2.29-3.91.42-.61.93-1.14 1.52-1.58.22-.16.47-.27.74-.33l.43-.09.27.34c.21.26.34.56.4.88.32 1.07.6 2.28.8 3.5.17 1 .33 2.02.5 3.05l.07.46-6.04 3.96c-3.54 1.71-7.15 3.33-10.82 4.86-1.02.41-2.04.78-3.05 1.12l-1.22.41.29-1.25Z" style="fill:#9d316a"/><path d="m108.37 202.17.23-.32c.31-.43.58-.87.79-1.3q.6-1.155.78-2.34c.21-1.29-.05-2.41-.77-3.42l1.07-.95 4.67 4.21-.54.54c-.19.19-.38.39-.56.61-.49.66-.87 1.4-1.11 2.15-.26 1.52-.26 3.17.02 4.81l.05.3-1.83 2.55-2.79-6.82Zm3.09 7.59 1.89-2.44.57.42c1.02.75 2.2 1.19 3.49 1.31.33.04.65.05.96.05 1.86 0 3.42-.61 4.77-1.86l1.14-1.67 3.44 2.7-.81 33.96-1.38.27zm-5.69-17.16-1.45-.31-1.45-3.5 1.15-.81 4.95 4.45-.76 1.2zm18.52 11.35-.02-.28c-.03-.38-.08-.74-.14-1.08-.15-1.21-.62-2.15-1.43-2.9l-1.93-1.72 4.39-4.88v1.88c0 2.02.87 3.53 2.66 4.64l.36.23-.41 7.36-3.48-3.24Z" style="fill:#bba799"/><path d="M133 104.11c-.76 0-1.53-.04-2.29-.13-1.71-.19-3.06-1-4.02-2.41-.86-1.27-1.21-2.75-1.02-4.38l.09-.75.74.12c.47.07.95.11 1.42.11.72 0 1.46-.08 2.21-.25l.2-.04.19.06c.13.04.27.1.44.19l.48.24-.09.52c-.03.21-.07.4-.1.57-.09.54.03.98.38 1.38.31.3.66.47 1.04.47.19 0 .4-.04.62-.12.51-.15.86-.45 1.11-.91.52-.89.62-1.79.34-2.77l-.19-.66.65-.22c3.74-1.25 7.42-2.85 10.93-4.75l.32-.17.33.15c1.24.58 2.13 1.57 2.67 2.94l.08.19-.04.2c-.33 1.74-1.11 3.26-2.34 4.52-2.1 2.17-4.6 3.76-7.43 4.73a20.2 20.2 0 0 1-6.72 1.16Zm-29.76 1.33c-1.83 0-3.64-.35-5.37-1.05-2.05-.74-3.52-1.78-4.34-3.08l-.06-.1-.03-.11q-.045-.195-.06-.36a5.02 5.02 0 0 1-.18-3.25c.19-.77.63-1.54 1.31-2.3.19-.2.41-.29.64-.29h.08l.08.02c1 .23 2.18.41 3.51.54h.01c.08 0 .23.03.39.08l1.03.34-.71.82c-.16.19-.3.46-.4.82-.33 1.22-.2 2.15.4 2.83.28.33.61.48 1.05.51h.01c.49 0 .81-.13 1.11-.41.42-.31.68-.68.86-1.21.16-.54.2-1.09.12-1.66-.05-.28-.13-.53-.23-.73l-.55-1.09 1.22.05c1.02.04 2.03.07 3.03.07 1.99 0 3.97-.09 5.87-.26 2.41-.2 4.16-.46 5.21-.77l.1-.03h.13l.53-.26.37.39c.67.71 1.06 1.38 1.18 2.06.03.08.06.24.06.38-.04.55-.14 1.02-.29 1.45-.11.3-.26.62-.45.95-.27.39-.52.75-.78 1.15-.36.58-.82 1.1-1.35 1.52-.38.26-.75.46-1.15.64-1.47.7-3 1.22-4.52 1.53q-.105.045-.24.09c-2.02.43-4.45.67-7.31.74h-.27Z" style="fill:#fff"/><path d="M160.15 113.99c-1.6-1.8-2.23-3.15-1.96-4.25.03-.2.12-.52.27-.93l.08-.23.2-.13c.73-.47 1.64-.86 2.71-1.14 1.67-.56 3.72-1.1 6.03-1.61 2.31-.53 4.35-.91 6.07-1.11 1.66-.23 4.01-.45 6.99-.65 2.95-.23 6.2-.4 9.63-.5 1.52-.06 2.98-.09 4.33-.09 1.69 0 3.27.05 4.68.14 1.05.07 2.1.27 3.12.58 1.11.19.96 1.98.9 2.74-.07.47-.12.85-.15 1.21l-.06.71-.71-.06c-1.49-.12-3.38-.19-5.61-.19-2.52 0-5.55.08-9 .24-6.52.3-12.36 1.08-17.36 2.33-4.93 1.21-8.03 2.23-9.22 3.05l-.52.36z" style="fill:#d6dee8"/><path d="M186.54 221.67c-.43-1.83-.88-3.65-1.35-5.45-.97-3.97-2.03-7.93-3.2-11.9 1.27-.67 2.1-1.7 2.5-3.1.2-.73.28-1.48.25-2.25-.07-1-.32-1.93-.75-2.8-.6-1.1-1.37-2.05-2.3-2.85-1.53-1.3-3.15-2.47-4.85-3.5-5.8-3.5-11.97-6.33-18.5-8.5-2.37-.77-4.72-1.58-7.05-2.45a39 39 0 0 1-4.45-1.75 54 54 0 0 1-7.85-4.3h5.4c2.57-.03 5.15-.2 7.75-.5 2.03-.27 4.08-.53 6.15-.8.83-.17 1.68-.33 2.55-.5 3.4-.63 6.72-1.52 9.95-2.65 1.6-.6 3.22-1.2 4.85-1.8 2.83-1.13 5.6-2.37 8.3-3.7 3.6-1.8 6.92-3.97 9.95-6.5 4.03-3.4 7.5-7.23 10.4-11.5.87-1.27 1.7-2.57 2.5-3.9.83-1.3 1.6-2.65 2.3-4.05.67-1.37 1.27-2.78 1.8-4.25q.855-2.145 1.5-4.35c.73-2.67 1.42-5.33 2.05-8 .17-.67.27-1.33.3-2 .13-1.83.22-3.67.25-5.5.07-1.87.1-3.72.1-5.55 0-3.2-.88-6.15-2.65-8.85-1-1.47-2.28-2.58-3.85-3.35-.8-.4-1.62-.7-2.45-.9-3.2-.87-6.47-1.17-9.8-.9-6.33.03-12.65.27-18.95.7-3.77.4-7.57.78-11.4 1.15-5.07.63-10.18 1.3-15.35 2q.945-1.845.45-4.05c-.33-1.4-1.08-2.57-2.25-3.5a15.3 15.3 0 0 0 2.15-1.7c.63-.6 1.07-1.38 1.3-2.35.07-.3-.02-.5-.25-.6l-5.1 3.45c-1.3-.37-2.62-.63-3.95-.8q-3.645-.75-7.35.3l-2.65.9-1.4-16.15c.43-.03.85-.13 1.25-.3.9-.07 1.77-.25 2.6-.55.97-.43 1.92-.92 2.85-1.45 1.9-1.13 3.63-2.48 5.2-4.05a62 62 0 0 0 8.15-10.55c.77-1.3 1.53-2.6 2.3-3.9 1.6-2.7 2.8-5.53 3.6-8.5-.53.27-1.05.55-1.55.85-1.23.73-2.47 1.38-3.7 1.95-.67.33-1.33.68-2 1.05-2.37 1.2-4.87 1.88-7.5 2.05-1.37.03-2.35-.5-2.95-1.6q-.405-.795-.6-1.65c-.27-1.23-.48-2.48-.65-3.75q-.195-1.5-.3-3c-.07-1.2-.1-2.38-.1-3.55-.03-1.37-.05-2.73-.05-4.1 0-1.27-.02-2.53-.05-3.8 0-1.07-.02-2.12-.05-3.15s-.13-2.17-.3-3.4c-.23-1.87-.78-3.73-1.65-5.6-1.17-2.5-2.63-4.8-4.4-6.9-1.23-1.43-2.7-2.47-4.4-3.1-1.97-.63-3.98-.68-6.05-.15-4.57.97-8.45 3.18-11.65 6.65-.87.97-1.7 1.97-2.5 3-.93 1.1-1.87 2.2-2.8 3.3l-1.2-2.7c-.2-.43-.42-.83-.65-1.2-.47-.73-.92-1.47-1.35-2.2a14.2 14.2 0 0 0-2.85-3.4q-4.245-4.005-9.9-3.9-5.355.45-9.75 3.45a52.6 52.6 0 0 0-12.65 11.95 54 54 0 0 0-3.2 4.5q-2.7 4.005-4.95 8.1-.3-.105-.6-.15c-.9-.13-1.78-.25-2.65-.35-1.93 0-3.87.02-5.8.05q-6.105.705-11.1 3.75c-1.1.63-2.13 1.35-3.1 2.15-4.97 4-8.02 9.17-9.15 15.5-.9 5.1-.78 10.22.35 15.35.7 3.23 1.53 6.38 2.5 9.45 1.4 4.4 3.08 8.63 5.05 12.7-1.63.87-3.27 1.75-4.9 2.65-4.57 2.5-9 5.27-13.3 8.3-1.6 1.17-3.13 2.5-4.6 4-.57.6-1.1 1.25-1.6 1.95-.43.57-.78 1.2-1.05 1.9-.43 1.07-.75 2.2-.95 3.4-.23 1.3-.32 2.62-.25 3.95.07 1.7.28 3.4.65 5.1.33 1.7.82 3.38 1.45 5.05.67 1.7 1.47 3.38 2.4 5.05 2 3.6 4.43 6.92 7.3 9.95a49.7 49.7 0 0 0 10 8.15c6.47 4 13.43 6.97 20.9 8.9 4.87 1.2 9.83 1.78 14.9 1.75 4.93-.03 9.75-.72 14.45-2.05 3.67-.97 7.15-2.32 10.45-4.05l5.5 3.55.85 8.85c-2.43 1.6-4.83 3.23-7.2 4.9-1.13.8-2.3 1.57-3.5 2.3-1.17.7-2.37 1.37-3.6 2-2.37 1.07-4.73 2.13-7.1 3.2-5.13 2.23-10.15 4.58-15.05 7.05-1.67.83-3.27 1.77-4.8 2.8-2.57 1.7-4.83 3.68-6.8 5.95-.63.7-1.15 1.48-1.55 2.35q-.555 1.2-.75 2.55c-.13 1.1-.13 2.18 0 3.25.07.4.22.78.45 1.15q1.35 1.95 3.6 1.65a72.5 72.5 0 0 0-3.75 9.75c-.16.54-.31 1.09-.46 1.63 1.13 1.84 2.32 3.65 3.56 5.43.13-.44.26-.87.4-1.31.23-.83.47-1.65.7-2.45.27-.77.53-1.55.8-2.35l.9-2.7c.4-1.07.8-2.13 1.2-3.2q.555-1.5 1.05-3c.37-1.07.73-2.12 1.1-3.15.03-.07.07-.13.1-.2a5.8 5.8 0 0 1-1.55-.3q-1.755-.45-3.3-1.2c-.33-.2-.57-.48-.7-.85-.2-.5-.27-1-.2-1.5.1-.6.32-1.12.65-1.55.63-.83 1.33-1.6 2.1-2.3.8-.7 1.62-1.37 2.45-2 .47-.33.95-.67 1.45-1l1.8-1.2c.57-.37 1.15-.7 1.75-1 .87-.5 1.75-.97 2.65-1.4q1.35-.705 2.7-1.35 1.35-.705 2.7-1.35c.87-.47 1.75-.93 2.65-1.4.87-.43 1.75-.87 2.65-1.3-.4.53-.77 1.07-1.1 1.6-1.1 1.7-2.12 3.45-3.05 5.25-.53 1.03-.93 2.12-1.2 3.25-.23 1.1-.37 2.22-.4 3.35 0 .53.1 1.05.3 1.55q.255.75.75 1.35c.3.37.65.7 1.05 1 .4.23.83.35 1.3.35 1.3.3 2.62.45 3.95.45 1.47.03 2.95.02 4.45-.05 1.33-.03 2.67-.05 4-.05h3.9c1.3.03 2.62.08 3.95.15 1.3.07 2.6.13 3.9.2l3.1.3c1 .07 2 .15 3 .25-.9 1.7-1.78 3.4-2.65 5.1q-1.305 2.595-2.55 5.25c-.8 1.77-1.52 3.57-2.15 5.4-.5 1.37-.87 2.77-1.1 4.2-.07.37-.03.72.1 1.05.17.3.4.55.7.75.33.3.72.55 1.15.75.7.2 1.42.4 2.15.6 1.07.03 2.13.05 3.2.05h4.2c1.37 0 2.75.02 4.15.05 1.37.13 2.73.27 4.1.4 1.33.2 2.67.42 4 .65.23.03.47.08.7.15.97 2.07 1.95 4.15 2.95 6.25s1.98 4.22 2.95 6.35q1.395 2.955 2.55 6c.43 1.1.77 2.23 1 3.4.13.77.22 1.55.25 2.35.03.77.05 1.53.05 2.3 0 1.23-.02 2.47-.05 3.7v8.33h.21c1.28 0 2.54-.03 3.8-.08.03-.67.07-1.34.09-2 .03-.97.05-1.93.05-2.9.03-1.8.05-3.6.05-5.4.03-2.37.05-4.72.05-7.05v-6.25c.03-2.07.05-4.13.05-6.2-.03-2.17-.07-4.33-.1-6.5 0-1.23.02-2.47.05-3.7 2.17-.67 4.33-1.33 6.5-2 2.17-.7 4.32-1.43 6.45-2.2.7-.3 1.37-.68 2-1.15q.45-.345.6-.9c.2-.77.28-1.55.25-2.35a15.5 15.5 0 0 0-.65-3.75c-.4-1.33-.93-2.6-1.6-3.8-.8-1.37-1.63-2.68-2.5-3.95-.47-.73-.93-1.45-1.4-2.15 1.43-.23 2.87-.45 4.3-.65q4.245-.555 8.55-1.05 3-.405 6-.75c.33-.17.65-.37.95-.6.27-.17.45-.4.55-.7.23-.73.3-1.45.2-2.15-.2-1.4-.53-2.77-1-4.1q-.795-2.25-1.8-4.35c-.7-1.47-1.47-2.87-2.3-4.2-.57-.97-1.17-1.9-1.8-2.8.83.33 1.68.67 2.55 1 1.67.67 3.33 1.35 5 2.05s3.32 1.43 4.95 2.2c2.5 1.07 4.95 2.13 7.35 3.2q3.645 1.605 6.3 4.8c.27.33.47.7.6 1.1.17.47.18.93.05 1.4-.2.57-.53 1.07-1 1.5a6.5 6.5 0 0 0-1.75 2.9c-.07.3-.02.57.15.8q.495.705.75 1.65c.3 1.37.62 2.73.95 4.1.33 1.3.65 2.62.95 3.95.37 1.53.73 3.08 1.1 4.65.33 1.47.63 2.95.9 4.45.43 2.43.85 4.87 1.25 7.3.23 1.37.45 2.75.65 4.15.4 2.6.78 5.2 1.15 7.8.08.55.15 1.12.23 1.68 1.26-1.13 2.5-2.29 3.73-3.5-.7-5.09-1.42-10.18-2.2-15.28-.23-1.43-.52-2.88-.85-4.35Zm-175.6-109.4c.33-1.17.87-2.23 1.6-3.2 1.23-1.6 2.68-3.03 4.35-4.3 2.97-2.17 6-4.18 9.1-6.05 1.63-.97 3.32-1.9 5.05-2.8.43-.2.85-.43 1.25-.7.73-.47 1.47-.93 2.2-1.4a66 66 0 0 0 4.8 7.4c.83 1.07 1.72 2.13 2.65 3.2.83 1 1.7 2 2.6 3-1.23 2-2.48 3.98-3.75 5.95-1.7 2.7-3.27 5.53-4.7 8.5-1.17 2.4-2.03 4.87-2.6 7.4-.57 2.63-.58 5.3-.05 8 .53 2.63 1.77 4.8 3.7 6.5a13.6 13.6 0 0 0 4.55 2.8q2.445.945 5.1 1.35c2.63.4 5.18.12 7.65-.85 1.4-.47 2.8-.95 4.2-1.45 1.43-.6 2.77-1.43 4-2.5q1.8-1.395 3.45-3c1.1-1.03 2.15-2.12 3.15-3.25l7.9 8.95 6.3 5.5c-.6.27-1.2.53-1.8.8-1.67.63-3.33 1.2-5 1.7-1.37.47-2.75.85-4.15 1.15-2.07.3-4.17.53-6.3.7-1.87 0-3.72-.02-5.55-.05-3-.03-5.93-.3-8.8-.8-1.67-.4-3.32-.83-4.95-1.3-1.6-.43-3.15-.95-4.65-1.55-2-.77-3.97-1.58-5.9-2.45a40.5 40.5 0 0 1-5.85-3.2c-3.9-2.53-7.38-5.55-10.45-9.05-4.07-4.7-7.03-10-8.9-15.9-.97-3.03-1.03-6.07-.2-9.1m38.9-59.05c1.7-3.3 3.55-6.48 5.55-9.55.73-1.17 1.47-2.32 2.2-3.45 3.93-6.1 8.3-11.92 13.1-17.45a39.4 39.4 0 0 1 8.2-7.25q4.2-2.805 9.3-3.15c2.33-.23 4.45.25 6.35 1.45 1.67 1.03 3.05 2.32 4.15 3.85 1.27 1.77 2.43 3.58 3.5 5.45 1.23 2.17 2.48 4.25 3.75 6.25.43.77.88 1.53 1.35 2.3 0-.8-.07-1.62-.2-2.45-.2-1.43-.53-2.85-1-4.25l-.3-1a89 89 0 0 1 3.25-4.7c2.37-3.2 5.4-5.5 9.1-6.9 3.63-1.27 7.15-1.08 10.55.55.43.2.82.47 1.15.8q3.255 3.195 3.6 7.95c.23 3.4.23 6.78 0 10.15-.23 3.03-.3 6.13-.2 9.3.07 2.17.43 4.25 1.1 6.25.23.67.55 1.32.95 1.95.43.7.97 1.32 1.6 1.85.67.5 1.42.87 2.25 1.1 1.33.27 2.7.25 4.1-.05 2-.33 3.88-.9 5.65-1.7.43-.17.87-.35 1.3-.55q-.495.9-1.05 1.8c-3.1 5.1-6.83 9.62-11.2 13.55-1.5 1.37-3.15 2.3-4.95 2.8-2.03.43-3.77-.03-5.2-1.4a17.6 17.6 0 0 1-3.35-4.4c-.6-1.07-1.18-2.15-1.75-3.25-.87-1.7-1.55-3.52-2.05-5.45-.47-1.83-1.42-3.5-2.85-5h-.1c-.27.17-.48.37-.65.6-1.3 1.6-2.27 3.38-2.9 5.35-.67 1.93-1.43 3.85-2.3 5.75-.33.73-.67 1.47-1 2.2-1.2-1.83-2.43-3.53-3.7-5.1-.8-1-1.63-1.98-2.5-2.95-1.03-1.2-2.2-2.33-3.5-3.4-.93-.73-2.02-1.13-3.25-1.2-.57.1-1.1.27-1.6.5-1.13.57-2.17 1.28-3.1 2.15-2.93 2.8-5.58 5.92-7.95 9.35-.4.57-.8 1.15-1.2 1.75-1.27 1.77-2.48 3.47-3.65 5.1-2.1 3.03-4.33 5.9-6.7 8.6-.5.57-1.07 1.07-1.7 1.5-2.4 1.87-4.88 3.6-7.45 5.2-.67.4-1.38.73-2.15 1-1 .3-2.02.43-3.05.4-3.07-.03-5.88-.85-8.45-2.45-1.23-.83-2.42-1.63-3.55-2.4-.77-.53-1.53-1-2.3-1.4 0-.03-.03 0-.1.1 0 .3.07.6.2.9.83 2.17 2.17 4.05 4 5.65 1.7 1.5 3.67 2.62 5.9 3.35l1.6.3-10.2 15.1c-1.7-2.63-3.25-5.3-4.65-8q-4.905-9.255-8.25-19.2c-.87-2.57-1.62-5.08-2.25-7.55-1.53-5.8-1.53-11.62 0-17.45.9-3.33 2.57-6.28 5-8.85 2.63-2.73 5.78-4.52 9.45-5.35 2.5-.6 5.05-.93 7.65-1 .73 0 1.47-.02 2.2-.05zm92.85 36.55q.495.15 1.05.3c-3 1.5-6.08 2.82-9.25 3.95-1.4.5-2.85.92-4.35 1.25-1.17.2-2.28.35-3.35.45.63-.7 1.3-1.35 2-1.95 1.73-1.4 3.7-2.43 5.9-3.1 2.13-.63 4.3-.98 6.5-1.05q.75.045 1.5.15m3.95 7.95c-2.03 2.1-4.42 3.62-7.15 4.55-2.83 1-5.73 1.33-8.7 1-1.5-.17-2.67-.87-3.5-2.1q-1.155-1.695-.9-3.9 1.905.3 3.9-.15c.1.03.22.08.35.15-.03.2-.07.38-.1.55-.13.77.05 1.43.55 2 .7.7 1.52.88 2.45.55.67-.2 1.17-.62 1.5-1.25.6-1.03.73-2.13.4-3.3 3.8-1.27 7.48-2.87 11.05-4.8 1.07.5 1.83 1.35 2.3 2.55-.3 1.6-1.02 2.98-2.15 4.15m-74.15 34.55c1.87-3.13 3.47-6.4 4.8-9.8q1.305-3.3 1.95-6.75c1.5-7.8 1.92-15.58 1.25-23.35-.07-.7-.33-1.07-.8-1.1a170 170 0 0 1-2.05 12.9c-.6 2.9-1.32 5.78-2.15 8.65a53.5 53.5 0 0 1-3.1 8.15c-.8 1.77-1.63 3.53-2.5 5.3-1.7 3.53-3.9 6.67-6.6 9.4-1.53 1.53-3.18 2.9-4.95 4.1q-2.805 1.8-6 2.4c-3.5.87-6.8.48-9.9-1.15-2.4-1.27-3.7-3.23-3.9-5.9-.07-.97-.03-1.92.1-2.85.47-3.4 1.52-6.68 3.15-9.85 1.97-3.73 4.07-7.42 6.3-11.05 2.97-4.8 5.9-9.53 8.8-14.2 1.67-2.7 3.33-5.43 5-8.2 2-.4 3.88-1.05 5.65-1.95a30.3 30.3 0 0 0 9.2-7q2.295-2.505 4.5-5.25c.53-.63 1.07-1.28 1.6-1.95a82 82 0 0 0 3-3.55q3.45-4.35 7.35-8.4c.53-.53 1.12-1 1.75-1.4.93-.67 1.95-1.17 3.05-1.5.43-.2.88-.23 1.35-.1 1.77.37 3.2 1.07 4.3 2.1q1.05.945 2.25 1.8c1.1.87 2.05 1.85 2.85 2.95.7 1.07 1.42 2.1 2.15 3.1l6.45-10.05 2.65 5.35.1.25c1.03 1.33 2.08 2.65 3.15 3.95 1.17 1.5 2.53 2.85 4.1 4.05.17.13.33.28.5.45l1.9 18.7c-.37.2-.7.45-1 .75-.87.7-1.67 1.48-2.4 2.35-.6.7-1.07 1.47-1.4 2.3-.33.93-.52 1.78-.55 2.55 0 .33.03.65.1.95q.105.705.3 1.35c.13.37.3.75.5 1.15.17.33.37.65.6.95.47.53.98 1 1.55 1.4s1.2.7 1.9.9c1.03.3 2.08.53 3.15.7 2.03.13 4.03-.08 6-.65.93-.3 1.83-.68 2.7-1.15 1.97-.9 4.12-1.32 6.45-1.25q4.755-.6 9.6-1.05c6.07-.53 12.15-1.07 18.25-1.6 3.83-.2 7.67-.47 11.5-.8q6.6-.45 13.05-.3c1.3.17 2.58.4 3.85.7q1.155.345 2.1 1.05c.6.53 1.03 1.17 1.3 1.9 1.67 4.23 2.25 8.62 1.75 13.15-.2 1.63-.5 3.25-.9 4.85-.9 3.47-2.18 6.83-3.85 10.1-2.03 3.9-4.27 7.77-6.7 11.6a30 30 0 0 1-2.4 3.15c-.37.4-.73.82-1.1 1.25-1.3 1.47-2.75 2.8-4.35 4-.17-1.83-.58-3.63-1.25-5.4-.4-1-1.17-1.67-2.3-2-.93-.2-1.7.1-2.3.9a28.7 28.7 0 0 0-3.7 5.8 15 15 0 0 0-1.1-3.9c-.43-1-1.22-1.62-2.35-1.85-.97.07-1.75.43-2.35 1.1-.83.9-1.6 1.85-2.3 2.85q-1.8 2.595-3 5.7c-1.13 2.8-2 5.67-2.6 8.6-1.7.37-3.37.72-5 1.05-4.5.83-9.02 1.37-13.55 1.6-2.9.13-5.78.05-8.65-.25q-4.245-.45-8.4-1.2c-.9-.2-1.8-.38-2.7-.55a95.2 95.2 0 0 1-23.05-6.4c-1.4-.63-2.78-1.3-4.15-2-4.67-2.37-9.15-5.07-13.45-8.1a69.4 69.4 0 0 1-9.2-8c-2.1-2.1-4.05-4.27-5.85-6.5m99.15 20.05c.67-1.57 1.6-2.98 2.8-4.25.53-.57 1.12-1.08 1.75-1.55.2-.13.42-.22.65-.25.1.17.18.33.25.5.4 1.13.73 2.3 1 3.5.3 1.2.62 2.42.95 3.65.03.13.12.27.25.4l.85.05c.13-.17.23-.33.3-.5.57-1.03 1.12-2.07 1.65-3.1.7-1.33 1.45-2.62 2.25-3.85.37-.53.82-1 1.35-1.4.13-.1.28-.17.45-.2.13.17.22.35.25.55.33 1.13.6 2.3.8 3.5.17 1 .33 2.02.5 3.05l-5.65 3.7c-3.47 1.67-7.03 3.27-10.7 4.8-1 .4-2 .77-3 1.1.77-3.3 1.87-6.53 3.3-9.7m-34 50c-.63.03-1.23.15-1.8.35-.8 1.3-.7 2.57.3 3.8.67.87 1.35 1.73 2.05 2.6.73.9 1.4 1.85 2 2.85.77 1.27 1.38 2.6 1.85 4 .47 1.27.78 2.58.95 3.95.07.6-.18 1.08-.75 1.45-.33.17-.67.33-1 .5-3.5 1.3-7.08 2.52-10.75 3.65l.9-24.25c1.1 0 2.1-.18 3-.55.73-.3 1.35-.73 1.85-1.3q.45-.495.9-1.05c.67-.8.93-1.72.8-2.75-.17-1.23-.43-2.45-.8-3.65-.4-1.2-1.17-2.03-2.3-2.5-.63-.33-1.28-.62-1.95-.85-.37-.13-.73-.25-1.1-.35l.05-.9c1.7.2 3.3-.12 4.8-.95q1.5-.855 2.1-2.55c.3-.8.4-1.63.3-2.5-.3-2.18-1.25-3.75-2.85-4.7.67.35 1.34.7 2 1.05 5.87 3.03 10.7 7.22 14.5 12.55q2.805 4.005 3.45 8.7c-3.1.5-6.18 1.02-9.25 1.55-3.1.53-6.18 1.15-9.25 1.85m-3.15-26.4q-1.455-.045-2.85.6v-2.2c1.32.66 2.64 1.33 3.95 2-.34-.16-.71-.29-1.1-.4m-.5 2.4c.27.1.63.28 1.1.55.83.53 1.35 1.23 1.55 2.1.1.47.12.92.05 1.35-.07.37-.22.7-.45 1-.3.33-.67.6-1.1.8-1.33.77-2.72.8-4.15.1l-1-1.35c-.13-1.67.57-2.95 2.1-3.85.67-.43 1.3-.67 1.9-.7m-21.75 27.95-.9 1.25-2.15-5.25c.33-.47.62-.93.85-1.4.43-.83.72-1.68.85-2.55.23-1.47-.07-2.78-.9-3.95l4.1 3.7c-.2.2-.4.42-.6.65-.57.77-.98 1.57-1.25 2.4-.3 1.7-.3 3.42 0 5.15m-11.4-19.15q-.3 1.095-1.35 1.5c-.5.2-.97.43-1.4.7-.8.37-1.58.4-2.35.1-.53-.2-.97-.48-1.3-.85-.43-.4-.72-.87-.85-1.4-.2-.73-.22-1.45-.05-2.15.17-.73.5-1.38 1-1.95q.795-1.005 2.1-.9c2 .2 3.37 1.2 4.1 3 .27.6.3 1.25.1 1.95m9.4-20.9c2.23.87 4.48 1.75 6.75 2.65 1.2.4 2.42.73 3.65 1 2.4.7 4.82 1.33 7.25 1.9l.25 15.3-8.75 9.75-2.85.1-13.1-11.6-.85-2.2-1.5-1.75-2.25-20c.53.27 1.07.53 1.6.8 2.17.9 4.33 1.82 6.5 2.75 1.1.43 2.2.87 3.3 1.3m-1.75 26.75-2.5-1.05-1.15-.25-1.3-3.15zm6.7 10.2c.07-.57.18-1.12.35-1.65.47-1.3 1.37-2.02 2.7-2.15 1.27.07 2.23.58 2.9 1.55.67 1.03.93 2.3.8 3.8-.03.33-.1.67-.2 1-1.07 1.1-2.32 1.58-3.75 1.45-1.13.07-1.95-.45-2.45-1.55-.37-.77-.48-1.58-.35-2.45m-13.9-5.95c.17-1.3.8-2.27 1.9-2.9.47-.27.98-.4 1.55-.4 1.77.13 3 1 3.7 2.6.43 1.1.3 2.1-.4 3-.2.27-.43.5-.7.7-1.33.8-2.72.97-4.15.5q-1.155-.495-1.65-1.8c-.23-.57-.32-1.13-.25-1.7m1.2 11.15c.3-.67.57-1.35.8-2.05.37-1.03.35-2.1-.05-3.2l.8.35 1.85.25 9.05 22-19.65-1.8c.4-1.13.83-2.23 1.3-3.3q1.395-3 2.85-6c1.03-2.07 2.05-4.15 3.05-6.25m-6.25-28.6c-.47.07-.92.2-1.35.4-1.57.43-2.65 1.37-3.25 2.8-.2.73-.37 1.47-.5 2.2-.13.67-.18 1.33-.15 2 .07.8.25 1.55.55 2.25.17.37.38.73.65 1.1.4.5.87.88 1.4 1.15.5.33 1.02.63 1.55.9.8.33 1.62.4 2.45.2 1.07-.3 2.08-.72 3.05-1.25l.6 1.45c-.87.77-1.58 1.7-2.15 2.8-.3.57-.52 1.17-.65 1.8-.27 1.5.22 2.85 1.45 4.05l-28.5-1c-.63-.87-.78-1.8-.45-2.8.33-1.07.73-2.08 1.2-3.05 1.37-2.77 3.13-5.32 5.3-7.65 1.97-2.13 4.05-4.08 6.25-5.85.73-.63 1.5-1.23 2.3-1.8a43 43 0 0 1 5.75-3.55c1.53-.77 2.93-1.73 4.2-2.9zm29.95 62.45-13.9-32.35 1.2-1.55c1.13.83 2.42 1.32 3.85 1.45 2.5.27 4.62-.42 6.35-2.05l.75-1.1 2.55 2zm.95-36.6-2.15-2c-.03-.4-.08-.78-.15-1.15q-.255-1.995-1.65-3.3l-1.4-1.25 2.65-2.95q0 3.405 3 5.25zm.55-8.15c-1.03-1.27-1.1-2.57-.2-3.9q2.355-3.405 6.3-1.8c.93.43 1.52 1.17 1.75 2.2.13.63.07 1.25-.2 1.85-.33.8-.88 1.53-1.65 2.2-.47.43-1.08.72-1.85.85-.77.1-1.5.07-2.2-.1-.37-.1-.68-.25-.95-.45-.4-.23-.73-.52-1-.85"/><path d="M122.74 256.07q-.405-1.695-.9-2.4c-.53-.83-1.22-1.3-2.05-1.4-.97-.1-1.83.32-2.6 1.25q-.75.9-1.2 2.7l-.55 2.3c-.17.73-.25 1.4-.25 2-.03.3-.02.75.05 1.35.1 1.4.27 2.65.5 3.75.12.62.27 1.16.43 1.63 2.07.23 4.18.38 6.3.46.24-.63.44-1.42.57-2.4.43-3.43.33-6.52-.3-9.25Zm-3.35 11.15-.35-.1a5.9 5.9 0 0 1-1.35-1.6l-.45-.9c-.07-.17-.1-.43-.1-.8l-.15-3.55c.03-.77.32-1.88.85-3.35.37-1.07.78-1.75 1.25-2.05.23-.17.43-.2.6-.1.6 1.3.97 3.12 1.1 5.45.13 2.87-.25 5.12-1.15 6.75zm-41.25-22.15c-1-2.5-1.88-5.02-2.65-7.55-.37-1.17-.55-2.33-.55-3.5q-.045-2.055.3-4.05c.13-.7.27-1.4.4-2.1q.15-.945.3-1.95c.07-.27.1-.55.1-.85 0-.33-.03-.67-.1-1s-.15-.65-.25-.95c-.1-.4-.22-.77-.35-1.1-.13-.3-.27-.58-.4-.85-.77 1.5-1.33 3.03-1.7 4.6-.6 2.43-1.22 4.88-1.85 7.35-.47 1.9-.93 3.8-1.4 5.7q-.645 2.85-1.35 5.7c-.12.48-.23.97-.35 1.45 1.05.9 2.1 1.78 3.16 2.63.07-.38.16-.76.23-1.13.27-1.47.55-2.93.85-4.4.73 1.73 1.5 3.47 2.3 5.2.65 1.43 1.31 2.86 1.97 4.29a88 88 0 0 0 6.5 4.08c-.77-1.64-1.55-3.28-2.32-4.93-1.03-2.2-1.98-4.42-2.85-6.65Zm83.75 8.2q-.105-.555-.15-1.05c.17-.2.32-.42.45-.65.17-.23.32-.47.45-.7.37-.8.73-1.6 1.1-2.4.33-.73.67-1.47 1-2.2.3-.6.57-1.22.8-1.85.6-1.57 1.15-3.15 1.65-4.75.17-.6.3-1.2.4-1.8.17-1.23.27-2.45.3-3.65.03-1.9-.08-3.78-.35-5.65-.23-1.9-.6-3.75-1.1-5.55-.37-1.23-.83-2.42-1.4-3.55-.7-1.37-1.47-2.7-2.3-4-.67-1-1.4-1.95-2.2-2.85q-.705-.705-1.65-1.05c-.6-.3-1.23-.52-1.9-.65-.27-.03-.52-.05-.75-.05.5.83 1 1.67 1.5 2.5.97 1.67 1.9 3.33 2.8 5 1.4 2.57 2.4 5.25 3 8.05.27 1.3.45 2.62.55 3.95.23 3.73-.3 7.27-1.6 10.6-.3.77-.63 1.53-1 2.3-1.1 2.2-2.22 4.38-3.35 6.55-.6 1.1-1.18 2.22-1.75 3.35l-1.8 3.3c-1.17 2.23-2.32 4.47-3.45 6.7-.24.46-.45.94-.62 1.42q2.655-.735 5.25-1.65c.27-.42.55-.82.87-1.22.17-.2.32-.43.45-.7.6-.97 1.2-1.95 1.8-2.95l.83 3.36c1.22-.5 2.44-1.04 3.64-1.6-.06-.22-.12-.44-.17-.66-.47-1.97-.9-3.93-1.3-5.9M92.14 94.82c-.07.07-.13.15-.2.25-.43.8-.68 1.63-.75 2.5-.07.8-.03 1.6.1 2.4.6 2.03 1.48 3.6 2.65 4.7 1 .97 2.52 1.78 4.55 2.45 2.93.97 7.03.9 12.3-.2q1.245-.195 2.55-.6c.7-.2 1.38-.43 2.05-.7.8-.37 1.6-.75 2.4-1.15 1.23-.63 2.28-1.52 3.15-2.65.53-.7.85-1.52.95-2.45 0-.13.02-.32.05-.55v-.55c0-1.33-.37-2.63-1.1-3.9-.7-1.03-1.58-1.98-2.65-2.85-.13-.13-.28-.27-.45-.4-2.2-1.63-4.63-2.63-7.3-3-.33-.07-.67-.1-1-.1-2.03-.2-4.22-.05-6.55.45q-4.95.945-8.1 3.45c-.47.33-.9.7-1.3 1.1q-3.705-1.155-6.6-3.3c-.23-.17-.42-.22-.55-.15-.23.13-.23.45 0 .95q.9 1.395 2.55 2.55c.97.67 2.05 1.25 3.25 1.75m3 .8c1.03.23 2.23.42 3.6.55.07 0 .15.02.25.05-.23.27-.42.63-.55 1.1-.4 1.47-.22 2.63.55 3.5.4.47.92.72 1.55.75s1.18-.17 1.65-.6q.705-.495 1.05-1.5c.2-.67.25-1.33.15-2-.07-.37-.17-.68-.3-.95 3.1.13 6.1.07 9-.2 2.47-.2 4.25-.47 5.35-.8h.15c.1-.03.18-.07.25-.1.57.6.9 1.17 1 1.7.03.1.05.18.05.25-.03.43-.12.83-.25 1.2-.1.27-.23.55-.4.85-.23.33-.48.7-.75 1.1q-.495.795-1.2 1.35c-.3.2-.63.38-1 .55-1.47.7-2.95 1.2-4.45 1.5-.07.03-.15.07-.25.1-1.9.4-4.27.63-7.1.7-1.83.03-3.62-.3-5.35-1-1.93-.7-3.27-1.63-4-2.8-.03-.13-.05-.25-.05-.35-.4-.93-.47-1.9-.2-2.9.17-.67.55-1.33 1.15-2 .03-.03.07-.05.1-.05m11.3-1.05c-3.63 0-6.7-.22-9.2-.65 1.5-1 3.42-1.72 5.75-2.15 2.7-.53 5.18-.58 7.45-.15 2.2.4 4.15 1.23 5.85 2.5-2.6.33-5.88.48-9.85.45m42.9 33.95h.15c.37 0 .82-.12 1.35-.35.8-.37 1.45-.73 1.95-1.1.47-.4.88-.77 1.25-1.1.4-.37.67-.67.8-.9.1-.2.17-.37.2-.5.03-.27-.02-.5-.15-.7-.2-.33-.47-.52-.8-.55-.06-.01-.11 0-.16 0-.1 0-.2.01-.29.06-.63.03-1.35.35-2.15.95-.83.6-1.7 1.33-2.6 2.2-.27.23-.43.48-.5.75q-.045.045 0 .15c-.07.2 0 .42.2.65q.255.345.75.45Zm7.35 4.35c-1.23.9-2 1.67-2.3 2.3-.4.6-.53.97-.4 1.1.1.17.33.32.7.45.53.2 1.35-.12 2.45-.95 1.07-.87 1.77-1.43 2.1-1.7q.495-.45.9-1.05.345-.6 0-1.35-1.605-.195-3.45 1.2m-10.65 6.25c.53-.27 1.32-.85 2.35-1.75 1-.93 1.62-1.57 1.85-1.9.2-.37.28-.72.25-1.05-.07-.4-.25-.65-.55-.75-.23-.03-.62.05-1.15.25-.57.17-1.25.58-2.05 1.25-.8.63-1.38 1.37-1.75 2.2-.37.8-.42 1.37-.15 1.7.27.3.67.32 1.2.05m8.8-26.2c.03.1.15.5.35 1.2.17.67.85 1.88 2.05 3.65 1.17 1.73 2.72 3.4 4.65 5 1.93 1.57 3.97 3.03 6.1 4.4 2.17 1.33 4.68 2.52 7.55 3.55s4.97 1.55 6.3 1.55c1.8-.07 3.02-.2 3.65-.4 1.67-.47 3.8-1.57 6.4-3.3 2.47-1.6 4.87-3.82 7.2-6.65 2.33-2.77 4.07-5.42 5.2-7.95.63-1.47 1.03-3.43 1.2-5.9.13-2.33.07-3.73-.2-4.2-.47-.73-1.7-1.33-3.7-1.8-1.13-.27-3.08-.43-5.85-.5-2.8-.1-5.55-.03-8.25.2-2.7.2-4.55.33-5.55.4-4.97.27-8.68.6-11.15 1-2.47.37-4.02.63-4.65.8-.67.13-2.52.55-5.55 1.25-3.03.67-4.97 1.95-5.8 3.85-.33 1.07-.32 2.32.05 3.75-.03 0-.03.03 0 .1m47.65-6.15q-.105.645-.15 1.2c-3.23-.27-8.13-.25-14.7.05-6.6.3-12.43 1.08-17.5 2.35q-7.545 1.845-9.45 3.15-2.1-2.355-1.8-3.6c.03-.2.12-.48.25-.85.67-.43 1.5-.78 2.5-1.05 1.7-.57 3.7-1.1 6-1.6 2.3-.53 4.3-.9 6-1.1 1.67-.23 3.98-.45 6.95-.65 2.97-.23 6.17-.4 9.6-.5 3.43-.13 6.42-.12 8.95.05 1 .07 1.98.25 2.95.55.37.07.5.73.4 2"/></svg>