<svg xmlns="http://www.w3.org/2000/svg" id="a" viewBox="27.2 25.29 215.42 178.42"><defs><style>.l{fill:#8b4e77}.o{fill:#bea0c6}</style></defs><path id="b" d="M217.28 65.75c-17.9-15.59-40.92-23.48-69.05-23.67-28.06-.1-53.12 7.44-75.17 22.61-21.83 15.2-34.19 33.72-37.08 55.55-2.76 21.73 4.77 40.34 22.61 55.84 17.97 15.46 40.98 23.32 69.05 23.58 28.13.13 53.15-7.39 75.07-22.57 21.92-15.3 34.33-33.8 37.22-55.5 2.8-21.79-4.76-40.41-22.66-55.84Z" style="fill:#161b29"/><path id="c" d="M77.26 66.66c-20.73 14.14-32.45 31.28-35.15 51.4-2.67 20.19 4.48 37.45 21.46 51.79 16.97 14.37 38.75 21.62 65.33 21.75 26.62.23 50.29-6.73 71.02-20.88 20.8-14.14 32.55-31.28 35.25-51.4 2.67-20.19-4.48-37.45-21.46-51.79-16.97-14.34-38.77-21.59-65.38-21.75q-39.87-.285-71.07 20.88" style="fill:#5d6788"/><g id="d"><g id="e"><path d="M50.46 49.53c-.15-1.18-.36-2.58-.63-4.21-.34-1.67-.51-3.24-.51-4.72a33.7 33.7 0 0 0-2.62 12.79v1.19c-1.33-.19-2.73-.3-4.21-.34-1.97-.19-3.94.06-5.91.74l10.8 8.3c-.19.15-.42.51-.68 1.08-.23.57-.45.95-.68 1.14-4.06 5.12-7.05 10.99-8.98 17.63-3.37 11.03-3.43 22.14-.17 33.32q4.83 16.605 15.75 29.46c.42.49.8.99 1.14 1.48.49.64.97 1.33 1.42 2.05 1.4 2.27 2.29 4.72 2.67 7.34.08.3.13.64.17 1.02 1.36-1.21 2.26-1.97 2.67-2.27.95-.8 1.91-2.26 2.9-4.38 10.5-23.39 15.75-45.02 15.75-64.88-4.02-1.4-7.73-3.07-11.15-5-1.14-.57-2.22-1.16-3.24-1.76-1.02-.64-1.99-1.29-2.9-1.93a.45.45 0 0 0-.17-.11c-.64-.45-1.14-.97-1.48-1.54-.3-.76-.23-1.33.23-1.71.45-.45 1.33-.42 2.62.11.11.04.23.09.34.17.83.34 1.61.68 2.33 1.02.99.45 1.97.87 2.96 1.25q5.235 2.16 10.35 3.87c13.72 4.4 27.18 6.12 40.38 5.17 9.93-.68 19.43-2.16 28.49-4.44 8.98-2.27 16.4-5.97 22.23-11.09L158.5 59.87c4.36-1.33 9.63-1.63 15.81-.91q-10.635-15.69-27.69-22.29c-9.55-3.83-19.6-5.46-30.14-4.89-5.46.45-10.8 1.29-16.04 2.5-6.1 1.44-12.04 3.41-17.8 5.91-10.77 4.47-20.59 10.52-29.46 18.14-.38.34-.74.66-1.08.97q-1.425-8.025-1.65-9.78m-.04 14.39.17.17-.17-.11z" class="l"/><path d="m50.58 64.09-.17-.17v.06zm50.49-36.23c-.08 0-.19.02-.34.06A137.8 137.8 0 0 0 67.8 40.03c-4.89 2.5-9.48 5.42-13.76 8.76-.08-.23-.11-.45-.11-.68-.3-1.55-1.14-5.69-2.5-12.4-.23-1.44-.42-2.65-.57-3.64-.53 1.1-1.16 2.41-1.88 3.92-3.15 6.75-4.7 11.9-4.66 15.47-3.45-.27-6.79.13-10.01 1.19-1.06.34-1.65.78-1.76 1.31-.19.68.25 1.44 1.31 2.27l6.65 5.23c-6.86 7.89-11.05 17.4-12.57 28.55-1.63 11.79-.55 22.58 3.24 32.36q5.685 14.67 18.54 31.05c1.21 1.59 2.58 2.84 4.09 3.75 1.02.57 2.12 1 3.3 1.31.19.04.38.09.57.17.23-.23.34-.44.34-.63v-.23c-.04-.38-.09-.72-.17-1.02-.38-2.62-1.27-5.06-2.67-7.34-.45-.72-.93-1.4-1.42-2.05-.34-.49-.72-.99-1.14-1.48q-10.92-12.855-15.75-29.46c-3.26-11.18-3.2-22.29.17-33.32 1.93-6.63 4.93-12.51 8.98-17.63.23-.19.45-.57.68-1.14.27-.57.49-.93.68-1.08l-10.8-8.3c1.97-.68 3.94-.93 5.91-.74 1.48.04 2.88.15 4.21.34v-1.19c.04-4.44.91-8.7 2.62-12.79 0 1.48.17 3.05.51 4.72.27 1.63.47 3.03.63 4.21q.225 1.77 1.65 9.78c.34-.3.7-.63 1.08-.97 8.87-7.62 18.69-13.67 29.46-18.14 5.76-2.5 11.7-4.47 17.8-5.91 5.23-1.21 10.58-2.05 16.04-2.5 10.54-.57 20.59 1.06 30.14 4.89q17.055 6.6 27.69 22.29c-6.18-.72-11.45-.42-15.81.91l11.83 10.41c-5.84 5.12-13.25 8.81-22.23 11.09-9.06 2.27-18.56 3.75-28.49 4.44-13.19.95-26.65-.78-40.38-5.17q-5.115-1.71-10.35-3.87c-.99-.38-1.97-.8-2.96-1.25-.72-.34-1.5-.68-2.33-1.02-.11-.08-.23-.13-.34-.17-1.29-.53-2.16-.57-2.62-.11-.45.38-.53.95-.23 1.71.34.57.83 1.08 1.48 1.54.08.04.13.08.17.11.91.64 1.88 1.29 2.9 1.93 1.02.61 2.1 1.19 3.24 1.76 3.41 1.93 7.13 3.6 11.15 5 2.2.76 4.47 1.44 6.82 2.05 9.1 2.46 18.37 3.66 27.81 3.58 9.48-.08 18.94-1.02 28.38-2.84q14.1-2.61 23.94-8.76c5.61-3.45 10.1-6.99 13.48-10.63l-11.09-7.62 15.81 2.05c-.57-.95-1.23-2.03-1.99-3.24-4.25-7.62-9.84-14.08-16.78-19.39-9.17-7.13-19.35-11.94-30.54-14.44-11.37-2.54-22.75-2.26-34.12.85Z"/></g></g><g id="f"><path d="m140.05 71.2.6 2.9c-.77-.77-1.58-1.47-2.45-2.1-3.17-2.4-6.55-3.9-10.15-4.5-2.17-.37-5.18-.42-9.05-.15-4.8.33-8.43.87-10.9 1.6-1.77.5-4.02 1.37-6.75 2.6-4.27 2-7.78 3.73-10.55 5.2-1.47.77-2.7 1.52-3.7 2.25.2-.37.32-.72.35-1.05q.105-.555-.15-1.05c-.2-.37-.45-.6-.75-.7-.77-.23-1.55.2-2.35 1.3-9.93 13.33-16.62 30.22-20.05 50.65q-1.095 6.75-1.2 11.4v.75c-.23 2.33-.38 4.7-.45 7.1-.13 3.63.25 6.42 1.15 8.35.63 1.43 1.9 3.1 3.8 5 3.33 3.33 7.27 6.67 11.8 10 3.43 2.53 7.73 5.42 12.9 8.65 11.33 7.07 21.38 12.43 30.15 16.1q17.145 7.2 32.7 8.1 7.65.45 13.5-.9c3.13-.73 6.85-2.12 11.15-4.15 4.7-2.3 8.67-4.57 11.9-6.8 4.67-3.23 8.83-6.95 12.5-11.15.1 2.07.27 4.35.5 6.85.13 1.57.53 2.63 1.2 3.2 1.2 1 2.83.78 4.9-.65 2.33-1.6 4.87-4.2 7.6-7.8 4-5.3 7.88-11.58 11.65-18.85 2.5-4.77 5.68-11.45 9.55-20.05 1.33-2.93 2.22-5.3 2.65-7.1.67-2.7.7-5.12.1-7.25-.97-3.37-3.28-6.02-6.95-7.95-2.53-1.37-6-2.32-10.4-2.85q-12-1.395-32.1 1.5c-15.93 2.3-26.67 3.48-32.2 3.55-1.2 0-2.05-.17-2.55-.5-.6-.4-1.12-1.33-1.55-2.8l-7.6-28.95c-.13-.47-.25-.93-.35-1.4 0-2.7-.87-5.6-2.6-8.7-1-2.67-2.08-5-3.25-7-.83-1.43-1.7-2.32-2.6-2.65m-32.45 1.4c4.27-1.2 8.63-1.8 13.1-1.8q6.75-.105 11.4 1.95c4.37 1.9 7.83 5.22 10.4 9.95 2.9 13.3 6.07 26.22 9.5 38.75.7 2.47 1.57 4.08 2.6 4.85.67.47 1.5.77 2.5.9.67.07 1.58.07 2.75 0 3.67-.2 14.4-1.57 32.2-4.1 13.1-1.87 23.83-2.35 32.2-1.45 3.7.37 6.58 1.15 8.65 2.35 1.37.8 2.47 1.83 3.3 3.1q1.35 2.055 1.35 4.2-.045 1.905-1.5 5.1-7.395 16.95-11.85 25.35-7.305 13.695-15.45 23.1l-.9-6.3c-.2-1.27-.6-2.03-1.2-2.3a.93.93 0 0 0-.45-.1c-.03-.17-.1-.3-.2-.4q-.405-.555-1.2-.6c-.53-.07-1.02.02-1.45.25-.47.23-1.17.9-2.1 2-1.57 1.83-3.6 3.55-6.1 5.15-1.57 1.03-3.93 2.35-7.1 3.95-4.83 2.53-8.63 4.37-11.4 5.5-4.33 1.77-8.37 2.88-12.1 3.35q-7.395.9-18.9-1.35c-6.17-1.2-11.5-2.62-16-4.25-2.97-1.07-6.33-2.52-10.1-4.35-15.57-7.53-29.28-16.02-41.15-25.45-1.73-1.4-3.07-2.55-4-3.45-1.37-1.37-2.43-2.75-3.2-4.15-1.47-2.7-2.2-6.7-2.2-12 0-3.4.18-7.27.55-11.6q.3-3.345 1.2-11.55l.6-5.3c1.9-6.3 4.3-12.37 7.2-18.2q1.245-2.1 3.6-5.1c2.6-3.27 4.72-5.53 6.35-6.8 1.3-1 2.98-2.05 5.05-3.15 5.47-2.93 10.15-4.95 14.05-6.05m67.4 87.95c.07-.47-.03-.9-.3-1.3-.3-.43-.67-.63-1.1-.6-.6.03-1.2.22-1.8.55-.27.13-.83.6-1.7 1.4l-3.5 3.6c-.5.5-.73.92-.7 1.25 0 .37.18.65.55.85.33.2.72.3 1.15.3 1.13-.07 2.5-.77 4.1-2.1.43-.37 1.05-.95 1.85-1.75.87-.8 1.35-1.53 1.45-2.2m1.4-12.05c-.57-.27-1.12-.28-1.65-.05-.13.07-.45.3-.95.7-1.67 1.67-2.65 2.68-2.95 3.05-.57.63-.87 1.2-.9 1.7-.03.33.05.65.25.95.23.3.5.47.8.5q.405 0 .9-.3c1.93-1 3.28-1.83 4.05-2.5 1.07-.87 1.53-1.77 1.4-2.7-.1-.63-.42-1.08-.95-1.35m8.2 4.5c-.3.07-.72.27-1.25.6-1.23.87-2.48 1.93-3.75 3.2-.33.4-.53.73-.6 1-.07.3 0 .6.2.9.17.27.4.47.7.6.57.2 1.2.18 1.9-.05 1.07-.3 2.45-1.17 4.15-2.6q.855-.645 1.05-1.2c.195-.555.13-.77 0-1.2-.13-.4-.37-.72-.7-.95-.5-.37-1.07-.47-1.7-.3"/><path d="M120.7 70.8c-4.47 0-8.83.6-13.1 1.8-3.9 1.1-8.58 3.12-14.05 6.05-2.07 1.1-3.75 2.15-5.05 3.15-1.63 1.27-3.75 3.53-6.35 6.8q-2.355 3-3.6 5.1c-2.9 5.83-5.3 11.9-7.2 18.2l-.6 5.3q-.9 8.205-1.2 11.55c-.37 4.33-.55 8.2-.55 11.6 0 5.3.73 9.3 2.2 12 .77 1.4 1.83 2.78 3.2 4.15.93.9 2.27 2.05 4 3.45 11.87 9.43 25.58 17.92 41.15 25.45 3.77 1.83 7.13 3.28 10.1 4.35 4.5 1.63 9.83 3.05 16 4.25q11.505 2.25 18.9 1.35c3.73-.47 7.77-1.58 12.1-3.35 2.77-1.13 6.57-2.97 11.4-5.5 3.17-1.6 5.53-2.92 7.1-3.95 2.5-1.6 4.53-3.32 6.1-5.15.93-1.1 1.63-1.77 2.1-2 .43-.23.92-.32 1.45-.25q.795.045 1.2.6c.1.1.17.23.2.4.17 0 .32.03.45.1.6.27 1 1.03 1.2 2.3l.9 6.3q8.145-9.405 15.45-23.1 4.455-8.4 11.85-25.35 1.455-3.195 1.5-5.1 0-2.145-1.35-4.2c-.83-1.27-1.93-2.3-3.3-3.1-2.07-1.2-4.95-1.98-8.65-2.35-8.37-.9-19.1-.42-32.2 1.45-17.8 2.53-28.53 3.9-32.2 4.1-1.17.07-2.08.07-2.75 0-1-.13-1.83-.43-2.5-.9-1.03-.77-1.9-2.38-2.6-4.85-3.43-12.53-6.6-25.45-9.5-38.75-2.57-4.73-6.03-8.05-10.4-9.95q-4.65-2.055-11.4-1.95m62.65 82.8c.53-.33.95-.53 1.25-.6.63-.17 1.2-.07 1.7.3.33.23.57.55.7.95q.195.645 0 1.2c-.195.555-.48.77-1.05 1.2-1.7 1.43-3.08 2.3-4.15 2.6-.7.23-1.33.25-1.9.05-.3-.13-.53-.33-.7-.6-.2-.3-.27-.6-.2-.9.07-.27.27-.6.6-1 1.27-1.27 2.52-2.33 3.75-3.2m-8.6-5.15c.53-.23 1.08-.22 1.65.05.53.27.85.72.95 1.35.13.93-.33 1.83-1.4 2.7-.77.67-2.12 1.5-4.05 2.5q-.495.3-.9.3c-.3-.03-.57-.2-.8-.5-.2-.3-.28-.62-.25-.95.03-.5.33-1.07.9-1.7.3-.37 1.28-1.38 2.95-3.05.5-.4.82-.63.95-.7m-.05 10.8c.27.4.37.83.3 1.3-.1.67-.58 1.4-1.45 2.2-.8.8-1.42 1.38-1.85 1.75-1.6 1.33-2.97 2.03-4.1 2.1-.43 0-.82-.1-1.15-.3-.37-.2-.55-.48-.55-.85-.03-.33.2-.75.7-1.25l3.5-3.6c.87-.8 1.43-1.27 1.7-1.4.6-.33 1.2-.52 1.8-.55.43-.03.8.17 1.1.6" class="o"/></g><g id="g"><path d="M222.5 148.95c2.23-1.83 4.33-3.77 6.3-5.8 2.27-2.4 4.08-5.1 5.45-8.1 1-2.2.7-4.18-.9-5.95-1.43-1.53-3.17-2.6-5.2-3.2-3.13-.77-6.3-1.22-9.5-1.35-2.67-.03-5.3-.07-7.9-.1-2.97-.07-5.93.1-8.9.5-2.87.2-5.77.53-8.7 1-3.03.67-6.02 1.48-8.95 2.45-2.6 1-5.08 2.2-7.45 3.6-1.63 1-2.45 2.45-2.45 4.35.53 1.8 1.42 3.32 2.65 4.55 2.13 2.07 4.5 3.88 7.1 5.45s5.37 2.85 8.3 3.85c2.53.8 5.15 1.57 7.85 2.3 3.07.83 6.2 1.28 9.4 1.35a17.7 17.7 0 0 0 8.15-1.85c1.73-.8 3.32-1.82 4.75-3.05m8.7-14.35a40 40 0 0 0-8.45-1.1c-3.23-.27-6.48-.35-9.75-.25-2.97.07-5.97.1-9 .1-3.67.03-7.33.38-11 1.05-4.53.67-9 1.75-13.4 3.25l-2.15-2.4c2.2-1.8 4.68-3.07 7.45-3.8 2.73-.73 5.5-1.32 8.3-1.75s5.62-.73 8.45-.9c3.1-.33 6.22-.53 9.35-.6 2.73-.07 5.52 0 8.35.2 3.1.07 6.18.48 9.25 1.25 2.8.73 3.67 2.38 2.6 4.95"/><path d="M222.75 133.5c2.87.07 5.68.43 8.45 1.1 1.07-2.57.2-4.22-2.6-4.95-3.07-.77-6.15-1.18-9.25-1.25-2.83-.2-5.62-.27-8.35-.2-3.13.07-6.25.27-9.35.6-2.83.17-5.65.47-8.45.9s-5.57 1.02-8.3 1.75c-2.77.73-5.25 2-7.45 3.8l2.15 2.4c4.4-1.5 8.87-2.58 13.4-3.25 3.67-.67 7.33-1.02 11-1.05 3.03 0 6.03-.03 9-.1 3.27-.1 6.52-.02 9.75.25" style="fill:#d6dee8"/></g><g id="h"><g id="i"><path d="M138.1 124.9q.945-1.155 1.2-2.7c0-.17.02-.35.05-.55V121c0-1.47-.47-2.88-1.4-4.25-.93-1.3-2.18-2.48-3.75-3.55-2.7-1.8-5.68-2.9-8.95-3.3-.43-.07-.85-.1-1.25-.1-2.53-.23-5.2-.08-8 .45-4.07.7-7.42 1.97-10.05 3.8-.57.37-1.08.77-1.55 1.2-3-.83-5.68-2.03-8.05-3.6-.33-.2-.57-.27-.7-.2q-.45.255 0 1.05c.7 1.03 1.73 1.97 3.1 2.8 1.17.73 2.5 1.37 4 1.9-.07.07-.13.17-.2.3-.57.87-.9 1.78-1 2.75-.07.9 0 1.78.2 2.65.7 2.23 1.77 3.93 3.2 5.1 1.23 1.07 3.1 1.97 5.6 2.7 3.6 1.07 8.62 1 15.05-.2 1.07-.17 2.13-.38 3.2-.65 1.83-.53 3.65-1.23 5.45-2.1 1.53-.67 2.82-1.62 3.85-2.85m-27.25-6.2c.1 0 .2.02.3.05-.27.3-.48.7-.65 1.2-.5 1.6-.28 2.88.65 3.85.5.5 1.13.77 1.9.8.8.03 1.48-.17 2.05-.6.57-.4.98-.97 1.25-1.7.23-.7.3-1.42.2-2.15-.07-.43-.18-.78-.35-1.05 3.77.13 7.45.07 11.05-.2q4.5-.405 6.6-.9c.17-.03.32-.07.45-.1.7.63 1.12 1.25 1.25 1.85.03.1.05.2.05.3-.07.43-.18.87-.35 1.3q-.15.45-.45.9l-.9 1.2q-1.05 1.455-2.7 2.1c-1.8.77-3.62 1.32-5.45 1.65-.13.03-.25.07-.35.1-2.33.43-5.25.68-8.75.75-2.2.03-4.38-.32-6.55-1.05-2.37-.8-3.98-1.83-4.85-3.1-.07-.13-.12-.25-.15-.35-.43-1.03-.5-2.1-.2-3.2.23-.73.72-1.45 1.45-2.15l.1-.1c1.27.23 2.73.43 4.4.6m14.35-5c2.7.47 5.1 1.38 7.2 2.75-3.17.4-7.18.57-12.05.5-4.5 0-8.28-.23-11.35-.7 1.87-1.07 4.23-1.85 7.1-2.35 3.3-.6 6.33-.67 9.1-.2m31-4.1c-3.07.73-5.92 1.95-8.55 3.65-2.5 1.6-4.12 3.3-4.85 5.1-.27.63-.42 1.6-.45 2.9v1.05c.97 3.97 3.42 6.2 7.35 6.7 3.37.57 6.7.45 10-.35 4.73-1.03 8.95-3.13 12.65-6.3 3.03-2.53 3.75-5.45 2.15-8.75-.33-.5-.75-.98-1.25-1.45-.27-.27-.55-.5-.85-.7q.945-.555 1.65-1.05c1.5-1.1 2.33-2.22 2.5-3.35.07-.27.03-.47-.1-.6-.2-.23-.53-.17-1 .2-1.57 1.23-3.37 2.4-5.4 3.5q-2.1-.9-4.8-1.2c-1.5-.17-3-.18-4.5-.05-1.53.1-3.05.33-4.55.7m-.35 8.75.05-.05c4.43-1.37 8.88-3.1 13.35-5.2.07-.03.13-.05.2-.05.33.17.67.35 1 .55.3.2.58.42.85.65.3.3.57.65.8 1.05.2.33.25.67.15 1-.63 1.9-1.75 3.53-3.35 4.9q-1.995 1.695-5.7 3.3c-1.37.6-3.12 1.12-5.25 1.55q-3.255.645-5.55.6c-3.93-.07-6.4-1.33-7.4-3.8-.1-.2-.17-.67-.2-1.4-.07-.73-.07-1.25 0-1.55 1.57.13 3.37.05 5.4-.25-.07.07-.12.15-.15.25-.17.37-.22.85-.15 1.45.13.6.35 1.05.65 1.35.3.33.75.57 1.35.7.63.1 1.2.07 1.7-.1.83-.23 1.52-.88 2.05-1.95q.495-1.05.45-1.95c0-.4-.08-.75-.25-1.05m-8.2-2.4q2.895-2.145 7.35-3.3c2.97-.87 5.62-1.25 7.95-1.15 1.23.03 2.4.18 3.5.45l-.3.1c-2.2.97-5.58 2.25-10.15 3.85-2.27.77-4.05 1.3-5.35 1.6-1 .23-2.57.45-4.7.65l-.65.1c.43-.77 1.22-1.53 2.35-2.3"/><path d="M132.4 116.45c-2.1-1.37-4.5-2.28-7.2-2.75-2.77-.47-5.8-.4-9.1.2-2.87.5-5.23 1.28-7.1 2.35 3.07.47 6.85.7 11.35.7 4.87.07 8.88-.1 12.05-.5m22.6-3.8q-4.455 1.155-7.35 3.3c-1.13.77-1.92 1.53-2.35 2.3l.65-.1c2.13-.2 3.7-.42 4.7-.65 1.3-.3 3.08-.83 5.35-1.6 4.57-1.6 7.95-2.88 10.15-3.85l.3-.1c-1.1-.27-2.27-.42-3.5-.45-2.33-.1-4.98.28-7.95 1.15" class="o"/><path d="M111.15 118.75c-.1-.03-.2-.05-.3-.05a58 58 0 0 1-4.4-.6l-.1.1c-.73.7-1.22 1.42-1.45 2.15-.3 1.1-.23 2.17.2 3.2.03.1.08.22.15.35.87 1.27 2.48 2.3 4.85 3.1 2.17.73 4.35 1.08 6.55 1.05 3.5-.07 6.42-.32 8.75-.75.1-.03.22-.07.35-.1 1.83-.33 3.65-.88 5.45-1.65q1.65-.645 2.7-2.1l.9-1.2q.3-.45.45-.9c.17-.43.28-.87.35-1.3 0-.1-.02-.2-.05-.3-.13-.6-.55-1.22-1.25-1.85-.13.03-.28.07-.45.1q-2.1.495-6.6.9c-3.6.27-7.28.33-11.05.2.17.27.28.62.35 1.05.1.73.03 1.45-.2 2.15-.27.73-.68 1.3-1.25 1.7-.57.43-1.25.63-2.05.6-.77-.03-1.4-.3-1.9-.8-.93-.97-1.15-2.25-.65-3.85.17-.5.38-.9.65-1.2m44.75-.45-.05.05c.17.3.25.65.25 1.05q.045.9-.45 1.95c-.53 1.07-1.22 1.72-2.05 1.95-.5.17-1.07.2-1.7.1-.6-.13-1.05-.37-1.35-.7-.3-.3-.52-.75-.65-1.35-.07-.6-.02-1.08.15-1.45.03-.1.08-.18.15-.25-2.03.3-3.83.38-5.4.25-.07.3-.07.82 0 1.55.03.73.1 1.2.2 1.4 1 2.47 3.47 3.73 7.4 3.8q2.295.045 5.55-.6c2.13-.43 3.88-.95 5.25-1.55q3.705-1.605 5.7-3.3c1.6-1.37 2.72-3 3.35-4.9.1-.33.05-.67-.15-1-.23-.4-.5-.75-.8-1.05-.27-.23-.55-.45-.85-.65-.33-.2-.67-.38-1-.55-.07 0-.13.02-.2.05-4.47 2.1-8.92 3.83-13.35 5.2" style="fill:#e8e6d6"/></g></g><g id="j"><path d="M83.7 120.9c.97-2.1 1.93-4.2 2.9-6.3L81 90.95c-1.07 1.1-1.97 2.03-2.7 2.8-4.4 5.37-8.42 11.02-12.05 16.95-3.07 5.37-5.92 10.83-8.55 16.4-1.97 4.17-4.02 9.83-6.15 17-.93 3.13-1.5 6.1-1.7 8.9-.2 2.67-.08 5.67.35 9 .87 6.33 4.57 9.17 11.1 8.5 2.83-.5 5.17-1.87 7-4.1 2.57-3.03 4.2-6.58 4.9-10.65 1.07-6.4 2.55-12.7 4.45-18.9 1.67-5.57 3.68-10.88 6.05-15.95" class="o"/><path d="M81 90.95c.6-.7 1.28-1.43 2.05-2.2-.9-.67-1.83-1.28-2.8-1.85-.23-.13-.47-.25-.7-.35-1.03.93-2.05 1.9-3.05 2.9-6.6 6.97-12.22 14.65-16.85 23.05q-4.755 8.805-6.9 13.8c-2.87 6.67-5 12.4-6.4 17.2-1.4 4.77-2.13 10.57-2.2 17.4-.03 2.5.47 4.97 1.5 7.4 1.03 2.37 2.4 4.32 4.1 5.85 2.1 1.9 4.87 2.92 8.3 3.05 3.37.13 6.73-.57 10.1-2.1 2.7-1.2 4.9-3.38 6.6-6.55q2.055-3.705 3.3-9.6l.9-6.4c.47-9.2 2.38-18.07 5.75-26.6 1.07-2.73 2.1-5.47 3.1-8.2.33-.9.57-1.83.7-2.8-.1-.13-.2-.27-.3-.4q-.255-.15-.45-.3c-.17-.03-.33-.05-.5-.05s-.33.02-.5.05c-.03.03-.05.08-.05.15-.03.07-.07.13-.1.2-.97 2.1-1.93 4.2-2.9 6.3-2.37 5.07-4.38 10.38-6.05 15.95-1.9 6.2-3.38 12.5-4.45 18.9-.7 4.07-2.33 7.62-4.9 10.65-1.83 2.23-4.17 3.6-7 4.1-6.53.67-10.23-2.17-11.1-8.5-.43-3.33-.55-6.33-.35-9 .2-2.8.77-5.77 1.7-8.9 2.13-7.17 4.18-12.83 6.15-17 2.63-5.57 5.48-11.03 8.55-16.4 3.63-5.93 7.65-11.58 12.05-16.95.73-.77 1.63-1.7 2.7-2.8"/></g><g id="k"><path d="M174.3 58.95c-7.07-10.47-16.3-17.88-27.7-22.25-9.53-3.83-19.57-5.47-30.1-4.9-5.47.43-10.82 1.27-16.05 2.5-6.1 1.43-12.03 3.4-17.8 5.9-10.77 4.47-20.58 10.52-29.45 18.15-.4.33-.77.65-1.1.95q-1.395-7.995-1.65-9.75c-.13-1.2-.33-2.62-.6-4.25-.37-1.67-.55-3.23-.55-4.7-1.7 4.1-2.57 8.37-2.6 12.8v1.2c-1.33-.2-2.73-.32-4.2-.35-1.97-.2-3.93.05-5.9.75l10.8 8.3c-.2.13-.43.48-.7 1.05-.23.57-.45.95-.65 1.15-4.07 5.13-7.07 11.02-9 17.65-.48 1.56-.89 3.11-1.25 4.65l43.5.25c.03-.6.05-1.2.05-1.8-4.03-1.4-7.75-3.07-11.15-5a62 62 0 0 1-3.25-1.75c-1-.63-1.97-1.28-2.9-1.95a.5.5 0 0 0-.15-.1c-.63-.47-1.13-.98-1.5-1.55-.3-.73-.22-1.3.25-1.7.43-.43 1.3-.4 2.6.1.13.07.25.13.35.2.83.33 1.62.67 2.35 1 .97.47 1.95.88 2.95 1.25q5.205 2.205 10.35 3.9c13.7 4.4 27.15 6.12 40.35 5.15 9.93-.67 19.43-2.15 28.5-4.45 9-2.27 16.42-5.95 22.25-11.05L158.5 59.9c4.37-1.33 9.63-1.65 15.8-.95M50.4 63.9l.2.2-.2-.15z" class="l"/><path d="m50.6 64.1-.2-.2v.05zm133.9 0c-.57-.97-1.23-2.05-2-3.25-4.23-7.63-9.82-14.1-16.75-19.4-9.2-7.13-19.38-11.95-30.55-14.45-11.37-2.53-22.75-2.25-34.15.85-.07 0-.17.02-.3.05A137.6 137.6 0 0 0 67.8 40.05c-4.9 2.5-9.48 5.42-13.75 8.75-.07-.23-.1-.47-.1-.7-.3-1.57-1.13-5.7-2.5-12.4-.23-1.43-.43-2.65-.6-3.65-.53 1.1-1.15 2.42-1.85 3.95-3.17 6.73-4.73 11.88-4.7 15.45-3.43-.27-6.77.13-10 1.2-1.07.33-1.65.77-1.75 1.3-.2.7.23 1.47 1.3 2.3l6.65 5.2C34.09 68.82 30.01 77.6 28.25 87.8h7.55c.36-1.54.77-3.09 1.25-4.65 1.93-6.63 4.93-12.52 9-17.65.2-.2.42-.58.65-1.15.27-.57.5-.92.7-1.05L36.6 55c1.97-.7 3.93-.95 5.9-.75 1.47.03 2.87.15 4.2.35v-1.2c.03-4.43.9-8.7 2.6-12.8 0 1.47.18 3.03.55 4.7.27 1.63.47 3.05.6 4.25q.255 1.755 1.65 9.75c.33-.3.7-.62 1.1-.95 8.87-7.63 18.68-13.68 29.45-18.15 5.77-2.5 11.7-4.47 17.8-5.9a106.5 106.5 0 0 1 16.05-2.5c10.53-.57 20.57 1.07 30.1 4.9 11.4 4.37 20.63 11.78 27.7 22.25-6.17-.7-11.43-.38-15.8.95l11.85 10.4c-5.83 5.1-13.25 8.78-22.25 11.05-9.07 2.3-18.57 3.78-28.5 4.45-13.2.97-26.65-.75-40.35-5.15q-5.145-1.695-10.35-3.9c-1-.37-1.98-.78-2.95-1.25-.73-.33-1.52-.67-2.35-1-.1-.07-.22-.13-.35-.2-1.3-.5-2.17-.53-2.6-.1-.47.4-.55.97-.25 1.7.37.57.87 1.08 1.5 1.55.07.03.12.07.15.1.93.67 1.9 1.32 2.9 1.95 1.03.6 2.12 1.18 3.25 1.75 3.4 1.93 7.12 3.6 11.15 5 2.2.77 4.47 1.45 6.8 2.05 9.1 2.47 18.38 3.67 27.85 3.6q14.205-.105 28.35-2.85c9.4-1.73 17.38-4.65 23.95-8.75q8.4-5.205 13.5-10.65l-11.1-7.6z"/></g></svg>