<svg xmlns="http://www.w3.org/2000/svg" viewBox="0 0 192.8 194.9"><path d="M92 182c-13.2 0-26.3-2.6-38.9-7.8-17.5-7.6-29.6-20.7-35.9-39.1-6.9-20.3-6.4-40.9 1.6-61.1C26 54.7 38.4 38.8 55.6 26.8c13.2-9.2 27.8-13.9 43.3-13.9s8.2.3 12.5.9c20 3.6 36.9 13.5 50.3 29.5 13.4 15.9 20 34.6 19.6 55.6-.2 19.4-6.3 37.1-18.2 52.5v.2c-14.2 15.6-31.8 25.3-52.2 28.7-6.3 1.1-12.6 1.7-18.7 1.7Zm-51.8-74.1c.9 6 3.3 12.1 7.2 18.2 5.2 8.2 12.5 14.9 21.6 20 4.5 2.6 9.6 4.4 15.2 5.4q3.75.75 7.8 1.5c7.3-.2 14.9-2 22.5-5.2 9-3.9 17.4-10.6 24.8-19.9 5.9-7.7 10.3-15.6 13-23.4.9-3.6 1.6-6.8 1.9-9.5-.4-2.4-.5-3.4-.5-3.9V91l-.2.6-.3.4c-.8 1.1-2.2 3.5-3.7 8.3-1.5 3.9-2.8 7-3.7 9.1-3.9 7.9-8.6 14.8-13.9 20.7-10.6 10.9-22.8 17.2-36.2 18.8h-.1c-1.5.1-2.9.2-4.4.2-5.4 0-10.8-.8-16.1-2.4-6.9-2.6-13-6.4-17.9-11.3-6.6-6.4-12.1-15.6-16.5-27.5ZM51 83.6c1.6 1.9 3.5 3.4 5.7 4.4 2.8 1.3 5.7 1.9 8.7 1.9s4.1-.3 6.2-.8c5.5-1.4 9.3-3.8 11.5-7.5 1.2-1.9 2.2-4.5 3-7.7.7-2.6 1.1-4.3 1.2-5.4.1-1.8 0-3.4-.2-4.8v-.4c-.2-3.6-.8-6.7-2.1-9.3-1.3-3.2-3.2-5.5-5.9-7.1-1.8-1-3.8-1.6-6-1.6s-3 .2-4.6.7l-1 1-1.8-.7q-.75-.3-1.8-.3h-.6c-1.1 0-2.5.5-4 1.6h-.2v.1c-.3.2-1.2 1-4.3 3.9-4.1 4.7-5.5 6.5-5.9 7.1l-4.3 6.6c-.4.9-.5 1.8-.4 3 .1 1 .5 1.9 1 2.8.3.4.7.7 1.2 1l1.4.8v1.6c0 .9 0 1.7.2 2.6.3 2.3 1.2 4.4 2.7 6.4Zm65.8 1.1c1.3.3 2.7.5 4.1.5q3.3 0 6.9-1.2c4.1-1.5 7.2-3.9 9.2-7.4.6-1.5 1-2.9 1.3-4.3v-.2c2.1-6.6 2.2-12.7.5-18.2-1.1-2.9-2.6-5.4-4.6-7.5-2.1-2.2-4.4-3.6-7.2-4.4-.7-.2-1.5-.4-2.2-.4h-1.2l-.8-.8c-.2-.2-.5-.4-.9-.7-1.3-.7-2.6-1-3.9-1s-1.1 0-1.6.2c-2.3.6-4.6 2-6.8 4.3-3.2 3.5-5.7 7.6-7.5 12.1-.4 1.2-.8 2.3-1 3.2l.4.8-.4 1.2c-.7 1.8-.4 3.3.8 4.9l1.1 1.1v1c.4 2.4 1.2 5.6 2.4 9.4.4 1.8.8 2.4 1 2.6.6.3 1.5.8 2.6 1.5.7.2 1.9.7 4.3 1.9 1.5.8 2.8 1.3 3.7 1.6Z" style="fill:#52dc85"/><path d="M71.6 55c-.9 2.4-1.3 3.7-1.3 3.9-.9 1.4-2.2 3.1-3.9 5.2-4.3 4.5-8.3 7.8-11.9 9.9-1.4.7-2.5 1.1-3.4 1.3-1.4.5-2.8.5-4.4 0-.5-.2-1-.4-1.6-.8 0 1 0 2.1.3 3.1.3 2.8 1.5 5.4 3.4 7.8 1.9 2.2 4.2 4 6.7 5.2 5.2 2.4 10.8 2.8 16.9 1.3 6.2-1.6 10.6-4.5 13.2-8.8 1.4-2.1 2.5-4.9 3.4-8.6.7-2.6 1.1-4.5 1.3-5.7.2-2.1 0-4-.3-5.7-.2-4-.9-7.4-2.3-10.4-1.6-3.6-3.9-6.4-7-8.3-4-2.2-8.4-2.6-13.2-1-.2 0-.3 0-.5.3 1.4.3 2.5 1 3.4 2.1 1.7 1.9 2.4 4.1 2.1 6.5l-.8 2.8m54.7-4.2c-.7 1.2-1.9 3-3.6 5.5l-6.2 7.8c-.7.7-2.1 1.7-4.2 3.1-2.2 1.6-3.9 2.4-4.9 2.6-2.9.9-5.4.3-7.3-1.8.3 2.6 1.1 5.9 2.3 9.9q.75 3.15 2.1 4.2c.3.2 1.4.8 3.1 1.8q1.05.3 4.2 1.8 2.55 1.35 4.2 1.8c4 1 8.2.8 12.7-.8 4.8-1.7 8.5-4.7 10.9-8.8.7-1.7 1.2-3.4 1.6-4.9 2.2-7.3 2.4-13.9.5-20-1.2-3.3-2.9-6.1-5.2-8.6-2.4-2.6-5.3-4.3-8.6-5.2-1-.3-2.1-.5-3.1-.5 1.7 1.6 2.7 3.5 2.8 5.7.2 1.9-.3 4.1-1.3 6.5Z" style="fill:#fff"/><path d="M132.6 7.3C121.5 2.5 110.5 0 99.6 0c-8.1-.3-16.3.8-24.4 3.4-16.3 4.8-30.3 13.6-42 26.2C21.4 42.4 12.6 57.1 6.7 73.7 2.1 86.2-.1 98.9 0 111.9c-.2 6.7.3 13.5 1.6 20.2 1.9 5.7 4.1 11.4 6.7 17.1 8.5 18.7 22.4 31.4 41.8 38.1 13.5 4.5 27.3 7 41.5 7.5 4-.2 8.1-.4 12.4-.5 19.5-1.2 37-7.7 52.4-19.4 15.7-12.3 26.8-28.2 33.2-47.7 2.1-7.3 3.1-14.6 3.1-22.1s-.2-6.7-.5-9.9q-3.6-28.5-19.2-53.4-15.3-24.15-40.5-34.5m-21.4 9.4c19.4 3.5 35.5 13 48.5 28.5q19.5 23.1 18.9 53.7c-.2 18.8-6.1 35.8-17.6 50.8-13.8 15.2-30.7 24.5-50.6 27.8-19.4 3.5-38.1 1.5-56-6-16.8-7.3-28.2-19.7-34.2-37.4-6.7-19.7-6.2-39.4 1.6-59.1 7.1-18.8 19-34.2 35.8-45.9 16.1-11.2 34-15.4 53.7-12.5M41.5 68.5c.2 1.6.7 2.9 1.6 4.2q.75 1.05 2.1 1.8c.5.3 1 .6 1.6.8 1.6.5 3 .5 4.4 0 .9-.2 2-.6 3.4-1.3 3.6-2.1 7.6-5.4 11.9-9.9 1.7-2.1 3-3.8 3.9-5.2 0-.2.4-1.5 1.3-3.9l.8-2.8c.3-2.4-.3-4.6-2.1-6.5-.9-1-2-1.7-3.4-2.1-.9-.3-1.8-.5-2.8-.5-1.9-.2-4 .5-6.2 2.1-.3.2-2 1.6-4.9 4.4-3.5 4-5.5 6.5-6.2 7.5l-4.4 6.7c-.7 1.4-1 2.9-.8 4.7M157 95c-.4-1.9-.5-3.2-.5-3.9-.2-2.2-.9-3.5-2.1-3.6l-.5-.3c-1.4-.3-2.4.7-3.1 3.1-1.4 1.9-2.8 4.9-4.1 9.1-1.6 4-2.8 6.9-3.6 8.8-3.8 7.6-8.3 14.3-13.5 20-10.2 10.4-21.7 16.3-34.5 17.9-6.6.5-13.1-.2-19.4-2.1-6.6-2.4-12.2-6-16.9-10.6-8-7.8-14.3-19.8-18.9-36.1-.5-1.6-1-2.2-1.6-2.1-.9-.3-1.3.3-1.3 2.1-.2.9-.3 2-.3 3.4s0 .9.3 1.8c0 8.3 2.7 16.7 8 25.2 5.5 8.6 13.1 15.6 22.6 21 4.8 2.8 10.2 4.7 16.1 5.7 2.6.5 5.3 1 8 1.6 7.8-.2 15.7-2 23.9-5.4 9.5-4.1 18.2-11.1 25.9-20.8 6.2-8.1 10.7-16.3 13.5-24.4 1-4 1.7-7.4 2.1-10.4m-34.4-38.7c1.7-2.4 2.9-4.2 3.6-5.5 1-2.4 1.5-4.6 1.3-6.5-.2-2.2-1.1-4.2-2.8-5.7-.3-.3-.8-.7-1.3-1-2.4-1.4-5-1.8-7.8-1.3-2.9.7-5.7 2.4-8.3 5.2-3.5 3.8-6.1 8.1-8 13-.7 1.9-1.1 3.5-1.3 4.7l.3.5c-1 2.8-.6 5.4 1.3 7.8l.5.5c1.9 2.1 4.3 2.7 7.3 1.8 1-.2 2.7-1 4.9-2.6 2.1-1.4 3.5-2.4 4.2-3.1l6.2-7.8Z"/></svg>