<svg xmlns="http://www.w3.org/2000/svg" id="a" viewBox="26.89 16.48 215.74 187.87"><defs><style>.q{fill:#847362}</style></defs><path id="b" d="M217.28 65.75c-17.9-15.59-40.92-23.48-69.05-23.67-28.06-.1-53.12 7.44-75.17 22.61-21.83 15.2-34.19 33.72-37.08 55.55-2.76 21.73 4.77 40.34 22.61 55.84 17.97 15.46 40.98 23.32 69.05 23.58 28.13.13 53.15-7.39 75.07-22.57 21.92-15.3 34.33-33.8 37.22-55.5 2.8-21.79-4.76-40.41-22.66-55.84Z" style="fill:#161b29"/><path id="c" d="M77.26 66.66c-20.73 14.14-32.45 31.28-35.15 51.4-2.67 20.19 4.48 37.45 21.46 51.79 16.97 14.37 38.75 21.62 65.33 21.75 26.62.23 50.29-6.73 71.02-20.88 20.8-14.14 32.55-31.28 35.25-51.4 2.67-20.19-4.48-37.45-21.46-51.79-16.97-14.34-38.77-21.59-65.38-21.75q-39.87-.285-71.07 20.88" style="fill:#5d6788"/><g id="d"><path d="m140.05 71.2.6 2.9c-.77-.77-1.58-1.47-2.45-2.1-3.17-2.4-6.55-3.9-10.15-4.5-2.17-.37-5.18-.42-9.05-.15-4.8.33-8.43.87-10.9 1.6-1.77.5-4.02 1.37-6.75 2.6-4.27 2-7.78 3.73-10.55 5.2-1.47.77-2.7 1.52-3.7 2.25.2-.37.32-.72.35-1.05q.105-.555-.15-1.05c-.2-.37-.45-.6-.75-.7-.77-.23-1.55.2-2.35 1.3-9.93 13.33-16.62 30.22-20.05 50.65q-1.095 6.75-1.2 11.4v.75c-.23 2.33-.38 4.7-.45 7.1-.13 3.63.25 6.42 1.15 8.35.63 1.43 1.9 3.1 3.8 5 3.33 3.33 7.27 6.67 11.8 10 3.43 2.53 7.73 5.42 12.9 8.65 11.33 7.07 21.38 12.43 30.15 16.1q17.145 7.2 32.7 8.1 7.65.45 13.5-.9c3.13-.73 6.85-2.12 11.15-4.15 4.7-2.3 8.67-4.57 11.9-6.8 4.67-3.23 8.83-6.95 12.5-11.15.1 2.07.27 4.35.5 6.85.13 1.57.53 2.63 1.2 3.2 1.2 1 2.83.78 4.9-.65 2.33-1.6 4.87-4.2 7.6-7.8 4-5.3 7.88-11.58 11.65-18.85 2.5-4.77 5.68-11.45 9.55-20.05 1.33-2.93 2.22-5.3 2.65-7.1.67-2.7.7-5.12.1-7.25-.97-3.37-3.28-6.02-6.95-7.95-2.53-1.37-6-2.32-10.4-2.85q-12-1.395-32.1 1.5c-15.93 2.3-26.67 3.48-32.2 3.55-1.2 0-2.05-.17-2.55-.5-.6-.4-1.12-1.33-1.55-2.8l-7.6-28.95c-.13-.47-.25-.93-.35-1.4 0-2.7-.87-5.6-2.6-8.7-1-2.67-2.08-5-3.25-7-.83-1.43-1.7-2.32-2.6-2.65m-32.45 1.4c4.27-1.2 8.63-1.8 13.1-1.8q6.75-.105 11.4 1.95c4.37 1.9 7.83 5.22 10.4 9.95 2.9 13.3 6.07 26.22 9.5 38.75.7 2.47 1.57 4.08 2.6 4.85.67.47 1.5.77 2.5.9.67.07 1.58.07 2.75 0 3.67-.2 14.4-1.57 32.2-4.1 13.1-1.87 23.83-2.35 32.2-1.45 3.7.37 6.58 1.15 8.65 2.35 1.37.8 2.47 1.83 3.3 3.1q1.35 2.055 1.35 4.2-.045 1.905-1.5 5.1-7.395 16.95-11.85 25.35-7.305 13.695-15.45 23.1l-.9-6.3c-.2-1.27-.6-2.03-1.2-2.3a.93.93 0 0 0-.45-.1c-.03-.17-.1-.3-.2-.4q-.405-.555-1.2-.6c-.53-.07-1.02.02-1.45.25-.47.23-1.17.9-2.1 2-1.57 1.83-3.6 3.55-6.1 5.15-1.57 1.03-3.93 2.35-7.1 3.95-4.83 2.53-8.63 4.37-11.4 5.5-4.33 1.77-8.37 2.88-12.1 3.35q-7.395.9-18.9-1.35c-6.17-1.2-11.5-2.62-16-4.25-2.97-1.07-6.33-2.52-10.1-4.35-15.57-7.53-29.28-16.02-41.15-25.45-1.73-1.4-3.07-2.55-4-3.45-1.37-1.37-2.43-2.75-3.2-4.15-1.47-2.7-2.2-6.7-2.2-12 0-3.4.18-7.27.55-11.6q.3-3.345 1.2-11.55l.6-5.3c1.9-6.3 4.3-12.37 7.2-18.2q1.245-2.1 3.6-5.1c2.6-3.27 4.72-5.53 6.35-6.8 1.3-1 2.98-2.05 5.05-3.15 5.47-2.93 10.15-4.95 14.05-6.05m67.4 87.95c.07-.47-.03-.9-.3-1.3-.3-.43-.67-.63-1.1-.6-.6.03-1.2.22-1.8.55-.27.13-.83.6-1.7 1.4l-3.5 3.6c-.5.5-.73.92-.7 1.25 0 .37.18.65.55.85.33.2.72.3 1.15.3 1.13-.07 2.5-.77 4.1-2.1.43-.37 1.05-.95 1.85-1.75.87-.8 1.35-1.53 1.45-2.2m1.4-12.05c-.57-.27-1.12-.28-1.65-.05-.13.07-.45.3-.95.7-1.67 1.67-2.65 2.68-2.95 3.05-.57.63-.87 1.2-.9 1.7-.03.33.05.65.25.95.23.3.5.47.8.5q.405 0 .9-.3c1.93-1 3.28-1.83 4.05-2.5 1.07-.87 1.53-1.77 1.4-2.7-.1-.63-.42-1.08-.95-1.35m8.2 4.5c-.3.07-.72.27-1.25.6-1.23.87-2.48 1.93-3.75 3.2-.33.4-.53.73-.6 1-.07.3 0 .6.2.9.17.27.4.47.7.6.57.2 1.2.18 1.9-.05 1.07-.3 2.45-1.17 4.15-2.6q.855-.645 1.05-1.2c.195-.555.13-.77 0-1.2-.13-.4-.37-.72-.7-.95-.5-.37-1.07-.47-1.7-.3"/><path d="M120.7 70.8c-4.47 0-8.83.6-13.1 1.8-3.9 1.1-8.58 3.12-14.05 6.05-2.07 1.1-3.75 2.15-5.05 3.15-1.63 1.27-3.75 3.53-6.35 6.8q-2.355 3-3.6 5.1c-2.9 5.83-5.3 11.9-7.2 18.2l-.6 5.3q-.9 8.205-1.2 11.55c-.37 4.33-.55 8.2-.55 11.6 0 5.3.73 9.3 2.2 12 .77 1.4 1.83 2.78 3.2 4.15.93.9 2.27 2.05 4 3.45 11.87 9.43 25.58 17.92 41.15 25.45 3.77 1.83 7.13 3.28 10.1 4.35 4.5 1.63 9.83 3.05 16 4.25q11.505 2.25 18.9 1.35c3.73-.47 7.77-1.58 12.1-3.35 2.77-1.13 6.57-2.97 11.4-5.5 3.17-1.6 5.53-2.92 7.1-3.95 2.5-1.6 4.53-3.32 6.1-5.15.93-1.1 1.63-1.77 2.1-2 .43-.23.92-.32 1.45-.25q.795.045 1.2.6c.1.1.17.23.2.4.17 0 .32.03.45.1.6.27 1 1.03 1.2 2.3l.9 6.3q8.145-9.405 15.45-23.1 4.455-8.4 11.85-25.35 1.455-3.195 1.5-5.1 0-2.145-1.35-4.2c-.83-1.27-1.93-2.3-3.3-3.1-2.07-1.2-4.95-1.98-8.65-2.35-8.37-.9-19.1-.42-32.2 1.45-17.8 2.53-28.53 3.9-32.2 4.1-1.17.07-2.08.07-2.75 0-1-.13-1.83-.43-2.5-.9-1.03-.77-1.9-2.38-2.6-4.85-3.43-12.53-6.6-25.45-9.5-38.75-2.57-4.73-6.03-8.05-10.4-9.95q-4.65-2.055-11.4-1.95m62.65 82.8c.53-.33.95-.53 1.25-.6.63-.17 1.2-.07 1.7.3.33.23.57.55.7.95q.195.645 0 1.2c-.195.555-.48.77-1.05 1.2-1.7 1.43-3.08 2.3-4.15 2.6-.7.23-1.33.25-1.9.05-.3-.13-.53-.33-.7-.6-.2-.3-.27-.6-.2-.9.07-.27.27-.6.6-1 1.27-1.27 2.52-2.33 3.75-3.2m-8.6-5.15c.53-.23 1.08-.22 1.65.05.53.27.85.72.95 1.35.13.93-.33 1.83-1.4 2.7-.77.67-2.12 1.5-4.05 2.5q-.495.3-.9.3c-.3-.03-.57-.2-.8-.5-.2-.3-.28-.62-.25-.95.03-.5.33-1.07.9-1.7.3-.37 1.28-1.38 2.95-3.05.5-.4.82-.63.95-.7m-.05 10.8c.27.4.37.83.3 1.3-.1.67-.58 1.4-1.45 2.2-.8.8-1.42 1.38-1.85 1.75-1.6 1.33-2.97 2.03-4.1 2.1-.43 0-.82-.1-1.15-.3-.37-.2-.55-.48-.55-.85-.03-.33.2-.75.7-1.25l3.5-3.6c.87-.8 1.43-1.27 1.7-1.4.6-.33 1.2-.52 1.8-.55.43-.03.8.17 1.1.6" class="q"/></g><g id="e"><path d="M165.55 165.85c-.13.43-.05.83.25 1.2.3.4.67.6 1.1.6.4 0 .87-.2 1.4-.6.43-.27 1.03-.73 1.8-1.4s1.35-1.15 1.75-1.45c.6-.4 1-.73 1.2-1 .33-.57.37-1.12.1-1.65-.37-.67-.88-.95-1.55-.85-.23.03-.58.2-1.05.5-1.57 1.1-2.98 2.28-4.25 3.55-.43.43-.68.8-.75 1.1m5.95-11.25c.23-.13.5-.32.8-.55l.7-.65 2.05-1.4c.8-.63 1.28-1.27 1.45-1.9.2-.57.12-.98-.25-1.25q-.555-.345-1.5.15-2.205 1.155-3.45 2.4l-1 1c-.43.3-.7.52-.8.65-.17.27-.23.55-.2.85q.105.495.45.75c.5.4 1.08.38 1.75-.05m13.9 2.95c.53-.53.62-1.18.25-1.95-.17-.4-.43-.68-.8-.85-.5-.17-1.08-.02-1.75.45q-1.35.795-2.7 2.25c-.67.67-.95 1.27-.85 1.8.03.3.22.55.55.75.3.2.62.3.95.3.57-.03 1.15-.3 1.75-.8.97-.8 1.48-1.22 1.55-1.25.53-.3.88-.53 1.05-.7m46.55.85c1.13-3.17 1.95-5.8 2.45-7.9.57-2.6.85-5.02.85-7.25v-.95c0-.6-.17-.97-.5-1.1-.1-.03-.17-.05-.2-.05-.37 0-.68.27-.95.8q-1.455 2.355-10.2 19.5c-.65 1.28-1.3 2.49-1.95 3.65-.7 1.3-1.4 2.54-2.1 3.7a74 74 0 0 1-3.7 5.6c-.2-1.73-.63-3.27-1.3-4.6-.53-1.03-1.15-1.62-1.85-1.75-.18-.03-.36-.03-.55 0-.66.14-1.39.69-2.2 1.65l-2.35 3.05q-.195-1.155-1.2-1.95c-.7-.53-1.43-.75-2.2-.65-1 .17-1.98.8-2.95 1.9-1.23 1.4-2.6 3.58-4.1 6.55-1.63 3.47-2.85 6.48-3.65 9.05-.37 1.33-.62 2.55-.75 3.65-3.67 1.4-7.63 2.57-11.9 3.5-6.78 1.46-13.76 1.88-20.95 1.25-1.5-.13-3.02-.31-4.55-.55-1.8-.24-3.62-.56-5.45-.95-10.77-2.33-18.77-4.52-24-6.55-5.2-2.03-7.77-2.27-7.7-.7.03 1.53.05 2.47.05 2.8s.12.7.35 1.1c.37.67.9 1.25 1.6 1.75 6 4.07 12.88 7.07 20.65 9 7 1.7 14.52 2.5 22.55 2.4 10.63-.2 20.4-1.85 29.3-4.95 5.93-2.07 11.32-4.75 16.15-8.05 5.2-3.6 9.57-7.75 13.1-12.45 3.6-4.93 7-11.77 10.2-20.5m-28.75 14.8c.5-.4 1.03-.55 1.6-.45 1.43 2.37 2.33 4.25 2.7 5.65l1.95-4.05c.6-1.17 1.42-2.32 2.45-3.45.7 2.3 1.02 4.62.95 6.95-.5.57-1 1.1-1.5 1.6-4.33 4.4-9.72 7.98-16.15 10.75 1.4-5.6 3.7-10.83 6.9-15.7.47-.63.83-1.07 1.1-1.3"/><path d="M199.8 165.95c-2.83.8-6.27 2.13-10.3 4-14.07 6.63-25.1 14.62-33.1 23.95-.5.57-.91 1.1-1.25 1.6 1.53.24 3.05.42 4.55.55 7.19.63 14.17.21 20.95-1.25 4.27-.93 8.23-2.1 11.9-3.5.13-1.1.38-2.32.75-3.65.8-2.57 2.02-5.58 3.65-9.05 1.5-2.97 2.87-5.15 4.1-6.55.97-1.1 1.95-1.73 2.95-1.9.77-.1 1.5.12 2.2.65q1.005.795 1.2 1.95l2.35-3.05c.81-.96 1.54-1.51 2.2-1.65.19-.03.37-.03.55 0 2.36.03 4.64.28 6.85.75.7-1.16 1.4-2.4 2.1-3.7-7.23-1.5-14.45-1.22-21.65.85" class="q"/><path d="M204.8 172.75c-.57-.1-1.1.05-1.6.45-.27.23-.63.67-1.1 1.3-3.2 4.87-5.5 10.1-6.9 15.7 6.43-2.77 11.82-6.35 16.15-10.75.5-.5 1-1.03 1.5-1.6.07-2.33-.25-4.65-.95-6.95-1.03 1.13-1.85 2.28-2.45 3.45l-1.95 4.05c-.37-1.4-1.27-3.28-2.7-5.65" style="fill:#7f2756"/></g><g id="f"><path d="M222.5 148.95c2.23-1.83 4.33-3.77 6.3-5.8 2.27-2.4 4.08-5.1 5.45-8.1 1-2.2.7-4.18-.9-5.95-1.43-1.53-3.17-2.6-5.2-3.2-3.13-.77-6.3-1.22-9.5-1.35-2.67-.03-5.3-.07-7.9-.1-2.97-.07-5.93.1-8.9.5-2.87.2-5.77.53-8.7 1-3.03.67-6.02 1.48-8.95 2.45-2.6 1-5.08 2.2-7.45 3.6-1.63 1-2.45 2.45-2.45 4.35.53 1.8 1.42 3.32 2.65 4.55 2.13 2.07 4.5 3.88 7.1 5.45s5.37 2.85 8.3 3.85c2.53.8 5.15 1.57 7.85 2.3 3.07.83 6.2 1.28 9.4 1.35a17.7 17.7 0 0 0 8.15-1.85c1.73-.8 3.32-1.82 4.75-3.05m8.7-14.35a40 40 0 0 0-8.45-1.1c-3.23-.27-6.48-.35-9.75-.25-2.97.07-5.97.1-9 .1-3.67.03-7.33.38-11 1.05-4.53.67-9 1.75-13.4 3.25l-2.15-2.4c2.2-1.8 4.68-3.07 7.45-3.8 2.73-.73 5.5-1.32 8.3-1.75s5.62-.73 8.45-.9c3.1-.33 6.22-.53 9.35-.6 2.73-.07 5.52 0 8.35.2 3.1.07 6.18.48 9.25 1.25 2.8.73 3.67 2.38 2.6 4.95"/><path d="M222.75 133.5c2.87.07 5.68.43 8.45 1.1 1.07-2.57.2-4.22-2.6-4.95-3.07-.77-6.15-1.18-9.25-1.25-2.83-.2-5.62-.27-8.35-.2-3.13.07-6.25.27-9.35.6-2.83.17-5.65.47-8.45.9s-5.57 1.02-8.3 1.75c-2.77.73-5.25 2-7.45 3.8l2.15 2.4c4.4-1.5 8.87-2.58 13.4-3.25 3.67-.67 7.33-1.02 11-1.05 3.03 0 6.03-.03 9-.1 3.27-.1 6.52-.02 9.75.25" style="fill:#d6dee8"/></g><g id="g"><g id="h"><path d="M138.1 124.9q.945-1.155 1.2-2.7c0-.17.02-.35.05-.55V121c0-1.47-.47-2.88-1.4-4.25-.93-1.3-2.18-2.48-3.75-3.55-2.7-1.8-5.68-2.9-8.95-3.3-.43-.07-.85-.1-1.25-.1-2.53-.23-5.2-.08-8 .45-4.07.7-7.42 1.97-10.05 3.8-.57.37-1.08.77-1.55 1.2-3-.83-5.68-2.03-8.05-3.6-.33-.2-.57-.27-.7-.2q-.45.255 0 1.05c.7 1.03 1.73 1.97 3.1 2.8 1.17.73 2.5 1.37 4 1.9-.07.07-.13.17-.2.3-.57.87-.9 1.78-1 2.75-.07.9 0 1.78.2 2.65.7 2.23 1.77 3.93 3.2 5.1 1.23 1.07 3.1 1.97 5.6 2.7 3.6 1.07 8.62 1 15.05-.2 1.07-.17 2.13-.38 3.2-.65 1.83-.53 3.65-1.23 5.45-2.1 1.53-.67 2.82-1.62 3.85-2.85m-27.25-6.2c.1 0 .2.02.3.05-.27.3-.48.7-.65 1.2-.5 1.6-.28 2.88.65 3.85.5.5 1.13.77 1.9.8.8.03 1.48-.17 2.05-.6.57-.4.98-.97 1.25-1.7.23-.7.3-1.42.2-2.15-.07-.43-.18-.78-.35-1.05 3.77.13 7.45.07 11.05-.2q4.5-.405 6.6-.9c.17-.03.32-.07.45-.1.7.63 1.12 1.25 1.25 1.85.03.1.05.2.05.3-.07.43-.18.87-.35 1.3q-.15.45-.45.9l-.9 1.2q-1.05 1.455-2.7 2.1c-1.8.77-3.62 1.32-5.45 1.65-.13.03-.25.07-.35.1-2.33.43-5.25.68-8.75.75-2.2.03-4.38-.32-6.55-1.05-2.37-.8-3.98-1.83-4.85-3.1-.07-.13-.12-.25-.15-.35-.43-1.03-.5-2.1-.2-3.2.23-.73.72-1.45 1.45-2.15l.1-.1c1.27.23 2.73.43 4.4.6m14.35-5c2.7.47 5.1 1.38 7.2 2.75-3.17.4-7.18.57-12.05.5-4.5 0-8.28-.23-11.35-.7 1.87-1.07 4.23-1.85 7.1-2.35 3.3-.6 6.33-.67 9.1-.2m22.45-.45c-2.5 1.6-4.12 3.3-4.85 5.1-.27.63-.42 1.6-.45 2.9v1.05c.97 3.97 3.42 6.2 7.35 6.7 3.37.57 6.7.45 10-.35 4.73-1.03 8.95-3.13 12.65-6.3 3.03-2.53 3.75-5.45 2.15-8.75-.33-.5-.75-.98-1.25-1.45-.27-.27-.55-.5-.85-.7q.945-.555 1.65-1.05c1.5-1.1 2.33-2.22 2.5-3.35.07-.27.03-.47-.1-.6-.2-.23-.53-.17-1 .2-1.57 1.23-3.37 2.4-5.4 3.5q-2.1-.9-4.8-1.2c-1.5-.17-3-.18-4.5-.05-1.53.1-3.05.33-4.55.7-3.07.73-5.92 1.95-8.55 3.65m8.35 2.65c-2.27.77-4.05 1.3-5.35 1.6-1 .23-2.57.45-4.7.65l-.65.1c.43-.77 1.22-1.53 2.35-2.3q2.895-2.145 7.35-3.3c2.97-.87 5.62-1.25 7.95-1.15 1.23.03 2.4.18 3.5.45l-.3.1c-2.2.97-5.58 2.25-10.15 3.85m-.15 2.45.05-.05c4.43-1.37 8.88-3.1 13.35-5.2.07-.03.13-.05.2-.05.33.17.67.35 1 .55.3.2.58.42.85.65.3.3.57.65.8 1.05.2.33.25.67.15 1-.63 1.9-1.75 3.53-3.35 4.9q-1.995 1.695-5.7 3.3c-1.37.6-3.12 1.12-5.25 1.55q-3.255.645-5.55.6c-3.93-.07-6.4-1.33-7.4-3.8-.1-.2-.17-.67-.2-1.4-.07-.73-.07-1.25 0-1.55 1.57.13 3.37.05 5.4-.25-.07.07-.12.15-.15.25-.17.37-.22.85-.15 1.45.13.6.35 1.05.65 1.35.3.33.75.57 1.35.7.63.1 1.2.07 1.7-.1.83-.23 1.52-.88 2.05-1.95q.495-1.05.45-1.95c0-.4-.08-.75-.25-1.05"/><path d="M132.4 116.45c-2.1-1.37-4.5-2.28-7.2-2.75-2.77-.47-5.8-.4-9.1.2-2.87.5-5.23 1.28-7.1 2.35 3.07.47 6.85.7 11.35.7 4.87.07 8.88-.1 12.05-.5m18.25 1.05c1.3-.3 3.08-.83 5.35-1.6 4.57-1.6 7.95-2.88 10.15-3.85l.3-.1c-1.1-.27-2.27-.42-3.5-.45-2.33-.1-4.98.28-7.95 1.15q-4.455 1.155-7.35 3.3c-1.13.77-1.92 1.53-2.35 2.3l.65-.1c2.13-.2 3.7-.42 4.7-.65" class="q"/><path d="M111.15 118.75c-.1-.03-.2-.05-.3-.05a58 58 0 0 1-4.4-.6l-.1.1c-.73.7-1.22 1.42-1.45 2.15-.3 1.1-.23 2.17.2 3.2.03.1.08.22.15.35.87 1.27 2.48 2.3 4.85 3.1 2.17.73 4.35 1.08 6.55 1.05 3.5-.07 6.42-.32 8.75-.75.1-.03.22-.07.35-.1 1.83-.33 3.65-.88 5.45-1.65q1.65-.645 2.7-2.1l.9-1.2q.3-.45.45-.9c.17-.43.28-.87.35-1.3 0-.1-.02-.2-.05-.3-.13-.6-.55-1.22-1.25-1.85-.13.03-.28.07-.45.1q-2.1.495-6.6.9c-3.6.27-7.28.33-11.05.2.17.27.28.62.35 1.05.1.73.03 1.45-.2 2.15-.27.73-.68 1.3-1.25 1.7-.57.43-1.25.63-2.05.6-.77-.03-1.4-.3-1.9-.8-.93-.97-1.15-2.25-.65-3.85.17-.5.38-.9.65-1.2m44.75-.45-.05.05c.17.3.25.65.25 1.05q.045.9-.45 1.95c-.53 1.07-1.22 1.72-2.05 1.95-.5.17-1.07.2-1.7.1-.6-.13-1.05-.37-1.35-.7-.3-.3-.52-.75-.65-1.35-.07-.6-.02-1.08.15-1.45.03-.1.08-.18.15-.25-2.03.3-3.83.38-5.4.25-.07.3-.07.82 0 1.55.03.73.1 1.2.2 1.4 1 2.47 3.47 3.73 7.4 3.8q2.295.045 5.55-.6c2.13-.43 3.88-.95 5.25-1.55q3.705-1.605 5.7-3.3c1.6-1.37 2.72-3 3.35-4.9.1-.33.05-.67-.15-1-.23-.4-.5-.75-.8-1.05-.27-.23-.55-.45-.85-.65-.33-.2-.67-.38-1-.55-.07 0-.13.02-.2.05-4.47 2.1-8.92 3.83-13.35 5.2" style="fill:#e8e6d6"/></g></g><g id="i"><path d="M83.7 120.9c.97-2.1 1.93-4.2 2.9-6.3L81 90.95c-1.07 1.1-1.97 2.03-2.7 2.8-4.4 5.37-8.42 11.02-12.05 16.95-3.07 5.37-5.92 10.83-8.55 16.4-1.97 4.17-4.02 9.83-6.15 17-.93 3.13-1.5 6.1-1.7 8.9-.2 2.67-.08 5.67.35 9 .87 6.33 4.57 9.17 11.1 8.5 2.83-.5 5.17-1.87 7-4.1 2.57-3.03 4.2-6.58 4.9-10.65 1.07-6.4 2.55-12.7 4.45-18.9 1.67-5.57 3.68-10.88 6.05-15.95" class="q"/><path d="M81 90.95c.6-.7 1.28-1.43 2.05-2.2-.9-.67-1.83-1.28-2.8-1.85-.23-.13-.47-.25-.7-.35-1.03.93-2.05 1.9-3.05 2.9-6.6 6.97-12.22 14.65-16.85 23.05q-4.755 8.805-6.9 13.8c-2.87 6.67-5 12.4-6.4 17.2-1.4 4.77-2.13 10.57-2.2 17.4-.03 2.5.47 4.97 1.5 7.4 1.03 2.37 2.4 4.32 4.1 5.85 2.1 1.9 4.87 2.92 8.3 3.05 3.37.13 6.73-.57 10.1-2.1 2.7-1.2 4.9-3.38 6.6-6.55q2.055-3.705 3.3-9.6l.9-6.4c.47-9.2 2.38-18.07 5.75-26.6 1.07-2.73 2.1-5.47 3.1-8.2.33-.9.57-1.83.7-2.8-.1-.13-.2-.27-.3-.4q-.255-.15-.45-.3c-.17-.03-.33-.05-.5-.05s-.33.02-.5.05c-.03.03-.05.08-.05.15-.03.07-.07.13-.1.2-.97 2.1-1.93 4.2-2.9 6.3-2.37 5.07-4.38 10.38-6.05 15.95-1.9 6.2-3.38 12.5-4.45 18.9-.7 4.07-2.33 7.62-4.9 10.65-1.83 2.23-4.17 3.6-7 4.1-6.53.67-10.23-2.17-11.1-8.5-.43-3.33-.55-6.33-.35-9 .2-2.8.77-5.77 1.7-8.9 2.13-7.17 4.18-12.83 6.15-17 2.63-5.57 5.48-11.03 8.55-16.4 3.63-5.93 7.65-11.58 12.05-16.95.73-.77 1.63-1.7 2.7-2.8"/></g><g id="j"><g id="k"><path d="M45.79 49.71c-2.31 1.97-4.17 4.3-5.57 6.99-1.44 2.62-2.27 5.48-2.5 8.59-.3 3.03.02 5.97.97 8.81-3.98.3-6.98 1.46-8.98 3.47-1.25 1.36-2.09 3.13-2.5 5.29-.3 1.86-.25 3.85.17 5.97q.63 3.3 2.16 5.91 1.71 2.85 4.26 4.38c-2.81 1.67-4.78 4.09-5.91 7.28-1.25 3.22-1.33 6.39-.23 9.5q1.53 4.485 5.97 7.17c2.96 1.82 6.03 2.48 9.21 1.99-.91 2.92-1.35 5.25-1.31 6.99.08 2.77 1 4.85 2.79 6.26 1.02.83 2.26 1.33 3.7 1.48 1.33.23 2.67.11 4.04-.34.08-.04.17-.06.28-.06l3.75-6.88c.87-1.78 1.52-3.07 1.93-3.87l4.32-7.28c.42-.8.64-1.31.68-1.54.08-.3.09-.61.06-.91 1.82-.27 3.73-.89 5.74-1.88 2.69-1.36 4.97-3.26 6.82-5.69q2.895-3.645 3.87-8.13c3.49-.04 6.79-1.08 9.89-3.13 2.99-2.12 5.19-4.78 6.6-7.96.68-1.63 1.02-3.18 1.02-4.66v-.68c.53.27.95.42 1.25.45 2.24.57 5.04-.02 8.42-1.76 4.47-2.35 7.7-5.14 9.67-8.36.04.11.08.23.11.34.64 1.4 1.31 2.45 1.99 3.13 1.48 1.48 3.45 2.16 5.91 2.05 1.71-.04 3.73-.59 6.08-1.65 1.18-.49 2.1-1.02 2.79-1.59.23.49.45.95.68 1.36q.63 1.02 1.71 2.1c.57.57 1.1 1.04 1.59 1.42.87.57 1.82.91 2.84 1.02 1.21.19 2.71.11 4.49-.23v.23l3.7 11.89c.34.23.82.42 1.42.57 1.29.38 2.82.09 4.61-.85 1.48-.8 2.48-1.71 3.01-2.73.42-.83.64-1.84.68-3.01 0-.64-.06-1.67-.17-3.07.57-.08 1.21-.36 1.93-.85.76-.53 1.42-1.16 1.99-1.88.61-.72 1.12-1.44 1.54-2.16l.97-1.82c.72-1.74.91-3.62.57-5.63q-.285-2.67-2.1-5.4a8 8 0 0 0-1.42-1.65c.3-.11.57-.28.8-.51 3.6-2.65 5.69-5.61 6.26-8.87.11-.61.15-1.14.11-1.59-.04-.68-.27-1.46-.68-2.33-.34-1.06-.7-1.86-1.08-2.39-.91-1.59-2.24-2.88-3.98-3.87-.64-.38-1.29-.7-1.93-.97.53-.76.97-1.67 1.31-2.73.64-1.93.83-3.98.57-6.14-.27-2.05-.93-3.92-1.99-5.63-.57-.87-1.19-1.69-1.88-2.45-1.36-1.52-2.77-2.56-4.21-3.13-1.67-.8-3.83-1.19-6.48-1.19-4.66 0-8.42.93-11.26 2.79-.3-1.74-.55-2.92-.74-3.53-.57-1.59-1.36-3.18-2.39-4.78-.87-1.29-1.67-2.26-2.39-2.9-1.74-1.4-3.77-2.07-6.08-1.99-1.36.04-2.98.42-4.83 1.14-2.73 1.1-4.95 2.29-6.65 3.58-1.25.87-2.62 2.09-4.09 3.64-.3.27-.61.57-.91.91-.42-1.02-1.04-1.99-1.88-2.9-1.48-1.52-3.18-2.5-5.12-2.96-2.39-.53-5.19-.21-8.42.97-3.37 1.14-6.26 2.86-8.64 5.17-2.2 2.05-3.73 4.36-4.61 6.94-.42-.38-.93-.83-1.54-1.36-1.33-.99-2.54-1.61-3.64-1.88-1.52-.27-3.01-.02-4.49.74-1.21.57-2.41 1.52-3.58 2.84-.68.8-1.18 1.55-1.48 2.27q-.915 1.71-2.1 5.46c-.27.87-.47 1.65-.63 2.33-.11.53-.13 1.16-.06 1.88-.64-.23-1.35-.4-2.1-.51-2.16-.38-4.45-.15-6.88.68-2.84.83-5.44 2.26-7.79 4.26m-5.47 28.4q1.935-.285 3.24-.45c-.8-4.47-1.19-7.51-1.19-9.1 0-2.92.49-5.69 1.48-8.3 1.02-2.77 2.52-5.06 4.49-6.88 2.09-1.97 4.59-3.24 7.51-3.81 2.92-.61 5.65-.3 8.19.91q1.02.57 1.65.63c.34-4.36.74-7.22 1.19-8.59.8-2.09 1.44-3.49 1.93-4.21.83-1.52 1.86-2.62 3.07-3.3q.735-.405 1.14-.45c.72-.04 1.46.19 2.22.68.64.42 2.77 1.91 6.37 4.49 1.14-2.01 1.72-3.07 1.76-3.18 1.36-2.73 3.15-5.08 5.35-7.05 2.39-2.05 4.99-3.37 7.79-3.98 2.12-.45 3.83-.3 5.12.45.72.42 2.14 1.65 4.26 3.7 1.29 1.25 2.31 2.27 3.07 3.07.27-.27.55-.59.85-.97 3.3-3.64 7.18-6.52 11.66-8.64 1.21-.57 2.26-.91 3.13-1.02.8-.08 1.48.04 2.05.34.68.3 1.29.89 1.82 1.76.83 1.29 1.69 3.18 2.56 5.69q1.305 4.26 2.16 5.91c7.54-2.35 12.78-3.43 15.7-3.24 1.55.04 2.86.36 3.92.97.95.53 1.91 1.54 2.9 3.01q.915 1.65 1.14 2.67c.04.23.09.99.17 2.27q0 3.36-.45 4.83c-.04.3-.68 1.99-1.93 5.06q.51.225 1.59.45c.95.27 1.88.64 2.79 1.14 1.02.57 1.78 1.12 2.27 1.65.61.57 1.08 1.31 1.42 2.22.19.42.28.85.28 1.31 0 .42-.09.85-.28 1.31-.19.45-2.43 2.73-6.71 6.82-.08.08-.32.3-.74.68 0 .04-.02.08-.06.11q.45.51.51.63c3.03 3.9 4.74 6.52 5.12 7.85.27 1.06.32 2.24.17 3.53s-1.31 2.96-3.47 5c-2.24 2.01-3.22 3.32-2.96 3.92q.405.855 0 2.79c-.3 1.18-.93 1.91-1.88 2.22-.99.27-1.59.47-1.82.63-.08-.38-.19-.8-.34-1.25-.15-.76-.93-3.09-2.33-6.99-.11-.38-.23-.72-.34-1.02 1.29-.91 2.09-1.54 2.39-1.88.61-.68 1.14-1.5 1.59-2.45.19-.57.27-.99.23-1.25-.49.04-1.12.38-1.88 1.02-.8.64-2.26 1.18-4.38 1.59-2.05.49-3.72.49-5 0-1.21-.42-2.22-.95-3.01-1.59-1.29-1.06-2.16-1.95-2.62-2.67-.04-.08-.08-.15-.11-.23.11-.45.25-.99.4-1.59.04-.19.08-.36.11-.51l-8.53 2.79c-1.44.45-2.92.63-4.44.51-.49 0-1.86-.95-4.09-2.84l-1.82-2.5c-4.4 3.9-6.9 5.99-7.51 6.26-.64.27-1.78.87-3.41 1.82-1.82.95-3.01 1.54-3.58 1.76-1.06.53-2.09.78-3.07.74-.19 0-.74-.04-1.65-.11-.61-.04-1.1-.04-1.48 0a.35.35 0 0 1-.17-.17c-.34-.38-.57-.59-.68-.63q-.735-.12-1.14.57c-.11.15-.23.59-.34 1.31-.45 2.43-1.42 4.68-2.9 6.77-1.48 2.05-3.26 3.72-5.35 5q-3.24 1.935-9.78 3.3c-.04 0-.02.3.06.91 0 .61-.66 2.56-1.99 5.86-1.33 3.34-3.64 5.76-6.94 7.28-3.34 1.55-6.54 1.88-9.61.97q-2.28-.51-2.67-.45c-.45.08-.85.27-1.19.57-.38.45-.47.87-.28 1.25.11.42.42.76.91 1.02 1.29.87 2.63 1.48 4.04 1.82-.19.23-.36.49-.51.8l-1.54 2.62c-.76 1.33-1.19 2.07-1.31 2.22l-1.99 4.38c-1.4 3.26-2.22 5.76-2.45 7.51-1.59.15-2.81-.23-3.64-1.14-.68-.8-.95-1.99-.8-3.58.19-2.35 1.19-5.27 3.01-8.76.3-.72.57-1.33.8-1.82-.61.11-1.52.21-2.73.28-3.37.3-6.5-.53-9.38-2.5-2.77-1.9-4.38-3.66-4.83-5.29-.45-1.59-.47-3.15-.06-4.66.34-1.52 1.06-2.9 2.16-4.15 1.06-1.14 2.29-2.03 3.7-2.67.91-.42 1.57-.74 1.99-.97a44.7 44.7 0 0 1-5.46-6.65c-1.97-2.96-3.07-5.46-3.3-7.51-.11-1.33 0-2.56.34-3.7.45-1.29 1.14-2.27 2.05-2.96 1.02-.76 3.13-1.4 6.31-1.93Z"/><path d="M43.57 77.63c-.87.11-1.95.27-3.24.45-3.18.53-5.29 1.18-6.31 1.93-.91.68-1.59 1.67-2.05 2.96-.34 1.14-.45 2.37-.34 3.7.23 2.05 1.33 4.55 3.3 7.51 1.63 2.43 3.45 4.64 5.46 6.65-.42.23-1.08.55-1.99.97-1.4.64-2.63 1.54-3.7 2.67-1.1 1.25-1.82 2.63-2.16 4.15-.42 1.52-.4 3.07.06 4.66.45 1.63 2.07 3.39 4.83 5.29 2.88 1.97 6.01 2.81 9.38 2.5 1.21-.08 2.12-.17 2.73-.28-.23.49-.49 1.1-.8 1.82-1.82 3.49-2.82 6.41-3.01 8.76-.15 1.59.11 2.79.8 3.58.83.91 2.05 1.29 3.64 1.14.23-1.74 1.04-4.25 2.45-7.51l1.99-4.38c.11-.15.55-.89 1.31-2.22l1.54-2.62c.15-.3.32-.57.51-.8-1.4-.34-2.75-.95-4.04-1.82-.49-.27-.8-.61-.91-1.02-.19-.38-.09-.8.28-1.25.34-.3.74-.49 1.19-.57q.405-.06 2.67.45c3.07.91 6.27.59 9.61-.97 3.3-1.52 5.61-3.94 6.94-7.28 1.33-3.3 1.99-5.25 1.99-5.86-.08-.61-.09-.91-.06-.91q6.54-1.365 9.78-3.3c2.09-1.29 3.87-2.96 5.35-5 1.48-2.09 2.45-4.34 2.9-6.77.11-.72.23-1.16.34-1.31.27-.45.64-.64 1.14-.57.11.04.34.25.68.63.04.08.09.13.17.17.38-.04.87-.04 1.48 0 .91.08 1.46.11 1.65.11.99.04 2.01-.21 3.07-.74.57-.23 1.76-.82 3.58-1.76 1.63-.95 2.77-1.55 3.41-1.82.61-.27 3.11-2.35 7.51-6.26l1.82 2.5c2.24 1.9 3.6 2.84 4.09 2.84 1.52.11 2.99-.06 4.44-.51l8.53-2.79c-.04.15-.08.32-.11.51-.15.61-.28 1.14-.4 1.59.04.08.08.15.11.23.45.72 1.33 1.61 2.62 2.67.8.64 1.8 1.18 3.01 1.59 1.29.49 2.96.49 5 0q3.18-.63 4.38-1.59c.76-.64 1.38-.99 1.88-1.02.04.27-.04.68-.23 1.25-.45.95-.99 1.76-1.59 2.45-.3.34-1.1.97-2.39 1.88.11.3.23.64.34 1.02 1.4 3.9 2.18 6.24 2.33 6.99.15.45.27.87.34 1.25.23-.15.83-.36 1.82-.63.95-.3 1.57-1.04 1.88-2.22q.405-1.935 0-2.79c-.27-.61.72-1.91 2.96-3.92 2.16-2.05 3.32-3.72 3.47-5 .15-1.29.09-2.46-.17-3.53-.38-1.33-2.09-3.94-5.12-7.85-.04-.08-.21-.28-.51-.63.04-.04.06-.08.06-.11.42-.38.66-.61.74-.68 4.28-4.09 6.52-6.37 6.71-6.82s.28-.89.28-1.31c0-.45-.09-.89-.28-1.31-.34-.91-.82-1.65-1.42-2.22-.49-.53-1.25-1.08-2.27-1.65q-1.365-.735-2.79-1.14-1.08-.225-1.59-.45c1.25-3.07 1.9-4.76 1.93-5.06q.45-1.485.45-4.83c-.08-1.29-.13-2.05-.17-2.27q-.225-1.02-1.14-2.67c-.99-1.48-1.95-2.48-2.9-3.01-1.06-.61-2.37-.93-3.92-.97-2.92-.19-8.15.89-15.7 3.24q-.855-1.65-2.16-5.91c-.87-2.5-1.72-4.4-2.56-5.69-.53-.87-1.14-1.46-1.82-1.76-.57-.3-1.25-.42-2.05-.34-.87.11-1.91.45-3.13 1.02-4.47 2.12-8.36 5-11.66 8.64-.3.38-.59.7-.85.97-.76-.8-1.78-1.82-3.07-3.07-2.12-2.05-3.54-3.28-4.26-3.7-1.29-.76-2.99-.91-5.12-.45-2.81.61-5.4 1.93-7.79 3.98-2.2 1.97-3.98 4.32-5.35 7.05-.04.11-.63 1.18-1.76 3.18-3.6-2.58-5.72-4.08-6.37-4.49-.76-.49-1.5-.72-2.22-.68-.27.04-.64.19-1.14.45-1.21.68-2.24 1.78-3.07 3.3-.49.72-1.14 2.12-1.93 4.21-.45 1.36-.85 4.23-1.19 8.59q-.63-.06-1.65-.63c-2.54-1.21-5.27-1.52-8.19-.91-2.92.57-5.42 1.84-7.51 3.81-1.97 1.82-3.47 4.11-4.49 6.88-.99 2.62-1.48 5.38-1.48 8.3 0 1.59.4 4.63 1.19 9.1Z" style="fill:#4f2e2e"/></g></g></svg>