<svg xmlns="http://www.w3.org/2000/svg" id="a" viewBox="0 0 253 291.35"><defs><style>.e{fill:#998ca5}.f{fill:#9d9c8f}.g{fill:#897766}</style></defs><path d="m90.65 197.5-1.49.48c-2.03.66-4.09 1.2-6.14 1.63-2.58.6-5.13 1.35-7.56 2.22-2.1.7-4.23 1.4-6.45 2.12-.39.16-.78.32-1.17.47l5.36-14.78-21.2 6.02-.14.28c-.54 1.04-1.06 2.11-1.57 3.19-1.73 3.89-3.35 7.95-4.82 12.04-.57 1.55-1.16 3.21-1.79 5.06 3.52 5.97 7.57 11.68 12.18 17.12 3.73 4.39 7.61 8.36 11.63 11.91.23-1.13.63-3.08.72-3.51.1-.52.21-1.04.34-1.57.33-1.46.68-2.94 1.05-4.43.76-3.01 1.6-6.02 2.48-8.95.06-.19.13-.38.2-.57-.16 1.44-.32 2.9-.49 4.36-.4 3.46-.95 6.96-1.64 10.39l-.03.16.33 1.34c.44 2.04.94 4.19 1.5 6.51 15.48 12.17 33.03 18.44 52.63 18.8.35-.13.7-.22 1.03-.22.27 0 .54.05.77.12.07.03.14.08.21.11q2.355 0 4.68-.12l-52.4-41.88 11.79-28.29Zm99.6 40.74a477 477 0 0 0-5.61-26.59c-1.82-7.49-3.79-15.1-5.85-22.62l-.12-.44-18.2-3.17.99 1.42c2.11 3.03 4.06 6.16 5.81 9.28.71 1.32 1.43 2.64 2.17 3.97l-3.81-.48-17.72-.55.93 1.21c.34.44.71.9 1.16 1.42 2.22 2.26 4.21 4.68 5.93 7.21.9 1.26 1.78 2.53 2.65 3.8 1.08 1.5 2.15 3.07 3.17 4.69-.21.73-.45 1.47-.72 2.21-.43 1.29-.91 2.56-1.43 3.8-.92 2.22-2.01 4.47-3.27 6.69-.49.95-1.03 1.91-1.63 2.87-.99 1.67-2.03 3.38-3.1 5.09-.89 1.48-1.82 2.97-2.79 4.43-1.53 2.39-3.12 4.73-4.73 6.97-2.3 3.19-4.82 6.25-7.5 9.08-.98 1.08-2.06 1.98-3.23 2.7-.3.21-.61.39-.91.55l-.42.21.23 5.64c9.7-.59 18.88-2.66 27.54-6.22l.06-.27c.19-.82.38-1.63.56-2.46.67-3.13 1.35-6.33 2.05-9.6.9-4.12 1.68-8.28 2.31-12.33.33-1.97.65-3.96.95-5.97.53-3.73 1.14-7.54 1.79-11.32.12-.62.27-1.22.43-1.76.03.12.04.24.04.37-.1 7.03-.72 14.21-1.84 21.34-.5 3.08-.79 6.25-.86 9.41-.03 2.27.17 4.58.61 6.85l.3 1.55.22 1.13c8.63-4.45 16.7-10.48 24.22-18.07l-.07-.37q-.15-.84-.3-1.65Z" class="g"/><path d="M53.49 176.93c-.76 0-1.83-.29-2.63-1.65a26.4 26.4 0 0 1-3.29-9.3 74 74 0 0 1-.91-10.2c-.13-5.17.04-10.34.5-15.38.67-7.16 1.81-14.36 3.41-21.39 1.33-5.77 2.97-11.46 4.87-16.93l.22-.64.65.19c1.22.35 2.5.53 3.81.53h.33c1.63-.1 3.19-.42 4.61-.96 1.92-.79 3.65-1.94 5.15-3.44.47-.47.97-.94 1.49-1.38 1.16-.98 1.78-2.23 1.9-3.81.03-.59.03-1.2 0-1.81l-.1-1.64c0-.27.07-.61.41-.95l.28-.28.39.09c.93.21 1.87.32 2.8.32.86 0 1.73-.09 2.59-.27 2.18-.38 4.19-1.2 5.99-2.44 1.84-1.2 3.27-2.73 4.28-4.55 1.06-1.92 1.79-3.92 2.17-5.94.48-2.6.48-5.34 0-8.14-.54-3.31-.74-6.7-.61-10.1l1.06-.14c.71-.25 1.46-.44 2.22-.59a5.7 5.7 0 0 1 2.47-.1c2.87.47 5.09 2.03 6.6 4.65.49.67 1.05 1.44 1.61 2.24 1.5 1.95 3.15 3.92 4.89 5.83 1.32 1.45 2.79 2.73 4.37 3.79 4.16 2.9 8.79 4.74 13.75 5.48l.56.08 1.24 14.58-.4.23c-.97.55-1.9 1.16-2.78 1.8-.71.53-1.34 1.12-1.87 1.77-1.17 1.45-1.88 3.11-2.09 4.93-.16 1.42.34 2.34 1.58 2.91.63.36 1.32.62 2.11.8l.31.07.16.27c.34.6.79 1.09 1.33 1.46.58.33 1.25.59 1.95.74 1.31.43 2.62.67 3.98.73.72.05 1.43.07 2.12.07 1.82 0 3.64-.15 5.42-.46 1.24-.19 2.44-.54 3.58-1.05.45-.18.9-.34 1.34-.48-.21.03-.42.07-.63.1-.99.17-1.99.35-2.98.55-2.32.35-4.61.52-6.84.52h-.61c-1.48 0-2.97-.2-4.42-.58l.1-1.41c1.74-.2 3.48-.48 5.18-.84 1.63-.38 3.21-.94 4.69-1.65 1.52-.78 3.19-1.17 4.95-1.17h.23c5.57-.59 11.31-1.15 16.97-1.65 8.59-.76 17.32-1.44 25.96-2 2.17-.21 4.38-.32 6.54-.32 1.55 0 3.12.06 4.66.17.2-.01.4-.02.59-.02 1.35 0 2.67.3 3.91.89 1.39.6 2.37 1.62 2.87 3.01a26 26 0 0 1 1.49 7.82c.2 4.24-.19 8.48-1.17 12.59-.57 2.34-1.26 4.75-2.07 7.16-.92 2.65-2.1 5.15-3.52 7.45a81 81 0 0 1-9.94 13.06c-2.93 3.1-6.24 5.84-9.84 8.16l-1.14.73.22-11.37h-.93a86.2 86.2 0 0 1-19.45 14.26c-2.6 1.45-5.45 2.57-8.47 3.31-3.02.55-6.12.9-9.23 1.07-.44 0-.87.01-1.29.01-2.94 0-5.94-.21-8.9-.62-3.16-.37-6.36-.89-9.5-1.56-3.55-.8-7.14-1.8-10.68-2.97-3.38-1.1-6.73-2.46-9.94-4.04-3.04-1.54-6.1-3.16-9.08-4.82a95 95 0 0 1-9.99-6.71 80 80 0 0 1-9.65-9.09l-.17-.18-.02-.25c-.27-3.83-.45-7.69-.55-11.48-.03-2.15.02-4.34.15-6.51.23-3.65.5-7.34.8-10.96.04-.48.04-.96.02-1.45-.15.5-.29 1.01-.4 1.52-.47 2.19-.91 4.4-1.35 6.63a90.6 90.6 0 0 0-1.69 15.78c-.07 3.03.02 6.09.25 9.08.3 4.16.47 8.38.5 12.55 0 2.35-.26 4.75-.77 7.15-.18.75-.43 1.5-.74 2.23-1.97 4.65-4.94 8.58-8.81 11.68a29.7 29.7 0 0 1-7.9 4.36q-.69.24-1.29.24Zm96.35-42.64c-.11.02-.33.06-.7.2-.37.11-.94.38-1.84 1.13-.72.57-1.24 1.22-1.55 1.94-.25.54-.25.77-.24.83v.18h.02c.04 0 .14-.02.3-.1.33-.16.97-.58 2.2-1.65 1.24-1.16 1.62-1.61 1.73-1.77.09-.17.14-.38.12-.57v-.1s-.02-.08-.03-.1Zm4.96 1.65c.05.03.13.06.23.1h.05c.27 0 .76-.12 1.72-.85 1.05-.85 1.75-1.42 2.09-1.69.25-.23.52-.54.75-.89a.54.54 0 0 0 .08-.3v-.05c-.76.03-1.59.4-2.49 1.08-1.42 1.03-1.92 1.68-2.08 2.03l-.02.05-.03.04c-.15.23-.24.38-.28.48Zm1.18-22.02c.11.42.52 1.34 1.95 3.44 1.12 1.67 2.64 3.3 4.51 4.85 1.9 1.54 3.93 3 6.03 4.35 2.1 1.29 4.6 2.47 7.41 3.48 2.77 1 4.81 1.51 6.06 1.51 2.12-.08 3.04-.24 3.43-.37 1.61-.45 3.69-1.53 6.22-3.21 2.4-1.56 4.77-3.75 7.04-6.51 2.28-2.71 4-5.32 5.1-7.79.59-1.37.98-3.28 1.14-5.65v-.05c.03-.8.07-1.46.1-1.99l-.05-1.02-.05-.16c-.05-.55-.12-.69-.13-.7-.17-.25-.86-.87-3.22-1.42-1.08-.25-3-.42-5.7-.48-.84-.03-1.67-.04-2.49-.04-1.91 0-3.82.08-5.68.24-2.71.2-4.56.33-5.56.4-4.93.26-8.65.6-11.08.99-2.44.36-3.98.63-4.58.79-.71.14-2.57.56-5.57 1.26-2.79.61-4.57 1.77-5.3 3.44-.08.26-.14.62-.14 1.01l-.05.4.04.42c0 .49.07.93.21 1.38l1.06 1.06h-.8c.03.12.07.24.11.38Zm-6.39 13.87c.18 0 .51-.05 1.06-.29.74-.34 1.36-.69 1.81-1.02.42-.36.83-.72 1.19-1.05.45-.41.61-.63.66-.72.05-.11.09-.19.11-.25v-.2s-.02-.08-.05-.13c-.12-.19-.2-.2-.26-.21h-.09l-.12.06h-.12c-.49.02-1.08.29-1.76.8-.81.58-1.66 1.3-2.53 2.14-.13.11-.21.21-.26.31l.04.04-.05.28.06.09s.07.1.25.15h.07ZM90.7 114.7l.51.09c2.27-.2 4.46-.64 6.5-1.31a42 42 0 0 0 9.68-4.67c2.39-1.5 4.64-3.27 6.69-5.26 1.76-1.76 3.21-3.83 4.3-6.14.49-1 .59-1.85.32-2.6l-.08-.23.07-.23c.35-1.11.29-2.21-.18-3.36-.37-.91-.97-1.55-1.85-1.97a7.4 7.4 0 0 0-3.29-.78l-4.49.4c-2.15.42-4.42 1.04-6.67 1.86-2.35.92-4.65 1.95-6.82 3.06a21.7 21.7 0 0 0-5.32 3.92c-.56.59-1.15 1.19-1.75 1.8-1.3 1.3-1.85 2.77-1.67 4.49.09.16.17.33.24.53.15.55.37.94.71 1.25 1.33 1.27 2.88 1.98 4.73 2.16 1.97 0 4.03-.2 6.04-.59 4.61-.59 8.88-2.2 12.74-4.79l.86 1.15c-.97.8-1.95 1.58-2.92 2.32-3.2 2.59-6.78 4.63-10.64 6.05a58 58 0 0 1-4.63 1.66c-1.03.39-2.07.79-3.11 1.2Z" class="e"/><path d="M117.66 198.96c-.53-.46-1.05-.91-1.58-1.33-.96-.76-1.92-1.51-2.88-2.24-2.8-2.11-5.76-4.15-8.8-6.06l-.19-.12-.09-.21c-1.47-3.5-2.9-6.9-4.3-10.2a.9.9 0 0 1-.11-.43c-.23-3.53-.43-7.15-.6-10.72-.06-.93-.15-1.81-.25-2.6-.13-1.17-.27-2.38-.4-3.61l-.14-1.33 1.19.62c5.96 3.09 12.28 5.5 18.79 7.14 3.21.89 6.47 1.58 9.72 2.04l.62.09v.63c0 .76.02 1.51.05 2.27.03 1.92.03 3.86 0 5.79-.07 2.19-.1 4.42-.1 6.64 0 .45-.09.86-.28 1.22-.49.92-1.05 1.77-1.68 2.57-1.43 1.8-2.96 3.63-4.52 5.43l-3.9 4.92-.57-.5Z" class="e"/><path d="M97.33 237.77c-1.34-1.14-2.73-2.28-4.14-3.39l-2.3-1.8c-.65-.49-1.3-.97-1.93-1.44-.31-.24-.59-.46-.86-.65-1.2-.81-2.42-1.63-3.62-2.43-.57-.35-1.15-.7-1.72-1.03-.61-.37-1.19-.72-1.75-1.05l-.51-.3.19-.56c.37-1.07.73-2.12 1.1-3.16.81-2.15 1.62-4.28 2.46-6.42.96-2.49 1.98-5.02 3.01-7.51.47-1.11.96-2.21 1.46-3.28l1.49-3.48c.54-1.21 1.09-2.42 1.66-3.62.38-.88.78-1.75 1.18-2.63-.63.12-1.26.26-1.89.43l-.06.02h-.06c-.32.04-.6.07-.82.1-1.07.25-2.18.52-3.28.79l-4.59 1.2c-.99.26-1.96.54-2.92.84-.95.27-1.86.54-2.76.8-.82.26-1.63.53-2.43.79-.77.24-1.51.48-2.23.74l-1.59.58 7.98-17.96 19.39-5.31.24.59c.17.41.34.83.51 1.27 1.15 2.56 2.32 5.18 3.49 7.82q1.65 3.81 3.3 7.5c.7 1.49 1.4 3.01 2.1 4.54.63 1.4 1.28 2.81 1.95 4.25q1.11 2.46 2.25 4.95c.4.91.82 1.82 1.25 2.75 4.01 8.69 8.38 17.4 12.98 25.91 1.15 2.09 2.11 4.3 2.85 6.57.81 2.43 1.38 4.99 1.68 7.59.33 2.95.62 5.96.85 8.93.03.26.05.58.05.91 0 .16.01.32.04.48l.11 1.1.1.71v1.92l-34.23-28.07Z" class="g"/><path d="M131.82 259.27c-.13-1.63-.28-3.29-.45-4.99-.2-1.67-.43-3.36-.69-5.01-.23-1.61-.56-3.19-.98-4.72-.46-1.71-.99-3.41-1.58-5.05a1.9 1.9 0 0 1-.14-.69l2.53-62.93 4.2.37c1.15.21 2.31.37 3.52.5 1.41.06 2.9.16 4.39.3.34.03.69.07 1.05.1 2.02.31 3.98.64 5.87 1.01.76.13 1.55.28 2.36.45l.25.05.16.2c.7.87 1.41 1.76 2.11 2.66 1.54 2.04 3.04 4.17 4.48 6.34 1.72 2.58 3.44 5.23 5.11 7.86.25.33.52.73.79 1.13l.78 1.17-21.27-.7 16.21 20.88-.26.42c-.36.6-.73 1.21-1.09 1.84-.96 1.75-1.93 3.5-2.89 5.24-1.33 2.39-2.71 4.78-4.11 7.12-.84 1.44-1.7 2.86-2.56 4.22-1.86 3.09-3.83 6.16-5.86 9.12-1 1.47-2.05 2.94-3.12 4.37-1.94 2.67-4.04 5.28-6.24 7.75l-2.42 2.61-.13-1.63Z" class="g"/><path d="m105.18 191.46 1.1-.86 11.75 9.12-5.53 7.72zm16.03 19.68 2.16-7.01 4.25 2.54-.5 15.31z" class="f"/><path d="m118.25 199.46 10.31-13.1-.97 21.28zm-5.75 8.02 1.68-2.21 6.9 5.98-2.07 10.2z" class="f"/><path d="M91.99 105.39c-1.6-.15-2.92-.66-4-1.51l-.33-.26.07-.42c.04-.24.1-.47.18-.71.46-1.13.95-2.19 1.5-3.21 1.14-2.02 2.79-3.65 4.93-4.84a37 37 0 0 1 4.5-2.04c2.1-.78 4.31-1.38 6.58-1.79 2-.18 3.94-.33 5.88-.46 1.33.07 2.58.15 3.86.25h.08l.08.03c.86.27 1.44.84 1.67 1.63.08.19.13.46.13.75.04.39-.03.83-.21 1.24-.4.77-.88 1.51-1.43 2.24-1.37 1.62-3.04 2.97-4.97 4.04-2.39 1.25-4.92 2.4-7.53 3.44-1 .3-1.97.49-2.94.6-2.01.42-4.17.76-6.35 1h-1.68Zm5.23-6.4c-.56.52-.41.85-.33 1.03.05.13.13.37.73.49.12.02.23.04.35.04.27 0 .59-.06.94-.17.51-.11.87-.22 1.15-.36l.56-.33c.35-.16.66-.25 1.01-.33 1.19-.37 2.21-.77 2.96-1.18.46-.22.75-.47.91-.76.12-.18.16-.35.16-.56 0-.19-.03-.34-.09-.39q-.21-.21-.69-.24c-.29-.04-.5-.06-.71-.06-.28 0-.55.03-.82.09l-3.81 1.3-2.32 1.42Zm33.96 5.37c-1.01 0-2.02-.08-3.01-.24a8.6 8.6 0 0 1-2.68-.93l-.22-.12-.78-1.77.13-.29c.24-.55.43-1.13.55-1.75.27-1.2.87-2.2 1.78-3 1.94-1.6 4.04-2.78 6.24-3.54 2.21-.78 4.54-1.28 6.92-1.49h.04c1.55 0 3.04.14 4.5.41.99.06 2.02.38 2.98.93.57.33.95.85 1.14 1.54.17.6.15 1.22-.07 1.83-.58 1.67-1.53 2.97-2.82 3.85a25 25 0 0 1-4.69 2.48c-1.99.91-4.15 1.5-6.39 1.75-1.19.22-2.42.33-3.63.33Zm.22-7.22c-.19.12-.39.27-.55.43-.54.43-.73.7-.82.86-.21.39-.28.75-.23 1.14.09.43.28.79.57 1.06.19.19.39.31.63.41.12.04.3.08.49.11.07 0 .15.01.23.01.33 0 .63-.08.93-.24l.81-.43 1.67-.52c.81-.36 1.2-.6 1.37-.73.18-.15.35-.32.49-.49.06-.12.15-.33.2-.54.09-.5-.04-.92-.41-1.29-.36-.41-.86-.67-1.53-.8h-.13c-.39 0-.83.06-1.3.18-.2.04-.34.07-.46.1-.51.1-.94.21-1.32.35l-.65.37Z" style="fill:#fff"/><path d="M160.25 114c-1.38-1.52-2.02-2.71-1.99-3.71l-.11-.44.16-.2c.03-.16.12-.46.25-.83l.08-.23.2-.13c.73-.47 1.64-.86 2.71-1.14 1.67-.56 3.72-1.1 6.03-1.61 2.31-.53 4.35-.91 6.07-1.11 1.66-.23 4.01-.45 6.99-.65 2.95-.23 6.2-.4 9.63-.5 1.52-.06 2.98-.09 4.33-.09 1.69 0 3.27.05 4.68.14 1.04.07 2.07.26 3.08.57.56.12.89.64.99 1.57v.8l-.03.11s-.01.05-.01.12v.21c-.07.42-.12.8-.15 1.16l-.06.71-.71-.06c-1.49-.12-3.38-.19-5.61-.19-2.52 0-5.55.08-9 .24-6.52.3-12.36 1.08-17.36 2.33-4.93 1.21-8.03 2.23-9.22 3.05l-.52.35-.42-.47Z" style="fill:#d6dee8"/><path d="M46.8 123.43a18.1 18.1 0 0 1-7.81-2.19c-1.02-.54-2-1.15-2.92-1.79-1.48-.93-2.76-2.14-3.77-3.57l-.92-1.3 1.58.17c1.53.16 3.07.25 4.57.25 1.29-.09 2.6-.34 3.84-.72 1.03-.39 2.13-.78 3.23-1.15.71-.27 1.39-.64 2-1.09.24-.22.51-.52.75-.85.23-.25.36-.5.42-.77L31.42 93.77l-.78-.88c-1.66-2.17-3.25-4.37-4.75-6.57-.61-.85-1.15-1.76-1.6-2.69-1.04-2.07-1.26-4.36-.65-6.79.63-2.48 1.78-4.62 3.42-6.37 2.29-2.43 4.97-4.29 7.95-5.52 1.51-.56 3.04-.93 4.6-1.1l1.61-.38c.95-.19 1.87-.41 2.78-.66-.17-.82-.36-1.63-.56-2.4-.64-2.31-1.15-4.64-1.52-6.92-.41-2.8.59-5.02 2.96-6.61.78-.58 1.66-1.08 2.57-1.47 2.04-.96 4.24-1.92 6.51-2.85 1.25-.58 2.53-1.22 3.78-1.91 1.04-.63 2.07-1.37 3.04-2.17 1.79-1.47 3.3-3.26 4.49-5.31 2.88-5.1 6.51-9.82 10.77-14.05 1.41-1.38 2.89-2.72 4.39-3.99 1.33-1.1 2.78-2.08 4.31-2.93 1.9-1.13 3.91-2.16 5.97-3.03 2.07-.85 4.26-1.5 6.49-1.94 3.04-.54 6.09-.85 9.07-.91.84-.03 1.7-.05 2.56-.05 1.71 0 3.47.07 5.21.2 1.46.14 2.96.34 4.47.61 2.95.73 5.65 1.9 8.07 3.51 1.81 1.25 3.37 2.81 4.64 4.64 1.7 2.46 2.7 5.2 2.98 8.14.37 3.6.34 7.27-.1 10.9l-.7 5.31c-.35 2.42-.78 4.87-1.28 7.3 1.64-1.07 3.33-2.04 5.05-2.89 1.56-.8 3.17-1.57 4.77-2.31 1.97-.83 3.96-1.74 5.94-2.69l1.27-.61-.24 1.38c-.1.59-.24 1.18-.42 1.78-.36 1.1-.85 2.17-1.48 3.18-.34.54-.7 1.08-1.08 1.6-.54.74-1.1 1.49-1.67 2.24.65.07 1.31.14 1.97.22 1.09.1 2.23.15 3.36.15 2.12.03 4.23.17 6.28.4.79.04 1.52.34 2.11.89.8.8 1.17 1.75 1.13 2.85-.03 1.22-.15 2.46-.36 3.69-.17 1.09-.43 2.19-.77 3.25-.35 1.05-.79 2.05-1.31 2.98s-1.12 1.81-1.77 2.61c-.82.96-1.71 1.86-2.63 2.68a20.6 20.6 0 0 1-5.14 3.27c-3.07 1.3-6.36 2.07-9.79 2.31-1.12.13-2.28.2-3.41.2-3.25 0-6.47-.55-9.58-1.63-3.63-1.15-6.9-3.04-9.7-5.6-.44-.37-.86-.79-1.22-1.22a98 98 0 0 1-4.68-6.1c-.74-1.03-1.57-2.04-2.44-2.98-.84-.9-1.75-1.73-2.71-2.47a9 9 0 0 0-2.59-1.39c-.92-.35-1.86-.58-2.81-.71-1.72.04-3.44.28-5.13.73l-1.06.28.7-4.54c-.05.06-.1.13-.15.19-.49.65-.9 1.35-1.21 2.09-.25.62-.46 1.29-.61 1.98-.36 1.6-.62 3.25-.79 4.91-.1.93-.13 1.87-.1 2.8.07 1.84.1 3.68.1 5.48.03 2.76-.22 5.51-.76 8.14-.35 1.64-.95 3.18-1.79 4.58-.67 1.09-1.43 2.04-2.27 2.85-1.57 1.46-3.39 2.38-5.42 2.74-.7.08-1.37.12-2.03.12-1.1 0-2.2-.11-3.28-.33-2.63-.67-4.95-1.86-6.93-3.56-1.27-1.03-2.5-2.16-3.65-3.34a44 44 0 0 1-4.47-5.34l-.89-1.25 5.38.41c1.24-.26 2.48-.57 3.7-.92 1.12-.35 2.28-.78 3.42-1.27 1.06-.53 2.02-1.34 2.81-2.38.82-.99 1.6-1.94 2.36-2.87.11-.14.2-.27.28-.4-.75.33-1.47.75-2.15 1.24-.75.51-1.46 1.01-2.16 1.5-.94.74-2.03 1.41-3.21 1.97-1.97.97-4.04 1.53-6.16 1.67l-2.63-.1c-.3-.03-.56-.05-.85-.05s-.62.02-.96.05h-.12l-.52-.12c.08 2.06.55 4.04 1.43 5.84a30.4 30.4 0 0 0 2 3.57c.9 1.35 1.95 2.62 3.11 3.79 1.55 1.62 3.39 3 5.48 4.12l.38.2v.43c0 1.12-.05 2.25-.15 3.37-.07 1.06-.41 2.1-1 3.06-1.33 2.21-3.15 3.88-5.4 4.97-1.45.69-2.96 1.03-4.52 1.03-.63 0-1.28-.06-1.92-.17-.22-.03-.44-.06-.64-.1-2.02-.58-4.04-1.1-6.09-1.56l-1.44-.41c-.35-.07-.69-.15-1.03-.26.28.26.57.51.88.75q.96.765 1.92 1.35l.35.17c.71.4 1.44.76 2.2 1.08l.59.25-6.43 22.77-.57-.03Z" style="fill:#663d3d"/><path d="M188.99 221.27c-1.5-6.43-3.03-12.83-4.6-19.2q-.555-2.4-1.05-4.8c-.73-3.8-1.82-7.43-3.25-10.9-6.83-1.6-13.7-2.77-20.6-3.5l-5.45-6.75c-1.33-.3-2.62-.6-3.85-.9-.7-.23-1.47-.42-2.3-.55-5.47-.87-10.92-1.43-16.35-1.7l-.1-1.9c1.73.1 3.48.22 5.25.35q8.1.705 16.05-1.35 5.745-1.395 10.95-4.65c6.4-4 12.12-8.83 17.15-14.5-.6 2.37-.98 4.82-1.15 7.35-.07.97.18 1.78.75 2.45q1.155 1.455 3.15 1.5 2.205-.3 3.9-1.35c2.6-1.6 4.95-3.33 7.05-5.2 2.77-2.43 5.32-5.1 7.65-8 2.27-2.77 4.28-5.73 6.05-8.9 1.7-3.03 3.02-6.25 3.95-9.65.33-1.13.63-2.27.9-3.4.17-.8.33-1.58.5-2.35 1.27-5.97 1.72-12.1 1.35-18.4-.13-1.97-.7-3.87-1.7-5.7-.8-1.43-1.82-2.67-3.05-3.7-1.63-1.43-3.55-2.17-5.75-2.2-1.13-.07-2.32-.12-3.55-.15q-5.205-.105-10.35 0c-4.7.07-9.38.32-14.05.75-8.8.73-17.53 1.77-26.2 3.1.57-1.2.75-2.48.55-3.85-.1-.77-.42-1.38-.95-1.85-1.37-1.2-2.93-1.9-4.7-2.1-4.1-.27-8.08.27-11.95 1.6l-1.1-11.85c5.43.13 10.75-.63 15.95-2.3 2.7-.9 5.22-2.12 7.55-3.65 2.73-1.73 4.97-3.9 6.7-6.5 1.93-2.8 3.25-5.83 3.95-9.1.2-1 .3-1.98.3-2.95-.03-1.33-.27-2.65-.7-3.95-.4-1.27-1.13-2.23-2.2-2.9-.37-.23-.73-.47-1.1-.7-.5-.37-1.02-.68-1.55-.95-1-.5-2.02-.92-3.05-1.25q-3.555-.945-7.35-.45c.67-1.3 1.13-2.67 1.4-4.1.17-.83 0-1.58-.5-2.25-1.1-1.5-2.57-2.05-4.4-1.65-3.87.97-7.32 2.78-10.35 5.45q1.005-3.855 1.8-7.95c.5-2.67.75-5.3.75-7.9 0-3.57-.68-7-2.05-10.3-1.67-4.07-4.3-7.27-7.9-9.6-1.87-1.23-3.88-2.2-6.05-2.9-3.03-1-6.2-1.65-9.5-1.95-3.93-.33-7.85-.33-11.75 0-3.93.3-7.82.98-11.65 2.05q-3.9 1.005-7.35 2.85c-5.43 2.83-10.03 6.6-13.8 11.3a84.4 84.4 0 0 0-7.6 11.35c-.4.7-.83 1.38-1.3 2.05-.57.77-1.15 1.57-1.75 2.4-1.4 1.83-3.17 3.22-5.3 4.15q-3.045 1.305-6.15 2.1c-3.87 1.03-7.03 3.05-9.5 6.05-1.87 2.23-2.43 4.75-1.7 7.55.57 2.27 1.38 4.37 2.45 6.3-2.7.17-5.22.82-7.55 1.95-3 1.53-5.62 3.6-7.85 6.2-.67.73-1.27 1.52-1.8 2.35q-1.305 2.25-2.1 4.65c-.5 1.5-.67 3.02-.5 4.55.27 2.7.82 5.37 1.65 8 .3.97.77 1.93 1.4 2.9 3.3 4.9 7.23 9.23 11.8 13 3.13 2.57 6.28 5 9.45 7.3-2.6 1.33-5.32 2.03-8.15 2.1q-3 .345-5.7-.6a4 4 0 0 0-1.6-.35c-.6 0-1.15.17-1.65.5-1.1.8-1.37 1.87-.8 3.2.33.7.75 1.42 1.25 2.15 1.6 2.37 3.58 4.47 5.95 6.3 1.47 1.1 3.05 2 4.75 2.7q4.05 1.755 8.55 2.25c-.47 2.6-.9 5.22-1.3 7.85-1.07 7.17-1.53 14.42-1.4 21.75.1 5.83 1.03 11.48 2.8 16.95.47 1.4 1.15 2.78 2.05 4.15q.75 1.2 1.8 2.1c.57.57 1.23.93 2 1.1 1.63.57 3.25.53 4.85-.1 3.07-1.13 5.83-2.73 8.3-4.8 3.47-2.83 6.4-6.15 8.8-9.95 1.1-1.7 1.93-3.48 2.5-5.35.57-1.93.85-3.9.85-5.9.03-3.73-.05-7.48-.25-11.25.63.63 1.28 1.27 1.95 1.9 5 4.63 10.43 8.65 16.3 12.05l1.5 16.5q-3.795 1.095-7.65 2.1c-.77.2-1.5.4-2.2.6-3.33 1.07-6.73 2.18-10.2 3.35l-2.3 5.1c-2.47.63-4.93 1.27-7.4 1.9-2.37.7-4.73 1.42-7.1 2.15-3.27.93-6.48 2.03-9.65 3.3-.7 1.57-1.38 3.15-2.05 4.75-1.93 4.63-3.8 9.25-5.6 13.85-.08.2-.15.39-.22.59.72 1.31 1.47 2.61 2.24 3.89.64-1.88 1.3-3.76 1.99-5.64q2.205-6.15 4.8-12c.5-1.07 1.02-2.12 1.55-3.15l19.55-5.55-5.4 14.9c.9-.3 1.78-.63 2.65-1 2.17-.7 4.3-1.4 6.4-2.1 2.43-.87 4.93-1.6 7.5-2.2a59 59 0 0 0 6.2-1.65L78 226.01l52.18 41.7c.93-.04 1.86-.09 2.78-.15l-.21-5.16c.33-.17.67-.37 1-.6 1.2-.73 2.32-1.67 3.35-2.8 2.7-2.87 5.22-5.92 7.55-9.15 1.63-2.27 3.22-4.6 4.75-7 .97-1.47 1.9-2.95 2.8-4.45 1.07-1.7 2.1-3.4 3.1-5.1.6-.97 1.15-1.93 1.65-2.9q1.905-3.345 3.3-6.75c.53-1.27 1.02-2.55 1.45-3.85.3-.83.57-1.67.8-2.5 0-.07-.02-.12-.05-.15a95 95 0 0 0-3.3-4.9c-.87-1.27-1.75-2.53-2.65-3.8-1.73-2.57-3.73-5-6-7.3-.4-.47-.77-.92-1.1-1.35l16.2.5 5.15.65c-.97-1.73-1.92-3.47-2.85-5.2-1.77-3.17-3.72-6.28-5.85-9.35l16.05 2.8c2.07 7.53 4.02 15.07 5.85 22.6 2.13 8.87 4 17.72 5.6 26.55.16.83.3 1.68.46 2.52.86-.85 1.7-1.72 2.54-2.61-.54-2.86-1.1-5.73-1.7-8.61-.57-2.8-1.18-5.6-1.85-8.4Zm-113.4-103.1c.23-3.67.5-7.32.8-10.95.1-1.33-.02-2.7-.35-4.1-.3.53-.57 1.08-.8 1.65-.27.77-.48 1.53-.65 2.3-.47 2.2-.92 4.42-1.35 6.65a91 91 0 0 0-1.7 15.9c-.07 3.07.02 6.12.25 9.15.3 4.17.47 8.33.5 12.5 0 2.3-.25 4.63-.75 7-.17.7-.4 1.4-.7 2.1-1.93 4.57-4.8 8.37-8.6 11.4-2.33 1.8-4.9 3.22-7.7 4.25-1.33.47-2.35.1-3.05-1.1-1.63-2.8-2.7-5.82-3.2-9.05-.53-3.33-.83-6.7-.9-10.1-.13-5.17.03-10.27.5-15.3.67-7.17 1.8-14.27 3.4-21.3 1.33-5.77 2.95-11.38 4.85-16.85 1.4.4 2.85.58 4.35.55 1.73-.1 3.35-.43 4.85-1q3.045-1.245 5.4-3.6c.47-.47.95-.92 1.45-1.35 1.3-1.1 2.02-2.53 2.15-4.3.03-.63.03-1.27 0-1.9-.03-.57-.07-1.12-.1-1.65 0-.13.07-.27.2-.4 1.9.43 3.8.45 5.7.05 2.27-.4 4.35-1.25 6.25-2.55q2.895-1.905 4.5-4.8 1.65-3 2.25-6.15.75-4.05 0-8.4c-.53-3.27-.73-6.58-.6-9.95l.2.65c.8-.3 1.63-.53 2.5-.7.73-.2 1.47-.23 2.2-.1 2.67.43 4.7 1.87 6.1 4.3.53.73 1.08 1.5 1.65 2.3 1.53 2 3.18 3.97 4.95 5.9a25 25 0 0 0 4.5 3.9c4.27 2.97 8.95 4.83 14.05 5.6l1.15 13.55c-1 .57-1.95 1.18-2.85 1.85-.77.57-1.43 1.2-2 1.9-1.27 1.57-2.02 3.33-2.25 5.3-.2 1.73.47 2.95 2 3.65.63.37 1.38.65 2.25.85.4.7.92 1.27 1.55 1.7.7.4 1.43.68 2.2.85 1.3.43 2.67.68 4.1.75 2.6.17 5.17.03 7.7-.4 1.3-.2 2.55-.57 3.75-1.1.83-.33 1.67-.6 2.5-.8.4-.1.65-.37.75-.8l-.55-.5c-.8.1-1.6.22-2.4.35-1 .17-2 .35-3 .55-2.47.37-4.9.53-7.3.5-1.43 0-2.85-.18-4.25-.55 1.77-.2 3.52-.48 5.25-.85 1.7-.4 3.32-.97 4.85-1.7 1.5-.77 3.12-1.13 4.85-1.1 5.67-.6 11.35-1.15 17.05-1.65 8.63-.77 17.28-1.43 25.95-2 3.77-.37 7.48-.42 11.15-.15 1.47-.1 2.87.17 4.2.8 1.23.53 2.07 1.4 2.5 2.6.87 2.43 1.35 4.97 1.45 7.6.2 4.2-.18 8.33-1.15 12.4a90 90 0 0 1-2.05 7.1c-.9 2.6-2.05 5.03-3.45 7.3a80.6 80.6 0 0 1-9.85 12.95c-2.9 3.07-6.13 5.75-9.7 8.05l.2-10.3c-.1-.1-.18-.2-.25-.3-.13-.1-.25-.18-.35-.25-.17-.03-.32-.05-.45-.05-.13.03-.25.07-.35.1-.03 0-.05.02-.05.05h-.5c-5.8 5.7-12.3 10.48-19.5 14.35a33.4 33.4 0 0 1-8.3 3.25c-2.97.53-6 .88-9.1 1.05q-4.995.105-10.05-.6c-3.17-.37-6.32-.88-9.45-1.55-3.53-.8-7.07-1.78-10.6-2.95-3.37-1.1-6.65-2.43-9.85-4-3.03-1.53-6.05-3.13-9.05-4.8-3.43-2-6.73-4.22-9.9-6.65a78 78 0 0 1-9.55-9c-.27-3.83-.45-7.65-.55-11.45q-.045-3.195.15-6.45m-30.75-4.35c.8-.3 1.53-.7 2.2-1.2.33-.3.63-.63.9-1 .37-.4.57-.88.6-1.45l-16.6-16.9c-.27-.3-.52-.58-.75-.85-1.63-2.13-3.2-4.3-4.7-6.5-.6-.83-1.12-1.7-1.55-2.6q-1.455-2.895-.6-6.3c.6-2.37 1.68-4.38 3.25-6.05 2.23-2.37 4.8-4.15 7.7-5.35 1.43-.53 2.9-.88 4.4-1.05.57-.13 1.13-.27 1.7-.4 1.17-.23 2.32-.52 3.45-.85-.2-1.07-.43-2.1-.7-3.1a66 66 0 0 1-1.5-6.85c-.37-2.5.52-4.47 2.65-5.9.77-.57 1.58-1.03 2.45-1.4 2.07-.97 4.23-1.92 6.5-2.85 1.3-.6 2.58-1.25 3.85-1.95q1.65-1.005 3.15-2.25a19.9 19.9 0 0 0 4.65-5.5c2.87-5.07 6.42-9.7 10.65-13.9 1.4-1.37 2.85-2.68 4.35-3.95q1.95-1.605 4.2-2.85c1.9-1.13 3.87-2.13 5.9-3 2.03-.83 4.15-1.47 6.35-1.9 3-.53 5.98-.83 8.95-.9 2.53-.1 5.1-.05 7.7.15 1.43.13 2.9.33 4.4.6 2.83.7 5.43 1.83 7.8 3.4a17.6 17.6 0 0 1 4.45 4.45q2.445 3.555 2.85 7.8c.37 3.57.33 7.15-.1 10.75-.23 1.77-.47 3.53-.7 5.3q-.645 4.5-1.65 9c2.07-1.47 4.22-2.75 6.45-3.85 1.57-.8 3.15-1.57 4.75-2.3 1.97-.83 3.95-1.73 5.95-2.7-.1.57-.23 1.13-.4 1.7-.33 1.03-.8 2.03-1.4 3-.33.53-.68 1.05-1.05 1.55-.8 1.1-1.62 2.18-2.45 3.25 1.07.1 2.15.22 3.25.35q1.695.15 3.45.15c2.1.03 4.17.17 6.2.4.67.03 1.23.27 1.7.7.63.63.93 1.4.9 2.3-.03 1.2-.15 2.4-.35 3.6q-.255 1.605-.75 3.15c-.33 1-.75 1.95-1.25 2.85s-1.07 1.73-1.7 2.5c-.8.93-1.65 1.8-2.55 2.6q-2.25 1.95-4.95 3.15c-3 1.27-6.18 2.02-9.55 2.25-4.37.5-8.6.03-12.7-1.4a25 25 0 0 1-9.45-5.45c-.43-.37-.82-.75-1.15-1.15-1.63-1.97-3.18-3.98-4.65-6.05-.77-1.07-1.6-2.08-2.5-3.05-.87-.93-1.8-1.78-2.8-2.55-.87-.67-1.8-1.17-2.8-1.5q-1.455-.555-3-.75c-1.8.03-3.58.28-5.35.75l.9-5.8c-.67.63-1.27 1.3-1.8 2s-.97 1.45-1.3 2.25c-.27.67-.48 1.37-.65 2.1-.37 1.63-.63 3.3-.8 5-.1.97-.13 1.93-.1 2.9.07 1.83.1 3.65.1 5.45.03 2.73-.22 5.4-.75 8-.33 1.57-.9 3.02-1.7 4.35-.63 1.03-1.35 1.93-2.15 2.7-1.47 1.37-3.15 2.22-5.05 2.55-1.7.2-3.38.13-5.05-.2-2.5-.63-4.7-1.77-6.6-3.4a40 40 0 0 1-3.6-3.3c-1.63-1.67-3.1-3.42-4.4-5.25 1.3.1 2.62.2 3.95.3 1.3-.27 2.58-.58 3.85-.95 1.17-.37 2.33-.8 3.5-1.3 1.2-.6 2.23-1.47 3.1-2.6.8-.97 1.58-1.92 2.35-2.85.53-.67.77-1.33.7-2-1.27.4-2.45 1-3.55 1.8-.73.5-1.45 1-2.15 1.5-.93.73-1.97 1.37-3.1 1.9-1.9.93-3.87 1.47-5.9 1.6-.87-.03-1.72-.07-2.55-.1-.53-.07-1.17-.07-1.9 0l-1.2-.3c-.07.27-.1.53-.1.8.07 2.23.57 4.32 1.5 6.25.6 1.27 1.28 2.48 2.05 3.65.93 1.4 2 2.7 3.2 3.9 1.6 1.67 3.48 3.08 5.65 4.25q0 1.65-.15 3.3c-.07.97-.37 1.88-.9 2.75-1.27 2.1-2.97 3.67-5.1 4.7-1.9.9-3.9 1.17-6 .8-.23-.03-.45-.07-.65-.1-1.97-.57-3.98-1.08-6.05-1.55-.47-.13-.93-.27-1.4-.4-1.17-.23-2.18-.62-3.05-1.15l-.35.3c.73.93 1.6 1.8 2.6 2.6.67.53 1.33 1 2 1.4.13.07.27.13.4.2.7.4 1.45.77 2.25 1.1l-6.1 21.6q-4.005-.195-7.5-2.1c-1-.53-1.95-1.12-2.85-1.75-1.43-.9-2.63-2.03-3.6-3.4 1.57.17 3.12.25 4.65.25q2.1-.15 4.05-.75c1.07-.4 2.15-.78 3.25-1.15m99.7-21.45c.97.07 1.88.35 2.75.85.4.23.67.6.8 1.1.13.47.12.93-.05 1.4-.53 1.53-1.38 2.7-2.55 3.5-1.5 1-3.02 1.8-4.55 2.4-1.97.9-4.03 1.47-6.2 1.7-2.2.4-4.35.43-6.45.1-.83-.13-1.65-.42-2.45-.85l-.55-1.25c.27-.6.47-1.23.6-1.9.23-1.03.75-1.9 1.55-2.6 1.87-1.53 3.87-2.67 6-3.4a27 27 0 0 1 6.75-1.45c1.47 0 2.92.13 4.35.4m-20.75 112.85 3.1 1.85-.4 12.25-4.5-8.25zm3.95-16.65-.8 17.55-7.7-6.75zm-7.45 22.95-1.55 7.65-5.4-11.6.95-1.25zm-3.25-11.65-4.4 6.15-6.8-14.85zm10.95-21.2c-.07 2.2-.1 4.42-.1 6.65 0 .33-.07.63-.2.9-.47.87-1 1.68-1.6 2.45q-2.145 2.7-4.5 5.4l-3.45 4.35c-.53-.47-1.07-.92-1.6-1.35a128 128 0 0 0-11.75-8.35c-1.47-3.5-2.9-6.9-4.3-10.2a.5.5 0 0 1-.05-.15c-.23-3.6-.43-7.18-.6-10.75-.07-.97-.15-1.85-.25-2.65-.13-1.17-.27-2.37-.4-3.6a87.7 87.7 0 0 0 18.95 7.2c3.23.9 6.5 1.58 9.8 2.05 0 .77.02 1.53.05 2.3.03 1.9.03 3.82 0 5.75m-30.6.25c.17.4.33.82.5 1.25 1.17 2.6 2.33 5.22 3.5 7.85q1.65 3.795 3.3 7.5c.7 1.5 1.4 3.02 2.1 4.55.63 1.4 1.28 2.82 1.95 4.25q1.095 2.445 2.25 4.95c.4.9.82 1.82 1.25 2.75 4.03 8.73 8.37 17.38 13 25.95 1.13 2.07 2.07 4.22 2.8 6.45.8 2.4 1.35 4.88 1.65 7.45.33 2.97.62 5.93.85 8.9.03.27.05.55.05.85 0 .2.02.4.05.6.03.33.07.68.1 1.05l.1.7v.35l-33.05-27.1c-1.33-1.13-2.72-2.27-4.15-3.4-.77-.6-1.53-1.2-2.3-1.8-.67-.5-1.32-.98-1.95-1.45-.3-.23-.58-.45-.85-.65-1.23-.83-2.45-1.65-3.65-2.45-.6-.37-1.18-.72-1.75-1.05-.6-.37-1.18-.72-1.75-1.05.37-1.07.73-2.12 1.1-3.15.8-2.13 1.62-4.27 2.45-6.4q1.455-3.75 3-7.5c.47-1.1.95-2.18 1.45-3.25.5-1.17 1-2.33 1.5-3.5q.795-1.8 1.65-3.6c.57-1.3 1.15-2.58 1.75-3.85-1.1.13-2.2.35-3.3.65-.33.03-.62.07-.85.1-1.13.27-2.25.53-3.35.8l-4.6 1.2c-1 .27-1.98.55-2.95.85-.93.27-1.85.53-2.75.8-.83.27-1.65.53-2.45.8q-1.155.345-2.25.75l7.15-16.1zm33 65.45c-.47-1.73-1-3.43-1.6-5.1-.07-.17-.1-.32-.1-.45l2.5-62.15q1.695.15 3.45.3c1.1.2 2.27.37 3.5.5 1.47.07 2.93.17 4.4.3.33.03.68.07 1.05.1 1.97.3 3.9.63 5.8 1 .77.13 1.55.28 2.35.45.7.87 1.4 1.75 2.1 2.65a122 122 0 0 1 4.45 6.3c1.73 2.6 3.43 5.22 5.1 7.85.27.37.53.75.8 1.15l-21.4-.7 16.85 21.7c-.37.6-.73 1.22-1.1 1.85-.97 1.77-1.93 3.52-2.9 5.25-1.33 2.4-2.7 4.77-4.1 7.1q-1.245 2.145-2.55 4.2c-1.87 3.1-3.82 6.13-5.85 9.1-1 1.47-2.03 2.92-3.1 4.35-1.93 2.67-4 5.23-6.2 7.7-.43.47-.87.93-1.3 1.4-.13-1.63-.28-3.3-.45-5-.2-1.7-.43-3.38-.7-5.05-.23-1.63-.57-3.23-1-4.8"/><path d="M156.79 132.77c-1.23.9-2 1.67-2.3 2.3-.33.5-.48.83-.45 1 0 .1.02.17.05.2.1.17.33.32.7.45.53.2 1.35-.12 2.45-.95 1.07-.87 1.77-1.43 2.1-1.7q.495-.45.9-1.05c.13-.2.2-.43.2-.7 0-.23-.07-.48-.2-.75q-1.605-.195-3.45 1.2m-7.35-4.25h.15c.37 0 .82-.12 1.35-.35.8-.37 1.45-.73 1.95-1.1.47-.4.88-.77 1.25-1.1.4-.37.67-.67.8-.9.1-.2.17-.37.2-.5v-.3c-.01-.18-.06-.35-.15-.5-.2-.33-.47-.52-.8-.55-.06-.01-.11 0-.16 0-.1 0-.2.01-.29.06-.63.03-1.35.35-2.15.95-.83.6-1.7 1.33-2.6 2.2-.27.23-.43.48-.5.75q-.045.045 0 .15v.05q-.045.105 0 .15c-.03.17.03.35.2.55q.255.345.75.45Zm5.5-15.8s-.03.07 0 .1c-.03 0-.03.03 0 .1.03.1.15.5.35 1.2.17.67.85 1.88 2.05 3.65 1.17 1.73 2.72 3.4 4.65 5 1.93 1.57 3.97 3.03 6.1 4.4 2.17 1.33 4.68 2.52 7.55 3.55s4.97 1.55 6.3 1.55c1.8-.07 3.02-.2 3.65-.4 1.67-.47 3.8-1.57 6.4-3.3 2.47-1.6 4.87-3.82 7.2-6.65 2.33-2.77 4.07-5.42 5.2-7.95.63-1.47 1.03-3.43 1.2-5.9v-.1c.03-.77.07-1.42.1-1.95l-.05-1.1c0-.06-.02-.12-.05-.2-.04-.46-.11-.77-.2-.95-.47-.73-1.7-1.33-3.7-1.8-1.13-.27-3.08-.43-5.85-.5-2.8-.1-5.55-.03-8.25.2-2.7.2-4.55.33-5.55.4-4.97.27-8.68.6-11.15 1-2.47.37-4.02.63-4.65.8-.67.13-2.52.55-5.55 1.25-3.03.67-4.97 1.95-5.8 3.85-.13.4-.2.83-.2 1.3l-.05.4.05.5c0 .5.08 1.02.25 1.55m47.7-6.4c-.03.1-.05.22-.05.35v.1q-.105.645-.15 1.2c-3.23-.27-8.13-.25-14.7.05-6.6.3-12.43 1.08-17.5 2.35q-7.545 1.845-9.45 3.15-1.905-2.1-1.8-3.3c-.01-.06-.03-.12-.05-.2.02-.02.04-.06.05-.1.03-.2.12-.48.25-.85.67-.43 1.5-.78 2.5-1.05 1.7-.57 3.7-1.1 6-1.6 2.3-.53 4.3-.9 6-1.1 1.67-.23 3.98-.45 6.95-.65 2.97-.23 6.17-.4 9.6-.5 3.43-.13 6.42-.12 8.95.05 1 .07 1.98.25 2.95.55.23.03.38.35.45.95zm-56.5 32.8c.53-.27 1.32-.85 2.35-1.75 1-.93 1.62-1.57 1.85-1.9.2-.37.28-.72.25-1.05v-.1c-.07-.4-.25-.65-.55-.75-.23-.03-.62.05-1.15.25-.57.17-1.25.58-2.05 1.25-.8.63-1.38 1.37-1.75 2.2q-.345.75-.3 1.2-.045.345.15.6c.27.3.67.32 1.2.05m-59.9-34.6c.17.63.47 1.15.9 1.55 1.43 1.37 3.15 2.15 5.15 2.35 2.1 0 4.18-.2 6.25-.6 4.7-.6 9.03-2.23 13-4.9-.97.8-1.93 1.57-2.9 2.3a36.5 36.5 0 0 1-10.45 5.95c-1.47.6-3 1.15-4.6 1.65-1.77.67-3.52 1.35-5.25 2.05.1.03.2.07.3.1.23.03.47.07.7.1.53.2 1.15.35 1.85.45q3.555-.3 6.75-1.35c3.43-1.13 6.72-2.72 9.85-4.75a42 42 0 0 0 6.8-5.35c1.83-1.83 3.32-3.95 4.45-6.35.57-1.17.68-2.22.35-3.15.4-1.27.33-2.55-.2-3.85-.43-1.07-1.17-1.85-2.2-2.35a8.1 8.1 0 0 0-3.6-.85c-1.53.13-3.05.27-4.55.4-2.27.43-4.55 1.07-6.85 1.9-2.4.93-4.7 1.97-6.9 3.1a22.7 22.7 0 0 0-5.5 4.05c-.57.6-1.15 1.2-1.75 1.8-1.5 1.5-2.12 3.25-1.85 5.25.1.13.18.3.25.5m30.05-12.25c.07.17.1.35.1.55.03.33-.02.65-.15.95q-.555 1.05-1.35 2.1c-1.3 1.53-2.88 2.82-4.75 3.85a81 81 0 0 1-7.45 3.4c-.9.27-1.82.45-2.75.55-2.07.43-4.18.77-6.35 1h-1.6c-1.4-.13-2.58-.58-3.55-1.35q.045-.3.15-.6c.43-1.07.92-2.1 1.45-3.1 1.07-1.9 2.62-3.42 4.65-4.55 1.43-.77 2.9-1.43 4.4-2 2.07-.77 4.22-1.35 6.45-1.75 1.93-.17 3.87-.32 5.8-.45 1.23.07 2.48.15 3.75.25.63.2 1.03.58 1.2 1.15M70.84 241.12c.7-3.47 1.25-6.95 1.65-10.45q.6-5.055 1.05-9.9c-.5 1.23-.97 2.48-1.4 3.75-.27.67-.52 1.35-.75 2.05-.9 2.97-1.73 5.97-2.5 9-.37 1.5-.72 2.98-1.05 4.45-.13.53-.25 1.07-.35 1.6-.22 1.03-.42 2.06-.63 3.09 1.96 1.76 3.96 3.42 5.99 4.98-.6-2.44-1.18-4.89-1.71-7.37zm95.15 7.7c.07-3.13.35-6.23.85-9.3 1.13-7.2 1.75-14.35 1.85-21.45 0-.53-.17-1-.5-1.4l-.45-.1q-.3.345-.45.75c-.2.63-.37 1.3-.5 2-.67 3.83-1.27 7.62-1.8 11.35-.3 2-.62 3.98-.95 5.95-.63 4.07-1.4 8.17-2.3 12.3-.7 3.27-1.38 6.47-2.05 9.6-.24 1.08-.49 2.14-.73 3.21 1.3-.52 2.6-1.07 3.88-1.66l.55-2.25.32 1.85c1.13-.53 2.25-1.09 3.36-1.67-.16-.83-.31-1.65-.47-2.48-.43-2.23-.63-4.47-.6-6.7Zm-42.1 18.45c-.27.11-.55.27-.85.47q1.665.06 3.36.06c.46 0 .91-.01 1.37-.02-.32-.32-.69-.59-1.13-.77-.87-.3-1.78-.22-2.75.25Zm7.85-171.15-.7.4c-.27.17-.5.35-.7.55-.47.37-.78.72-.95 1.05-.27.5-.37 1.02-.3 1.55.13.63.4 1.13.8 1.5.23.23.52.42.85.55.2.07.42.12.65.15.57.07 1.1-.03 1.6-.3l.75-.4 1.6-.5c.77-.33 1.3-.62 1.6-.85q.345-.3.6-.6c.17-.27.28-.55.35-.85q.195-1.155-.6-1.95c-.43-.5-1.07-.83-1.9-1a5.5 5.5 0 0 0-1.75.2c-.17.03-.32.07-.45.1-.53.1-1.02.23-1.45.4"/><path d="M104.94 95.52c-.6-.1-1.18-.08-1.75.05l-3.95 1.35-2.45 1.5c-.67.6-.85 1.23-.55 1.9.17.47.58.77 1.25.9q.705.15 1.65-.15c.5-.1.92-.23 1.25-.4l.6-.35c.23-.1.5-.18.8-.25 1.3-.4 2.35-.82 3.15-1.25q.855-.405 1.2-1.05c.17-.23.25-.53.25-.9q0-.6-.3-.9c-.27-.27-.65-.42-1.15-.45"/></svg>