<svg xmlns="http://www.w3.org/2000/svg" id="a" viewBox="11.13 3.27 231.5 212.23"><defs><style>.n{fill:#663d3d}.o{fill:#998ca5}</style></defs><path id="b" d="M217.28 65.75c-17.9-15.59-40.92-23.48-69.05-23.67-28.06-.1-53.12 7.44-75.17 22.61-21.83 15.2-34.19 33.72-37.08 55.55-2.76 21.73 4.77 40.34 22.61 55.84 17.97 15.46 40.98 23.32 69.05 23.58 28.13.13 53.15-7.39 75.07-22.57 21.92-15.3 34.33-33.8 37.22-55.5 2.8-21.79-4.76-40.41-22.66-55.84Z" style="fill:#161b29"/><path id="c" d="M77.26 66.66c-20.73 14.14-32.45 31.28-35.15 51.4-2.67 20.19 4.48 37.45 21.46 51.79 16.97 14.37 38.75 21.62 65.33 21.75 26.62.23 50.29-6.73 71.02-20.88 20.8-14.14 32.55-31.28 35.25-51.4 2.67-20.19-4.48-37.45-21.46-51.79-16.97-14.34-38.77-21.59-65.38-21.75q-39.87-.285-71.07 20.88" style="fill:#5d6788"/><g id="d"><g id="e"><path d="M42.29 70.42q1.59 6.315 2.22 9.33c-4.51.99-7.35 1.61-8.53 1.88-5.19 1.1-9.52 3.54-12.97 7.34-1.59 1.86-2.79 3.81-3.58 5.86-.76 2.16-1 4.25-.74 6.26q.63 3.015 2.79 6.54c2.58 4.17 8.45 10.79 17.63 19.85 4.25 4.25 7.58 7.47 10.01 9.67-.11 1.67-1.65 3.15-4.61 4.44-2.92 1.18-5.4 1.9-7.45 2.16-2.12.19-4.61.15-7.45-.11.91 1.1 1.84 2.09 2.79 2.96 2.12 1.78 4.51 3.18 7.17 4.21 2.24.8 4.51 1.33 6.82 1.59.45.04.95.06 1.48.06h1.59c-.04-1.4 1.61-7.07 4.95-17q2.1-5.97 3.18-8.25c-.61-.19-1.31-.45-2.1-.8-.64-.23-1.31-.51-1.99-.85q-2.61-1.305-3.81-2.1c-1.18-.8-2.56-2.1-4.15-3.92l.4-.34c1.02.53 2.33 1 3.92 1.42.87.27 2.18.61 3.92 1.02 3.41.91 5.44 1.38 6.08 1.42 3.49.53 6.73-.23 9.72-2.27 2.84-1.93 4.64-4.53 5.4-7.79.08-.49.17-.91.28-1.25l-.28-2.79c-1.97-.95-3.87-2.14-5.69-3.58-2.84-2.31-5.14-5.12-6.88-8.42-1.71-3.22-2.71-6.58-3.01-10.07-.08-.45.02-.8.28-1.02.27-.19.59-.21.97-.06q.225.285.51.45c.04-.04.13-.09.28-.17.34 0 1.02.06 2.05.17 4.32.34 8.3-.51 11.94-2.56.76-.45 2.2-1.44 4.32-2.96 1.78-1.25 3.3-2.14 4.55-2.67.27-.11.49-.13.68-.06.08.08.08.3 0 .68q-1.305 2.79-3.75 5.4a19.7 19.7 0 0 1-5.52 3.81q-6.09 2.85-12.45 1.59c1.59 2.27 3.37 4.47 5.35 6.6q4.89 5.175 9.78 6.99c1.93.87 3.96 1.35 6.08 1.42 2.2.04 4.25-.36 6.14-1.19q3.585-1.53 5.91-5.4c1.36-2.09 2.26-4.53 2.67-7.34q.45-3.015.45-7.68c-.15-4.06-.17-6.67-.06-7.85.08-1.06.34-3.36.8-6.88.3-1.97.63-3.41.97-4.32.76-2.05 2.07-3.73 3.92-5.06-.45 2.5-.82 4.87-1.08 7.11.64-.23 1.35-.4 2.1-.51 3.26-.68 6.08-.63 8.47.17 2.31.83 4.59 2.58 6.82 5.23.95 1.02 2.41 2.88 4.38 5.57 1.74 2.46 3.18 4.36 4.32 5.69 3.53 3.56 7.94 6.24 13.25 8.02q7.68 2.445 15.81 1.71c1.25-.11 2.5-.27 3.75-.45 14.75-2.92 22.29-10.99 22.63-24.23 0-1.48-.78-2.63-2.33-3.47-1.36-.34-2.98-.49-4.83-.45-2.54.08-5.27-.06-8.19-.4-1.25-.08-2.6-.21-4.04-.4 3.11-4.28 4.91-6.79 5.4-7.51.76-1.33 1.16-2.69 1.19-4.09-2.88 1.18-6.35 2.67-10.41 4.49-4.09 1.86-7.75 3.94-10.98 6.26 2.12-10.54 3.26-19.15 3.41-25.82.15-6.86-1.5-12.19-4.95-15.98-3.6-3.94-8.3-6.6-14.1-7.96-4.32-.99-10.27-1.29-17.86-.91-7.66.3-14.79 2.09-21.38 5.35-6.52 3.26-13.67 9.78-21.44 19.56-1.97 3.37-3.51 5.9-4.61 7.56-1.86 2.77-3.72 5.04-5.57 6.82-2.43 1.93-5.36 3.58-8.81 4.95-2.39.87-4.64 1.74-6.77 2.62q-3.18 1.08-5.97 3.75c-1.97 1.82-2.39 4.81-1.25 8.98Z" class="n"/><path d="M51.67 49.21a75 75 0 0 0-8.36 2.73q-4.095 1.53-7.68 5.97-3.69 4.155-2.16 9.21c.99 3.34 2.03 5.9 3.13 7.68-.68.04-1.33.08-1.93.11-3.18.38-6.54 1.67-10.07 3.87-4.02 2.43-7.2 5.38-9.55 8.87-2.62 3.68-3.92 7.47-3.92 11.37.04 4.02 1.61 8.44 4.72 13.25 2.99 4.74 6.99 9.36 12 13.88 3.11 2.73 6.94 5.72 11.49 8.98.91.68 1.86 1.36 2.84 2.05-1.36.61-2.77 1.1-4.21 1.48-1.25.38-2.54.64-3.87.8-2.92.42-5.74.32-8.47-.28-.19-.15-.4-.28-.63-.4-.68-.38-1.36-.57-2.05-.57-.95-.04-1.71.15-2.27.57q-.735.57-1.08 1.65c-.15.68-.15 1.33 0 1.93.23.91.87 2.01 1.93 3.3 1.36 1.86 2.67 3.45 3.92 4.78 4.21 4.32 9.53 7.15 15.98 8.47 3.41.68 6.9.87 10.46.57 0-.64.13-1.35.4-2.1l.85-2.79c.23-1.06.47-1.95.74-2.67q-2.385.405-4.44.51h-1.59c-.53 0-1.02-.02-1.48-.06-2.31-.27-4.59-.8-6.82-1.59a25.3 25.3 0 0 1-7.17-4.21 29.5 29.5 0 0 1-2.79-2.96c2.84.27 5.33.3 7.45.11 2.05-.27 4.53-.99 7.45-2.16 2.96-1.29 4.49-2.77 4.61-4.44-2.43-2.2-5.76-5.42-10.01-9.67-9.17-9.06-15.05-15.68-17.63-19.85q-2.16-3.525-2.79-6.54c-.27-2.01-.02-4.09.74-6.26.8-2.05 1.99-4 3.58-5.86 3.45-3.79 7.77-6.24 12.97-7.34 1.18-.27 4.02-.89 8.53-1.88q-.63-3.015-2.22-9.33c-1.14-4.17-.72-7.17 1.25-8.98q2.79-2.67 5.97-3.75c2.12-.87 4.38-1.74 6.77-2.62 3.45-1.36 6.39-3.01 8.81-4.95 1.86-1.78 3.72-4.06 5.57-6.82 1.1-1.67 2.63-4.19 4.61-7.56 7.77-9.78 14.92-16.3 21.44-19.56 6.6-3.26 13.72-5.04 21.38-5.35 7.58-.38 13.53-.08 17.86.91 5.8 1.36 10.5 4.02 14.1 7.96 3.45 3.79 5.1 9.12 4.95 15.98-.15 6.67-1.29 15.28-3.41 25.82 3.22-2.31 6.88-4.4 10.98-6.26 4.06-1.82 7.53-3.32 10.41-4.49-.04 1.4-.44 2.77-1.19 4.09-.49.72-2.29 3.22-5.4 7.51 1.44.19 2.79.32 4.04.4 2.92.34 5.65.47 8.19.4q2.79-.06 4.83.45c1.55.83 2.33 1.99 2.33 3.47-.34 13.23-7.89 21.31-22.63 24.23q-1.875.285-3.75.45-8.13.735-15.81-1.71c-5.31-1.78-9.72-4.45-13.25-8.02-1.14-1.33-2.58-3.22-4.32-5.69-1.97-2.69-3.43-4.55-4.38-5.57-2.24-2.65-4.51-4.4-6.82-5.23-2.39-.8-5.21-.85-8.47-.17q-1.14.165-2.1.51.405-3.36 1.08-7.11c-1.86 1.33-3.17 3.01-3.92 5.06-.34.91-.66 2.35-.97 4.32-.45 3.53-.72 5.82-.8 6.88-.11 1.18-.09 3.79.06 7.85q0 4.665-.45 7.68c-.42 2.81-1.31 5.25-2.67 7.34-1.55 2.58-3.53 4.38-5.91 5.4-1.9.83-3.94 1.23-6.14 1.19-2.12-.08-4.15-.55-6.08-1.42q-4.89-1.815-9.78-6.99a62 62 0 0 1-5.35-6.6q6.375 1.245 12.45-1.59 3.075-1.425 5.52-3.81 2.445-2.61 3.75-5.4c.08-.38.08-.61 0-.68-.19-.08-.42-.06-.68.06-1.25.53-2.77 1.42-4.55 2.67-2.12 1.52-3.56 2.5-4.32 2.96-3.64 2.05-7.62 2.9-11.94 2.56-1.02-.11-1.71-.17-2.05-.17-.15.08-.25.13-.28.17-.19-.11-.36-.27-.51-.45-.38-.15-.7-.13-.97.06-.27.23-.36.57-.28 1.02.3 3.49 1.31 6.84 3.01 10.07 1.74 3.3 4.04 6.1 6.88 8.42 1.82 1.44 3.72 2.63 5.69 3.58l.28 2.79c-.11.34-.21.76-.28 1.25-.76 3.26-2.56 5.86-5.4 7.79-2.99 2.05-6.24 2.81-9.72 2.27-.64-.04-2.67-.51-6.08-1.42-1.74-.42-3.05-.76-3.92-1.02-1.59-.42-2.9-.89-3.92-1.42l-.4.34c1.59 1.82 2.98 3.13 4.15 3.92q1.2.795 3.81 2.1c.68.34 1.35.63 1.99.85.8.34 1.5.61 2.1.8.19.11.36.19.51.23q.225.06.45.06c.08 0 .15.04.23.11 1.71.42 3.45.61 5.23.57 2.65-.15 5.27-.85 7.85-2.1 2.43-1.25 4.49-2.92 6.2-5 .15 0 .28-.08.4-.23.95-.61 1.65-1.57 2.1-2.9.08-.3.17-.57.28-.8.15-.49.27-.99.34-1.48.34-1.71.25-3.18-.28-4.44v-.51c.15 0 .28.02.4.06 4.89.8 9.36.09 13.42-2.1 3.94-2.24 6.79-5.53 8.53-9.89q2.22-5.685 1.59-12.57c-.57-3.75-.93-6.52-1.08-8.3s-.15-3.81 0-6.08c.08.3.17.57.28.8.87-.53 1.9-.89 3.07-1.08q2.955-.675 5.4.51 2.28 1.08 4.95 4.89c2.46 3.41 4.57 6.07 6.31 7.96 2.46 2.81 4.95 5.14 7.45 6.99q5.235 3.525 12 5.52 6.6 1.815 13.59 1.59c2.24-.11 4.51-.36 6.82-.74 18.88-2.77 29.72-12.55 32.53-29.34l-.8 1.14c0-.83-.04-1.65-.11-2.45-.15-2.69-1.16-5.04-3.01-7.05-1.78-1.71-4.11-2.92-6.99-3.64-2.62-.68-5.69-.82-9.21-.4.8-1.74 1.29-3.03 1.48-3.87.42-1.55.32-2.88-.28-3.98-.87-1.36-2.37-2.1-4.49-2.22-1.44.15-3.13.61-5.06 1.36-3.3 1.48-6.26 3.32-8.87 5.52.04-.42.13-.85.28-1.31 2.24-7.92 3.18-14.65 2.84-20.19-.61-7.73-3.24-13.97-7.9-18.71-7.17-7.13-18.86-10.37-35.09-9.72-9.02.45-16.59 1.9-22.69 4.32q-17.46 6.705-29.46 27.18c-2.16 3.56-3.45 5.65-3.87 6.26-1.71 2.35-3.41 4.09-5.12 5.23-1.67 1.06-3.72 2.01-6.14 2.84Z"/></g></g><g id="f"><path d="m140.05 71.2.6 2.9c-.77-.77-1.58-1.47-2.45-2.1-3.17-2.4-6.55-3.9-10.15-4.5-2.17-.37-5.18-.42-9.05-.15-4.8.33-8.43.87-10.9 1.6-1.77.5-4.02 1.37-6.75 2.6-4.27 2-7.78 3.73-10.55 5.2-1.47.77-2.7 1.52-3.7 2.25.2-.37.32-.72.35-1.05q.105-.555-.15-1.05c-.2-.37-.45-.6-.75-.7-.77-.23-1.55.2-2.35 1.3-9.93 13.33-16.62 30.22-20.05 50.65q-1.095 6.75-1.2 11.4v.75c-.23 2.33-.38 4.7-.45 7.1-.13 3.63.25 6.42 1.15 8.35.63 1.43 1.9 3.1 3.8 5 3.33 3.33 7.27 6.67 11.8 10 3.43 2.53 7.73 5.42 12.9 8.65 11.33 7.07 21.38 12.43 30.15 16.1q17.145 7.2 32.7 8.1 7.65.45 13.5-.9c3.13-.73 6.85-2.12 11.15-4.15 4.7-2.3 8.67-4.57 11.9-6.8 4.67-3.23 8.83-6.95 12.5-11.15.1 2.07.27 4.35.5 6.85.13 1.57.53 2.63 1.2 3.2 1.2 1 2.83.78 4.9-.65 2.33-1.6 4.87-4.2 7.6-7.8 4-5.3 7.88-11.58 11.65-18.85 2.5-4.77 5.68-11.45 9.55-20.05 1.33-2.93 2.22-5.3 2.65-7.1.67-2.7.7-5.12.1-7.25-.97-3.37-3.28-6.02-6.95-7.95-2.53-1.37-6-2.32-10.4-2.85q-12-1.395-32.1 1.5c-15.93 2.3-26.67 3.48-32.2 3.55-1.2 0-2.05-.17-2.55-.5-.6-.4-1.12-1.33-1.55-2.8l-7.6-28.95c-.13-.47-.25-.93-.35-1.4 0-2.7-.87-5.6-2.6-8.7-1-2.67-2.08-5-3.25-7-.83-1.43-1.7-2.32-2.6-2.65m-32.45 1.4c4.27-1.2 8.63-1.8 13.1-1.8q6.75-.105 11.4 1.95c4.37 1.9 7.83 5.22 10.4 9.95 2.9 13.3 6.07 26.22 9.5 38.75.7 2.47 1.57 4.08 2.6 4.85.67.47 1.5.77 2.5.9.67.07 1.58.07 2.75 0 3.67-.2 14.4-1.57 32.2-4.1 13.1-1.87 23.83-2.35 32.2-1.45 3.7.37 6.58 1.15 8.65 2.35 1.37.8 2.47 1.83 3.3 3.1q1.35 2.055 1.35 4.2-.045 1.905-1.5 5.1-7.395 16.95-11.85 25.35-7.305 13.695-15.45 23.1l-.9-6.3c-.2-1.27-.6-2.03-1.2-2.3a.93.93 0 0 0-.45-.1c-.03-.17-.1-.3-.2-.4q-.405-.555-1.2-.6c-.53-.07-1.02.02-1.45.25-.47.23-1.17.9-2.1 2-1.57 1.83-3.6 3.55-6.1 5.15-1.57 1.03-3.93 2.35-7.1 3.95-4.83 2.53-8.63 4.37-11.4 5.5-4.33 1.77-8.37 2.88-12.1 3.35q-7.395.9-18.9-1.35c-6.17-1.2-11.5-2.62-16-4.25-2.97-1.07-6.33-2.52-10.1-4.35-15.57-7.53-29.28-16.02-41.15-25.45-1.73-1.4-3.07-2.55-4-3.45-1.37-1.37-2.43-2.75-3.2-4.15-1.47-2.7-2.2-6.7-2.2-12 0-3.4.18-7.27.55-11.6q.3-3.345 1.2-11.55l.6-5.3c1.9-6.3 4.3-12.37 7.2-18.2q1.245-2.1 3.6-5.1c2.6-3.27 4.72-5.53 6.35-6.8 1.3-1 2.98-2.05 5.05-3.15 5.47-2.93 10.15-4.95 14.05-6.05m67.4 87.95c.07-.47-.03-.9-.3-1.3-.3-.43-.67-.63-1.1-.6-.6.03-1.2.22-1.8.55-.27.13-.83.6-1.7 1.4l-3.5 3.6c-.5.5-.73.92-.7 1.25 0 .37.18.65.55.85.33.2.72.3 1.15.3 1.13-.07 2.5-.77 4.1-2.1.43-.37 1.05-.95 1.85-1.75.87-.8 1.35-1.53 1.45-2.2m1.4-12.05c-.57-.27-1.12-.28-1.65-.05-.13.07-.45.3-.95.7-1.67 1.67-2.65 2.68-2.95 3.05-.57.63-.87 1.2-.9 1.7-.03.33.05.65.25.95.23.3.5.47.8.5q.405 0 .9-.3c1.93-1 3.28-1.83 4.05-2.5 1.07-.87 1.53-1.77 1.4-2.7-.1-.63-.42-1.08-.95-1.35m8.2 4.5c-.3.07-.72.27-1.25.6-1.23.87-2.48 1.93-3.75 3.2-.33.4-.53.73-.6 1-.07.3 0 .6.2.9.17.27.4.47.7.6.57.2 1.2.18 1.9-.05 1.07-.3 2.45-1.17 4.15-2.6q.855-.645 1.05-1.2c.195-.555.13-.77 0-1.2-.13-.4-.37-.72-.7-.95-.5-.37-1.07-.47-1.7-.3"/><path d="M120.7 70.8c-4.47 0-8.83.6-13.1 1.8-3.9 1.1-8.58 3.12-14.05 6.05-2.07 1.1-3.75 2.15-5.05 3.15-1.63 1.27-3.75 3.53-6.35 6.8q-2.355 3-3.6 5.1c-2.9 5.83-5.3 11.9-7.2 18.2l-.6 5.3q-.9 8.205-1.2 11.55c-.37 4.33-.55 8.2-.55 11.6 0 5.3.73 9.3 2.2 12 .77 1.4 1.83 2.78 3.2 4.15.93.9 2.27 2.05 4 3.45 11.87 9.43 25.58 17.92 41.15 25.45 3.77 1.83 7.13 3.28 10.1 4.35 4.5 1.63 9.83 3.05 16 4.25q11.505 2.25 18.9 1.35c3.73-.47 7.77-1.58 12.1-3.35 2.77-1.13 6.57-2.97 11.4-5.5 3.17-1.6 5.53-2.92 7.1-3.95 2.5-1.6 4.53-3.32 6.1-5.15.93-1.1 1.63-1.77 2.1-2 .43-.23.92-.32 1.45-.25q.795.045 1.2.6c.1.1.17.23.2.4.17 0 .32.03.45.1.6.27 1 1.03 1.2 2.3l.9 6.3q8.145-9.405 15.45-23.1 4.455-8.4 11.85-25.35 1.455-3.195 1.5-5.1 0-2.145-1.35-4.2c-.83-1.27-1.93-2.3-3.3-3.1-2.07-1.2-4.95-1.98-8.65-2.35-8.37-.9-19.1-.42-32.2 1.45-17.8 2.53-28.53 3.9-32.2 4.1-1.17.07-2.08.07-2.75 0-1-.13-1.83-.43-2.5-.9-1.03-.77-1.9-2.38-2.6-4.85-3.43-12.53-6.6-25.45-9.5-38.75-2.57-4.73-6.03-8.05-10.4-9.95q-4.65-2.055-11.4-1.95m62.65 82.8c.53-.33.95-.53 1.25-.6.63-.17 1.2-.07 1.7.3.33.23.57.55.7.95q.195.645 0 1.2c-.195.555-.48.77-1.05 1.2-1.7 1.43-3.08 2.3-4.15 2.6-.7.23-1.33.25-1.9.05-.3-.13-.53-.33-.7-.6-.2-.3-.27-.6-.2-.9.07-.27.27-.6.6-1 1.27-1.27 2.52-2.33 3.75-3.2m-8.6-5.15c.53-.23 1.08-.22 1.65.05.53.27.85.72.95 1.35.13.93-.33 1.83-1.4 2.7-.77.67-2.12 1.5-4.05 2.5q-.495.3-.9.3c-.3-.03-.57-.2-.8-.5-.2-.3-.28-.62-.25-.95.03-.5.33-1.07.9-1.7.3-.37 1.28-1.38 2.95-3.05.5-.4.82-.63.95-.7m-.05 10.8c.27.4.37.83.3 1.3-.1.67-.58 1.4-1.45 2.2-.8.8-1.42 1.38-1.85 1.75-1.6 1.33-2.97 2.03-4.1 2.1-.43 0-.82-.1-1.15-.3-.37-.2-.55-.48-.55-.85-.03-.33.2-.75.7-1.25l3.5-3.6c.87-.8 1.43-1.27 1.7-1.4.6-.33 1.2-.52 1.8-.55.43-.03.8.17 1.1.6" class="o"/></g><g id="g"><path d="M222.5 148.95c2.23-1.83 4.33-3.77 6.3-5.8 2.27-2.4 4.08-5.1 5.45-8.1 1-2.2.7-4.18-.9-5.95-1.43-1.53-3.17-2.6-5.2-3.2-3.13-.77-6.3-1.22-9.5-1.35-2.67-.03-5.3-.07-7.9-.1-2.97-.07-5.93.1-8.9.5-2.87.2-5.77.53-8.7 1-3.03.67-6.02 1.48-8.95 2.45-2.6 1-5.08 2.2-7.45 3.6-1.63 1-2.45 2.45-2.45 4.35.53 1.8 1.42 3.32 2.65 4.55 2.13 2.07 4.5 3.88 7.1 5.45s5.37 2.85 8.3 3.85c2.53.8 5.15 1.57 7.85 2.3 3.07.83 6.2 1.28 9.4 1.35a17.7 17.7 0 0 0 8.15-1.85c1.73-.8 3.32-1.82 4.75-3.05m8.7-14.35a40 40 0 0 0-8.45-1.1c-3.23-.27-6.48-.35-9.75-.25-2.97.07-5.97.1-9 .1-3.67.03-7.33.38-11 1.05-4.53.67-9 1.75-13.4 3.25l-2.15-2.4c2.2-1.8 4.68-3.07 7.45-3.8 2.73-.73 5.5-1.32 8.3-1.75s5.62-.73 8.45-.9c3.1-.33 6.22-.53 9.35-.6 2.73-.07 5.52 0 8.35.2 3.1.07 6.18.48 9.25 1.25 2.8.73 3.67 2.38 2.6 4.95"/><path d="M222.75 133.5c2.87.07 5.68.43 8.45 1.1 1.07-2.57.2-4.22-2.6-4.95-3.07-.77-6.15-1.18-9.25-1.25-2.83-.2-5.62-.27-8.35-.2-3.13.07-6.25.27-9.35.6-2.83.17-5.65.47-8.45.9s-5.57 1.02-8.3 1.75c-2.77.73-5.25 2-7.45 3.8l2.15 2.4c4.4-1.5 8.87-2.58 13.4-3.25 3.67-.67 7.33-1.02 11-1.05 3.03 0 6.03-.03 9-.1 3.27-.1 6.52-.02 9.75.25" style="fill:#d6dee8"/></g><g id="h"><g id="i"><path d="m144.15 118.35-1 1.65q-.6 1.05-.75 1.8c-.4.67-.57 1.43-.5 2.3 0 .2.03.38.1.55-.07.23-.1.48-.1.75q.045 1.05.75 1.8c.57.6 1.73 1.15 3.5 1.65.1.03.2.07.3.1.27.77 1.17 1.5 2.7 2.2.93.37 1.72.63 2.35.8 1.03.3 2.63.48 4.8.55 5 0 8.97-.7 11.9-2.1l1.45-.65c.33-.07.55-.17.65-.3.23-.23.22-.48-.05-.75-.17-.17-.48-.22-.95-.15-2.83.57-4.97.95-6.4 1.15s-3.62.3-6.55.3c-1.37 0-2.4-.05-3.1-.15-.3-.07-.78-.18-1.45-.35.73-.07 1.58-.18 2.55-.35 5.97-1.07 10.45-2.8 13.45-5.2 1.07-.9 1.87-1.73 2.4-2.5.9-1.23 1.47-2.58 1.7-4.05.2-1 .17-1.83-.1-2.5-.33-1.1-1.18-1.98-2.55-2.65-1.93-1.03-4.55-1.4-7.85-1.1-4.23.4-8.22 1.5-11.95 3.3-2.4 1.13-4.17 2.43-5.3 3.9m.95 4.15c.03-.13.07-.25.1-.35v-.05c.1-.2.18-.45.25-.75.3-.77.78-1.45 1.45-2.05l1.35-1.05q6.75-4.35 14.7-4.2 2.4 0 4.2.6c.87.33 1.45.73 1.75 1.2.57.83.48 1.93-.25 3.3-.93 1.6-2.67 3.02-5.2 4.25-2.9 1.43-5.82 2.38-8.75 2.85q-5.595 1.005-9.45-.75c-.03 0-.05-.02-.05-.05-.27-.53-.45-.98-.55-1.35.07-.13.13-.28.2-.45.03-.07.12-.45.25-1.15m1.45-.3c-.03.17.05.43.25.8q.15.345.9.6c.63.2 1.33.23 2.1.1 1.3-.23 2.47-.68 3.5-1.35.87-.6 1.37-1.13 1.5-1.6.24-.7.16-1.3-.25-1.8-.37-.5-.82-.83-1.35-1-.67-.23-1.57-.17-2.7.2-1.03.33-1.9.87-2.6 1.6-.73.73-1.18 1.55-1.35 2.45m-9.2-5.3c.27-.97.32-1.95.15-2.95-.33-1.73-1.22-2.98-2.65-3.75-.93-.53-2.23-.8-3.9-.8-3.13-.03-6.48.53-10.05 1.7-2.73.87-5.9 2.2-9.5 4-1.27.67-2.18 1.2-2.75 1.6-.97.67-2 1.58-3.1 2.75-1.03.97-1.8 1.82-2.3 2.55q-.9 1.2-1.5 2.85c-.27.93-.28 1.65-.05 2.15.1.17.22.32.35.45v.05c.17.87.58 1.58 1.25 2.15.43.4 1.15.83 2.15 1.3 2.07.8 3.95.98 5.65.55.53-.03 1.1-.08 1.7-.15 6.13-.67 11.52-2.52 16.15-5.55-3.83 3.57-8.58 6.5-14.25 8.8-.27.1-1.9.7-4.9 1.8l-5.65 2c-.03.2.18.3.65.3.13 0 .65.13 1.55.4.53.17 1.23.18 2.1.05 3.93-.5 8-1.82 12.2-3.95 6.07-3.1 10.85-6.93 14.35-11.5 1.87-2.37 2.72-4.48 2.55-6.35 0-.2-.07-.35-.2-.45m-31.45 5.35c.27-.37.42-.58.45-.65.07-.1.12-.18.15-.25v-.05c.93-1.07 1.67-1.83 2.2-2.3 1.17-1.07 2.98-2.1 5.45-3.1 2.07-.83 3.85-1.43 5.35-1.8 4.07-1.1 8.2-1.45 12.4-1.05.7.07 1.2.2 1.5.4.23.2.45.53.65 1 .17.4.23.75.2 1.05-.03.4-.2.8-.5 1.2-.3.47-.97 1.22-2 2.25-.8.87-1.6 1.6-2.4 2.2-1 .77-2.48 1.6-4.45 2.5-2.93 1.4-5.17 2.32-6.7 2.75-2.03.6-4.5.98-7.4 1.15q-2.1.195-3.45 0c-1.27-.2-2.28-.63-3.05-1.3 0-.4.15-.93.45-1.6zm9.55-2.95c-1.44.46-2.71 1.14-3.8 2.05-1.1.94-1.75 1.66-1.95 2.15-.16.53.02 1.03.55 1.5q1.2.555 2.55.15 1.365-.36 2.25-.6.945-.18 3-1.2c1.4-.67 2.22-1.39 2.45-2.15.07-.2.1-.38.1-.55s-.02-.33-.05-.5c-.24-.6-.79-1.02-1.65-1.25-.86-.19-2.01-.06-3.45.4"/><path d="M145.2 122.15c-.03.1-.07.22-.1.35-.13.7-.22 1.08-.25 1.15-.07.17-.13.32-.2.45.1.37.28.82.55 1.35 0 .03.02.05.05.05q3.855 1.755 9.45.75c2.93-.47 5.85-1.42 8.75-2.85 2.53-1.23 4.27-2.65 5.2-4.25.73-1.37.82-2.47.25-3.3-.3-.47-.88-.87-1.75-1.2q-1.8-.6-4.2-.6-7.95-.15-14.7 4.2l-1.35 1.05c-.67.6-1.15 1.28-1.45 2.05-.07.3-.15.55-.25.75zm1.6.85c-.2-.37-.28-.63-.25-.8.17-.9.62-1.72 1.35-2.45.7-.73 1.57-1.27 2.6-1.6 1.13-.37 2.03-.43 2.7-.2.53.17.98.5 1.35 1 .41.5.49 1.1.25 1.8-.13.47-.63 1-1.5 1.6-1.03.67-2.2 1.12-3.5 1.35-.77.13-1.47.1-2.1-.1q-.75-.255-.9-.6m-40.45-1.4c-.03.07-.18.28-.45.65l-1.15 2.4c-.3.67-.45 1.2-.45 1.6.77.67 1.78 1.1 3.05 1.3q1.35.195 3.45 0c2.9-.17 5.37-.55 7.4-1.15 1.53-.43 3.77-1.35 6.7-2.75 1.97-.9 3.45-1.73 4.45-2.5.8-.6 1.6-1.33 2.4-2.2 1.03-1.03 1.7-1.78 2-2.25.3-.4.47-.8.5-1.2.03-.3-.03-.65-.2-1.05-.2-.47-.42-.8-.65-1-.3-.2-.8-.33-1.5-.4-4.2-.4-8.33-.05-12.4 1.05-1.5.37-3.28.97-5.35 1.8-2.47 1-4.28 2.03-5.45 3.1-.53.47-1.27 1.23-2.2 2.3v.05c-.03.07-.08.15-.15.25m5.3-.25c1.09-.91 2.36-1.59 3.8-2.05s2.59-.59 3.45-.4c.86.23 1.41.65 1.65 1.25.03.17.05.33.05.5s-.03.35-.1.55c-.23.76-1.05 1.48-2.45 2.15q-2.055 1.02-3 1.2-.885.24-2.25.6-1.35.405-2.55-.15c-.53-.47-.71-.97-.55-1.5.2-.49.85-1.21 1.95-2.15" style="fill:#e8e6d6"/></g></g><g id="j"><path d="M86.25 84.8c.53-.73 1.05-1.43 1.55-2.1q2.55-3.6 4.2-6.6c.83-1.53 1.02-2.73.55-3.6-14.53 11.9-27.03 29.58-37.5 53.05-4.9 11.03-8.45 21.15-10.65 30.35-2.03 8.77-3.43 19.2-4.2 31.3-.27 4.9-.3 8.88-.1 11.95.27 4.37 1.05 8.22 2.35 11.55.97 2.47 2.22 3.98 3.75 4.55 2.03.77 4.6-.2 7.7-2.9l8.95-7.8c3.13-2.77 5.43-4.95 6.9-6.55 2.37-2.63 4.03-5.27 5-7.9.8-2.13 1.3-4.67 1.5-7.6.07-.87.12-3.5.15-7.9.1-15.87 2.95-31.18 8.55-45.95.77-2 1.25-3.55 1.45-4.65.03-.3.07-.58.1-.85.13-1.4-.05-2.65-.55-3.75-.43.67-.85 1.35-1.25 2.05-4.03 6.8-7.23 14.02-9.6 21.65-2.6 8.43-4.07 17-4.4 25.7-.27 7.03-.47 11.07-.6 12.1-.53 4.53-1.73 8.25-3.6 11.15-1.3 2-3.53 4.35-6.7 7.05-3.8 3.3-7.67 6.57-11.6 9.8q-1.95-3.405-2.55-8.1c-.33-2.3-.45-5.2-.35-8.7.43-17.77 3.63-35.18 9.6-52.25 5.93-17.07 14.27-32.68 25-46.85 1.6-2.03 2.97-3.78 4.1-5.25.9-1.17 1.65-2.15 2.25-2.95"/><path d="M87.85 82.9c0-.07-.02-.13-.05-.2-.5.67-1.02 1.37-1.55 2.1-.6.8-1.35 1.78-2.25 2.95-1.13 1.47-2.5 3.22-4.1 5.25-10.73 14.17-19.07 29.78-25 46.85-5.97 17.07-9.17 34.48-9.6 52.25-.1 3.5.02 6.4.35 8.7q.6 4.695 2.55 8.1c3.93-3.23 7.8-6.5 11.6-9.8 3.17-2.7 5.4-5.05 6.7-7.05 1.87-2.9 3.07-6.62 3.6-11.15.13-1.03.33-5.07.6-12.1.33-8.7 1.8-17.27 4.4-25.7 2.37-7.63 5.57-14.85 9.6-21.65.4-.7.82-1.38 1.25-2.05.5 1.1.68 2.35.55 3.75.03-.03.07-.05.1-.05.03-.07.07-.13.1-.2.07-.07.12-.13.15-.2s.07-.13.1-.2v-.2c0-.07.02-.13.05-.2s.05-.13.05-.2v-.2c.03-.07.07-.13.1-.2v-.4c0-.07.02-.13.05-.2v-3.25c0-.07-.02-.13-.05-.2.03-.07.05-.13.05-.2v-.6c0-.07.02-.13.05-.2v-4.8c.03-.07.05-.13.05-.2v-1c0-.07.02-.13.05-.2v-.4c0-.07.02-.13.05-.2v-5.25c0-.07-.02-.13-.05-.2.03-.07.05-.13.05-.2.03-.07.05-.13.05-.2v-4c.03-.07.05-.13.05-.2V99c.03-.07.07-.13.1-.2v-.45c0-.07.02-.13.05-.2v-2.8c.03-.07.07-.13.1-.2v-1c.03-.07.05-.13.05-.2v-1.6c0-.07-.02-.13-.05-.2V88.5c0-.07.02-.13.05-.2v-1.6c0-.07.02-.13.05-.2v-2.6c.03-.07.07-.13.1-.2v-.6c-.03-.07-.07-.13-.1-.2" class="o"/></g><g id="k"><path d="M118.1 10.8c7.57-.37 13.52-.05 17.85.95q8.7 2.055 14.1 7.95c3.47 3.8 5.12 9.12 4.95 15.95-.17 6.7-1.3 15.32-3.4 25.85 3.2-2.33 6.85-4.42 10.95-6.25 4.07-1.83 7.53-3.33 10.4-4.5-.03 1.4-.42 2.77-1.15 4.1-.5.7-2.32 3.2-5.45 7.5 1.47.2 2.82.33 4.05.4 2.93.33 5.67.47 8.2.4 1.87-.03 3.48.12 4.85.45 1.53.83 2.3 1.98 2.3 3.45-.33 13.23-7.87 21.32-22.6 24.25q-1.905.255-3.75.45c-5.43.5-10.72-.07-15.85-1.7-5.3-1.8-9.72-4.48-13.25-8.05-1.13-1.3-2.57-3.18-4.3-5.65-1.97-2.7-3.43-4.57-4.4-5.6-2.23-2.63-4.5-4.37-6.8-5.2-2.4-.8-5.23-.87-8.5-.2-.73.13-1.43.3-2.1.5.27-2.23.63-4.6 1.1-7.1-1.87 1.33-3.17 3.02-3.9 5.05-.37.93-.7 2.38-1 4.35-.43 3.53-.7 5.82-.8 6.85-.1 1.2-.08 3.82.05 7.85 0 3.13-.15 5.7-.45 7.7-.4 2.8-1.28 5.25-2.65 7.35-1.57 2.57-3.53 4.37-5.9 5.4q-2.85 1.245-6.15 1.2c-2.13-.1-4.17-.58-6.1-1.45-3.27-1.2-6.53-3.53-9.8-7-1.97-2.1-3.75-4.3-5.35-6.6 4.27.83 8.43.32 12.5-1.55 2.03-.97 3.87-2.25 5.5-3.85q2.445-2.595 3.75-5.4c.07-.37.07-.58 0-.65-.2-.1-.43-.08-.7.05-1.23.53-2.75 1.42-4.55 2.65-2.1 1.53-3.53 2.52-4.3 2.95-3.63 2.07-7.62 2.93-11.95 2.6-1.03-.13-1.72-.2-2.05-.2-.13.07-.23.13-.3.2-.17-.13-.33-.3-.5-.5-.37-.13-.68-.1-.95.1s-.37.53-.3 1q.45 5.25 3 10.05c1.77 3.3 4.07 6.12 6.9 8.45 1.83 1.43 3.73 2.62 5.7 3.55l.25 2.8c-.1.33-.18.75-.25 1.25q-1.155 4.905-5.4 7.8-4.5 3.045-9.75 2.25c-.63-.03-2.65-.5-6.05-1.4-1.77-.43-3.08-.78-3.95-1.05-1.6-.4-2.9-.87-3.9-1.4l-.4.35c1.57 1.8 2.95 3.1 4.15 3.9.8.53 2.07 1.23 3.8 2.1.67.37 1.33.65 2 .85.8.37 1.5.63 2.1.8.17.13.33.22.5.25s.32.05.45.05c.07 0 .15.03.25.1 1.7.43 3.43.63 5.2.6 2.67-.17 5.28-.87 7.85-2.1 2.43-1.27 4.5-2.93 6.2-5 .17 0 .3-.08.4-.25.97-.6 1.67-1.57 2.1-2.9.1-.3.2-.57.3-.8.13-.5.25-.98.35-1.45.33-1.73.23-3.22-.3-4.45v-.5c.17 0 .3.02.4.05 4.9.8 9.37.1 13.4-2.1q5.955-3.345 8.55-9.9c1.47-3.8 2-8 1.6-12.6-.57-3.73-.93-6.5-1.1-8.3-.13-1.77-.13-3.78 0-6.05.1.3.2.57.3.8.87-.53 1.88-.9 3.05-1.1 2-.47 3.8-.3 5.4.5 1.53.73 3.18 2.37 4.95 4.9 2.47 3.4 4.58 6.05 6.35 7.95 2.47 2.8 4.95 5.13 7.45 7 3.47 2.37 7.47 4.2 12 5.5 4.4 1.23 8.92 1.77 13.55 1.6 2.27-.1 4.55-.33 6.85-.7 18.87-2.8 29.7-12.58 32.5-29.35l-.75 1.1c0-.83-.05-1.65-.15-2.45q-.195-4.005-3-7.05c-1.77-1.7-4.1-2.9-7-3.6-2.6-.7-5.67-.83-9.2-.4.8-1.77 1.28-3.07 1.45-3.9.43-1.53.35-2.85-.25-3.95q-1.305-2.055-4.5-2.25c-1.43.17-3.12.63-5.05 1.4-3.3 1.47-6.27 3.3-8.9 5.5.03-.4.13-.83.3-1.3 2.23-7.93 3.18-14.67 2.85-20.2-.6-7.73-3.23-13.97-7.9-18.7q-10.755-10.695-35.1-9.75c-9.03.47-16.6 1.92-22.7 4.35C84.62 12.17 74.8 21.23 66.8 34.9c-2.17 3.53-3.45 5.62-3.85 6.25-1.73 2.33-3.45 4.07-5.15 5.2q-2.505 1.605-6.15 2.85c-2.87.77-5.65 1.68-8.35 2.75-2.73 1-5.28 2.98-7.65 5.95-2.47 2.77-3.18 5.83-2.15 9.2.97 3.33 2 5.9 3.1 7.7-.67.03-1.32.07-1.95.1q-4.755.6-10.05 3.9c-4 2.4-7.18 5.35-9.55 8.85-2.6 3.67-3.9 7.45-3.9 11.35.03 4.03 1.6 8.45 4.7 13.25 3 4.77 7 9.4 12 13.9.7.62 1.43 1.25 2.2 1.9l9.7.05c-.21-.22-.43-.43-.65-.65-9.17-9.07-15.03-15.68-17.6-19.85-1.47-2.33-2.4-4.52-2.8-6.55-.27-2-.02-4.08.75-6.25.77-2.03 1.95-3.98 3.55-5.85 3.47-3.8 7.8-6.25 13-7.35 1.17-.27 4-.88 8.5-1.85-.4-2-1.13-5.12-2.2-9.35-1.13-4.17-.72-7.15 1.25-8.95 1.87-1.8 3.85-3.05 5.95-3.75 2.13-.9 4.4-1.78 6.8-2.65 3.43-1.37 6.37-3.02 8.8-4.95 1.87-1.77 3.72-4.03 5.55-6.8 1.1-1.67 2.63-4.18 4.6-7.55 7.8-9.8 14.95-16.33 21.45-19.6 6.6-3.23 13.73-5.02 21.4-5.35"/><path d="M135.95 11.75c-4.33-1-10.28-1.32-17.85-.95-7.67.33-14.8 2.12-21.4 5.35-6.5 3.27-13.65 9.8-21.45 19.6-1.97 3.37-3.5 5.88-4.6 7.55-1.83 2.77-3.68 5.03-5.55 6.8-2.43 1.93-5.37 3.58-8.8 4.95-2.4.87-4.67 1.75-6.8 2.65-2.1.7-4.08 1.95-5.95 3.75-1.97 1.8-2.38 4.78-1.25 8.95 1.07 4.23 1.8 7.35 2.2 9.35-4.5.97-7.33 1.58-8.5 1.85-5.2 1.1-9.53 3.55-13 7.35-1.6 1.87-2.78 3.82-3.55 5.85-.77 2.17-1.02 4.25-.75 6.25.4 2.03 1.33 4.22 2.8 6.55 2.57 4.17 8.43 10.78 17.6 19.85.22.22.44.43.65.65l17.4.05c.16-.37.31-.71.45-1-.6-.17-1.3-.43-2.1-.8-.67-.2-1.33-.48-2-.85-1.73-.87-3-1.57-3.8-2.1-1.2-.8-2.58-2.1-4.15-3.9l.4-.35c1 .53 2.3 1 3.9 1.4.87.27 2.18.62 3.95 1.05 3.4.9 5.42 1.37 6.05 1.4q5.25.795 9.75-2.25 4.245-2.895 5.4-7.8c.07-.5.15-.92.25-1.25l-.25-2.8c-1.97-.93-3.87-2.12-5.7-3.55-2.83-2.33-5.13-5.15-6.9-8.45q-2.55-4.8-3-10.05c-.07-.47.03-.8.3-1s.58-.23.95-.1c.17.2.33.37.5.5.07-.07.17-.13.3-.2.33 0 1.02.07 2.05.2 4.33.33 8.32-.53 11.95-2.6.77-.43 2.2-1.42 4.3-2.95 1.8-1.23 3.32-2.12 4.55-2.65.27-.13.5-.15.7-.05.07.07.07.28 0 .65q-1.305 2.805-3.75 5.4c-1.63 1.6-3.47 2.88-5.5 3.85-4.07 1.87-8.23 2.38-12.5 1.55 1.6 2.3 3.38 4.5 5.35 6.6 3.27 3.47 6.53 5.8 9.8 7 1.93.87 3.97 1.35 6.1 1.45q3.3.045 6.15-1.2c2.37-1.03 4.33-2.83 5.9-5.4 1.37-2.1 2.25-4.55 2.65-7.35.3-2 .45-4.57.45-7.7-.13-4.03-.15-6.65-.05-7.85.1-1.03.37-3.32.8-6.85.3-1.97.63-3.42 1-4.35.73-2.03 2.03-3.72 3.9-5.05-.47 2.5-.83 4.87-1.1 7.1.67-.2 1.37-.37 2.1-.5 3.27-.67 6.1-.6 8.5.2 2.3.83 4.57 2.57 6.8 5.2.97 1.03 2.43 2.9 4.4 5.6 1.73 2.47 3.17 4.35 4.3 5.65 3.53 3.57 7.95 6.25 13.25 8.05 5.13 1.63 10.42 2.2 15.85 1.7q1.845-.195 3.75-.45c14.73-2.93 22.27-11.02 22.6-24.25 0-1.47-.77-2.62-2.3-3.45-1.37-.33-2.98-.48-4.85-.45-2.53.07-5.27-.07-8.2-.4-1.23-.07-2.58-.2-4.05-.4 3.13-4.3 4.95-6.8 5.45-7.5.73-1.33 1.12-2.7 1.15-4.1-2.87 1.17-6.33 2.67-10.4 4.5-4.1 1.83-7.75 3.92-10.95 6.25 2.1-10.53 3.23-19.15 3.4-25.85.17-6.83-1.48-12.15-4.95-15.95q-5.4-5.895-14.1-7.95" class="n"/></g></svg>