<svg xmlns="http://www.w3.org/2000/svg" id="a" viewBox="4.57 14.71 246.21 206.16"><defs><style>.q{fill:#a76c8f}</style></defs><path id="b" d="M217.28 65.75c-17.9-15.59-40.92-23.48-69.05-23.67-28.06-.1-53.12 7.44-75.17 22.61-21.83 15.2-34.19 33.72-37.08 55.55-2.76 21.73 4.77 40.34 22.61 55.84 17.97 15.46 40.98 23.32 69.05 23.58 28.13.13 53.15-7.39 75.07-22.57 21.92-15.3 34.33-33.8 37.22-55.5 2.8-21.79-4.76-40.41-22.66-55.84Z" style="fill:#161b29"/><path id="c" d="M77.26 66.66c-20.73 14.14-32.45 31.28-35.15 51.4-2.67 20.19 4.48 37.45 21.46 51.79 16.97 14.37 38.75 21.62 65.33 21.75 26.62.23 50.29-6.73 71.02-20.88 20.8-14.14 32.55-31.28 35.25-51.4 2.67-20.19-4.48-37.45-21.46-51.79-16.97-14.34-38.77-21.59-65.38-21.75q-39.87-.285-71.07 20.88" style="fill:#5d6788"/><g id="d"><path d="M160.55 123.2c-1.2 0-2.05-.17-2.55-.5-.6-.4-1.12-1.33-1.55-2.8l-7.6-28.95c-.13-.47-.25-.93-.35-1.4 0-2.7-.87-5.6-2.6-8.7-1-2.67-2.08-5-3.25-7-.83-1.43-1.7-2.32-2.6-2.65l.6 2.9c-.77-.77-1.58-1.47-2.45-2.1-3.17-2.4-6.55-3.9-10.15-4.5-2.17-.37-5.18-.42-9.05-.15-4.8.33-8.43.87-10.9 1.6-1.77.5-4.02 1.37-6.75 2.6-4.27 2-7.78 3.73-10.55 5.2-1.47.77-2.7 1.52-3.7 2.25.2-.37.32-.72.35-1.05q.105-.555-.15-1.05c-.2-.37-.45-.6-.75-.7-.77-.23-1.55.2-2.35 1.3-9.93 13.33-16.62 30.22-20.05 50.65q-1.095 6.75-1.2 11.4v.75c-.23 2.33-.38 4.7-.45 7.1-.13 3.63.25 6.42 1.15 8.35.63 1.43 1.9 3.1 3.8 5 3.33 3.33 7.27 6.67 11.8 10 3.43 2.53 7.73 5.42 12.9 8.65 11.33 7.07 21.38 12.43 30.15 16.1q17.145 7.2 32.7 8.1 7.65.45 13.5-.9c3.13-.73 6.85-2.12 11.15-4.15 4.7-2.3 8.67-4.57 11.9-6.8 4.67-3.23 8.83-6.95 12.5-11.15.1 2.07.27 4.35.5 6.85.13 1.57.53 2.63 1.2 3.2 1.2 1 2.83.78 4.9-.65 2.33-1.6 4.87-4.2 7.6-7.8 4-5.3 7.88-11.58 11.65-18.85 2.5-4.77 5.68-11.45 9.55-20.05 1.33-2.93 2.22-5.3 2.65-7.1.67-2.7.7-5.12.1-7.25-.97-3.37-3.28-6.02-6.95-7.95-2.53-1.37-6-2.32-10.4-2.85q-12-1.395-32.1 1.5c-15.93 2.3-26.67 3.48-32.2 3.55M142.5 82.7c2.9 13.3 6.07 26.22 9.5 38.75.7 2.47 1.57 4.08 2.6 4.85.67.47 1.5.77 2.5.9.67.07 1.58.07 2.75 0 3.67-.2 14.4-1.57 32.2-4.1 13.1-1.87 23.83-2.35 32.2-1.45 3.7.37 6.58 1.15 8.65 2.35 1.37.8 2.47 1.83 3.3 3.1q1.35 2.055 1.35 4.2-.045 1.905-1.5 5.1-7.395 16.95-11.85 25.35-7.305 13.695-15.45 23.1l-.9-6.3c-.2-1.27-.6-2.03-1.2-2.3a.93.93 0 0 0-.45-.1c-.03-.17-.1-.3-.2-.4q-.405-.555-1.2-.6c-.53-.07-1.02.02-1.45.25-.47.23-1.17.9-2.1 2-1.57 1.83-3.6 3.55-6.1 5.15-1.57 1.03-3.93 2.35-7.1 3.95-4.83 2.53-8.63 4.37-11.4 5.5-4.33 1.77-8.37 2.88-12.1 3.35q-7.395.9-18.9-1.35c-6.17-1.2-11.5-2.62-16-4.25-2.97-1.07-6.33-2.52-10.1-4.35-15.57-7.53-29.28-16.02-41.15-25.45-1.73-1.4-3.07-2.55-4-3.45-1.37-1.37-2.43-2.75-3.2-4.15-1.47-2.7-2.2-6.7-2.2-12 0-3.4.18-7.27.55-11.6q.3-3.345 1.2-11.55l.6-5.3c1.9-6.3 4.3-12.37 7.2-18.2q1.245-2.1 3.6-5.1c2.6-3.27 4.72-5.53 6.35-6.8 1.3-1 2.98-2.05 5.05-3.15 5.47-2.93 10.15-4.95 14.05-6.05 4.27-1.2 8.63-1.8 13.1-1.8q6.75-.105 11.4 1.95c4.37 1.9 7.83 5.22 10.4 9.95m32.5 77.85c.07-.47-.03-.9-.3-1.3-.3-.43-.67-.63-1.1-.6-.6.03-1.2.22-1.8.55-.27.13-.83.6-1.7 1.4l-3.5 3.6c-.5.5-.73.92-.7 1.25 0 .37.18.65.55.85.33.2.72.3 1.15.3 1.13-.07 2.5-.77 4.1-2.1.43-.37 1.05-.95 1.85-1.75.87-.8 1.35-1.53 1.45-2.2m1.4-12.05c-.57-.27-1.12-.28-1.65-.05-.13.07-.45.3-.95.7-1.67 1.67-2.65 2.68-2.95 3.05-.57.63-.87 1.2-.9 1.7-.03.33.05.65.25.95.23.3.5.47.8.5q.405 0 .9-.3c1.93-1 3.28-1.83 4.05-2.5 1.07-.87 1.53-1.77 1.4-2.7-.1-.63-.42-1.08-.95-1.35m8.2 4.5c-.3.07-.72.27-1.25.6-1.23.87-2.48 1.93-3.75 3.2-.33.4-.53.73-.6 1-.07.3 0 .6.2.9.17.27.4.47.7.6.57.2 1.2.18 1.9-.05 1.07-.3 2.45-1.17 4.15-2.6q.855-.645 1.05-1.2c.195-.555.13-.77 0-1.2-.13-.4-.37-.72-.7-.95-.5-.37-1.07-.47-1.7-.3"/><path d="M152 121.45c-3.43-12.53-6.6-25.45-9.5-38.75-2.57-4.73-6.03-8.05-10.4-9.95q-4.65-2.055-11.4-1.95c-4.47 0-8.83.6-13.1 1.8-3.9 1.1-8.58 3.12-14.05 6.05-2.07 1.1-3.75 2.15-5.05 3.15-1.63 1.27-3.75 3.53-6.35 6.8q-2.355 3-3.6 5.1c-2.9 5.83-5.3 11.9-7.2 18.2l-.6 5.3q-.9 8.205-1.2 11.55c-.37 4.33-.55 8.2-.55 11.6 0 5.3.73 9.3 2.2 12 .77 1.4 1.83 2.78 3.2 4.15.93.9 2.27 2.05 4 3.45 11.87 9.43 25.58 17.92 41.15 25.45 3.77 1.83 7.13 3.28 10.1 4.35 4.5 1.63 9.83 3.05 16 4.25q11.505 2.25 18.9 1.35c3.73-.47 7.77-1.58 12.1-3.35 2.77-1.13 6.57-2.97 11.4-5.5 3.17-1.6 5.53-2.92 7.1-3.95 2.5-1.6 4.53-3.32 6.1-5.15.93-1.1 1.63-1.77 2.1-2 .43-.23.92-.32 1.45-.25q.795.045 1.2.6c.1.1.17.23.2.4.17 0 .32.03.45.1.6.27 1 1.03 1.2 2.3l.9 6.3q8.145-9.405 15.45-23.1 4.455-8.4 11.85-25.35 1.455-3.195 1.5-5.1 0-2.145-1.35-4.2c-.83-1.27-1.93-2.3-3.3-3.1-2.07-1.2-4.95-1.98-8.65-2.35-8.37-.9-19.1-.42-32.2 1.45-17.8 2.53-28.53 3.9-32.2 4.1-1.17.07-2.08.07-2.75 0-1-.13-1.83-.43-2.5-.9-1.03-.77-1.9-2.38-2.6-4.85m31.35 32.15c.53-.33.95-.53 1.25-.6.63-.17 1.2-.07 1.7.3.33.23.57.55.7.95q.195.645 0 1.2c-.195.555-.48.77-1.05 1.2-1.7 1.43-3.08 2.3-4.15 2.6-.7.23-1.33.25-1.9.05-.3-.13-.53-.33-.7-.6-.2-.3-.27-.6-.2-.9.07-.27.27-.6.6-1 1.27-1.27 2.52-2.33 3.75-3.2m-8.6-5.15c.53-.23 1.08-.22 1.65.05.53.27.85.72.95 1.35.13.93-.33 1.83-1.4 2.7-.77.67-2.12 1.5-4.05 2.5q-.495.3-.9.3c-.3-.03-.57-.2-.8-.5-.2-.3-.28-.62-.25-.95.03-.5.33-1.07.9-1.7.3-.37 1.28-1.38 2.95-3.05.5-.4.82-.63.95-.7m-.05 10.8c.27.4.37.83.3 1.3-.1.67-.58 1.4-1.45 2.2-.8.8-1.42 1.38-1.85 1.75-1.6 1.33-2.97 2.03-4.1 2.1-.43 0-.82-.1-1.15-.3-.37-.2-.55-.48-.55-.85-.03-.33.2-.75.7-1.25l3.5-3.6c.87-.8 1.43-1.27 1.7-1.4.6-.33 1.2-.52 1.8-.55.43-.03.8.17 1.1.6" class="q"/></g><g id="e"><path d="M234.55 131.05c.29.8.35 1.61.2 2.45.12.21.24.42.35.65.23.47.55 1.17.95 2.1l.2.3s-.07.08-.1.15c-2.8 6.42-5.28 11.92-7.45 16.5q-2.925-.09-3.6-.15-3.645-.255-6.3-.9c-.39-.03-.79-.07-1.2-.1a17.5 17.5 0 0 1-8 1.8c-3.2-.07-6.33-.52-9.4-1.35-.42-.11-.83-.23-1.25-.35-4.06.31-8.24.8-12.55 1.45-.5-.37-1.07-.47-1.7-.3-.3.07-.72.27-1.25.6-.13.09-.26.18-.4.25-2.3.43-4.63.89-7 1.4-.47.07-.92.15-1.35.25q-2.295.495-4.35 1.2c-.13.03-.25.07-.35.1-.67.23-1.3.48-1.9.75-2.37 1-4.45 2.23-6.25 3.7-2.47 2-4.9 4.95-7.3 8.85-2.05 3.32-3.74 6.67-5.05 10.05q-3.075 1.86-5.1 3.45c-.6.47-.98.92-1.15 1.35-.67 0-1.22.27-1.65.8l.2.25c.27-.27.68-.43 1.25-.5.77-.1 1.23-.18 1.4-.25.13-.03.62-.35 1.45-.95.83-.4 1.45-.7 1.85-.9l.75-.45c-.85 2.7-1.46 5.42-1.85 8.15-.14 1.01-.26 2.01-.35 3-.18-.03-.36-.06-.55-.1-6.17-1.2-11.5-2.62-16-4.25-.93-.33-1.9-.7-2.9-1.1 1.83-2.83 3.55-5.43 5.15-7.8.93.17 1.97.35 3.1.55.67.13 1.2.13 1.6 0 .27-.07.48-.22.65-.45s.23-.47.2-.7c-.1-.6-.63-.97-1.6-1.1l-2.45-.5c.87-1.27 1.7-2.45 2.5-3.55 4.53-6.23 9.03-11.65 13.5-16.25 4.57-4.63 11.53-10.63 20.9-18 1.62-1.24 3.1-2.34 4.45-3.3-.21-.48-.4-.98-.55-1.5 0-.27.02-.54.05-.8-1.73 1.22-3.66 2.64-5.8 4.25-5.23 3.9-9.22 6.97-11.95 9.2-4.3 3.5-8 6.87-11.1 10.1-1.97 2.03-3.97 4.32-6 6.85-.47-.23-.98-.43-1.55-.6-2.37-.73-3.67-1.15-3.9-1.25-1.1-.47-1.67-.7-1.7-.7-.77-.13-1.37-.05-1.8.25-.23.2-.38.47-.45.8-.1.33-.05.62.15.85.13.17.43.35.9.55l6.05 2.15c.2.03.38.08.55.15q-1.2 1.5-2.4 3.15c-1.33 1.8-3 4.13-5 7l-.3-.05c-1.67-.33-2.68-.52-3.05-.55-1.6-.17-3.13-.15-4.6.05.83.97 2.37 1.75 4.6 2.35.53.13 1.15.28 1.85.45-.83 1.2-1.72 2.48-2.65 3.85-.83 1.2-1.55 2.32-2.15 3.35-1.4-.63-2.87-1.32-4.4-2.05q-5.85-2.85-11.4-5.85c2.6-3.47 4.48-6.13 5.65-8 2.03-3.3 4.77-7.37 8.2-12.2-4.23-.43-6.7-.72-7.4-.85-8.33-1.37-16.47-4.62-24.4-9.75-7.13-4.57-13.83-10.43-20.1-17.6-.23-.27-.47-.48-.7-.65.03-.2.07-.4.1-.6l-.2-.2c-1.83-2.17-3.32-3.92-4.45-5.25-.27 1.2-.5 2.43-.7 3.7q-1.095 6.75-1.2 11.4v.75c-.23 2.33-.38 4.7-.45 7.1-.13 3.63.25 6.42 1.15 8.35.63 1.43 1.9 3.1 3.8 5 3.33 3.33 7.27 6.67 11.8 10 3.43 2.53 7.73 5.42 12.9 8.65 11.33 7.07 21.38 12.43 30.15 16.1 8.34 3.51 16.39 5.89 24.15 7.15.51 3.65 1.54 7.13 3.1 10.45.97 2.03 2.1 3.68 3.4 4.95 1.57 1.53 3.25 2.37 5.05 2.5.67.07 1.28-.03 1.85-.3.47-.2.78-.47.95-.8 2.8.83 6.17.75 10.1-.25q6.555-1.65 11.55-5.4c2.03-1.53 3.43-3.15 4.2-4.85.7-1.53.98-3.8.85-6.8a62 62 0 0 0-.35-4.35c.13 0 .25-.02.35-.05q.045.645.15 1.35c5.37-.93 12.25-2.9 20.65-5.9q2.055-.705 3.75-1.35c-.07.07-.12.15-.15.25-.13.33-.25.67-.35 1v.25s-.07.08-.1.15c-.23.53-.45 1.1-.65 1.7-1.27 3.47-2 6.1-2.2 7.9-.17 1.73 0 3.17.5 4.3.5 1.07 1.42 2.12 2.75 3.15 2.43 1.93 5.2 3.33 8.3 4.2 3.07.83 6.17 1.07 9.3.7 2.67-.33 4.88-1.03 6.65-2.1.33-.2.65-.4.95-.6.03.6.17 1.13.4 1.6 1.6-.2 3.02-1.03 4.25-2.5.87-1.03 1.7-2.5 2.5-4.4 3.13-7.43 5.2-16.95 6.2-28.55.43-5.3.37-9.55-.2-12.75-.53-3-1.52-5.3-2.95-6.9-1.1-1.23-2.7-2.3-4.8-3.2a28.4 28.4 0 0 0-7.85-2.25 496 496 0 0 0 4.85-10.5c.63-1.37 1.15-2.6 1.55-3.7-.27-.43-.55-.87-.85-1.3l-2.65-4.1c-.13-.2-.25-.4-.35-.6-.03.17-.08.33-.15.5-.57-.83-1.28-1.8-2.15-2.9-.13-.18-.26-.33-.4-.45m-11 25.6c.41.1 1.48.28 3.2.55 1.23.19 2.78.42 4.65.7.46.09.91.17 1.35.25.09.02.17.04.25.05 1.9.47 3.78 1.02 5.65 1.65.47.17.88.3 1.25.4q2.445 1.245 3.45 3c.57 1 .88 2.45.95 4.35.13 3.07 0 6.53-.4 10.4q-.3 3.15-1.35 10.35c-.53 3.7-1.02 6.42-1.45 8.15-.27 1.17-.93 3.52-2 7.05a47 47 0 0 0-.9 3.3q-1.845.105-4.5.45c-2.67.33-4.53.53-5.6.6q-6.795.45-10.8-2.25c-.47-.33-.77-.62-.9-.85-.47-.7-.47-1.83 0-3.4 1.4-4.73 2.55-9.3 3.45-13.7.17-.13.33-.25.5-.35.5-2.67.82-5.15.95-7.45-.13.03-.25.08-.35.15-.03-.17-.05-.32-.05-.45-.07-.73-.28-1.38-.65-1.95q-.555-.855-1.35-1.05c.67.07 1.48.17 2.45.3 1.27.17 2.35.22 3.25.15.83-.07 1.37-.3 1.6-.7.13-.27.17-.57.1-.9-.1-.33-.27-.6-.5-.8-.4-.3-1-.52-1.8-.65-1.9-.3-4.75-.28-8.55.05-4 .43-6.4.7-7.2.8-1.77.27-3.43.57-5 .9l-12.15 2.3c-1.7.33-2.97.65-3.8.95-1.37.47-2.43 1.12-3.2 1.95-1.23 1.23-2.08 3.35-2.55 6.35-.37 2.33-.55 4.92-.55 7.75 0 2.07.22 3.83.65 5.3l-.15 3.35c-.07 1.5-.27 2.58-.6 3.25-.4.8-1.18 1.6-2.35 2.4-5.27 3.73-11.2 5.55-17.8 5.45-.8-.03-1.45 0-1.95.1q-2.79-4.29-4.05-9.45c-.61-2.51-.94-5.18-1-8-.01-.63-.01-1.27 0-1.9.16-5.79 1.58-11.81 4.25-18.05 2.24-5.12 4.93-9.15 8.05-12.1 1.14-1.05 2.34-1.97 3.6-2.75 1.55-.95 3.35-1.77 5.4-2.45 1.34-.43 2.77-.82 4.3-1.15.61-.12 1.25-.24 1.9-.35.98-.18 2.05-.35 3.2-.5 5.23-.72 12.22-1.2 20.95-1.45q9.15-.255 15.6-.75c.87.27 1.72.48 2.55.65m-5.5 19.85c.1 0 .22.02.35.05q-.555 0-1.05.3c-.43.23-.78.57-1.05 1-.3.47-.6 1.4-.9 2.8-.13.6-.27 1.23-.4 1.9-.2.07-.38.15-.55.25-.03.13-.05.28-.05.45-4.8 2.13-8.65 3.72-11.55 4.75q-2.1.705-9.6 3c-2.03.6-3.83 1.17-5.4 1.7-.13.83-.22 1.68-.25 2.55-.03-1.33.05-2.63.25-3.9-.23.07-.47.13-.7.2l.05-1.25c.03-1.47.12-2.58.25-3.35.23-1.23.63-2.25 1.2-3.05.73-.97 1.85-1.75 3.35-2.35.77-.3 2.12-.68 4.05-1.15 2.43-.53 6.08-1.47 10.95-2.8 4.27-1 7.95-1.37 11.05-1.1m-116.9-18.25c4.7 1.93 9.6 3.22 14.7 3.85l-11.45 15.55c-9.43-5.37-18.07-11.17-25.9-17.4-1.73-1.4-3.07-2.55-4-3.45-1.37-1.37-2.43-2.75-3.2-4.15-1.47-2.7-2.2-6.7-2.2-12 0-2.53.1-5.32.3-8.35 2.47 4.27 5.57 8.13 9.3 11.6q3.255 2.955 8.25 6.45c5.17 3.5 9.9 6.13 14.2 7.9m76.3-8.1c-.1-.63-.42-1.08-.95-1.35-.57-.27-1.12-.28-1.65-.05-.13.07-.45.3-.95.7-1.67 1.67-2.65 2.68-2.95 3.05-.57.63-.87 1.2-.9 1.7-.03.33.05.65.25.95.23.3.5.47.8.5q.405 0 .9-.3c1.93-1 3.28-1.83 4.05-2.5 1.07-.87 1.53-1.77 1.4-2.7"/><path d="M115.85 162.1c-5.1-.63-10-1.92-14.7-3.85-4.3-1.77-9.03-4.4-14.2-7.9q-4.995-3.495-8.25-6.45c-3.73-3.47-6.83-7.33-9.3-11.6-.2 3.03-.3 5.82-.3 8.35 0 5.3.73 9.3 2.2 12 .77 1.4 1.83 2.78 3.2 4.15.93.9 2.27 2.05 4 3.45 7.83 6.23 16.47 12.03 25.9 17.4zm102.55 14.45c-.13-.03-.25-.05-.35-.05-3.1-.27-6.78.1-11.05 1.1-4.87 1.33-8.52 2.27-10.95 2.8-1.93.47-3.28.85-4.05 1.15-1.5.6-2.62 1.38-3.35 2.35-.57.8-.97 1.82-1.2 3.05-.13.77-.22 1.88-.25 3.35l-.05 1.25c.23-.07.47-.13.7-.2-.2 1.27-.28 2.57-.25 3.9.03-.87.12-1.72.25-2.55 1.57-.53 3.37-1.1 5.4-1.7q7.5-2.295 9.6-3c2.9-1.03 6.75-2.62 11.55-4.75 0-.17.02-.32.05-.45.17-.1.35-.18.55-.25.13-.67.27-1.3.4-1.9.3-1.4.6-2.33.9-2.8.27-.43.62-.77 1.05-1q.495-.3 1.05-.3m16.15-45.5q-.345-1.005-1.2-1.95c-1.43-1.53-3.17-2.6-5.2-3.2-3.13-.77-6.3-1.22-9.5-1.35-2.67-.03-5.3-.07-7.9-.1-2.97-.07-5.93.1-8.9.5-2.87.2-5.77.53-8.7 1-3.03.67-6.02 1.48-8.95 2.45-2.6 1-5.08 2.2-7.45 3.6-1.4.86-2.2 2.04-2.4 3.55-.03.26-.05.53-.05.8.15.52.34 1.02.55 1.5-1.35.96-2.83 2.06-4.45 3.3-9.37 7.37-16.33 13.37-20.9 18-4.47 4.6-8.97 10.02-13.5 16.25-.8 1.1-1.63 2.28-2.5 3.55l2.45.5c.97.13 1.5.5 1.6 1.1.03.23-.03.47-.2.7s-.38.38-.65.45c-.4.13-.93.13-1.6 0-1.13-.2-2.17-.38-3.1-.55-1.6 2.37-3.32 4.97-5.15 7.8 1 .4 1.97.77 2.9 1.1 4.5 1.63 9.83 3.05 16 4.25.19.04.37.07.55.1.09-.99.21-1.99.35-3 .39-2.73 1-5.45 1.85-8.15l-.75.45c-.4.2-1.02.5-1.85.9-.83.6-1.32.92-1.45.95-.17.07-.63.15-1.4.25-.57.07-.98.23-1.25.5l-.2-.25c.43-.53.98-.8 1.65-.8.17-.43.55-.88 1.15-1.35q2.025-1.59 5.1-3.45c1.31-3.38 3-6.73 5.05-10.05 2.4-3.9 4.83-6.85 7.3-8.85 1.8-1.47 3.88-2.7 6.25-3.7.6-.27 1.23-.52 1.9-.75.1-.03.22-.07.35-.1q2.055-.705 4.35-1.2c.43-.1.88-.18 1.35-.25 2.37-.51 4.7-.97 7-1.4.14-.07.27-.16.4-.25.53-.33.95-.53 1.25-.6.63-.17 1.2-.07 1.7.3 4.31-.65 8.49-1.14 12.55-1.45.42.12.83.24 1.25.35 3.07.83 6.2 1.28 9.4 1.35 2.82.03 5.49-.57 8-1.8.41.03.81.07 1.2.1q2.655.645 6.3.9.675.06 3.6.15c2.17-4.58 4.65-10.08 7.45-16.5.03-.07.07-.12.1-.15l-.2-.3c-.4-.93-.72-1.63-.95-2.1-.11-.23-.23-.44-.35-.65.15-.84.09-1.65-.2-2.45M176.5 148.8c.53.27.85.72.95 1.35.13.93-.33 1.83-1.4 2.7-.77.67-2.12 1.5-4.05 2.5q-.495.3-.9.3c-.3-.03-.57-.2-.8-.5-.2-.3-.28-.62-.25-.95.03-.5.33-1.07.9-1.7.3-.37 1.28-1.38 2.95-3.05.5-.4.82-.63.95-.7.53-.23 1.08-.22 1.65.05" style="fill:#794a66"/><path d="M226.75 157.2c-1.72-.27-2.79-.45-3.2-.55-.83-.17-1.68-.38-2.55-.65q-6.45.495-15.6.75c-8.73.25-15.72.73-20.95 1.45-1.15.15-2.22.32-3.2.5-.65.11-1.29.23-1.9.35-1.53.33-2.96.72-4.3 1.15-2.05.68-3.85 1.5-5.4 2.45-1.26.78-2.46 1.7-3.6 2.75-3.12 2.95-5.81 6.98-8.05 12.1-2.67 6.24-4.09 12.26-4.25 18.05-.01.63-.01 1.27 0 1.9.06 2.82.39 5.49 1 8q1.26 5.16 4.05 9.45c.5-.1 1.15-.13 1.95-.1 6.6.1 12.53-1.72 17.8-5.45 1.17-.8 1.95-1.6 2.35-2.4.33-.67.53-1.75.6-3.25l.15-3.35c-.43-1.47-.65-3.23-.65-5.3 0-2.83.18-5.42.55-7.75.47-3 1.32-5.12 2.55-6.35.77-.83 1.83-1.48 3.2-1.95.83-.3 2.1-.62 3.8-.95l12.15-2.3c1.57-.33 3.23-.63 5-.9.8-.1 3.2-.37 7.2-.8 3.8-.33 6.65-.35 8.55-.05.8.13 1.4.35 1.8.65.23.2.4.47.5.8.07.33.03.63-.1.9-.23.4-.77.63-1.6.7-.9.07-1.98.02-3.25-.15-.97-.13-1.78-.23-2.45-.3q.795.195 1.35 1.05c.37.57.58 1.22.65 1.95 0 .13.02.28.05.45.1-.07.22-.12.35-.15-.13 2.3-.45 4.78-.95 7.45-.17.1-.33.22-.5.35-.9 4.4-2.05 8.97-3.45 13.7-.47 1.57-.47 2.7 0 3.4.13.23.43.52.9.85q4.005 2.7 10.8 2.25c1.07-.07 2.93-.27 5.6-.6q2.655-.345 4.5-.45.345-1.5.9-3.3c1.07-3.53 1.73-5.88 2-7.05.43-1.73.92-4.45 1.45-8.15q1.05-7.2 1.35-10.35c.4-3.87.53-7.33.4-10.4-.07-1.9-.38-3.35-.95-4.35q-1.005-1.755-3.45-3c-.37-.1-.78-.23-1.25-.4-1.87-.63-3.75-1.18-5.65-1.65-.08-.01-.16-.03-.25-.05-.44-.08-.89-.16-1.35-.25-1.87-.28-3.42-.51-4.65-.7" style="fill:#532f45"/></g><g id="f"><path d="M222.5 148.95c2.23-1.83 4.33-3.77 6.3-5.8 2.27-2.4 4.08-5.1 5.45-8.1 1-2.2.7-4.18-.9-5.95-1.43-1.53-3.17-2.6-5.2-3.2-3.13-.77-6.3-1.22-9.5-1.35-2.67-.03-5.3-.07-7.9-.1-2.97-.07-5.93.1-8.9.5-2.87.2-5.77.53-8.7 1-3.03.67-6.02 1.48-8.95 2.45-2.6 1-5.08 2.2-7.45 3.6-1.63 1-2.45 2.45-2.45 4.35.53 1.8 1.42 3.32 2.65 4.55 2.13 2.07 4.5 3.88 7.1 5.45s5.37 2.85 8.3 3.85c2.53.8 5.15 1.57 7.85 2.3 3.07.83 6.2 1.28 9.4 1.35a17.7 17.7 0 0 0 8.15-1.85c1.73-.8 3.32-1.82 4.75-3.05m8.7-14.35a40 40 0 0 0-8.45-1.1c-3.23-.27-6.48-.35-9.75-.25-2.97.07-5.97.1-9 .1-3.67.03-7.33.38-11 1.05-4.53.67-9 1.75-13.4 3.25l-2.15-2.4c2.2-1.8 4.68-3.07 7.45-3.8 2.73-.73 5.5-1.32 8.3-1.75s5.62-.73 8.45-.9c3.1-.33 6.22-.53 9.35-.6 2.73-.07 5.52 0 8.35.2 3.1.07 6.18.48 9.25 1.25 2.8.73 3.67 2.38 2.6 4.95"/><path d="M222.75 133.5c2.87.07 5.68.43 8.45 1.1 1.07-2.57.2-4.22-2.6-4.95-3.07-.77-6.15-1.18-9.25-1.25-2.83-.2-5.62-.27-8.35-.2-3.13.07-6.25.27-9.35.6-2.83.17-5.65.47-8.45.9s-5.57 1.02-8.3 1.75c-2.77.73-5.25 2-7.45 3.8l2.15 2.4c4.4-1.5 8.87-2.58 13.4-3.25 3.67-.67 7.33-1.02 11-1.05 3.03 0 6.03-.03 9-.1 3.27-.1 6.52-.02 9.75.25" style="fill:#d6dee8"/></g><g id="g"><g id="h"><path d="M144.05 118.7v-.05c.17-.3.32-.62.45-.95.33 1.7.77 3.33 1.3 4.9 1.17 3.17 2.78 5.68 4.85 7.55 2.53 2.27 5.57 3.42 9.1 3.45q4.605.045 9.3-2.85c3.63-2.3 6.63-5.67 9-10.1 2.3-4.4 3.53-9.08 3.7-14.05v-1.65c.03-.6.07-1.25.1-1.95l-1.25-10.25-82.8 20.4-12.3 10.6c-.4.87-.73 1.68-1 2.45.03.07.08.13.15.2-.03.07-.05.12-.05.15-.3.5-.6 1.23-.9 2.2-.8 2.3-1.15 4.17-1.05 5.6.03.27.05.52.05.75.1 0 .18-.03.25-.1q-.15.495-.15.9c.93.07 6.15-3.13 15.65-9.6.3-.03.57-.05.8-.05.37 3 1.1 5.95 2.2 8.85q1.35 3.405 2.85 5.4c2.43 3.23 5.67 5.12 9.7 5.65.67.07 1.38.12 2.15.15 2.73-.03 5.6-.72 8.6-2.05 5.13-2.37 9.5-6.23 13.1-11.6 2.63-3.93 4.52-8.13 5.65-12.6.03-.17.1-.3.2-.4.1-.23.22-.55.35-.95m14.8.35c3.53-8.07 6.43-14.45 8.7-19.15l10.05-2.8v.35c-2.27 3.6-5.27 9.18-9 16.75l-1.55 3.15c-1.73 3.57-3.22 6.72-4.45 9.45q-.405.795-.6 1.5c-1.43.3-2.87.33-4.3.1-.9-.17-1.75-.43-2.55-.8.6-1.5 1.38-3.3 2.35-5.4zm-30.9 2.6c-1.77 3.03-4.55 8.17-8.35 15.4-.7 1.43-1.18 2.53-1.45 3.3-.07.17-.17.38-.3.65-1.33.2-2.67.25-4 .15-2.23-.17-4.05-.85-5.45-2.05l6.05-9.75c4.07-6.43 7.68-12.52 10.85-18.25l10.85-2.75c-2.9 4.3-5.63 8.73-8.2 13.3"/><path d="M119.6 137.05c3.8-7.23 6.58-12.37 8.35-15.4 2.57-4.57 5.3-9 8.2-13.3l-10.85 2.75c-3.17 5.73-6.78 11.82-10.85 18.25l-6.05 9.75c1.4 1.2 3.22 1.88 5.45 2.05 1.33.1 2.67.05 4-.15.13-.27.23-.48.3-.65.27-.77.75-1.87 1.45-3.3m47.95-37.15c-2.27 4.7-5.17 11.08-8.7 19.15l-1.35 3.15c-.97 2.1-1.75 3.9-2.35 5.4.8.37 1.65.63 2.55.8 1.43.23 2.87.2 4.3-.1q.195-.705.6-1.5c1.23-2.73 2.72-5.88 4.45-9.45l1.55-3.15c3.73-7.57 6.73-13.15 9-16.75v-.35z" style="fill:#686f7d"/></g></g><g id="i"><path d="M86.25 84.8c.53-.73 1.05-1.43 1.55-2.1q2.55-3.6 4.2-6.6c.83-1.53 1.02-2.73.55-3.6-14.53 11.9-27.03 29.58-37.5 53.05-4.9 11.03-8.45 21.15-10.65 30.35-2.03 8.77-3.43 19.2-4.2 31.3-.27 4.9-.3 8.88-.1 11.95.27 4.37 1.05 8.22 2.35 11.55.97 2.47 2.22 3.98 3.75 4.55 2.03.77 4.6-.2 7.7-2.9l8.95-7.8c3.13-2.77 5.43-4.95 6.9-6.55 2.37-2.63 4.03-5.27 5-7.9.8-2.13 1.3-4.67 1.5-7.6.07-.87.12-3.5.15-7.9.1-15.87 2.95-31.18 8.55-45.95.77-2 1.25-3.55 1.45-4.65.03-.3.07-.58.1-.85.13-1.4-.05-2.65-.55-3.75-.43.67-.85 1.35-1.25 2.05-4.03 6.8-7.23 14.02-9.6 21.65-2.6 8.43-4.07 17-4.4 25.7-.27 7.03-.47 11.07-.6 12.1-.53 4.53-1.73 8.25-3.6 11.15-1.3 2-3.53 4.35-6.7 7.05-3.8 3.3-7.67 6.57-11.6 9.8q-1.95-3.405-2.55-8.1c-.33-2.3-.45-5.2-.35-8.7.43-17.77 3.63-35.18 9.6-52.25 5.93-17.07 14.27-32.68 25-46.85 1.6-2.03 2.97-3.78 4.1-5.25.9-1.17 1.65-2.15 2.25-2.95"/><path d="M87.85 82.9c0-.07-.02-.13-.05-.2-.5.67-1.02 1.37-1.55 2.1-.6.8-1.35 1.78-2.25 2.95-1.13 1.47-2.5 3.22-4.1 5.25-10.73 14.17-19.07 29.78-25 46.85-5.97 17.07-9.17 34.48-9.6 52.25-.1 3.5.02 6.4.35 8.7q.6 4.695 2.55 8.1c3.93-3.23 7.8-6.5 11.6-9.8 3.17-2.7 5.4-5.05 6.7-7.05 1.87-2.9 3.07-6.62 3.6-11.15.13-1.03.33-5.07.6-12.1.33-8.7 1.8-17.27 4.4-25.7 2.37-7.63 5.57-14.85 9.6-21.65.4-.7.82-1.38 1.25-2.05.5 1.1.68 2.35.55 3.75.03-.03.07-.05.1-.05.03-.07.07-.13.1-.2.07-.07.12-.13.15-.2s.07-.13.1-.2v-.2c0-.07.02-.13.05-.2s.05-.13.05-.2v-.2c.03-.07.07-.13.1-.2v-.4c0-.07.02-.13.05-.2v-3.25c0-.07-.02-.13-.05-.2.03-.07.05-.13.05-.2v-.6c0-.07.02-.13.05-.2v-4.8c.03-.07.05-.13.05-.2v-1c0-.07.02-.13.05-.2v-.4c0-.07.02-.13.05-.2v-5.25c0-.07-.02-.13-.05-.2.03-.07.05-.13.05-.2.03-.07.05-.13.05-.2v-4c.03-.07.05-.13.05-.2V99c.03-.07.07-.13.1-.2v-.45c0-.07.02-.13.05-.2v-2.8c.03-.07.07-.13.1-.2v-1c.03-.07.05-.13.05-.2v-1.6c0-.07-.02-.13-.05-.2V88.5c0-.07.02-.13.05-.2v-1.6c0-.07.02-.13.05-.2v-2.6c.03-.07.07-.13.1-.2v-.6c-.03-.07-.07-.13-.1-.2" class="q"/></g><g id="j"><g id="k"><path d="M51.47 61.56q-13.755-7.905-24-5.46c-3.98.91-7.79 2.99-11.43 6.26a34.7 34.7 0 0 0-7.17 9.27c-1.93 3.53-3.24 7.24-3.92 11.15-.57 3.83-.49 7.73.23 11.71.8 3.98 2.14 7.64 4.04 10.98 2.01 3.56 4.44 6.31 7.28 8.25.76.49 1.55.97 2.39 1.42l.06.06c.19.19.44.3.74.34.23.08.47.15.74.23 1.06-.15 3.32-.66 6.77-1.54 1.63-.42 4.85-1.04 9.67-1.88l4.21-.63q1.53-.225 2.79-.06c18.46-3.22 34.37-6.71 47.71-10.46 7.2-2.09 15.09-4.55 23.66-7.39 14.71-4.81 28.98-9.74 42.82-14.79 6.52-2.39 11.7-4.38 15.52-5.97.19-.04.4-.09.63-.17.99-.3 2.56-.89 4.72-1.76 5.38-2.2 9.35-3.89 11.89-5.06 2.39-1.21 4.61-2.43 6.65-3.64q-.225.51-.51 1.08c.45-.27.87-.51 1.25-.74l3.13-2.16c.42-.23.89-.47 1.42-.74.08-.23.19-.45.34-.68q3.75-8.13 4.38-17.4c.19-3.34-.04-6.08-.68-8.25-1.1-3.07-2.86-5.12-5.29-6.14-3.11-1.33-6.84-.76-11.2 1.71-6.44 3.68-12.06 9.48-16.83 17.4-2.09 3.49-4.38 8.23-6.88 14.22-1.33.23-2.9.61-4.72 1.14-2.43.83-4.23 1.44-5.4 1.82l-9.33 2.9c-.15.04-.3.09-.45.17 0-.08-.02-.13-.06-.17q-.735-1.365-3.3-5.91c.23-.11.49-.23.8-.34.42-.19.72-.45.91-.8.3-.34.3-.64 0-.91-.91.11-1.8.27-2.67.45-3.98-6.82-8.09-15.35-12.34-25.59-1.86-4.59-2.94-7.2-3.24-7.85-1.33-2.92-2.62-5.42-3.87-7.51-1.36-2.2-2.79-3.34-4.26-3.41q-2.67-.12-4.89 4.44c-2.39 5.38-3.92 11.07-4.61 17.06q-2.955-2.1-5.52-7.11l-4.21-8.42c-1.25-1.97-2.62-3.15-4.09-3.53q-2.67-.855-5.91 1.59c-2.62 2.01-5.08 5.52-7.39 10.52-4.36 9.44-7.18 19.37-8.47 29.8-.64 6.03-.47 11.16.51 15.41-.15.11-.27.21-.34.28-.3.38-.42.72-.34 1.02.08.38.36.63.85.74.11.04.25.06.4.06.15.49.32.99.51 1.48-1.86-1.4-3.96-2.94-6.31-4.61-7.17-5.38-12.95-9.35-17.34-11.89m43.79-38.49c2.12 4.32 3.72 7.53 4.78 9.61 1.9 3.68 4.06 6.29 6.48 7.85 1.67 1.14 3.13 1.42 4.38.85 1.1-.45 1.95-1.57 2.56-3.36.23-.76.89-3.83 1.99-9.21.76-3.64 1.88-6.44 3.36-8.42 1.74 3.49 3.79 8.09 6.14 13.82 3.15 7.73 5.08 12.38 5.8 13.93 1.9 4.32 3.85 8.25 5.86 11.77-8.15 1.33-16.85 3.05-26.1 5.17-8.72 1.93-19.75 4.63-33.1 8.08-.3-6.48.15-13 1.36-19.56a87.6 87.6 0 0 1 7.79-23.14c1.78-3.53 3.56-6.12 5.35-7.79.76-.68 1.4-.99 1.93-.91s1 .51 1.42 1.31m37.25 40.38q3.81-.795 5.52-1.08c1.59 2.54 3.22 4.85 4.89 6.94-2.12.49-4.72 1.16-7.79 1.99q-11.31 3.135-20.76 5.91-.06-.06-.06 0c-5.19 1.44-10.01 2.79-14.44 4.04l-.06.06c-2.92.87-5.63 1.71-8.13 2.5-1.36.42-2.65.83-3.87 1.25-.04 0-.08.02-.11.06-.61.19-1.12.38-1.54.57-.08-.04-.13-.08-.17-.11-2.12-1.29-4.99-3.22-8.59-5.8.3-.34.42-.91.34-1.71-.11-.76-.19-1.48-.23-2.16q27.12-7.17 54.99-12.45m56.99-1.32c-.45.19-2.26.97-5.4 2.33-6.07 2.24-11.83 4.32-17.29 6.26.83-1.71 2.39-5.04 4.66-10.01 2.09-4.44 3.92-8.02 5.52-10.75 4.89-8.23 10.46-13.93 16.72-17.12 2.73-1.48 4.87-1.65 6.43-.51.95.64 1.61 1.74 1.99 3.3.68 2.31.85 4.95.51 7.9-.19 2.12-.72 4.74-1.59 7.85-.64 2.12-1.31 4.3-1.99 6.54-1.1.38-1.84.63-2.22.74-.72.3-3.17 1.46-7.34 3.47m-27.7 9.38c-.53.53-.87.97-1.02 1.31v.11c-1.55.57-3.07 1.1-4.55 1.59-.27.49-.63.89-1.08 1.19-.27.23-.91.42-1.93.57-1.52.3-3.49.8-5.91 1.48-10.31 3.6-18.97 6.62-25.99 9.04-7.09 2.43-13.89 4.66-20.42 6.71-4.55-2.12-8.68-4.26-12.4-6.43 1.25-.45 2.52-.89 3.81-1.31 2.46-.87 5.17-1.72 8.13-2.56 4.36-1.36 9.17-2.67 14.44-3.92q0-.06.06-.06c13.46-3.37 22.99-5.9 28.6-7.56.87-.27 1.67-.49 2.39-.68l2.45-.45c-.08-.15-.13-.32-.17-.51-.04-.04-.06-.08-.06-.11.64-.04 1.38-.17 2.22-.4 3.07-.72 6.96-1.82 11.66-3.3l2.73-1.02c-.49 1.14-.99 2.31-1.48 3.53-.45 1.25-.95 2.18-1.48 2.79M90.36 94.49q1.71.735 3.36 1.14c-.95.3-1.88.57-2.79.8-13.8 4.06-26.44 7.18-37.93 9.38-7.17 1.36-12.55 2.39-16.15 3.07q-8.535 1.53-14.73 3.24c-.49-.23-1.02-.51-1.59-.85-2.01-1.25-3.77-3.09-5.29-5.52a29.7 29.7 0 0 1-4.38-9.84c-.91-3.56-1.18-7.15-.8-10.75.34-3.6 1.36-7.05 3.07-10.35 1.78-3.3 4.02-6.1 6.71-8.42 2.88-2.39 5.8-3.9 8.76-4.55 5.27-1.18 11.58.32 18.94 4.49 3.87 2.12 10.88 7.03 21.04 14.73 8.64 6.48 15.9 10.96 21.78 13.42Z"/><path d="M93.72 95.62c-1.1-.27-2.22-.64-3.36-1.14-5.88-2.46-13.14-6.94-21.78-13.42-10.16-7.7-17.17-12.61-21.04-14.73-7.35-4.17-13.67-5.67-18.94-4.49-2.96.64-5.88 2.16-8.76 4.55-2.69 2.31-4.93 5.12-6.71 8.42-1.71 3.3-2.73 6.75-3.07 10.35-.38 3.6-.11 7.18.8 10.75a29.9 29.9 0 0 0 4.38 9.84c1.52 2.43 3.28 4.26 5.29 5.52.57.34 1.1.63 1.59.85q6.195-1.71 14.73-3.24c3.6-.68 8.98-1.71 16.15-3.07 11.49-2.2 24.13-5.33 37.93-9.38.91-.23 1.84-.49 2.79-.8m67.1-22.81c.15-.34.49-.78 1.02-1.31.53-.61 1.02-1.54 1.48-2.79.49-1.21.99-2.39 1.48-3.53l-2.73 1.02c-4.7 1.48-8.59 2.58-11.66 3.3-.83.23-1.57.36-2.22.4 0 .04.02.08.06.11.04.19.09.36.17.51l-2.45.45c-.72.19-1.52.42-2.39.68-5.61 1.67-15.15 4.19-28.6 7.56q-.06 0-.06.06c-5.27 1.25-10.08 2.56-14.44 3.92-2.96.83-5.67 1.69-8.13 2.56-1.29.42-2.56.85-3.81 1.31 3.72 2.16 7.85 4.3 12.4 6.43 6.52-2.05 13.33-4.28 20.42-6.71 7.01-2.43 15.68-5.44 25.99-9.04 2.43-.68 4.4-1.18 5.91-1.48 1.02-.15 1.67-.34 1.93-.57.45-.3.82-.7 1.08-1.19 1.48-.49 2.99-1.02 4.55-1.59v-.11m23.31-8.35c3.15-1.36 4.95-2.14 5.4-2.33 4.17-2.01 6.62-3.17 7.34-3.47.38-.11 1.12-.36 2.22-.74.68-2.24 1.35-4.42 1.99-6.54.87-3.11 1.4-5.72 1.59-7.85.34-2.96.17-5.59-.51-7.9-.38-1.55-1.04-2.65-1.99-3.3-1.55-1.14-3.7-.97-6.43.51-6.26 3.18-11.83 8.89-16.72 17.12-1.59 2.73-3.43 6.31-5.52 10.75-2.27 4.97-3.83 8.3-4.66 10.01 5.46-1.93 11.22-4.02 17.29-6.26m-84.04-31.79c-1.06-2.09-2.65-5.29-4.78-9.61-.42-.8-.89-1.23-1.42-1.31s-1.18.23-1.93.91c-1.78 1.67-3.56 4.26-5.35 7.79a87.7 87.7 0 0 0-7.79 23.14c-1.21 6.56-1.67 13.08-1.36 19.56 13.34-3.45 24.38-6.14 33.1-8.08 9.25-2.12 17.95-3.85 26.1-5.17-2.01-3.53-3.96-7.45-5.86-11.77-.72-1.55-2.65-6.2-5.8-13.93-2.35-5.72-4.4-10.33-6.14-13.82-1.48 1.97-2.6 4.78-3.36 8.42-1.1 5.38-1.76 8.45-1.99 9.21-.61 1.78-1.46 2.9-2.56 3.36-1.25.57-2.71.28-4.38-.85-2.43-1.55-4.59-4.17-6.48-7.85" style="fill:#7f6066"/><path d="M138.07 62.36q-1.71.285-5.52 1.08a803 803 0 0 0-54.99 12.45c.04.68.11 1.4.23 2.16.08.8-.04 1.36-.34 1.71 3.6 2.58 6.46 4.51 8.59 5.8.04.04.09.08.17.11.42-.19.93-.38 1.54-.57.04-.04.08-.06.11-.06 1.21-.42 2.5-.83 3.87-1.25 2.5-.8 5.21-1.63 8.13-2.5l.06-.06c4.44-1.25 9.25-2.6 14.44-4.04q0-.06.06 0 9.435-2.79 20.76-5.91c3.07-.83 5.67-1.5 7.79-1.99-1.67-2.09-3.3-4.4-4.89-6.94Z" style="fill:#553840"/></g></g></svg>