<svg xmlns="http://www.w3.org/2000/svg" id="a" viewBox="0 0 253 291.35"><defs><style>.g{fill:#6b426b}.h{fill:#a8a0c6}</style></defs><path d="M126.86 264.13c0-2.76.02-5.54.05-8.33l.1-4.72c0-.64-.1-1.26-.3-1.85-.51-1.36-1.11-2.7-1.78-3.97-.97-1.9-1.92-3.86-2.84-5.84-.67-1.36-1.31-2.72-1.95-4.1-.7-1.44-1.37-2.86-2-4.24-.37-.76-.71-1.51-1.04-2.24l-.14-.3-.32-.09c-.27-.08-.53-.13-.72-.15-2.64-.68-5.37-1.04-8.12-1.07-2.17-.03-4.37-.05-6.61-.05-.64 0-1.28.03-1.92.1-.28-.02-.56-.02-.83-.02s-.54 0-.81.02a47 47 0 0 0-2.74-.38c-.67-.14-1.24-.41-1.64-.75-.24-.24-.39-.49-.45-.74a3.7 3.7 0 0 1 0-1.55c.23-1.07.51-2.12.83-3.12a70.7 70.7 0 0 1 5.99-13.06c.51-.84 1-1.71 1.47-2.58l.51-.95-4.1-.41-9.38-.6a182 182 0 0 0-9.53.05c-1.11.03-2.2.08-3.29.15l-1.14.1h-2.01c-.9-.11-1.74-.39-2.54-.83a3.6 3.6 0 0 1-1.2-.9c-.37-.45-.62-.95-.76-1.53-.18-.68-.24-1.39-.18-2.14.03-.69.13-1.38.28-2.06.64-2.65 1.82-5.1 3.53-7.3.59-.82 1.2-1.63 1.83-2.42l-.88-1.1c-.9.43-1.79.87-2.67 1.31q-1.635.84-3.24 1.65c-3.47 1.73-7 3.66-10.48 5.72-2.72 1.55-4.94 3.63-6.6 6.19-.67 1.05-.89 2-.64 2.82.23.77.86 1.39 1.84 1.82 1.07.51 2.2.95 3.37 1.32l-2.25 6.16c-.29.9-.59 1.79-.9 2.69l-.49 1.38c-.31.82-.58 1.64-.81 2.45-.45 1.5-.9 2.97-1.35 4.43 2.41 3.53 5.03 6.97 7.85 10.3 4.18 4.92 8.55 9.31 13.09 13.18l.09-.36c.33-1.34.65-2.7.96-4.1.4-1.88.83-3.79 1.29-5.68l.7-2.9 1.2-4.88c.23-.86.46-1.71.7-2.55q.45-1.65 1.02-3.27c.27.66.41 1.36.41 2.07 0 .54-.08 1.14-.24 1.81-.07.34-.13.69-.2 1.05-.07.34-.13.69-.2 1.03-.17.74-.32 1.49-.45 2.2-.21.94-.33 1.89-.37 2.86 0 .66.09 1.33.27 1.96.1.45.22.91.35 1.33.07.35.16.71.25.98.04.23.1.47.17.67.64 2.29 1.46 4.62 2.43 6.93.67 1.6 1.38 3.18 2.12 4.69.83 1.67 1.65 3.36 2.48 5.05l.27.55c10.69 6.29 22.26 10.07 34.7 11.32l-.1-.31c-.15-.46-.29-.97-.4-1.54-.23-1.06-.39-2.29-.49-3.68-.08-.68-.07-1.02-.05-1.27 0-.54.08-1.16.23-1.83l.55-2.29c.27-1.09.63-1.9 1.06-2.42.55-.67 1.13-1 1.76-1h.19c.61.07 1.11.42 1.55 1.1.19.27.48.86.79 2.14.61 2.64.71 5.67.29 8.99-.12.88-.3 1.63-.53 2.23l-.09.23c1.57.08 3.14.12 4.74.12h.49v-1.03c-.02-.88-.03-1.76-.03-2.63Zm58.34-29.11c-.2-1.34-.42-2.66-.65-3.96-.2-1.27-.42-2.53-.65-3.76-.4-2.3-.86-4.6-1.36-6.83-.43-1.97-.87-3.92-1.3-5.87-.17-.66-.31-1.29-.45-1.88-.3-1.37-.62-2.73-.96-4.09l-.52-1.83c.05-.19.05-.43-.05-.74-.12-.3-.34-.57-.72-.81-.18-.1-.24-.21-.25-.26-.07-.24-.07-.48-.03-.64.1-.26.26-.5.48-.75.39-.46.8-.92 1.21-1.36.41-.42.81-.85 1.2-1.31.21-.26.34-.53.4-.82.08-.46.08-.9 0-1.29q-.18-1.155-1.05-2.1c-.57-.58-1.18-1.13-1.79-1.64-.52-.45-1.06-.87-1.65-1.27l-2.03-1.21c-1.17-.64-2.34-1.25-3.54-1.87-1.64-.77-3.3-1.51-4.9-2.2-1.63-.77-3.33-1.48-5.03-2.11-1.66-.7-3.35-1.37-5.02-2.01-.87-.34-1.75-.66-2.62-.96l-2.63-.91 1.85 2.07c.83.93 1.56 1.93 2.16 2.97a53 53 0 0 1 3.65 8.08c.33.95.64 1.95.95 2.99.15.45.26.94.31 1.37 0 .17-.01.35-.04.55v.1c0 .13-.02.28-.06.42-.07.22-.2.45-.4.7-.27.36-.57.58-.85.66l-1.74.2-4.3.4c-1.44.13-2.88.28-4.33.45-1.43.2-2.85.4-4.25.6-1.44.2-2.88.42-4.32.65l-1.08.18.59.92c1.47 2.3 2.97 4.56 4.47 6.72.54.78.91 1.65 1.09 2.59.16.75.29 1.5.39 2.26.13.83.23 1.69.3 2.57.03.23.01.47-.04.71-.09.37-.22.74-.38 1.06-.25.44-.62.74-1.14.91l-13.43 4.18q-.345.075-.63.21l-.4.2v.45c.04 1.52.03 3.05-.04 4.57-.03 1.5-.03 3.03 0 4.53.03 1.26.05 2.52.05 3.78v12.46c.03 2.12.03 4.23 0 6.29 0 1.13-.02 2.27-.05 3.45 0 .96-.02 1.92-.05 2.9 0 .64-.02 1.3-.04 1.96v.05c7.57-.24 14.83-1.37 21.77-3.38.12-.29.24-.58.38-.86 2.27-4.44 4.64-8.93 7.04-13.34.77-1.44 1.52-2.87 2.26-4.33.53-1.1 1.05-2.19 1.55-3.26.92-1.98 1.58-4.1 1.96-6.3.17-1.13.3-2.27.41-3.41.04-.53.04-1.05 0-1.55-.07-1.01-.15-2.01-.25-3.03-.17-1.66-.56-3.28-1.14-4.83-.37-.96-.76-1.92-1.16-2.84a69.5 69.5 0 0 0-4.61-8.68c.09.04.19.08.28.12.85.43 1.63 1 2.3 1.71.84.87 1.65 1.81 2.39 2.78a17.4 17.4 0 0 1 2.5 4.8c.4 1.19.76 2.41 1.09 3.61.33 1.21.61 2.45.83 3.68.1.6.16 1.21.19 1.81.03 1.23.05 2.47.05 3.72-.03 1.79-.31 3.58-.82 5.32q-.435 1.545-1.08 3.09c-.43 1.15-.89 2.31-1.38 3.44-.37.77-.72 1.55-1.06 2.33-.16.39-.34.77-.54 1.17-.28.6-.62 1.17-1.02 1.74-.05.09-.13.18-.23.26l-.27.22v.34c0 .44.04.88.11 1.33.17.95.4 1.91.67 2.81.3 1.07.59 2.3.89 3.76l.04.17c8.44-3.85 16.37-9.15 23.78-15.89-.14-1.09-.49-3.75-.65-4.93l-.6-4.31Z" class="g"/><path d="M120.22 267.33c.96-1.74 1.38-4.14 1.24-7.14-.14-2.45-.52-4.32-1.17-5.71l-.09-.2-.19-.11c-.17-.1-.37-.16-.57-.16-.27 0-.55.1-.79.27-.61.39-1.12 1.18-1.54 2.41-.56 1.55-.86 2.72-.89 3.63l.15 3.52c0 .47.05.81.18 1.12l.47.94c.35.61.79 1.12 1.28 1.56.57.05 1.14.09 1.71.13l.16-.17z" style="fill:#37293f"/><path d="M114.75 226.43c-.12-.02-.24-.04-.36-.04h-.08l-.08-.02c-3.18-.73-6.44-1.1-9.69-1.1-.39 0-.78 0-1.18.02h-.75c-1.72 0-3.51-.1-5.3-.31-.77-.14-1.48-.25-2.17-.35l-.76-.11.15-.75c.38-1.86 1.06-3.7 2.02-5.45 1.51-2.82 3.04-5.72 4.54-8.63.26-.52.51-1.03.74-1.52.15-.36.29-.74.42-1.12.15-.45.26-.93.32-1.41.06-.65 0-1.3-.18-1.91-.22-.79-.71-1.18-1.59-1.28-4.56-.23-9.27-.5-13.96-.8-5.01-.17-10.06-.27-15.01-.3h-.84l-.22-.27c-.5-.63-.76-1.33-.76-2.1-.04-.82.09-1.69.39-2.54.49-1.4 1.16-2.69 2-3.84.9-1.24 1.81-2.44 2.71-3.62.96-1.19 1.92-2.36 2.87-3.48 1.6-1.84 3.36-3.44 5.23-4.77.27-.21.64-.52 1.1-.91 1.11-.97 2.31-1.9 3.57-2.75 1.59-1.01 3.22-1.95 4.88-2.79.68-.37 1.35-.82 1.98-1.32l1.78-1.27.08 1.29c.44 6.66.61 7.83.67 8.03 7.52 17.4 8.54 19.97 8.66 20.38.79 2.86 1.8 5.79 3.02 8.72 1.73 4.19 3.53 8.39 5.34 12.48.4.94.82 1.88 1.25 2.85l.57 1.28-1.38-.28Zm15.07-3.04q.105-1.995.15-3.93l.2-5.61.1-3.49c.07-1.34.12-2.65.15-3.95l.2-5.56.1-3.2.2-5.4c.03-1.35.05-2.7.05-4.02.03-1.65.08-3.34.15-5.08.03-1.57-.07-3.09-.29-4.51v-.06l.05-5.32.98.4c1.08.44 2.15.91 3.19 1.42 1.09.58 2.18 1.16 3.28 1.77l1.92 1.11c1.17.75 2.3 1.54 3.41 2.34a57 57 0 0 1 4.31 3.45 32 32 0 0 1 4.09 4.4 23.65 23.65 0 0 1 4.74 10.67l.13.73-18.13 2.71c-.27.07-.6.2-.91.37l-.07.04-.08.02c-.5.14-.93.37-1.32.7q-.315.285-.42.75c-.04.29-.02.64.09 1 .16.44.41.88.75 1.28.73.83 1.47 1.68 2.2 2.55.67.77 1.31 1.6 1.9 2.46.27.37.54.8.79 1.26.24.45.47.93.68 1.41.61 1.42 1.12 2.9 1.53 4.39.17.63.15 1.3-.05 1.99-.19.65-.59 1.15-1.17 1.44-.49.2-.94.35-1.41.46-3.46 1.27-7.06 2.55-10.63 3.78l-1 .35.15-3.12Z" class="g"/><path d="M167.59 161.86c.6-2.58 1.42-5.21 2.43-7.8.96-2.46 2.31-4.75 4.02-6.8.27-.34.59-.69.94-1.05l.08-.07c.17-.13.34-.23.51-.32l.08-.04 1.43-.32.28.36q.42.54.66 1.2c.34.85.61 1.77.78 2.71.17 1.01.34 2.03.5 3.07v.12c0 .02 0 .07.03.17.01.04.04.12.12.26.05.1.1.19.16.27h.18c.06-.06.12-.13.18-.2.44-.58.8-1.32 1.08-2.17.69-2.08 1.73-3.99 3.07-5.68.11-.14.24-.3.4-.46l.08-.08.6-.3s.53-.09.77-.12l.35-.05.45.44c.13.09.25.21.35.37.14.27.21.48.26.71.34 2.06.66 4.13.96 6.24l.06.44-2.76 1.95c-1.1.69-2.19 1.36-3.29 2.03l-.08.05-.09.03c-.21.06-.41.13-.62.22-.94.49-1.95.95-2.96 1.36a23 23 0 0 0-3.82 2.03l-.18.12h-.14c-.85.32-1.68.65-2.5.99-1.19.39-2.31.77-3.44 1.17l-1.24.44.3-1.28Z" style="fill:#9d316a"/><path d="M106.38 95.3c-3.65 0-6.79-.22-9.32-.66l-1.78-.31 1.5-1c1.57-1.05 3.6-1.81 6.02-2.26 1.52-.3 3-.45 4.4-.45 1.14 0 2.26.1 3.31.3 2.29.42 4.36 1.3 6.14 2.63l1.43 1.06-1.77.23c-2.38.31-5.37.46-8.88.46h-1.07Zm8.93 101.46c-1.23-1.13-2.46-2.25-3.7-3.35q-1.995-1.8-3.99-3.54c-1.38-1.15-2.78-2.3-4.18-3.43l-2.88-2.66-2.63-23.63 2.78 1.39c3.22 1.48 6.48 2.85 9.69 4.07l6.6 2.5c3.57 1.31 7.26 2.31 10.97 2.96l.58.1.26 16.18-10.72 11.95-2.79-2.54ZM126.1 95.39c.42-.79 1.12-1.57 2.11-2.29.36-.3.79-.6 1.25-.88.99-.65 2.15-1.23 3.42-1.71.49-.17 1-.34 1.54-.51 2.21-.73 4.26-1.1 6.07-1.1.23 0 .46 0 .68.02 1.03.03 2.03.16 2.97.37l2.53.56-2.74.92c-1.71.84-4.48 2.03-8.18 3.49-.78.31-1.48.56-2.09.76-.93.33-1.72.59-2.34.76-.35.08-.73.15-1.18.22-.73.13-1.68.25-2.79.36l-1.94.36.68-1.31Z" class="h"/><path d="M148.66 166.15c-1.41-.07-2.83-.1-4.22-.1l-3.74-.2-3.84-.4c-1.9-.37-3.75-.65-5.55-.85-1.15-.21-2.24-.41-3.3-.61-1.94-.37-3.85-.73-5.75-1.1-1.66-.37-3.27-.74-4.88-1.11a73 73 0 0 1-5.31-1.52c-.69-.2-1.41-.44-2.09-.72-1.22-.38-2.48-.81-3.68-1.24l-2.86-1.32a81 81 0 0 1-2.81-1.58c-.99-.48-2.01-1-2.98-1.54-1.68-.97-3.33-1.92-4.96-2.86-1.12-.68-2.31-1.46-3.56-2.34-1.42-.93-2.83-1.91-4.17-2.91-1.25-.98-2.46-2-3.6-3.04-1.21-1.14-2.4-2.31-3.53-3.48a235 235 0 0 1-3.81-4.01l-2.44-2.85.24-.44c.64-1.17 1.29-2.34 1.96-3.51a43 43 0 0 0 2.8-6.23c.27-.73.51-1.45.74-2.18.27-.75.52-1.48.75-2.2.19-.72.37-1.48.53-2.23.33-1.56.65-3.11.95-4.64.42-2.25.67-4.56.74-6.88.07-1.52.08-3.05.05-4.56a64 64 0 0 0-.35-4.59c-.02-.21-.04-.41-.07-.62-.06.44-.13.87-.2 1.31-.23 1.62-.5 3.28-.8 4.91-.27 1.5-.57 3.03-.91 4.53-.13.69-.28 1.41-.45 2.15-.13.66-.28 1.34-.45 2.01L76 112.93c-.47 1.48-.98 2.97-1.51 4.44-.5 1.4-1.02 2.81-1.55 4.21a53 53 0 0 1-3.81 7.62c-1.32 2.16-2.81 4.2-4.42 6.05a22.6 22.6 0 0 1-5.06 4.29c-.98.61-2 1.19-3.05 1.73-.5.27-1.01.52-1.53.76l-.05.02-.05.02c-.56.17-1.11.33-1.64.5-.6.14-1.16.29-1.71.45l-.06.02s-1.24.14-1.81.21c-.42.02-.78.03-1.14.03-1.57 0-3.11-.19-4.57-.55-1.45-.48-2.66-1.19-3.67-2.12-.27-.27-.48-.5-.66-.72-.25-.28-.47-.58-.66-.88-.34-.68-.62-1.33-.87-1.98-.54-1.58-.72-3.21-.54-4.88.21-2.16.75-4.27 1.6-6.26.97-2.28 2.1-4.53 3.34-6.68.77-1.34 1.52-2.61 2.26-3.81 3.11-5.2 6.32-10.36 9.51-15.31 1.98-3.14 3.97-6.38 5.89-9.63.96-1.66 1.91-3.31 2.84-4.94.94-1.58 1.89-3.19 2.85-4.85.43-.76.84-1.5 1.24-2.23.61-1.05 1.19-2.07 1.75-3.1.41-.72.85-1.44 1.33-2.15l.26-.4.47.09c2.14.39 4.28.68 6.38.84.3.04.58.1.87.17 4.26.61 8.65.93 12.97.93h.65c5.09-.36 10.2-1.16 15.13-2.38a470 470 0 0 1 16.44-3.51c1.15-.26 2.45-.53 3.85-.8l.75-.14.1.76c.03.25.08.51.14.78.11.68.21 1.33.31 2 .1.79.19 1.59.26 2.4.13 1.22.25 2.48.35 3.75.23 2.42.47 4.92.7 7.49l.54 5.75-.39.23c-.32.19-.64.4-.96.62-1.9 1.37-3.14 2.83-3.69 4.35-.12.32-.27.99-.31 2.38v.9c.71 3.26 2.48 5.04 5.38 5.46a17.2 17.2 0 0 0 7.81-.33c1.85-.45 3.63-1.14 5.3-2.04l.12-.07 3.84-.42c1.61-.1 3.26-.27 4.93-.5.89-.1 1.77-.19 2.64-.25l2.04-.2c1.42-.2 2.83-.32 4.15-.35 3.29-.3 6.66-.6 10.06-.9l4.46-.3 5.8-.4c1.99-.17 4-.32 6-.45l2.18-.2c1.49-.1 2.96-.19 4.43-.25q1.08-.03 2.13-.03c2.1 0 4.22.08 6.3.23.51.08.98.2 1.44.37.52.09 1 .3 1.43.62.71.4 1.38.96 1.93 1.62.57.75 1 1.59 1.33 2.53.52 1.31.8 2.74.84 4.22.03 1.47.03 2.93 0 4.33-.04.55-.09 1.06-.16 1.58-.1 1.06-.24 2.15-.4 3.22-.2 1.22-.46 2.44-.76 3.62-.59 2.35-1.25 4.74-1.96 7.12-.71 2.4-1.75 4.92-3.1 7.48-1.38 2.52-2.72 4.7-4 6.48-1.32 1.79-2.89 3.62-4.67 5.44-1.76 1.8-3.24 3.25-4.37 4.32l-.94.89-.66-3.27c-.13-.7-.28-1.39-.44-2.07-.12-.42-.26-.85-.42-1.26-.1-.21-.24-.45-.4-.68a7 7 0 0 0-.75-.79c-.19-.13-.42-.22-.64-.22a.9.9 0 0 0-.35.07c-.4.26-.78.57-1.13.92-.51.48-.94.99-1.31 1.54-.56.82-1.08 1.66-1.57 2.51l-1.7 3.19-.42-1.89c-.07-.29-.13-.57-.2-.83q-.21-.885-.36-1.8c-.11-.7-.45-1.35-1.02-1.99-.14-.16-.27-.3-.42-.43-.18-.09-.36-.17-.53-.24h-.48c-.46.18-.91.38-1.34.61-.75.51-1.47 1.26-2.08 2.21-.52.81-1.02 1.66-1.47 2.5-.69 1.28-1.31 2.61-1.87 3.98-.52 1.3-.98 2.67-1.38 4.07a70 70 0 0 0-1.14 4.41l-.09.43-.42.11c-.89.24-1.79.43-2.68.57-1.77.52-3.71.92-5.67 1.15-1.46.2-2.9.4-4.34.6-1.76.14-3.49.3-5.17.5h-.12Zm1.07-31.76s-.25.01-.72.21c-.39.12-.96.39-1.86 1.13-.72.57-1.24 1.22-1.55 1.94-.28.61-.26.87-.25.94h.04c.03 0 .15 0 .38-.12.33-.17.98-.58 2.2-1.65 1.24-1.16 1.62-1.61 1.73-1.77.09-.17.14-.38.12-.57 0-.05-.02-.08-.03-.11h-.05Zm5.39 1.66c.21 0 .69-.11 1.63-.84 1.06-.86 1.76-1.43 2.09-1.69.26-.23.52-.54.75-.89.03-.05.06-.12.06-.23-.83.02-1.67.37-2.57 1.05-1.42 1.04-1.92 1.68-2.08 2.03l-.02.05-.03.04c-.12.17-.19.3-.24.4.05.02.11.05.19.08h.23Zm.71-22.12c.11.42.52 1.34 1.95 3.44 1.12 1.67 2.64 3.3 4.51 4.85 1.9 1.54 3.93 3 6.03 4.35 2.1 1.29 4.6 2.47 7.41 3.48 2.77 1 4.81 1.51 6.06 1.51h.1l2.59-.2.16-.04c.29-.05.53-.09.71-.14 1.57-.44 3.65-1.52 6.18-3.2 2.4-1.56 4.77-3.75 7.04-6.51 2.29-2.71 4-5.33 5.1-7.79.59-1.37.98-3.28 1.14-5.65.18-3.1-.06-3.71-.11-3.79-.18-.29-.88-.9-3.24-1.46-.21-.05-.46-.09-.75-.14l-4.99-.34-7.69.15c-.17 0-.33.01-.49.04h-.06l-.06.01c-.16 0-.32.01-.48.04l-4.94.36h-.1l-10.02.85c-.37.03-.71.08-1.02.14-2.46.37-4 .63-4.61.79-.69.14-2.55.56-5.57 1.26-2.79.61-4.57 1.77-5.3 3.44-.26.86-.24 1.99.09 3.28l.18.71c.05.16.1.35.16.57Zm-6.29 13.88c.18 0 .51-.05 1.06-.29.74-.34 1.35-.68 1.81-1.02.42-.36.83-.72 1.19-1.05.45-.41.61-.63.66-.73.08-.16.11-.27.13-.32 0-.03-.03-.09-.05-.13-.13-.22-.22-.23-.27-.23h-.18l-.07.05h-.2c-.49.04-1.08.31-1.76.82-.81.58-1.66 1.3-2.53 2.14-.12.1-.2.19-.25.28l.02.05-.06.19s.02.03.03.04c.06.07.11.15.29.2h.17ZM87.75 91.22c.42.44.93.87 1.5 1.27.92.63 1.97 1.2 3.12 1.68l.99.41-.76.76s-.07.08-.11.14c-.35.65-.57 1.39-.63 2.16-.06.74-.03 1.49.09 2.23.54 1.81 1.37 3.29 2.43 4.29.92.89 2.36 1.66 4.28 2.29 1.29.43 2.86.64 4.66.64 2.08 0 4.53-.29 7.27-.86.83-.13 1.66-.33 2.49-.58a26.3 26.3 0 0 0 4.33-1.8c1.14-.58 2.11-1.41 2.91-2.45.46-.6.72-1.28.81-2.09 0-.08.01-.27.05-.52v-.5c0-1.2-.34-2.39-1-3.54-.73-1.06-1.72-2.1-2.92-3.05-2.07-1.54-4.42-2.5-6.95-2.85-.33-.06-.62-.09-.9-.09-.63-.06-1.2-.09-1.78-.09-1.46 0-3.01.17-4.62.52-3.18.61-5.8 1.72-7.8 3.31-.46.33-.87.68-1.24 1.05l-.31.31-.42-.13c-1.98-.62-3.82-1.45-5.48-2.5Z" class="h"/><path d="m102.82 188.8 1.15-.8 13.43 12.17-6.28 8.84zm22.4 16.26-.07-.2c-.02-.06-.04-.11-.06-.16 0 0-.23-.32-1.36-.94-.11-.04-.28-.11-.43-.19l-.06-.03-4.41-3.47 9.82-11-.93 17.99-2.51-2.01Zm.48 18.65c-.63-1.23-1.23-2.47-1.79-3.67q-.615-.9-1.2-1.74h-.79l.3-.74c-.42-.61-.84-1.19-1.26-1.75l-.25-.33 3.91-9.55 3.04 2.36-.12 2.72c-.03 2.06-.12 4.15-.25 6.22l-.2 3.49c-.03.88-.05 1.77-.05 2.66l-1.36.33Zm-14.28-13.92.23-.33c.25-.35.52-.69.8-1.01.33-.46.75-.98 1.2-1.49l.61-.71.53.77c.86 1.26 2.41 3.51 4.65 6.77l.07.04.11.19c.22.38.48.79.77 1.2l.12.17.06 1.99v.07c-.44 2.43-.86 4.88-1.26 7.34l-.4 2.44-7.48-17.44Z" style="fill:#c0c5b3"/><path d="M103.19 105.45c-1.83 0-3.64-.35-5.37-1.05-2.05-.74-3.52-1.78-4.34-3.08l-.06-.1-.03-.11q-.045-.195-.06-.36a5.02 5.02 0 0 1-.18-3.25c.19-.77.63-1.54 1.31-2.3.19-.19.41-.29.63-.29h.08l.08.02c1 .23 2.18.41 3.51.54h.01c.08 0 .23.03.39.08l1.03.34-.71.81c-.16.18-.3.46-.4.82-.33 1.22-.2 2.15.4 2.83.28.33.61.48 1.05.51h.01c.49 0 .81-.13 1.11-.41.42-.31.68-.68.86-1.21.16-.54.2-1.09.12-1.66-.05-.28-.13-.53-.23-.73l-.55-1.09 1.22.05c1.02.04 2.03.07 3.03.07 1.99 0 3.97-.09 5.87-.26 2.41-.2 4.16-.46 5.21-.77.2-.04.3-.07.38-.09l.44-.15.32.33c.67.71 1.06 1.38 1.18 2.06.03.08.06.24.06.38-.04.55-.14 1.02-.29 1.45-.11.3-.26.62-.45.95-.27.39-.52.76-.78 1.15-.64.98-1.48 1.7-2.51 2.16-1.47.7-3 1.22-4.52 1.53-.07.03-.15.06-.25.09-2.02.43-4.45.67-7.31.74h-.27Zm29.33-1.3c-.68 0-1.33-.05-1.91-.16-2.46-.45-4.08-1.73-4.8-3.82-.06-.15-.14-.46-.19-1.45-.07-.73-.07-1.25.02-1.61l.15-.62.63.07c.38.04.79.07 1.21.07.75 0 1.57-.07 2.44-.21l1.89-.38-.63 1.31s-.04.09-.06.15c-.04.12-.1.41-.06 1.03.08.43.23.67.34.78.19.23.4.36.69.45.13.01.25.02.37.02.25 0 .47-.03.66-.1.09-.04.23-.1.36-.18.33-.21.64-.63.92-1.23.18-.5.29-1.02.29-1.5 0-.28-.04-.51-.1-.7l-.26-.69.69-.24c3.55-1.25 7.17-2.83 10.75-4.71.18-.09.35-.13.53-.13h.17l.15.08c.3.15.59.34.86.56.29.19.56.42.79.67.32.29.6.67.83 1.13.21.47.26.92.16 1.38-.47 1.54-1.21 2.9-2.2 4.1l-.75.75c-1.17 1.06-2.77 2.11-4.78 3.13-1.19.59-2.69 1.09-4.48 1.46-1.66.38-3.13.57-4.36.57h-.31Z" style="fill:#fff"/><path d="M88 72.15c-2.45 0-4.93-.12-7.38-.35-1.06-.14-2.12-.29-3.19-.46-1.04-.17-2.35-.42-3.89-.76-1.22-.3-2.58-.64-4.11-1l-6.37-1.7c-4.03-1.1-6.84-1.91-8.34-2.41-3.09-1.09-5.73-2.36-7.87-3.78-.59-.38-1.05-.8-1.37-1.24-.22-.17-.42-.33-.59-.5q-.24-.24-.42-.48l-.1-.13-.23-1.15.11-.22c.1-.2.21-.36.33-.49.37-.32.86-.53 1.55-.69 3.08-.8 6.91-1.21 11.35-1.21.79 0 1.61.01 2.44.04 4.29.27 7.84.42 10.59.45h.06l1.02.17.16.31c.02 0 .15.07.45.15 2.11.49 4.79.9 7.94 1.23 1.96.16 4.19.31 6.61.45h.06c6.44.33 11.91.5 16.28.5h1.17c5.74-.07 11.09-.42 15.91-1.05.5-.07.98-.13 1.44-.2.92-.16 1.84-.31 2.75-.45h.08l15.38 1.09c4.83.33 9.72.94 14.53 1.81.61.02 1.33.11 2.06.25 1.12.16 2.29.41 3.45.71 1.6.44 2.76 1 3.55 1.71.17.13.33.29.46.46l1.2 1.2-.94.03c-.11.43-.45.96-1.48 1.2l-3.23 1.13-.89-2.53-.15-.53.08-.22s-.06-.12-.09-.15a.4.4 0 0 0-.11-.08c-.71-.18-1.49-.34-2.29-.46h-.47c-.37 0-.75.02-1.15.06-1.03.04-2.53.15-4.5.35-.91.1-1.77.21-2.55.34l-.18.03-.17-.06c-.13-.04-.29-.06-.47-.06-3.92.23-9.33.92-16.03 2.04-1.27.17-2.56.38-3.88.65-.69.1-1.35.22-2 .35l-20.91 3.85c-2.37.6-4.82 1.05-7.24 1.36-2.79.3-5.6.46-8.38.46Zm4.66-25.9c-5.3 0-10.67-.22-15.98-.65l-.79-.06.84-4.73c.54-3 1.14-5.35 1.79-6.99 1.13-2.65 2.71-4.57 4.71-5.71l.52-.3.39.46c1.04 1.23 2.36 2.11 3.93 2.63.82.28 1.62.43 2.38.43.71 0 1.42-.12 2.1-.37 1.12-.37 2.61-1.4 4.46-3.06 4.62-4.05 8.6-7.01 11.83-8.79 4.92-2.68 9.73-4.04 14.3-4.04 2.04 0 3.55.37 4.62 1.13 1.7 1.18 2.71 3.5 3 6.87.33 3.83.23 8.42-.3 13.63-.2 1.72-.4 3.3-.6 4.77l-.06.45-4.98 1.64c-.21.06-.75.17-3.27.53-1.04.13-2.06.28-3.09.45-8.56 1.13-17.23 1.71-25.8 1.71m-7.08-11.89c-.07.07-.07.1-.07.12-.01.06-.04.27.3.82.7 1.23 1.67 2.3 2.91 3.2 1.88 1.37 4.14 2.07 6.72 2.07h.34c2.4 0 4.91-.59 7.47-1.74 2.33-1.04 4.01-2.32 5-3.79.55-.87.85-1.84.88-2.87q.03-1.11-.36-1.95c-.01.3-.01.65 0 1.04.04 1.01 0 1.74-.12 2.24-.28 1.03-.89 1.95-1.83 2.78-.65.58-1.56 1.12-2.69 1.62-3.07 1.52-5.99 2.3-8.65 2.3-.37 0-.74-.01-1.1-.04-1.8-.14-3.48-.66-5-1.55-1.63-.98-2.82-2.26-3.54-3.82-.11-.21-.2-.34-.26-.43" style="fill:#5a5f6b"/><path d="M102.47 58.15c-3.39 0-7.38-.1-11.87-.31-.88-.07-1.77-.12-2.69-.15-1.44-.07-3.16-.15-5.16-.25-2.32-.17-5.05-.33-8.1-.5l-.94-.05.3-.9c.06-.18.12-.41.18-.68l1.73-9.88.75.19c.37.09.8.17 1.27.23 4.94.56 10.37.84 16.12.84 5.41 0 11.26-.25 17.38-.75 2.67-.23 4.96-.48 6.81-.75l1.07-.2c.95-.16 1.88-.35 2.77-.54l5.26-1.27c.07-.04.14-.06.22-.08q.255-.09.54-.21l1.65-.5-.15 1.11c-.37 2.73-.65 4.96-.85 6.69-.19 1.89-.21 3.5-.05 4.78l.08.65-.64.14c-1.51.34-3.09.62-4.7.86-1.82.3-3.74.55-5.68.75-4.33.47-9 .72-13.87.75h-1.42Zm29.5 17.5v-.72q-.045-.705-.51-2.07l-.03-.08-.16-1.89c0-.09-.04-.34-.29-1.51-.09-.41-.2-.75-.34-1.03l-.4-.79.86-.22c.77-.2 1.59-.39 2.44-.56 3.15-.7 5.88-1.31 8.18-1.85.18-.04.39-.07.61-.07.26-.02 1.59-.18 6.2-.84 1.43-.17 3.03-.29 4.77-.36 1.17-.07 2.28-.11 3.27-.11.34 0 .66 0 .98.01.58 0 .72-.02.75-.03.09-.03.12-.07.12-.07l.77-2.11.66 2.44.88 2.49-1.36.48-26.52 8.89h-.89Z" style="fill:#3c414c"/><path d="M160.02 113.75c-1.47-1.66-2.04-2.93-1.78-3.99.03-.2.12-.52.27-.93l.08-.23.2-.13c.73-.47 1.64-.86 2.71-1.14 1.67-.56 3.72-1.1 6.03-1.61 2.3-.53 4.35-.91 6.07-1.11l.46-.05 6.41-.6h.17c.15 0 .28-.01.41-.04h.05l9.02-.46h.12c1.49-.06 2.93-.09 4.27-.09 1.67 0 3.23.05 4.63.14h.05c1.1.07 2.15.27 3.16.58 1.1.19.96 1.98.9 2.74-.07.47-.12.85-.15 1.21l-.06.66h-.76c-1.55-.13-3.43-.19-5.65-.19-2.5 0-5.5.08-8.92.24h-.13l-15.36 1.9-.95.19-.91.24c-4.94 1.21-8.04 2.23-9.23 3.05l-1.13.77v-1.14Z" style="fill:#d6dee8"/><path d="M189.14 237.78c-.27-1.77-.55-3.53-.85-5.3q-.345-2.205-.75-4.35c-.03-.2-.05-.4-.05-.6-.13-1.2-.3-2.43-.5-3.7-.03-.33-.08-.67-.15-1-.1-.4-.18-.78-.25-1.15-.1-.4-.18-.78-.25-1.15-.1-.43-.22-.87-.35-1.3l-.3-1.3c-1-3.73-2-7.45-3-11.15-.23-.83-.48-1.65-.75-2.45.2-.17.4-.35.6-.55 1.53-1.17 2.32-2.72 2.35-4.65.03-1.67-.52-3.15-1.65-4.45-.63-.7-1.3-1.33-2-1.9q-1.35-1.155-2.85-2.1c-1.77-1.1-3.57-2.13-5.4-3.1a74 74 0 0 0-8.5-3.9c-2.3-.93-4.72-1.83-7.25-2.7-2-.7-4.02-1.35-6.05-1.95-.77-.23-1.52-.47-2.25-.7-.8-.23-1.57-.5-2.3-.8-.27-.1-.5-.22-.7-.35-.27-.2-.53-.38-.8-.55-.6-.4-1.2-.78-1.8-1.15-.7-.43-1.38-.85-2.05-1.25-.8-.47-1.58-.93-2.35-1.4h5.6q2.895.105 5.7-.3c2.93-.27 5.92-.67 8.95-1.2 2.27-.53 4.53-1.05 6.8-1.55 1.07-.33 2.15-.65 3.25-.95 1.07-.37 2.13-.77 3.2-1.2a34 34 0 0 0 3.15-1.05c1.6-.7 3.18-1.42 4.75-2.15 1.53-.73 3.07-1.47 4.6-2.2.8-.43 1.58-.88 2.35-1.35.83-.4 1.65-.85 2.45-1.35 1.7-1.2 3.27-2.43 4.7-3.7 2.73-2.4 5.27-5.08 7.6-8.05.73-.97 1.47-1.93 2.2-2.9 2.07-2.93 3.85-5.97 5.35-9.1q1.395-2.955 2.4-6c.97-3.03 1.82-6.15 2.55-9.35.5-2.3.73-4.67.7-7.1 0-1.13-.03-2.23-.1-3.3-.07-.93-.1-1.85-.1-2.75 0-2.1-.38-4.15-1.15-6.15-.7-1.8-1.78-3.37-3.25-4.7-.5-.47-1.03-.85-1.6-1.15-.83-.57-1.73-.95-2.7-1.15-1.9-.57-3.77-.85-5.6-.85-1.5 0-2.98.02-4.45.05h-3.75c-1.3 0-2.58.02-3.85.05-1.9.1-3.83.17-5.8.2-3.93.33-7.9.67-11.9 1q-5.805.555-11.55 1.35-4.455.495-8.85 1.2c.83-1.7.82-3.57-.05-5.6q-.45-.705-1.05-1.35c-.2-.23-.43-.43-.7-.6.53-.37.98-.68 1.35-.95 1.23-1.03 1.92-2.07 2.05-3.1.03-.23.02-.42-.05-.55-.2-.2-.48-.13-.85.2-1.3 1.1-2.77 2.17-4.4 3.2-1.13-.57-2.43-.93-3.9-1.1-1.2-.17-2.43-.18-3.7-.05-1.23.1-2.47.32-3.7.65-.93.27-1.83.58-2.7.95-.4-3.9-.75-7.78-1.05-11.65-.03-.27-.05-.53-.05-.8l.15.7q8.295-1.905 16.5-4.35c1.73-.5 3.45-1.03 5.15-1.6.7-.23 1.42-.48 2.15-.75 4.27-1.53 7.35-2.88 9.25-4.05 1.33-.87 2.05-1.73 2.15-2.6.07-.47-.02-.92-.25-1.35-.13-.17-.27-.32-.4-.45-.4-.37-.83-.68-1.3-.95a46 46 0 0 0-6.15-2.7c-1.37-.43-2.82-.82-4.35-1.15-2.63-.6-6.25-1.13-10.85-1.6-3.33-.37-5.95-.53-7.85-.5-.49 0-2.33-.02-5.5-.05.34 0 .66-.02.95-.05h-.65c.13-1.43.28-2.57.45-3.4 1.57-8.43 2.35-16.87 2.35-25.3 0-2.63-.22-4.8-.65-6.5-.57-2.3-1.58-4.07-3.05-5.3q-3.255-2.595-9.15-1.95c-7.77.87-16 5.18-24.7 12.95-1.53 1.4-2.72 2.28-3.55 2.65-1.6.77-3.03.82-4.3.15-.4-.2-.92-.6-1.55-1.2s-1.15-1-1.55-1.2q-1.2-.555-2.7-.15c-.9.23-1.73.67-2.5 1.3-1.2 1.03-2.2 2.45-3 4.25-.57 1.23-1.12 2.92-1.65 5.05-1.03 4.03-1.85 8.22-2.45 12.55-.4 2.37-.55 4.4-.45 6.1-.03-.03-.07-.05-.1-.05-5.93-1.17-11.58-1.73-16.95-1.7-1.57.07-3.12.13-4.65.2-2 .27-3.23.47-3.7.6-.5.1-1.32.33-2.45.7-1.17.33-2.23 1.27-3.2 2.8-1 1.53.12 3.65 3.35 6.35 1.6 1.27 3.73 2.47 6.4 3.6 5.4 2.37 10.73 4.17 16 5.4-.1.1-.18.22-.25.35-1.13 2.03-2.25 4.08-3.35 6.15l-15.95 23.55c-1.7 2.73-3.42 5.45-5.15 8.15-2.17 3.3-4.17 6.68-6 10.15-1.77 3.33-2.85 6.8-3.25 10.4-.1 1-.12 2.02-.05 3.05.03.9.15 1.82.35 2.75.2.83.48 1.67.85 2.5.53 1.2 1.27 2.32 2.2 3.35 1.53 1.6 3.25 2.73 5.15 3.4 2.33.9 4.78 1.33 7.35 1.3 1.4 0 2.78-.12 4.15-.35.43-.13.87-.3 1.3-.5.93-.23 1.83-.55 2.7-.95.77-.23 1.52-.55 2.25-.95q1.155-.555 2.25-1.2.555-.345 1.05-.75c1.07-.9 2.1-1.83 3.1-2.8 1.17-1.17 2.32-2.35 3.45-3.55.43.57.87 1.15 1.3 1.75 1.53 1.9 3.17 3.73 4.9 5.5l1.7 1.7c.6.57 1.2 1.13 1.8 1.7.6.53 1.2 1.07 1.8 1.6l1.9 1.6c.63.47 1.27.95 1.9 1.45 1.67 1.2 3.35 2.37 5.05 3.5 1.67 1.13 3.35 2.25 5.05 3.35l.85 8.85c-1.07.67-2.13 1.35-3.2 2.05-1.87 1.3-3.75 2.58-5.65 3.85-.97.67-1.95 1.3-2.95 1.9-.8.53-1.63 1-2.5 1.4-1.6.6-3.12 1.23-4.55 1.9-1.7.77-3.42 1.53-5.15 2.3a96 96 0 0 0-4.8 2.25c-2.03 1.13-4 2.2-5.9 3.2q-5.49 2.85-10.8 6.45c-3.51 2.4-5.51 5.13-6 8.2-.49 3.1 1.25 4.98 5.2 5.65l-2.15 5.3a44 44 0 0 0-1.55 4.5c-.15.53-.3 1.04-.45 1.56 1.13 1.82 2.3 3.62 3.53 5.39.51-1.63 1.01-3.27 1.52-4.95.23-.8.5-1.6.8-2.4.17-.47.33-.93.5-1.4q.465-1.35.9-2.7l2.5-6.85c-1.4-.4-2.73-.9-4-1.5q-2.505-1.095-.9-3.6c1.6-2.47 3.72-4.45 6.35-5.95 3.5-2.07 6.98-3.97 10.45-5.7 1.07-.53 2.15-1.08 3.25-1.65.87-.43 1.75-.87 2.65-1.3-.63.8-1.25 1.62-1.85 2.45a19.6 19.6 0 0 0-3.65 7.55c-.17.73-.27 1.47-.3 2.2-.07.8 0 1.58.2 2.35q.255 1.005.9 1.8c.4.47.88.83 1.45 1.1.83.47 1.75.77 2.75.9h2.1c.4-.03.8-.07 1.2-.1 1.07-.07 2.15-.12 3.25-.15a177 177 0 0 1 9.5-.05c3.13.2 6.25.4 9.35.6l3 .3c-.47.87-.95 1.72-1.45 2.55-2.47 4.2-4.48 8.6-6.05 13.2a32 32 0 0 0-.85 3.2c-.13.6-.13 1.22 0 1.85.1.4.32.77.65 1.1.53.47 1.2.78 2 .95.93.1 1.88.23 2.85.4.57-.03 1.13-.03 1.7 0 .63-.07 1.27-.1 1.9-.1 2.23 0 4.43.02 6.6.05q4.05.045 7.95 1.05c.23.03.47.08.7.15q.495 1.095 1.05 2.25c.63 1.4 1.3 2.82 2 4.25.63 1.37 1.28 2.73 1.95 4.1q1.395 3 2.85 5.85c.67 1.27 1.25 2.57 1.75 3.9.17.5.25 1.03.25 1.6-.03 1.57-.07 3.13-.1 4.7-.03 2.8-.05 5.58-.05 8.35 0 1.21.02 2.44.03 3.67h.23c1.29 0 2.57-.03 3.85-.08.02-.67.04-1.34.04-1.99.03-.97.05-1.93.05-2.9.03-1.17.05-2.32.05-3.45q.045-3.105 0-6.3v-12.45c0-1.27-.02-2.53-.05-3.8q-.045-2.25 0-4.5c.07-1.53.08-3.07.05-4.6q.195-.105.45-.15l13.5-4.2c.7-.23 1.22-.65 1.55-1.25.2-.4.35-.82.45-1.25.07-.33.08-.65.05-.95-.07-.87-.17-1.73-.3-2.6-.1-.77-.23-1.53-.4-2.3a7.5 7.5 0 0 0-1.2-2.85c-1.5-2.17-2.98-4.4-4.45-6.7 1.43-.23 2.87-.45 4.3-.65 1.4-.2 2.82-.4 4.25-.6 1.43-.17 2.87-.32 4.3-.45s2.87-.27 4.3-.4c.57-.07 1.15-.13 1.75-.2.53-.13.98-.45 1.35-.95.23-.3.4-.6.5-.9.07-.23.1-.45.1-.65.03-.23.05-.45.05-.65-.07-.57-.18-1.1-.35-1.6-.3-1.03-.62-2.03-.95-3-1-2.83-2.23-5.57-3.7-8.2-.63-1.1-1.38-2.13-2.25-3.1.87.3 1.73.62 2.6.95 1.67.63 3.33 1.3 5 2 1.7.63 3.37 1.33 5 2.1 1.63.7 3.27 1.43 4.9 2.2 1.17.6 2.33 1.22 3.5 1.85.67.4 1.33.8 2 1.2.53.37 1.05.77 1.55 1.2.6.5 1.18 1.03 1.75 1.6.47.5.75 1.07.85 1.7q.105.495 0 1.05c-.03.17-.12.33-.25.5-.37.43-.75.85-1.15 1.25-.43.47-.85.93-1.25 1.4-.27.3-.47.62-.6.95-.1.37-.1.73 0 1.1.1.3.3.53.6.7.2.13.33.28.4.45.07.2.05.33-.05.4l.6 2.1c.33 1.33.65 2.68.95 4.05.13.6.28 1.23.45 1.9.43 1.93.87 3.88 1.3 5.85.5 2.23.95 4.5 1.35 6.8.23 1.23.45 2.48.65 3.75.23 1.3.45 2.62.65 3.95l.6 4.3c.2 1.5.4 3.02.6 4.55.04.29.07.58.11.87 1.28-1.15 2.55-2.33 3.8-3.57l-.06-.45c-.13-1.03-.27-2.05-.4-3.05m-114.75-109c1.13-2.07 2.08-4.18 2.85-6.35.27-.73.52-1.47.75-2.2.27-.73.52-1.47.75-2.2.2-.77.38-1.53.55-2.3.33-1.57.65-3.12.95-4.65.43-2.3.68-4.63.75-7 .07-1.53.08-3.07.05-4.6-.07-1.57-.18-3.12-.35-4.65-.1-1-.27-1.97-.5-2.9-.07-.23-.18-.45-.35-.65-.13 0-.2.02-.2.05-.13.57-.23 1.15-.3 1.75-.1.8-.22 1.6-.35 2.4-.23 1.63-.5 3.27-.8 4.9q-.405 2.25-.9 4.5c-.13.7-.28 1.42-.45 2.15-.13.67-.28 1.33-.45 2-.37 1.23-.73 2.47-1.1 3.7-.47 1.47-.97 2.93-1.5 4.4-.5 1.4-1.02 2.8-1.55 4.2a53.6 53.6 0 0 1-3.75 7.5 43 43 0 0 1-4.35 5.95 21.6 21.6 0 0 1-4.9 4.15c-.97.6-1.97 1.17-3 1.7q-.75.405-1.5.75c-.57.17-1.12.33-1.65.5-.57.13-1.13.28-1.7.45-.6.07-1.18.13-1.75.2-1.9.1-3.72-.07-5.45-.5-1.3-.43-2.42-1.08-3.35-1.95-.23-.23-.43-.45-.6-.65-.23-.27-.43-.53-.6-.8-.3-.6-.57-1.22-.8-1.85-.5-1.47-.67-2.98-.5-4.55.2-2.1.72-4.12 1.55-6.05q1.455-3.405 3.3-6.6c.77-1.33 1.52-2.6 2.25-3.8 3.13-5.23 6.3-10.33 9.5-15.3 2-3.17 3.97-6.38 5.9-9.65q1.455-2.505 2.85-4.95c.93-1.57 1.88-3.18 2.85-4.85.43-.77.85-1.52 1.25-2.25.6-1.03 1.18-2.07 1.75-3.1.4-.7.83-1.4 1.3-2.1 2.17.4 4.32.68 6.45.85q.345.045.75.15c4.6.67 9.2.98 13.8.95q7.8-.555 15.3-2.4c5.43-1.27 10.9-2.43 16.4-3.5 1.17-.27 2.45-.53 3.85-.8.03.27.08.55.15.85q.15.945.3 1.95c.1.77.18 1.55.25 2.35.13 1.23.25 2.48.35 3.75.23 2.43.47 4.93.7 7.5.17 1.77.33 3.53.5 5.3-.33.2-.67.42-1 .65-2.03 1.47-3.35 3.03-3.95 4.7-.2.53-.32 1.4-.35 2.6v1c.77 3.6 2.77 5.63 6 6.1 2.73.5 5.43.38 8.1-.35 1.9-.47 3.72-1.17 5.45-2.1 1.23-.13 2.47-.27 3.7-.4 1.6-.1 3.25-.27 4.95-.5.87-.1 1.73-.18 2.6-.25.67-.07 1.35-.13 2.05-.2 1.43-.2 2.8-.32 4.1-.35 3.33-.3 6.7-.6 10.1-.9 1.47-.1 2.95-.2 4.45-.3 1.93-.13 3.87-.27 5.8-.4q3-.255 6-.45c.73-.07 1.47-.13 2.2-.2 1.47-.1 2.93-.18 4.4-.25 2.8-.07 5.58 0 8.35.2.43.07.87.18 1.3.35.43.07.83.23 1.2.5q1.05.6 1.8 1.5c.5.67.9 1.43 1.2 2.3.5 1.27.77 2.6.8 4 .03 1.47.03 2.9 0 4.3q-.045.75-.15 1.5c-.1 1.07-.23 2.13-.4 3.2-.2 1.2-.45 2.38-.75 3.55-.6 2.37-1.25 4.73-1.95 7.1s-1.72 4.82-3.05 7.35c-1.37 2.5-2.68 4.63-3.95 6.4-1.3 1.77-2.83 3.55-4.6 5.35s-3.22 3.23-4.35 4.3c-.13-.67-.27-1.33-.4-2q-.195-1.05-.45-2.1-.195-.705-.45-1.35c-.13-.3-.3-.58-.5-.85-.27-.33-.55-.63-.85-.9-.6-.43-1.2-.52-1.8-.25-.47.3-.9.65-1.3 1.05-.53.5-1 1.05-1.4 1.65-.57.83-1.1 1.68-1.6 2.55l-.8 1.5c-.07-.3-.13-.58-.2-.85-.13-.57-.25-1.15-.35-1.75-.13-.83-.53-1.62-1.2-2.35-.17-.2-.35-.38-.55-.55-.27-.13-.53-.25-.8-.35h-.75c-.53.2-1.05.43-1.55.7-.9.6-1.68 1.42-2.35 2.45q-.795 1.245-1.5 2.55c-.7 1.3-1.33 2.65-1.9 4.05-.53 1.33-1 2.72-1.4 4.15-.43 1.47-.82 2.95-1.15 4.45-.87.23-1.73.42-2.6.55-1.83.53-3.72.92-5.65 1.15q-2.205.3-4.35.6c-1.73.13-3.45.3-5.15.5-1.43-.07-2.85-.1-4.25-.1-1.23-.07-2.47-.13-3.7-.2-1.27-.13-2.53-.27-3.8-.4-1.87-.37-3.72-.65-5.55-.85-1.1-.2-2.18-.4-3.25-.6-1.93-.37-3.85-.73-5.75-1.1-1.63-.37-3.25-.73-4.85-1.1q-2.655-.645-5.25-1.5c-.7-.2-1.38-.43-2.05-.7-1.27-.4-2.5-.82-3.7-1.25-.93-.43-1.87-.87-2.8-1.3-.93-.5-1.85-1.02-2.75-1.55-1.03-.5-2.03-1.02-3-1.55q-2.505-1.455-4.95-2.85c-1.1-.67-2.27-1.43-3.5-2.3-1.43-.93-2.82-1.9-4.15-2.9-1.23-.97-2.42-1.97-3.55-3-1.2-1.13-2.37-2.28-3.5-3.45-1.3-1.33-2.57-2.67-3.8-4l-2.1-2.45c.63-1.17 1.28-2.33 1.95-3.5M45.04 59.03l-.15-.75c.07-.13.13-.23.2-.3.23-.2.63-.37 1.2-.5 3.6-.93 8.13-1.32 13.6-1.15 4.3.27 7.83.42 10.6.45.2.03.4.07.6.1.1.2.4.37.9.5 2.17.5 4.85.92 8.05 1.25 2 .17 4.22.32 6.65.45h.1c7.03.37 12.85.53 17.45.5 5.8-.07 11.13-.42 16-1.05.5-.07.98-.13 1.45-.2.93-.17 1.85-.32 2.75-.45l15.3 1.1c4.83.33 9.65.93 14.45 1.8.67.03 1.35.12 2.05.25 1.13.17 2.27.4 3.4.7 1.47.4 2.55.92 3.25 1.55.17.13.3.27.4.4l.05.05h-.05c.1.17.13.33.1.5-.07.33-.38.57-.95.7l-2.62.91-.68.24-26.4 8.85h-.05v-.05c-.03-.53-.22-1.28-.55-2.25l-.15-1.8c0-.13-.1-.67-.3-1.6-.1-.47-.23-.87-.4-1.2.77-.2 1.57-.38 2.4-.55 3.17-.7 5.9-1.32 8.2-1.85.13-.03.28-.05.45-.05.47-.03 2.57-.32 6.3-.85 1.4-.17 2.97-.28 4.7-.35 1.57-.1 2.97-.13 4.2-.1.53 0 .85-.02.95-.05.33-.11.53-.28.61-.5.02-.05.04-.1.04-.15q.045-.405-.3-.75c-.1-.1-.22-.18-.35-.25-.77-.2-1.58-.37-2.45-.5-.57-.03-1.17-.02-1.8.05-1 .03-2.5.15-4.5.35-.93.1-1.8.22-2.6.35-.2-.07-.43-.1-.7-.1-4 .23-9.38.92-16.15 2.05-1.27.17-2.57.38-3.9.65-.67.1-1.33.22-2 .35l-20.9 3.85q-3.6.9-7.2 1.35c-5.2.57-10.4.6-15.6.1q-1.545-.195-3.15-.45c-1.03-.17-2.32-.42-3.85-.75-1.2-.3-2.57-.63-4.1-1-1.87-.5-3.98-1.07-6.35-1.7-4.03-1.1-6.8-1.9-8.3-2.4-3.03-1.07-5.6-2.3-7.7-3.7-.57-.37-.98-.75-1.25-1.15a5 5 0 0 1-.6-.5c-.13-.13-.25-.27-.35-.4m32.4-18.1c.53-2.97 1.12-5.25 1.75-6.85 1.07-2.5 2.53-4.28 4.4-5.35 1.13 1.33 2.55 2.28 4.25 2.85 1.73.6 3.38.62 4.95.05 1.2-.4 2.77-1.47 4.7-3.2q6.9-6.045 11.7-8.7c4.83-2.63 9.48-3.95 13.95-3.95 1.87 0 3.27.33 4.2 1 1.53 1.07 2.43 3.18 2.7 6.35q.495 5.7-.3 13.5c-.2 1.7-.4 3.28-.6 4.75l-4.55 1.5c-.23.07-1.28.23-3.15.5-1.03.13-2.07.28-3.1.45-13.83 1.83-27.7 2.18-41.6 1.05zm.4 5.65c9.7 1.1 20.92 1.13 33.65.1 2.7-.23 4.98-.48 6.85-.75.37-.07.73-.13 1.1-.2.97-.17 1.9-.35 2.8-.55l5.4-1.3s.07-.05.1-.05c.2-.07.42-.15.65-.25l.5-.15c-.37 2.73-.65 4.97-.85 6.7-.2 1.97-.22 3.62-.05 4.95-1.5.33-3.05.62-4.65.85-1.83.3-3.72.55-5.65.75q-6.495.705-13.8.75c-3.7.03-8.12-.07-13.25-.3q-1.305-.105-2.7-.15c-1.43-.07-3.15-.15-5.15-.25-2.33-.17-5.03-.33-8.1-.5.07-.2.13-.45.2-.75l1.6-9.15c.4.1.85.18 1.35.25m70.85 47.4c-.43 1.4-1.12 2.67-2.05 3.8l-.7.7c-1.1 1-2.63 2-4.6 3-1.13.57-2.57 1.03-4.3 1.4-1.77.4-3.27.58-4.5.55q-1.005 0-1.8-.15c-2.2-.4-3.62-1.52-4.25-3.35-.07-.17-.12-.58-.15-1.25-.07-.67-.07-1.13 0-1.4 1.13.13 2.42.08 3.85-.15.17-.03.33-.07.5-.1-.03.07-.07.15-.1.25-.1.3-.13.73-.1 1.3.1.57.28.98.55 1.25.23.3.58.52 1.05.65.53.07 1 .03 1.4-.1.17-.07.33-.15.5-.25.47-.3.87-.82 1.2-1.55.23-.63.35-1.23.35-1.8 0-.37-.05-.68-.15-.95 3.6-1.27 7.22-2.85 10.85-4.75.07-.03.13-.05.2-.05.27.13.52.3.75.5.27.17.5.37.7.6.27.23.5.55.7.95.13.3.17.6.1.9m-5-3.9c-1.77.87-4.5 2.03-8.2 3.5-.77.3-1.45.55-2.05.75-.93.33-1.7.58-2.3.75-.3.07-.67.13-1.1.2-.73.13-1.65.25-2.75.35l-.55.1c.37-.7 1-1.38 1.9-2.05.37-.3.77-.58 1.2-.85q1.455-.945 3.3-1.65c.47-.17.97-.33 1.5-.5 2.43-.8 4.6-1.15 6.5-1.05 1 .03 1.95.15 2.85.35-.1.03-.2.07-.3.1m30.65 69.75c-.9.33-1.78.68-2.65 1.05-1.13.37-2.27.75-3.4 1.15.6-2.57 1.4-5.13 2.4-7.7q1.395-3.6 3.9-6.6c.27-.33.57-.67.9-1 .13-.1.27-.18.4-.25.3-.07.6-.13.9-.2.23.3.42.63.55 1 .33.83.58 1.7.75 2.6.17 1 .33 2.02.5 3.05 0 .1.02.22.05.35s.1.28.2.45c.1.2.23.4.4.6l.85.05c.17-.17.32-.33.45-.5q.75-1.005 1.2-2.4c.67-2 1.65-3.82 2.95-5.45.1-.13.22-.27.35-.4.13-.07.27-.13.4-.2.2-.03.42-.07.65-.1l.25.25c.07.03.13.1.2.2q.105.195.15.45c.33 2.03.65 4.1.95 6.2-.8.57-1.6 1.13-2.4 1.7-1.07.67-2.15 1.33-3.25 2-.23.07-.47.15-.7.25-.97.5-1.95.95-2.95 1.35-1.43.6-2.75 1.3-3.95 2.1zm-36.8 42.15c-.6.17-1.13.45-1.6.85-.33.3-.55.68-.65 1.15-.07.43-.03.88.1 1.35.2.57.5 1.08.9 1.55.73.83 1.47 1.68 2.2 2.55.67.77 1.28 1.57 1.85 2.4q.405.555.75 1.2c.345.645.45.88.65 1.35.6 1.4 1.1 2.83 1.5 4.3.13.5.12 1.03-.05 1.6-.13.47-.4.8-.8 1-.4.17-.82.3-1.25.4-3.57 1.3-7.13 2.57-10.7 3.8.03-.7.07-1.38.1-2.05.07-1.33.12-2.65.15-3.95.07-1.87.13-3.73.2-5.6.03-1.17.07-2.33.1-3.5.07-1.33.12-2.65.15-3.95.07-1.87.13-3.72.2-5.55.03-1.07.07-2.13.1-3.2.07-1.8.13-3.6.2-5.4.03-1.37.05-2.72.05-4.05.03-1.63.08-3.32.15-5.05q.045-2.445-.3-4.65l.05-4.2c1.07.43 2.12.9 3.15 1.4 1.07.57 2.15 1.15 3.25 1.75.63.37 1.27.73 1.9 1.1 1.13.73 2.25 1.5 3.35 2.3 1.57 1.13 2.98 2.27 4.25 3.4 1.43 1.27 2.77 2.7 4 4.3 2.4 3.07 3.93 6.52 4.6 10.35l-17.4 2.6c-.4.1-.78.25-1.15.45m-21.1-1.7-5.15 7.25-7.8-19zm-3.45 8.65q.555-.75 1.2-1.5c.87 1.27 2.43 3.55 4.7 6.85 0 .03.03.07.1.1.23.4.5.82.8 1.25l.05 1.7c-.43 2.43-.85 4.88-1.25 7.35l-6.35-14.8c.23-.33.48-.65.75-.95m2.8-12.7c-1.23-1.13-2.47-2.25-3.7-3.35-1.33-1.2-2.67-2.38-4-3.55q-2.1-1.755-4.2-3.45l-2.65-2.45-2.45-22.05c.53.27 1.07.53 1.6.8 3.27 1.5 6.52 2.87 9.75 4.1 2.2.83 4.4 1.67 6.6 2.5q5.445 1.995 11.1 3l.25 15.3-10.05 11.2c-.77-.7-1.52-1.38-2.25-2.05m-19.9-23.2c.33 5.07.57 7.8.7 8.2 5.6 12.97 8.48 19.75 8.65 20.35.8 2.9 1.82 5.83 3.05 8.8 1.73 4.2 3.52 8.37 5.35 12.5.4.93.82 1.88 1.25 2.85-.17-.03-.33-.05-.5-.05-3.63-.83-7.32-1.2-11.05-1.1a46.5 46.5 0 0 1-5.95-.3c-.73-.13-1.45-.25-2.15-.35q.555-2.7 1.95-5.25c1.53-2.87 3.05-5.75 4.55-8.65.27-.53.52-1.05.75-1.55q.255-.6.45-1.2c.17-.5.28-1.02.35-1.55.07-.77 0-1.5-.2-2.2-.3-1.07-1.03-1.67-2.2-1.8-4.6-.23-9.27-.5-14-.8-5.03-.17-10.05-.27-15.05-.3h-.5q-.6-.75-.6-1.65c-.03-.77.08-1.53.35-2.3.47-1.33 1.1-2.55 1.9-3.65q1.35-1.845 2.7-3.6 1.395-1.755 2.85-3.45 2.355-2.7 5.1-4.65c.3-.23.68-.55 1.15-.95 1.1-.97 2.27-1.87 3.5-2.7 1.57-1 3.17-1.92 4.8-2.75.73-.4 1.43-.87 2.1-1.4.23-.17.47-.33.7-.5m30.95 37.95c-.03 2.07-.12 4.13-.25 6.2-.07 1.17-.13 2.33-.2 3.5-.03.9-.05 1.8-.05 2.7-.63-1.23-1.23-2.47-1.8-3.7-.5-.73-.98-1.43-1.45-2.1h-.1l.05-.1q-.75-1.095-1.5-2.1l3.4-8.3 2 1.55c-.03.77-.07 1.55-.1 2.35m-1-6.35c-.03-.1-.07-.18-.1-.25-.2-.33-.75-.75-1.65-1.25-.17-.07-.32-.13-.45-.2l-3.75-2.95 7.95-8.9-.75 14.55z"/><path d="M122.69 256.08q-.405-1.695-.9-2.4c-.53-.83-1.22-1.3-2.05-1.4-.97-.1-1.83.32-2.6 1.25q-.75.9-1.2 2.7l-.55 2.3c-.17.73-.25 1.4-.25 2-.03.3-.02.75.05 1.35.1 1.4.27 2.65.5 3.75.12.61.26 1.14.42 1.62 2.08.23 4.18.38 6.31.47.24-.63.43-1.42.57-2.38.43-3.43.33-6.52-.3-9.25Zm-3.35 11.15-.35-.1a5.9 5.9 0 0 1-1.35-1.6l-.45-.9c-.07-.17-.1-.43-.1-.8l-.15-3.55c.03-.77.32-1.88.85-3.35.37-1.07.78-1.75 1.25-2.05.23-.17.43-.2.6-.1.6 1.3.97 3.12 1.1 5.45.13 2.87-.25 5.12-1.15 6.75zm-41.35-21.8a57 57 0 0 1-2.4-6.85q-.105-.3-.15-.6c-.1-.33-.18-.67-.25-1-.13-.47-.25-.92-.35-1.35-.17-.6-.25-1.2-.25-1.8.03-.9.15-1.8.35-2.7.13-.73.28-1.47.45-2.2.07-.37.13-.72.2-1.05.07-.37.13-.72.2-1.05.17-.7.25-1.35.25-1.95 0-1-.23-1.95-.7-2.85-.17-.3-.32-.58-.45-.85-.2.23-.35.5-.45.8a49 49 0 0 0-1.25 3.9c-.23.83-.47 1.68-.7 2.55l-1.2 4.9-.7 2.9c-.47 1.9-.9 3.8-1.3 5.7-.31 1.38-.63 2.73-.96 4.07 1.01.87 2.02 1.72 3.05 2.54.07-.35.14-.71.21-1.07l.9-4.4c.17.4.35.82.55 1.25.3.73.62 1.47.95 2.2.23.57.47 1.15.7 1.75.5 1.27 1.03 2.47 1.6 3.6.08.17.16.33.24.49 2.22 1.54 4.48 2.97 6.78 4.27-1.07-2.19-2.15-4.4-3.22-6.57a91 91 0 0 1-2.1-4.65Zm83.8 7.85c-.07-.4-.1-.8-.1-1.2.17-.13.3-.28.4-.45q.6-.855 1.05-1.8c.2-.4.38-.8.55-1.2.33-.77.68-1.53 1.05-2.3.5-1.17.97-2.33 1.4-3.5.43-1.03.8-2.08 1.1-3.15.53-1.8.82-3.63.85-5.5 0-1.27-.02-2.52-.05-3.75-.03-.63-.1-1.27-.2-1.9-.23-1.27-.52-2.52-.85-3.75s-.7-2.45-1.1-3.65c-.6-1.8-1.47-3.47-2.6-5-.77-1-1.58-1.95-2.45-2.85a9 9 0 0 0-2.5-1.85c-.67-.3-1.38-.48-2.15-.55 2.13 3.23 3.97 6.58 5.5 10.05.4.9.78 1.83 1.15 2.8.57 1.5.93 3.05 1.1 4.65.1 1 .18 2 .25 3 .03.47.03.95 0 1.45-.1 1.1-.23 2.22-.4 3.35-.37 2.13-1 4.17-1.9 6.1a305 305 0 0 1-1.55 3.25c-.73 1.43-1.48 2.87-2.25 4.3q-3.6 6.6-7.05 13.35c-.23.47-.44.95-.64 1.44 1.78-.49 3.54-1.04 5.27-1.65.42-.84 3.17-4.89 3.17-4.89.21 1.13.44 2.27.68 3.42 1.28-.52 2.56-1.08 3.82-1.67-.27-1.32-.57-2.6-.9-3.8-.27-.9-.48-1.82-.65-2.75M88.84 93.08c.97.67 2.05 1.25 3.25 1.75-.07.07-.13.15-.2.25-.43.8-.68 1.63-.75 2.5-.07.8-.03 1.6.1 2.4.6 2.03 1.48 3.6 2.65 4.7 1 .97 2.52 1.78 4.55 2.45 2.93.97 7.03.9 12.3-.2q1.245-.195 2.55-.6c1.5-.47 2.98-1.08 4.45-1.85 1.23-.63 2.28-1.52 3.15-2.65.53-.7.85-1.52.95-2.45 0-.13.02-.32.05-.55v-.55c0-1.33-.37-2.63-1.1-3.9-.8-1.17-1.83-2.25-3.1-3.25-2.2-1.63-4.63-2.63-7.3-3-.33-.07-.67-.1-1-.1-2.03-.2-4.22-.05-6.55.45q-4.95.945-8.1 3.45c-.47.33-.9.7-1.3 1.1q-3.705-1.155-6.6-3.3c-.23-.17-.42-.22-.55-.15-.23.13-.23.45 0 .95q.9 1.395 2.55 2.55m6.25 2.55c1.03.23 2.23.42 3.6.55.07 0 .15.02.25.05-.23.27-.42.63-.55 1.1-.4 1.47-.22 2.63.55 3.5.4.47.92.72 1.55.75s1.18-.17 1.65-.6q.705-.495 1.05-1.5c.2-.67.25-1.33.15-2-.07-.37-.17-.68-.3-.95 3.1.13 6.1.07 9-.2 2.47-.2 4.25-.47 5.35-.8.17-.03.3-.07.4-.1.57.6.9 1.17 1 1.7.03.1.05.18.05.25-.03.43-.12.83-.25 1.2-.1.27-.23.55-.4.85-.23.33-.48.7-.75 1.1-.57.87-1.3 1.5-2.2 1.9-1.47.7-2.95 1.2-4.45 1.5-.07.03-.15.07-.25.1-1.9.4-4.27.63-7.1.7-1.83.03-3.62-.3-5.35-1-1.93-.7-3.27-1.63-4-2.8-.03-.13-.05-.25-.05-.35-.4-.93-.47-1.9-.2-2.9.17-.67.55-1.33 1.15-2 .03-.03.07-.05.1-.05m11.3-1.05c-3.63 0-6.7-.22-9.2-.65 1.5-1 3.42-1.72 5.75-2.15 2.7-.53 5.18-.58 7.45-.15 2.2.4 4.15 1.23 5.85 2.5-2.6.33-5.88.48-9.85.45m39 44.75c.2 0 .43-.07.7-.2.53-.27 1.32-.85 2.35-1.75 1-.93 1.62-1.57 1.85-1.9.2-.37.28-.72.25-1.05-.07-.4-.25-.65-.55-.75h-.15c-.23-.03-.6.05-1.1.25-.57.17-1.25.58-2.05 1.25-.8.63-1.38 1.37-1.75 2.2-.37.8-.42 1.37-.15 1.7.17.17.37.25.6.25m14.35-7.65c-.97-.03-2 .37-3.1 1.2-1.23.9-2 1.67-2.3 2.3-.4.6-.53.97-.4 1.1.1.17.33.32.7.45.12.03.24.05.35.05h.12c.53 0 1.21-.32 2.08-.99 1.07-.87 1.77-1.43 2.1-1.7q.495-.45.9-1.05.345-.6 0-1.35-.195-.045-.45 0Zm-10.45-3.15h.25c.37 0 .82-.12 1.35-.35.8-.37 1.45-.73 1.95-1.1.47-.4.88-.77 1.25-1.1.4-.37.67-.67.8-.9.1-.2.17-.37.2-.5.03-.27-.02-.5-.15-.7-.2-.33-.47-.52-.8-.55h-.2c-.13-.03-.25-.02-.35.05-.63.03-1.35.35-2.15.95-.83.6-1.7 1.33-2.6 2.2-.27.23-.43.48-.5.75q-.045.045 0 .15c-.07.2 0 .42.2.65q.255.345.75.45m5.5-15.6c.03.1.15.5.35 1.2.17.67.85 1.88 2.05 3.65 1.17 1.73 2.72 3.4 4.65 5 1.93 1.57 3.97 3.03 6.1 4.4 2.17 1.33 4.68 2.52 7.55 3.55s4.97 1.55 6.3 1.55h.1l2.65-.2.25-.05q.435-.075.75-.15c1.67-.47 3.8-1.57 6.4-3.3 2.47-1.6 4.87-3.82 7.2-6.65 2.33-2.77 4.07-5.42 5.2-7.95.63-1.47 1.03-3.43 1.2-5.9.13-2.33.07-3.73-.2-4.2-.47-.73-1.7-1.33-3.7-1.8-.23-.05-.5-.1-.8-.15l-5.05-.35h-.1l-7.65.15c-.2 0-.4.02-.6.05-.2 0-.4.02-.6.05l-4.85.35h-.1l-10.05.85c-.4.03-.77.08-1.1.15-2.47.37-4.02.63-4.65.8-.67.13-2.52.55-5.55 1.25-3.03.67-4.97 1.95-5.8 3.85-.33 1.07-.32 2.32.05 3.75-.03 0-.03.03 0 .1m19.35-7.65 6.4-.6h.1c.2 0 .38-.02.55-.05l8.95-.45h.1c3.4-.13 6.35-.12 8.85.05h.1c1 .07 1.98.25 2.95.55.37.07.5.73.4 2q-.105.645-.15 1.2h-.1c-3.23-.27-8.1-.25-14.6.05h-.1l-15.45 1.9-1 .2c-.32.08-.63.17-.95.25q-7.545 1.845-9.45 3.15v-.05c-1.4-1.53-2-2.72-1.8-3.55.03-.2.12-.48.25-.85.67-.43 1.5-.78 2.5-1.05 1.7-.57 3.7-1.1 6-1.6 2.3-.53 4.3-.9 6-1.1.15-.02.3-.03.45-.05m-70.6-65.8c2.47-1.1 4.23-2.45 5.3-4.05.63-1 .97-2.08 1-3.25.03-1.23-.28-2.27-.95-3.1-.17-.17-.32-.25-.45-.25-.13.03-.23.17-.3.4-.1.47-.13 1.15-.1 2.05.03.93 0 1.62-.1 2.05-.23.87-.77 1.67-1.6 2.4-.6.53-1.43 1.03-2.5 1.5-3.43 1.7-6.57 2.43-9.4 2.2-1.7-.13-3.27-.62-4.7-1.45-1.5-.9-2.58-2.07-3.25-3.5q-.45-.855-.75-.9a.68.68 0 0 0-.6.2c-.2.17-.32.37-.35.6-.07.33.07.77.4 1.3.73 1.3 1.77 2.43 3.1 3.4 2.1 1.53 4.6 2.27 7.5 2.2 2.5 0 5.08-.6 7.75-1.8"/></svg>