<svg xmlns="http://www.w3.org/2000/svg" id="a" viewBox="35.42 30.46 207.2 185.05"><defs><style>.o{fill:#ac9161}</style></defs><path id="b" d="M217.28 65.75c-17.9-15.59-40.92-23.48-69.05-23.67-28.06-.1-53.12 7.44-75.17 22.61-21.83 15.2-34.19 33.72-37.08 55.55-2.76 21.73 4.77 40.34 22.61 55.84 17.97 15.46 40.98 23.32 69.05 23.58 28.13.13 53.15-7.39 75.07-22.57 21.92-15.3 34.33-33.8 37.22-55.5 2.8-21.79-4.76-40.41-22.66-55.84Z" style="fill:#161b29"/><path id="c" d="M77.26 66.66c-20.73 14.14-32.45 31.28-35.15 51.4-2.67 20.19 4.48 37.45 21.46 51.79 16.97 14.37 38.75 21.62 65.33 21.75 26.62.23 50.29-6.73 71.02-20.88 20.8-14.14 32.55-31.28 35.25-51.4 2.67-20.19-4.48-37.45-21.46-51.79-16.97-14.34-38.77-21.59-65.38-21.75q-39.87-.285-71.07 20.88" style="fill:#5d6788"/><g id="d"><path d="m140.05 71.2.6 2.9c-.77-.77-1.58-1.47-2.45-2.1-3.17-2.4-6.55-3.9-10.15-4.5-2.17-.37-5.18-.42-9.05-.15-4.8.33-8.43.87-10.9 1.6-1.77.5-4.02 1.37-6.75 2.6-4.27 2-7.78 3.73-10.55 5.2-1.47.77-2.7 1.52-3.7 2.25.2-.37.32-.72.35-1.05q.105-.555-.15-1.05c-.2-.37-.45-.6-.75-.7-.77-.23-1.55.2-2.35 1.3-9.93 13.33-16.62 30.22-20.05 50.65q-1.095 6.75-1.2 11.4v.75c-.23 2.33-.38 4.7-.45 7.1-.13 3.63.25 6.42 1.15 8.35.63 1.43 1.9 3.1 3.8 5 3.33 3.33 7.27 6.67 11.8 10 3.43 2.53 7.73 5.42 12.9 8.65 11.33 7.07 21.38 12.43 30.15 16.1q17.145 7.2 32.7 8.1 7.65.45 13.5-.9c3.13-.73 6.85-2.12 11.15-4.15 4.7-2.3 8.67-4.57 11.9-6.8 4.67-3.23 8.83-6.95 12.5-11.15.1 2.07.27 4.35.5 6.85.13 1.57.53 2.63 1.2 3.2 1.2 1 2.83.78 4.9-.65 2.33-1.6 4.87-4.2 7.6-7.8 4-5.3 7.88-11.58 11.65-18.85 2.5-4.77 5.68-11.45 9.55-20.05 1.33-2.93 2.22-5.3 2.65-7.1.67-2.7.7-5.12.1-7.25-.97-3.37-3.28-6.02-6.95-7.95-2.53-1.37-6-2.32-10.4-2.85q-12-1.395-32.1 1.5c-15.93 2.3-26.67 3.48-32.2 3.55-1.2 0-2.05-.17-2.55-.5-.6-.4-1.12-1.33-1.55-2.8l-7.6-28.95c-.13-.47-.25-.93-.35-1.4 0-2.7-.87-5.6-2.6-8.7-1-2.67-2.08-5-3.25-7-.83-1.43-1.7-2.32-2.6-2.65m-32.45 1.4c4.27-1.2 8.63-1.8 13.1-1.8q6.75-.105 11.4 1.95c4.37 1.9 7.83 5.22 10.4 9.95 2.9 13.3 6.07 26.22 9.5 38.75.7 2.47 1.57 4.08 2.6 4.85.67.47 1.5.77 2.5.9.67.07 1.58.07 2.75 0 3.67-.2 14.4-1.57 32.2-4.1 13.1-1.87 23.83-2.35 32.2-1.45 3.7.37 6.58 1.15 8.65 2.35 1.37.8 2.47 1.83 3.3 3.1q1.35 2.055 1.35 4.2-.045 1.905-1.5 5.1-7.395 16.95-11.85 25.35-7.305 13.695-15.45 23.1l-.9-6.3c-.2-1.27-.6-2.03-1.2-2.3a.93.93 0 0 0-.45-.1c-.03-.17-.1-.3-.2-.4q-.405-.555-1.2-.6c-.53-.07-1.02.02-1.45.25-.47.23-1.17.9-2.1 2-1.57 1.83-3.6 3.55-6.1 5.15-1.57 1.03-3.93 2.35-7.1 3.95-4.83 2.53-8.63 4.37-11.4 5.5-4.33 1.77-8.37 2.88-12.1 3.35q-7.395.9-18.9-1.35c-6.17-1.2-11.5-2.62-16-4.25-2.97-1.07-6.33-2.52-10.1-4.35-15.57-7.53-29.28-16.02-41.15-25.45-1.73-1.4-3.07-2.55-4-3.45-1.37-1.37-2.43-2.75-3.2-4.15-1.47-2.7-2.2-6.7-2.2-12 0-3.4.18-7.27.55-11.6q.3-3.345 1.2-11.55l.6-5.3c1.9-6.3 4.3-12.37 7.2-18.2q1.245-2.1 3.6-5.1c2.6-3.27 4.72-5.53 6.35-6.8 1.3-1 2.98-2.05 5.05-3.15 5.47-2.93 10.15-4.95 14.05-6.05m67.4 87.95c.07-.47-.03-.9-.3-1.3-.3-.43-.67-.63-1.1-.6-.6.03-1.2.22-1.8.55-.27.13-.83.6-1.7 1.4l-3.5 3.6c-.5.5-.73.92-.7 1.25 0 .37.18.65.55.85.33.2.72.3 1.15.3 1.13-.07 2.5-.77 4.1-2.1.43-.37 1.05-.95 1.85-1.75.87-.8 1.35-1.53 1.45-2.2m1.4-12.05c-.57-.27-1.12-.28-1.65-.05-.13.07-.45.3-.95.7-1.67 1.67-2.65 2.68-2.95 3.05-.57.63-.87 1.2-.9 1.7-.03.33.05.65.25.95.23.3.5.47.8.5q.405 0 .9-.3c1.93-1 3.28-1.83 4.05-2.5 1.07-.87 1.53-1.77 1.4-2.7-.1-.63-.42-1.08-.95-1.35m8.2 4.5c-.3.07-.72.27-1.25.6-1.23.87-2.48 1.93-3.75 3.2-.33.4-.53.73-.6 1-.07.3 0 .6.2.9.17.27.4.47.7.6.57.2 1.2.18 1.9-.05 1.07-.3 2.45-1.17 4.15-2.6q.855-.645 1.05-1.2c.195-.555.13-.77 0-1.2-.13-.4-.37-.72-.7-.95-.5-.37-1.07-.47-1.7-.3"/><path d="M120.7 70.8c-4.47 0-8.83.6-13.1 1.8-3.9 1.1-8.58 3.12-14.05 6.05-2.07 1.1-3.75 2.15-5.05 3.15-1.63 1.27-3.75 3.53-6.35 6.8q-2.355 3-3.6 5.1c-2.9 5.83-5.3 11.9-7.2 18.2l-.6 5.3q-.9 8.205-1.2 11.55c-.37 4.33-.55 8.2-.55 11.6 0 5.3.73 9.3 2.2 12 .77 1.4 1.83 2.78 3.2 4.15.93.9 2.27 2.05 4 3.45 11.87 9.43 25.58 17.92 41.15 25.45 3.77 1.83 7.13 3.28 10.1 4.35 4.5 1.63 9.83 3.05 16 4.25q11.505 2.25 18.9 1.35c3.73-.47 7.77-1.58 12.1-3.35 2.77-1.13 6.57-2.97 11.4-5.5 3.17-1.6 5.53-2.92 7.1-3.95 2.5-1.6 4.53-3.32 6.1-5.15.93-1.1 1.63-1.77 2.1-2 .43-.23.92-.32 1.45-.25q.795.045 1.2.6c.1.1.17.23.2.4.17 0 .32.03.45.1.6.27 1 1.03 1.2 2.3l.9 6.3q8.145-9.405 15.45-23.1 4.455-8.4 11.85-25.35 1.455-3.195 1.5-5.1 0-2.145-1.35-4.2c-.83-1.27-1.93-2.3-3.3-3.1-2.07-1.2-4.95-1.98-8.65-2.35-8.37-.9-19.1-.42-32.2 1.45-17.8 2.53-28.53 3.9-32.2 4.1-1.17.07-2.08.07-2.75 0-1-.13-1.83-.43-2.5-.9-1.03-.77-1.9-2.38-2.6-4.85-3.43-12.53-6.6-25.45-9.5-38.75-2.57-4.73-6.03-8.05-10.4-9.95q-4.65-2.055-11.4-1.95m62.65 82.8c.53-.33.95-.53 1.25-.6.63-.17 1.2-.07 1.7.3.33.23.57.55.7.95q.195.645 0 1.2c-.195.555-.48.77-1.05 1.2-1.7 1.43-3.08 2.3-4.15 2.6-.7.23-1.33.25-1.9.05-.3-.13-.53-.33-.7-.6-.2-.3-.27-.6-.2-.9.07-.27.27-.6.6-1 1.27-1.27 2.52-2.33 3.75-3.2m-8.6-5.15c.53-.23 1.08-.22 1.65.05.53.27.85.72.95 1.35.13.93-.33 1.83-1.4 2.7-.77.67-2.12 1.5-4.05 2.5q-.495.3-.9.3c-.3-.03-.57-.2-.8-.5-.2-.3-.28-.62-.25-.95.03-.5.33-1.07.9-1.7.3-.37 1.28-1.38 2.95-3.05.5-.4.82-.63.95-.7m-.05 10.8c.27.4.37.83.3 1.3-.1.67-.58 1.4-1.45 2.2-.8.8-1.42 1.38-1.85 1.75-1.6 1.33-2.97 2.03-4.1 2.1-.43 0-.82-.1-1.15-.3-.37-.2-.55-.48-.55-.85-.03-.33.2-.75.7-1.25l3.5-3.6c.87-.8 1.43-1.27 1.7-1.4.6-.33 1.2-.52 1.8-.55.43-.03.8.17 1.1.6" class="o"/></g><g id="e"><path d="M222.5 148.95c2.23-1.83 4.33-3.77 6.3-5.8 2.27-2.4 4.08-5.1 5.45-8.1 1-2.2.7-4.18-.9-5.95-1.43-1.53-3.17-2.6-5.2-3.2-3.13-.77-6.3-1.22-9.5-1.35-2.67-.03-5.3-.07-7.9-.1-2.97-.07-5.93.1-8.9.5-2.87.2-5.77.53-8.7 1-3.03.67-6.02 1.48-8.95 2.45-2.6 1-5.08 2.2-7.45 3.6-1.63 1-2.45 2.45-2.45 4.35.53 1.8 1.42 3.32 2.65 4.55 2.13 2.07 4.5 3.88 7.1 5.45s5.37 2.85 8.3 3.85c2.53.8 5.15 1.57 7.85 2.3 3.07.83 6.2 1.28 9.4 1.35a17.7 17.7 0 0 0 8.15-1.85c1.73-.8 3.32-1.82 4.75-3.05m8.7-14.35a40 40 0 0 0-8.45-1.1c-3.23-.27-6.48-.35-9.75-.25-2.97.07-5.97.1-9 .1-3.67.03-7.33.38-11 1.05-4.53.67-9 1.75-13.4 3.25l-2.15-2.4c2.2-1.8 4.68-3.07 7.45-3.8 2.73-.73 5.5-1.32 8.3-1.75s5.62-.73 8.45-.9c3.1-.33 6.22-.53 9.35-.6 2.73-.07 5.52 0 8.35.2 3.1.07 6.18.48 9.25 1.25 2.8.73 3.67 2.38 2.6 4.95"/><path d="M222.75 133.5c2.87.07 5.68.43 8.45 1.1 1.07-2.57.2-4.22-2.6-4.95-3.07-.77-6.15-1.18-9.25-1.25-2.83-.2-5.62-.27-8.35-.2-3.13.07-6.25.27-9.35.6-2.83.17-5.65.47-8.45.9s-5.57 1.02-8.3 1.75c-2.77.73-5.25 2-7.45 3.8l2.15 2.4c4.4-1.5 8.87-2.58 13.4-3.25 3.67-.67 7.33-1.02 11-1.05 3.03 0 6.03-.03 9-.1 3.27-.1 6.52-.02 9.75.25" style="fill:#d6dee8"/></g><g id="f"><g id="g"><path d="m144.15 118.35-1 1.65q-.6 1.05-.75 1.8c-.4.67-.57 1.43-.5 2.3 0 .2.03.38.1.55-.07.23-.1.48-.1.75q.045 1.05.75 1.8c.57.6 1.73 1.15 3.5 1.65.1.03.2.07.3.1.27.77 1.17 1.5 2.7 2.2.93.37 1.72.63 2.35.8 1.03.3 2.63.48 4.8.55 5 0 8.97-.7 11.9-2.1l1.45-.65c.33-.07.55-.17.65-.3.23-.23.22-.48-.05-.75-.17-.17-.48-.22-.95-.15-2.83.57-4.97.95-6.4 1.15s-3.62.3-6.55.3c-1.37 0-2.4-.05-3.1-.15-.3-.07-.78-.18-1.45-.35.73-.07 1.58-.18 2.55-.35 5.97-1.07 10.45-2.8 13.45-5.2 1.07-.9 1.87-1.73 2.4-2.5.9-1.23 1.47-2.58 1.7-4.05.2-1 .17-1.83-.1-2.5-.33-1.1-1.18-1.98-2.55-2.65-1.93-1.03-4.55-1.4-7.85-1.1-4.23.4-8.22 1.5-11.95 3.3-2.4 1.13-4.17 2.43-5.3 3.9m.5 5.75c.07-.13.13-.28.2-.45.03-.07.12-.45.25-1.15.03-.13.07-.25.1-.35v-.05c.1-.2.18-.45.25-.75.3-.77.78-1.45 1.45-2.05l1.35-1.05q6.75-4.35 14.7-4.2 2.4 0 4.2.6c.87.33 1.45.73 1.75 1.2.57.83.48 1.93-.25 3.3-.93 1.6-2.67 3.02-5.2 4.25-2.9 1.43-5.82 2.38-8.75 2.85q-5.595 1.005-9.45-.75c-.03 0-.05-.02-.05-.05-.27-.53-.45-.98-.55-1.35m1.9-1.9c-.03.17.05.43.25.8q.15.345.9.6c.63.2 1.33.23 2.1.1 1.3-.23 2.47-.68 3.5-1.35.87-.6 1.37-1.13 1.5-1.6.24-.7.16-1.3-.25-1.8-.37-.5-.82-.83-1.35-1-.67-.23-1.57-.17-2.7.2-1.03.33-1.9.87-2.6 1.6-.73.73-1.18 1.55-1.35 2.45m-9.2-5.3c.27-.97.32-1.95.15-2.95-.33-1.73-1.22-2.98-2.65-3.75-.93-.53-2.23-.8-3.9-.8-3.13-.03-6.48.53-10.05 1.7-2.73.87-5.9 2.2-9.5 4-1.27.67-2.18 1.2-2.75 1.6-.97.67-2 1.58-3.1 2.75-1.03.97-1.8 1.82-2.3 2.55q-.9 1.2-1.5 2.85c-.27.93-.28 1.65-.05 2.15.1.17.22.32.35.45v.05c.17.87.58 1.58 1.25 2.15.43.4 1.15.83 2.15 1.3 2.07.8 3.95.98 5.65.55.53-.03 1.1-.08 1.7-.15 6.13-.67 11.52-2.52 16.15-5.55-3.83 3.57-8.58 6.5-14.25 8.8-.27.1-1.9.7-4.9 1.8l-5.65 2c-.03.2.18.3.65.3.13 0 .65.13 1.55.4.53.17 1.23.18 2.1.05 3.93-.5 8-1.82 12.2-3.95 6.07-3.1 10.85-6.93 14.35-11.5 1.87-2.37 2.72-4.48 2.55-6.35 0-.2-.07-.35-.2-.45m-31.45 5.35c.27-.37.42-.58.45-.65.07-.1.12-.18.15-.25v-.05c.93-1.07 1.67-1.83 2.2-2.3 1.17-1.07 2.98-2.1 5.45-3.1 2.07-.83 3.85-1.43 5.35-1.8 4.07-1.1 8.2-1.45 12.4-1.05.7.07 1.2.2 1.5.4.23.2.45.53.65 1 .17.4.23.75.2 1.05-.03.4-.2.8-.5 1.2-.3.47-.97 1.22-2 2.25-.8.87-1.6 1.6-2.4 2.2-1 .77-2.48 1.6-4.45 2.5-2.93 1.4-5.17 2.32-6.7 2.75-2.03.6-4.5.98-7.4 1.15q-2.1.195-3.45 0c-1.27-.2-2.28-.63-3.05-1.3 0-.4.15-.93.45-1.6zm9.55-2.95c-1.44.46-2.71 1.14-3.8 2.05-1.1.94-1.75 1.66-1.95 2.15-.16.53.02 1.03.55 1.5q1.2.555 2.55.15 1.365-.36 2.25-.6.945-.18 3-1.2c1.4-.67 2.22-1.39 2.45-2.15.07-.2.1-.38.1-.55s-.02-.33-.05-.5c-.24-.6-.79-1.02-1.65-1.25-.86-.19-2.01-.06-3.45.4"/><path d="M144.85 123.65c-.07.17-.13.32-.2.45.1.37.28.82.55 1.35 0 .03.02.05.05.05q3.855 1.755 9.45.75c2.93-.47 5.85-1.42 8.75-2.85 2.53-1.23 4.27-2.65 5.2-4.25.73-1.37.82-2.47.25-3.3-.3-.47-.88-.87-1.75-1.2q-1.8-.6-4.2-.6-7.95-.15-14.7 4.2l-1.35 1.05c-.67.6-1.15 1.28-1.45 2.05-.07.3-.15.55-.25.75v.05c-.03.1-.07.22-.1.35-.13.7-.22 1.08-.25 1.15m1.95-.65c-.2-.37-.28-.63-.25-.8.17-.9.62-1.72 1.35-2.45.7-.73 1.57-1.27 2.6-1.6 1.13-.37 2.03-.43 2.7-.2.53.17.98.5 1.35 1 .41.5.49 1.1.25 1.8-.13.47-.63 1-1.5 1.6-1.03.67-2.2 1.12-3.5 1.35-.77.13-1.47.1-2.1-.1q-.75-.255-.9-.6m-40.45-1.4c-.03.07-.18.28-.45.65l-1.15 2.4c-.3.67-.45 1.2-.45 1.6.77.67 1.78 1.1 3.05 1.3q1.35.195 3.45 0c2.9-.17 5.37-.55 7.4-1.15 1.53-.43 3.77-1.35 6.7-2.75 1.97-.9 3.45-1.73 4.45-2.5.8-.6 1.6-1.33 2.4-2.2 1.03-1.03 1.7-1.78 2-2.25.3-.4.47-.8.5-1.2.03-.3-.03-.65-.2-1.05-.2-.47-.42-.8-.65-1-.3-.2-.8-.33-1.5-.4-4.2-.4-8.33-.05-12.4 1.05-1.5.37-3.28.97-5.35 1.8-2.47 1-4.28 2.03-5.45 3.1-.53.47-1.27 1.23-2.2 2.3v.05c-.03.07-.08.15-.15.25m5.3-.25c1.09-.91 2.36-1.59 3.8-2.05s2.59-.59 3.45-.4c.86.23 1.41.65 1.65 1.25.03.17.05.33.05.5s-.03.35-.1.55c-.23.76-1.05 1.48-2.45 2.15q-2.055 1.02-3 1.2-.885.24-2.25.6-1.35.405-2.55-.15c-.53-.47-.71-.97-.55-1.5.2-.49.85-1.21 1.95-2.15" style="fill:#e8e6d6"/></g></g><g id="h"><path d="M86.25 84.8c.53-.73 1.05-1.43 1.55-2.1q2.55-3.6 4.2-6.6c.83-1.53 1.02-2.73.55-3.6-14.53 11.9-27.03 29.58-37.5 53.05-4.9 11.03-8.45 21.15-10.65 30.35-2.03 8.77-3.43 19.2-4.2 31.3-.27 4.9-.3 8.88-.1 11.95.27 4.37 1.05 8.22 2.35 11.55.97 2.47 2.22 3.98 3.75 4.55 2.03.77 4.6-.2 7.7-2.9l8.95-7.8c3.13-2.77 5.43-4.95 6.9-6.55 2.37-2.63 4.03-5.27 5-7.9.8-2.13 1.3-4.67 1.5-7.6.07-.87.12-3.5.15-7.9.1-15.87 2.95-31.18 8.55-45.95.77-2 1.25-3.55 1.45-4.65.03-.3.07-.58.1-.85.13-1.4-.05-2.65-.55-3.75-.43.67-.85 1.35-1.25 2.05-4.03 6.8-7.23 14.02-9.6 21.65-2.6 8.43-4.07 17-4.4 25.7-.27 7.03-.47 11.07-.6 12.1-.53 4.53-1.73 8.25-3.6 11.15-1.3 2-3.53 4.35-6.7 7.05-3.8 3.3-7.67 6.57-11.6 9.8q-1.95-3.405-2.55-8.1c-.33-2.3-.45-5.2-.35-8.7.43-17.77 3.63-35.18 9.6-52.25 5.93-17.07 14.27-32.68 25-46.85 1.6-2.03 2.97-3.78 4.1-5.25.9-1.17 1.65-2.15 2.25-2.95"/><path d="M87.85 82.9c0-.07-.02-.13-.05-.2-.5.67-1.02 1.37-1.55 2.1-.6.8-1.35 1.78-2.25 2.95-1.13 1.47-2.5 3.22-4.1 5.25-10.73 14.17-19.07 29.78-25 46.85-5.97 17.07-9.17 34.48-9.6 52.25-.1 3.5.02 6.4.35 8.7q.6 4.695 2.55 8.1c3.93-3.23 7.8-6.5 11.6-9.8 3.17-2.7 5.4-5.05 6.7-7.05 1.87-2.9 3.07-6.62 3.6-11.15.13-1.03.33-5.07.6-12.1.33-8.7 1.8-17.27 4.4-25.7 2.37-7.63 5.57-14.85 9.6-21.65.4-.7.82-1.38 1.25-2.05.5 1.1.68 2.35.55 3.75.03-.03.07-.05.1-.05.03-.07.07-.13.1-.2.07-.07.12-.13.15-.2s.07-.13.1-.2v-.2c0-.07.02-.13.05-.2s.05-.13.05-.2v-.2c.03-.07.07-.13.1-.2v-.4c0-.07.02-.13.05-.2v-3.25c0-.07-.02-.13-.05-.2.03-.07.05-.13.05-.2v-.6c0-.07.02-.13.05-.2v-4.8c.03-.07.05-.13.05-.2v-1c0-.07.02-.13.05-.2v-.4c0-.07.02-.13.05-.2v-5.25c0-.07-.02-.13-.05-.2.03-.07.05-.13.05-.2.03-.07.05-.13.05-.2v-4c.03-.07.05-.13.05-.2V99c.03-.07.07-.13.1-.2v-.45c0-.07.02-.13.05-.2v-2.8c.03-.07.07-.13.1-.2v-1c.03-.07.05-.13.05-.2v-1.6c0-.07-.02-.13-.05-.2V88.5c0-.07.02-.13.05-.2v-1.6c0-.07.02-.13.05-.2v-2.6c.03-.07.07-.13.1-.2v-.6c-.03-.07-.07-.13-.1-.2" class="o"/></g><g id="i"><path id="j" d="M115.43 44.25c.15.45.78 2.22 1.88 5.29 1.82 4.97 3.18 9.93 4.09 14.9.38 1.86-.76 3.36-3.41 4.49-.19-.3-.42-.66-.68-1.08-.38-.53-1-1.74-1.88-3.64-2.39-5.5-4.8-9.84-7.22-13.02-3.41-4.36-7.28-7.39-11.6-9.1-2.92-1.1-5.4-1.31-7.45-.63-.8.19-1.25.55-1.36 1.08-.19.45.02 1.08.63 1.88 2.84 3.56 6.08 6.92 9.72 10.07 1.52 1.29 2.6 2.31 3.24 3.07.42.45 1.19 1.57 2.33 3.36.99 1.71 1.69 3.01 2.1 3.92q1.02 2.325 1.14 4.32c.04.64-.04 1.18-.23 1.59-.27-.11-.51-.21-.74-.28-7.43-2.99-13.38-4.72-17.86-5.17-4.51-.45-8.87-.19-13.08.8q-6.42 1.53-9.33 4.83c-.57.64-.85 1.18-.85 1.59-.11.68.15 1.33.8 1.93 1.1 1.25 3.15 1.72 6.14 1.42 6.07-.49 9.16-.74 9.27-.74 3.49-.15 6.5.15 9.04.91.45.19.76.36.91.51.23.23.36.49.4.8q.06.225-.06.57-.405.855-1.08 1.14c-.08.04-.13.08-.17.11.42.19.83.38 1.25.57a72.3 72.3 0 0 0 19.22 5.63c10.58 1.44 20.98.95 31.22-1.48.27-.08.55-.15.85-.23-.64-.45-.97-.7-.97-.74-.27-.64-.55-1.86-.85-3.64-.3-1.82-1.21-5.67-2.73-11.54-1.52-5.91-3.07-10.43-4.66-13.53q-2.385-4.665-6.99-11.43-3.465-5.055-6.99-7.05-1.935-1.02-3.18-.45c-1.14.49-1.71 1.69-1.71 3.58-.04 1.59.25 3.39.85 5.4Z" style="fill:#a9935e"/><path id="k" d="M116.29 35.26c.83-.38 1.9-.23 3.18.45q3.525 1.995 6.99 7.05 4.605 6.765 6.99 11.43c1.59 3.11 3.15 7.62 4.66 13.53 1.52 5.88 2.43 9.72 2.73 11.54.3 1.78.59 2.99.85 3.64 0 .04.32.28.97.74.49.49 1.18.49 2.05 0q1.245-.795 1.14-1.59c-.08-.53-.13-.91-.17-1.14-1.74-9.67-3.96-17.72-6.65-24.17-.15-.38-.28-.7-.4-.97-.08-.19-.15-.38-.23-.57-2.27-6.52-5.08-11.98-8.42-16.38-3.6-5.04-7.53-7.81-11.77-8.3-1.55-.15-2.86-.02-3.92.4-1.21.53-2.16 1.46-2.84 2.79-.68 1.18-1.06 2.48-1.14 3.92-.04 1.86.51 4.53 1.65 8.02l1.65 4.83q-.96-1.875-1.65-2.79c-2.2-3.11-5.42-5.88-9.67-8.3-2.92-1.63-5.52-2.65-7.79-3.07q-4.725-.795-8.25 1.08c-1.29.76-2.18 1.59-2.67 2.5-.91 1.55-.97 3.34-.17 5.35.53 1.36 1.59 2.92 3.18 4.66 1.86 2.2 4.09 4.49 6.71 6.88 2.69 2.39 4.45 4.08 5.29 5.06.64.8 1.31 1.76 1.99 2.9q-4.38-2.325-10.29-3.24-6.375-1.02-12.51 0c-4.28.68-8.17 2.05-11.66 4.09-1.93 1.1-3.34 2.22-4.21 3.36-1.25 1.71-1.71 3.41-1.36 5.12.19 1.1.82 2.29 1.88 3.58.99 1.06 1.9 1.82 2.73 2.27 1.25.61 3.03.85 5.35.74 1.02-.08 3.83-.44 8.42-1.08 3.37-.45 6.14-.59 8.3-.4 1.33.15 2.29.13 2.9-.06.04-.04.09-.08.17-.11.45-.19.82-.57 1.08-1.14.08-.23.09-.42.06-.57-.04-.3-.17-.57-.4-.8-.15-.15-.45-.32-.91-.51-2.54-.76-5.55-1.06-9.04-.91-.11 0-3.2.25-9.27.74-2.99.3-5.04-.17-6.14-1.42-.64-.61-.91-1.25-.8-1.93 0-.42.28-.95.85-1.59q2.895-3.3 9.33-4.83c4.21-.99 8.57-1.25 13.08-.8 4.47.45 10.43 2.18 17.86 5.17.23.08.47.17.74.28.19-.42.27-.95.23-1.59-.08-1.33-.45-2.77-1.14-4.32-.42-.91-1.12-2.22-2.1-3.92-1.14-1.78-1.91-2.9-2.33-3.36-.64-.76-1.72-1.78-3.24-3.07-3.64-3.15-6.88-6.5-9.72-10.07-.61-.8-.82-1.42-.63-1.88.11-.53.57-.89 1.36-1.08 2.05-.68 4.53-.47 7.45.63 4.32 1.71 8.19 4.74 11.6 9.1 2.43 3.18 4.83 7.53 7.22 13.02.87 1.9 1.5 3.11 1.88 3.64.27.42.49.78.68 1.08 2.65-1.14 3.79-2.63 3.41-4.49-.91-4.97-2.27-9.93-4.09-14.9-1.1-3.07-1.72-4.83-1.88-5.29-.61-2.01-.89-3.81-.85-5.4 0-1.9.57-3.09 1.71-3.58Z"/></g></svg>