<svg xmlns="http://www.w3.org/2000/svg" id="a" viewBox="35.42 25.92 207.2 178.44"><defs><style>.p{fill:#a8a0c6}</style></defs><path id="b" d="M217.28 65.75c-17.9-15.59-40.92-23.48-69.05-23.67-28.06-.1-53.12 7.44-75.17 22.61-21.83 15.2-34.19 33.72-37.08 55.55-2.76 21.73 4.77 40.34 22.61 55.84 17.97 15.46 40.98 23.32 69.05 23.58 28.13.13 53.15-7.39 75.07-22.57 21.92-15.3 34.33-33.8 37.22-55.5 2.8-21.79-4.76-40.41-22.66-55.84Z" style="fill:#161b29"/><path id="c" d="M77.26 66.66c-20.73 14.14-32.45 31.28-35.15 51.4-2.67 20.19 4.48 37.45 21.46 51.79 16.97 14.37 38.75 21.62 65.33 21.75 26.62.23 50.29-6.73 71.02-20.88 20.8-14.14 32.55-31.28 35.25-51.4 2.67-20.19-4.48-37.45-21.46-51.79-16.97-14.34-38.77-21.59-65.38-21.75q-39.87-.285-71.07 20.88" style="fill:#5d6788"/><g id="d"><path d="m140.05 71.2.6 2.9c-.77-.77-1.58-1.47-2.45-2.1-3.17-2.4-6.55-3.9-10.15-4.5-2.17-.37-5.18-.42-9.05-.15-4.8.33-8.43.87-10.9 1.6-1.77.5-4.02 1.37-6.75 2.6-4.27 2-7.78 3.73-10.55 5.2-1.47.77-2.7 1.52-3.7 2.25.2-.37.32-.72.35-1.05q.105-.555-.15-1.05c-.2-.37-.45-.6-.75-.7-.77-.23-1.55.2-2.35 1.3-9.93 13.33-16.62 30.22-20.05 50.65q-1.095 6.75-1.2 11.4v.75c-.23 2.33-.38 4.7-.45 7.1-.13 3.63.25 6.42 1.15 8.35.63 1.43 1.9 3.1 3.8 5 3.33 3.33 7.27 6.67 11.8 10 3.43 2.53 7.73 5.42 12.9 8.65 11.33 7.07 21.38 12.43 30.15 16.1q17.145 7.2 32.7 8.1 7.65.45 13.5-.9c3.13-.73 6.85-2.12 11.15-4.15 4.7-2.3 8.67-4.57 11.9-6.8 4.67-3.23 8.83-6.95 12.5-11.15.1 2.07.27 4.35.5 6.85.13 1.57.53 2.63 1.2 3.2 1.2 1 2.83.78 4.9-.65 2.33-1.6 4.87-4.2 7.6-7.8 4-5.3 7.88-11.58 11.65-18.85 2.5-4.77 5.68-11.45 9.55-20.05 1.33-2.93 2.22-5.3 2.65-7.1.67-2.7.7-5.12.1-7.25-.97-3.37-3.28-6.02-6.95-7.95-2.53-1.37-6-2.32-10.4-2.85q-12-1.395-32.1 1.5c-15.93 2.3-26.67 3.48-32.2 3.55-1.2 0-2.05-.17-2.55-.5-.6-.4-1.12-1.33-1.55-2.8l-7.6-28.95c-.13-.47-.25-.93-.35-1.4 0-2.7-.87-5.6-2.6-8.7-1-2.67-2.08-5-3.25-7-.83-1.43-1.7-2.32-2.6-2.65m-32.45 1.4c4.27-1.2 8.63-1.8 13.1-1.8q6.75-.105 11.4 1.95c4.37 1.9 7.83 5.22 10.4 9.95 2.9 13.3 6.07 26.22 9.5 38.75.7 2.47 1.57 4.08 2.6 4.85.67.47 1.5.77 2.5.9.67.07 1.58.07 2.75 0 3.67-.2 14.4-1.57 32.2-4.1 13.1-1.87 23.83-2.35 32.2-1.45 3.7.37 6.58 1.15 8.65 2.35 1.37.8 2.47 1.83 3.3 3.1q1.35 2.055 1.35 4.2-.045 1.905-1.5 5.1-7.395 16.95-11.85 25.35-7.305 13.695-15.45 23.1l-.9-6.3c-.2-1.27-.6-2.03-1.2-2.3a.93.93 0 0 0-.45-.1c-.03-.17-.1-.3-.2-.4q-.405-.555-1.2-.6c-.53-.07-1.02.02-1.45.25-.47.23-1.17.9-2.1 2-1.57 1.83-3.6 3.55-6.1 5.15-1.57 1.03-3.93 2.35-7.1 3.95-4.83 2.53-8.63 4.37-11.4 5.5-4.33 1.77-8.37 2.88-12.1 3.35q-7.395.9-18.9-1.35c-6.17-1.2-11.5-2.62-16-4.25-2.97-1.07-6.33-2.52-10.1-4.35-15.57-7.53-29.28-16.02-41.15-25.45-1.73-1.4-3.07-2.55-4-3.45-1.37-1.37-2.43-2.75-3.2-4.15-1.47-2.7-2.2-6.7-2.2-12 0-3.4.18-7.27.55-11.6q.3-3.345 1.2-11.55l.6-5.3c1.9-6.3 4.3-12.37 7.2-18.2q1.245-2.1 3.6-5.1c2.6-3.27 4.72-5.53 6.35-6.8 1.3-1 2.98-2.05 5.05-3.15 5.47-2.93 10.15-4.95 14.05-6.05m67.4 87.95c.07-.47-.03-.9-.3-1.3-.3-.43-.67-.63-1.1-.6-.6.03-1.2.22-1.8.55-.27.13-.83.6-1.7 1.4l-3.5 3.6c-.5.5-.73.92-.7 1.25 0 .37.18.65.55.85.33.2.72.3 1.15.3 1.13-.07 2.5-.77 4.1-2.1.43-.37 1.05-.95 1.85-1.75.87-.8 1.35-1.53 1.45-2.2m1.4-12.05c-.57-.27-1.12-.28-1.65-.05-.13.07-.45.3-.95.7-1.67 1.67-2.65 2.68-2.95 3.05-.57.63-.87 1.2-.9 1.7-.03.33.05.65.25.95.23.3.5.47.8.5q.405 0 .9-.3c1.93-1 3.28-1.83 4.05-2.5 1.07-.87 1.53-1.77 1.4-2.7-.1-.63-.42-1.08-.95-1.35m8.2 4.5c-.3.07-.72.27-1.25.6-1.23.87-2.48 1.93-3.75 3.2-.33.4-.53.73-.6 1-.07.3 0 .6.2.9.17.27.4.47.7.6.57.2 1.2.18 1.9-.05 1.07-.3 2.45-1.17 4.15-2.6q.855-.645 1.05-1.2c.195-.555.13-.77 0-1.2-.13-.4-.37-.72-.7-.95-.5-.37-1.07-.47-1.7-.3"/><path d="M120.7 70.8c-4.47 0-8.83.6-13.1 1.8-3.9 1.1-8.58 3.12-14.05 6.05-2.07 1.1-3.75 2.15-5.05 3.15-1.63 1.27-3.75 3.53-6.35 6.8q-2.355 3-3.6 5.1c-2.9 5.83-5.3 11.9-7.2 18.2l-.6 5.3q-.9 8.205-1.2 11.55c-.37 4.33-.55 8.2-.55 11.6 0 5.3.73 9.3 2.2 12 .77 1.4 1.83 2.78 3.2 4.15.93.9 2.27 2.05 4 3.45 11.87 9.43 25.58 17.92 41.15 25.45 3.77 1.83 7.13 3.28 10.1 4.35 4.5 1.63 9.83 3.05 16 4.25q11.505 2.25 18.9 1.35c3.73-.47 7.77-1.58 12.1-3.35 2.77-1.13 6.57-2.97 11.4-5.5 3.17-1.6 5.53-2.92 7.1-3.95 2.5-1.6 4.53-3.32 6.1-5.15.93-1.1 1.63-1.77 2.1-2 .43-.23.92-.32 1.45-.25q.795.045 1.2.6c.1.1.17.23.2.4.17 0 .32.03.45.1.6.27 1 1.03 1.2 2.3l.9 6.3q8.145-9.405 15.45-23.1 4.455-8.4 11.85-25.35 1.455-3.195 1.5-5.1 0-2.145-1.35-4.2c-.83-1.27-1.93-2.3-3.3-3.1-2.07-1.2-4.95-1.98-8.65-2.35-8.37-.9-19.1-.42-32.2 1.45-17.8 2.53-28.53 3.9-32.2 4.1-1.17.07-2.08.07-2.75 0-1-.13-1.83-.43-2.5-.9-1.03-.77-1.9-2.38-2.6-4.85-3.43-12.53-6.6-25.45-9.5-38.75-2.57-4.73-6.03-8.05-10.4-9.95q-4.65-2.055-11.4-1.95m62.65 82.8c.53-.33.95-.53 1.25-.6.63-.17 1.2-.07 1.7.3.33.23.57.55.7.95q.195.645 0 1.2c-.195.555-.48.77-1.05 1.2-1.7 1.43-3.08 2.3-4.15 2.6-.7.23-1.33.25-1.9.05-.3-.13-.53-.33-.7-.6-.2-.3-.27-.6-.2-.9.07-.27.27-.6.6-1 1.27-1.27 2.52-2.33 3.75-3.2m-8.6-5.15c.53-.23 1.08-.22 1.65.05.53.27.85.72.95 1.35.13.93-.33 1.83-1.4 2.7-.77.67-2.12 1.5-4.05 2.5q-.495.3-.9.3c-.3-.03-.57-.2-.8-.5-.2-.3-.28-.62-.25-.95.03-.5.33-1.07.9-1.7.3-.37 1.28-1.38 2.95-3.05.5-.4.82-.63.95-.7m-.05 10.8c.27.4.37.83.3 1.3-.1.67-.58 1.4-1.45 2.2-.8.8-1.42 1.38-1.85 1.75-1.6 1.33-2.97 2.03-4.1 2.1-.43 0-.82-.1-1.15-.3-.37-.2-.55-.48-.55-.85-.03-.33.2-.75.7-1.25l3.5-3.6c.87-.8 1.43-1.27 1.7-1.4.6-.33 1.2-.52 1.8-.55.43-.03.8.17 1.1.6" class="p"/></g><g id="e"><path d="M165.55 165.85c-.13.43-.05.83.25 1.2.3.4.67.6 1.1.6.4 0 .87-.2 1.4-.6.43-.27 1.03-.73 1.8-1.4s1.35-1.15 1.75-1.45c.6-.4 1-.73 1.2-1 .33-.57.37-1.12.1-1.65-.37-.67-.88-.95-1.55-.85-.23.03-.58.2-1.05.5-1.57 1.1-2.98 2.28-4.25 3.55-.43.43-.68.8-.75 1.1m5.95-11.25c.23-.13.5-.32.8-.55l.7-.65 2.05-1.4c.8-.63 1.28-1.27 1.45-1.9.2-.57.12-.98-.25-1.25q-.555-.345-1.5.15-2.205 1.155-3.45 2.4l-1 1c-.43.3-.7.52-.8.65-.17.27-.23.55-.2.85q.105.495.45.75c.5.4 1.08.38 1.75-.05m13.9 2.95c.53-.53.62-1.18.25-1.95-.17-.4-.43-.68-.8-.85-.5-.17-1.08-.02-1.75.45q-1.35.795-2.7 2.25c-.67.67-.95 1.27-.85 1.8.03.3.22.55.55.75.3.2.62.3.95.3.57-.03 1.15-.3 1.75-.8.97-.8 1.48-1.22 1.55-1.25.53-.3.88-.53 1.05-.7m46.55.85c1.13-3.17 1.95-5.8 2.45-7.9.57-2.6.85-5.02.85-7.25v-.95c0-.6-.17-.97-.5-1.1-.1-.03-.17-.05-.2-.05-.37 0-.68.27-.95.8q-1.455 2.355-10.2 19.5c-.65 1.28-1.3 2.49-1.95 3.65-.7 1.3-1.4 2.54-2.1 3.7a74 74 0 0 1-3.7 5.6c-.2-1.73-.63-3.27-1.3-4.6-.53-1.03-1.15-1.62-1.85-1.75-.18-.03-.36-.03-.55 0-.66.14-1.39.69-2.2 1.65l-2.35 3.05q-.195-1.155-1.2-1.95c-.7-.53-1.43-.75-2.2-.65-1 .17-1.98.8-2.95 1.9-1.23 1.4-2.6 3.58-4.1 6.55-1.63 3.47-2.85 6.48-3.65 9.05-.37 1.33-.62 2.55-.75 3.65-3.67 1.4-7.63 2.57-11.9 3.5-6.78 1.46-13.76 1.88-20.95 1.25-1.5-.13-3.02-.31-4.55-.55-1.8-.24-3.62-.56-5.45-.95-10.77-2.33-18.77-4.52-24-6.55-5.2-2.03-7.77-2.27-7.7-.7.03 1.53.05 2.47.05 2.8s.12.7.35 1.1c.37.67.9 1.25 1.6 1.75 6 4.07 12.88 7.07 20.65 9 7 1.7 14.52 2.5 22.55 2.4 10.63-.2 20.4-1.85 29.3-4.95 5.93-2.07 11.32-4.75 16.15-8.05 5.2-3.6 9.57-7.75 13.1-12.45 3.6-4.93 7-11.77 10.2-20.5m-28.75 14.8c.5-.4 1.03-.55 1.6-.45 1.43 2.37 2.33 4.25 2.7 5.65l1.95-4.05c.6-1.17 1.42-2.32 2.45-3.45.7 2.3 1.02 4.62.95 6.95-.5.57-1 1.1-1.5 1.6-4.33 4.4-9.72 7.98-16.15 10.75 1.4-5.6 3.7-10.83 6.9-15.7.47-.63.83-1.07 1.1-1.3"/><path d="M199.8 165.95c-2.83.8-6.27 2.13-10.3 4-14.07 6.63-25.1 14.62-33.1 23.95-.5.57-.91 1.1-1.25 1.6 1.53.24 3.05.42 4.55.55 7.19.63 14.17.21 20.95-1.25 4.27-.93 8.23-2.1 11.9-3.5.13-1.1.38-2.32.75-3.65.8-2.57 2.02-5.58 3.65-9.05 1.5-2.97 2.87-5.15 4.1-6.55.97-1.1 1.95-1.73 2.95-1.9.77-.1 1.5.12 2.2.65q1.005.795 1.2 1.95l2.35-3.05c.81-.96 1.54-1.51 2.2-1.65.19-.03.37-.03.55 0 2.36.03 4.64.28 6.85.75.7-1.16 1.4-2.4 2.1-3.7-7.23-1.5-14.45-1.22-21.65.85" class="p"/><path d="M204.8 172.75c-.57-.1-1.1.05-1.6.45-.27.23-.63.67-1.1 1.3-3.2 4.87-5.5 10.1-6.9 15.7 6.43-2.77 11.82-6.35 16.15-10.75.5-.5 1-1.03 1.5-1.6.07-2.33-.25-4.65-.95-6.95-1.03 1.13-1.85 2.28-2.45 3.45l-1.95 4.05c-.37-1.4-1.27-3.28-2.7-5.65" style="fill:#7f2756"/></g><g id="f"><path d="M222.5 148.95c2.23-1.83 4.33-3.77 6.3-5.8 2.27-2.4 4.08-5.1 5.45-8.1 1-2.2.7-4.18-.9-5.95-1.43-1.53-3.17-2.6-5.2-3.2-3.13-.77-6.3-1.22-9.5-1.35-2.67-.03-5.3-.07-7.9-.1-2.97-.07-5.93.1-8.9.5-2.87.2-5.77.53-8.7 1-3.03.67-6.02 1.48-8.95 2.45-2.6 1-5.08 2.2-7.45 3.6-1.63 1-2.45 2.45-2.45 4.35.53 1.8 1.42 3.32 2.65 4.55 2.13 2.07 4.5 3.88 7.1 5.45s5.37 2.85 8.3 3.85c2.53.8 5.15 1.57 7.85 2.3 3.07.83 6.2 1.28 9.4 1.35a17.7 17.7 0 0 0 8.15-1.85c1.73-.8 3.32-1.82 4.75-3.05m8.7-14.35a40 40 0 0 0-8.45-1.1c-3.23-.27-6.48-.35-9.75-.25-2.97.07-5.97.1-9 .1-3.67.03-7.33.38-11 1.05-4.53.67-9 1.75-13.4 3.25l-2.15-2.4c2.2-1.8 4.68-3.07 7.45-3.8 2.73-.73 5.5-1.32 8.3-1.75s5.62-.73 8.45-.9c3.1-.33 6.22-.53 9.35-.6 2.73-.07 5.52 0 8.35.2 3.1.07 6.18.48 9.25 1.25 2.8.73 3.67 2.38 2.6 4.95"/><path d="M222.75 133.5c2.87.07 5.68.43 8.45 1.1 1.07-2.57.2-4.22-2.6-4.95-3.07-.77-6.15-1.18-9.25-1.25-2.83-.2-5.62-.27-8.35-.2-3.13.07-6.25.27-9.35.6-2.83.17-5.65.47-8.45.9s-5.57 1.02-8.3 1.75c-2.77.73-5.25 2-7.45 3.8l2.15 2.4c4.4-1.5 8.87-2.58 13.4-3.25 3.67-.67 7.33-1.02 11-1.05 3.03 0 6.03-.03 9-.1 3.27-.1 6.52-.02 9.75.25" style="fill:#d6dee8"/></g><g id="g"><g id="h"><path d="M138.1 124.9q.945-1.155 1.2-2.7c0-.17.02-.35.05-.55V121c0-1.47-.47-2.88-1.4-4.25-.93-1.3-2.18-2.48-3.75-3.55-2.7-1.8-5.68-2.9-8.95-3.3-.43-.07-.85-.1-1.25-.1-2.53-.23-5.2-.08-8 .45-4.07.7-7.42 1.97-10.05 3.8-.57.37-1.08.77-1.55 1.2-3-.83-5.68-2.03-8.05-3.6-.33-.2-.57-.27-.7-.2q-.45.255 0 1.05c.7 1.03 1.73 1.97 3.1 2.8 1.17.73 2.5 1.37 4 1.9-.07.07-.13.17-.2.3-.57.87-.9 1.78-1 2.75-.07.9 0 1.78.2 2.65.7 2.23 1.77 3.93 3.2 5.1 1.23 1.07 3.1 1.97 5.6 2.7 3.6 1.07 8.62 1 15.05-.2 1.07-.17 2.13-.38 3.2-.65 1.83-.53 3.65-1.23 5.45-2.1 1.53-.67 2.82-1.62 3.85-2.85m-27.25-6.2c.1 0 .2.02.3.05-.27.3-.48.7-.65 1.2-.5 1.6-.28 2.88.65 3.85.5.5 1.13.77 1.9.8.8.03 1.48-.17 2.05-.6.57-.4.98-.97 1.25-1.7.23-.7.3-1.42.2-2.15-.07-.43-.18-.78-.35-1.05 3.77.13 7.45.07 11.05-.2q4.5-.405 6.6-.9c.17-.03.32-.07.45-.1.7.63 1.12 1.25 1.25 1.85.03.1.05.2.05.3-.07.43-.18.87-.35 1.3q-.15.45-.45.9l-.9 1.2q-1.05 1.455-2.7 2.1c-1.8.77-3.62 1.32-5.45 1.65-.13.03-.25.07-.35.1-2.33.43-5.25.68-8.75.75-2.2.03-4.38-.32-6.55-1.05-2.37-.8-3.98-1.83-4.85-3.1-.07-.13-.12-.25-.15-.35-.43-1.03-.5-2.1-.2-3.2.23-.73.72-1.45 1.45-2.15l.1-.1c1.27.23 2.73.43 4.4.6m14.35-5c2.7.47 5.1 1.38 7.2 2.75-3.17.4-7.18.57-12.05.5-4.5 0-8.28-.23-11.35-.7 1.87-1.07 4.23-1.85 7.1-2.35 3.3-.6 6.33-.67 9.1-.2m31-4.1c-3.07.73-5.92 1.95-8.55 3.65-2.5 1.6-4.12 3.3-4.85 5.1-.27.63-.42 1.6-.45 2.9v1.05c.97 3.97 3.42 6.2 7.35 6.7 3.37.57 6.7.45 10-.35 4.73-1.03 8.95-3.13 12.65-6.3 3.03-2.53 3.75-5.45 2.15-8.75-.33-.5-.75-.98-1.25-1.45-.27-.27-.55-.5-.85-.7q.945-.555 1.65-1.05c1.5-1.1 2.33-2.22 2.5-3.35.07-.27.03-.47-.1-.6-.2-.23-.53-.17-1 .2-1.57 1.23-3.37 2.4-5.4 3.5q-2.1-.9-4.8-1.2c-1.5-.17-3-.18-4.5-.05-1.53.1-3.05.33-4.55.7m-.35 8.75.05-.05c4.43-1.37 8.88-3.1 13.35-5.2.07-.03.13-.05.2-.05.33.17.67.35 1 .55.3.2.58.42.85.65.3.3.57.65.8 1.05.2.33.25.67.15 1-.63 1.9-1.75 3.53-3.35 4.9q-1.995 1.695-5.7 3.3c-1.37.6-3.12 1.12-5.25 1.55q-3.255.645-5.55.6c-3.93-.07-6.4-1.33-7.4-3.8-.1-.2-.17-.67-.2-1.4-.07-.73-.07-1.25 0-1.55 1.57.13 3.37.05 5.4-.25-.07.07-.12.15-.15.25-.17.37-.22.85-.15 1.45.13.6.35 1.05.65 1.35.3.33.75.57 1.35.7.63.1 1.2.07 1.7-.1.83-.23 1.52-.88 2.05-1.95q.495-1.05.45-1.95c0-.4-.08-.75-.25-1.05m-8.2-2.4q2.895-2.145 7.35-3.3c2.97-.87 5.62-1.25 7.95-1.15 1.23.03 2.4.18 3.5.45l-.3.1c-2.2.97-5.58 2.25-10.15 3.85-2.27.77-4.05 1.3-5.35 1.6-1 .23-2.57.45-4.7.65l-.65.1c.43-.77 1.22-1.53 2.35-2.3"/><path d="M132.4 116.45c-2.1-1.37-4.5-2.28-7.2-2.75-2.77-.47-5.8-.4-9.1.2-2.87.5-5.23 1.28-7.1 2.35 3.07.47 6.85.7 11.35.7 4.87.07 8.88-.1 12.05-.5m22.6-3.8q-4.455 1.155-7.35 3.3c-1.13.77-1.92 1.53-2.35 2.3l.65-.1c2.13-.2 3.7-.42 4.7-.65 1.3-.3 3.08-.83 5.35-1.6 4.57-1.6 7.95-2.88 10.15-3.85l.3-.1c-1.1-.27-2.27-.42-3.5-.45-2.33-.1-4.98.28-7.95 1.15" class="p"/><path d="M111.15 118.75c-.1-.03-.2-.05-.3-.05a58 58 0 0 1-4.4-.6l-.1.1c-.73.7-1.22 1.42-1.45 2.15-.3 1.1-.23 2.17.2 3.2.03.1.08.22.15.35.87 1.27 2.48 2.3 4.85 3.1 2.17.73 4.35 1.08 6.55 1.05 3.5-.07 6.42-.32 8.75-.75.1-.03.22-.07.35-.1 1.83-.33 3.65-.88 5.45-1.65q1.65-.645 2.7-2.1l.9-1.2q.3-.45.45-.9c.17-.43.28-.87.35-1.3 0-.1-.02-.2-.05-.3-.13-.6-.55-1.22-1.25-1.85-.13.03-.28.07-.45.1q-2.1.495-6.6.9c-3.6.27-7.28.33-11.05.2.17.27.28.62.35 1.05.1.73.03 1.45-.2 2.15-.27.73-.68 1.3-1.25 1.7-.57.43-1.25.63-2.05.6-.77-.03-1.4-.3-1.9-.8-.93-.97-1.15-2.25-.65-3.85.17-.5.38-.9.65-1.2m44.75-.45-.05.05c.17.3.25.65.25 1.05q.045.9-.45 1.95c-.53 1.07-1.22 1.72-2.05 1.95-.5.17-1.07.2-1.7.1-.6-.13-1.05-.37-1.35-.7-.3-.3-.52-.75-.65-1.35-.07-.6-.02-1.08.15-1.45.03-.1.08-.18.15-.25-2.03.3-3.83.38-5.4.25-.07.3-.07.82 0 1.55.03.73.1 1.2.2 1.4 1 2.47 3.47 3.73 7.4 3.8q2.295.045 5.55-.6c2.13-.43 3.88-.95 5.25-1.55q3.705-1.605 5.7-3.3c1.6-1.37 2.72-3 3.35-4.9.1-.33.05-.67-.15-1-.23-.4-.5-.75-.8-1.05-.27-.23-.55-.45-.85-.65-.33-.2-.67-.38-1-.55-.07 0-.13.02-.2.05-4.47 2.1-8.92 3.83-13.35 5.2" style="fill:#e8e6d6"/></g></g><g id="i"><path d="M81.3 92c-.13-.63-.33-1.07-.6-1.3.03 1.03-.08 2.13-.35 3.3v.15q-.555 2.1-1.8 5.1c-2.83 6.8-7.8 16.5-14.9 29.1-7.2 12.73-12.2 22.4-15 29-1.8 4.27-2.9 7.8-3.3 10.6-.57 3.83-.12 7.1 1.35 9.8 1.33 2.4 3.07 3.72 5.2 3.95 1.67.2 3.67-.52 6-2.15 6.37-4.47 11.63-11.57 15.8-21.3 1.33-3.1 2.87-7.3 4.6-12.6q3.195-9.645 4.35-12.75.105-.405.3-.6c.1-.1.2-.18.3-.25.2-.1.4-.08.6.05.03-.87.05-1.8.05-2.8 0-1.37-.02-3.45-.05-6.25.03-1.87.17-4.68.4-8.45.13-6.47-.85-14-2.95-22.6" class="p"/><path d="M80.7 90.7c0-.73-.08-1.43-.25-2.1q-.255-1.05-.9-1.8-.75-.9-1.65-.75c-.97.13-1.67 1.17-2.1 3.1-.83 3.93-2.82 8.95-5.95 15.05-1.23 2.37-6.13 11-14.7 25.9-6 10.47-10.42 19.33-13.25 26.6q-1.905 5.055-2.7 8.7c-.67 3.23-.82 6.22-.45 8.95.4 3.13 1.52 5.93 3.35 8.4 1.97 2.6 4.37 4.27 7.2 5 3.3.87 6.75.35 10.35-1.55q4.005-2.055 8.25-6.75c5.5-6.07 9.7-13.15 12.6-21.25 2.83-7.9 4.18-16.03 4.05-24.4 0-.5-.12-.93-.35-1.3-.13-.2-.25-.33-.35-.4-.2-.13-.4-.15-.6-.05-.1.07-.2.15-.3.25q-.195.195-.3.6-1.155 3.105-4.35 12.75c-1.73 5.3-3.27 9.5-4.6 12.6-4.17 9.73-9.43 16.83-15.8 21.3-2.33 1.63-4.33 2.35-6 2.15-2.13-.23-3.87-1.55-5.2-3.95-1.47-2.7-1.92-5.97-1.35-9.8.4-2.8 1.5-6.33 3.3-10.6 2.8-6.6 7.8-16.27 15-29 7.1-12.6 12.07-22.3 14.9-29.1q1.245-3 1.8-5.1V94c.27-1.17.38-2.27.35-3.3"/></g><g id="j"><g id="k"><path d="M88.9 47.75c-.68 1.37-1.35 3.24-1.99 5.63-1.25 4.52-2.25 9.21-3.01 14.05-.51 2.64-.71 4.89-.63 6.77a.4.4 0 0 0-.11-.06Q72.945 72.61 63.54 73l-5.46.45c-2.38.38-3.86.66-4.44.85-.58.12-1.54.4-2.9.85-1.39.45-2.66 1.56-3.81 3.36-.3.3-.43.68-.4 1.14-.04.04-.04.1 0 .17-.07 1.56 1.39 3.42 4.38 5.57 1.91 1.33 4.41 2.55 7.51 3.64 10.34 3.8 20.37 5.85 30.08 6.14.28.04.57.08.85.11 3.36.27 6.72.41 10.07.4 1.78-.04 3.56-.11 5.35-.23 5.68-.67 11.26-1.81 16.72-3.41 5.87-1.64 11.72-3.18 17.57-4.61 2.03-.49 4.4-1.08 7.11-1.76.52 3.39.96 6.16 1.31 8.3l.11.8c5.77-1.62 11.5-3.4 17.17-5.35 1.78-.63 3.54-1.27 5.29-1.93.75-.31 1.49-.62 2.22-.91 4.4-1.79 7.59-3.33 9.55-4.61 1.37-.94 2.13-1.85 2.27-2.73v-.51c0-.3-.06-.59-.17-.85-.15-.15-.28-.3-.4-.45-.41-.37-.82-.67-1.25-.91-1.98-1-3.97-1.83-5.97-2.5q-2.07-.6-4.38-1.02c-2.66-.51-6.33-.93-11.03-1.25-3.43-.22-6.15-.28-8.13-.17-.5.03-2.38.08-5.63.17.24-.02.48-.06.74-.11q-.27.03-.51.06c.2-1.54.41-2.76.63-3.64 2.01-9.04 3.22-18.08 3.64-27.13.11-2.85-.02-5.19-.4-6.99-.52-2.54-1.53-4.48-3.01-5.8-1.86-1.49-4.32-2.23-7.39-2.22-.76.02-1.55.08-2.39.17q-12.795 1.56-27.69 14.67c-1.76 1.6-3.11 2.62-4.04 3.07-1.82.9-3.43 1-4.83.28-.45-.23-1.04-.66-1.76-1.31-.69-.67-1.26-1.13-1.71-1.36-.88-.39-1.91-.41-3.07-.06-1.02.28-1.99.77-2.9 1.48-1.4 1.21-2.57 2.84-3.53 4.89m-.41 15.18.85-4.38c.68-3.35 1.38-5.92 2.1-7.73 1.29-2.8 3.01-4.83 5.17-6.08 1.26 1.45 2.85 2.48 4.78 3.07 1.89.62 3.73.61 5.52-.06 1.37-.5 3.16-1.73 5.35-3.7 5.24-4.54 9.66-7.82 13.25-9.84 5.4-2.94 10.51-4.44 15.35-4.49 2.03-.04 3.52.3 4.49 1.02 1.6 1.15 2.47 3.44 2.62 6.88.15 4.15-.17 9.02-.97 14.61-.27 1.84-.54 3.53-.8 5.06l-4.95 1.76c-.24.08-1.35.29-3.36.63q-1.68.27-3.36.63c-15.11 2.48-30.47 3.35-46.06 2.62m46.03-.34c.41-.11.79-.21 1.14-.28 1.06-.2 2.08-.43 3.07-.68l5.8-1.54c.06-.05.09-.09.11-.11.2-.09.43-.19.68-.28l.57-.17c-.52 2.94-.94 5.33-1.25 7.17-.28 2.12-.36 3.88-.23 5.29-7.56 1.88-16.2 3.05-25.93 3.53-4.75.25-10.63.32-17.63.23-3.44-.04-8.43-.12-14.96-.23.1-.22.19-.48.28-.8l1.99-10.18c.45.1.96.18 1.54.23 10.89.85 23.35.47 37.36-1.14 2.92-.35 5.4-.7 7.45-1.02m36.69 14.2c.69 0 1.39.03 2.1.11q1.665.18 3.36.63c1.47.33 2.53.8 3.18 1.42.17.13.3.27.4.4l.06.06h-.06q.135.255.06.51c-.1.32-.44.57-1.02.74l-3.3 1.36L148.5 92.5h-.06v-.06c0-.53-.15-1.29-.45-2.27l-.06-1.88c0-.13-.1-.68-.28-1.65-.07-.47-.18-.89-.34-1.25.8-.22 1.63-.45 2.5-.68 3.33-.9 6.19-1.68 8.59-2.33.16-.06.31-.09.45-.11q.735-.03 6.54-1.14c1.44-.22 3.04-.41 4.78-.57 1.6-.16 3.02-.28 4.26-.34.54-.02.86-.04.97-.06.41-.14.64-.37.68-.68.04-.3-.06-.57-.28-.8-.11-.07-.23-.14-.34-.23-.78-.17-1.59-.3-2.45-.4-.56 0-1.17.05-1.82.17-1.02.04-2.55.21-4.61.51q-1.425.21-2.67.51c-.21-.08-.46-.09-.74-.06-5.22.54-12.89 1.94-23.03 4.21l-22.52 5.12c-2.63.77-5.25 1.39-7.85 1.88-5.75.88-11.53 1.2-17.34.97-1.14-.09-2.31-.18-3.53-.28-3.21-.36-8.63-1.34-16.26-2.96-4.66-1.02-7.86-1.76-9.61-2.22-3.56-1.01-6.58-2.24-9.04-3.7-.65-.38-1.12-.78-1.42-1.19-.3-.19-.55-.38-.74-.57-.19-.14-.32-.27-.4-.4l-.23-.85c.09-.13.18-.25.28-.34.26-.25.72-.46 1.36-.63 4.3-1.2 9.64-1.83 16.04-1.88 4.98.07 9.05.07 12.23 0 .24 0 .46.02.68.06q.18.33 1.08.45c4.01.79 9.53 1.19 16.55 1.19 7.87.06 14.31-.03 19.33-.28 6.93-.38 13.21-1.08 18.82-2.1 1-.2 1.99-.41 2.96-.63l15.98.51c4.94.15 9.83.57 14.67 1.25M103.34 54.8c-1.66-.91-2.85-2.16-3.58-3.75-.31-.59-.58-.91-.8-.97a.89.89 0 0 0-.68.23c-.25.21-.41.44-.45.68-.06.4.09.87.45 1.42.78 1.45 1.92 2.69 3.41 3.7 2.3 1.62 5.09 2.35 8.36 2.22 2.75-.1 5.63-.86 8.64-2.27 2.7-1.26 4.66-2.77 5.86-4.55.72-1.12 1.14-2.32 1.25-3.58.08-1.35-.24-2.49-.97-3.41-.17-.17-.32-.25-.45-.23-.16.02-.27.15-.34.4-.11.56-.17 1.34-.17 2.33 0 1.02-.06 1.78-.17 2.27-.3.95-.93 1.82-1.88 2.62q-1.035.915-2.79 1.71c-3.84 1.98-7.33 2.89-10.46 2.73-1.87-.1-3.62-.61-5.23-1.54Z"/><path d="M148.44 92.5h.06l-.06-.06zm24.85-15.58c-.71-.09-1.41-.12-2.1-.11-4.84-.68-9.73-1.1-14.67-1.25l-15.98-.51c-.97.22-1.95.43-2.96.63-5.61 1.03-11.89 1.73-18.82 2.1-5.02.25-11.47.35-19.33.28-7.02 0-12.54-.4-16.55-1.19q-.9-.12-1.08-.45c-.22-.04-.45-.06-.68-.06-3.17.07-7.25.07-12.23 0-6.39.05-11.74.67-16.04 1.88-.65.16-1.1.37-1.36.63-.1.09-.2.21-.28.34l.23.85c.08.12.21.26.4.4.19.19.44.38.74.57.3.42.77.82 1.42 1.19 2.47 1.45 5.48 2.69 9.04 3.7 1.75.46 4.95 1.2 9.61 2.22 7.63 1.61 13.05 2.6 16.26 2.96 1.21.1 2.39.2 3.53.28 5.81.24 11.59-.09 17.34-.97 2.6-.48 5.21-1.11 7.85-1.88l22.52-5.12c10.14-2.27 17.81-3.67 23.03-4.21.28-.04.53-.02.74.06q1.26-.3 2.67-.51c2.06-.3 3.59-.47 4.61-.51.65-.12 1.26-.18 1.82-.17.85.09 1.67.23 2.45.4.11.09.23.16.34.23.22.23.32.49.28.8s-.27.54-.68.68l.57 1.88 3.3-1.36c.58-.17.92-.42 1.02-.74q.09-.255-.06-.51h.06l-.06-.06c-.1-.13-.23-.27-.4-.4-.65-.62-1.71-1.09-3.18-1.42q-1.695-.435-3.36-.63M89.35 58.55l-.85 4.38c15.6.74 30.95-.13 46.06-2.62q1.68-.36 3.36-.63 3-.51 3.36-.63l4.95-1.76c.26-1.54.52-3.22.8-5.06.8-5.6 1.12-10.47.97-14.61-.15-3.44-1.02-5.73-2.62-6.88-.97-.72-2.47-1.07-4.49-1.02-4.84.05-9.96 1.55-15.35 4.49-3.59 2.02-8.01 5.3-13.25 9.84-2.19 1.97-3.97 3.2-5.35 3.7q-2.67.99-5.52.06c-1.93-.59-3.52-1.62-4.78-3.07-2.16 1.25-3.89 3.28-5.17 6.08-.72 1.81-1.42 4.39-2.1 7.73m10.39-7.5c.73 1.6 1.92 2.85 3.58 3.75 1.61.92 3.36 1.43 5.23 1.54 3.14.16 6.62-.75 10.46-2.73q1.755-.78 2.79-1.71c.95-.8 1.58-1.67 1.88-2.62.11-.49.17-1.25.17-2.27 0-.99.06-1.77.17-2.33.07-.25.18-.38.34-.4.13-.02.29.06.45.23.72.93 1.04 2.06.97 3.41-.11 1.27-.53 2.46-1.25 3.58-1.2 1.78-3.15 3.29-5.86 4.55-3.01 1.41-5.89 2.17-8.64 2.27-3.27.14-6.06-.6-8.36-2.22-1.49-1.01-2.63-2.24-3.41-3.7-.37-.55-.52-1.02-.45-1.42.05-.25.2-.47.45-.68.19-.17.42-.25.68-.23.22.06.48.38.8.97Z" style="fill:#5a5f6b"/><path d="M175.39 80.16c-.11.02-.43.04-.97.06-1.24.07-2.67.18-4.26.34-1.74.16-3.33.35-4.78.57q-5.805 1.095-6.54 1.14c-.14.02-.29.06-.45.11-2.4.65-5.26 1.43-8.59 2.33-.87.24-1.7.46-2.5.68.16.36.27.78.34 1.25.19.97.28 1.52.28 1.65l.06 1.88c.3.98.45 1.74.45 2.27l.06.06 27.47-10.46zm-39.75-17.85c-.35.08-.73.17-1.14.28-2.05.33-4.53.67-7.45 1.02-14.01 1.61-26.47 1.98-37.36 1.14-.58-.05-1.09-.12-1.54-.23L86.16 74.7c-.09.31-.19.58-.28.8 6.53.11 11.51.19 14.96.23 7 .1 12.88.02 17.63-.23 9.73-.47 18.37-1.65 25.93-3.53-.13-1.41-.05-3.17.23-5.29.31-1.84.73-4.23 1.25-7.17l-.57.17c-.26.09-.48.19-.68.28-.02.03-.06.07-.11.11l-5.8 1.54c-.99.26-2.01.48-3.07.68Z" style="fill:#3c414c"/></g></g></svg>