<svg xmlns="http://www.w3.org/2000/svg" id="a" viewBox="23.25 18.47 219.37 200.14"><defs><style>.o{fill:#bf9494}.s{fill:#b89e50}</style></defs><path id="b" d="M217.28 65.75c-17.9-15.59-40.92-23.48-69.05-23.67-28.06-.1-53.12 7.44-75.17 22.61-21.83 15.2-34.19 33.72-37.08 55.55-2.76 21.73 4.77 40.34 22.61 55.84 17.97 15.46 40.98 23.32 69.05 23.58 28.13.13 53.15-7.39 75.07-22.57 21.92-15.3 34.33-33.8 37.22-55.5 2.8-21.79-4.76-40.41-22.66-55.84Z" style="fill:#161b29"/><path id="c" d="M77.26 66.66c-20.73 14.14-32.45 31.28-35.15 51.4-2.67 20.19 4.48 37.45 21.46 51.79 16.97 14.37 38.75 21.62 65.33 21.75 26.62.23 50.29-6.73 71.02-20.88 20.8-14.14 32.55-31.28 35.25-51.4 2.67-20.19-4.48-37.45-21.46-51.79-16.97-14.34-38.77-21.59-65.38-21.75q-39.87-.285-71.07 20.88" style="fill:#5d6788"/><g id="d"><g id="e"><path d="M158.06 93.25v-.06c-.38.08-.74.17-1.08.28l1.08-.23m-9.66 1.83h-.11v.06s.07-.06.11-.06m10.35-67.39c-.3-.08-.63-.15-.97-.23-2.62-.64-5.67-1.18-9.16-1.59-15.28-2.01-30.12-1.08-44.53 2.79-.08.08-.11.13-.11.17-1.33.42-2.6.87-3.81 1.36-7.7 2.77-14.9 6.43-21.61 10.98-3.3 1.97-6.26 4.53-8.87 7.68-.53.61-1.06 1.27-1.59 1.99l-.45-.28.4.28-3.24 7.68c-.72 4.25-1.27 9.1-1.65 14.56-.34 6.33-.64 11.22-.91 14.67-.38 5.61-1.76 11.3-4.15 17.06-2.24 5.57-5.17 10.67-8.81 15.3-1.67 2.12-3.17 4.15-4.49 6.08-4.7 6.75-8.59 13.88-11.66 21.38-3.53 8.57-3.58 17.08-.17 25.53.3.8.63 1.59.97 2.39 1.18 2.27 2.63 4.76 4.38 7.45 5.31 8.19 12.07 14.39 20.3 18.6 7.62 3.87 15.6 6.67 23.94 8.42 8.8 1.71 17.57 1.48 26.33-.68 9.17-2.43 17.59-6.5 25.25-12.23 7.24-5.46 13.76-11.68 19.56-18.65q3.18-3.75 6.03-8.7c1.86-3.3 2.99-7.41 3.41-12.34s-4.02-12.97-13.31-24.11c-9.29-11.15-11.45-23.71-6.48-37.7-1.44.08-2.86.11-4.26.11-1.55 0-3.11-.02-4.66-.06-7.47-.42-14.48-1.99-21.04-4.72-5.61-2.31-10.56-5.12-14.84-8.42.15 1.4.02 2.98-.4 4.72-.83 4.32-2.9 8.91-6.2 13.76a66.9 66.9 0 0 1-13.31 14.1c-4.7 3.68-9.76 6.65-15.18 8.93-.3.04-.57.09-.8.17h-.06c-5.72 1.4-9.27 1.8-10.63 1.19.45-.68 1.18-1.29 2.16-1.82.42-.23 1.29-.63 2.62-1.19 9.29-3.79 17.33-9.35 24.11-16.66q5.34-5.745 8.64-12.06c2.43-4.66 3.9-9.35 4.44-14.05.04-.34.11-.63.23-.85a49 49 0 0 1-6.37-7.39c-.53-.76-.78-1.46-.74-2.1.04-.99.64-1.91 1.82-2.79 13.8-10.84 30.22-16.74 49.25-17.69 1.29-.11 2.52-.15 3.7-.11q13.995-.06 22.86 7.68c.99.72 1.82 1.61 2.5 2.67.68.99.8 2.01.34 3.07-.04.19-.13.36-.28.51-.61.91-1.44 1.52-2.5 1.82-.15.08-.28.15-.4.23-1.86.68-3.7 1.33-5.52 1.93q-10.92 3.36-22.23 3.36c-2.54 0-5.06-.11-7.56-.34-2.62-.38-5.14-1.35-7.56-2.9 12.89.53 25.5-.7 37.82-3.7q1.59-.405 3.3-1.08l2.1-.85-2.1-2.05c-.3-.19-.59-.36-.85-.51q-10.635-6.765-26.22-4.83c-11.6 1.48-22.65 4.49-33.15 9.04q-5.805 2.565-8.25 7.11-.675 1.14.45 2.16c9.52 8.64 21.19 14.37 35.03 17.17 13.08 2.58 25.13.82 36.17-5.29 1.21-.68 2.35-1.42 3.41-2.22 6.67-4.85 11.39-10.41 14.16-16.66 2.73-6.29 4.3-11.9 4.72-16.83q.51-7.335-4.26-10.29c-3.22-2.01-5.14-3.22-5.74-3.64-.64-.42-2.52-1.19-5.63-2.33-3.15-1.1-5.69-1.91-7.62-2.45q-5.01-1.425-6.03-1.71Z" class="s"/><path d="m190.19 33.54-.57-.45c-1.36-.99-2.77-1.91-4.21-2.79a38 38 0 0 0-3.58-1.93c-.61-.27-1.19-.51-1.76-.74-1.74-.83-3.43-1.55-5.06-2.16-1.59-.61-3.17-1.19-4.72-1.76-1.06-.38-2.1-.72-3.13-1.02s-2.03-.61-3.01-.91c-1.02-.27-2.05-.53-3.07-.8-1.33-.27-2.62-.53-3.87-.8-1.36-.23-2.73-.45-4.09-.68-.87-.15-1.76-.27-2.67-.34-3.9-.45-8-.68-12.28-.68q-5.85 0-12 .63c-6.71.64-12.91 1.52-18.6 2.62v-.06c-.61.15-1.19.28-1.76.4-.38.08-.78.15-1.19.23v.06c-1.1.27-2.18.57-3.24.91-8.72 2.43-16.45 5.82-23.2 10.18a55 55 0 0 0-5.29 3.81 79.5 79.5 0 0 0-8.53 8.59c-.34.34-.63.7-.85 1.08-1.36 2.09-2.46 4.3-3.3 6.65a33 33 0 0 0-1.48 5.69c-.8 5.72-1.31 11.45-1.54 17.17-.23 5.84-.95 11.7-2.16 17.57-2.24 11.15-7.35 20.91-15.35 29.29-1.74 2.16-3.45 4.36-5.12 6.6-5 6.67-8.44 14.03-10.29 22.06-2.01 8.61-1.04 16.95 2.9 25.02.19.42.38.83.57 1.25 4.02 8.57 9.63 16.06 16.83 22.46 7.17 6.37 15.64 11.13 25.42 14.27q14.61 4.665 26.67 3.36c7.43-.61 15.13-2.6 23.09-5.97 8.72-3.6 16.76-8.36 24.11-14.27 7.17-5.72 13.38-12.36 18.65-19.9q5.115-7.74 7.56-16.89c1.59-6.14-2.71-15.35-12.91-27.64-10.24-12.32-13.19-25.15-8.87-38.5v-.06h.11c.34-.19.74-.32 1.19-.4.72-.11 1.42-.15 2.1-.11.15-.04.28-.06.4-.06q2.445-.45 4.89-1.02c.34-.11.7-.21 1.08-.28.08-.04.17-.08.28-.11 0 .04 1-.25 3.01-.85 3.75-1.29 7.26-3.03 10.52-5.23l2.73-2.16c6.03-5.12 11.07-11.71 15.13-19.79 2.2-4.4 3.81-8.68 4.83-12.85.42-1.55.7-2.98.85-4.26.49-2.88.55-5.19.17-6.94-.57-2.46-2.37-4.95-5.4-7.45m-32.4-6.12c.34.08.66.15.97.23q1.02.285 6.03 1.71c1.93.53 4.47 1.35 7.62 2.45 3.11 1.14 4.99 1.91 5.63 2.33.61.42 2.52 1.63 5.74 3.64 3.18 1.97 4.61 5.4 4.26 10.29-.42 4.93-1.99 10.54-4.72 16.83-2.77 6.26-7.49 11.81-14.16 16.66-1.06.8-2.2 1.54-3.41 2.22-11.03 6.1-23.09 7.87-36.17 5.29-13.84-2.81-25.51-8.53-35.03-17.17q-1.14-1.02-.45-2.16 2.445-4.545 8.25-7.11c10.5-4.55 21.55-7.56 33.15-9.04q15.585-1.935 26.22 4.83c.27.15.55.32.85.51l2.1 2.05-2.1.85c-1.14.45-2.24.82-3.3 1.08-12.32 2.99-24.93 4.23-37.82 3.7 2.43 1.55 4.95 2.52 7.56 2.9 2.5.23 5.02.34 7.56.34 7.54 0 14.96-1.12 22.23-3.36 1.82-.61 3.66-1.25 5.52-1.93.11-.08.25-.15.4-.23 1.06-.3 1.9-.91 2.5-1.82a.93.93 0 0 0 .28-.51c.45-1.06.34-2.09-.34-3.07a10 10 0 0 0-2.5-2.67c-5.91-5.16-13.53-7.71-22.86-7.68-1.18-.04-2.41 0-3.7.11-19.03.95-35.45 6.84-49.25 17.69-1.18.87-1.78 1.8-1.82 2.79-.04.64.21 1.35.74 2.1a49 49 0 0 0 6.37 7.39c-.11.23-.19.51-.23.85-.53 4.7-2.01 9.38-4.44 14.05q-3.3 6.315-8.64 12.06c-6.79 7.32-14.82 12.87-24.11 16.66-1.33.57-2.2.97-2.62 1.19-.99.53-1.71 1.14-2.16 1.82 1.36.61 4.91.21 10.63-1.19h.06c.23-.08.49-.13.8-.17 5.42-2.27 10.48-5.25 15.18-8.93 5.16-4.09 9.59-8.8 13.31-14.1 3.3-4.85 5.36-9.44 6.2-13.76.42-1.74.55-3.32.4-4.72 4.28 3.3 9.23 6.1 14.84 8.42 6.56 2.73 13.57 4.3 21.04 4.72 1.55.04 3.11.06 4.66.06 1.4 0 2.82-.04 4.26-.11-4.97 13.99-2.81 26.56 6.48 37.7 9.29 11.15 13.72 19.18 13.31 24.11-.42 4.93-1.55 9.04-3.41 12.34-1.9 3.3-3.9 6.2-6.03 8.7-5.8 6.98-12.32 13.19-19.56 18.65-7.66 5.72-16.07 9.8-25.25 12.23-8.76 2.16-17.53 2.39-26.33.68a96 96 0 0 1-23.94-8.42c-8.23-4.21-14.99-10.41-20.3-18.6-1.74-2.69-3.2-5.17-4.38-7.45-.34-.8-.66-1.59-.97-2.39-3.41-8.45-3.36-16.97.17-25.53 3.07-7.51 6.96-14.63 11.66-21.38 1.33-1.93 2.82-3.96 4.49-6.08a61.6 61.6 0 0 0 8.81-15.3c2.39-5.76 3.77-11.45 4.15-17.06.27-3.45.57-8.34.91-14.67.38-5.46.93-10.31 1.65-14.56l3.24-7.68-.4-.28.45.28c.53-.72 1.06-1.38 1.59-1.99 2.62-3.15 5.57-5.71 8.87-7.68a96.6 96.6 0 0 1 21.61-10.98c1.21-.49 2.48-.95 3.81-1.36 0-.04.04-.09.11-.17 14.41-3.87 29.25-4.8 44.53-2.79 3.49.42 6.54.95 9.16 1.59Z"/></g></g><g id="f"><path d="m140.05 71.2.6 2.9c-.77-.77-1.58-1.47-2.45-2.1-3.17-2.4-6.55-3.9-10.15-4.5-2.17-.37-5.18-.42-9.05-.15-4.8.33-8.43.87-10.9 1.6-1.77.5-4.02 1.37-6.75 2.6-4.27 2-7.78 3.73-10.55 5.2-1.47.77-2.7 1.52-3.7 2.25.2-.37.32-.72.35-1.05q.105-.555-.15-1.05c-.2-.37-.45-.6-.75-.7-.77-.23-1.55.2-2.35 1.3-9.93 13.33-16.62 30.22-20.05 50.65q-1.095 6.75-1.2 11.4v.75c-.23 2.33-.38 4.7-.45 7.1-.13 3.63.25 6.42 1.15 8.35.63 1.43 1.9 3.1 3.8 5 3.33 3.33 7.27 6.67 11.8 10 3.43 2.53 7.73 5.42 12.9 8.65 11.33 7.07 21.38 12.43 30.15 16.1q17.145 7.2 32.7 8.1 7.65.45 13.5-.9c3.13-.73 6.85-2.12 11.15-4.15 4.7-2.3 8.67-4.57 11.9-6.8 4.67-3.23 8.83-6.95 12.5-11.15.1 2.07.27 4.35.5 6.85.13 1.57.53 2.63 1.2 3.2 1.2 1 2.83.78 4.9-.65 2.33-1.6 4.87-4.2 7.6-7.8 4-5.3 7.88-11.58 11.65-18.85 2.5-4.77 5.68-11.45 9.55-20.05 1.33-2.93 2.22-5.3 2.65-7.1.67-2.7.7-5.12.1-7.25-.97-3.37-3.28-6.02-6.95-7.95-2.53-1.37-6-2.32-10.4-2.85q-12-1.395-32.1 1.5c-15.93 2.3-26.67 3.48-32.2 3.55-1.2 0-2.05-.17-2.55-.5-.6-.4-1.12-1.33-1.55-2.8l-7.6-28.95c-.13-.47-.25-.93-.35-1.4 0-2.7-.87-5.6-2.6-8.7-1-2.67-2.08-5-3.25-7-.83-1.43-1.7-2.32-2.6-2.65m-32.45 1.4c4.27-1.2 8.63-1.8 13.1-1.8q6.75-.105 11.4 1.95c4.37 1.9 7.83 5.22 10.4 9.95 2.9 13.3 6.07 26.22 9.5 38.75.7 2.47 1.57 4.08 2.6 4.85.67.47 1.5.77 2.5.9.67.07 1.58.07 2.75 0 3.67-.2 14.4-1.57 32.2-4.1 13.1-1.87 23.83-2.35 32.2-1.45 3.7.37 6.58 1.15 8.65 2.35 1.37.8 2.47 1.83 3.3 3.1q1.35 2.055 1.35 4.2-.045 1.905-1.5 5.1-7.395 16.95-11.85 25.35-7.305 13.695-15.45 23.1l-.9-6.3c-.2-1.27-.6-2.03-1.2-2.3a.93.93 0 0 0-.45-.1c-.03-.17-.1-.3-.2-.4q-.405-.555-1.2-.6c-.53-.07-1.02.02-1.45.25-.47.23-1.17.9-2.1 2-1.57 1.83-3.6 3.55-6.1 5.15-1.57 1.03-3.93 2.35-7.1 3.95-4.83 2.53-8.63 4.37-11.4 5.5-4.33 1.77-8.37 2.88-12.1 3.35q-7.395.9-18.9-1.35c-6.17-1.2-11.5-2.62-16-4.25-2.97-1.07-6.33-2.52-10.1-4.35-15.57-7.53-29.28-16.02-41.15-25.45-1.73-1.4-3.07-2.55-4-3.45-1.37-1.37-2.43-2.75-3.2-4.15-1.47-2.7-2.2-6.7-2.2-12 0-3.4.18-7.27.55-11.6q.3-3.345 1.2-11.55l.6-5.3c1.9-6.3 4.3-12.37 7.2-18.2q1.245-2.1 3.6-5.1c2.6-3.27 4.72-5.53 6.35-6.8 1.3-1 2.98-2.05 5.05-3.15 5.47-2.93 10.15-4.95 14.05-6.05m67.4 87.95c.07-.47-.03-.9-.3-1.3-.3-.43-.67-.63-1.1-.6-.6.03-1.2.22-1.8.55-.27.13-.83.6-1.7 1.4l-3.5 3.6c-.5.5-.73.92-.7 1.25 0 .37.18.65.55.85.33.2.72.3 1.15.3 1.13-.07 2.5-.77 4.1-2.1.43-.37 1.05-.95 1.85-1.75.87-.8 1.35-1.53 1.45-2.2m1.4-12.05c-.57-.27-1.12-.28-1.65-.05-.13.07-.45.3-.95.7-1.67 1.67-2.65 2.68-2.95 3.05-.57.63-.87 1.2-.9 1.7-.03.33.05.65.25.95.23.3.5.47.8.5q.405 0 .9-.3c1.93-1 3.28-1.83 4.05-2.5 1.07-.87 1.53-1.77 1.4-2.7-.1-.63-.42-1.08-.95-1.35m8.2 4.5c-.3.07-.72.27-1.25.6-1.23.87-2.48 1.93-3.75 3.2-.33.4-.53.73-.6 1-.07.3 0 .6.2.9.17.27.4.47.7.6.57.2 1.2.18 1.9-.05 1.07-.3 2.45-1.17 4.15-2.6q.855-.645 1.05-1.2c.195-.555.13-.77 0-1.2-.13-.4-.37-.72-.7-.95-.5-.37-1.07-.47-1.7-.3"/><path d="M120.7 70.8c-4.47 0-8.83.6-13.1 1.8-3.9 1.1-8.58 3.12-14.05 6.05-2.07 1.1-3.75 2.15-5.05 3.15-1.63 1.27-3.75 3.53-6.35 6.8q-2.355 3-3.6 5.1c-2.9 5.83-5.3 11.9-7.2 18.2l-.6 5.3q-.9 8.205-1.2 11.55c-.37 4.33-.55 8.2-.55 11.6 0 5.3.73 9.3 2.2 12 .77 1.4 1.83 2.78 3.2 4.15.93.9 2.27 2.05 4 3.45 11.87 9.43 25.58 17.92 41.15 25.45 3.77 1.83 7.13 3.28 10.1 4.35 4.5 1.63 9.83 3.05 16 4.25q11.505 2.25 18.9 1.35c3.73-.47 7.77-1.58 12.1-3.35 2.77-1.13 6.57-2.97 11.4-5.5 3.17-1.6 5.53-2.92 7.1-3.95 2.5-1.6 4.53-3.32 6.1-5.15.93-1.1 1.63-1.77 2.1-2 .43-.23.92-.32 1.45-.25q.795.045 1.2.6c.1.1.17.23.2.4.17 0 .32.03.45.1.6.27 1 1.03 1.2 2.3l.9 6.3q8.145-9.405 15.45-23.1 4.455-8.4 11.85-25.35 1.455-3.195 1.5-5.1 0-2.145-1.35-4.2c-.83-1.27-1.93-2.3-3.3-3.1-2.07-1.2-4.95-1.98-8.65-2.35-8.37-.9-19.1-.42-32.2 1.45-17.8 2.53-28.53 3.9-32.2 4.1-1.17.07-2.08.07-2.75 0-1-.13-1.83-.43-2.5-.9-1.03-.77-1.9-2.38-2.6-4.85-3.43-12.53-6.6-25.45-9.5-38.75-2.57-4.73-6.03-8.05-10.4-9.95q-4.65-2.055-11.4-1.95m62.65 82.8c.53-.33.95-.53 1.25-.6.63-.17 1.2-.07 1.7.3.33.23.57.55.7.95q.195.645 0 1.2c-.195.555-.48.77-1.05 1.2-1.7 1.43-3.08 2.3-4.15 2.6-.7.23-1.33.25-1.9.05-.3-.13-.53-.33-.7-.6-.2-.3-.27-.6-.2-.9.07-.27.27-.6.6-1 1.27-1.27 2.52-2.33 3.75-3.2m-8.6-5.15c.53-.23 1.08-.22 1.65.05.53.27.85.72.95 1.35.13.93-.33 1.83-1.4 2.7-.77.67-2.12 1.5-4.05 2.5q-.495.3-.9.3c-.3-.03-.57-.2-.8-.5-.2-.3-.28-.62-.25-.95.03-.5.33-1.07.9-1.7.3-.37 1.28-1.38 2.95-3.05.5-.4.82-.63.95-.7m-.05 10.8c.27.4.37.83.3 1.3-.1.67-.58 1.4-1.45 2.2-.8.8-1.42 1.38-1.85 1.75-1.6 1.33-2.97 2.03-4.1 2.1-.43 0-.82-.1-1.15-.3-.37-.2-.55-.48-.55-.85-.03-.33.2-.75.7-1.25l3.5-3.6c.87-.8 1.43-1.27 1.7-1.4.6-.33 1.2-.52 1.8-.55.43-.03.8.17 1.1.6" class="o"/></g><g id="g"><path d="M165.55 165.85c-.13.43-.05.83.25 1.2.3.4.67.6 1.1.6.4 0 .87-.2 1.4-.6.43-.27 1.03-.73 1.8-1.4s1.35-1.15 1.75-1.45c.6-.4 1-.73 1.2-1 .33-.57.37-1.12.1-1.65-.37-.67-.88-.95-1.55-.85-.23.03-.58.2-1.05.5-1.57 1.1-2.98 2.28-4.25 3.55-.43.43-.68.8-.75 1.1m5.95-11.25c.23-.13.5-.32.8-.55l.7-.65 2.05-1.4c.8-.63 1.28-1.27 1.45-1.9.2-.57.12-.98-.25-1.25q-.555-.345-1.5.15-2.205 1.155-3.45 2.4l-1 1c-.43.3-.7.52-.8.65-.17.27-.23.55-.2.85q.105.495.45.75c.5.4 1.08.38 1.75-.05m13.9 2.95c.53-.53.62-1.18.25-1.95-.17-.4-.43-.68-.8-.85-.5-.17-1.08-.02-1.75.45q-1.35.795-2.7 2.25c-.67.67-.95 1.27-.85 1.8.03.3.22.55.55.75.3.2.62.3.95.3.57-.03 1.15-.3 1.75-.8.97-.8 1.48-1.22 1.55-1.25.53-.3.88-.53 1.05-.7m46.55.85c1.13-3.17 1.95-5.8 2.45-7.9.57-2.6.85-5.02.85-7.25v-.95c0-.6-.17-.97-.5-1.1-.1-.03-.17-.05-.2-.05-.37 0-.68.27-.95.8q-1.455 2.355-10.2 19.5c-.65 1.28-1.3 2.49-1.95 3.65-.7 1.3-1.4 2.54-2.1 3.7a74 74 0 0 1-3.7 5.6c-.2-1.73-.63-3.27-1.3-4.6-.53-1.03-1.15-1.62-1.85-1.75-.18-.03-.36-.03-.55 0-.66.14-1.39.69-2.2 1.65l-2.35 3.05q-.195-1.155-1.2-1.95c-.7-.53-1.43-.75-2.2-.65-1 .17-1.98.8-2.95 1.9-1.23 1.4-2.6 3.58-4.1 6.55-1.63 3.47-2.85 6.48-3.65 9.05-.37 1.33-.62 2.55-.75 3.65-3.67 1.4-7.63 2.57-11.9 3.5-6.78 1.46-13.76 1.88-20.95 1.25-1.5-.13-3.02-.31-4.55-.55-1.8-.24-3.62-.56-5.45-.95-10.77-2.33-18.77-4.52-24-6.55-5.2-2.03-7.77-2.27-7.7-.7.03 1.53.05 2.47.05 2.8s.12.7.35 1.1c.37.67.9 1.25 1.6 1.75 6 4.07 12.88 7.07 20.65 9 7 1.7 14.52 2.5 22.55 2.4 10.63-.2 20.4-1.85 29.3-4.95 5.93-2.07 11.32-4.75 16.15-8.05 5.2-3.6 9.57-7.75 13.1-12.45 3.6-4.93 7-11.77 10.2-20.5m-28.75 14.8c.5-.4 1.03-.55 1.6-.45 1.43 2.37 2.33 4.25 2.7 5.65l1.95-4.05c.6-1.17 1.42-2.32 2.45-3.45.7 2.3 1.02 4.62.95 6.95-.5.57-1 1.1-1.5 1.6-4.33 4.4-9.72 7.98-16.15 10.75 1.4-5.6 3.7-10.83 6.9-15.7.47-.63.83-1.07 1.1-1.3"/><path d="M199.8 165.95c-2.83.8-6.27 2.13-10.3 4-14.07 6.63-25.1 14.62-33.1 23.95-.5.57-.91 1.1-1.25 1.6 1.53.24 3.05.42 4.55.55 7.19.63 14.17.21 20.95-1.25 4.27-.93 8.23-2.1 11.9-3.5.13-1.1.38-2.32.75-3.65.8-2.57 2.02-5.58 3.65-9.05 1.5-2.97 2.87-5.15 4.1-6.55.97-1.1 1.95-1.73 2.95-1.9.77-.1 1.5.12 2.2.65q1.005.795 1.2 1.95l2.35-3.05c.81-.96 1.54-1.51 2.2-1.65.19-.03.37-.03.55 0 2.36.03 4.64.28 6.85.75.7-1.16 1.4-2.4 2.1-3.7-7.23-1.5-14.45-1.22-21.65.85" class="o"/><path d="M204.8 172.75c-.57-.1-1.1.05-1.6.45-.27.23-.63.67-1.1 1.3-3.2 4.87-5.5 10.1-6.9 15.7 6.43-2.77 11.82-6.35 16.15-10.75.5-.5 1-1.03 1.5-1.6.07-2.33-.25-4.65-.95-6.95-1.03 1.13-1.85 2.28-2.45 3.45l-1.95 4.05c-.37-1.4-1.27-3.28-2.7-5.65" style="fill:#7f2756"/></g><g id="h"><path d="M222.5 148.95c2.23-1.83 4.33-3.77 6.3-5.8 2.27-2.4 4.08-5.1 5.45-8.1 1-2.2.7-4.18-.9-5.95-1.43-1.53-3.17-2.6-5.2-3.2-3.13-.77-6.3-1.22-9.5-1.35-2.67-.03-5.3-.07-7.9-.1-2.97-.07-5.93.1-8.9.5-2.87.2-5.77.53-8.7 1-3.03.67-6.02 1.48-8.95 2.45-2.6 1-5.08 2.2-7.45 3.6-1.63 1-2.45 2.45-2.45 4.35.53 1.8 1.42 3.32 2.65 4.55 2.13 2.07 4.5 3.88 7.1 5.45s5.37 2.85 8.3 3.85c2.53.8 5.15 1.57 7.85 2.3 3.07.83 6.2 1.28 9.4 1.35a17.7 17.7 0 0 0 8.15-1.85c1.73-.8 3.32-1.82 4.75-3.05m8.7-14.35a40 40 0 0 0-8.45-1.1c-3.23-.27-6.48-.35-9.75-.25-2.97.07-5.97.1-9 .1-3.67.03-7.33.38-11 1.05-4.53.67-9 1.75-13.4 3.25l-2.15-2.4c2.2-1.8 4.68-3.07 7.45-3.8 2.73-.73 5.5-1.32 8.3-1.75s5.62-.73 8.45-.9c3.1-.33 6.22-.53 9.35-.6 2.73-.07 5.52 0 8.35.2 3.1.07 6.18.48 9.25 1.25 2.8.73 3.67 2.38 2.6 4.95"/><path d="M222.75 133.5c2.87.07 5.68.43 8.45 1.1 1.07-2.57.2-4.22-2.6-4.95-3.07-.77-6.15-1.18-9.25-1.25-2.83-.2-5.62-.27-8.35-.2-3.13.07-6.25.27-9.35.6-2.83.17-5.65.47-8.45.9s-5.57 1.02-8.3 1.75c-2.77.73-5.25 2-7.45 3.8l2.15 2.4c4.4-1.5 8.87-2.58 13.4-3.25 3.67-.67 7.33-1.02 11-1.05 3.03 0 6.03-.03 9-.1 3.27-.1 6.52-.02 9.75.25" style="fill:#d6dee8"/></g><g id="i"><g id="j"><path d="M138.1 124.9q.945-1.155 1.2-2.7c0-.17.02-.35.05-.55V121c0-1.47-.47-2.88-1.4-4.25-.93-1.3-2.18-2.48-3.75-3.55-2.7-1.8-5.68-2.9-8.95-3.3-.43-.07-.85-.1-1.25-.1-2.53-.23-5.2-.08-8 .45-4.07.7-7.42 1.97-10.05 3.8-.57.37-1.08.77-1.55 1.2-3-.83-5.68-2.03-8.05-3.6-.33-.2-.57-.27-.7-.2q-.45.255 0 1.05c.7 1.03 1.73 1.97 3.1 2.8 1.17.73 2.5 1.37 4 1.9-.07.07-.13.17-.2.3-.57.87-.9 1.78-1 2.75-.07.9 0 1.78.2 2.65.7 2.23 1.77 3.93 3.2 5.1 1.23 1.07 3.1 1.97 5.6 2.7 3.6 1.07 8.62 1 15.05-.2 1.07-.17 2.13-.38 3.2-.65 1.83-.53 3.65-1.23 5.45-2.1 1.53-.67 2.82-1.62 3.85-2.85m-27.25-6.2c.1 0 .2.02.3.05-.27.3-.48.7-.65 1.2-.5 1.6-.28 2.88.65 3.85.5.5 1.13.77 1.9.8.8.03 1.48-.17 2.05-.6.57-.4.98-.97 1.25-1.7.23-.7.3-1.42.2-2.15-.07-.43-.18-.78-.35-1.05 3.77.13 7.45.07 11.05-.2q4.5-.405 6.6-.9c.17-.03.32-.07.45-.1.7.63 1.12 1.25 1.25 1.85.03.1.05.2.05.3-.07.43-.18.87-.35 1.3q-.15.45-.45.9l-.9 1.2q-1.05 1.455-2.7 2.1c-1.8.77-3.62 1.32-5.45 1.65-.13.03-.25.07-.35.1-2.33.43-5.25.68-8.75.75-2.2.03-4.38-.32-6.55-1.05-2.37-.8-3.98-1.83-4.85-3.1-.07-.13-.12-.25-.15-.35-.43-1.03-.5-2.1-.2-3.2.23-.73.72-1.45 1.45-2.15l.1-.1c1.27.23 2.73.43 4.4.6m14.35-5c2.7.47 5.1 1.38 7.2 2.75-3.17.4-7.18.57-12.05.5-4.5 0-8.28-.23-11.35-.7 1.87-1.07 4.23-1.85 7.1-2.35 3.3-.6 6.33-.67 9.1-.2m31-4.1c-3.07.73-5.92 1.95-8.55 3.65-2.5 1.6-4.12 3.3-4.85 5.1-.27.63-.42 1.6-.45 2.9v1.05c.97 3.97 3.42 6.2 7.35 6.7 3.37.57 6.7.45 10-.35 4.73-1.03 8.95-3.13 12.65-6.3 3.03-2.53 3.75-5.45 2.15-8.75-.33-.5-.75-.98-1.25-1.45-.27-.27-.55-.5-.85-.7q.945-.555 1.65-1.05c1.5-1.1 2.33-2.22 2.5-3.35.07-.27.03-.47-.1-.6-.2-.23-.53-.17-1 .2-1.57 1.23-3.37 2.4-5.4 3.5q-2.1-.9-4.8-1.2c-1.5-.17-3-.18-4.5-.05-1.53.1-3.05.33-4.55.7m-.35 8.75.05-.05c4.43-1.37 8.88-3.1 13.35-5.2.07-.03.13-.05.2-.05.33.17.67.35 1 .55.3.2.58.42.85.65.3.3.57.65.8 1.05.2.33.25.67.15 1-.63 1.9-1.75 3.53-3.35 4.9q-1.995 1.695-5.7 3.3c-1.37.6-3.12 1.12-5.25 1.55q-3.255.645-5.55.6c-3.93-.07-6.4-1.33-7.4-3.8-.1-.2-.17-.67-.2-1.4-.07-.73-.07-1.25 0-1.55 1.57.13 3.37.05 5.4-.25-.07.07-.12.15-.15.25-.17.37-.22.85-.15 1.45.13.6.35 1.05.65 1.35.3.33.75.57 1.35.7.63.1 1.2.07 1.7-.1.83-.23 1.52-.88 2.05-1.95q.495-1.05.45-1.95c0-.4-.08-.75-.25-1.05m-8.2-2.4q2.895-2.145 7.35-3.3c2.97-.87 5.62-1.25 7.95-1.15 1.23.03 2.4.18 3.5.45l-.3.1c-2.2.97-5.58 2.25-10.15 3.85-2.27.77-4.05 1.3-5.35 1.6-1 .23-2.57.45-4.7.65l-.65.1c.43-.77 1.22-1.53 2.35-2.3"/><path d="M132.4 116.45c-2.1-1.37-4.5-2.28-7.2-2.75-2.77-.47-5.8-.4-9.1.2-2.87.5-5.23 1.28-7.1 2.35 3.07.47 6.85.7 11.35.7 4.87.07 8.88-.1 12.05-.5m22.6-3.8q-4.455 1.155-7.35 3.3c-1.13.77-1.92 1.53-2.35 2.3l.65-.1c2.13-.2 3.7-.42 4.7-.65 1.3-.3 3.08-.83 5.35-1.6 4.57-1.6 7.95-2.88 10.15-3.85l.3-.1c-1.1-.27-2.27-.42-3.5-.45-2.33-.1-4.98.28-7.95 1.15" class="o"/><path d="M111.15 118.75c-.1-.03-.2-.05-.3-.05a58 58 0 0 1-4.4-.6l-.1.1c-.73.7-1.22 1.42-1.45 2.15-.3 1.1-.23 2.17.2 3.2.03.1.08.22.15.35.87 1.27 2.48 2.3 4.85 3.1 2.17.73 4.35 1.08 6.55 1.05 3.5-.07 6.42-.32 8.75-.75.1-.03.22-.07.35-.1 1.83-.33 3.65-.88 5.45-1.65q1.65-.645 2.7-2.1l.9-1.2q.3-.45.45-.9c.17-.43.28-.87.35-1.3 0-.1-.02-.2-.05-.3-.13-.6-.55-1.22-1.25-1.85-.13.03-.28.07-.45.1q-2.1.495-6.6.9c-3.6.27-7.28.33-11.05.2.17.27.28.62.35 1.05.1.73.03 1.45-.2 2.15-.27.73-.68 1.3-1.25 1.7-.57.43-1.25.63-2.05.6-.77-.03-1.4-.3-1.9-.8-.93-.97-1.15-2.25-.65-3.85.17-.5.38-.9.65-1.2m44.75-.45-.05.05c.17.3.25.65.25 1.05q.045.9-.45 1.95c-.53 1.07-1.22 1.72-2.05 1.95-.5.17-1.07.2-1.7.1-.6-.13-1.05-.37-1.35-.7-.3-.3-.52-.75-.65-1.35-.07-.6-.02-1.08.15-1.45.03-.1.08-.18.15-.25-2.03.3-3.83.38-5.4.25-.07.3-.07.82 0 1.55.03.73.1 1.2.2 1.4 1 2.47 3.47 3.73 7.4 3.8q2.295.045 5.55-.6c2.13-.43 3.88-.95 5.25-1.55q3.705-1.605 5.7-3.3c1.6-1.37 2.72-3 3.35-4.9.1-.33.05-.67-.15-1-.23-.4-.5-.75-.8-1.05-.27-.23-.55-.45-.85-.65-.33-.2-.67-.38-1-.55-.07 0-.13.02-.2.05-4.47 2.1-8.92 3.83-13.35 5.2" style="fill:#e8e6d6"/></g></g><g id="k"><path d="M80.35 94.15V94c.27-1.17.38-2.27.35-3.3 0-.73-.08-1.43-.25-2.1q-.255-1.05-.9-1.8-.75-.9-1.65-.75c-.97.13-1.67 1.17-2.1 3.1-.83 3.93-2.82 8.95-5.95 15.05-1.23 2.37-6.13 11-14.7 25.9-6 10.47-10.42 19.33-13.25 26.6q-1.905 5.055-2.7 8.7c-.67 3.23-.82 6.22-.45 8.95.4 3.13 1.52 5.93 3.35 8.4 1.97 2.6 4.37 4.27 7.2 5 3.3.87 6.75.35 10.35-1.55q4.005-2.055 8.25-6.75c5.5-6.07 9.7-13.15 12.6-21.25 2.83-7.9 4.18-16.03 4.05-24.4 0-.5-.12-.93-.35-1.3-.13-.2-.25-.33-.35-.4-.2-.13-.4-.15-.6-.05-.1.07-.2.15-.3.25q-.195.195-.3.6-1.155 3.105-4.35 12.75c-1.73 5.3-3.27 9.5-4.6 12.6-4.17 9.73-9.43 16.83-15.8 21.3-2.33 1.63-4.33 2.35-6 2.15-2.13-.23-3.87-1.55-5.2-3.95-1.47-2.7-1.92-5.97-1.35-9.8.4-2.8 1.5-6.33 3.3-10.6 2.8-6.6 7.8-16.27 15-29 7.1-12.6 12.07-22.3 14.9-29.1q1.245-3 1.8-5.1"/><path d="M80.35 94v.15q-.555 2.1-1.8 5.1c-2.83 6.8-7.8 16.5-14.9 29.1-7.2 12.73-12.2 22.4-15 29-1.8 4.27-2.9 7.8-3.3 10.6-.57 3.83-.12 7.1 1.35 9.8 1.33 2.4 3.07 3.72 5.2 3.95 1.67.2 3.67-.52 6-2.15 6.37-4.47 11.63-11.57 15.8-21.3 1.33-3.1 2.87-7.3 4.6-12.6q3.195-9.645 4.35-12.75.105-.405.3-.6c.1-.1.2-.18.3-.25.2-.1.4-.08.6.05.03-.87.05-1.8.05-2.8 0-1.37-.02-3.45-.05-6.25.03-1.87.17-4.68.4-8.45.13-6.47-.85-14-2.95-22.6-.13-.63-.33-1.07-.6-1.3.03 1.03-.08 2.13-.35 3.3" class="o"/></g><g id="l"><g id="m"><path d="m64.78 58.48 3.24-7.68-.4-.28.45.28c.53-.72 1.06-1.38 1.59-1.99 2.62-3.15 5.57-5.71 8.87-7.68a96.6 96.6 0 0 1 21.61-10.98c1.21-.49 2.48-.95 3.81-1.36 0-.04.04-.09.11-.17 14.41-3.87 29.25-4.8 44.53-2.79 3.49.42 6.54.95 9.16 1.59.34.08.66.15.97.23q1.02.285 6.03 1.71c1.93.53 4.47 1.35 7.62 2.45 3.11 1.14 4.99 1.91 5.63 2.33.61.42 2.52 1.63 5.74 3.64 3.18 1.97 4.61 5.4 4.26 10.29-.42 4.93-1.99 10.54-4.72 16.83-2.77 6.26-7.49 11.81-14.16 16.66-1.06.8-2.2 1.54-3.41 2.22-11.03 6.1-23.09 7.87-36.17 5.29-13.84-2.81-25.51-8.53-35.03-17.17q-1.14-1.02-.45-2.16 2.445-4.545 8.25-7.11c10.5-4.55 21.55-7.56 33.15-9.04q15.585-1.935 26.22 4.83c.27.15.55.32.85.51l2.1 2.05-2.1.85c-1.14.45-2.24.82-3.3 1.08-12.32 2.99-24.93 4.23-37.82 3.7 2.43 1.55 4.95 2.52 7.56 2.9 2.5.23 5.02.34 7.56.34 7.54 0 14.96-1.12 22.23-3.36 1.82-.61 3.66-1.25 5.52-1.93.11-.08.25-.15.4-.23 1.06-.3 1.9-.91 2.5-1.82a.93.93 0 0 0 .28-.51c.45-1.06.34-2.09-.34-3.07a10 10 0 0 0-2.5-2.67c-5.91-5.16-13.53-7.71-22.86-7.68-1.18-.04-2.41 0-3.7.11-19.03.95-35.45 6.84-49.25 17.69-1.18.87-1.78 1.8-1.82 2.79-.04.64.21 1.35.74 2.1a49 49 0 0 0 6.37 7.39c-.11.23-.19.51-.23.85-.53 4.7-2.01 9.38-4.44 14.05q-3.3 6.315-8.64 12.06c-6.79 7.32-14.82 12.87-24.11 16.66-1.33.57-2.2.97-2.62 1.19-.87.49-1.54 1.04-1.99 1.65-.08.04-.13.09-.17.17 1.59 1.44 5.14 1.04 10.63-1.19h.06c.23-.08.49-.13.8-.17 5.42-2.27 10.48-5.25 15.18-8.93 5.16-4.09 9.59-8.8 13.31-14.1 3.3-4.85 5.36-9.44 6.2-13.76.42-1.74.55-3.32.4-4.72 4.28 3.3 9.23 6.1 14.84 8.42 6.56 2.73 13.57 4.3 21.04 4.72 1.55.04 3.11.06 4.66.06 6.44 0 12.78-.82 18.99-2.45.08-.04.17-.08.28-.11 0 .04 1-.25 3.01-.85 3.75-1.29 7.26-3.03 10.52-5.23l2.73-2.16c6.03-5.12 11.07-11.71 15.13-19.79 2.2-4.4 3.81-8.68 4.83-12.85.42-1.55.7-2.98.85-4.26.49-2.88.55-5.19.17-6.94-.57-2.46-2.37-4.95-5.4-7.45l-.57-.45c-1.36-.99-2.77-1.91-4.21-2.79a38 38 0 0 0-3.58-1.93c-.61-.27-1.19-.51-1.76-.74-1.74-.83-3.43-1.55-5.06-2.16-1.59-.61-3.17-1.19-4.72-1.76-1.06-.38-2.1-.72-3.13-1.02-1.02-.3-2.03-.61-3.01-.91-1.02-.27-2.05-.53-3.07-.8-1.33-.27-2.62-.53-3.87-.8-1.36-.23-2.73-.45-4.09-.68-.87-.15-1.76-.27-2.67-.34-3.9-.45-8-.68-12.28-.68q-5.85 0-12 .63c-6.71.64-12.91 1.52-18.6 2.62v-.06c-.61.15-1.19.28-1.76.4-.38.08-.78.15-1.19.23v.06c-1.1.27-2.18.57-3.24.91-8.72 2.43-16.45 5.82-23.2 10.18a55 55 0 0 0-5.29 3.81 79.5 79.5 0 0 0-8.53 8.59c-.34.34-.63.7-.85 1.08-1.36 2.09-2.46 4.3-3.3 6.65a33 33 0 0 0-1.48 5.69c-.8 5.72-1.31 11.45-1.54 17.17-.23 5.84-.95 11.7-2.16 17.57-2.24 11.15-7.35 20.91-15.35 29.29-.38.45-.74.91-1.08 1.36l7.11.28c1.1-1.55 2.29-3.17 3.58-4.83a61.6 61.6 0 0 0 8.81-15.3c2.39-5.76 3.77-11.45 4.15-17.06.27-3.45.57-8.34.91-14.67.38-5.46.93-10.31 1.65-14.56Z"/><path d="m68.02 50.8-3.24 7.68c-.72 4.25-1.27 9.1-1.65 14.56-.34 6.33-.64 11.22-.91 14.67-.38 5.61-1.76 11.3-4.15 17.06-2.24 5.57-5.17 10.67-8.81 15.3-1.29 1.67-2.48 3.28-3.58 4.83l6.43.23c.45-.61 1.12-1.16 1.99-1.65.42-.23 1.29-.63 2.62-1.19 9.29-3.79 17.33-9.35 24.11-16.66q5.34-5.745 8.64-12.06c2.43-4.66 3.9-9.35 4.44-14.05.04-.34.11-.63.23-.85a49 49 0 0 1-6.37-7.39c-.53-.76-.78-1.46-.74-2.1.04-.99.64-1.91 1.82-2.79 13.8-10.84 30.22-16.74 49.25-17.69 1.29-.11 2.52-.15 3.7-.11q13.995-.06 22.86 7.68c.99.72 1.82 1.61 2.5 2.67.68.99.8 2.01.34 3.07-.04.19-.13.36-.28.51-.61.91-1.44 1.52-2.5 1.82-.15.08-.28.15-.4.23-1.86.68-3.7 1.33-5.52 1.93q-10.92 3.36-22.23 3.36c-2.54 0-5.06-.11-7.56-.34-2.62-.38-5.14-1.35-7.56-2.9 12.89.53 25.5-.7 37.82-3.7q1.59-.405 3.3-1.08l2.1-.85-2.1-2.05c-.3-.19-.59-.36-.85-.51q-10.635-6.765-26.22-4.83c-11.6 1.48-22.65 4.49-33.15 9.04q-5.805 2.565-8.25 7.11-.675 1.14.45 2.16c9.52 8.64 21.19 14.37 35.03 17.17 13.08 2.58 25.13.82 36.17-5.29 1.21-.68 2.35-1.42 3.41-2.22 6.67-4.85 11.39-10.41 14.16-16.66 2.73-6.29 4.3-11.9 4.72-16.83q.51-7.335-4.26-10.29c-3.22-2.01-5.14-3.22-5.74-3.64-.64-.42-2.52-1.19-5.63-2.33-3.15-1.1-5.69-1.91-7.62-2.45q-5.01-1.425-6.03-1.71c-.3-.08-.63-.15-.97-.23-2.62-.64-5.67-1.18-9.16-1.59-15.28-2.01-30.12-1.08-44.53 2.79-.08.08-.11.13-.11.17-1.33.42-2.6.87-3.81 1.36-7.7 2.77-14.9 6.43-21.61 10.98-3.3 1.97-6.26 4.53-8.87 7.68-.53.61-1.06 1.27-1.59 1.99l-.45-.28.4.28Z" class="s"/></g></g></svg>