<svg xmlns="http://www.w3.org/2000/svg" id="a" viewBox="6.65 12.58 235.98 191.78"><defs><style>.n{fill:#a7554a}.o{fill:#d6c878}</style></defs><path id="b" d="M217.28 65.75c-17.9-15.59-40.92-23.48-69.05-23.67-28.06-.1-53.12 7.44-75.17 22.61-21.83 15.2-34.19 33.72-37.08 55.55-2.76 21.73 4.77 40.34 22.61 55.84 17.97 15.46 40.98 23.32 69.05 23.58 28.13.13 53.15-7.39 75.07-22.57 21.92-15.3 34.33-33.8 37.22-55.5 2.8-21.79-4.76-40.41-22.66-55.84Z" style="fill:#161b29"/><path id="c" d="M77.26 66.66c-20.73 14.14-32.45 31.28-35.15 51.4-2.67 20.19 4.48 37.45 21.46 51.79 16.97 14.37 38.75 21.62 65.33 21.75 26.62.23 50.29-6.73 71.02-20.88 20.8-14.14 32.55-31.28 35.25-51.4 2.67-20.19-4.48-37.45-21.46-51.79-16.97-14.34-38.77-21.59-65.38-21.75q-39.87-.285-71.07 20.88" style="fill:#5d6788"/><g id="d"><g id="e"><path d="M86.29 18.17c-5.65 4.17-10.9 9.84-15.75 17q-2.67 4.035-5.46 9.33c-.45-.15-.97-.27-1.54-.34-5.91-.95-11.7-.3-17.34 1.93-5.84 2.31-10.33 5.88-13.48 10.69-3.64 5.38-5.38 11.92-5.23 19.62.11 5.72 1.42 12.45 3.92 20.19 1.71 5.23 3.64 10.03 5.8 14.39q-11.49 5.745-20.7 12.45c-4.28 3.03-7.09 5.97-8.42 8.81-1.06 2.35-1.54 5.17-1.42 8.47.23 7.77 3.18 15.45 8.87 23.03 5.84 7.85 13.42 14.05 22.75 18.6 2.54 1.25 5.12 2.33 7.73 3.24.08 0 .13.02.17.06 2.92 1.29 6.01 2.31 9.27 3.07 11.41 2.73 22.54 2.62 33.38-.34a60.6 60.6 0 0 0 15.47-6.6c4.89-2.96 9.23-6.5 13.02-10.63 7.35-8.11 13-19.11 16.95-32.98 1.93-6.75 3.24-13.23 3.92-19.45l.51-26.33c.11-2.81.21-4.78.28-5.91.08-.61.17-1.42.28-2.45 2.09 2.62 4.23 4.26 6.43 4.95 2.92.95 5.99.63 9.21-.97 2.27-1.18 4.76-3.13 7.45-5.86a74.8 74.8 0 0 0 12.06-16.26c1.86-3.41 3.22-6.63 4.09-9.67-5.12 2.69-7.98 4.19-8.59 4.49a20.5 20.5 0 0 1-7.11 2.1c-1.59.19-2.82-.04-3.7-.68-.61-.49-1.12-1.44-1.54-2.84-.87-3.37-1.27-8.04-1.19-13.99q.06-10.41-.45-14.16c-.49-3.22-1.4-6.01-2.73-8.36q-2.28-4.215-5.97-7.62c-2.5-2.31-5.84-2.98-10.01-1.99-4.21.99-7.49 2.48-9.84 4.49-2.39 2.01-4.53 4.11-6.43 6.31-.83.99-1.84 2.29-3.01 3.92-.38-.99-.8-1.93-1.25-2.84-.11-.23-.19-.36-.23-.4-.38-.99-.82-1.69-1.31-2.1-.34-.53-.66-1.04-.97-1.54-1.25-1.97-2.71-3.64-4.38-5-1.86-1.48-3.85-2.48-5.97-3.01-5.31-1.29-11.16.44-17.57 5.17m-6.57 14.62c3.75-4.17 7.26-7.17 10.52-8.98 4.06-2.31 8.28-3.2 12.68-2.67 3.72.45 6.98 2.92 9.78 7.39 1.44 2.35 3.83 6.29 7.17 11.83.49.83 1 1.71 1.54 2.62l.06-1.08c0-.3-.08-.87-.23-1.71-.04-.15-.08-.3-.11-.45-.57-2.35-1.04-4.19-1.42-5.52 2.05-4.06 4.64-7.3 7.79-9.72 4.06-3.11 8.36-4.55 12.91-4.32 2.81.08 5.06.83 6.77 2.27 1.86 1.63 3.13 4.3 3.81 8.02.42 2.46.42 7.6 0 15.41-.45 7.77.06 13.16 1.54 16.15 1.48 2.92 3.17 4.45 5.06 4.61 1.86.11 4.02-.11 6.48-.68a27.8 27.8 0 0 0 6.14-2.16c-2.96 5.53-7.17 10.94-12.62 16.21-1.82 1.78-3.47 3.01-4.95 3.7-2.12 1.02-4.13 1.18-6.03.45-1.36-.61-2.82-1.99-4.38-4.15a33.5 33.5 0 0 1-2.73-4.61c-.15-.45-.32-.87-.51-1.25-.11-.23-.23-.38-.34-.45-.83-1.82-1.55-3.72-2.16-5.69-1.44-4.47-2.67-6.33-3.7-5.57-1.02.72-2.2 2.92-3.53 6.6-.95 2.46-2.22 5.48-3.81 9.04-1.55-2.46-3.53-5.12-5.91-7.96-3.53-4.28-6.46-6.43-8.81-6.43s-4.89 1.61-7.62 4.83c-2.73 3.15-5.93 7.43-9.61 12.85-3.75 5.38-6.69 9.35-8.81 11.89-4.78 5.8-9.63 9.29-14.56 10.46-.57.11-1.14.23-1.71.34-.3.04-.59.06-.85.06-2.46.27-5.14-.25-8.02-1.54q-2.85-1.305-7.56-4.83c-.42-.3-.83-.63-1.25-.97-.23.15-.34.4-.34.74s.17.85.51 1.54c1.48 2.65 3.37 4.85 5.69 6.6 2.39 1.74 4.89 2.77 7.51 3.07h.91q1.305-.225 2.22 0v-.11q3.24-.405 6.54-1.65 4.89-1.995 9.33-5.52c2.43-2.05 4.85-4.59 7.28-7.62 1.63-2.16 4.28-5.4 7.96-9.72 3.64-4.4 6.6-7.64 8.87-9.72 2.31-2.09 4.63-2.5 6.94-1.25 2.27 1.25 4.13 2.67 5.57 4.26 1.33.76 3.26 2.99 5.8 6.71 3.34-5.46 5.78-9.27 7.34-11.43.91 2.16 1.95 4.26 3.13 6.31-.72 4.47-1.12 9.04-1.19 13.7.08 1.78.09 3.56.06 5.35-.11 6.41-.8 12.79-2.05 19.16-1.44 7.58-3.39 15.03-5.86 22.35-3.87 11.45-8.59 20.3-14.16 26.56-1.59 1.78-4.21 4.06-7.85 6.82-3.18 2.43-5.25 3.85-6.2 4.26-7.77 3.41-13.88 5.48-18.31 6.2-3.68.61-7.7.83-12.06.68-4.63-.19-9.02-.76-13.19-1.71-.83-.19-1.67-.4-2.5-.63l-2.79-.85c-6.98-2.69-12.25-5.19-15.81-7.51a59.4 59.4 0 0 1-11.89-10.29c-3.53-4.06-6.35-8.45-8.47-13.19-3.03-6.86-3.45-12.53-1.25-17 1.25-2.5 3.75-5.08 7.51-7.73 3.41-2.46 7.6-5.1 12.57-7.9 2.2-1.18 3.58-1.95 4.15-2.33.72-.42 1.36-.83 1.93-1.25 3.79 6.94 8.23 12.66 13.31 17.17.49.38.99.64 1.48.8.61.19 1.04.08 1.31-.34.38-.49.25-1.23-.4-2.22a142.8 142.8 0 0 1-16.83-34.12c-1.44-4.17-2.46-7.89-3.07-11.15-.76-4.13-.97-7.98-.63-11.54.38-4.02 1.48-7.71 3.3-11.09 1.97-3.64 4.57-6.41 7.79-8.3 2.5-1.48 5.53-2.5 9.1-3.07q3.24-.51 8.64-.63c-.91 1.82-2.27 5.46-4.09 10.92-.04 0-.06.04-.06.11-.34.91-.68 1.9-1.02 2.96-.49 1.48-.95 2.92-1.36 4.32.64-1.21 1.35-2.5 2.1-3.87q.735-1.365 1.65-2.79c0-.08.02-.13.06-.17 6.6-11.18 13.21-20.47 19.85-27.86Z"/><path d="M90.21 23.8c-3.26 1.82-6.77 4.81-10.52 8.98-6.63 7.39-13.25 16.68-19.85 27.86-.04.04-.06.09-.06.17q-.915 1.425-1.65 2.79-1.14 2.04-2.1 3.87c.42-1.4.87-2.84 1.36-4.32.34-1.06.68-2.05 1.02-2.96 0-.08.02-.11.06-.11 1.82-5.46 3.18-9.1 4.09-10.92-3.6.08-6.48.28-8.64.63-3.56.57-6.6 1.59-9.1 3.07-3.22 1.9-5.82 4.66-7.79 8.3-1.82 3.37-2.92 7.07-3.3 11.09-.34 3.56-.13 7.41.63 11.54.61 3.26 1.63 6.98 3.07 11.15 4.09 12.13 9.71 23.5 16.83 34.12.64.99.78 1.72.4 2.22-.27.42-.7.53-1.31.34-.49-.15-.99-.42-1.48-.8-5.08-4.51-9.52-10.24-13.31-17.17-.57.42-1.21.83-1.93 1.25-.57.38-1.95 1.16-4.15 2.33-4.97 2.81-9.16 5.44-12.57 7.9-3.75 2.65-6.26 5.23-7.51 7.73-2.2 4.47-1.78 10.14 1.25 17 2.12 4.74 4.95 9.14 8.47 13.19a59.4 59.4 0 0 0 11.89 10.29c3.56 2.31 8.83 4.81 15.81 7.51l2.79.85c.83.23 1.67.44 2.5.63 4.17.95 8.57 1.52 13.19 1.71 4.36.15 8.38-.08 12.06-.68 4.44-.72 10.54-2.79 18.31-6.2.95-.42 3.01-1.84 6.2-4.26 3.64-2.77 6.26-5.04 7.85-6.82 5.57-6.26 10.29-15.11 14.16-26.56a169 169 0 0 0 5.86-22.35c1.25-6.37 1.93-12.76 2.05-19.16.04-1.78.02-3.56-.06-5.35.08-4.66.47-9.23 1.19-13.7a57 57 0 0 1-3.13-6.31c-1.55 2.16-4 5.97-7.34 11.43-2.54-3.72-4.47-5.95-5.8-6.71-1.44-1.59-3.3-3.01-5.57-4.26-2.31-1.25-4.63-.83-6.94 1.25-2.27 2.09-5.23 5.33-8.87 9.72-3.68 4.32-6.33 7.56-7.96 9.72-2.43 3.03-4.85 5.57-7.28 7.62q-4.44 3.525-9.33 5.52-3.3 1.245-6.54 1.65v.11q-.915-.225-2.22 0h-.91c-2.62-.3-5.12-1.33-7.51-3.07-2.31-1.74-4.21-3.94-5.69-6.6-.34-.68-.51-1.19-.51-1.54s.11-.59.34-.74c.42.34.83.66 1.25.97q4.725 3.525 7.56 4.83c2.88 1.29 5.55 1.8 8.02 1.54.27 0 .55-.02.85-.06.57-.11 1.14-.23 1.71-.34 4.93-1.18 9.78-4.66 14.56-10.46 2.12-2.54 5.06-6.5 8.81-11.89 3.68-5.42 6.88-9.71 9.61-12.85q4.095-4.83 7.62-4.83c3.525 0 5.29 2.14 8.81 6.43 2.39 2.84 4.36 5.5 5.91 7.96 1.59-3.56 2.86-6.58 3.81-9.04 1.33-3.68 2.5-5.88 3.53-6.6 1.02-.76 2.26 1.1 3.7 5.57.61 1.97 1.33 3.87 2.16 5.69.11.08.23.23.34.45.19.38.36.8.51 1.25.8 1.63 1.71 3.17 2.73 4.61 1.55 2.16 3.01 3.54 4.38 4.15 1.9.72 3.9.57 6.03-.45 1.48-.68 3.13-1.91 4.95-3.7 5.46-5.27 9.67-10.67 12.62-16.21a27.8 27.8 0 0 1-6.14 2.16c-2.46.57-4.63.8-6.48.68-1.9-.15-3.58-1.69-5.06-4.61-1.48-2.99-1.99-8.38-1.54-16.15.42-7.81.42-12.95 0-15.41-.68-3.72-1.95-6.39-3.81-8.02-1.71-1.44-3.96-2.2-6.77-2.27-4.55-.23-8.85 1.21-12.91 4.32-3.15 2.43-5.74 5.67-7.79 9.72.38 1.33.85 3.17 1.42 5.52.04.15.08.3.11.45.15.83.23 1.4.23 1.71l-.06 1.08c-.53-.91-1.04-1.78-1.54-2.62-3.34-5.53-5.72-9.48-7.17-11.83-2.81-4.47-6.07-6.94-9.78-7.39-4.4-.53-8.62.36-12.68 2.67Z" class="n"/></g></g><g id="f"><path d="m140.05 71.2.6 2.9c-.77-.77-1.58-1.47-2.45-2.1-3.17-2.4-6.55-3.9-10.15-4.5-2.17-.37-5.18-.42-9.05-.15-4.8.33-8.43.87-10.9 1.6-1.77.5-4.02 1.37-6.75 2.6-4.27 2-7.78 3.73-10.55 5.2-1.47.77-2.7 1.52-3.7 2.25.2-.37.32-.72.35-1.05q.105-.555-.15-1.05c-.2-.37-.45-.6-.75-.7-.77-.23-1.55.2-2.35 1.3-9.93 13.33-16.62 30.22-20.05 50.65q-1.095 6.75-1.2 11.4v.75c-.23 2.33-.38 4.7-.45 7.1-.13 3.63.25 6.42 1.15 8.35.63 1.43 1.9 3.1 3.8 5 3.33 3.33 7.27 6.67 11.8 10 3.43 2.53 7.73 5.42 12.9 8.65 11.33 7.07 21.38 12.43 30.15 16.1q17.145 7.2 32.7 8.1 7.65.45 13.5-.9c3.13-.73 6.85-2.12 11.15-4.15 4.7-2.3 8.67-4.57 11.9-6.8 4.67-3.23 8.83-6.95 12.5-11.15.1 2.07.27 4.35.5 6.85.13 1.57.53 2.63 1.2 3.2 1.2 1 2.83.78 4.9-.65 2.33-1.6 4.87-4.2 7.6-7.8 4-5.3 7.88-11.58 11.65-18.85 2.5-4.77 5.68-11.45 9.55-20.05 1.33-2.93 2.22-5.3 2.65-7.1.67-2.7.7-5.12.1-7.25-.97-3.37-3.28-6.02-6.95-7.95-2.53-1.37-6-2.32-10.4-2.85q-12-1.395-32.1 1.5c-15.93 2.3-26.67 3.48-32.2 3.55-1.2 0-2.05-.17-2.55-.5-.6-.4-1.12-1.33-1.55-2.8l-7.6-28.95c-.13-.47-.25-.93-.35-1.4 0-2.7-.87-5.6-2.6-8.7-1-2.67-2.08-5-3.25-7-.83-1.43-1.7-2.32-2.6-2.65m-32.45 1.4c4.27-1.2 8.63-1.8 13.1-1.8q6.75-.105 11.4 1.95c4.37 1.9 7.83 5.22 10.4 9.95 2.9 13.3 6.07 26.22 9.5 38.75.7 2.47 1.57 4.08 2.6 4.85.67.47 1.5.77 2.5.9.67.07 1.58.07 2.75 0 3.67-.2 14.4-1.57 32.2-4.1 13.1-1.87 23.83-2.35 32.2-1.45 3.7.37 6.58 1.15 8.65 2.35 1.37.8 2.47 1.83 3.3 3.1q1.35 2.055 1.35 4.2-.045 1.905-1.5 5.1-7.395 16.95-11.85 25.35-7.305 13.695-15.45 23.1l-.9-6.3c-.2-1.27-.6-2.03-1.2-2.3a.93.93 0 0 0-.45-.1c-.03-.17-.1-.3-.2-.4q-.405-.555-1.2-.6c-.53-.07-1.02.02-1.45.25-.47.23-1.17.9-2.1 2-1.57 1.83-3.6 3.55-6.1 5.15-1.57 1.03-3.93 2.35-7.1 3.95-4.83 2.53-8.63 4.37-11.4 5.5-4.33 1.77-8.37 2.88-12.1 3.35q-7.395.9-18.9-1.35c-6.17-1.2-11.5-2.62-16-4.25-2.97-1.07-6.33-2.52-10.1-4.35-15.57-7.53-29.28-16.02-41.15-25.45-1.73-1.4-3.07-2.55-4-3.45-1.37-1.37-2.43-2.75-3.2-4.15-1.47-2.7-2.2-6.7-2.2-12 0-3.4.18-7.27.55-11.6q.3-3.345 1.2-11.55l.6-5.3c1.9-6.3 4.3-12.37 7.2-18.2q1.245-2.1 3.6-5.1c2.6-3.27 4.72-5.53 6.35-6.8 1.3-1 2.98-2.05 5.05-3.15 5.47-2.93 10.15-4.95 14.05-6.05m67.4 87.95c.07-.47-.03-.9-.3-1.3-.3-.43-.67-.63-1.1-.6-.6.03-1.2.22-1.8.55-.27.13-.83.6-1.7 1.4l-3.5 3.6c-.5.5-.73.92-.7 1.25 0 .37.18.65.55.85.33.2.72.3 1.15.3 1.13-.07 2.5-.77 4.1-2.1.43-.37 1.05-.95 1.85-1.75.87-.8 1.35-1.53 1.45-2.2m1.4-12.05c-.57-.27-1.12-.28-1.65-.05-.13.07-.45.3-.95.7-1.67 1.67-2.65 2.68-2.95 3.05-.57.63-.87 1.2-.9 1.7-.03.33.05.65.25.95.23.3.5.47.8.5q.405 0 .9-.3c1.93-1 3.28-1.83 4.05-2.5 1.07-.87 1.53-1.77 1.4-2.7-.1-.63-.42-1.08-.95-1.35m8.2 4.5c-.3.07-.72.27-1.25.6-1.23.87-2.48 1.93-3.75 3.2-.33.4-.53.73-.6 1-.07.3 0 .6.2.9.17.27.4.47.7.6.57.2 1.2.18 1.9-.05 1.07-.3 2.45-1.17 4.15-2.6q.855-.645 1.05-1.2c.195-.555.13-.77 0-1.2-.13-.4-.37-.72-.7-.95-.5-.37-1.07-.47-1.7-.3"/><path d="M120.7 70.8c-4.47 0-8.83.6-13.1 1.8-3.9 1.1-8.58 3.12-14.05 6.05-2.07 1.1-3.75 2.15-5.05 3.15-1.63 1.27-3.75 3.53-6.35 6.8q-2.355 3-3.6 5.1c-2.9 5.83-5.3 11.9-7.2 18.2l-.6 5.3q-.9 8.205-1.2 11.55c-.37 4.33-.55 8.2-.55 11.6 0 5.3.73 9.3 2.2 12 .77 1.4 1.83 2.78 3.2 4.15.93.9 2.27 2.05 4 3.45 11.87 9.43 25.58 17.92 41.15 25.45 3.77 1.83 7.13 3.28 10.1 4.35 4.5 1.63 9.83 3.05 16 4.25q11.505 2.25 18.9 1.35c3.73-.47 7.77-1.58 12.1-3.35 2.77-1.13 6.57-2.97 11.4-5.5 3.17-1.6 5.53-2.92 7.1-3.95 2.5-1.6 4.53-3.32 6.1-5.15.93-1.1 1.63-1.77 2.1-2 .43-.23.92-.32 1.45-.25q.795.045 1.2.6c.1.1.17.23.2.4.17 0 .32.03.45.1.6.27 1 1.03 1.2 2.3l.9 6.3q8.145-9.405 15.45-23.1 4.455-8.4 11.85-25.35 1.455-3.195 1.5-5.1 0-2.145-1.35-4.2c-.83-1.27-1.93-2.3-3.3-3.1-2.07-1.2-4.95-1.98-8.65-2.35-8.37-.9-19.1-.42-32.2 1.45-17.8 2.53-28.53 3.9-32.2 4.1-1.17.07-2.08.07-2.75 0-1-.13-1.83-.43-2.5-.9-1.03-.77-1.9-2.38-2.6-4.85-3.43-12.53-6.6-25.45-9.5-38.75-2.57-4.73-6.03-8.05-10.4-9.95q-4.65-2.055-11.4-1.95m62.65 82.8c.53-.33.95-.53 1.25-.6.63-.17 1.2-.07 1.7.3.33.23.57.55.7.95q.195.645 0 1.2c-.195.555-.48.77-1.05 1.2-1.7 1.43-3.08 2.3-4.15 2.6-.7.23-1.33.25-1.9.05-.3-.13-.53-.33-.7-.6-.2-.3-.27-.6-.2-.9.07-.27.27-.6.6-1 1.27-1.27 2.52-2.33 3.75-3.2m-8.6-5.15c.53-.23 1.08-.22 1.65.05.53.27.85.72.95 1.35.13.93-.33 1.83-1.4 2.7-.77.67-2.12 1.5-4.05 2.5q-.495.3-.9.3c-.3-.03-.57-.2-.8-.5-.2-.3-.28-.62-.25-.95.03-.5.33-1.07.9-1.7.3-.37 1.28-1.38 2.95-3.05.5-.4.82-.63.95-.7m-.05 10.8c.27.4.37.83.3 1.3-.1.67-.58 1.4-1.45 2.2-.8.8-1.42 1.38-1.85 1.75-1.6 1.33-2.97 2.03-4.1 2.1-.43 0-.82-.1-1.15-.3-.37-.2-.55-.48-.55-.85-.03-.33.2-.75.7-1.25l3.5-3.6c.87-.8 1.43-1.27 1.7-1.4.6-.33 1.2-.52 1.8-.55.43-.03.8.17 1.1.6" class="o"/></g><g id="g"><path d="M165.55 165.85c-.13.43-.05.83.25 1.2.3.4.67.6 1.1.6.4 0 .87-.2 1.4-.6.43-.27 1.03-.73 1.8-1.4s1.35-1.15 1.75-1.45c.6-.4 1-.73 1.2-1 .33-.57.37-1.12.1-1.65-.37-.67-.88-.95-1.55-.85-.23.03-.58.2-1.05.5-1.57 1.1-2.98 2.28-4.25 3.55-.43.43-.68.8-.75 1.1m5.95-11.25c.23-.13.5-.32.8-.55l.7-.65 2.05-1.4c.8-.63 1.28-1.27 1.45-1.9.2-.57.12-.98-.25-1.25q-.555-.345-1.5.15-2.205 1.155-3.45 2.4l-1 1c-.43.3-.7.52-.8.65-.17.27-.23.55-.2.85q.105.495.45.75c.5.4 1.08.38 1.75-.05m13.9 2.95c.53-.53.62-1.18.25-1.95-.17-.4-.43-.68-.8-.85-.5-.17-1.08-.02-1.75.45q-1.35.795-2.7 2.25c-.67.67-.95 1.27-.85 1.8.03.3.22.55.55.75.3.2.62.3.95.3.57-.03 1.15-.3 1.75-.8.97-.8 1.48-1.22 1.55-1.25.53-.3.88-.53 1.05-.7m46.55.85c1.13-3.17 1.95-5.8 2.45-7.9.57-2.6.85-5.02.85-7.25v-.95c0-.6-.17-.97-.5-1.1-.1-.03-.17-.05-.2-.05-.37 0-.68.27-.95.8q-1.455 2.355-10.2 19.5c-.65 1.28-1.3 2.49-1.95 3.65-.7 1.3-1.4 2.54-2.1 3.7a74 74 0 0 1-3.7 5.6c-.2-1.73-.63-3.27-1.3-4.6-.53-1.03-1.15-1.62-1.85-1.75-.18-.03-.36-.03-.55 0-.66.14-1.39.69-2.2 1.65l-2.35 3.05q-.195-1.155-1.2-1.95c-.7-.53-1.43-.75-2.2-.65-1 .17-1.98.8-2.95 1.9-1.23 1.4-2.6 3.58-4.1 6.55-1.63 3.47-2.85 6.48-3.65 9.05-.37 1.33-.62 2.55-.75 3.65-3.67 1.4-7.63 2.57-11.9 3.5-6.78 1.46-13.76 1.88-20.95 1.25-1.5-.13-3.02-.31-4.55-.55-1.8-.24-3.62-.56-5.45-.95-10.77-2.33-18.77-4.52-24-6.55-5.2-2.03-7.77-2.27-7.7-.7.03 1.53.05 2.47.05 2.8s.12.7.35 1.1c.37.67.9 1.25 1.6 1.75 6 4.07 12.88 7.07 20.65 9 7 1.7 14.52 2.5 22.55 2.4 10.63-.2 20.4-1.85 29.3-4.95 5.93-2.07 11.32-4.75 16.15-8.05 5.2-3.6 9.57-7.75 13.1-12.45 3.6-4.93 7-11.77 10.2-20.5m-28.75 14.8c.5-.4 1.03-.55 1.6-.45 1.43 2.37 2.33 4.25 2.7 5.65l1.95-4.05c.6-1.17 1.42-2.32 2.45-3.45.7 2.3 1.02 4.62.95 6.95-.5.57-1 1.1-1.5 1.6-4.33 4.4-9.72 7.98-16.15 10.75 1.4-5.6 3.7-10.83 6.9-15.7.47-.63.83-1.07 1.1-1.3"/><path d="M199.8 165.95c-2.83.8-6.27 2.13-10.3 4-14.07 6.63-25.1 14.62-33.1 23.95-.5.57-.91 1.1-1.25 1.6 1.53.24 3.05.42 4.55.55 7.19.63 14.17.21 20.95-1.25 4.27-.93 8.23-2.1 11.9-3.5.13-1.1.38-2.32.75-3.65.8-2.57 2.02-5.58 3.65-9.05 1.5-2.97 2.87-5.15 4.1-6.55.97-1.1 1.95-1.73 2.95-1.9.77-.1 1.5.12 2.2.65q1.005.795 1.2 1.95l2.35-3.05c.81-.96 1.54-1.51 2.2-1.65.19-.03.37-.03.55 0 2.36.03 4.64.28 6.85.75.7-1.16 1.4-2.4 2.1-3.7-7.23-1.5-14.45-1.22-21.65.85" class="o"/><path d="M204.8 172.75c-.57-.1-1.1.05-1.6.45-.27.23-.63.67-1.1 1.3-3.2 4.87-5.5 10.1-6.9 15.7 6.43-2.77 11.82-6.35 16.15-10.75.5-.5 1-1.03 1.5-1.6.07-2.33-.25-4.65-.95-6.95-1.03 1.13-1.85 2.28-2.45 3.45l-1.95 4.05c-.37-1.4-1.27-3.28-2.7-5.65" style="fill:#7f2756"/></g><g id="h"><path d="M222.5 148.95c2.23-1.83 4.33-3.77 6.3-5.8 2.27-2.4 4.08-5.1 5.45-8.1 1-2.2.7-4.18-.9-5.95-1.43-1.53-3.17-2.6-5.2-3.2-3.13-.77-6.3-1.22-9.5-1.35-2.67-.03-5.3-.07-7.9-.1-2.97-.07-5.93.1-8.9.5-2.87.2-5.77.53-8.7 1-3.03.67-6.02 1.48-8.95 2.45-2.6 1-5.08 2.2-7.45 3.6-1.63 1-2.45 2.45-2.45 4.35.53 1.8 1.42 3.32 2.65 4.55 2.13 2.07 4.5 3.88 7.1 5.45s5.37 2.85 8.3 3.85c2.53.8 5.15 1.57 7.85 2.3 3.07.83 6.2 1.28 9.4 1.35a17.7 17.7 0 0 0 8.15-1.85c1.73-.8 3.32-1.82 4.75-3.05m8.7-14.35a40 40 0 0 0-8.45-1.1c-3.23-.27-6.48-.35-9.75-.25-2.97.07-5.97.1-9 .1-3.67.03-7.33.38-11 1.05-4.53.67-9 1.75-13.4 3.25l-2.15-2.4c2.2-1.8 4.68-3.07 7.45-3.8 2.73-.73 5.5-1.32 8.3-1.75s5.62-.73 8.45-.9c3.1-.33 6.22-.53 9.35-.6 2.73-.07 5.52 0 8.35.2 3.1.07 6.18.48 9.25 1.25 2.8.73 3.67 2.38 2.6 4.95"/><path d="M222.75 133.5c2.87.07 5.68.43 8.45 1.1 1.07-2.57.2-4.22-2.6-4.95-3.07-.77-6.15-1.18-9.25-1.25-2.83-.2-5.62-.27-8.35-.2-3.13.07-6.25.27-9.35.6-2.83.17-5.65.47-8.45.9s-5.57 1.02-8.3 1.75c-2.77.73-5.25 2-7.45 3.8l2.15 2.4c4.4-1.5 8.87-2.58 13.4-3.25 3.67-.67 7.33-1.02 11-1.05 3.03 0 6.03-.03 9-.1 3.27-.1 6.52-.02 9.75.25" style="fill:#d6dee8"/></g><g id="i"><g id="j"><path d="M138.1 124.9q.945-1.155 1.2-2.7c0-.17.02-.35.05-.55V121c0-1.47-.47-2.88-1.4-4.25-.93-1.3-2.18-2.48-3.75-3.55-2.7-1.8-5.68-2.9-8.95-3.3-.43-.07-.85-.1-1.25-.1-2.53-.23-5.2-.08-8 .45-4.07.7-7.42 1.97-10.05 3.8-.57.37-1.08.77-1.55 1.2-3-.83-5.68-2.03-8.05-3.6-.33-.2-.57-.27-.7-.2q-.45.255 0 1.05c.7 1.03 1.73 1.97 3.1 2.8 1.17.73 2.5 1.37 4 1.9-.07.07-.13.17-.2.3-.57.87-.9 1.78-1 2.75-.07.9 0 1.78.2 2.65.7 2.23 1.77 3.93 3.2 5.1 1.23 1.07 3.1 1.97 5.6 2.7 3.6 1.07 8.62 1 15.05-.2 1.07-.17 2.13-.38 3.2-.65 1.83-.53 3.65-1.23 5.45-2.1 1.53-.67 2.82-1.62 3.85-2.85m-27.25-6.2c.1 0 .2.02.3.05-.27.3-.48.7-.65 1.2-.5 1.6-.28 2.88.65 3.85.5.5 1.13.77 1.9.8.8.03 1.48-.17 2.05-.6.57-.4.98-.97 1.25-1.7.23-.7.3-1.42.2-2.15-.07-.43-.18-.78-.35-1.05 3.77.13 7.45.07 11.05-.2q4.5-.405 6.6-.9c.17-.03.32-.07.45-.1.7.63 1.12 1.25 1.25 1.85.03.1.05.2.05.3-.07.43-.18.87-.35 1.3q-.15.45-.45.9l-.9 1.2q-1.05 1.455-2.7 2.1c-1.8.77-3.62 1.32-5.45 1.65-.13.03-.25.07-.35.1-2.33.43-5.25.68-8.75.75-2.2.03-4.38-.32-6.55-1.05-2.37-.8-3.98-1.83-4.85-3.1-.07-.13-.12-.25-.15-.35-.43-1.03-.5-2.1-.2-3.2.23-.73.72-1.45 1.45-2.15l.1-.1c1.27.23 2.73.43 4.4.6m14.35-5c2.7.47 5.1 1.38 7.2 2.75-3.17.4-7.18.57-12.05.5-4.5 0-8.28-.23-11.35-.7 1.87-1.07 4.23-1.85 7.1-2.35 3.3-.6 6.33-.67 9.1-.2m31-4.1c-3.07.73-5.92 1.95-8.55 3.65-2.5 1.6-4.12 3.3-4.85 5.1-.27.63-.42 1.6-.45 2.9v1.05c.97 3.97 3.42 6.2 7.35 6.7 3.37.57 6.7.45 10-.35 4.73-1.03 8.95-3.13 12.65-6.3 3.03-2.53 3.75-5.45 2.15-8.75-.33-.5-.75-.98-1.25-1.45-.27-.27-.55-.5-.85-.7q.945-.555 1.65-1.05c1.5-1.1 2.33-2.22 2.5-3.35.07-.27.03-.47-.1-.6-.2-.23-.53-.17-1 .2-1.57 1.23-3.37 2.4-5.4 3.5q-2.1-.9-4.8-1.2c-1.5-.17-3-.18-4.5-.05-1.53.1-3.05.33-4.55.7m-.35 8.75.05-.05c4.43-1.37 8.88-3.1 13.35-5.2.07-.03.13-.05.2-.05.33.17.67.35 1 .55.3.2.58.42.85.65.3.3.57.65.8 1.05.2.33.25.67.15 1-.63 1.9-1.75 3.53-3.35 4.9q-1.995 1.695-5.7 3.3c-1.37.6-3.12 1.12-5.25 1.55q-3.255.645-5.55.6c-3.93-.07-6.4-1.33-7.4-3.8-.1-.2-.17-.67-.2-1.4-.07-.73-.07-1.25 0-1.55 1.57.13 3.37.05 5.4-.25-.07.07-.12.15-.15.25-.17.37-.22.85-.15 1.45.13.6.35 1.05.65 1.35.3.33.75.57 1.35.7.63.1 1.2.07 1.7-.1.83-.23 1.52-.88 2.05-1.95q.495-1.05.45-1.95c0-.4-.08-.75-.25-1.05m-8.2-2.4q2.895-2.145 7.35-3.3c2.97-.87 5.62-1.25 7.95-1.15 1.23.03 2.4.18 3.5.45l-.3.1c-2.2.97-5.58 2.25-10.15 3.85-2.27.77-4.05 1.3-5.35 1.6-1 .23-2.57.45-4.7.65l-.65.1c.43-.77 1.22-1.53 2.35-2.3"/><path d="M132.4 116.45c-2.1-1.37-4.5-2.28-7.2-2.75-2.77-.47-5.8-.4-9.1.2-2.87.5-5.23 1.28-7.1 2.35 3.07.47 6.85.7 11.35.7 4.87.07 8.88-.1 12.05-.5m22.6-3.8q-4.455 1.155-7.35 3.3c-1.13.77-1.92 1.53-2.35 2.3l.65-.1c2.13-.2 3.7-.42 4.7-.65 1.3-.3 3.08-.83 5.35-1.6 4.57-1.6 7.95-2.88 10.15-3.85l.3-.1c-1.1-.27-2.27-.42-3.5-.45-2.33-.1-4.98.28-7.95 1.15" class="o"/><path d="M111.15 118.75c-.1-.03-.2-.05-.3-.05a58 58 0 0 1-4.4-.6l-.1.1c-.73.7-1.22 1.42-1.45 2.15-.3 1.1-.23 2.17.2 3.2.03.1.08.22.15.35.87 1.27 2.48 2.3 4.85 3.1 2.17.73 4.35 1.08 6.55 1.05 3.5-.07 6.42-.32 8.75-.75.1-.03.22-.07.35-.1 1.83-.33 3.65-.88 5.45-1.65q1.65-.645 2.7-2.1l.9-1.2q.3-.45.45-.9c.17-.43.28-.87.35-1.3 0-.1-.02-.2-.05-.3-.13-.6-.55-1.22-1.25-1.85-.13.03-.28.07-.45.1q-2.1.495-6.6.9c-3.6.27-7.28.33-11.05.2.17.27.28.62.35 1.05.1.73.03 1.45-.2 2.15-.27.73-.68 1.3-1.25 1.7-.57.43-1.25.63-2.05.6-.77-.03-1.4-.3-1.9-.8-.93-.97-1.15-2.25-.65-3.85.17-.5.38-.9.65-1.2m44.75-.45-.05.05c.17.3.25.65.25 1.05q.045.9-.45 1.95c-.53 1.07-1.22 1.72-2.05 1.95-.5.17-1.07.2-1.7.1-.6-.13-1.05-.37-1.35-.7-.3-.3-.52-.75-.65-1.35-.07-.6-.02-1.08.15-1.45.03-.1.08-.18.15-.25-2.03.3-3.83.38-5.4.25-.07.3-.07.82 0 1.55.03.73.1 1.2.2 1.4 1 2.47 3.47 3.73 7.4 3.8q2.295.045 5.55-.6c2.13-.43 3.88-.95 5.25-1.55q3.705-1.605 5.7-3.3c1.6-1.37 2.72-3 3.35-4.9.1-.33.05-.67-.15-1-.23-.4-.5-.75-.8-1.05-.27-.23-.55-.45-.85-.65-.33-.2-.67-.38-1-.55-.07 0-.13.02-.2.05-4.47 2.1-8.92 3.83-13.35 5.2" style="fill:#e8e6d6"/></g></g><g id="k"><path d="M81.3 92c-.13-.63-.33-1.07-.6-1.3.03 1.03-.08 2.13-.35 3.3v.15q-.555 2.1-1.8 5.1c-2.83 6.8-7.8 16.5-14.9 29.1-7.2 12.73-12.2 22.4-15 29-1.8 4.27-2.9 7.8-3.3 10.6-.57 3.83-.12 7.1 1.35 9.8 1.33 2.4 3.07 3.72 5.2 3.95 1.67.2 3.67-.52 6-2.15 6.37-4.47 11.63-11.57 15.8-21.3 1.33-3.1 2.87-7.3 4.6-12.6q3.195-9.645 4.35-12.75.105-.405.3-.6c.1-.1.2-.18.3-.25.2-.1.4-.08.6.05.03-.87.05-1.8.05-2.8 0-1.37-.02-3.45-.05-6.25.03-1.87.17-4.68.4-8.45.13-6.47-.85-14-2.95-22.6" class="o"/><path d="M80.7 90.7c0-.73-.08-1.43-.25-2.1q-.255-1.05-.9-1.8-.75-.9-1.65-.75c-.97.13-1.67 1.17-2.1 3.1-.83 3.93-2.82 8.95-5.95 15.05-1.23 2.37-6.13 11-14.7 25.9-6 10.47-10.42 19.33-13.25 26.6q-1.905 5.055-2.7 8.7c-.67 3.23-.82 6.22-.45 8.95.4 3.13 1.52 5.93 3.35 8.4 1.97 2.6 4.37 4.27 7.2 5 3.3.87 6.75.35 10.35-1.55q4.005-2.055 8.25-6.75c5.5-6.07 9.7-13.15 12.6-21.25 2.83-7.9 4.18-16.03 4.05-24.4 0-.5-.12-.93-.35-1.3-.13-.2-.25-.33-.35-.4-.2-.13-.4-.15-.6-.05-.1.07-.2.15-.3.25q-.195.195-.3.6-1.155 3.105-4.35 12.75c-1.73 5.3-3.27 9.5-4.6 12.6-4.17 9.73-9.43 16.83-15.8 21.3-2.33 1.63-4.33 2.35-6 2.15-2.13-.23-3.87-1.55-5.2-3.95-1.47-2.7-1.92-5.97-1.35-9.8.4-2.8 1.5-6.33 3.3-10.6 2.8-6.6 7.8-16.27 15-29 7.1-12.6 12.07-22.3 14.9-29.1q1.245-3 1.8-5.1V94c.27-1.17.38-2.27.35-3.3"/></g><g id="l"><g id="m"><path d="m135.81 78.78.11.28V79c-.04-.08-.08-.15-.11-.23M53.92 49.84c-3.56.57-6.6 1.59-9.1 3.07-3.22 1.9-5.82 4.66-7.79 8.3-1.82 3.37-2.92 7.07-3.3 11.09-.34 3.56-.13 7.41.63 11.54.61 3.26 1.63 6.98 3.07 11.15.64 1.97 1.35 3.9 2.1 5.8l12.17-.34c-.3-.45-.59-.91-.85-1.36-.34-.68-.51-1.19-.51-1.54s.11-.59.34-.74c.42.34.83.66 1.25.97q4.725 3.525 7.56 4.83c2.88 1.29 5.55 1.8 8.02 1.54.27 0 .55-.02.85-.06.57-.11 1.14-.23 1.71-.34 4.93-1.18 9.78-4.66 14.56-10.46 2.12-2.54 5.06-6.5 8.81-11.89 3.68-5.42 6.88-9.71 9.61-12.85q4.095-4.83 7.62-4.83c3.525 0 5.29 2.14 8.81 6.43 2.39 2.84 4.36 5.5 5.91 7.96 1.59-3.56 2.86-6.58 3.81-9.04 1.33-3.68 2.5-5.88 3.53-6.6 1.02-.76 2.26 1.1 3.7 5.57.61 1.97 1.33 3.87 2.16 5.69.11.08.23.23.34.45.19.38.36.8.51 1.25.8 1.63 1.71 3.17 2.73 4.61 1.55 2.16 3.01 3.54 4.38 4.15 1.9.72 3.9.57 6.03-.45 1.48-.68 3.13-1.91 4.95-3.7 5.46-5.27 9.67-10.67 12.62-16.21a27.8 27.8 0 0 1-6.14 2.16c-2.46.57-4.63.8-6.48.68-1.9-.15-3.58-1.69-5.06-4.61-1.48-2.99-1.99-8.38-1.54-16.15.42-7.81.42-12.95 0-15.41-.68-3.72-1.95-6.39-3.81-8.02-1.71-1.44-3.96-2.2-6.77-2.27-4.55-.23-8.85 1.21-12.91 4.32-3.15 2.43-5.74 5.67-7.79 9.72.38 1.33.85 3.17 1.42 5.52.04.15.08.3.11.45.15.83.23 1.4.23 1.71l-.06 1.08c-.53-.91-1.04-1.78-1.54-2.62-3.34-5.54-5.72-9.48-7.17-11.83-2.81-4.47-6.07-6.94-9.78-7.39-4.4-.53-8.62.36-12.68 2.67-3.26 1.82-6.77 4.81-10.52 8.98-6.63 7.39-13.25 16.68-19.85 27.86-.04.04-.06.09-.06.17q-.915 1.425-1.65 2.79-1.14 2.04-2.1 3.87c.42-1.4.87-2.84 1.36-4.32.34-1.06.68-2.05 1.02-2.96 0-.08.02-.11.06-.11 1.82-5.46 3.18-9.1 4.09-10.92-3.6.08-6.48.28-8.64.63Z" class="n"/><path d="M44.83 52.91c2.5-1.48 5.53-2.5 9.1-3.07q3.24-.51 8.64-.63c-.91 1.82-2.27 5.46-4.09 10.92-.04 0-.06.04-.06.11-.34.91-.68 1.9-1.02 2.96-.49 1.48-.95 2.92-1.36 4.32.64-1.21 1.35-2.5 2.1-3.87q.735-1.365 1.65-2.79c0-.08.02-.13.06-.17 6.6-11.18 13.21-20.47 19.85-27.86 3.75-4.17 7.26-7.17 10.52-8.98 4.06-2.31 8.28-3.2 12.68-2.67 3.72.45 6.98 2.92 9.78 7.39 1.44 2.35 3.83 6.29 7.17 11.83.49.83 1 1.71 1.54 2.62l.06-1.08c0-.3-.08-.87-.23-1.71-.04-.15-.08-.3-.11-.45-.57-2.35-1.04-4.19-1.42-5.52 2.05-4.06 4.64-7.3 7.79-9.72 4.06-3.11 8.36-4.55 12.91-4.32 2.81.08 5.06.83 6.77 2.27 1.86 1.63 3.13 4.3 3.81 8.02.42 2.46.42 7.6 0 15.41-.45 7.77.06 13.16 1.54 16.15 1.48 2.92 3.17 4.45 5.06 4.61 1.86.11 4.02-.11 6.48-.68a27.8 27.8 0 0 0 6.14-2.16c-2.96 5.54-7.17 10.94-12.62 16.21-1.82 1.78-3.47 3.01-4.95 3.7-2.12 1.02-4.13 1.18-6.03.45-1.36-.61-2.82-1.99-4.38-4.15a33.5 33.5 0 0 1-2.73-4.61c-.15-.45-.32-.87-.51-1.25-.11-.23-.23-.38-.34-.45-.83-1.82-1.55-3.72-2.16-5.69-1.44-4.47-2.67-6.33-3.7-5.57-1.02.72-2.2 2.92-3.53 6.6-.95 2.46-2.22 5.48-3.81 9.04-1.55-2.46-3.53-5.12-5.91-7.96-3.53-4.28-6.46-6.43-8.81-6.43s-4.89 1.61-7.62 4.83c-2.73 3.15-5.93 7.43-9.61 12.85-3.75 5.38-6.69 9.35-8.81 11.89-4.78 5.8-9.63 9.29-14.56 10.46-.57.11-1.14.23-1.71.34-.3.04-.59.06-.85.06-2.46.27-5.14-.25-8.02-1.54q-2.85-1.305-7.56-4.83c-.42-.3-.83-.63-1.25-.97-.23.15-.34.4-.34.74s.17.85.51 1.54c.27.45.55.91.85 1.36 1.33 2.05 2.94 3.79 4.83 5.23 2.39 1.74 4.89 2.77 7.51 3.07h.91q1.305-.225 2.22 0v-.11q3.24-.405 6.54-1.65 4.89-1.995 9.33-5.52c2.43-2.05 4.85-4.59 7.28-7.62 1.63-2.16 4.28-5.4 7.96-9.72 3.64-4.4 6.6-7.64 8.87-9.72 2.31-2.09 4.63-2.5 6.94-1.25 2.27 1.25 4.13 2.67 5.57 4.26 1.33.76 3.26 2.99 5.8 6.71 3.34-5.46 5.78-9.27 7.34-11.43.87 2.05 1.88 4.08 3.01 6.08.04.08.08.15.11.23v.06l3.53 4.55c0-.23.02-.45.06-.68 1.93 3.37 4 5.4 6.2 6.08 2.92.95 5.99.63 9.21-.97 2.27-1.18 4.76-3.13 7.45-5.86a74.8 74.8 0 0 0 12.06-16.26c1.86-3.41 3.22-6.63 4.09-9.67-5.12 2.69-7.98 4.19-8.59 4.49a20.5 20.5 0 0 1-7.11 2.1c-1.59.19-2.82-.04-3.7-.68-.61-.49-1.12-1.44-1.54-2.84-.87-3.37-1.27-8.04-1.19-13.99q.06-10.41-.45-14.16c-.49-3.22-1.4-6.01-2.73-8.36q-2.28-4.215-5.97-7.62c-2.5-2.31-5.84-2.98-10.01-1.99-4.21.99-7.49 2.48-9.84 4.49-2.39 2.01-4.53 4.11-6.43 6.31-.83.99-1.84 2.29-3.01 3.92-.38-.99-.8-1.93-1.25-2.84-.11-.23-.19-.36-.23-.4-.38-.99-.82-1.69-1.31-2.1-.34-.53-.66-1.04-.97-1.54-1.25-1.97-2.71-3.64-4.38-5-1.86-1.48-3.85-2.48-5.97-3.01-5.31-1.29-11.16.44-17.57 5.17-5.65 4.17-10.9 9.84-15.75 17q-2.67 4.035-5.46 9.33c-.45-.15-.97-.27-1.54-.34-5.91-.95-11.7-.3-17.34 1.93-5.84 2.31-10.33 5.88-13.48 10.69-3.64 5.38-5.38 11.92-5.23 19.62.11 5.72 1.42 12.45 3.92 20.19.49 1.48 1 2.94 1.54 4.38l6.6-.23c-.76-1.9-1.46-3.83-2.1-5.8-1.44-4.17-2.46-7.89-3.07-11.15-.76-4.13-.97-7.98-.63-11.54.38-4.02 1.48-7.71 3.3-11.09 1.97-3.64 4.57-6.41 7.79-8.3Z"/></g></g></svg>