<svg xmlns="http://www.w3.org/2000/svg" id="a" viewBox="0 0 253 291.35"><defs><style>.b{fill:#7f3d5e}.e{fill:#bf9494}.g{fill:#6f214a}</style></defs><path d="M185.25 235.01c-.2-1.34-.42-2.66-.65-3.96-.2-1.27-.42-2.53-.65-3.76-.4-2.29-.85-4.59-1.36-6.83-.43-1.97-.87-3.92-1.3-5.87-.17-.66-.31-1.29-.45-1.88-.3-1.37-.62-2.73-.95-4.05l-.5-2.2-.03-.1v-.24l-.28-.22c-.26-.2-.5-.42-.66-.61-.22-.3-.25-.57-.12-.89.22-.54.54-.97 1-1.37.48-.48.94-.98 1.38-1.48.35-.39.64-.83.88-1.37.12-.29.15-.6.1-.89-.04-.41-.15-.8-.29-1.13q-.51-1.365-1.92-2.61c-.51-.41-1.03-.79-1.51-1.11-.58-.45-1.17-.86-1.77-1.25-.74-.44-1.48-.86-2.24-1.27-1.6-.8-3.22-1.58-4.81-2.3-1.64-.8-3.3-1.58-4.95-2.32l-5.02-2.01c-1.74-.63-3.46-1.25-5.16-1.85l-.78 1.16c.83.92 1.56 1.93 2.16 2.97 1.44 2.59 2.67 5.31 3.65 8.08.33.95.64 1.94.95 2.99.15.45.26.94.31 1.37 0 .17-.01.35-.04.55v.1c0 .13-.02.29-.06.42-.07.22-.2.45-.4.7-.27.36-.58.58-.85.66-.6.07-1.19.13-1.74.2l-4.3.4c-1.44.13-2.88.29-4.33.45-1.43.2-2.85.4-4.25.6-1.44.2-2.88.42-4.32.65l-1.08.18.59.92c1.46 2.3 2.97 4.56 4.47 6.72.54.78.91 1.65 1.09 2.59.16.75.29 1.5.39 2.26.13.84.23 1.7.3 2.57.03.22.01.47-.04.71-.08.37-.22.74-.38 1.06-.24.44-.62.74-1.13.91l-1.65.49.15.66c.42 1.83.76 3.71.99 5.57.16 1.46-.33 5.75-1.45 12.75-1.25 7.62-2.52 13.21-3.77 16.62-1.37 3.78-3.78 6.56-7.19 8.24l.17.65c6.9-.36 13.53-1.47 19.9-3.32.12-.29.24-.58.38-.85 2.29-4.49 4.66-8.97 7.04-13.34a255 255 0 0 0 2.26-4.33c.54-1.1 1.05-2.19 1.55-3.26.92-1.98 1.58-4.09 1.96-6.3.17-1.15.31-2.29.41-3.41.04-.53.04-1.05 0-1.55-.07-1.01-.15-2.02-.25-3.03-.17-1.65-.56-3.28-1.14-4.83-.37-.97-.76-1.92-1.17-2.84a69.5 69.5 0 0 0-4.61-8.68c.1.04.19.07.28.12.86.43 1.63 1 2.3 1.71.85.88 1.65 1.82 2.39 2.78 1.08 1.47 1.92 3.08 2.5 4.8.39 1.17.76 2.39 1.09 3.61.33 1.21.61 2.45.83 3.67.1.61.16 1.23.19 1.81.03 1.23.05 2.47.05 3.72-.03 1.79-.31 3.58-.82 5.32q-.435 1.56-1.08 3.09c-.43 1.16-.9 2.33-1.37 3.44-.37.77-.72 1.55-1.07 2.33q-.24.57-.54 1.17c-.28.6-.61 1.17-1.02 1.74-.06.09-.13.18-.23.26l-.27.22v.35c0 .43.04.88.11 1.33.17.95.39 1.91.66 2.82.3 1.08.59 2.3.89 3.75l.03.17c8.44-3.85 16.37-9.16 23.78-15.91-.17-1.33-.5-3.82-.65-4.9l-.6-4.31Zm-68.81 30.46a28 28 0 0 1-.49-3.68c-.08-.68-.07-1.02-.05-1.27 0-.54.08-1.16.23-1.83l.55-2.29c.27-1.09.63-1.9 1.04-2.4.2-.22.39-.41.58-.54l.45-.32-.19-.51c-1.15-3.2-2.21-6.46-3.13-9.7l-1.4.07c-1.07 5.81-3.88 10.86-8.38 15-1.89 1.73-4.07 2.81-6.43 3.21-.13.01-.25.02-.37.02-1.37 0-2.29-.72-2.89-2.26-3.21-8.31-4.17-17.16-2.86-26.29.26-1.8.61-3.63 1.04-5.44l.12-.52-.47-.27c-.19-.11-.38-.24-.5-.33-.24-.24-.39-.49-.45-.74a3.7 3.7 0 0 1 0-1.55c.23-1.07.51-2.13.83-3.12a70.7 70.7 0 0 1 5.99-13.06c.51-.84 1-1.71 1.47-2.58l.51-.95-4.1-.41-9.38-.6a181 181 0 0 0-9.54.05c-1.11.03-2.2.08-3.29.15l-1.14.1h-2c-.91-.12-1.75-.39-2.54-.83a3.75 3.75 0 0 1-1.2-.9c-.36-.45-.62-.96-.76-1.53-.18-.68-.24-1.39-.18-2.14.03-.69.13-1.38.28-2.06.64-2.65 1.82-5.1 3.53-7.3.59-.82 1.21-1.64 1.83-2.42l-.88-1.1c-.9.43-1.79.87-2.67 1.31a872 872 0 0 1-5.79 2.97c-6.38 2.54-11.44 6.64-15.01 12.14-.41.54-.36 1.2.11 1.73 1.24 1.59 2.88 2.54 4.88 2.83l-4.61 13.12c-.39 1.31-.78 2.59-1.17 3.87 2.41 3.52 5.01 6.94 7.83 10.27 4.19 4.94 8.57 9.34 13.13 13.21l.09-.36c.33-1.36.66-2.73.97-4.14.4-1.88.83-3.79 1.29-5.68l.7-2.9 1.2-4.88c.23-.86.47-1.71.7-2.55.3-1.1.65-2.19 1.02-3.27.27.66.41 1.36.41 2.08 0 .54-.08 1.14-.24 1.81-.07.34-.14.69-.2 1.05-.07.34-.13.69-.2 1.03-.17.74-.32 1.49-.45 2.2-.21.94-.33 1.89-.37 2.86 0 .66.09 1.33.27 1.96.1.45.22.91.35 1.33.07.36.16.71.25.98.04.24.1.47.17.68.64 2.29 1.46 4.62 2.43 6.93.67 1.61 1.38 3.18 2.12 4.69.87 1.76 1.74 3.54 2.61 5.32l.16.34c10.68 6.27 22.24 10.04 34.68 11.29l-.1-.31c-.15-.46-.29-.98-.41-1.55Zm7.35-1.8-1.15-1.72-.17 2.06c-.03.38-.08.78-.14 1.21-.12.89-.3 1.64-.53 2.24l-.09.23c1.55.08 3.12.12 4.69.12h.47l-.37-.45a49 49 0 0 1-2.72-3.67Z" class="b"/><path d="M120.27 267.31c.96-1.74 1.38-4.14 1.24-7.1v-.52l-.08-.15c-.72-1.41-1.36-2.86-1.91-4.3-.05-.14-.09-.26-.14-.35l-.45-.88-.7.7c-.42.42-.77 1.07-1.07 1.96-.56 1.55-.86 2.71-.89 3.63l.15 3.52c0 .47.05.81.18 1.12l.47.94c.36.61.8 1.14 1.3 1.58.56.05 1.11.09 1.67.12l.18-.18z" style="fill:#3d262b"/><path d="M102.37 203.5c-.27-.63-.75-.97-1.53-1.07-4.53-.23-9.24-.5-13.95-.79-4.97-.17-10.03-.27-15.01-.3h-.84l-.22-.27c-.5-.63-.76-1.34-.76-2.1-.04-.82.09-1.69.39-2.54a15 15 0 0 1 2-3.84c.9-1.24 1.81-2.44 2.71-3.62.88-1.1 1.79-2.19 2.71-3.24l.17-.25c1.6-1.83 3.35-3.44 5.23-4.76.27-.21.64-.52 1.1-.91.36-.33.77-.66 1.19-.98.75-.62 1.56-1.23 2.38-1.77.88-.58 1.81-1.13 2.76-1.63l1.86-1-.86 1.93c-.41.91-.69 1.84-.85 2.77-.35 1.91-.3 3.9.14 5.93.26 1.12.63 2.29 1.11 3.48 2.22 5.43 6.02 8.46 11.63 9.26l.35.05.17.31c.11.19.25.39.42.59.28.35.52.72.74 1.12l.2.36-.21.35c-.6 1-1.18 1.99-1.74 2.99l-.72 1.27zm32.46 2.2a57 57 0 0 0-3.95-5.48l-.16-.2v-.26c0-.71.02-1.42.05-2.13 0-.15.02-.35.06-.56l.07-.36.33-.15c2.52-1.15 4.38-3.06 5.54-5.68.38-.87.49-1.7.35-2.54-.8-4.5-2.83-8.48-6.01-11.83l-.2-.21v-3.06l.99.4c1.07.43 2.14.91 3.19 1.42 1.09.58 2.18 1.17 3.28 1.77l1.92 1.11c1.16.75 2.3 1.53 3.41 2.34 1.58 1.14 3.03 2.3 4.31 3.44 1.46 1.29 2.84 2.77 4.09 4.4 2.46 3.14 4.05 6.73 4.74 10.67l.13.73-18.13 2.71c-.27.07-.6.2-.91.37l-.07.04-.08.02c-.5.14-.94.37-1.33.7-.21.19-.35.44-.41.75-.04.29-.02.63.09 1l-1.3.58Zm7.22 15.63c-.3-.96-.61-1.92-.94-2.88-1.38-3.86-3.12-7.55-5.19-10.96l1.15-.86c.67.74 1.35 1.52 2.02 2.32.68.78 1.32 1.61 1.89 2.46.27.37.54.8.79 1.26.24.45.47.92.68 1.41.61 1.42 1.12 2.9 1.53 4.39.17.63.15 1.3-.05 1.99-.13.45-.36.84-.68 1.16l-.84.84-.35-1.14Z" class="b"/><path d="M109.53 183.67c-.54-.44-1.06-.88-1.57-1.31-.61-.55-1.2-1.08-1.77-1.62-1.57-1.37-3.19-2.73-4.8-4.01-.51-.41-1-.81-1.47-1.22l-.21-.18-1.73-15.2 2.79 1.39c2.08.91 4.25 1.81 6.44 2.67 3.2 1.19 6.44 2.44 9.6 3.7l.26.08c2.16.83 4.35 1.53 6.55 2.09 1.34.36 2.7.67 4.06.93.42.03.69.32.76.63.14.41.23.84.27 1.28.04.77.05 1.53.05 2.31v.39l-.32.21c-2.54 1.67-4.73 3.86-6.5 6.5l-.49.73-.62-.62c-.11-.11-.21-.2-.32-.28a11.2 11.2 0 0 0-3.5-1.27 6.2 6.2 0 0 0-1.42-.17c-1.86 0-3.5.94-5.04 2.86l-.45.57-.56-.46Zm34.96-17.63-3.74-.2-3.84-.4c-1.77-.34-3.49-.6-5.16-.8-.17-.04-.24-.04-.32-.04h-.07s-2.25-.41-3.32-.61c-1.34-.27-2.66-.52-3.99-.75-.62-.14-1.2-.25-1.75-.35-1.67-.37-3.29-.74-4.89-1.11-1.4-.41-2.75-.79-4.08-1.16-1.32-.37-2.63-.8-3.91-1.27-1.03-.29-2.1-.65-3.12-1.06l-2.84-1.32c-.98-.52-1.91-1.05-2.81-1.58-.99-.48-2.01-1-2.98-1.54-1.68-.97-3.33-1.92-4.96-2.85-1.13-.68-2.32-1.46-3.56-2.34a77 77 0 0 1-4.17-2.91c-1.25-.98-2.46-2-3.6-3.04-1.21-1.14-2.4-2.31-3.53-3.48a235 235 0 0 1-3.81-4.01l-2.44-2.85.24-.44c.63-1.16 1.26-2.35 1.9-3.54.37-.67.71-1.33 1.04-1.99.62-1.4 1.23-2.84 1.83-4.3.26-.67.5-1.38.73-2.1.27-.75.52-1.48.75-2.2.19-.72.37-1.48.53-2.24.33-1.56.65-3.1.95-4.63.42-2.25.67-4.56.74-6.88.07-1.52.08-3.05.05-4.56-.07-1.53-.18-3.08-.35-4.59-.02-.21-.04-.41-.07-.62-.06.44-.13.87-.2 1.31-.23 1.62-.48 3.26-.75 4.9-.14.78-.29 1.56-.46 2.34-.13.72-.28 1.46-.45 2.21-.34 1.38-.69 2.77-1.06 4.17-.3 1.22-.64 2.48-1.01 3.72-.24.78-.49 1.55-.76 2.29-.46 1.44-.97 2.92-1.5 4.35a60.5 60.5 0 0 1-3.59 7.89c-.95 1.66-2.05 3.31-3.26 4.89-.75.95-1.53 1.87-2.34 2.75-.74.84-1.55 1.65-2.4 2.4a20 20 0 0 1-2.53 1.96c-.95.65-2 1.22-3.11 1.71-1 .5-2.11.92-3.25 1.23-1.14.3-2.3.58-3.44.81l-.09.02h-.09a97 97 0 0 0-3.33-.15h-.05l-.05-.01q-.6-.105-1.11-.33c-1.03-.28-2.03-.68-2.96-1.2a5.4 5.4 0 0 1-1.64-1.05c-2.05-1.91-3.04-4.28-2.93-7.06.07-2.14.52-4.29 1.35-6.39.64-1.71 1.39-3.4 2.23-5.02 2.63-5 5.52-9.95 8.58-14.71a94 94 0 0 1 2.36-3.62l.13-.2.22-.08c.85-.29 1.82-.66 2.87-1.09l.13-.05h.08c.19-.05.4-.1.62-.13 4.65-1.96 9.06-4.56 13.1-7.72 4.45-3.54 8.34-7.66 11.55-12.25 2.83-4.16 4.62-8.14 5.33-11.82.35-1.48.46-2.79.34-3.94l-.18-1.68 1.34 1.03c3.7 2.85 8.03 5.3 12.89 7.3 5.67 2.36 11.81 3.74 18.27 4.1 1.34.03 2.7.05 4.06.05h.4l2.9-.05c.14-.03.29-.05.46-.05.58-.03 1.2-.08 1.82-.15l.72-.08.07.72c.23 2.44.47 4.94.7 7.5l.55 5.79-.44.22c-.09.04-.12.07-.12.07l-.05.04-.09.07c-.21.12-.43.26-.64.41-1.84 1.34-3.07 2.78-3.65 4.27l-.06.15v.02c-.13.34-.26 1.01-.29 2.3v.9c.53 2.39 1.61 3.97 3.31 4.84.59.3 1.29.51 2.08.63 1.15.21 2.28.31 3.38.31.28 0 .55 0 .83-.02 1.19-.09 2.41-.31 3.6-.63 1.84-.45 3.6-1.14 5.24-2.04l.13-.07s2.63-.28 3.9-.42l3.46-.3 2.89-.3c4.24-.46 8.51-.87 12.67-1.2 3.77-.43 7.64-.73 11.48-.9l7.28-.5c.76-.07 1.54-.12 2.32-.15l4.38-.3a62 62 0 0 1 9.05-.05l1.67.1.07.02c.9.24 1.78.56 2.61.94.81.43 1.49.97 2.05 1.64.56.74 1.01 1.56 1.37 2.44.19.49.32.99.39 1.51.2 1.62.39 3.24.55 4.88.07.83.1 1.66.1 2.47s-.03 1.64-.1 2.46c-.03.78-.1 1.62-.2 2.48-.13 1.03-.48 3.09-1.06 6.15-.59 3.13-2.37 7.08-5.3 11.75-2.87 4.66-5.52 8.31-7.88 10.86-2.33 2.52-4.06 4.32-5.13 5.33l-.95.89-.65-3.28c-.13-.69-.28-1.38-.44-2.07-.12-.41-.26-.84-.42-1.26-.1-.21-.24-.45-.4-.68-.23-.28-.48-.56-.75-.79-.19-.13-.42-.22-.64-.22a.9.9 0 0 0-.35.07c-.4.26-.78.57-1.13.92-.51.48-.94.99-1.31 1.54-.56.83-1.09 1.67-1.58 2.51l-1.67 3.13-.54-2.17c-.12-.42-.2-.81-.27-1.2-.13-.57-.26-1.15-.39-1.71-.27-.49-.56-.96-.88-1.39-.12-.16-.24-.3-.37-.42-.18-.09-.35-.17-.53-.23h-.48c-.46.18-.91.38-1.34.61-.75.51-1.47 1.26-2.08 2.21-.52.81-1.02 1.66-1.47 2.5-.68 1.27-1.31 2.61-1.87 3.98a38 38 0 0 0-1.37 4.07 66 66 0 0 0-1.14 4.41l-.09.42-2.22.62c-1.44.31-2.81.62-4.17.96l-5.09.85v-.12c-.3.04-.62.07-.94.09-2 .26-4.01.42-5.93.45s-4.26 0-4.26 0Zm5.29-31.66s-.25.01-.72.21c-.53.16-1.14.53-1.86 1.13-.72.57-1.23 1.22-1.55 1.94-.33.73-.25.96-.24.96.07-.02.19-.04.41-.15.33-.16.97-.58 2.2-1.65.64-.61 1.13-1.09 1.46-1.42.1-.12.2-.25.26-.34.1-.18.15-.4.13-.58 0-.04-.02-.09-.04-.1zm5.39 1.66c.21 0 .69-.11 1.63-.84 1.06-.86 1.76-1.43 2.09-1.69.25-.23.52-.54.75-.89.03-.05.06-.12.06-.23-.83.02-1.67.37-2.57 1.05-1.42 1.03-1.91 1.68-2.08 2.03l-.02.05-.03.04c-.12.17-.19.3-.24.4.05.02.11.05.19.08h.23Zm.71-22.12c.11.42.53 1.34 1.95 3.44 1.12 1.67 2.64 3.3 4.51 4.85 1.9 1.54 3.93 3 6.03 4.35 2.1 1.29 4.6 2.47 7.41 3.48 2.77 1 4.81 1.51 6.06 1.51l2.7-.2.16-.04c.29-.05.53-.1.72-.14 1.57-.44 3.65-1.52 6.17-3.2 2.4-1.56 4.77-3.75 7.04-6.51 2.28-2.71 4-5.32 5.1-7.79.59-1.37.98-3.28 1.14-5.65.18-3.1-.06-3.71-.11-3.79-.18-.29-.88-.9-3.24-1.46-.21-.05-.46-.09-.75-.14l-4.98-.34-7.69.15c-.17 0-.33.01-.5.04h-.06l-.06.01c-.16 0-.32.01-.48.04l-4.92.36h-.12l-10.02.85c-.37.03-.71.08-1.02.14-2.46.37-4 .63-4.61.79-.7.14-2.56.56-5.57 1.26-2.79.61-4.57 1.77-5.3 3.44-.26.86-.24 1.99.09 3.28l.19.76c.04.15.09.33.15.53Zm-6.29 13.87c.18 0 .51-.05 1.06-.29.74-.34 1.36-.69 1.81-1.02.42-.36.83-.72 1.19-1.05.45-.41.61-.63.66-.72.08-.16.12-.27.13-.32 0-.03-.03-.09-.05-.12-.13-.22-.22-.23-.27-.23h-.18l-.06.04h-.2c-.49.04-1.08.31-1.76.82-.81.58-1.66 1.3-2.53 2.14l-.09.09c-.07.07-.12.13-.16.2l.02.04-.06.19s.02.03.03.04c.06.08.11.15.28.2h.17Zm-61.8-36.58c.42.44.93.87 1.5 1.27.92.63 1.97 1.2 3.12 1.68l.99.41-.76.76-.11.14c-.35.65-.57 1.39-.63 2.16-.06.74-.03 1.49.09 2.23.54 1.81 1.37 3.29 2.43 4.29.92.89 2.36 1.66 4.28 2.29 1.29.43 2.86.64 4.66.64 2.08 0 4.53-.29 7.27-.86.83-.13 1.65-.33 2.49-.58 1.45-.45 2.9-1.06 4.33-1.8 1.14-.58 2.11-1.41 2.91-2.45.46-.6.72-1.28.81-2.09 0-.08.01-.27.05-.52v-.5c0-1.2-.34-2.39-1-3.54-.72-1.05-1.72-2.09-2.92-3.05-2.07-1.54-4.42-2.5-6.95-2.85-.33-.06-.62-.09-.9-.09-.63-.06-1.2-.09-1.78-.09-1.46 0-3.01.17-4.62.52-3.19.61-5.81 1.72-7.8 3.31-.46.33-.87.67-1.24 1.05l-.31.31-.42-.13c-1.98-.62-3.82-1.45-5.48-2.5Z" class="e"/><path d="M106.43 95.28c-3.65 0-6.79-.22-9.32-.66l-1.78-.31 1.5-1c1.57-1.05 3.6-1.81 6.02-2.26 1.52-.3 3-.45 4.4-.45 1.14 0 2.26.1 3.32.3 2.29.42 4.36 1.3 6.14 2.63l1.43 1.06-1.77.23c-2.38.31-5.37.46-8.87.46h-1.08Zm19.72.1c.42-.79 1.12-1.56 2.11-2.29.27-.24.62-.49 1-.71.09-.08.2-.15.3-.21.94-.62 2.09-1.2 3.37-1.68.49-.17 1-.34 1.54-.51 2.22-.73 4.26-1.1 6.07-1.1.23 0 .46 0 .68.02 1.02.03 2.03.16 2.97.37l2.53.56-2.76.92c-1.69.83-4.46 2.02-8.16 3.49-.78.31-1.48.56-2.09.76-.93.33-1.72.59-2.33.76-.35.08-.71.15-1.12.22h-.06l-.06.01c-.67.12-1.62.25-2.73.35l-1.94.35z" class="e"/><path d="M103.24 105.44c-1.83 0-3.64-.35-5.37-1.05-2.05-.74-3.52-1.78-4.34-3.08l-.06-.1-.03-.11q-.045-.195-.06-.36a5.02 5.02 0 0 1-.18-3.25c.19-.77.63-1.54 1.31-2.3.19-.2.41-.29.64-.29h.08l.08.02c1 .23 2.18.41 3.51.54h.01c.08 0 .23.03.39.08l1.03.34-.71.82c-.16.19-.3.46-.4.82-.33 1.22-.2 2.15.4 2.83.28.33.61.48 1.05.51h.01c.49 0 .81-.13 1.11-.41.42-.31.68-.68.86-1.21.16-.54.2-1.09.12-1.66-.05-.28-.13-.53-.23-.73l-.55-1.09 1.22.05c1.02.04 2.03.07 3.03.07 1.99 0 3.97-.09 5.87-.26 2.41-.2 4.16-.46 5.21-.77.2-.04.3-.07.38-.09l.43-.14.31.33c.67.71 1.06 1.38 1.18 2.06.03.08.06.24.06.38-.04.55-.14 1.02-.29 1.45-.11.3-.26.62-.45.95-.27.39-.52.75-.78 1.15-.64.98-1.48 1.7-2.5 2.16-1.47.7-3 1.22-4.52 1.53q-.105.045-.24.09c-2.02.43-4.45.67-7.31.74h-.27Zm29.35-1.3c-.71 0-1.36-.05-1.93-.16-2.46-.45-4.08-1.73-4.8-3.82-.06-.15-.14-.46-.19-1.45-.07-.73-.07-1.25.02-1.61l.15-.62.63.07c.38.04.79.07 1.21.07.75 0 1.57-.07 2.44-.21.08-.02.19-.04.31-.05q.15-.06.3-.06h1.72l-1.05 1.07v.1l-.11.11c-.04.15-.07.44-.04.95.08.44.23.67.34.78.16.19.33.3.56.39.06.03.1.05.14.06.12.01.24.02.35.02.25 0 .47-.03.66-.1.09-.04.22-.11.36-.19.33-.21.64-.63.91-1.23.18-.5.29-1.02.29-1.5 0-.28-.04-.51-.1-.7l-.26-.69.69-.24c3.55-1.25 7.17-2.83 10.76-4.71.18-.09.35-.13.53-.13h.17l.15.08c.3.15.59.34.86.56.29.19.56.42.79.67.32.29.6.67.83 1.13.21.47.26.93.16 1.38-.47 1.54-1.21 2.9-2.2 4.1l-.75.75c-1.17 1.06-2.77 2.11-4.78 3.13-1.19.59-2.69 1.09-4.48 1.46-1.46.34-2.77.53-3.88.56h-.77Z" style="fill:#fff"/><path d="M160.07 113.74c-1.47-1.66-2.04-2.93-1.78-3.99.03-.2.12-.52.27-.93l.08-.23.2-.13c.73-.47 1.64-.86 2.71-1.14 1.67-.56 3.72-1.1 6.03-1.61 2.31-.53 4.35-.91 6.07-1.11l.46-.05 6.45-.6h.13c.15 0 .29-.01.41-.04h.05l9-.46h.14c1.49-.06 2.93-.09 4.27-.09 1.67 0 3.23.05 4.63.14 1.15.07 2.2.27 3.22.58 1.1.19.96 1.98.9 2.74-.07.47-.12.86-.15 1.21l-.06.66h-.82c-1.49-.13-3.38-.19-5.59-.19-2.5 0-5.5.08-8.92.24h-.13l-15.36 1.9-.95.19-.91.24c-4.94 1.21-8.04 2.23-9.23 3.05l-1.13.77v-1.14Z" style="fill:#d6dee8"/><path d="m127.49 266.58-.22-.28c-.61-.78-1.18-1.59-1.69-2.41-.65-1.06-1.24-2.17-1.75-3.28-.61-1.35-1.18-2.72-1.71-4.09l-.02-.04c-.37-.96-.71-1.87-1.03-2.78-1-2.59-1.89-5.28-2.66-8-1.07-3.67-1.93-7.42-2.57-11.12-.33-1.83-.61-3.7-.81-5.54-.3-2.61-.49-5.27-.55-7.91-.03-1.54-.05-3.08-.05-4.62a132 132 0 0 1 1-15.09l.07-.55.55-.07c.52-.07 1.03-.12 1.55-.15a7.65 7.65 0 0 0 3.78-1.42l3.9-2.49.4.29c.78.58 1.55 1.21 2.31 1.9a26.3 26.3 0 0 1 3.91 4.58c.34.51.68 1.06 1.02 1.64a105 105 0 0 1 7.76 16.72c.3.76.58 1.55.86 2.37l.21.73c.55 1.66.77 3.4.63 5.16-.37 4.69-.92 9.38-1.66 13.96-.54 3.28-1.28 6.57-2.22 9.79-.85 2.88-2.01 5.64-3.46 8.2-1.11 2.01-2.6 3.37-4.43 4.02-.83.32-1.76.49-2.74.49h-.35Zm-6.38-58.16c-.18 2.61-.12 5.53.19 8.73.15 1.76.34 3.49.57 5.2-.56-4.63-.81-9.29-.76-13.93m4.67-13.39q.855-1.335 1.38-2.76c.21-.63.37-1.31.46-2 .01-.07.02-.14.02-.21l-5.53-6.37.45-.47c1.63-1.73 3.26-3.48 4.9-5.24l.12-.12c.35-.42.73-.88 1.09-1.34l.53-.67.57.63a28 28 0 0 1 2.67 3.44c1.64 2.6 2.83 5.47 3.55 8.53l.06.27-.14.24a16.9 16.9 0 0 1-3.76 4.59l-.37.25a10 10 0 0 1-3.91 2.05c-.48.11-.93.2-1.38.27l-1.58.24.86-1.34Z" class="g"/><path d="M114.19 198.88c-1.36 0-2.8-.21-4.29-.63l-.34-.09-.58-1.43c-.63-1.25-1.16-2.58-1.57-3.91-.38-1.16-.65-2.36-.83-3.56l-.05-.36.26-.25c.12-.12.26-.24.43-.37 2.78-2.49 5.9-4.7 9.23-6.55l.39-.21.37.25c3.13 2.12 5.97 4.6 8.43 7.37l.26.3-.11.38c-.14.49-.3.96-.47 1.41-.5 1.22-1.22 2.34-2.14 3.33-1.01 1.08-2.08 1.97-3.2 2.67-.75.47-1.55.83-2.37 1.08-1.08.35-2.23.55-3.39.58h-.02Zm-15.06 61.41-.21-.35c-2.58-4.31-4.05-9.15-4.35-14.38-.23-3.51-.2-7.11.1-10.7.2-2.48.54-4.92 1.01-7.23.13-.7.29-1.4.46-2.08l.4-1.51c1.11-4.16 2.58-8.22 4.39-12.07 1.34-2.82 2.87-5.56 4.55-8.14.77-1.2 1.6-2.41 2.48-3.59l.03-.04.04-.04.24-.49.5.14 2.2.4v-.02l3.16.61-.18.74q-.045.18-.09.42a72 72 0 0 0-.49 3.88c-.53 4.2-.81 8.48-.85 12.73v1.54c0 1.67.07 3.35.2 4.99.04 1.05.1 2.08.2 3.09.4 4.12 1.05 8.23 1.94 12.21l.05.21-.08.2a39.3 39.3 0 0 1-3.46 6.93 52.4 52.4 0 0 1-9.32 11.35l-.04.04-.05.03c-.18.12-.35.24-.5.36-.22.14-.36.24-.5.35l-.08.07-.1.04c-.18.07-.36.12-.54.14-.21.11-.44.16-.67.16h-.41Zm5.62-39.21c-.29 1.21-.56 2.43-.81 3.63-.23 1.1-.45 2.19-.65 3.29-.3 1.64-.55 3.33-.74 5-.21 1.57-.34 3.15-.4 4.73.05-.77.13-1.54.22-2.3.3-2.53.67-5.11 1.1-7.68l.6-3.31c.21-1.11.43-2.24.67-3.36Z" class="g"/><path d="M105.69 197.36c-.17-.12-.35-.22-.52-.3-1.34-.75-2.64-1.51-3.94-2.27q-.93-.57-1.83-1.17a32 32 0 0 1-4.81-4.04l-.15-.15-.04-.21a38 38 0 0 1-.71-4.74c-.03-.28-.06-.56-.1-.82-.11-1.9 0-3.73.31-5.51.2-1.29.53-2.59.98-3.87l.34-.96.79.64c.19.15.36.32.51.5.62.53 1.24 1.1 1.84 1.7l.6.6c.78.75 1.6 1.5 2.42 2.22.77.7 1.56 1.4 2.39 2.09 1.09.89 2.2 1.75 3.31 2.57l1.86 1.29-.64.61c-.75.72-1.46 1.45-2.11 2.16l-.37.37c-.08.09-.3.46-.19 1.57.06.62.22 1.4.48 2.33.5 1.46.85 2.59 1.05 3.42.15.6.22 1.03.22 1.32v.66l-1.46.13-.21-.14Z" class="g"/><path d="M167.64 161.82c.9-3.21 2-6.4 3.28-9.48l.08-.25c.96-2.23 2.3-4.2 4.03-5.89.5-.41 1.08-.61 1.76-.65l.27-.02.21.16c.21.16.39.36.53.61.59.99.94 2.18 1.05 3.51.09.92.24 1.83.44 2.7l.02.08v.25c.02.09.07.2.12.31.09.21.17.35.23.44l.16.02c.12-.17.23-.34.32-.51.31-.49.54-.94.73-1.4.55-1.21 1.13-2.38 1.73-3.52.41-.81.88-1.61 1.39-2.37.48-.78 1.23-1.21 2.14-1.21h.23l.19.13c.63.45 1 1.06 1.1 1.8.17 2.02.35 4.02.55 6.02l.04.44-5.47 3.58-.06.03c-.88.36-1.73.75-2.54 1.17-.45.26-.93.52-1.41.76l-1.18.54-.06.02c-.32.09-.63.19-.92.3-.64.37-1.3.71-1.97 1.01-1.94.94-4 1.73-6.09 2.33l-1.25.36.35-1.25Z" style="fill:#9d316a"/><path d="M76.45 179.73c-1.15-.13-2.31-.32-3.46-.56a85.8 85.8 0 0 1-21.23-7.46c-7.32-3.74-13.41-9.33-18.13-16.6-1.54-2.38-2.85-4.6-3.89-6.61-.33-.76-.61-1.47-.88-2.17-3.05-7.57-3-15.3.16-22.98a98.2 98.2 0 0 1 10.33-18.94c.23-.37.52-.76.83-1.14.94-1.33 2-2.77 3.14-4.23 3.15-4 5.72-8.46 7.65-13.28 2.06-4.98 3.27-9.95 3.6-14.78.23-3.01.5-7.35.8-12.89.33-4.81.82-9.14 1.46-12.88v-.08l2.9-6.83.24.1.08-.11-.18-.13c.48-.64.96-1.25 1.44-1.8 2.33-2.8 5.02-5.13 7.97-6.89a85.9 85.9 0 0 1 19.13-9.71c.98-.4 2.04-.78 3.14-1.13l.18-.18.19-.05c8.36-2.24 17-3.38 25.69-3.38 4.51 0 9.14.31 13.74.91 3.07.37 5.81.84 8.13 1.41.29.06.58.13.85.2.62.17 2.39.67 5.32 1.51 1.7.47 3.97 1.2 6.74 2.16 3.75 1.37 4.71 1.87 5.1 2.12.54.37 2.23 1.44 5.04 3.19 3.03 1.88 4.41 5.14 4.09 9.71-.37 4.4-1.79 9.46-4.21 15.04-2.47 5.6-6.74 10.62-12.69 14.95-.95.71-1.98 1.38-3.07 2-4.76 2.63-9.8 4.39-14.99 5.23-1.15.17-2.33.31-3.5.41-1.18.09-2.37.13-3.56.13-3.33 0-6.77-.35-10.24-1.05-11.07-2.25-20.69-6.65-28.61-13.1-.87-.71-1.73-1.44-2.53-2.18-.31-.31-.52-.59-.66-.86-.22-.44-.37-1.13.13-1.95 1.48-2.76 4.04-4.97 7.57-6.53 9.26-4.01 19.13-6.7 29.35-8.01 2.05-.25 4.06-.38 5.96-.38 6.71 0 12.62 1.59 17.56 4.74.21.12.47.27.75.45l.07.04 2.7 2.62-2.87 1.16c-1.03.41-2.04.74-3 .98-7.31 1.77-14.84 2.87-22.39 3.27-1.84.08-3.7.13-5.54.13-.74 0-1.48 0-2.23-.02l2.99.96h.04c.11 0 .22.02.33.05l1.32.1c1.77.13 3.57.2 5.34.2h1.95c5.85-.2 11.71-1.18 17.39-2.92 1.55-.52 3.15-1.08 4.74-1.66.1-.06.22-.13.35-.2l.06-.03.06-.02c.77-.22 1.36-.65 1.8-1.31l.04-.06.05-.05s.05-.07.05-.08v-.07l.04-.07c.3-.71.23-1.34-.23-2.01a8.2 8.2 0 0 0-2.03-2.18c-5.05-4.4-11.59-6.61-19.49-6.61h-.18c-.28 0-.53-.01-.79-.01-.77 0-1.57.04-2.4.11-16.53.82-30.96 6-42.92 15.4-.86.64-1.3 1.28-1.33 1.91-.02.41.15.88.52 1.41.55.81 1.16 1.6 1.8 2.34.77.97 1.58 1.9 2.43 2.77l.09.09c.34.37.67.71 1.02 1.02l.1.09.53.26-.32.65c-.06.12-.11.3-.13.51-.48 4.2-1.81 8.44-3.98 12.6-1.96 3.74-4.55 7.36-7.71 10.76-4.6 4.97-9.91 9.07-15.79 12.19-1.81.97-3.72 1.86-5.67 2.63-1.12.48-1.87.82-2.22 1.01-.18.09-.32.18-.44.28-.28.19-.51.37-.71.56l.31.19-.39.62a353 353 0 0 1-4.26 6.66c-2.15 3.27-4.15 6.66-5.97 10.09-1.72 3.24-2.78 6.65-3.17 10.14-.1.95-.11 1.93-.05 2.92.03.87.15 1.76.34 2.65.19.77.46 1.57.81 2.36.5 1.12 1.2 2.19 2.08 3.16 1.43 1.49 3.07 2.58 4.85 3.2 2.18.84 4.47 1.26 6.84 1.26h.26c1.36 0 2.72-.12 4.04-.34.31-.1.72-.26 1.12-.44l.06-.03.07-.02c.89-.22 1.75-.53 2.57-.9.81-.25 1.52-.55 2.21-.93.78-.37 1.52-.77 2.23-1.19.32-.21.66-.44.97-.69 1.04-.87 2.07-1.8 3.05-2.76 1.15-1.15 2.3-2.34 3.43-3.53l.58-.62.51.67c.44.57.88 1.16 1.31 1.77 1.49 1.84 3.12 3.68 4.83 5.42l1.7 1.69 1.79 1.69 1.78 1.58 1.89 1.59c.6.44 1.24.93 1.88 1.44 1.62 1.17 3.31 2.34 5 3.47 1.66 1.13 3.36 2.25 5.04 3.34l.29.19.93 9.64-.38.24c-1.06.66-2.12 1.34-3.19 2.04a349 349 0 0 1-5.65 3.85c-.97.67-1.97 1.32-2.98 1.92-.8.53-1.67 1.02-2.57 1.44q-2.415.915-4.53 1.89l-.16.16-.35-.04Z" style="fill:#b89e50"/><path d="M189.19 237.77c-.27-1.77-.55-3.53-.85-5.3q-.345-2.205-.75-4.35c-.1-.83-.18-1.67-.25-2.5-.1-1-.25-1.93-.45-2.8-.1-.4-.18-.78-.25-1.15-.1-.4-.18-.78-.25-1.15-.1-.43-.22-.87-.35-1.3l-.3-1.3c-.13-.5-.27-.98-.4-1.45-1-3.7-1.97-7.4-2.9-11.1-.1-.4-.17-.8-.2-1.2.07-.1.15-.2.25-.3q.45-.555.9-1.05c1.03-1 1.55-2.23 1.55-3.7.03-1.67-.52-3.15-1.65-4.45-.63-.7-1.3-1.33-2-1.9q-1.35-1.155-2.85-2.1c-1.77-1.1-3.57-2.13-5.4-3.1a74 74 0 0 0-8.5-3.9c-2.3-.93-4.72-1.83-7.25-2.7-2-.7-4.02-1.35-6.05-1.95-.77-.23-1.52-.47-2.25-.7-.8-.23-1.57-.5-2.3-.8-.27-.1-.5-.22-.7-.35-.27-.2-.53-.38-.8-.55-.6-.4-1.2-.78-1.8-1.15-.7-.43-1.38-.85-2.05-1.25-.8-.47-1.58-.93-2.35-1.4h2.8c2.87 0 5.7-.1 8.5-.3 1.8-.23 3.6-.45 5.4-.65 2.3-.43 4.62-.87 6.95-1.3 1.13-.27 2.27-.53 3.4-.8 1.07-.33 2.15-.65 3.25-.95 1.07-.37 2.13-.77 3.2-1.2a34 34 0 0 0 3.15-1.05c3.23-1.2 6.35-2.65 9.35-4.35.8-.43 1.58-.88 2.35-1.35.83-.4 1.63-.88 2.4-1.45a54 54 0 0 0 4.65-3.6l3.9-3.9c4.53-4.77 8.2-10.12 11-16.05q4.155-8.85 5.55-18.6c.05-.42.08-.86.1-1.3.17-2.9.23-5.8.2-8.7q-.045-3.15-1.2-6.15c-.7-1.8-1.78-3.37-3.25-4.7-.5-.47-1.03-.85-1.6-1.15-.83-.57-1.73-.95-2.7-1.15-1.9-.57-3.77-.85-5.6-.85-1.5 0-2.98.02-4.45.05h-3.75c-1.3 0-2.58.02-3.85.05-1.9.1-3.83.17-5.8.2-3.93.33-7.9.67-11.9 1q-5.805.555-11.55 1.35-4.455.495-8.85 1.2c.83-1.7.82-3.57-.05-5.6q-.45-.705-1.05-1.35c-.2-.23-.43-.43-.7-.6.53-.37.98-.68 1.35-.95 1.23-1.03 1.92-2.07 2.05-3.1.03-.23.02-.42-.05-.55-.2-.2-.48-.13-.85.2-1.3 1.1-2.77 2.17-4.4 3.2-1.13-.57-2.43-.93-3.9-1.1-1.2-.17-2.43-.18-3.7-.05-1.23.1-2.47.32-3.7.65-.93.27-1.83.58-2.7.95-.4-3.87-.73-7.68-1-11.45.67-.1 1.33-.22 2-.35h.1s.07-.05.1-.05h.15q.45-.105.9-.15l2.6-.55c.07-.03.15-.07.25-.1.15-.03.33-.06.51-.09h.04c.3-.1.62-.18.95-.25.07-.03.15-.07.25-.1 0 .01.16-.02.47-.11.43-.12 1.15-.33 2.18-.64 3.3-1.13 6.38-2.67 9.25-4.6.8-.63 1.6-1.27 2.4-1.9 5.3-4.5 9.73-10.3 13.3-17.4 1.93-3.87 3.35-7.63 4.25-11.3q.555-2.055.75-3.75c.43-2.53.48-4.57.15-6.1-.5-2.17-2.08-4.35-4.75-6.55-.17-.13-.33-.27-.5-.4-1.2-.87-2.43-1.68-3.7-2.45a32 32 0 0 0-3.15-1.7c-.53-.23-1.05-.45-1.55-.65-1.53-.73-3.02-1.37-4.45-1.9-1.4-.53-2.78-1.05-4.15-1.55-.93-.33-1.85-.63-2.75-.9s-1.78-.53-2.65-.8c-.9-.23-1.8-.47-2.7-.7-1.17-.23-2.3-.47-3.4-.7l-3.6-.6c-.77-.13-1.55-.23-2.35-.3q-5.145-.6-10.8-.6c-3.43 0-6.95.18-10.55.55-5.9.57-11.35 1.33-16.35 2.3v-.05c-.53.13-1.05.25-1.55.35-.33.07-.68.13-1.05.2v.05c-.97.23-1.92.5-2.85.8-7.67 2.13-14.47 5.12-20.4 8.95a47 47 0 0 0-4.65 3.35c-2.7 2.33-5.2 4.85-7.5 7.55-.3.3-.55.62-.75.95-1.2 1.83-2.17 3.78-2.9 5.85-.57 1.57-1 3.23-1.3 5-.7 5.03-1.15 10.07-1.35 15.1-.2 5.13-.83 10.28-1.9 15.45-1.97 9.8-6.47 18.38-13.5 25.75-.33.4-.65.8-.95 1.2-1.2 1.5-2.38 3.03-3.55 4.6-4.4 5.87-7.42 12.33-9.05 19.4-1.77 7.57-.92 14.9 2.55 22 .17.37.33.73.5 1.1 3.53 7.53 8.47 14.12 14.8 19.75 6.3 5.6 13.75 9.78 22.35 12.55 1.27.4 2.55.77 3.85 1.1-.17.07-.33.15-.5.25-.63.35-1.98 1.08-4.05 2.2-2.04 1.12-4.67 2.85-7.9 5.2a37.6 37.6 0 0 0-8.4 8.45c-2.38 3.31-1.01 5.63 4.1 6.95l-4.13 11.51c1.11 1.79 2.28 3.56 3.49 5.31.45-1.46.9-2.93 1.34-4.42l4.9-13.95c-2.23-.1-4-.98-5.3-2.65-.27-.3-.3-.58-.1-.85 3.53-5.43 8.43-9.4 14.7-11.9q2.865-1.455 5.85-3c.87-.43 1.75-.87 2.65-1.3-.63.8-1.25 1.62-1.85 2.45a19.6 19.6 0 0 0-3.65 7.55c-.17.73-.27 1.47-.3 2.2-.07.8 0 1.58.2 2.35q.255 1.005.9 1.8c.4.47.88.83 1.45 1.1.83.47 1.75.77 2.75.9h2.1c.4-.03.8-.07 1.2-.1 1.07-.07 2.15-.12 3.25-.15a177 177 0 0 1 9.5-.05c3.13.2 6.25.4 9.35.6l3 .3c-.47.87-.95 1.72-1.45 2.55-2.47 4.2-4.48 8.6-6.05 13.2a32 32 0 0 0-.85 3.2c-.13.6-.13 1.22 0 1.85.1.4.32.77.65 1.1.2.17.42.32.65.45-.43 1.83-.78 3.67-1.05 5.5-1.33 9.3-.37 18.18 2.9 26.65.77 1.97 2.1 2.87 4 2.7 2.57-.43 4.85-1.57 6.85-3.4 4.63-4.27 7.5-9.4 8.6-15.4q1.395 4.905 3.15 9.75c-.23.17-.47.38-.7.65q-.75.9-1.2 2.7l-.55 2.3c-.17.73-.25 1.4-.25 2-.03.3-.02.75.05 1.35.1 1.4.27 2.65.5 3.75.12.62.27 1.16.43 1.63 2.07.23 4.18.38 6.3.46.24-.63.44-1.42.57-2.4.07-.43.12-.85.15-1.25.85 1.27 1.77 2.51 2.76 3.73h.45c1.75 0 3.48-.05 5.19-.14 3.58-1.78 6.1-4.65 7.54-8.65 1.27-3.47 2.53-9.05 3.8-16.75 1.13-7.1 1.62-11.42 1.45-12.95-.23-1.9-.57-3.78-1-5.65l1-.3c.7-.23 1.22-.65 1.55-1.25.2-.4.35-.82.45-1.25.07-.33.08-.65.05-.95-.07-.87-.17-1.73-.3-2.6-.1-.77-.23-1.53-.4-2.3a7.5 7.5 0 0 0-1.2-2.85c-1.5-2.17-2.98-4.4-4.45-6.7 1.43-.23 2.87-.45 4.3-.65 1.4-.2 2.82-.4 4.25-.6 1.43-.17 2.87-.32 4.3-.45s2.87-.27 4.3-.4c.57-.07 1.15-.13 1.75-.2.53-.13.98-.45 1.35-.95.23-.3.4-.6.5-.9.07-.23.1-.45.1-.65.03-.23.05-.45.05-.65-.07-.57-.18-1.1-.35-1.6-.3-1.03-.62-2.03-.95-3-1-2.83-2.23-5.57-3.7-8.2-.63-1.1-1.38-2.13-2.25-3.1 1.7.6 3.42 1.22 5.15 1.85 1.67.67 3.33 1.33 5 2 1.63.73 3.27 1.5 4.9 2.3 1.6.73 3.2 1.5 4.8 2.3.73.4 1.47.82 2.2 1.25.57.37 1.13.77 1.7 1.2.5.33 1 .7 1.5 1.1.83.73 1.4 1.5 1.7 2.3.13.3.22.62.25.95.03.2.02.38-.05.55-.2.43-.45.82-.75 1.15-.43.5-.88.98-1.35 1.45-.5.43-.88.97-1.15 1.6-.23.57-.17 1.1.2 1.6.23.27.5.52.8.75 0 .03.02.08.05.15.17.73.33 1.47.5 2.2.33 1.33.65 2.68.95 4.05.13.6.28 1.23.45 1.9.43 1.93.87 3.88 1.3 5.85.5 2.23.95 4.5 1.35 6.8.23 1.23.45 2.48.65 3.75.23 1.3.45 2.62.65 3.95l.6 4.3c.2 1.5.4 3.02.6 4.55.04.28.07.56.11.84 1.28-1.15 2.55-2.34 3.8-3.57l-.06-.42c-.13-1.03-.27-2.05-.4-3.05ZM60.04 38.32l.4.25c.47-.63.93-1.22 1.4-1.75q3.45-4.155 7.8-6.75c5.9-4 12.23-7.22 19-9.65 1.07-.43 2.18-.83 3.35-1.2 0-.03.03-.08.1-.15 12.67-3.4 25.72-4.22 39.15-2.45 3.07.37 5.75.83 8.05 1.4.3.07.58.13.85.2l5.3 1.5c1.7.47 3.93 1.18 6.7 2.15 2.73 1 4.38 1.68 4.95 2.05.53.37 2.22 1.43 5.05 3.2 2.8 1.73 4.05 4.75 3.75 9.05-.37 4.33-1.75 9.27-4.15 14.8-2.43 5.5-6.58 10.38-12.45 14.65q-1.395 1.05-3 1.95c-4.7 2.6-9.62 4.32-14.75 5.15-1.13.17-2.28.3-3.45.4-4.4.33-8.93.03-13.6-.9-11-2.23-20.43-6.55-28.3-12.95-.87-.7-1.7-1.42-2.5-2.15-.23-.23-.4-.45-.5-.65-.2-.4-.17-.82.1-1.25 1.43-2.67 3.85-4.75 7.25-6.25 9.23-4 18.95-6.65 29.15-7.95 9.13-1.13 16.82.28 23.05 4.25q.345.195.75.45l1.85 1.8-1.85.75c-1 .4-1.97.72-2.9.95-7.3 1.77-14.72 2.85-22.25 3.25-3.67.17-7.33.17-11 0 .03.03.08.07.15.1l1.1.65c.15.09.3.18.45.25.27.13.55.25.85.35l3.6 1.15h.15c.07 0 .13.02.2.05h.15c.4.03.82.07 1.25.1 1.8.13 3.6.2 5.4.2h1.95a67.4 67.4 0 0 0 17.6-2.95c1.6-.53 3.22-1.1 4.85-1.7.1-.07.22-.13.35-.2.93-.27 1.67-.8 2.2-1.6.13-.13.22-.28.25-.45q.6-1.395-.3-2.7c-.6-.93-1.33-1.72-2.2-2.35q-7.8-6.795-20.1-6.75c-1.03-.03-2.12 0-3.25.1-16.73.83-31.17 6.02-43.3 15.55-1.03.77-1.57 1.58-1.6 2.45-.03.57.18 1.18.65 1.85.57.83 1.18 1.63 1.85 2.4.77.97 1.58 1.9 2.45 2.8l.1.1q.495.555 1.05 1.05.045.105.15.15c-.1.2-.17.45-.2.75-.47 4.13-1.77 8.25-3.9 12.35-1.93 3.7-4.47 7.23-7.6 10.6-4.57 4.93-9.77 8.95-15.6 12.05-1.8.97-3.67 1.83-5.6 2.6-1.17.5-1.93.85-2.3 1.05-.2.1-.38.22-.55.35-.5.33-.9.7-1.2 1.1q-.105.045-.15.15c.1.1.23.2.4.3-1.4 2.23-2.82 4.45-4.25 6.65-2.17 3.3-4.17 6.68-6 10.15-1.77 3.33-2.85 6.8-3.25 10.4-.1 1-.12 2.02-.05 3.05.03.9.15 1.82.35 2.75.2.83.48 1.67.85 2.5.53 1.2 1.27 2.32 2.2 3.35 1.53 1.6 3.25 2.73 5.15 3.4 2.33.9 4.78 1.33 7.35 1.3 1.4 0 2.78-.12 4.15-.35.43-.13.87-.3 1.3-.5.93-.23 1.83-.55 2.7-.95.77-.23 1.52-.55 2.25-.95q1.155-.555 2.25-1.2.555-.345 1.05-.75c1.07-.9 2.1-1.83 3.1-2.8 1.17-1.17 2.32-2.35 3.45-3.55.43.57.87 1.15 1.3 1.75 1.53 1.9 3.17 3.73 4.9 5.5l1.7 1.7c.6.57 1.2 1.13 1.8 1.7.6.53 1.2 1.07 1.8 1.6l1.9 1.6c.63.47 1.27.95 1.9 1.45 1.67 1.2 3.35 2.37 5.05 3.5 1.67 1.13 3.35 2.25 5.05 3.35l.85 8.85c-1.07.67-2.13 1.35-3.2 2.05-1.87 1.3-3.75 2.58-5.65 3.85-.97.67-1.95 1.3-2.95 1.9-.8.53-1.63 1-2.5 1.4-1.6.6-3.12 1.23-4.55 1.9-.03 0-.07.02-.1.05-1.13-.13-2.27-.32-3.4-.55-7.33-1.53-14.35-4-21.05-7.4q-10.845-5.55-17.85-16.35c-1.53-2.37-2.82-4.55-3.85-6.55-.3-.7-.58-1.4-.85-2.1-3-7.43-2.95-14.92.15-22.45 2.7-6.6 6.12-12.87 10.25-18.8.23-.37.5-.73.8-1.1.97-1.37 2.02-2.78 3.15-4.25 3.2-4.07 5.78-8.55 7.75-13.45 2.1-5.07 3.32-10.07 3.65-15 .23-3.03.5-7.33.8-12.9.33-4.8.82-9.07 1.45-12.8l2.85-6.75zm88.7 55.65c-.43 1.4-1.12 2.67-2.05 3.8l-.7.7c-1.1 1-2.63 2-4.6 3-1.13.57-2.57 1.03-4.3 1.4-1.43.33-2.68.52-3.75.55h-.75q-1.005 0-1.8-.15c-2.2-.4-3.62-1.52-4.25-3.35-.07-.17-.12-.58-.15-1.25-.07-.67-.07-1.13 0-1.4 1.13.13 2.42.08 3.85-.15.13-.03.27-.05.4-.05.03-.03.07-.05.1-.05-.03.03-.05.08-.05.15-.03.03-.05.07-.05.1-.1.3-.13.73-.1 1.3.1.57.28.98.55 1.25.2.23.47.42.8.55.07.03.15.07.25.1.53.07 1 .03 1.4-.1.17-.07.33-.15.5-.25.47-.3.87-.82 1.2-1.55.23-.63.35-1.23.35-1.8 0-.37-.05-.68-.15-.95 3.6-1.27 7.22-2.85 10.85-4.75.07-.03.13-.05.2-.05.27.13.52.3.75.5.27.17.5.37.7.6.27.23.5.55.7.95.13.3.17.6.1.9m52.3 5.05c.53.03 1.07.07 1.6.1.87.23 1.7.53 2.5.9.7.37 1.3.85 1.8 1.45.5.67.92 1.42 1.25 2.25.17.43.28.88.35 1.35.2 1.6.38 3.22.55 4.85.07.8.1 1.6.1 2.4s-.03 1.6-.1 2.4c-.03.8-.1 1.62-.2 2.45-.13 1.01-.48 3.04-1.05 6.1s-2.31 6.89-5.2 11.5c-2.86 4.64-5.46 8.23-7.8 10.75-2.33 2.52-4.03 4.29-5.1 5.3-.13-.67-.27-1.33-.4-2q-.195-1.05-.45-2.1-.195-.705-.45-1.35c-.13-.3-.3-.58-.5-.85-.27-.33-.55-.63-.85-.9-.6-.43-1.2-.52-1.8-.25-.47.3-.9.65-1.3 1.05-.53.5-1 1.05-1.4 1.65-.57.83-1.1 1.68-1.6 2.55l-.8 1.5c-.03-.13-.07-.27-.1-.4-.1-.37-.18-.73-.25-1.1-.13-.6-.27-1.18-.4-1.75v-.05c-.3-.57-.63-1.1-1-1.6-.17-.23-.35-.43-.55-.6-.27-.13-.53-.25-.8-.35h-.75c-.53.2-1.05.43-1.55.7-.9.6-1.68 1.42-2.35 2.45q-.795 1.245-1.5 2.55c-.7 1.3-1.33 2.65-1.9 4.05-.53 1.33-1 2.72-1.4 4.15-.43 1.47-.82 2.95-1.15 4.45-.6.17-1.2.33-1.8.5-1.4.3-2.78.62-4.15.95-1.4.23-2.8.47-4.2.7 0-.03.02-.07.05-.1l.05-.05c-.07 0-.13.02-.2.05-.5.1-1.03.17-1.6.2-2.03.27-4 .42-5.9.45h-4.25c-1.23-.07-2.47-.13-3.7-.2-1.27-.13-2.53-.27-3.8-.4-1.73-.33-3.45-.6-5.15-.8-.13-.03-.27-.05-.4-.05-1.1-.2-2.18-.4-3.25-.6-1.33-.27-2.67-.52-4-.75-.6-.13-1.18-.25-1.75-.35-1.63-.37-3.25-.73-4.85-1.1-1.37-.4-2.72-.78-4.05-1.15-1.3-.37-2.58-.78-3.85-1.25-1.07-.3-2.1-.65-3.1-1.05-.93-.43-1.87-.87-2.8-1.3-.93-.5-1.85-1.02-2.75-1.55-1.03-.5-2.03-1.02-3-1.55q-2.505-1.455-4.95-2.85c-1.1-.67-2.27-1.43-3.5-2.3-1.43-.93-2.82-1.9-4.15-2.9-1.23-.97-2.42-1.97-3.55-3-1.2-1.13-2.37-2.28-3.5-3.45-1.3-1.33-2.57-2.67-3.8-4l-2.1-2.45c.63-1.17 1.27-2.35 1.9-3.55.37-.67.72-1.33 1.05-2 .63-1.43 1.25-2.88 1.85-4.35.27-.7.52-1.42.75-2.15.27-.73.52-1.47.75-2.2.2-.77.38-1.53.55-2.3.33-1.57.65-3.12.95-4.65.43-2.3.68-4.63.75-7 .07-1.53.08-3.07.05-4.6-.07-1.57-.18-3.12-.35-4.65-.1-1-.27-1.97-.5-2.9-.07-.23-.18-.45-.35-.65-.13 0-.2.02-.2.05-.13.57-.23 1.15-.3 1.75-.1.8-.22 1.6-.35 2.4-.23 1.63-.48 3.27-.75 4.9-.13.77-.28 1.53-.45 2.3-.13.73-.28 1.47-.45 2.2-.33 1.37-.68 2.75-1.05 4.15-.3 1.23-.63 2.47-1 3.7q-.345 1.155-.75 2.25-.705 2.205-1.5 4.35c-1 2.7-2.18 5.3-3.55 7.8-.93 1.63-2 3.23-3.2 4.8a46 46 0 0 1-2.3 2.7c-.73.83-1.52 1.62-2.35 2.35-.77.7-1.58 1.33-2.45 1.9q-1.395.945-3 1.65-1.5.75-3.15 1.2c-1.13.3-2.27.57-3.4.8-1.13-.07-2.25-.12-3.35-.15-.37-.07-.7-.17-1-.3-1-.27-1.95-.65-2.85-1.15a4.9 4.9 0 0 1-1.5-.95c-1.9-1.77-2.8-3.93-2.7-6.5.07-2.07.5-4.12 1.3-6.15.63-1.7 1.37-3.35 2.2-4.95 2.63-5 5.48-9.88 8.55-14.65.77-1.23 1.55-2.43 2.35-3.6.87-.3 1.83-.67 2.9-1.1h.05c.2-.07.43-.12.7-.15 4.77-2 9.22-4.62 13.35-7.85 4.53-3.6 8.43-7.73 11.7-12.4 2.9-4.27 4.72-8.3 5.45-12.1.37-1.53.48-2.92.35-4.15 3.77 2.9 8.12 5.37 13.05 7.4 5.77 2.4 11.93 3.78 18.5 4.15 1.37.03 2.73.05 4.1.05h.4l3-.05c.1-.03.22-.05.35-.05.63-.03 1.27-.08 1.9-.15.23 2.43.47 4.93.7 7.5.03.37.07.73.1 1.1.13 1.4.27 2.8.4 4.2-.13.07-.23.13-.3.2-.23.13-.47.28-.7.45-1.97 1.43-3.27 2.97-3.9 4.6-.03.03-.05.07-.05.1-.2.53-.32 1.4-.35 2.6v1c.57 2.63 1.8 4.43 3.7 5.4.67.33 1.43.57 2.3.7q2.205.405 4.35.3c1.27-.1 2.52-.32 3.75-.65q2.85-.705 5.4-2.1c1.23-.13 2.48-.27 3.75-.4q1.695-.15 3.45-.3l2.9-.3c4.27-.47 8.48-.87 12.65-1.2 3.8-.43 7.62-.73 11.45-.9 2.43-.17 4.87-.33 7.3-.5.77-.07 1.53-.12 2.3-.15l4.4-.3c3.07-.23 6.05-.25 8.95-.05m-29.45 53.6c.03-.1.07-.2.1-.3.9-2.1 2.18-3.97 3.85-5.6.33-.27.77-.42 1.3-.45.13.1.25.23.35.4.53.9.85 1.97.95 3.2.1.97.25 1.9.45 2.8v.25c.03.17.1.35.2.55.17.37.33.63.5.8l.85.1c.27-.3.48-.62.65-.95.3-.47.55-.95.75-1.45.53-1.17 1.1-2.32 1.7-3.45.4-.8.85-1.57 1.35-2.3.37-.6.88-.9 1.55-.9.47.33.73.77.8 1.3.17 2 .35 4 .55 6l-5.05 3.3c-.9.37-1.77.77-2.6 1.2-.47.27-.93.52-1.4.75-.37.17-.73.33-1.1.5-.37.1-.72.22-1.05.35-.63.37-1.28.7-1.95 1-1.93.93-3.93 1.7-6 2.3.9-3.2 1.98-6.33 3.25-9.4m-70.05 105.95c-.2.13-.38.27-.55.4-.17.1-.33.22-.5.35-.17.07-.33.1-.5.1q-.195.15-.45.15c-2.53-4.23-3.95-8.92-4.25-14.05-.23-3.5-.2-7.03.1-10.6.2-2.47.53-4.85 1-7.15.13-.7.28-1.38.45-2.05.13-.5.27-1 .4-1.5 1.1-4.13 2.55-8.12 4.35-11.95 1.33-2.8 2.83-5.48 4.5-8.05.77-1.2 1.58-2.38 2.45-3.55.03-.03.07-.08.1-.15l2.45.45c-.43.97-.85 1.93-1.25 2.9-.6 1.37-1.17 2.73-1.7 4.1-.13.33-.25.67-.35 1a77 77 0 0 0-2.75 8.2c-.7 2.47-1.3 4.93-1.8 7.4-.23 1.1-.45 2.2-.65 3.3-.3 1.67-.55 3.35-.75 5.05-.67 5.1-.58 10.17.25 15.2.2-.4.35-.82.45-1.25q.45-1.995.3-4.05c-.13-2.43-.05-4.87.25-7.3.3-2.53.67-5.08 1.1-7.65l.6-3.3c.4-2.17.87-4.33 1.4-6.5q.945-3.945 2.1-7.8c.57-1.9 1.18-3.78 1.85-5.65l1.3-3.6 1.8.35c-.03.13-.07.28-.1.45-.2 1.3-.37 2.62-.5 3.95-.53 4.23-.82 8.5-.85 12.8v1.55c0 1.7.07 3.38.2 5.05.03 1.03.1 2.07.2 3.1q.6 6.255 1.95 12.3c-.9 2.37-2.03 4.63-3.4 6.8-2.57 4.2-5.63 7.93-9.2 11.2m-30.75-59.6c-.03-.77.08-1.53.35-2.3.47-1.33 1.1-2.55 1.9-3.65q1.35-1.845 2.7-3.6c.93-1.17 1.88-2.3 2.85-3.4v-.05q2.355-2.7 5.1-4.65c.3-.23.68-.55 1.15-.95.37-.33.75-.65 1.15-.95.77-.63 1.55-1.22 2.35-1.75.87-.57 1.77-1.1 2.7-1.6-.43.97-.73 1.95-.9 2.95-.37 2-.32 4.07.15 6.2.27 1.17.65 2.37 1.15 3.6 2.3 5.63 6.37 8.87 12.2 9.7.13.23.3.47.5.7.23.3.45.63.65 1-.6 1-1.18 2-1.75 3q-.555-1.305-2.1-1.5c-4.6-.23-9.27-.5-14-.8-5.03-.17-10.05-.27-15.05-.3h-.5q-.6-.75-.6-1.65m50.55-17.05c-.13-.13-.27-.25-.4-.35-1.23-.7-2.5-1.17-3.8-1.4-2.7-.63-5.08.35-7.15 2.95-.53-.43-1.05-.87-1.55-1.3-.6-.53-1.18-1.07-1.75-1.6-1.6-1.4-3.22-2.75-4.85-4.05-.5-.4-.98-.8-1.45-1.2l-1.55-13.6c.53.27 1.07.53 1.6.8 2.13.93 4.3 1.83 6.5 2.7 3.23 1.2 6.43 2.43 9.6 3.7.1.03.2.07.3.1q3.255 1.245 6.6 2.1c1.37.37 2.75.68 4.15.95.1 0 .15.03.15.1.13.37.22.75.25 1.15.03.73.05 1.48.05 2.25-2.63 1.73-4.87 3.97-6.7 6.7m-20.45-2.4q1.155 1.05 2.4 2.1c1.1.9 2.22 1.77 3.35 2.6l1.15.8c-.77.73-1.48 1.47-2.15 2.2l-.35.35c-.37.4-.5 1.12-.4 2.15.07.67.23 1.48.5 2.45.5 1.47.85 2.6 1.05 3.4.13.53.2.92.2 1.15l-.55.05c-.2-.13-.4-.25-.6-.35q-1.95-1.095-3.9-2.25c-.6-.37-1.2-.75-1.8-1.15-1.7-1.17-3.27-2.48-4.7-3.95-.33-1.57-.57-3.12-.7-4.65-.03-.3-.07-.58-.1-.85-.1-1.8 0-3.57.3-5.3.2-1.27.52-2.52.95-3.75q.255.195.45.45c.63.53 1.25 1.1 1.85 1.7l.6.6c.8.77 1.62 1.52 2.45 2.25m7.2 13.1c-.37-1.13-.63-2.28-.8-3.45.1-.1.22-.2.35-.3 2.8-2.5 5.85-4.67 9.15-6.5 3.1 2.1 5.87 4.52 8.3 7.25q-.195.705-.45 1.35c-.47 1.13-1.13 2.17-2 3.1-.97 1.03-1.98 1.88-3.05 2.55-.7.43-1.43.77-2.2 1-1.03.33-2.1.52-3.2.55-1.3 0-2.67-.2-4.1-.6l-.45-1.1c-.63-1.27-1.15-2.55-1.55-3.85m19.75-.1c.23-.7.4-1.42.5-2.15q.045-.3 0-.6l-5.25-6.05c1.63-1.73 3.27-3.48 4.9-5.25l.1-.1c.4-.47.78-.93 1.15-1.4.97 1.07 1.83 2.18 2.6 3.35 1.6 2.53 2.75 5.3 3.45 8.3-.93 1.67-2.13 3.13-3.6 4.4-.1.07-.2.13-.3.2-1.1.93-2.33 1.58-3.7 1.95-.43.1-.87.18-1.3.25.6-.93 1.08-1.9 1.45-2.9m15.4 27.75c-.1.33-.27.62-.5.85-.3-.97-.62-1.93-.95-2.9q-2.1-5.895-5.25-11.1c.67.73 1.33 1.5 2 2.3.67.77 1.28 1.57 1.85 2.4q.405.555.75 1.2c.23.43.45.88.65 1.35.6 1.4 1.1 2.83 1.5 4.3.13.5.12 1.03-.05 1.6m-5.65-18.3c-.6.17-1.13.45-1.6.85-.33.3-.55.68-.65 1.15-.07.43-.03.88.1 1.35a61 61 0 0 0-4-5.55c0-.7.02-1.4.05-2.1 0-.13.02-.28.05-.45 2.7-1.23 4.67-3.25 5.9-6.05.43-1 .57-1.98.4-2.95-.83-4.67-2.9-8.73-6.2-12.2v-1.7c1.07.43 2.12.9 3.15 1.4 1.07.57 2.15 1.15 3.25 1.75.63.37 1.27.73 1.9 1.1 1.13.73 2.25 1.5 3.35 2.3 1.57 1.13 2.98 2.27 4.25 3.4 1.43 1.27 2.77 2.7 4 4.3 2.4 3.07 3.93 6.52 4.6 10.35l-17.4 2.6c-.4.1-.78.25-1.15.45m6.15-111.9c-1.77.87-4.5 2.03-8.2 3.5-.77.3-1.45.55-2.05.75-.93.33-1.7.58-2.3.75-.3.07-.65.13-1.05.2h-.05c-.73.13-1.65.25-2.75.35l-.55.1c.37-.7 1-1.38 1.9-2.05.3-.27.63-.5 1-.7.07-.07.13-.12.2-.15q1.455-.945 3.3-1.65c.47-.17.97-.33 1.5-.5 2.43-.8 4.6-1.15 6.5-1.05 1 .03 1.95.15 2.85.35-.1.03-.2.07-.3.1m-19.25 170.25c-.6-1.33-1.17-2.68-1.7-4.05-.01-.03-.03-.06-.05-.1-.34-.89-.68-1.79-1-2.7-1-2.6-1.88-5.25-2.65-7.95a99 99 0 0 1-2.55-11.05c-.33-1.83-.6-3.67-.8-5.5-.3-2.6-.48-5.22-.55-7.85-.03-1.53-.05-3.07-.05-4.6a131 131 0 0 1 1-15q.75-.105 1.5-.15a8.3 8.3 0 0 0 4.15-1.55l3.45-2.2c.77.57 1.52 1.18 2.25 1.85a25.7 25.7 0 0 1 3.8 4.45c.33.5.67 1.03 1 1.6 3.07 5.33 5.63 10.87 7.7 16.6.3.77.58 1.55.85 2.35.07.23.13.47.2.7.53 1.6.73 3.23.6 4.9-.37 4.7-.92 9.33-1.65 13.9-.53 3.27-1.27 6.5-2.2 9.7-.83 2.83-1.97 5.52-3.4 8.05-1.03 1.87-2.38 3.1-4.05 3.7-.77.3-1.6.45-2.5.45-.6-.77-1.15-1.55-1.65-2.35-.63-1.03-1.2-2.1-1.7-3.2m-5.1 6.9-.35-.1a5.9 5.9 0 0 1-1.35-1.6l-.45-.9c-.07-.17-.1-.43-.1-.8l-.15-3.55c.03-.77.32-1.88.85-3.35.27-.8.57-1.37.9-1.7.03.07.07.15.1.25.57 1.5 1.22 2.97 1.95 4.4v.35c.13 2.87-.25 5.12-1.15 6.75z"/><path d="M161.84 253.27c-.07-.4-.1-.8-.1-1.2.17-.13.3-.28.4-.45q.6-.855 1.05-1.8c.2-.4.38-.8.55-1.2.33-.77.68-1.53 1.05-2.3.5-1.17.97-2.33 1.4-3.5.43-1.03.8-2.08 1.1-3.15.53-1.8.82-3.63.85-5.5 0-1.27-.02-2.52-.05-3.75-.03-.63-.1-1.27-.2-1.9-.23-1.27-.52-2.52-.85-3.75s-.7-2.45-1.1-3.65c-.6-1.8-1.47-3.47-2.6-5-.77-1-1.58-1.95-2.45-2.85a9 9 0 0 0-2.5-1.85c-.67-.3-1.38-.48-2.15-.55 2.13 3.23 3.97 6.58 5.5 10.05.4.9.78 1.83 1.15 2.8.57 1.5.93 3.05 1.1 4.65.1 1 .18 2 .25 3 .03.47.03.95 0 1.45-.1 1.1-.23 2.22-.4 3.35-.37 2.13-1 4.17-1.9 6.1a305 305 0 0 1-1.55 3.25c-.73 1.43-1.48 2.87-2.25 4.3q-3.6 6.6-7.05 13.35c-.23.47-.44.95-.64 1.44 1.78-.5 3.54-1.04 5.28-1.65.42-.84 3.16-4.88 3.16-4.88.21 1.12.44 2.26.68 3.42 1.28-.52 2.56-1.08 3.82-1.67-.27-1.32-.57-2.6-.9-3.8-.27-.9-.48-1.82-.65-2.75Zm-83.8-7.85a57 57 0 0 1-2.4-6.85q-.105-.3-.15-.6c-.1-.33-.18-.67-.25-1-.13-.47-.25-.92-.35-1.35-.17-.6-.25-1.2-.25-1.8.03-.9.15-1.8.35-2.7.13-.73.28-1.47.45-2.2.07-.37.13-.72.2-1.05.07-.37.13-.72.2-1.05.17-.7.25-1.35.25-1.95 0-1-.23-1.95-.7-2.85-.17-.3-.32-.58-.45-.85-.2.23-.35.5-.45.8a49 49 0 0 0-1.25 3.9c-.23.83-.47 1.68-.7 2.55l-1.2 4.9c-.23.97-.47 1.93-.7 2.9-.47 1.9-.9 3.8-1.3 5.7-.31 1.39-.64 2.76-.97 4.12 1.01.87 2.03 1.72 3.05 2.54l.21-1.11.9-4.4c.17.4.35.82.55 1.25.3.73.62 1.47.95 2.2.23.57.47 1.15.7 1.75.5 1.27 1.03 2.47 1.6 3.6.09.19.19.37.28.56 2.22 1.53 4.47 2.96 6.77 4.26-1.08-2.21-2.17-4.44-3.25-6.62a91 91 0 0 1-2.1-4.65Zm81.75-113.75c-.97-.03-2 .37-3.1 1.2-1.23.9-2 1.67-2.3 2.3-.4.6-.53.97-.4 1.1.1.17.33.32.7.45.12.03.24.05.35.05h.12c.53 0 1.21-.32 2.08-.99 1.07-.87 1.77-1.43 2.1-1.7q.495-.45.9-1.05.345-.6 0-1.35-.195-.045-.45 0Zm-42.05-40.55c-2.2-1.63-4.63-2.63-7.3-3-.33-.07-.67-.1-1-.1-2.03-.2-4.22-.05-6.55.45q-4.95.945-8.1 3.45c-.47.33-.9.7-1.3 1.1q-3.705-1.155-6.6-3.3c-.23-.17-.42-.22-.55-.15-.23.13-.23.45 0 .95q.9 1.395 2.55 2.55c.97.67 2.05 1.25 3.25 1.75-.07.07-.13.15-.2.25-.43.8-.68 1.63-.75 2.5-.07.8-.03 1.6.1 2.4.6 2.03 1.48 3.6 2.65 4.7 1 .97 2.52 1.78 4.55 2.45 2.93.97 7.03.9 12.3-.2q1.245-.195 2.55-.6c1.5-.47 2.98-1.08 4.45-1.85 1.23-.63 2.28-1.52 3.15-2.65.53-.7.85-1.52.95-2.45 0-.13.02-.32.05-.55v-.55c0-1.33-.37-2.63-1.1-3.9-.8-1.17-1.83-2.25-3.1-3.25m-23.65 9.45c-.4-.93-.47-1.9-.2-2.9.17-.67.55-1.33 1.15-2 .03-.03.07-.05.1-.05 1.03.23 2.23.42 3.6.55.07 0 .15.02.25.05-.23.27-.42.63-.55 1.1-.4 1.47-.22 2.63.55 3.5.4.47.92.72 1.55.75s1.18-.17 1.65-.6q.705-.495 1.05-1.5c.2-.67.25-1.33.15-2-.07-.37-.17-.68-.3-.95 3.1.13 6.1.07 9-.2 2.47-.2 4.25-.47 5.35-.8.17-.03.3-.07.4-.1.57.6.9 1.17 1 1.7.03.1.05.18.05.25-.03.43-.12.83-.25 1.2-.1.27-.23.55-.4.85-.23.33-.48.7-.75 1.1-.57.87-1.3 1.5-2.2 1.9-1.47.7-2.95 1.2-4.45 1.5-.07.03-.15.07-.25.1-1.9.4-4.27.63-7.1.7-1.83.03-3.62-.3-5.35-1-1.93-.7-3.27-1.63-4-2.8-.03-.13-.05-.25-.05-.35m12.35-6c-3.63 0-6.7-.22-9.2-.65 1.5-1 3.42-1.72 5.75-2.15 2.7-.53 5.18-.58 7.45-.15 2.2.4 4.15 1.23 5.85 2.5-2.6.33-5.88.48-9.85.45m43.6 39.1h-.15c-.23-.03-.6.05-1.1.25-.57.17-1.25.58-2.05 1.25-.8.63-1.38 1.37-1.75 2.2-.37.8-.42 1.37-.15 1.7.17.17.37.25.6.25.2 0 .43-.07.7-.2.53-.27 1.32-.85 2.35-1.75.67-.63 1.17-1.12 1.5-1.45.17-.2.28-.35.35-.45.2-.37.28-.72.25-1.05a.94.94 0 0 0-.25-.55.5.5 0 0 0-.3-.2m4.9-8.6c.1-.2.17-.37.2-.5.03-.27-.02-.5-.15-.7-.2-.33-.47-.52-.8-.55h-.2c-.13-.03-.25-.02-.35.05-.63.03-1.35.35-2.15.95-.83.6-1.7 1.33-2.6 2.2l-.1.1c-.2.2-.33.42-.4.65q-.045.045 0 .15c-.07.2 0 .42.2.65q.255.345.75.45h.25c.37 0 .82-.12 1.35-.35.8-.37 1.45-.73 1.95-1.1.47-.4.88-.77 1.25-1.1.4-.37.67-.67.8-.9m31.95-23.25-4.85.35h-.1l-10.05.85c-.4.03-.77.08-1.1.15-2.47.37-4.02.63-4.65.8-.67.13-2.52.55-5.55 1.25-3.03.67-4.97 1.95-5.8 3.85-.33 1.07-.32 2.32.05 3.75-.03 0-.03.03 0 .1.03.1.15.5.35 1.2.17.67.85 1.88 2.05 3.65 1.17 1.73 2.72 3.4 4.65 5 1.93 1.57 3.97 3.03 6.1 4.4 2.17 1.33 4.68 2.52 7.55 3.55s4.97 1.55 6.3 1.55h.1l2.65-.2.25-.05q.435-.075.75-.15c1.67-.47 3.8-1.57 6.4-3.3 2.47-1.6 4.87-3.82 7.2-6.65 2.33-2.77 4.07-5.42 5.2-7.95.63-1.47 1.03-3.43 1.2-5.9.13-2.33.07-3.73-.2-4.2-.47-.73-1.7-1.33-3.7-1.8-.23-.05-.5-.1-.8-.15l-5.05-.35h-.1l-7.65.15c-.2 0-.4.02-.6.05-.2 0-.4.02-.6.05m3.4 2.35c3.4-.13 6.35-.12 8.85.05h.1c1 .07 1.98.25 2.95.55.37.07.5.73.4 2q-.105.645-.15 1.2h-.1c-3.23-.27-8.1-.25-14.6.05h-.1c-5.15.63-10.3 1.27-15.45 1.9l-1 .2c-.32.08-.63.17-.95.25q-7.545 1.845-9.45 3.15v-.05c-1.4-1.53-2-2.72-1.8-3.55.03-.2.12-.48.25-.85.67-.43 1.5-.78 2.5-1.05 1.7-.57 3.7-1.1 6-1.6 2.3-.53 4.3-.9 6-1.1.15-.02.3-.03.45-.05l6.4-.6h.1c.2 0 .38-.02.55-.05l8.95-.45zm-61.4 144.45c.63.13 1.15-.25 1.55-1.15.07-.13.13-.3.2-.5.77-2.43 1.62-6.15 2.55-11.15q.255-1.305-.45-1.35l-1.7 7.85q-.3 1.455-.6 2.55c-.27 1-.55 1.78-.85 2.35q-.255.6-.6.45c-1.07-2.73-2.02-5.5-2.85-8.3-1.47-4.97-2.57-10.03-3.3-15.2q-1.35-9.75-.9-19.5.045-1.5.15-3 .045-.9.15-1.8c-.2.47-.38.97-.55 1.5-.27.8-.5 1.65-.7 2.55-.77 3.67-.9 8.1-.4 13.3.67 7.6 2 14.7 4 21.3.97 3.1 2.07 6.08 3.3 8.95.3.67.63 1.05 1 1.15"/></svg>