<svg xmlns="http://www.w3.org/2000/svg" id="a" viewBox="0 0 1096.14 532.99"><defs><style>.e{fill:#a66c70}</style></defs><path d="m370.09 116.31-24.7 12.19c-1.56-8.47-3.37-19.41-8.31-26.6-7.35-10.7-13.36-2.89-14.2 6.72-3 34.35 38.51 43.17 55.06 69.58 15.98 25.5 29.7 100.77-10.72 110.37-30.72 7.3-44.45-32.56-50.52-55.34l25.22-18.72c1.16 7.41 6 28.33 15.39 28.66 10.87.38 8.72-17.71 5.98-24.34-4.55-11.01-23.87-20.34-33.43-27.74-35.13-27.18-50.33-82.06-42.6-124.45 3.86-21.18 14.52-41.67 39.48-31.14 19.84 8.37 31.1 29.8 36.83 49.16 1.2 4.07 7.8 29.64 6.54 31.65Zm63.92 149.48-22.43 5.27-41.56-241.24 40.14-2.9c27.33 1.38 38.15 43.32 42.21 65.13 4.89 26.27 10.06 78.55-5.92 101.06-2.04 2.87-5.66 6.35-8.88 7.86-3.92 1.83-8.57 1.55-12.11 3.5l8.54 61.32Zm-7.62-111.5c.6-.57 1.49-2.27 1.81-3.1 4.38-11.21-.1-46.54-5.72-57.52-3.16-6.17-7.16-7.21-13.78-6.13l9.82 69.25c2.43-.73 5.99-.7 7.88-2.51Zm-297.58 27.9c-4.07-10.89-16.8-36.53-30.25-36.29-12.81.22-11 18.57-8.01 26.93 11.6 32.33 63.9 35.28 90.95 55.06 36.14 26.42 67.7 110.22 17.51 137.93-35.7 19.71-64.9-4.18-84.31-33.05-1.26-1.88-7.57-11.73-7.76-13.07-.1-.66-.08-1.15.45-1.62l33.91-29.63c1.39-.12 4.36 7.39 5.29 8.98 5.41 9.31 15.8 24.64 28.4 18.39 11.73-5.82 6.36-23.45-.61-31.17-9.06-10.03-43.55-16.93-57.56-22.08C57.31 240.71 6.7 161.39 18.25 97.9c5.47-30.05 24.93-41.85 54.69-36.16 46.36 8.87 74.6 58.76 90.98 98.82zm10.96-124.65 47.29-6.9 72.46 203.11c2.42 6.08 8.84 19.91 16.58 19.49 11.19-.61 7.09-20.31 4.89-27.11L215.96 47.41l38.37-4.89 55.4 192.75c5.68 23.97 12.49 65.56-12.82 80.69-38.04 22.74-65.61-34.3-77.2-61.65zm460.37 78.34-26.88 5.33c-.46-2.28 1.97-49.85-2.95-57.54-4.06-6.34-9.35-.57-11.2 4.14-5.96 15.11-6.04 44.05-6.31 60.64-.27 16.73-.1 35.79 2.11 52.42.42 3.16 1.4 10.24 4.5 11.93 14.82 8.08 15.09-21.87 16.31-28.88l21.39 11.92c-1.61 16.11-4.8 34.52-13.77 48.62-10.84 17.05-28.98 17.03-39.89.07-18.47-28.7-17.81-101.13-16.23-134.75 1.17-24.98 4.27-66.39 22.1-86 10.15-11.15 24.29-11.53 34.69-.31 22.51 24.29 16.5 111.43 16.12 112.4ZM490.49 85.81l2.31 40.4 23.67-1.16 1.73 54.25-21.69 1.69 2.14 32.28 27.04-1.08 1.15 42.13c-7 .32-14.08.53-21.06 1.15-8.94.8-14.42 1.19-26.88 2.63L457.63 24.99l61.46-2.13 1.73 61.82-30.34 1.11ZM996.5 190.84c4.07-8.94 9.39-17.63 11.62-27.33 4.51-19.58-10.09-21.3-22.86-10.74-14.29 11.83-19.27 28.83-12.12 46.13 12.64 30.56 25.73 49.98 21.21 87.04-5.17 42.37-55.64 103.26-104.22 75.04-31.14-18.09-27.15-64.09-13.65-95.82 13.6 1.94 27.2 3.89 40.95 5.9-4.51 10.07-15.74 31.65-4 40.07s25.68-7.77 27.02-19.07c1.9-16.02-15.93-42.3-20.42-59.09-12.95-48.42 17.01-106.15 51.06-139.38 23.1-22.54 60.34-48.13 91.72-24.76 33.04 24.6 9.54 81.03-6 109.9-1.61 3-8.44 14.64-8.44 14.64s-49.99-2.43-51.88-2.54ZM954.37 56.96 923.7 134.2l-47.2-10.28-15.6 46.7 33.97 10.05-24.47 62.12-1.05.49-30.43-10.66-12.58 36.53s37.08 14.55 37.37 15.56l-18.43 46.95-62.92-27.99 78.57-259.35 93.43 12.64ZM783.98 35.03l-34.05 200.82 62.6-197.38 1.1-.54c11.22 1.98 22.8 2.26 34.03 4.09.85.14 3.57.19 3.25 1.36l-96.98 248.43-33.11-11.17 26.82-249.05 36.33 3.43Zm-48.32-5.49-40.51 243.58-29.61-6.92 37.4-238.92zm-48.32-3.18-8.61 66.38-22.68-1.71-18.46 169.65-23.97-3.57L627.15 88.7l-22.1-1.17 3.67-64.63z"/><path d="m364.88 104.03-25.43 12.55c-1.61-8.72-3.47-19.98-8.55-27.38-7.57-11.01-13.76-2.98-14.62 6.92-3.09 35.35 39.64 44.44 56.67 71.62 16.45 26.25 30.57 103.72-11.03 113.61-31.62 7.52-45.76-33.52-52-56.96l25.95-19.27c1.19 7.63 6.18 29.16 15.84 29.5 11.18.39 8.98-18.23 6.16-25.05-4.68-11.33-24.57-20.93-34.41-28.55-36.16-27.98-51.8-84.47-43.85-128.09 3.98-21.8 14.94-42.89 40.64-32.05 20.42 8.62 32.01 30.68 37.91 50.6 1.24 4.19 8.03 30.51 6.73 32.58Zm64.76 153.86-23.08 5.43-42.78-248.31 41.31-2.99c28.13 1.42 39.27 44.59 43.45 67.03 5.03 27.04 10.35 80.85-6.09 104.02-2.1 2.96-5.83 6.54-9.14 8.09-4.04 1.89-8.82 1.6-12.46 3.61l8.79 63.11Zm-7.84-114.77c.62-.59 1.53-2.34 1.86-3.19 4.51-11.53-.1-47.9-5.89-59.2-3.25-6.35-7.37-7.42-14.18-6.31l10.1 71.28c2.5-.76 6.17-.73 8.11-2.58m-306.3 28.72c-4.19-11.21-17.3-37.6-31.13-37.36-13.18.23-11.33 19.12-8.24 27.72 11.94 33.28 65.77 36.31 93.62 56.67 37.2 27.2 69.68 113.45 18.02 141.97-36.74 20.29-66.8-4.31-86.78-34.01-1.3-1.94-7.79-12.08-7.99-13.46-.1-.68-.08-1.18.46-1.67l34.9-30.49c1.43-.12 4.49 7.61 5.44 9.25 5.57 9.58 16.26 25.36 29.23 18.93 12.08-5.99 6.55-24.13-.63-32.08-9.32-10.32-44.83-17.43-59.25-22.73C41.91 232.07-10.18 150.44 1.7 85.08 7.33 54.15 27.36 42 57.99 47.87c47.72 9.13 76.79 60.49 93.64 101.71zm11.28-128.31 48.68-7.11 74.59 209.06c2.49 6.26 9.1 20.49 17.07 20.06 11.52-.62 7.3-20.9 5.03-27.9L205.2 33.11l39.5-5.03 57.02 198.4c5.85 24.67 12.85 67.48-13.19 83.05-39.15 23.41-67.53-35.3-79.46-63.46zm474.89 80.64-27.66 5.49c-.47-2.35 2.03-51.32-3.04-59.22-4.18-6.53-9.62-.58-11.53 4.26-6.13 15.55-6.22 45.34-6.49 62.42-.28 17.22-.11 36.83 2.17 53.96.43 3.25 1.44 10.54 4.63 12.28 15.25 8.31 15.53-22.51 16.78-29.73l22.02 12.27c-1.66 16.59-4.94 35.53-14.17 50.05-11.16 17.55-29.82 17.53-41.06.07-19.01-29.54-18.33-104.09-16.7-138.7 1.21-25.71 4.39-68.33 22.75-88.51 10.44-11.48 25.01-11.87 35.7-.32 23.17 25 16.99 114.7 16.6 115.7ZM486.74 72.63l2.38 41.59 24.36-1.19 1.78 55.84-22.32 1.74 2.21 33.22 27.84-1.11 1.19 43.37c-7.2.33-14.5.55-21.68 1.19-9.2.82-14.84 1.23-27.66 2.71l-21.9-239.94 63.26-2.19 1.78 63.63-31.23 1.15Zm523.93 108.11c4.19-9.21 9.66-18.15 11.96-28.13 4.64-20.16-10.39-21.93-23.53-11.05-14.71 12.18-19.84 29.67-12.47 47.48 13.01 31.46 26.48 51.45 21.83 89.59-5.32 43.61-57.27 106.29-107.27 77.24-32.05-18.62-27.95-65.97-14.05-98.62 14 2 28 4 42.15 6.08-4.64 10.36-16.2 32.58-4.12 41.24s26.44-8 27.82-19.63c1.96-16.49-16.4-43.53-21.02-60.82-13.33-49.84 17.51-109.26 52.56-143.46 23.78-23.2 62.1-49.54 94.4-25.48 34.01 25.32 9.82 83.4-6.17 113.12-1.66 3.08-8.69 15.07-8.69 15.07s-51.45-2.5-53.4-2.61ZM967.3 42.94l-31.57 79.5-48.58-10.58-16.06 48.07 34.97 10.35-25.18 63.94-1.08.5-31.32-10.97-12.95 37.6s38.17 14.98 38.47 16.01l-18.97 48.32-64.77-28.81 80.87-266.94zM790.89 20.37l-35.05 206.71 64.44-203.16 1.14-.56c11.55 2.04 23.47 2.32 35.02 4.21.88.14 3.68.2 3.35 1.4l-99.82 255.71-34.08-11.49 27.6-256.35zm-48.7-5.65-41.7 250.72-30.48-7.13 38.5-245.92zm-48.71-3.27-8.86 68.32-23.35-1.76-19 174.61-24.68-3.66 13.94-173.35-22.75-1.2 3.78-66.52z" style="fill:#ffca50"/><path d="M726.77 444.05c-17.5-23.24-89.7-52.6-156.98-53.71-22.67-.38-45.41.36-67.96 2.49 0 0-116.83 14.63-161.59 61.97-38.89 41.12 37.7 62.54 64.97 68.51 92.08 20.15 173.08 3.62 210.68-3.03 27.96-4.95 92.7-19.84 111.73-44.63a25.8 25.8 0 0 0 5.53-13.8v-1.38c-.79-5.61-3.15-12.13-6.37-16.41Zm-173.63 52.19-141.5-53.69 82.5-28.31 151 25z" style="fill:#a4b3bb"/><path d="M654.46 257.13c-1.3-16.95-10.95-26.07-43.02-33.9-32.07-7.82-47.19-6.26-58.66 4.43s-36.5 60.49-36.5 60.49l-20.42 44.02-72.66 24.29 2.35 11.47 45.49 17.79-26.45 57.04 8.08 2.09 26.19-56.07 19.85 7.76.63 33.17 6.78-1.3-.38-29.11 19.15 7.49 64.59-34.4-53.64 103.49 8.86 1.3 57.82-110.71 1.62 85.16 6.78-1.3-1.27-97.51 23.7-45.37s22.42-33.37 21.12-50.32Zm-52.44 91.07-81.31-24.32-13.68 4.57 19.67-42.12s17.64-7.22 51.89 1.83c27.64 7.3 41.98 24.25 41.98 24.25z"/><path d="M554.86 336.6c11.21.78 34.94 1.56 32.1 5.72-11.88 7.66-26.21 13.45-39.83 17.27-36.75 10.28-79.75 8.16-108.68-19.56-1.12-1.08-6.24-6.65-4.6-7.5 13.07-6.86 34.76-3.16 40.5-2.84-.8 3.68-2.92 16.57-2.92 16.57s9.95 3.2 11.57 3.58c29.36 6.85 48.92 2.14 63.52-1.75 3.91-1.04 8.34-2.87 8.34-2.87s.31-6.09 0-8.6Z" class="e"/><path d="M579.76 334.41c17.58 2.05 15.05 9.69 2.49 17.28-36.61 22.12-92.06 27.94-129.98 6.45-27.77-15.74-39.33-33.88 4.73-34.2 6.1-.04 12.06.75 18.12 1.06 1.52-7.68 1.78-10.02 3.25-18 .93-5.05 4.32-20.18 7.22-23.55 6.43-7.49 22.3-1.05 28.54 4.1 7.62 6.3 13.35 19.59 18.34 19.86 2.17.12 5.54-3.19 7.39-4.11 16.93-8.44 15.31 21.13 15.04 30.03 9.61.93 16.87.15 24.86 1.08m7.21 7.91c2.83-4.15-20.89-4.93-32.1-5.72.31 2.51 0 8.6 0 8.6s-4.43 1.83-8.34 2.87c-14.6 3.9-34.16 8.6-63.52 1.75a418 418 0 0 1-11.57-3.58s2.12-12.9 2.92-16.57c-5.74-.32-27.43-4.02-40.5 2.84-1.63.86 3.48 6.43 4.6 7.5 28.93 27.72 71.93 29.84 108.68 19.56 13.62-3.81 27.96-9.61 39.83-17.27Zm-36.38-.92-.39-9.9c-22.2 9.53-49.37 11.39-70.69 2.49L478 344.26c18.72 4.59 28.23 5.25 41.83 4.43 10.1-.6 18.08-1.67 30.76-7.3Zm-.62-12.61s-.21-18.97-2.97-20.93c-3.96-2.81-9.31 5.03-14.15 5.11-6.36.09-16.22-16.27-21.31-20.47-4.01-3.31-16.87-9.74-21.42-5.58-2.38 2.17-7.47 27.71-8.13 32.28-.17 1.21-.9 6.72-1.68 11.41 16.26 7.51 36.59 7.21 54.02 3.38 12.99-2.85 15.66-5.2 15.66-5.2Z"/><path d="m550.2 331.5.39 9.9c-12.68 5.63-20.67 6.7-30.76 7.3-13.6.81-23.11.16-41.83-4.43l1.51-10.27c21.32 8.9 48.5 7.04 70.69-2.49Z" style="fill:#6e474b"/><path d="M547 307.86c2.76 1.96 2.97 20.93 2.97 20.93s-2.67 2.34-15.66 5.2c-17.43 3.83-37.76 4.13-54.02-3.38.78-4.69 1.51-10.2 1.68-11.41.66-4.57 5.75-30.11 8.13-32.28 4.56-4.17 17.41 2.27 21.42 5.58 5.1 4.2 14.96 20.57 21.31 20.47 4.84-.07 10.19-7.92 14.15-5.11Zm-26.41 8.76c.65-.57 1.94-3.48 1.73-4.55s-1.07 0-1.07 0c-.91 2.17-1.78 4.19-4.51 4.03-5.08-.3-12.47-8.7-15.85-15.73-1.14-2.36-3.39-6.78-4-7.18s-.64.13-.64.13a38.2 38.2 0 0 0 3.25 8.99c2.73 5.69 13.82 20.66 21.1 14.31Z" class="e"/><path d="M522.33 312.07c.2 1.07-1.08 3.98-1.73 4.55-7.27 6.35-18.37-8.62-21.1-14.31a37.8 37.8 0 0 1-3.25-8.99s.03-.53.64-.13 2.87 4.81 4 7.18c3.39 7.04 10.78 15.44 15.85 15.73 2.73.16 3.6-1.85 4.51-4.03 0 0 .87-1.07 1.07 0Z"/></svg>