<svg xmlns="http://www.w3.org/2000/svg" id="a" viewBox="35.42 30.48 207.2 185.03"><defs><style>.o{fill:#b6c7a5}</style></defs><path id="b" d="M217.28 65.75c-17.9-15.59-40.92-23.48-69.05-23.67-28.06-.1-53.12 7.44-75.17 22.61-21.83 15.2-34.19 33.72-37.08 55.55-2.76 21.73 4.77 40.34 22.61 55.84 17.97 15.46 40.98 23.32 69.05 23.58 28.13.13 53.15-7.39 75.07-22.57 21.92-15.3 34.33-33.8 37.22-55.5 2.8-21.79-4.76-40.41-22.66-55.84Z" style="fill:#161b29"/><path id="c" d="M77.26 66.66c-20.73 14.14-32.45 31.28-35.15 51.4-2.67 20.19 4.48 37.45 21.46 51.79 16.97 14.37 38.75 21.62 65.33 21.75 26.62.23 50.29-6.73 71.02-20.88 20.8-14.14 32.55-31.28 35.25-51.4 2.67-20.19-4.48-37.45-21.46-51.79-16.97-14.34-38.77-21.59-65.38-21.75q-39.87-.285-71.07 20.88" style="fill:#5d6788"/><g id="d"><path d="m140.05 71.2.6 2.9c-.77-.77-1.58-1.47-2.45-2.1-3.17-2.4-6.55-3.9-10.15-4.5-2.17-.37-5.18-.42-9.05-.15-4.8.33-8.43.87-10.9 1.6-1.77.5-4.02 1.37-6.75 2.6-4.27 2-7.78 3.73-10.55 5.2-1.47.77-2.7 1.52-3.7 2.25.2-.37.32-.72.35-1.05q.105-.555-.15-1.05c-.2-.37-.45-.6-.75-.7-.77-.23-1.55.2-2.35 1.3-9.93 13.33-16.62 30.22-20.05 50.65q-1.095 6.75-1.2 11.4v.75c-.23 2.33-.38 4.7-.45 7.1-.13 3.63.25 6.42 1.15 8.35.63 1.43 1.9 3.1 3.8 5 3.33 3.33 7.27 6.67 11.8 10 3.43 2.53 7.73 5.42 12.9 8.65 11.33 7.07 21.38 12.43 30.15 16.1q17.145 7.2 32.7 8.1 7.65.45 13.5-.9c3.13-.73 6.85-2.12 11.15-4.15 4.7-2.3 8.67-4.57 11.9-6.8 4.67-3.23 8.83-6.95 12.5-11.15.1 2.07.27 4.35.5 6.85.13 1.57.53 2.63 1.2 3.2 1.2 1 2.83.78 4.9-.65 2.33-1.6 4.87-4.2 7.6-7.8 4-5.3 7.88-11.58 11.65-18.85 2.5-4.77 5.68-11.45 9.55-20.05 1.33-2.93 2.22-5.3 2.65-7.1.67-2.7.7-5.12.1-7.25-.97-3.37-3.28-6.02-6.95-7.95-2.53-1.37-6-2.32-10.4-2.85q-12-1.395-32.1 1.5c-15.93 2.3-26.67 3.48-32.2 3.55-1.2 0-2.05-.17-2.55-.5-.6-.4-1.12-1.33-1.55-2.8l-7.6-28.95c-.13-.47-.25-.93-.35-1.4 0-2.7-.87-5.6-2.6-8.7-1-2.67-2.08-5-3.25-7-.83-1.43-1.7-2.32-2.6-2.65m-32.45 1.4c4.27-1.2 8.63-1.8 13.1-1.8q6.75-.105 11.4 1.95c4.37 1.9 7.83 5.22 10.4 9.95 2.9 13.3 6.07 26.22 9.5 38.75.7 2.47 1.57 4.08 2.6 4.85.67.47 1.5.77 2.5.9.67.07 1.58.07 2.75 0 3.67-.2 14.4-1.57 32.2-4.1 13.1-1.87 23.83-2.35 32.2-1.45 3.7.37 6.58 1.15 8.65 2.35 1.37.8 2.47 1.83 3.3 3.1q1.35 2.055 1.35 4.2-.045 1.905-1.5 5.1-7.395 16.95-11.85 25.35-7.305 13.695-15.45 23.1l-.9-6.3c-.2-1.27-.6-2.03-1.2-2.3a.93.93 0 0 0-.45-.1c-.03-.17-.1-.3-.2-.4q-.405-.555-1.2-.6c-.53-.07-1.02.02-1.45.25-.47.23-1.17.9-2.1 2-1.57 1.83-3.6 3.55-6.1 5.15-1.57 1.03-3.93 2.35-7.1 3.95-4.83 2.53-8.63 4.37-11.4 5.5-4.33 1.77-8.37 2.88-12.1 3.35q-7.395.9-18.9-1.35c-6.17-1.2-11.5-2.62-16-4.25-2.97-1.07-6.33-2.52-10.1-4.35-15.57-7.53-29.28-16.02-41.15-25.45-1.73-1.4-3.07-2.55-4-3.45-1.37-1.37-2.43-2.75-3.2-4.15-1.47-2.7-2.2-6.7-2.2-12 0-3.4.18-7.27.55-11.6q.3-3.345 1.2-11.55l.6-5.3c1.9-6.3 4.3-12.37 7.2-18.2q1.245-2.1 3.6-5.1c2.6-3.27 4.72-5.53 6.35-6.8 1.3-1 2.98-2.05 5.05-3.15 5.47-2.93 10.15-4.95 14.05-6.05m67.4 87.95c.07-.47-.03-.9-.3-1.3-.3-.43-.67-.63-1.1-.6-.6.03-1.2.22-1.8.55-.27.13-.83.6-1.7 1.4l-3.5 3.6c-.5.5-.73.92-.7 1.25 0 .37.18.65.55.85.33.2.72.3 1.15.3 1.13-.07 2.5-.77 4.1-2.1.43-.37 1.05-.95 1.85-1.75.87-.8 1.35-1.53 1.45-2.2m1.4-12.05c-.57-.27-1.12-.28-1.65-.05-.13.07-.45.3-.95.7-1.67 1.67-2.65 2.68-2.95 3.05-.57.63-.87 1.2-.9 1.7-.03.33.05.65.25.95.23.3.5.47.8.5q.405 0 .9-.3c1.93-1 3.28-1.83 4.05-2.5 1.07-.87 1.53-1.77 1.4-2.7-.1-.63-.42-1.08-.95-1.35m8.2 4.5c-.3.07-.72.27-1.25.6-1.23.87-2.48 1.93-3.75 3.2-.33.4-.53.73-.6 1-.07.3 0 .6.2.9.17.27.4.47.7.6.57.2 1.2.18 1.9-.05 1.07-.3 2.45-1.17 4.15-2.6q.855-.645 1.05-1.2c.195-.555.13-.77 0-1.2-.13-.4-.37-.72-.7-.95-.5-.37-1.07-.47-1.7-.3"/><path d="M120.7 70.8c-4.47 0-8.83.6-13.1 1.8-3.9 1.1-8.58 3.12-14.05 6.05-2.07 1.1-3.75 2.15-5.05 3.15-1.63 1.27-3.75 3.53-6.35 6.8q-2.355 3-3.6 5.1c-2.9 5.83-5.3 11.9-7.2 18.2l-.6 5.3q-.9 8.205-1.2 11.55c-.37 4.33-.55 8.2-.55 11.6 0 5.3.73 9.3 2.2 12 .77 1.4 1.83 2.78 3.2 4.15.93.9 2.27 2.05 4 3.45 11.87 9.43 25.58 17.92 41.15 25.45 3.77 1.83 7.13 3.28 10.1 4.35 4.5 1.63 9.83 3.05 16 4.25q11.505 2.25 18.9 1.35c3.73-.47 7.77-1.58 12.1-3.35 2.77-1.13 6.57-2.97 11.4-5.5 3.17-1.6 5.53-2.92 7.1-3.95 2.5-1.6 4.53-3.32 6.1-5.15.93-1.1 1.63-1.77 2.1-2 .43-.23.92-.32 1.45-.25q.795.045 1.2.6c.1.1.17.23.2.4.17 0 .32.03.45.1.6.27 1 1.03 1.2 2.3l.9 6.3q8.145-9.405 15.45-23.1 4.455-8.4 11.85-25.35 1.455-3.195 1.5-5.1 0-2.145-1.35-4.2c-.83-1.27-1.93-2.3-3.3-3.1-2.07-1.2-4.95-1.98-8.65-2.35-8.37-.9-19.1-.42-32.2 1.45-17.8 2.53-28.53 3.9-32.2 4.1-1.17.07-2.08.07-2.75 0-1-.13-1.83-.43-2.5-.9-1.03-.77-1.9-2.38-2.6-4.85-3.43-12.53-6.6-25.45-9.5-38.75-2.57-4.73-6.03-8.05-10.4-9.95q-4.65-2.055-11.4-1.95m62.65 82.8c.53-.33.95-.53 1.25-.6.63-.17 1.2-.07 1.7.3.33.23.57.55.7.95q.195.645 0 1.2c-.195.555-.48.77-1.05 1.2-1.7 1.43-3.08 2.3-4.15 2.6-.7.23-1.33.25-1.9.05-.3-.13-.53-.33-.7-.6-.2-.3-.27-.6-.2-.9.07-.27.27-.6.6-1 1.27-1.27 2.52-2.33 3.75-3.2m-8.6-5.15c.53-.23 1.08-.22 1.65.05.53.27.85.72.95 1.35.13.93-.33 1.83-1.4 2.7-.77.67-2.12 1.5-4.05 2.5q-.495.3-.9.3c-.3-.03-.57-.2-.8-.5-.2-.3-.28-.62-.25-.95.03-.5.33-1.07.9-1.7.3-.37 1.28-1.38 2.95-3.05.5-.4.82-.63.95-.7m-.05 10.8c.27.4.37.83.3 1.3-.1.67-.58 1.4-1.45 2.2-.8.8-1.42 1.38-1.85 1.75-1.6 1.33-2.97 2.03-4.1 2.1-.43 0-.82-.1-1.15-.3-.37-.2-.55-.48-.55-.85-.03-.33.2-.75.7-1.25l3.5-3.6c.87-.8 1.43-1.27 1.7-1.4.6-.33 1.2-.52 1.8-.55.43-.03.8.17 1.1.6" class="o"/></g><g id="e"><path d="M165.55 165.85c-.13.43-.05.83.25 1.2.3.4.67.6 1.1.6.4 0 .87-.2 1.4-.6.43-.27 1.03-.73 1.8-1.4s1.35-1.15 1.75-1.45c.6-.4 1-.73 1.2-1 .33-.57.37-1.12.1-1.65-.37-.67-.88-.95-1.55-.85-.23.03-.58.2-1.05.5-1.57 1.1-2.98 2.28-4.25 3.55-.43.43-.68.8-.75 1.1m5.95-11.25c.23-.13.5-.32.8-.55l.7-.65 2.05-1.4c.8-.63 1.28-1.27 1.45-1.9.2-.57.12-.98-.25-1.25q-.555-.345-1.5.15-2.205 1.155-3.45 2.4l-1 1c-.43.3-.7.52-.8.65-.17.27-.23.55-.2.85q.105.495.45.75c.5.4 1.08.38 1.75-.05m13.9 2.95c.53-.53.62-1.18.25-1.95-.17-.4-.43-.68-.8-.85-.5-.17-1.08-.02-1.75.45q-1.35.795-2.7 2.25c-.67.67-.95 1.27-.85 1.8.03.3.22.55.55.75.3.2.62.3.95.3.57-.03 1.15-.3 1.75-.8.97-.8 1.48-1.22 1.55-1.25.53-.3.88-.53 1.05-.7m46.55.85c1.13-3.17 1.95-5.8 2.45-7.9.57-2.6.85-5.02.85-7.25v-.95c0-.6-.17-.97-.5-1.1-.1-.03-.17-.05-.2-.05-.37 0-.68.27-.95.8q-1.455 2.355-10.2 19.5c-.65 1.28-1.3 2.49-1.95 3.65-.7 1.3-1.4 2.54-2.1 3.7a74 74 0 0 1-3.7 5.6c-.2-1.73-.63-3.27-1.3-4.6-.53-1.03-1.15-1.62-1.85-1.75-.18-.03-.36-.03-.55 0-.66.14-1.39.69-2.2 1.65l-2.35 3.05q-.195-1.155-1.2-1.95c-.7-.53-1.43-.75-2.2-.65-1 .17-1.98.8-2.95 1.9-1.23 1.4-2.6 3.58-4.1 6.55-1.63 3.47-2.85 6.48-3.65 9.05-.37 1.33-.62 2.55-.75 3.65-3.67 1.4-7.63 2.57-11.9 3.5-6.78 1.46-13.76 1.88-20.95 1.25-1.5-.13-3.02-.31-4.55-.55-1.8-.24-3.62-.56-5.45-.95-10.77-2.33-18.77-4.52-24-6.55-5.2-2.03-7.77-2.27-7.7-.7.03 1.53.05 2.47.05 2.8s.12.7.35 1.1c.37.67.9 1.25 1.6 1.75 6 4.07 12.88 7.07 20.65 9 7 1.7 14.52 2.5 22.55 2.4 10.63-.2 20.4-1.85 29.3-4.95 5.93-2.07 11.32-4.75 16.15-8.05 5.2-3.6 9.57-7.75 13.1-12.45 3.6-4.93 7-11.77 10.2-20.5m-28.75 14.8c.5-.4 1.03-.55 1.6-.45 1.43 2.37 2.33 4.25 2.7 5.65l1.95-4.05c.6-1.17 1.42-2.32 2.45-3.45.7 2.3 1.02 4.62.95 6.95-.5.57-1 1.1-1.5 1.6-4.33 4.4-9.72 7.98-16.15 10.75 1.4-5.6 3.7-10.83 6.9-15.7.47-.63.83-1.07 1.1-1.3"/><path d="M199.8 165.95c-2.83.8-6.27 2.13-10.3 4-14.07 6.63-25.1 14.62-33.1 23.95-.5.57-.91 1.1-1.25 1.6 1.53.24 3.05.42 4.55.55 7.19.63 14.17.21 20.95-1.25 4.27-.93 8.23-2.1 11.9-3.5.13-1.1.38-2.32.75-3.65.8-2.57 2.02-5.58 3.65-9.05 1.5-2.97 2.87-5.15 4.1-6.55.97-1.1 1.95-1.73 2.95-1.9.77-.1 1.5.12 2.2.65q1.005.795 1.2 1.95l2.35-3.05c.81-.96 1.54-1.51 2.2-1.65.19-.03.37-.03.55 0 2.36.03 4.64.28 6.85.75.7-1.16 1.4-2.4 2.1-3.7-7.23-1.5-14.45-1.22-21.65.85" class="o"/><path d="M204.8 172.75c-.57-.1-1.1.05-1.6.45-.27.23-.63.67-1.1 1.3-3.2 4.87-5.5 10.1-6.9 15.7 6.43-2.77 11.82-6.35 16.15-10.75.5-.5 1-1.03 1.5-1.6.07-2.33-.25-4.65-.95-6.95-1.03 1.13-1.85 2.28-2.45 3.45l-1.95 4.05c-.37-1.4-1.27-3.28-2.7-5.65" style="fill:#7f2756"/></g><g id="f"><path d="M222.5 148.95c2.23-1.83 4.33-3.77 6.3-5.8 2.27-2.4 4.08-5.1 5.45-8.1 1-2.2.7-4.18-.9-5.95-1.43-1.53-3.17-2.6-5.2-3.2-3.13-.77-6.3-1.22-9.5-1.35-2.67-.03-5.3-.07-7.9-.1-2.97-.07-5.93.1-8.9.5-2.87.2-5.77.53-8.7 1-3.03.67-6.02 1.48-8.95 2.45-2.6 1-5.08 2.2-7.45 3.6-1.63 1-2.45 2.45-2.45 4.35.53 1.8 1.42 3.32 2.65 4.55 2.13 2.07 4.5 3.88 7.1 5.45s5.37 2.85 8.3 3.85c2.53.8 5.15 1.57 7.85 2.3 3.07.83 6.2 1.28 9.4 1.35a17.7 17.7 0 0 0 8.15-1.85c1.73-.8 3.32-1.82 4.75-3.05m8.7-14.35a40 40 0 0 0-8.45-1.1c-3.23-.27-6.48-.35-9.75-.25-2.97.07-5.97.1-9 .1-3.67.03-7.33.38-11 1.05-4.53.67-9 1.75-13.4 3.25l-2.15-2.4c2.2-1.8 4.68-3.07 7.45-3.8 2.73-.73 5.5-1.32 8.3-1.75s5.62-.73 8.45-.9c3.1-.33 6.22-.53 9.35-.6 2.73-.07 5.52 0 8.35.2 3.1.07 6.18.48 9.25 1.25 2.8.73 3.67 2.38 2.6 4.95"/><path d="M222.75 133.5c2.87.07 5.68.43 8.45 1.1 1.07-2.57.2-4.22-2.6-4.95-3.07-.77-6.15-1.18-9.25-1.25-2.83-.2-5.62-.27-8.35-.2-3.13.07-6.25.27-9.35.6-2.83.17-5.65.47-8.45.9s-5.57 1.02-8.3 1.75c-2.77.73-5.25 2-7.45 3.8l2.15 2.4c4.4-1.5 8.87-2.58 13.4-3.25 3.67-.67 7.33-1.02 11-1.05 3.03 0 6.03-.03 9-.1 3.27-.1 6.52-.02 9.75.25" style="fill:#d6dee8"/></g><g id="g"><g id="h"><path d="M138.1 124.9q.945-1.155 1.2-2.7c0-.17.02-.35.05-.55V121c0-1.47-.47-2.88-1.4-4.25-.93-1.3-2.18-2.48-3.75-3.55-2.7-1.8-5.68-2.9-8.95-3.3-.43-.07-.85-.1-1.25-.1-2.53-.23-5.2-.08-8 .45-4.07.7-7.42 1.97-10.05 3.8-.57.37-1.08.77-1.55 1.2-3-.83-5.68-2.03-8.05-3.6-.33-.2-.57-.27-.7-.2q-.45.255 0 1.05c.7 1.03 1.73 1.97 3.1 2.8 1.17.73 2.5 1.37 4 1.9-.07.07-.13.17-.2.3-.57.87-.9 1.78-1 2.75-.07.9 0 1.78.2 2.65.7 2.23 1.77 3.93 3.2 5.1 1.23 1.07 3.1 1.97 5.6 2.7 3.6 1.07 8.62 1 15.05-.2 1.07-.17 2.13-.38 3.2-.65 1.83-.53 3.65-1.23 5.45-2.1 1.53-.67 2.82-1.62 3.85-2.85m-27.25-6.2c.1 0 .2.02.3.05-.27.3-.48.7-.65 1.2-.5 1.6-.28 2.88.65 3.85.5.5 1.13.77 1.9.8.8.03 1.48-.17 2.05-.6.57-.4.98-.97 1.25-1.7.23-.7.3-1.42.2-2.15-.07-.43-.18-.78-.35-1.05 3.77.13 7.45.07 11.05-.2q4.5-.405 6.6-.9c.17-.03.32-.07.45-.1.7.63 1.12 1.25 1.25 1.85.03.1.05.2.05.3-.07.43-.18.87-.35 1.3q-.15.45-.45.9l-.9 1.2q-1.05 1.455-2.7 2.1c-1.8.77-3.62 1.32-5.45 1.65-.13.03-.25.07-.35.1-2.33.43-5.25.68-8.75.75-2.2.03-4.38-.32-6.55-1.05-2.37-.8-3.98-1.83-4.85-3.1-.07-.13-.12-.25-.15-.35-.43-1.03-.5-2.1-.2-3.2.23-.73.72-1.45 1.45-2.15l.1-.1c1.27.23 2.73.43 4.4.6m14.35-5c2.7.47 5.1 1.38 7.2 2.75-3.17.4-7.18.57-12.05.5-4.5 0-8.28-.23-11.35-.7 1.87-1.07 4.23-1.85 7.1-2.35 3.3-.6 6.33-.67 9.1-.2m22.45-.45c-2.5 1.6-4.12 3.3-4.85 5.1-.27.63-.42 1.6-.45 2.9v1.05c.97 3.97 3.42 6.2 7.35 6.7 3.37.57 6.7.45 10-.35 4.73-1.03 8.95-3.13 12.65-6.3 3.03-2.53 3.75-5.45 2.15-8.75-.33-.5-.75-.98-1.25-1.45-.27-.27-.55-.5-.85-.7q.945-.555 1.65-1.05c1.5-1.1 2.33-2.22 2.5-3.35.07-.27.03-.47-.1-.6-.2-.23-.53-.17-1 .2-1.57 1.23-3.37 2.4-5.4 3.5q-2.1-.9-4.8-1.2c-1.5-.17-3-.18-4.5-.05-1.53.1-3.05.33-4.55.7-3.07.73-5.92 1.95-8.55 3.65m8.35 2.65c-2.27.77-4.05 1.3-5.35 1.6-1 .23-2.57.45-4.7.65l-.65.1c.43-.77 1.22-1.53 2.35-2.3q2.895-2.145 7.35-3.3c2.97-.87 5.62-1.25 7.95-1.15 1.23.03 2.4.18 3.5.45l-.3.1c-2.2.97-5.58 2.25-10.15 3.85m-.15 2.45.05-.05c4.43-1.37 8.88-3.1 13.35-5.2.07-.03.13-.05.2-.05.33.17.67.35 1 .55.3.2.58.42.85.65.3.3.57.65.8 1.05.2.33.25.67.15 1-.63 1.9-1.75 3.53-3.35 4.9q-1.995 1.695-5.7 3.3c-1.37.6-3.12 1.12-5.25 1.55q-3.255.645-5.55.6c-3.93-.07-6.4-1.33-7.4-3.8-.1-.2-.17-.67-.2-1.4-.07-.73-.07-1.25 0-1.55 1.57.13 3.37.05 5.4-.25-.07.07-.12.15-.15.25-.17.37-.22.85-.15 1.45.13.6.35 1.05.65 1.35.3.33.75.57 1.35.7.63.1 1.2.07 1.7-.1.83-.23 1.52-.88 2.05-1.95q.495-1.05.45-1.95c0-.4-.08-.75-.25-1.05"/><path d="M132.4 116.45c-2.1-1.37-4.5-2.28-7.2-2.75-2.77-.47-5.8-.4-9.1.2-2.87.5-5.23 1.28-7.1 2.35 3.07.47 6.85.7 11.35.7 4.87.07 8.88-.1 12.05-.5m18.25 1.05c1.3-.3 3.08-.83 5.35-1.6 4.57-1.6 7.95-2.88 10.15-3.85l.3-.1c-1.1-.27-2.27-.42-3.5-.45-2.33-.1-4.98.28-7.95 1.15q-4.455 1.155-7.35 3.3c-1.13.77-1.92 1.53-2.35 2.3l.65-.1c2.13-.2 3.7-.42 4.7-.65" class="o"/><path d="M111.15 118.75c-.1-.03-.2-.05-.3-.05a58 58 0 0 1-4.4-.6l-.1.1c-.73.7-1.22 1.42-1.45 2.15-.3 1.1-.23 2.17.2 3.2.03.1.08.22.15.35.87 1.27 2.48 2.3 4.85 3.1 2.17.73 4.35 1.08 6.55 1.05 3.5-.07 6.42-.32 8.75-.75.1-.03.22-.07.35-.1 1.83-.33 3.65-.88 5.45-1.65q1.65-.645 2.7-2.1l.9-1.2q.3-.45.45-.9c.17-.43.28-.87.35-1.3 0-.1-.02-.2-.05-.3-.13-.6-.55-1.22-1.25-1.85-.13.03-.28.07-.45.1q-2.1.495-6.6.9c-3.6.27-7.28.33-11.05.2.17.27.28.62.35 1.05.1.73.03 1.45-.2 2.15-.27.73-.68 1.3-1.25 1.7-.57.43-1.25.63-2.05.6-.77-.03-1.4-.3-1.9-.8-.93-.97-1.15-2.25-.65-3.85.17-.5.38-.9.65-1.2m44.75-.45-.05.05c.17.3.25.65.25 1.05q.045.9-.45 1.95c-.53 1.07-1.22 1.72-2.05 1.95-.5.17-1.07.2-1.7.1-.6-.13-1.05-.37-1.35-.7-.3-.3-.52-.75-.65-1.35-.07-.6-.02-1.08.15-1.45.03-.1.08-.18.15-.25-2.03.3-3.83.38-5.4.25-.07.3-.07.82 0 1.55.03.73.1 1.2.2 1.4 1 2.47 3.47 3.73 7.4 3.8q2.295.045 5.55-.6c2.13-.43 3.88-.95 5.25-1.55q3.705-1.605 5.7-3.3c1.6-1.37 2.72-3 3.35-4.9.1-.33.05-.67-.15-1-.23-.4-.5-.75-.8-1.05-.27-.23-.55-.45-.85-.65-.33-.2-.67-.38-1-.55-.07 0-.13.02-.2.05-4.47 2.1-8.92 3.83-13.35 5.2" style="fill:#e8e6d6"/></g></g><g id="i"><path d="M86.25 84.8c.53-.73 1.05-1.43 1.55-2.1q2.55-3.6 4.2-6.6c.83-1.53 1.02-2.73.55-3.6-14.53 11.9-27.03 29.58-37.5 53.05-4.9 11.03-8.45 21.15-10.65 30.35-2.03 8.77-3.43 19.2-4.2 31.3-.27 4.9-.3 8.88-.1 11.95.27 4.37 1.05 8.22 2.35 11.55.97 2.47 2.22 3.98 3.75 4.55 2.03.77 4.6-.2 7.7-2.9l8.95-7.8c3.13-2.77 5.43-4.95 6.9-6.55 2.37-2.63 4.03-5.27 5-7.9.8-2.13 1.3-4.67 1.5-7.6.07-.87.12-3.5.15-7.9.1-15.87 2.95-31.18 8.55-45.95.77-2 1.25-3.55 1.45-4.65.03-.3.07-.58.1-.85.13-1.4-.05-2.65-.55-3.75-.43.67-.85 1.35-1.25 2.05-4.03 6.8-7.23 14.02-9.6 21.65-2.6 8.43-4.07 17-4.4 25.7-.27 7.03-.47 11.07-.6 12.1-.53 4.53-1.73 8.25-3.6 11.15-1.3 2-3.53 4.35-6.7 7.05-3.8 3.3-7.67 6.57-11.6 9.8q-1.95-3.405-2.55-8.1c-.33-2.3-.45-5.2-.35-8.7.43-17.77 3.63-35.18 9.6-52.25 5.93-17.07 14.27-32.68 25-46.85 1.6-2.03 2.97-3.78 4.1-5.25.9-1.17 1.65-2.15 2.25-2.95"/><path d="M87.85 82.9c0-.07-.02-.13-.05-.2-.5.67-1.02 1.37-1.55 2.1-.6.8-1.35 1.78-2.25 2.95-1.13 1.47-2.5 3.22-4.1 5.25-10.73 14.17-19.07 29.78-25 46.85-5.97 17.07-9.17 34.48-9.6 52.25-.1 3.5.02 6.4.35 8.7q.6 4.695 2.55 8.1c3.93-3.23 7.8-6.5 11.6-9.8 3.17-2.7 5.4-5.05 6.7-7.05 1.87-2.9 3.07-6.62 3.6-11.15.13-1.03.33-5.07.6-12.1.33-8.7 1.8-17.27 4.4-25.7 2.37-7.63 5.57-14.85 9.6-21.65.4-.7.82-1.38 1.25-2.05.5 1.1.68 2.35.55 3.75.03-.03.07-.05.1-.05.03-.07.07-.13.1-.2.07-.07.12-.13.15-.2s.07-.13.1-.2v-.2c0-.07.02-.13.05-.2s.05-.13.05-.2v-.2c.03-.07.07-.13.1-.2v-.4c0-.07.02-.13.05-.2v-3.25c0-.07-.02-.13-.05-.2.03-.07.05-.13.05-.2v-.6c0-.07.02-.13.05-.2v-4.8c.03-.07.05-.13.05-.2v-1c0-.07.02-.13.05-.2v-.4c0-.07.02-.13.05-.2v-5.25c0-.07-.02-.13-.05-.2.03-.07.05-.13.05-.2.03-.07.05-.13.05-.2v-4c.03-.07.05-.13.05-.2V99c.03-.07.07-.13.1-.2v-.45c0-.07.02-.13.05-.2v-2.8c.03-.07.07-.13.1-.2v-1c.03-.07.05-.13.05-.2v-1.6c0-.07-.02-.13-.05-.2V88.5c0-.07.02-.13.05-.2v-1.6c0-.07.02-.13.05-.2v-2.6c.03-.07.07-.13.1-.2v-.6c-.03-.07-.07-.13-.1-.2" class="o"/></g><g id="j"><path d="M141.8 83.9c.27-.1.55-.18.85-.25-.63-.47-.95-.72-.95-.75-.27-.63-.55-1.83-.85-3.6-.3-1.83-1.22-5.68-2.75-11.55-1.5-5.93-3.05-10.45-4.65-13.55s-3.93-6.92-7-11.45c-2.3-3.37-4.63-5.72-7-7.05q-1.905-1.005-3.15-.45c-1.13.5-1.7 1.7-1.7 3.6-.07 1.6.22 3.4.85 5.4.13.47.75 2.23 1.85 5.3 1.83 4.97 3.2 9.93 4.1 14.9.37 1.83-.77 3.33-3.4 4.5-.2-.33-.43-.7-.7-1.1-.37-.53-.98-1.75-1.85-3.65-2.4-5.5-4.82-9.83-7.25-13-3.4-4.37-7.27-7.4-11.6-9.1-2.9-1.1-5.38-1.32-7.45-.65-.8.2-1.25.57-1.35 1.1-.2.43 0 1.05.6 1.85 2.87 3.57 6.12 6.93 9.75 10.1 1.5 1.27 2.58 2.28 3.25 3.05.4.47 1.17 1.58 2.3 3.35 1 1.7 1.7 3.02 2.1 3.95.7 1.53 1.08 2.97 1.15 4.3.03.63-.03 1.17-.2 1.6q-.405-.15-.75-.3c-7.43-3-13.38-4.72-17.85-5.15-4.53-.47-8.9-.2-13.1.8q-6.405 1.5-9.3 4.8c-.57.67-.85 1.2-.85 1.6-.13.7.13 1.35.8 1.95 1.07 1.23 3.1 1.7 6.1 1.4 6.07-.47 9.17-.7 9.3-.7 3.47-.17 6.48.13 9.05.9.43.17.73.33.9.5.23.23.37.5.4.8.03.13.02.32-.05.55-.27.57-.63.95-1.1 1.15-.07.03-.12.07-.15.1.4.2.82.4 1.25.6a71.3 71.3 0 0 0 19.2 5.6c10.57 1.43 20.97.95 31.2-1.45" class="o"/><path d="M142.65 83.65c.5.5 1.18.5 2.05 0 .83-.53 1.22-1.07 1.15-1.6s-.12-.9-.15-1.1c-1.77-9.67-3.98-17.73-6.65-24.2-.17-.37-.3-.68-.4-.95-.1-.2-.18-.4-.25-.6q-3.405-9.75-8.4-16.35c-3.6-5.03-7.53-7.8-11.8-8.3-1.53-.17-2.83-.03-3.9.4-1.2.53-2.15 1.47-2.85 2.8-.67 1.17-1.05 2.47-1.15 3.9-.03 1.87.52 4.53 1.65 8l1.65 4.85c-.63-1.23-1.18-2.17-1.65-2.8-2.2-3.1-5.42-5.87-9.65-8.3-2.93-1.63-5.53-2.65-7.8-3.05q-4.695-.795-8.25 1.05c-1.27.77-2.15 1.62-2.65 2.55-.93 1.53-1 3.3-.2 5.3.53 1.37 1.6 2.93 3.2 4.7 1.87 2.2 4.1 4.48 6.7 6.85 2.7 2.4 4.47 4.1 5.3 5.1.63.77 1.3 1.73 2 2.9-2.93-1.57-6.37-2.65-10.3-3.25-4.23-.7-8.4-.7-12.5 0-4.3.67-8.18 2.03-11.65 4.1-1.93 1.1-3.35 2.22-4.25 3.35q-1.845 2.55-1.35 5.1c.2 1.1.83 2.3 1.9 3.6q1.455 1.605 2.7 2.25c1.27.6 3.05.85 5.35.75 1.03-.07 3.83-.43 8.4-1.1 3.4-.43 6.18-.57 8.35-.4 1.3.17 2.27.15 2.9-.05.03-.03.08-.07.15-.1.47-.2.83-.58 1.1-1.15.07-.23.08-.42.05-.55-.03-.3-.17-.57-.4-.8-.17-.17-.47-.33-.9-.5-2.57-.77-5.58-1.07-9.05-.9-.13 0-3.23.23-9.3.7-3 .3-5.03-.17-6.1-1.4-.67-.6-.93-1.25-.8-1.95 0-.4.28-.93.85-1.6q2.895-3.3 9.3-4.8c4.2-1 8.57-1.27 13.1-.8 4.47.43 10.42 2.15 17.85 5.15q.345.15.75.3c.17-.43.23-.97.2-1.6-.07-1.33-.45-2.77-1.15-4.3-.4-.93-1.1-2.25-2.1-3.95-1.13-1.77-1.9-2.88-2.3-3.35-.67-.77-1.75-1.78-3.25-3.05-3.63-3.17-6.88-6.53-9.75-10.1-.6-.8-.8-1.42-.6-1.85.1-.53.55-.9 1.35-1.1 2.07-.67 4.55-.45 7.45.65 4.33 1.7 8.2 4.73 11.6 9.1 2.43 3.17 4.85 7.5 7.25 13 .87 1.9 1.48 3.12 1.85 3.65.27.4.5.77.7 1.1 2.63-1.17 3.77-2.67 3.4-4.5-.9-4.97-2.27-9.93-4.1-14.9-1.1-3.07-1.72-4.83-1.85-5.3-.63-2-.92-3.8-.85-5.4 0-1.9.57-3.1 1.7-3.6q1.245-.555 3.15.45c2.37 1.33 4.7 3.68 7 7.05 3.07 4.53 5.4 8.35 7 11.45s3.15 7.62 4.65 13.55c1.53 5.87 2.45 9.72 2.75 11.55.3 1.77.58 2.97.85 3.6 0 .03.32.28.95.75"/></g></svg>