<svg xmlns="http://www.w3.org/2000/svg" id="a" viewBox="0 0 253 291.35"><defs><style>.d{fill:#a96674}.g{fill:#bea0c6}.h{fill:#809992}</style></defs><path d="M187 210.08c-.33-1.8-.69-3.59-1.06-5.37-.6-2.7-1.28-5.31-2.01-7.75-1.2-3.95-3.83-6.62-7.78-7.91-.77-.3-1.53-.59-2.26-.85a27.5 27.5 0 0 0-4.68-1.32c-.42-.1-.82-.19-1.2-.26l-.84-.15-.1 13.46-15.45 4.16 1.75.84c2.98 1.42 5.97 2.9 8.88 4.39 2.74 1.42 5.51 2.95 8.23 4.54 1.94 1.08 3.8 2.33 5.56 3.71-1.46 1.65-2.91 3.33-4.3 4.99l-3.09 3.59c-1.14 1.26-2.32 2.51-3.51 3.71l-1.71-.56 1.05 1.57s-.03.04-.05.07l.51.51 1.51 1.82c.43.49.72 1.05.9 1.71.66 2.49 1.28 5.07 1.84 7.67.76 3.58 1.45 7.27 2.04 10.97l.3 1.88c6.99-4.23 13.59-9.53 19.81-15.93-.33-3.43-.74-6.92-1.24-10.37-.9-6.38-1.94-12.8-3.1-19.08Zm-65.6 55.33c-1.67-1.38-3.35-2.8-4.98-4.23-1.8-1.61-3.63-3.27-5.44-4.94-4.23-3.86-8.43-7.74-12.49-11.54l-1.95-1.85c-3.38-3.18-6.79-6.44-10.14-9.69-1.59-1.56-3.19-3.09-4.75-4.55-1.17-1.14-2.34-2.25-3.5-3.36l-2.17-2.06c-.68-.61-1.42-1.23-2.22-1.85-.55-.39-1.1-.8-1.62-1.23-.6-.47-1.19-.92-1.77-1.37-.45-.32-.86-.65-1.31-1.06-.29-.2-.56-.4-.81-.59.32-.21.65-.42 1.03-.64.38-.28.76-.54 1.16-.77 1.39-.9 2.85-1.8 4.32-2.68 2.21-1.29 4.46-2.53 6.69-3.69 1.61-.89 3.25-1.74 4.9-2.55.26-.14.53-.27.86-.41h.86l-.22-.89c-.08-.34-.39-.71-1-.71h-.12l-1.15-.19c-.61-.07-1.23-.12-1.83-.15-2.76-.2-5.48-.42-8.09-.64-1.74-.27-3.48-.54-5.19-.81l-1.34-14.68-.91.39c-1.23.53-2.53 1.08-3.87 1.64l-1.52.58c-.29.07-.59.16-.83.26-1.03.31-1.99.68-2.82 1.07-2.13.89-3.78 2.27-4.89 4.09-.42.71-.78 1.45-1.06 2.22-1.87 5.15-3.36 10.55-4.43 16.06-.49 2.49-.96 5-1.43 7.51 2.59 3.87 5.42 7.63 8.5 11.26 4.29 5.05 8.77 9.54 13.44 13.48l.4-1.81c.79-3.54 1.65-7.09 2.54-10.52.36-1.33.79-2.68 1.29-4.01.04-.12.09-.24.16-.36h.15c.12.13.22.35.24.73 0 .31-.02.62-.05.95-.03.49-.08.97-.14 1.44a39 39 0 0 1-.64 3.34c-.1.44-.2.89-.3 1.36l-.04.18 4.49 14.82c14.07 9.53 29.76 14.46 47.04 14.81l-.81-.61a54 54 0 0 1-2.22-1.76Zm38.49-18.47c.89-3.57 1.88-7.16 2.94-10.67l-1.27-.63c-2.57 3.57-5.29 7.19-8.08 10.78-3.03 3.9-6.19 7.81-9.39 11.63a62 62 0 0 1-5.28 5.58c-1.06.97-2.25 2.01-3.63 3.16l-.8.67c7.88-.66 15.41-2.32 22.58-4.97 0-1.39.13-2.78.39-4.14.76-3.81 1.62-7.65 2.54-11.42Z" class="h"/><path d="M126.15 95.38c.42-.79 1.12-1.56 2.11-2.29.37-.3.8-.61 1.25-.88.99-.65 2.15-1.23 3.42-1.71.49-.17 1-.34 1.54-.51 2.22-.73 4.26-1.1 6.07-1.1.23 0 .46 0 .68.02 1.02.03 2.03.16 2.97.37l2.53.56-2.76.92c-1.69.83-4.46 2.02-8.16 3.49-.78.31-1.48.56-2.09.76-.93.33-1.72.59-2.33.76-.35.08-.73.15-1.18.22-.73.13-1.68.25-2.79.36l-1.94.35.68-1.31Zm-13.72 96.54c-.79-.96-1.59-1.89-2.38-2.78-2.86-3.28-5.92-5.08-9.08-5.36l-.46-.04-.39-1.07-1.71-22.35 1.16.61c3.09 1.64 6.37 3.07 9.75 4.26a95 95 0 0 0 19.61 4.97l.58.08.81 13.71-.42.21c-2.67 1.34-5.03 3.56-7.02 6.6l-.39.59-1.83-1.16-7.94 2.09-.29-.35Z" class="g"/><path d="M143.02 166.46c-2.09 0-4.22-.13-6.32-.38-.46-.03-.98-.08-1.51-.15-2.89-.3-5.82-.74-8.7-1.31-2.57-.5-5.16-1.11-7.7-1.81-1.62-.51-3.21-1.01-4.78-1.51a59 59 0 0 1-7.94-3.14c-2.82-1.26-5.67-2.68-8.44-4.22a290 290 0 0 1-7.07-4.11 63.4 63.4 0 0 1-7.5-5.57 67 67 0 0 1-7.12-6.97c-.67-.77-1.42-1.5-2.22-2.17-1.09-.88-2.09-1.85-2.98-2.88l-.19-.22.02-.29c.27-4.62.91-9.22 1.92-13.67 1-4.48 2.32-8.9 3.93-13.15 1-2.72 1.98-5.46 2.94-8.19.24-.75.47-1.53.67-2.3q-.255-.15-.45-.24l-1.38 3.03a650 650 0 0 0-3.15 7.04 122 122 0 0 0-6.81 21.37c-.69 3.14-1.31 6.33-1.84 9.47-.24 1.51-.68 3.04-1.29 4.55-.75 1.84-1.74 3.63-2.93 5.3-.77 1.01-1.58 1.93-2.44 2.75-1.08.98-2.34 1.71-3.76 2.21-1.13.35-2.28.58-3.42.69h-.05c-1.15 0-2.26-.11-3.35-.31-1-.22-1.91-.59-2.74-1.09a8 8 0 0 1-2.68-2.63c-.84-1.3-1.41-2.64-1.7-3.99-.54-2.69-.73-5.47-.56-8.29.07-1.41.2-2.83.41-4.21.5-3.42 1.25-6.82 2.22-10.1.44-1.45.91-2.89 1.41-4.29.27-.72.54-1.4.81-2.08.49-1.38 1.04-2.77 1.61-4.11 1.06-2.56 2.25-5.12 3.52-7.6l.71-1.31c1.16-2.28 2.39-4.6 3.66-6.86 1.63-2.86 3.33-5.71 5.07-8.48 3.01-4.88 6.47-9.47 10.28-13.65.61-.74 1.27-1.52 1.94-2.29l.31-.36 1.1.35.18-.18.41.12q1.995.6 4.14 1.2a86.3 86.3 0 0 0 22.26 2.93h.74c7.85-.07 15.78-.84 23.57-2.29.63-.13 1.25-.25 1.86-.35l.71-.12.12.71c.14.82.24 1.69.31 2.56.26 2.48.52 4.98.75 7.49.27 3.03.55 6.06.85 9.1l.04.45-.39.23c-.32.19-.64.4-.96.62-1.89 1.37-3.14 2.83-3.68 4.35-.12.32-.27.99-.31 2.38v.9c.71 3.26 2.48 5.05 5.38 5.46q1.635.3 3.21.3c1.54 0 3.08-.21 4.6-.63 1.88-.45 3.66-1.14 5.29-2.04l.12-.07s1.32-.15 1.89-.22l5.42-.5c2.06-.2 4.1-.42 6.13-.65 4.07-.3 8.09-.69 12-1.15 6.97-.47 13.85-.95 20.68-1.45 2.25-.19 4.53-.29 6.77-.29 2.03 0 4.08.08 6.09.24h.07l.06.02c.9.24 1.78.56 2.61.94 1.84.86 3 2.25 3.45 4.14.68 2.98 1 6.02.97 9.03-.03 1.64-.13 3.31-.3 4.96a47 47 0 0 1-2.08 9.95 54 54 0 0 1-4.06 8.88c-3.38 5.93-7.63 11.42-12.62 16.31a45.4 45.4 0 0 1-7.42 5.8l-1.21.76.11-1.42c.13-1.67.23-3.35.3-5.02.06-1.8-.07-3.59-.39-5.33-.09.02-.25.09-.5.24-1.61 1.51-3.33 3.06-5.12 4.62a89 89 0 0 1-7.41 5.89c-1.49 1.03-3.02 2-4.56 2.89-2.95 1.66-6.1 2.93-9.38 3.77-2.82.74-5.69 1.25-8.51 1.52-1.23.09-2.46.13-3.68.13Zm6.72-32.07c-.11.02-.33.06-.7.2-.52.15-1.12.53-1.84 1.13-.72.57-1.23 1.22-1.55 1.94-.33.73-.25.96-.24.96 0-.03.11-.04.31-.15.33-.16.97-.58 2.2-1.65 1.24-1.16 1.62-1.61 1.73-1.77.09-.17.14-.38.12-.56 0-.05-.02-.08-.03-.1m5.01 1.57s.11.05.19.08h.05c.27 0 .76-.12 1.72-.85 1.05-.85 1.75-1.42 2.08-1.69.26-.23.52-.54.75-.89.03-.05.06-.13.06-.25-.75.04-1.58.4-2.47 1.08-1.42 1.03-1.91 1.68-2.08 2.03l-.02.05-.03.04c-.12.17-.19.3-.24.4Zm1.13-22.04c.11.42.53 1.34 1.95 3.44 1.12 1.67 2.64 3.3 4.51 4.85 1.9 1.54 3.93 3 6.03 4.35 2.1 1.29 4.6 2.47 7.41 3.48 2.77 1 4.81 1.51 6.06 1.51 2.12-.08 3.04-.24 3.43-.37 1.61-.45 3.69-1.53 6.22-3.21 2.4-1.56 4.77-3.75 7.04-6.51 2.28-2.71 4-5.33 5.1-7.79.59-1.38.98-3.28 1.14-5.65.18-3.1-.06-3.71-.11-3.79-.18-.29-.88-.9-3.24-1.46-1.08-.25-3-.42-5.7-.48-.84-.03-1.67-.04-2.49-.04-1.91 0-3.82.08-5.68.24-2.71.2-4.56.33-5.56.4-4.93.26-8.65.6-11.08.99-2.44.36-3.98.63-4.58.79-.7.14-2.56.56-5.57 1.26-2.79.61-4.57 1.77-5.3 3.44-.26.86-.24 1.99.09 3.28l.19.76c.04.15.09.33.15.53Zm-6.39 13.87c.18 0 .51-.05 1.06-.29.74-.34 1.36-.69 1.81-1.02.42-.36.83-.72 1.19-1.05.45-.41.61-.63.66-.72.08-.16.12-.27.13-.32 0-.03-.03-.08-.05-.12-.13-.22-.22-.23-.27-.23h-.1l-.12.06h-.12c-.49.02-1.08.29-1.76.8-.81.58-1.66 1.3-2.53 2.14-.12.1-.2.19-.25.28l.02.05-.06.19s.02.03.03.04c.06.08.11.15.28.2h.07Zm-61.7-36.58c.42.44.93.87 1.5 1.27.92.63 1.97 1.2 3.12 1.68l.99.41-.76.76s-.07.08-.11.14c-.35.65-.57 1.39-.63 2.16-.06.74-.03 1.49.09 2.23.54 1.81 1.37 3.29 2.43 4.29.92.89 2.36 1.66 4.28 2.29 1.29.43 2.86.64 4.66.64 2.08 0 4.53-.29 7.27-.86.83-.13 1.65-.33 2.49-.58 1.45-.45 2.9-1.06 4.33-1.8 1.14-.58 2.11-1.41 2.91-2.45.46-.6.72-1.28.81-2.09 0-.08.01-.27.05-.52v-.5c0-1.2-.34-2.39-1-3.54-.72-1.05-1.72-2.09-2.92-3.05-2.07-1.54-4.42-2.5-6.95-2.85-.33-.06-.62-.09-.9-.09-.63-.06-1.2-.09-1.78-.09-1.46 0-3.01.17-4.62.52-3.19.61-5.81 1.72-7.8 3.31-.46.33-.87.67-1.24 1.05l-.31.31-.42-.13c-1.98-.62-3.82-1.45-5.48-2.5Z" class="g"/><path d="M106.43 95.28c-3.65 0-6.79-.22-9.32-.66l-1.78-.31 1.5-1c1.57-1.05 3.6-1.81 6.02-2.26 1.52-.3 3-.45 4.4-.45 1.14 0 2.26.1 3.32.3 2.29.42 4.36 1.3 6.14 2.63l1.43 1.06-1.77.23c-2.38.31-5.37.46-8.87.46h-1.08Z" class="g"/><path d="M132.56 104.13c-.69 0-1.34-.05-1.91-.16-2.46-.45-4.08-1.73-4.8-3.82-.06-.15-.14-.46-.19-1.45-.07-.73-.07-1.25.02-1.61l.15-.62.63.07c.38.04.79.07 1.21.07.75 0 1.57-.07 2.44-.21l1.92-.38-.66 1.32s-.04.09-.06.15c-.04.12-.1.41-.06 1.03.08.44.23.67.34.78.18.23.4.36.69.45.13.01.25.02.37.02.25 0 .47-.03.66-.1.09-.04.22-.11.36-.19.33-.21.64-.63.91-1.23.18-.5.29-1.02.29-1.5 0-.28-.04-.51-.1-.7l-.26-.69.69-.24c3.55-1.25 7.17-2.83 10.76-4.71.18-.09.35-.13.53-.13h.17l.15.08c.3.15.59.34.86.56.29.19.56.42.79.67.32.29.6.67.83 1.13.21.47.26.93.16 1.38-.47 1.57-1.21 2.94-2.2 4.11l-.74.74c-1.17 1.06-2.77 2.11-4.78 3.13-1.19.59-2.69 1.09-4.48 1.46-1.67.38-3.14.57-4.36.57h-.31Zm-29.32 1.31c-1.83 0-3.64-.35-5.37-1.05-2.05-.74-3.52-1.78-4.34-3.08l-.06-.1-.03-.11q-.045-.195-.06-.36a5.02 5.02 0 0 1-.18-3.25c.19-.77.63-1.54 1.31-2.3.19-.2.41-.29.64-.29h.08l.08.02c1 .23 2.18.41 3.51.54h.01c.08 0 .23.03.39.08l1.03.34-.71.82c-.16.19-.3.46-.4.82-.33 1.22-.2 2.15.4 2.83.28.33.61.48 1.05.51h.01c.49 0 .81-.13 1.11-.41.42-.31.68-.68.86-1.21.16-.54.2-1.09.12-1.66-.05-.28-.13-.53-.23-.73l-.55-1.09 1.22.05c1.02.04 2.03.07 3.03.07 1.99 0 3.97-.09 5.87-.26 2.41-.2 4.16-.46 5.21-.77.2-.04.3-.07.38-.09l.43-.14.31.33c.67.71 1.06 1.38 1.18 2.06.03.08.06.24.06.38-.04.55-.14 1.02-.29 1.45-.11.3-.26.62-.45.95-.27.39-.52.75-.78 1.15-.64.98-1.48 1.7-2.5 2.16-1.47.7-3 1.22-4.52 1.53q-.105.045-.24.09c-2.02.43-4.45.67-7.31.74h-.27Z" style="fill:#fff"/><path d="M160.15 113.99c-1.6-1.8-2.23-3.15-1.96-4.25.03-.2.12-.52.27-.93l.08-.23.2-.13c.73-.47 1.64-.86 2.71-1.14 1.67-.56 3.72-1.1 6.03-1.61 2.31-.53 4.35-.91 6.07-1.11 1.66-.23 4.01-.45 6.99-.65 2.95-.23 6.2-.4 9.63-.5 1.52-.06 2.98-.09 4.33-.09 1.69 0 3.27.05 4.68.14 1.05.07 2.1.27 3.12.58 1.11.19.96 1.98.9 2.74-.07.47-.12.85-.15 1.21l-.06.71-.71-.06c-1.49-.12-3.38-.19-5.61-.19-2.52 0-5.55.08-9 .24-6.52.3-12.36 1.08-17.36 2.33-4.93 1.21-8.03 2.23-9.22 3.05l-.52.36z" style="fill:#d6dee8"/><path d="m113.3 212.63.3-.34c.64-.73 1.24-1.55 1.78-2.41l.18-.28.33-.05c.74-.1 1.49-.18 2.23-.25.54-.09 1.12-.23 1.69-.42.53-.19 1.08-.41 1.62-.67l.48-.22.36.39a19.44 19.44 0 0 0 7.09 4.87l.47.19-1.22 31.01-1.38.26-13.93-32.07Z" style="fill:#c4d9d3"/><path d="M130.02 258.54q-.045-2.055-.15-3.99c-.07-1.09-.08-2.17-.05-3.21.03-2.04.15-4.11.35-6.15.43-4.16.75-8.42.95-12.66.13-2.63.25-5.25.35-7.84l.2-4.26.23-6.34.79.12c.36.05.71.08 1.04.08 2.15 0 3.79-1.08 5.03-3.31 2.75-4.97 2.58-9.8-.53-14.77l-.32-.51.44-.4c4.1-3.76 4.47-7.54 1.13-11.56-.38-.47-.8-.77-1.27-.93l.27-1.4c1.11.07 2.27.17 3.44.3 1.24.13 2.47.28 3.71.45 2.51.37 5.01.75 7.52 1.15 3.81.63 7.63 1.41 11.36 2.31l.54.13.38 13.66-18.11 3.59.78.36c4.1 1.97 8.17 4.01 12.08 6.07 1.99 1.11 3.96 2.23 5.92 3.36.52.31 1.03.63 1.54.98.4.25.85.51 1.31.77.7.45 1.38.88 2.07 1.31.46.22 1 .59 1.58 1.05l.53.43-.39.55c-.19.27-.4.52-.63.74-1.77 2.06-3.49 4.2-5.08 6.32-.8 1.09-1.62 2.19-2.46 3.26a193 193 0 0 0-3.03 4.08l-2.41 3.12c-1.3 1.73-2.61 3.46-3.95 5.2a341 341 0 0 1-4.57 5.57c-.48.64-1.03 1.31-1.62 1.97l-1.69 1.99c-2.42 2.78-4.89 5.59-7.36 8.36a509 509 0 0 1-8.31 9.11l-1.18 1.26-.42-10.32Zm3.75-77.61 3.03.27-.06 1.44c-.73 0-1.46.05-2.15.14l-.82.11zm-7.19 85.94c-1-.84-1.99-1.67-2.96-2.51-2.11-1.88-4.2-3.74-6.26-5.61-2.29-2.02-4.58-4.09-6.81-6.16a645 645 0 0 1-7.16-6.86c-2.03-1.93-4.05-3.86-6.05-5.8l-6.9-6.7c-2.08-2.01-4.22-3.99-6.37-5.88-2.14-1.9-4.27-3.79-6.4-5.65a42.4 42.4 0 0 0-6.14-4.42l-1.12-.66 25.84-13.34-.52 1.65c-.51 1.64-.84 3.35-.97 5.09-.31 4.61 1.9 7.07 6.75 7.53 3.97-.1 7.41-1.24 10.14-3.4l.69-.55.4.79c.41.81.8 1.65 1.16 2.48 2.5 5.27 4.98 10.71 7.35 16.15 1.64 3.81 3.12 7.73 4.42 11.66.58 1.66.99 3.42 1.23 5.23.23 2.01.44 4.04.6 6.04.27 3.48.35 6.97.25 10.38l-.04 1.48-1.14-.95Z" class="h"/><path d="M91.07 204.08c-2.63-.43-5.36-.87-8.19-1.3-1.92-.23-3.89-.5-5.85-.8-.68-.1-1.37-.18-2.06-.25l-3.06-.12-.82-13.85 2.69-.64c1.81-.5 3.67-.98 5.54-1.45l3.31-.8c2.45-.66 4.99-1.24 7.54-1.71 1.08-.2 2.12-.37 3.08-.5l2.47-.2c.36-.1.67-.14.95-.14.84 0 1.21.45 1.35.71l.46.84-.93.21c-1.26.28-2.6.8-3.97 1.53-.86.44-1.39 1.14-1.64 2.14-1.21 4.8.42 9.09 4.98 13.14l.41.37-.25.49c-.42.84-.8 1.71-1.12 2.58l-.21.56-4.69-.8Z" class="h"/><path d="M116.61 207.44q-.33-.255-.51-.6c-.21-.41-.39-.8-.56-1.17-.31-.62-.56-1.27-.74-1.91-.55-1.76-.76-3.6-.62-5.45.07-.9.23-1.84.47-2.78.1-.46.22-.93.36-1.38l.1-.34 5-1.91.33.38c.22.26.44.55.65.87.57.74 1.07 1.6 1.46 2.52.28.59.5 1.27.64 1.99.14.54.23 1.16.26 1.8l.1.86c.04.48.02.93-.06 1.36-.11.71-.38 1.42-.79 2.1-.05.11-.13.25-.22.37-1.28 1.94-3.08 3.08-5.34 3.41l-.3.04-.24-.18Zm-13.76 7.99c-1.94 0-4.03-.51-6.21-1.51l-.41-.19v-.45c-.08-3.33.57-6.5 1.91-9.41l.43-.94.79.79c-.45-2.23-1.49-4.27-3.11-6.07-2.49-2.74-3.33-5.9-2.51-9.39.31-1.43 1.25-2.23 2.65-2.23.12 0 .24 0 .36.02.76-.06 1.52-.1 2.25-.1 5.44.14 9.95 2.78 13.44 7.86l.17.25-.06.3c-.09.46-.16.94-.19 1.41-.45 3.77-.03 7.41 1.26 10.85.09.25.21.52.33.81l.16.35-.2.32c-.89 1.44-1.87 2.7-2.9 3.73-2.39 2.39-5.13 3.6-8.15 3.6Z" class="d"/><path d="M132.19 211.6c-1.07 0-2.15-.19-3.19-.56-1.94-.71-3.83-2.05-5.64-3.99l-.39-.42.32-.47c.1-.14.17-.29.21-.43l.02-.05.22-.45c.26-.68.51-1.41.7-2.12.69-2.68.61-5.42-.24-8.15-.07-.24-.13-.45-.2-.64l-.33-.83.23-.32c2.12-2.94 4.83-5.38 8.07-7.25.64-.39 1.33-.69 2.03-.87.81-.26 1.69-.4 2.57-.4.4 0 .81.03 1.21.08 1.36.34 2 1.3 1.82 2.66-.65 4.53-2.57 8.42-5.72 11.58a21.6 21.6 0 0 0 3.07-2.31l.74-.66.4.9c1.74 3.92 1.89 7.88.47 11.74-.26.77-.74 1.33-1.42 1.65-1.46.76-2.96 1.2-4.42 1.27-.17.01-.35.02-.53.02Z" class="d"/><path d="M43.16 109.06a69.7 69.7 0 0 1-5.96-14.3c-2.73-9.43-2.68-18.92.15-28.21 1.35-4.68 3.38-8.99 6.05-12.8.51-.74 1.06-1.48 1.63-2.19.09-.09.23-.25.46-.75.08-.16.16-.31.23-.44l-9.59-7.31 1.28-.44c1.42-.48 2.85-.73 4.25-.73.33 0 .66.01.99.04.95.02 1.88.09 2.77.19v-.18c.03-3.78.78-7.47 2.2-10.97l1.39.27c0 1.18.13 2.47.39 3.81.24 1.39.42 2.56.56 3.54.12.86.51 3.16 1.17 6.86a93.7 93.7 0 0 1 24.69-15.22c4.85-2.07 9.88-3.73 14.96-4.94 4.41-1.04 8.98-1.75 13.56-2.12 1.15-.06 2.3-.09 3.42-.09 7.61 0 15.03 1.41 22.06 4.19 9.59 3.7 17.47 10.05 23.43 18.87l.88 1.3-1.56-.18c-1.75-.2-3.44-.31-5.01-.31-2.42 0-4.64.25-6.63.73l9.52 8.36-.62.54c-4.93 4.32-11.29 7.5-18.9 9.46l-.09.02h-.06l-2.42.58c-.55.1-1.05.22-1.53.35-.77.17-1.49.33-2.2.46l-15.84 2.16-1.75.11c-1.89.13-3.82.2-5.73.2-7.92 0-16.07-1.13-24.2-3.37-1.32-.36-2.65-.76-3.97-1.19-.08-.02-.17-.04-.26-.09-2.79-.93-5.65-1.99-8.5-3.15-.83-.33-1.67-.69-2.48-1.06-.62-.26-1.27-.55-1.95-.85l-.05-.02-.05-.03s-.09-.05-.13-.07c-.66-.29-1.01-.34-1.21-.34-.07 0-.15 0-.21.04l-.15.26v.08c0 .02.02.05.02.07.02.04.04.09.06.13l.04.11v.04c.19.31.5.63.9.91.09.05.16.1.23.15q1.125.78 2.34 1.56c.83.51 1.74 1.03 2.69 1.52 1.76.96 3.61 1.86 5.5 2.68l.97.42-.75.75a96 96 0 0 0-9.88 11.61c-2.08 2.9-4.02 5.9-5.76 8.89a160 160 0 0 0-2.99 5.23c-.66 1.29-1.35 2.59-2.05 3.9-.85 1.64-1.69 3.32-2.48 4.97-.39.91-.79 1.83-1.19 2.73-.46 1.06-.91 2.12-1.34 3.18l-.57 1.39z" style="fill:#8b4e77"/><path d="M190.94 209.72c-.63-3.03-1.38-6.05-2.25-9.05a72 72 0 0 0-3.05-8.7c-.77-1.77-1.95-3.12-3.55-4.05-.83-.5-1.68-.92-2.55-1.25-.97-.4-1.95-.73-2.95-1-4.27-1.3-8.48-2.45-12.65-3.45-4.37-1.07-8.75-1.93-13.15-2.6-3-.43-6-.85-9-1.25-2.43-.23-4.87-.45-7.3-.65l-.3-6.2c.2.04.4.07.6.1 1.43.33 2.87.42 4.3.25 3.13-.13 6.25-.4 9.35-.8q4.455-.795 8.7-2.55c2.97-1.2 5.75-2.63 8.35-4.3 1.62-.98 3.17-2.05 4.65-3.2.47-.37.92-.75 1.35-1.15 3.3-2.8 6.38-5.75 9.25-8.85a79 79 0 0 0-.9 5.95c-.33 2.83.88 4.62 3.65 5.35 1.27-.47 2.5-1.03 3.7-1.7q4.005-2.055 7.2-4.95c2.23-2 4.38-4.17 6.45-6.5 2.03-2.23 3.8-4.67 5.3-7.3 1.43-2.53 2.78-5.1 4.05-7.7 1.4-2.97 2.38-6.08 2.95-9.35.25-1.23.48-2.46.7-3.7.83-4.6 1.25-9.22 1.25-13.85 0-2.8-.67-5.43-2-7.9-.77-1.43-1.8-2.63-3.1-3.6-.87-.63-1.78-1.18-2.75-1.65-.57-.27-1.15-.45-1.75-.55-.83-.07-1.67-.13-2.5-.2-2.77-.03-5.58-.07-8.45-.1q-3.855 0-7.65.15c-3.5.17-7 .38-10.5.65-4.53.33-9.08.8-13.65 1.4-3.33.4-6.65.85-9.95 1.35-.73.1-1.47.22-2.2.35.87-1.73.87-3.62 0-5.65q-.45-.705-1.05-1.35c-.2-.23-.43-.43-.7-.6.53-.37.98-.68 1.35-.95 1.23-1.03 1.92-2.07 2.05-3.1.03-.23.02-.42-.05-.55-.2-.2-.48-.13-.85.2-1.3 1.1-2.77 2.17-4.4 3.2-1.13-.57-2.43-.93-3.9-1.1-1.2-.17-2.43-.18-3.7-.05-1.23.1-2.47.32-3.7.65-.93.27-1.83.58-2.7.95a202 202 0 0 1-.45-4.65c-.2-2.33-.38-4.68-.55-7.05-.2-2.2-.33-4.4-.4-6.6 5.47-1.5 10.27-3.53 14.4-6.1 4.7-2.9 8.47-5.87 11.3-8.9l-9.3-6.35 13.2 1.7-1.65-2.7c-3.57-6.37-8.23-11.77-14-16.2-7.67-5.93-16.17-9.95-25.5-12.05-9.5-2.1-18.98-1.87-28.45.7-.1 0-.22.02-.35.05-9.53 2.2-18.68 5.57-27.45 10.1-4.07 2.1-7.9 4.53-11.5 7.3-.03-.17-.05-.33-.05-.5-.27-1.3-.97-4.77-2.1-10.4-.23-1.2-.42-2.2-.55-3-.43.9-.95 1.98-1.55 3.25-2.63 5.67-3.92 9.97-3.85 12.9-2.9-.23-5.7.1-8.4 1-.87.3-1.35.68-1.45 1.15-.17.57.2 1.2 1.1 1.9l5.55 4.35c-.83.97-1.62 1.95-2.35 2.95-4.33 5.93-7.05 12.88-8.15 20.85q-2.055 14.745 2.7 27c1.63 4.2 4.37 9.33 8.2 15.4-.5 1.33-.98 2.68-1.45 4.05a58.4 58.4 0 0 0-3.2 16.25c-.07 1.63-.08 3.27-.05 4.9.03 1.23.15 2.48.35 3.75.3 1.9.92 3.72 1.85 5.45 1.53 2.9 3.85 4.98 6.95 6.25 1.07.47 2.2.73 3.4.8 2.13.17 4.23.05 6.3-.35 2.43-.5 4.75-1.45 6.95-2.85 1-.6 1.87-1.33 2.6-2.2.87-1 1.57-2.07 2.1-3.2.3-.67.58-1.33.85-2 .63-1.57 1.18-3.15 1.65-4.75q.405-1.455.75-2.85c.13.2.28.42.45.65.13.17.28.35.45.55a78 78 0 0 0 3 3.3c1.57 1.7 3.2 3.37 4.9 5q3.75 3.45 7.95 6.45c1.77 1.2 3.55 2.38 5.35 3.55.97.63 1.95 1.25 2.95 1.85l2.45 19.65-4.1.3c-2.9.33-5.78.67-8.65 1-3.07.57-6.1 1.22-9.1 1.95-2.97.73-5.9 1.58-8.8 2.55-2.1.73-4.17 1.52-6.2 2.35-1.53.67-3.07 1.42-4.6 2.25-.7.33-1.37.73-2 1.2-1.67 1.27-2.93 2.92-3.8 4.95-.27.67-.5 1.33-.7 2q-.255.9-.45 1.8c-.27.97-.52 1.93-.75 2.9-1.4 5.2-2.67 10.42-3.8 15.65-.01.07-.03.13-.04.2.97 1.58 1.98 3.14 3.03 4.67.51-2.75 1.03-5.5 1.56-8.22 1.07-5.5 2.53-10.82 4.4-15.95.27-.73.6-1.43 1-2.1 1.03-1.7 2.55-2.97 4.55-3.8.83-.4 1.75-.75 2.75-1.05.27-.1.53-.18.8-.25l1.6-.6q2.055-.855 3.9-1.65l1.3 14.25c1.9.3 3.82.6 5.75.9 2.67.23 5.38.45 8.15.65q.9.045 1.8.15c.4.07.8.13 1.2.2q.405-.045.45.15c-.07 0-.13.02-.2.05-.33.13-.65.28-.95.45-1.63.8-3.27 1.65-4.9 2.55-2.23 1.17-4.47 2.4-6.7 3.7q-2.25 1.35-4.35 2.7c-.4.23-.8.5-1.2.8q-.6.345-1.2.75c-.47.27-.62.45-.45.55.17.13.33.27.5.4.3.23.62.47.95.7.4.37.83.72 1.3 1.05.57.43 1.15.88 1.75 1.35.53.43 1.08.85 1.65 1.25.77.6 1.48 1.2 2.15 1.8.7.67 1.42 1.35 2.15 2.05 1.17 1.1 2.33 2.22 3.5 3.35 1.57 1.47 3.15 2.98 4.75 4.55 3.37 3.27 6.75 6.5 10.15 9.7.63.6 1.28 1.22 1.95 1.85 4.1 3.83 8.27 7.68 12.5 11.55 1.8 1.67 3.62 3.32 5.45 4.95 1.63 1.43 3.3 2.85 5 4.25.73.61 1.49 1.2 2.25 1.78q1.605.06 3.21.06c3.13 0 6.2-.16 9.23-.45q1.875-1.56 3.66-3.18c1.93-1.8 3.72-3.68 5.35-5.65 3.23-3.87 6.37-7.75 9.4-11.65q4.2-5.4 8.1-10.8c-1.07 3.53-2.05 7.1-2.95 10.7-.93 3.8-1.78 7.62-2.55 11.45-.29 1.53-.43 3.04-.42 4.55 1.52-.54 3.02-1.13 4.51-1.76.02-1.44.16-2.88.41-4.34.4-2.27.85-4.53 1.35-6.8.23-1.13.47-2.25.7-3.35q.345-1.755.75-3.45c.3-1.2.6-2.38.9-3.55.17-.53.33-1.05.5-1.55.33 1.93.65 3.88.95 5.85.33 2.1.67 4.2 1 6.3.37 2.41.7 4.81 1 7.21a96 96 0 0 0 3.9-2.27c-.09-.53-.17-1.06-.25-1.59-.6-3.73-1.28-7.4-2.05-11-.57-2.63-1.18-5.2-1.85-7.7a4.8 4.8 0 0 0-1.05-2l-1.5-1.8-.5.4c.13-.17.22-.33.25-.5.03-.07.02-.15-.05-.25.1.03.17.03.2 0 1.3-1.3 2.57-2.63 3.8-4 1.03-1.2 2.07-2.4 3.1-3.6q2.355-2.805 4.8-5.55c-1.97-1.6-4.05-3.02-6.25-4.25-2.73-1.6-5.48-3.12-8.25-4.55-2.93-1.5-5.9-2.97-8.9-4.4l14.1-3.8.1-13.15c.37.07.75.15 1.15.25 1.57.3 3.1.73 4.6 1.3.73.27 1.48.55 2.25.85 3.77 1.23 6.22 3.72 7.35 7.45.73 2.43 1.4 5 2 7.7.37 1.77.72 3.55 1.05 5.35 1.17 6.3 2.2 12.65 3.1 19.05.53 3.66.96 7.3 1.3 10.93 1.57-1.58 3.11-3.23 4.63-4.95-.29-2.08-.59-4.15-.92-6.23-1-6.5-2.15-12.93-3.45-19.3Zm-117.75-91.5q1.5-6.705 3.9-13.05c1-2.73 1.98-5.47 2.95-8.2.3-.93.57-1.87.8-2.8a1.1 1.1 0 0 0-.35-.3q-.45-.3-.9-.45c-.2.07-.38.13-.55.2l-1.5 3.3q-1.605 3.495-3.15 7.05c-2.97 7-5.25 14.17-6.85 21.5-.7 3.17-1.32 6.33-1.85 9.5-.23 1.47-.65 2.93-1.25 4.4a24.8 24.8 0 0 1-2.85 5.15c-.73.97-1.52 1.85-2.35 2.65-1 .9-2.17 1.58-3.5 2.05-1.07.33-2.15.55-3.25.65-1.07 0-2.13-.1-3.2-.3-.9-.2-1.73-.53-2.5-1a7.3 7.3 0 0 1-2.45-2.4c-.8-1.23-1.33-2.48-1.6-3.75-.53-2.63-.72-5.33-.55-8.1.07-1.4.2-2.78.4-4.15.5-3.4 1.23-6.73 2.2-10 .43-1.43.9-2.85 1.4-4.25.27-.7.53-1.38.8-2.05.5-1.4 1.03-2.77 1.6-4.1 1.07-2.57 2.23-5.08 3.5-7.55.23-.43.47-.87.7-1.3 1.17-2.3 2.38-4.58 3.65-6.85 1.63-2.87 3.32-5.68 5.05-8.45 3-4.87 6.4-9.38 10.2-13.55.63-.77 1.28-1.53 1.95-2.3l1.1.35.1-.1c0-.03.02-.07.05-.1 1.33.4 2.72.8 4.15 1.2 7.6 2.03 15.33 3.02 23.2 2.95 7.93-.07 15.83-.83 23.7-2.3.63-.13 1.25-.25 1.85-.35.13.8.23 1.63.3 2.5q.405 3.75.75 7.5c.27 3.03.55 6.07.85 9.1-.33.2-.67.42-1 .65-2.03 1.47-3.35 3.03-3.95 4.7-.2.53-.32 1.4-.35 2.6v1c.77 3.6 2.77 5.63 6 6.1 2.73.5 5.43.38 8.1-.35 1.93-.47 3.75-1.17 5.45-2.1.6-.07 1.18-.13 1.75-.2 1.8-.17 3.6-.33 5.4-.5 2.07-.2 4.12-.42 6.15-.65 4.07-.3 8.07-.68 12-1.15 6.93-.47 13.82-.95 20.65-1.45 4.3-.37 8.55-.38 12.75-.05.87.23 1.7.53 2.5.9 1.63.77 2.65 1.98 3.05 3.65.67 2.93.98 5.88.95 8.85-.03 1.63-.13 3.27-.3 4.9-.32 3.34-1 6.61-2.05 9.8-1.07 3.03-2.4 5.95-4 8.75-3.37 5.9-7.53 11.28-12.5 16.15-2.2 2.13-4.63 4.03-7.3 5.7.13-1.7.23-3.38.3-5.05.07-1.87-.07-3.7-.4-5.5-.15-.73-.7-.79-1.65-.2-1.63 1.53-3.35 3.08-5.15 4.65a87 87 0 0 1-7.35 5.85 68 68 0 0 1-4.5 2.85c-2.9 1.63-5.97 2.87-9.2 3.7q-4.2 1.095-8.4 1.5c-3.27.23-6.55.15-9.85-.25q-.735-.045-1.5-.15c-2.9-.3-5.78-.73-8.65-1.3q-3.855-.75-7.65-1.8c-1.6-.5-3.18-1-4.75-1.5-2.67-.83-5.28-1.87-7.85-3.1q-4.245-1.905-8.4-4.2c-2.43-1.37-4.78-2.73-7.05-4.1-2.63-1.67-5.1-3.5-7.4-5.5a66 66 0 0 1-7.05-6.9c-.7-.8-1.47-1.55-2.3-2.25-1.07-.87-2.03-1.8-2.9-2.8.27-4.6.9-9.12 1.9-13.55m-29.2-64.05c.5-.73 1.03-1.45 1.6-2.15.17-.17.35-.47.55-.9.23-.47.42-.77.55-.9l-9.05-6.9c1.67-.57 3.32-.78 4.95-.65 1.27.03 2.45.13 3.55.3v-1c.03-3.7.75-7.27 2.15-10.7 0 1.23.13 2.55.4 3.95.23 1.37.42 2.53.55 3.5s.6 3.68 1.4 8.15c.3-.27.6-.53.9-.8a93 93 0 0 1 24.55-15.15c4.83-2.07 9.78-3.7 14.85-4.9a91 91 0 0 1 13.45-2.1c8.77-.47 17.15.88 25.15 4.05q14.25 5.505 23.1 18.6c-5.17-.6-9.57-.33-13.2.8l9.9 8.7q-7.305 6.405-18.6 9.3h-.05l-2.5.6c-.53.1-1.05.22-1.55.35-.73.17-1.45.32-2.15.45l-15.8 2.15c-.57.03-1.13.07-1.7.1q-14.595 1.005-29.7-3.15c-1.33-.37-2.67-.77-4-1.2-.03 0-.08-.02-.15-.05-2.8-.93-5.63-1.98-8.5-3.15-.83-.33-1.65-.68-2.45-1.05-.63-.27-1.28-.55-1.95-.85q-.15-.105-.3-.15c-1.07-.47-1.8-.5-2.2-.1l-.3.5c-.03.14-.03.31 0 .5.02.05.04.1.05.15.02.04.04.07.05.1 0 .07.02.13.05.2.27.47.67.88 1.2 1.25.07.03.12.07.15.1.77.53 1.57 1.07 2.4 1.6.87.53 1.78 1.05 2.75 1.55q2.655 1.455 5.55 2.7a95 95 0 0 0-9.95 11.7c-2.1 2.93-4.03 5.92-5.8 8.95q-1.545 2.595-3 5.25c-.67 1.3-1.35 2.6-2.05 3.9-.87 1.67-1.7 3.33-2.5 5-.4.93-.8 1.85-1.2 2.75-.47 1.07-.92 2.13-1.35 3.2-2.47-4.43-4.43-9.15-5.9-14.15-2.7-9.33-2.65-18.6.15-27.8 1.33-4.63 3.32-8.83 5.95-12.6m104.75 39.8c-.43 1.43-1.12 2.7-2.05 3.8l-.7.7c-1.1 1-2.63 2-4.6 3-1.13.57-2.57 1.03-4.3 1.4-1.77.4-3.27.58-4.5.55q-1.005 0-1.8-.15c-2.2-.4-3.62-1.52-4.25-3.35-.07-.17-.12-.58-.15-1.25-.07-.67-.07-1.13 0-1.4 1.13.13 2.42.08 3.85-.15.17-.03.33-.07.5-.1-.03.07-.07.15-.1.25-.1.3-.13.73-.1 1.3.1.57.28.98.55 1.25.23.3.58.52 1.05.65.53.07 1 .03 1.4-.1.17-.07.33-.15.5-.25.47-.3.87-.82 1.2-1.55.23-.63.35-1.23.35-1.8 0-.37-.05-.68-.15-.95 3.6-1.27 7.22-2.85 10.85-4.75.07-.03.13-.05.2-.05.27.13.52.3.75.5.27.17.5.37.7.6.27.23.5.55.7.95.13.3.17.6.1.9m-5-3.9c-1.77.87-4.5 2.03-8.2 3.5-.77.3-1.45.55-2.05.75-.93.33-1.7.58-2.3.75-.3.07-.67.13-1.1.2-.73.13-1.65.25-2.75.35l-.55.1c.37-.7 1-1.38 1.9-2.05.37-.3.77-.58 1.2-.85q1.455-.945 3.3-1.65c.47-.17.97-.33 1.5-.5 2.43-.8 4.6-1.15 6.5-1.05 1 .03 1.95.15 2.85.35-.1.03-.2.07-.3.1m-9.25 92v-.35c.73.07 1.48.13 2.25.2q-1.155 0-2.25.15m-19.6 16.3c.07-.87.22-1.75.45-2.65.1-.47.22-.92.35-1.35l4.2-1.6c.2.23.4.5.6.8.57.73 1.03 1.53 1.4 2.4.27.57.47 1.18.6 1.85.13.53.22 1.1.25 1.7.03.3.07.6.1.9.03.4.02.78-.05 1.15-.1.63-.33 1.25-.7 1.85-.07.13-.13.25-.2.35-1.17 1.77-2.78 2.8-4.85 3.1a1.1 1.1 0 0 1-.3-.35c-.2-.4-.38-.78-.55-1.15-.3-.6-.53-1.2-.7-1.8-.53-1.7-.73-3.43-.6-5.2m7.4-8-1.5-.95-7.8 2.05c-.8-.97-1.6-1.9-2.4-2.8-3-3.43-6.18-5.3-9.55-5.6l-.2-.55-1.6-20.95a70 70 0 0 0 9.85 4.3c6.5 2.4 13.08 4.07 19.75 5l.75 12.65c-2.8 1.4-5.23 3.68-7.3 6.85m-10.45 3.85c-.1.5-.17 1-.2 1.5-.47 3.87-.03 7.58 1.3 11.15.1.27.22.55.35.85-.87 1.4-1.8 2.6-2.8 3.6-3.73 3.73-8.25 4.38-13.55 1.95-.07-3.23.55-6.27 1.85-9.1.1.1.2.22.3.35.4.57.78.62 1.15.15q-.495-4.2-3.45-7.5c-2.33-2.57-3.12-5.48-2.35-8.75.27-1.23 1.03-1.78 2.3-1.65.77-.07 1.52-.1 2.25-.1 5.2.13 9.48 2.65 12.85 7.55m27.05-6.9c-.63 4.43-2.5 8.18-5.6 11.25-.73.73-1.55 1.43-2.45 2.1.8.07 1.58-.08 2.35-.45.2-.1.38-.2.55-.3 1.27-.73 2.5-1.63 3.7-2.7 1.67 3.77 1.82 7.5.45 11.2-.2.6-.55 1.02-1.05 1.25-1.4.73-2.78 1.13-4.15 1.2a8.7 8.7 0 0 1-3.45-.5c-1.83-.67-3.62-1.93-5.35-3.8q.195-.3.3-.6c.07-.13.13-.27.2-.4q.45-1.155.75-2.25c.73-2.83.65-5.68-.25-8.55-.07-.23-.13-.45-.2-.65l-.2-.5c2.07-2.87 4.68-5.22 7.85-7.05.6-.37 1.22-.63 1.85-.8 1.13-.37 2.3-.47 3.5-.3.93.23 1.33.85 1.2 1.85m-41.5-3.95c-1.33.3-2.72.83-4.15 1.6-1.03.53-1.7 1.4-2 2.6-1.27 5.03.47 9.65 5.2 13.85-.43.87-.82 1.75-1.15 2.65-1.37-.23-2.73-.47-4.1-.7-2.63-.43-5.37-.87-8.2-1.3-1.93-.23-3.88-.5-5.85-.8-.7-.1-1.4-.18-2.1-.25-.83-.03-1.65-.07-2.45-.1l-.75-12.6c.7-.17 1.4-.33 2.1-.5 1.83-.5 3.68-.98 5.55-1.45 1.1-.27 2.2-.53 3.3-.8a95 95 0 0 1 7.5-1.7c1.07-.2 2.08-.37 3.05-.5.83-.07 1.67-.13 2.5-.2.83-.23 1.35-.17 1.55.2m20.45 74.85c-2.3-2.03-4.57-4.08-6.8-6.15a771 771 0 0 1-7.15-6.85c-2.03-1.93-4.05-3.87-6.05-5.8l-6.9-6.7c-2.1-2.03-4.23-4-6.4-5.9-2.13-1.9-4.27-3.78-6.4-5.65-1.97-1.7-4.05-3.2-6.25-4.5l23.15-11.95c-.53 1.7-.87 3.45-1 5.25-.33 5.03 2.13 7.8 7.4 8.3 4.23-.1 7.78-1.28 10.65-3.55.4.8.78 1.62 1.15 2.45 2.53 5.33 4.98 10.72 7.35 16.15 1.63 3.8 3.1 7.67 4.4 11.6q.855 2.445 1.2 5.1.345 3 .6 6c.27 3.47.35 6.9.25 10.3-1-.83-1.98-1.67-2.95-2.5-2.1-1.87-4.18-3.73-6.25-5.6m-3.7-45.45c.67-.77 1.28-1.6 1.85-2.5.73-.1 1.47-.18 2.2-.25.63-.1 1.25-.25 1.85-.45.57-.2 1.13-.43 1.7-.7 2.07 2.23 4.52 3.92 7.35 5.05l-1.2 30.5zm16.6 45.75c-.03-1.37-.08-2.7-.15-4-.07-1.07-.08-2.12-.05-3.15.03-2.03.15-4.07.35-6.1.43-4.2.75-8.43.95-12.7.13-2.63.25-5.25.35-7.85.07-1.43.13-2.85.2-4.25.07-1.87.13-3.72.2-5.55 2.97.43 5.23-.77 6.8-3.6 2.87-5.17 2.68-10.33-.55-15.5 4.4-4.03 4.8-8.22 1.2-12.55-.47-.57-1-.95-1.6-1.15 1.1.07 2.23.17 3.4.3 1.23.13 2.47.28 3.7.45 2.5.37 5 .75 7.5 1.15 3.8.63 7.57 1.4 11.3 2.3l.35 12.5-19.65 3.9c.9.43 1.82.87 2.75 1.3 4.1 1.97 8.12 3.98 12.05 6.05 1.97 1.1 3.93 2.22 5.9 3.35.5.3 1 .62 1.5.95.43.27.88.53 1.35.8.67.43 1.35.87 2.05 1.3.47.23.97.57 1.5 1-.17.23-.35.45-.55.65-1.83 2.13-3.55 4.27-5.15 6.4-.8 1.1-1.62 2.18-2.45 3.25-1.07 1.4-2.08 2.77-3.05 4.1-.8 1.03-1.6 2.07-2.4 3.1-1.3 1.73-2.62 3.47-3.95 5.2-1.5 1.87-3.02 3.72-4.55 5.55-.5.67-1.03 1.32-1.6 1.95l-1.7 2c-2.43 2.8-4.88 5.58-7.35 8.35-2.73 3.07-5.5 6.1-8.3 9.1z"/><path d="M149.34 128.52h.15c.37 0 .82-.12 1.35-.35.8-.37 1.45-.73 1.95-1.1.47-.4.88-.77 1.25-1.1.4-.37.67-.67.8-.9.1-.2.17-.37.2-.5.03-.27-.02-.5-.15-.7-.2-.33-.47-.52-.8-.55-.06-.01-.11 0-.16 0-.1 0-.2.01-.29.06-.63.03-1.35.35-2.15.95-.83.6-1.7 1.33-2.6 2.2-.27.23-.43.48-.5.75q-.045.045 0 .15c-.07.2 0 .42.2.65q.255.345.75.45ZM88.89 93.07c.97.67 2.05 1.25 3.25 1.75-.07.07-.13.15-.2.25-.43.8-.68 1.63-.75 2.5-.07.8-.03 1.6.1 2.4.6 2.03 1.48 3.6 2.65 4.7 1 .97 2.52 1.78 4.55 2.45 2.93.97 7.03.9 12.3-.2q1.245-.195 2.55-.6c1.5-.47 2.98-1.08 4.45-1.85 1.23-.63 2.28-1.52 3.15-2.65.53-.7.85-1.52.95-2.45 0-.13.02-.32.05-.55v-.55c0-1.33-.37-2.63-1.1-3.9-.8-1.17-1.83-2.25-3.1-3.25-2.2-1.63-4.63-2.63-7.3-3-.33-.07-.67-.1-1-.1-2.03-.2-4.22-.05-6.55.45q-4.95.945-8.1 3.45c-.47.33-.9.7-1.3 1.1q-3.705-1.155-6.6-3.3c-.23-.17-.42-.22-.55-.15-.23.13-.23.45 0 .95q.9 1.395 2.55 2.55m6.25 2.55c1.03.23 2.23.42 3.6.55.07 0 .15.02.25.05-.23.27-.42.63-.55 1.1-.4 1.47-.22 2.63.55 3.5.4.47.92.72 1.55.75s1.18-.17 1.65-.6q.705-.495 1.05-1.5c.2-.67.25-1.33.15-2-.07-.37-.17-.68-.3-.95 3.1.13 6.1.07 9-.2 2.47-.2 4.25-.47 5.35-.8.17-.03.3-.07.4-.1.57.6.9 1.17 1 1.7.03.1.05.18.05.25-.03.43-.12.83-.25 1.2-.1.27-.23.55-.4.85-.23.33-.48.7-.75 1.1-.57.87-1.3 1.5-2.2 1.9-1.47.7-2.95 1.2-4.45 1.5-.07.03-.15.07-.25.1-1.9.4-4.27.63-7.1.7-1.83.03-3.62-.3-5.35-1-1.93-.7-3.27-1.63-4-2.8-.03-.13-.05-.25-.05-.35-.4-.93-.47-1.9-.2-2.9.17-.67.55-1.33 1.15-2 .03-.03.07-.05.1-.05m11.3-1.05c-3.63 0-6.7-.22-9.2-.65 1.5-1 3.42-1.72 5.75-2.15 2.7-.53 5.18-.58 7.45-.15 2.2.4 4.15 1.23 5.85 2.5-2.6.33-5.88.48-9.85.45m39.6 44.55c.53-.27 1.32-.85 2.35-1.75 1-.93 1.62-1.57 1.85-1.9.2-.37.28-.72.25-1.05-.07-.4-.25-.65-.55-.75-.23-.03-.62.05-1.15.25-.57.17-1.25.58-2.05 1.25-.8.63-1.38 1.37-1.75 2.2-.37.8-.42 1.37-.15 1.7.27.3.67.32 1.2.05m10.65-6.25c-1.23.9-2 1.67-2.3 2.3-.4.6-.53.97-.4 1.1.1.17.33.32.7.45.53.2 1.35-.12 2.45-.95 1.07-.87 1.77-1.43 2.1-1.7q.495-.45.9-1.05.345-.6 0-1.35-1.605-.195-3.45 1.2m-1.85-19.95c.03.1.15.5.35 1.2.17.67.85 1.88 2.05 3.65 1.17 1.73 2.72 3.4 4.65 5 1.93 1.57 3.97 3.03 6.1 4.4 2.17 1.33 4.68 2.52 7.55 3.55s4.97 1.55 6.3 1.55c1.8-.07 3.02-.2 3.65-.4 1.67-.47 3.8-1.57 6.4-3.3 2.47-1.6 4.87-3.82 7.2-6.65 2.33-2.77 4.07-5.42 5.2-7.95.63-1.47 1.03-3.43 1.2-5.9.13-2.33.07-3.73-.2-4.2-.47-.73-1.7-1.33-3.7-1.8-1.13-.27-3.08-.43-5.85-.5-2.8-.1-5.55-.03-8.25.2-2.7.2-4.55.33-5.55.4-4.97.27-8.68.6-11.15 1-2.47.37-4.02.63-4.65.8-.67.13-2.52.55-5.55 1.25-3.03.67-4.97 1.95-5.8 3.85-.33 1.07-.32 2.32.05 3.75-.03 0-.03.03 0 .1m47.65-6.15q-.105.645-.15 1.2c-3.23-.27-8.13-.25-14.7.05-6.6.3-12.43 1.08-17.5 2.35q-7.545 1.845-9.45 3.15-2.1-2.355-1.8-3.6c.03-.2.12-.48.25-.85.67-.43 1.5-.78 2.5-1.05 1.7-.57 3.7-1.1 6-1.6 2.3-.53 4.3-.9 6-1.1 1.67-.23 3.98-.45 6.95-.65 2.97-.23 6.17-.4 9.6-.5 3.43-.13 6.42-.12 8.95.05 1 .07 1.98.25 2.95.55.37.07.5.73.4 2m-128.55 130c.27-1.13.48-2.27.65-3.4q.105-.75.15-1.5c.03-.33.05-.67.05-1-.03-.67-.27-1.15-.7-1.45h-.8c-.2.27-.35.55-.45.85-.5 1.33-.93 2.68-1.3 4.05-.9 3.47-1.75 6.98-2.55 10.55-.11.48-.21.96-.31 1.43.89.77 1.79 1.52 2.7 2.24.09-.46.17-.92.26-1.37.26.73.52 1.46.78 2.18a97 97 0 0 0 5.91 4.23l-4.69-15.47q.15-.705.3-1.35Zm-24.75-186v.05l.15.05z"/></svg>