<svg xmlns="http://www.w3.org/2000/svg" viewBox="0 0 204.5 186.9"><path d="M93.5 168.8c-7.4 0-14.9-.7-22.3-2.1H71c-5.4-1.5-11-3-16.5-4.4h-.1c-6.1-1.8-11.9-4.6-17.2-8.2-5.5-3.7-10.6-9.3-15.1-16.7-4.5-7.2-7.3-15.1-8.2-23.2-.9-8.1-.9-16 0-23.5.7-7.3 2.4-13.8 4.9-19.3 2.5-5.3 5.6-10.6 9.3-15.7 3.5-5.3 7.6-10.1 12-14.2 4.2-4.2 8.7-8 13.3-11.4 4.8-3.6 10.5-6.8 16.9-9.6 6.2-2.9 13.4-4.9 21.3-5.9 4.3-.7 8.5-1.1 12.6-1.1s5.7.2 8.4.6c6.5.7 12.5 2 17.8 3.7 5.5 1.6 11.9 4.3 19.1 8 7.4 3.8 13.6 8.7 18.3 14.5 4.6 5.5 7.6 9.6 9.1 12.4v.3c.9 2.4 2.4 6.3 4.3 11.9l.6 2.1c2 6.7 3 11.5 3.2 14.7.2 2.8.2 6.9 0 12.2 0 5.4-1.5 12.1-4.3 19.6-2.7 6.9-6.4 13.3-11.1 19.2v.2c-3 3.1-6 6.1-8.9 8.9-4.4 3.9-9 7.5-13.8 10.9-4.8 3.5-10 6.4-15.4 8.6-5.5 2.3-11.2 4-16.9 5.1-7 1.6-14.2 2.5-21.2 2.6Zm43.9-70.5c-9 0-19.2 1.7-30.4 5-22.1 6.2-38.5 15.3-49 26.9-.7.8-1 1.3-1.2 1.6h.5s.7-.2 2.5-1.5c13.1-9.5 27.7-16.7 43.5-21.2 13.2-3.8 26.8-5.8 40.2-5.8s5.1 0 7.7.2c2.7 0 3.7-.1 4.1-.2.7-.3 1-.6 1-.8-.2-1.1-2.6-2-3.4-2.3-4.7-1.2-9.9-1.9-15.4-1.9ZM49.6 64.7c-2.3.8-2.9 1.3-2.9 1.3l-.2.2-.2.2c-1.3.9-2 2.1-2.1 3.8-.1 1.7.4 3 1.7 4.2.9.8 2.2 1.4 3.7 1.6l9.2 1.5-8.5 3.9c-.3.1-.5.2-.9.4l4.3-1.1c2.1-.7 4.2-1.2 6.3-1.6h.2l6.2-.8C74.1 77.4 80 77 84.1 77h.4l-2.7-.7 5.6-3.5c.3-.2.6-.4 1-.5 3.3-1.3 4.4-2.1 4.6-2.4 1.1-1.3 1.5-2.5 1.4-3.5-.1-.7-.4-1.5-1.7-2.3l-.7-.3c-.7-.4-2.2-.9-5.2-1.3-2-.1-4.2-.2-6.6-.2-6.6 0-14.8.5-24.5 1.5-4.5.6-5.9.9-6.2.9Zm64.5 13c.9.1 2.9.2 7.4.2 11.4.3 22.3 1.1 32.7 2.5-1.5-.4-3.1-.7-4.7-1v-5.7c1.9-.4 3.5-1 4.6-1.9 1.6-1.5 2.2-2.9 2.1-4.6V67c0-1.1-.3-2.7-2.8-4.3-1.2-.7-2.8-1.2-4.7-1.6l-2.3-.3c-1.7-.2-3.6-.4-5.8-.4s-4.7.1-7.3.4h-.1c-9.3.5-17 1.5-22.8 3-2.9.7-3.9 1.5-4.2 1.9v.2c-.6.6-.8 1.2-.7 2.1v.3c0 1 .3 1.7 1 2.4v.2c.2.2 1 .9 3.5 1.7.4.1.7.2 1 .3l8.7 3.3-5.9 1.5h.2Z" style="fill:#e95353"/><path d="M97.3 65.8c-.3-2.1-1.6-3.6-3.9-4.7-1.4-.7-3.5-1.2-6.2-1.6-7.6-.5-18.2 0-31.7 1.3-3.8.5-6 .9-6.7 1-2.1.7-3.5 1.4-4.2 2.1-2.1 1.4-3.2 3.4-3.4 6-.2 2.6.7 4.8 2.6 6.5 1.4 1.2 3.1 2 5.2 2.3 4-1.3 7.7-2.2 10.9-2.8l6.7-.8c-1.9-.2-3.3-.9-4.2-2.3-1.4-1.6-1.7-3.3-1-5.2.3-1.2 1.5-2.7 3.4-4.4 1.4-1 2.5-1.6 3.4-1.8 1.6-.5 3.2-.3 4.9.8 1 .5 1.7 1.1 2.1 1.8.5.5.9 1.7 1 3.6 0 1.9-.3 3.3-.8 4.2-.7 1-2 1.9-3.9 2.6-.3 0-.7 0-1 .3l2.8-.3c4.2-.3 7.8-.3 10.9 0 1.9.1 3.5.4 4.7.8.2 0 .3-.2.5-.3 2.9-1.2 4.8-2.2 5.7-3.1 1.7-2.1 2.4-4.1 2.1-6m57.7-5.5c-2.1-1.2-4.8-2-8-2.3-3.6-.5-8.2-.5-13.8 0-9.5.5-17.3 1.6-23.3 3.1-2.8.7-4.7 1.6-5.7 2.8-1.2 1.2-1.7 2.7-1.6 4.4 0 1.7.6 3.2 1.8 4.4.9 1 2.5 1.9 4.9 2.6.3 0 .5.2.8.3l6.5-1c11.5-.7 22.6 0 33.5 2.1 2.4-.4 4.4-1.3 6-2.6 2.2-2.1 3.3-4.4 3.1-7 0-2.8-1.4-5-4.1-6.7m-19.8 1.5c1.2.7 2 1.7 2.3 3.1.7 2.9 0 5.4-2.3 7.5-1.4 1.2-2.9 1.8-4.7 1.8s-3.6-.8-4.7-2.3c-.9-1-1.2-2.7-1-4.9l.5-2.3c.5-.9 1.6-1.8 3.1-2.8.9-.7 1.8-1 2.9-1 1.4-.2 2.7.2 3.9 1Z" style="fill:#fff"/><path d="M91.6.6c-6.2 1-12.2 2.5-17.9 4.4-6.1 1.7-11.8 4-17.4 6.7-5.5 2.8-10.7 6.1-15.6 10.1-4.8 3.8-9.2 8-13.2 12.5-4 4.7-7.6 9.7-10.9 15-3.3 5.2-6.1 10.7-8.3 16.6-2.4 5.7-4.2 11.6-5.4 17.6C1.5 89.4.7 95.3.6 101.4c-.5 2.2-.7 4.7-.5 7.3 0 2.8.3 5.7.8 8.8.7 5.2 2 10.3 3.9 15.3 1.7 5 4.2 9.9 7.3 14.5 4 6.2 9 11.5 15.1 15.8 3.5 2.8 7.3 5.6 11.4 8.6 5.7 3.8 11.8 6.8 18.4 9.1 6 1.9 12.2 3.6 18.4 4.9 6.1.5 12.2.9 18.4 1 6.1 0 12.1-.2 18.2-.5 4.2-.7 8.3-1.5 12.4-2.3 6.1-1.6 11.8-3.6 17.1-6 5.4-2.2 10.7-5 16.1-8.3 3.5-2.4 6.8-5 10.1-7.8 4.7-3.6 9.2-7.8 13.8-12.4 4-4.7 7.6-9.8 10.9-15.3 3.3-5.7 6.1-11.8 8.3-18.4 2.4-7.3 3.6-14.8 3.6-22.6s0-1.7.3-2.6c-.4-6.7-1.5-13.3-3.4-19.7-1.2-3.5-2.5-6.9-3.9-10.4-2.6-6.4-5.7-12.3-9.3-17.6-1.9-2.9-4-5.7-6.2-8.3-3.5-3.8-7.2-7.3-11.1-10.4-5.2-4.3-10.6-8.2-16.1-11.7-5.9-3.5-12.1-6-18.7-7.5C128 3 120.2 1.6 112.6.7c-3.5-.7-6.8-.9-10.1-.8-.7-.2-1.2-.2-1.6 0-.7-.2-1.4-.2-2.1 0-2.4-.2-4.8 0-7 .5m82.6 53.4c1 2.6 2.7 7.2 4.9 13.8 1.9 6.4 2.9 11.1 3.1 14 .2 2.8.2 6.7 0 11.9 0 5.2-1.4 11.4-4.1 18.7-2.6 6.6-6.1 12.7-10.6 18.4-2.9 3.1-5.9 6.1-8.8 8.8-4.3 3.8-8.8 7.4-13.5 10.6-4.7 3.5-9.6 6.2-14.8 8.3-5.4 2.2-10.8 3.9-16.3 4.9-6.9 1.6-13.8 2.4-20.8 2.6-7.3 0-14.5-.7-21.8-2.1-5.5-1.6-11.1-3-16.6-4.4-5.9-1.7-11.3-4.3-16.3-7.8-5.2-3.5-9.9-8.7-14.3-15.8-4.3-6.9-6.9-14.3-7.8-22.1-.9-7.9-.9-15.6 0-22.8.7-7.1 2.2-13.2 4.7-18.4s5.5-10.3 9.1-15.3c3.5-5.2 7.4-9.8 11.7-13.8 4.2-4.2 8.5-7.9 13-11.1 4.7-3.5 10.1-6.6 16.3-9.3 6.1-2.8 12.9-4.7 20.5-5.7 7.3-1.2 14-1.4 20.2-.5 6.4.7 12.2 1.9 17.4 3.6 5.4 1.6 11.6 4.1 18.7 7.8 7.1 3.6 12.9 8.2 17.4 13.8 4.5 5.4 7.4 9.3 8.8 11.9m-15.4 48.8c0-2.2-1.8-4-5.4-5.2-13-3.5-28.8-2.4-47.5 3.1-22.7 6.4-39.4 15.7-50.3 27.8-1.7 1.9-2.3 3.5-1.8 4.7.9 1.6 2.2 2.1 3.9 1.6.9-.2 2.1-.9 3.6-2.1 12.8-9.3 27-16.3 42.5-20.8 15.6-4.5 31.2-6.3 46.9-5.4 2.6 0 4.2 0 4.9-.3 1.9-.7 2.9-1.8 3.1-3.4M64.9 63.2c-1.9 1.7-3 3.2-3.4 4.4-.7 1.9-.3 3.6 1 5.2.9 1.4 2.2 2.2 4.1 2.3l-6.7.8c-3.2.6-6.9 1.6-10.9 2.8-.4.2-.8.3-1.3.5-3.1.9-5.6 1.9-7.5 3.1-1.6 1.2-2.8 2-3.9 2.3-1 .5-1.6 1-1.8 1.6-.2.3 0 .7.3 1 .2.3.5.6 1 .8.3 0 1.2-.2 2.6-.5 1.9-.7 4.8-1.5 8.8-2.3l7.3-1.8c2.1-.7 4.1-1.2 6-1.6l6.2-.8c7.6-.9 13.4-1.3 17.4-1.3s4.2 0 5.4-.3 2-.6 2.3-1.3c.2-.9-.3-1.7-1.6-2.6-.4-.2-.8-.4-1.3-.5-1.2-.4-2.8-.7-4.7-.8-3.1-.3-6.7-.3-10.9 0l-2.8.3c.3-.2.7-.3 1-.3 1.9-.7 3.2-1.6 3.9-2.6.5-.9.8-2.2.8-4.2-.2-1.9-.5-3.1-1-3.6-.3-.7-1-1.3-2.1-1.8-1.7-1-3.4-1.3-4.9-.8-.9.2-2 .8-3.4 1.8m51.7 11.6-6.5 1c-2.1.5-3.4 1.4-3.9 2.6 1.9 1 4.4 1.8 7.5 2.3 1.4.2 4 .3 7.8.3 14 .3 27.2 1.6 39.7 3.6 2.6.3 4.5.3 5.7 0 .4 0 .6-.3.8-.8 0-.3-.2-.6-.5-.8-1.7-1.7-4.4-3.1-8-4.2-3-.8-6-1.5-9.1-2.1-10.8-2.1-22-2.8-33.5-2.1m21.1-9.4c-.4-1.4-1.1-2.4-2.3-3.1-1.2-.9-2.5-1.2-3.9-1-1 0-2 .3-2.9 1-1.6 1-2.6 2-3.1 2.8l-.5 2.3c-.2 2.2.2 3.9 1 4.9 1 1.6 2.6 2.3 4.7 2.3s3.3-.6 4.7-1.8c2.2-2.1 3-4.6 2.3-7.5Z"/></svg>