<svg xmlns="http://www.w3.org/2000/svg" id="a" viewBox="0 0 253 291.35"><defs><style>.c{fill:#5f6450}.g{fill:#ac9161}</style></defs><path d="m141.59 255.52-.06-.27-.25-.54-.59.04-.37.45c-.21.25-.41.54-.6.85-.58.94-1.08 2.15-1.54 3.66-.76 2.59-1.14 5.08-1.13 7.4v.08c1.84-.21 3.65-.48 5.45-.8.07-.79.1-1.54.09-2.29 0-2.44-.34-5.33-1.01-8.6Z" style="fill:#25293b"/><path d="m194.26 228.75-.3-3.85c-.13-1.73-.32-3.5-.55-5.23-.23-1.97-.5-3.87-.81-5.65-.3-1.54-.62-3.11-.95-4.71-.3-1.4-.6-2.79-.9-4.15-.32-1.45-.58-2.92-.77-4.38l3.16-1.21c2.78-1.24 4.14-2.27 4.41-3.33l.1-.42-.32-.29c-.41-.38-.82-.73-1.27-1.11-.47-.34-.97-.65-1.49-.93-.52-.38-1.06-.71-1.68-1.01-1.28-.47-2.58-.88-3.83-1.21q-2.31-.75-4.74-1.32c-1.07-.2-2.11-.4-3.2-.61-1.41-.17-2.81-.32-4.21-.45-1.27-.13-2.53-.25-3.78-.35l-3.27-.2a76 76 0 0 0-5.5 0c-1.27.03-2.55.08-3.78.15-.36 0-.71.02-1.03.05l-1.01.12 1.42 2.9c.54 1.44.67 2.65.37 3.64 0 .03-.08.31-.77 1.17-.43.56-.92 1.06-1.43 1.48-.65.52-1.32 1.01-1.96 1.44l-13.2 7.51 1.4 1.17.68.57c.28.21.57.42.88.62.63.43 1.28.88 1.93 1.34.49.36.98.74 1.44 1.1.67.61 1.33 1.28 1.94 1.98.72.84 1.32 1.81 1.8 2.89.36.74.55 1.55.58 2.42.03.81-.08 1.63-.32 2.43-.22.77-.53 1.53-.95 2.26-.42.8-.9 1.59-1.47 2.39-.29.46-.6.91-.93 1.37l-20.88 28.7h-.57l.19.87c.1.45.18.9.25 1.38.09.51.16 1.03.19 1.58.17 1.86.32 3.74.45 5.63l.09 1.48.05.95c2.49-.08 4.94-.26 7.36-.54v-.08c-.01-2.32.37-4.81 1.13-7.4.45-1.51.96-2.72 1.54-3.66.06-.14.11-.27.17-.41.26-.62.5-.78.63-.85.05-.03.11-.04.17-.04l.72-.04.12.54c.15.25.34.73.54 1.68.57 3.42.76 6.53.58 9.27v.18c8.81-1.58 17.17-4.5 25.05-8.74l.09-.86.4-4.51.3-4.19c.17-1.92.3-3.86.4-5.78l.1-2.16.1-3.51c.03-2.07.05-4.14.05-6.2l.1-6.8c.03-1.8.05-3.61.05-5.41.03-4.3-.07-8.67-.3-13-.03-.48-.03-.95 0-1.43h.01l.1.02.18.18c.05.12.17.43.46 1.26.29.84.49 1.47.58 1.86.23 1.1.43 2.28.59 3.5.23 1.82.42 3.69.55 5.57.16 1.9.3 3.84.4 5.77.1 2.01.15 4.05.15 6.08.03 2.06.05 4.14.05 6.24v3.7c0 .27-.02.55-.05.9v.2l-.4 6.36c-.17 3.24-.38 6.57-.65 9.88l-.04.52c8.45-5.02 16.34-11.61 23.67-19.79l-.04-1.7c-.07-1.84-.17-3.79-.3-5.78Z" class="c"/><path d="m128.91 262.87-.43-7.3-.42-.17c-.15-.06-.28-.12-.37-.16-1-.57-1.99-1.12-2.96-1.65-.96-.53-1.91-1.06-2.83-1.59-1.73-1.03-3.45-2.05-5.14-3.04-1.5-.93-2.99-1.85-4.44-2.74-1.26-.83-2.51-1.66-3.75-2.5-1.66-1.1-3.3-2.23-4.87-3.38-1.56-1.13-3.08-2.3-4.52-3.48-1.4-1.13-2.77-2.3-4.07-3.48a98 98 0 0 1-3.76-3.56c-.84-.88-1.63-1.8-2.35-2.74a24 24 0 0 1-1.69-2.56c-.54-.99-.83-2.11-.86-3.31 0-.84.09-1.66.28-2.43.12-.5.3-.98.53-1.41.29-.51.6-1.02.92-1.5.91-1.33 1.9-2.58 2.93-3.71.69-.72 1.35-1.52 1.94-2.35.28-.35.54-.69.78-1.04l.58-.82-14.84-4.38-1.42-.47c-.73-.35-1.43-.74-2.06-1.14a13.7 13.7 0 0 1-2.17-1.84c-.24-.26-.4-.54-.5-.85-.25-.75-.42-1.53-.52-2.28-.02-.3-.02-.6.01-.9l6.87-6.49-2.25.33c-2.54.37-5.07.75-7.61 1.15-.83.13-1.65.27-2.46.4-1.54.27-3.08.55-4.62.85l-4.43.91c-1.91.47-3.79.95-5.68 1.46l-5.42 1.61c-1.74.57-3.46 1.15-5.18 1.76-1.68.64-3.34 1.37-4.85 2.15-.61.23-1.19.58-1.72 1.03l-.22.19-.03.29c-.09.98.27 1.8 1.05 2.4.24.17.51.35.79.53 1.94 1.2 3.89 2.4 5.91 3.63.15.07.3.18.48.33.48.37.97.77 1.46 1.19.06.44.13.94.22 1.53.02.08.01.18 0 .31-.27 1.96-.51 3.93-.75 5.92a123 123 0 0 0 11.37 15.76c4.21 4.96 8.62 9.39 13.21 13.28l.09-.36.25-1.04.6-2.58c.5-1.94.98-3.86 1.45-5.76q.645-2.7 1.35-5.49c.67-2.63 1.33-5.25 1.99-7.81q.12-.39.3-.78c.15.42.23.86.25 1.33l.1.98c0 .34-.02.69-.05 1.02-.06.6-.16 1.22-.29 1.85-.13.73-.28 1.47-.45 2.25-.17.89-.35 1.78-.55 2.68l-.7 3.28a31 31 0 0 0-.67 3.96c-.14 1.66-.15 3.36-.05 5.06.12 1.54.28 3.12.47 4.7 15.67 11.92 33.42 17.89 53.26 17.89.92 0 1.83-.01 2.74-.04l-.04-.87c-.06-1.34-.12-2.67-.2-4.01Z" class="c"/><path d="M127.52 253.73c-2-1.2-4-2.38-5.99-3.54-.9-.54-1.78-1.05-2.65-1.55-.85-.51-1.67-1.01-2.47-1.51-1.91-1.24-3.81-2.45-5.7-3.65-5.6-3.5-10.94-7.5-15.84-11.87a51 51 0 0 1-5.13-5.38c-1.11-1.36-1.8-2.86-2.06-4.44-.19-1.36.02-2.63.62-3.79.99-1.95 2.31-3.78 3.93-5.42.62-.62 1.21-1.27 1.75-1.95.35-.44.63-.93.84-1.46.23-.65.37-1.32.4-1.97.03-.33 0-.6-.11-.87-.1-.24-.24-.51-.43-.78-.1-.1-.22-.2-.35-.3-.15-.09-.38-.2-.6-.29-.37-.18-.66-.3-.95-.38l-1.31-.4c-2.1-.52-4.21-1.06-6.31-1.59-2.06-.65-4.07-1.33-6.01-2.02-.69-.24-1.35-.52-1.98-.83-.75-.42-1.22-1.12-1.43-2.09l-.08-.39.78-.78c.37-.43.79-.91 1.23-1.38.76-.76 1.54-1.47 2.32-2.12.99-.89 2.04-1.78 3.12-2.61.52-.43 1.09-.86 1.68-1.27.35-.25.7-.47 1.04-.68.23-.18.54-.38.87-.56.19-.14.44-.3.69-.45.26-.16.55-.33.84-.47.32-.17.65-.38.96-.6l.07-.05.89-.33c2.07-1.09 4.33-2.22 6.64-3.33l.91-.44.11 1c.2 1.74.48 3.5.84 5.24.22 1.02.53 2.06.92 3.09.49 1.18.99 2.4 1.49 3.63.7 1.69 1.41 3.41 2.15 5.14.41 1.05.82 2.1 1.25 3.16.43.99.86 2.01 1.3 3.04q.6 1.395 1.2 2.85c.37.9.75 1.79 1.14 2.68l2.1 4.91c.58 1.37 1.22 2.79 1.89 4.23.8 1.78 1.55 3.46 2.26 5.06.36.83.74 1.65 1.14 2.48l14.29 26.38zm1.95-2.24c.1-.96.18-1.92.25-2.88l.3-3.22c.1-1.12.18-2.23.25-3.33.1-1.21.18-2.4.25-3.6.07-1.58.12-3.16.15-4.73.07-1.84.12-3.65.15-5.45v-4.04c.03-1.44.05-2.86.05-4.25.03-1.54.05-3.05.05-4.55v-9.95l.1-23.89.9.24c.87.24 1.68.51 2.39.81.52.13 1.04.29 1.56.49.37.07.73.15 1.1.25.45.14.89.27 1.36.4l5.19 1.4c1.77.58 3.54 1.22 5.28 1.93 1.29.46 2.62 1.05 3.92 1.73.77.42 1.53.91 2.25 1.46.57.47 1.1.96 1.59 1.48.23.23.49.52.74.85l.19.19.26.26-.06.36c-.04.26-.12.52-.25.81-.36.87-.98 1.58-1.85 2.09a179 179 0 0 1-12.64 7.12c-.68.39-1.33.88-1.92 1.47-.32.32-.5.67-.54 1.08-.08.55.02 1.03.3 1.49.52.82 1.19 1.57 1.99 2.21 2.04 1.71 4.12 3.4 6.2 5.05.48.44.92.87 1.36 1.31.83.87 1.18 1.86 1.06 2.94-.11.76-.29 1.5-.54 2.21-.13.43-.31.9-.53 1.36l-.82 1.54c-.28.52-.59 1.05-.94 1.56-.68 1.14-1.43 2.32-2.2 3.5-.84 1.31-1.72 2.63-2.61 3.91-1.04 1.44-2.07 2.89-3.1 4.36-1.1 1.54-2.2 3.08-3.3 4.65-.93 1.29-1.85 2.61-2.74 3.94l-2.2 3.3c-.56.86-1.11 1.72-1.64 2.58l-1.33-.45Z" class="c"/><path d="m110.52 211.4 3.55-5.48 6.48 9.46.06 1.99-2 11.89zm8.08-11.69s1.33-1.64 1.73-2.14c.8-1 1.58-1.99 2.34-2.99 1.51-2 3-4.07 4.43-6.17l1.34-1.96-.18 20.15-9.65-6.9Zm-17.04-9.42.13-2.36 1.06.74c.35.24.69.5 1.04.78.81.58 1.65 1.2 2.49 1.84q1.605 1.2 3.21 2.46 1.905 1.5 3.81 3.06c1.2.96 4.17 3.37 4.17 3.37l-.38.55c-.47.67-.96 1.35-1.46 2.02l-1.08 1.58c-.55.84-1.1 1.72-1.62 2.61l-2.52 4.34-8.82-20.99Zm25.44 36c-.54-1.04-1.05-2.09-1.52-3.13a41.8 41.8 0 0 0-4.47-7.36l-.23-.3 3.59-10.61 3.83 2.92.15 18.15-1.36.34Z" style="fill:#9cbcad"/><path d="M53.8 177.02c-1.13 0-2.09-.57-2.86-1.7-1.08-1.67-1.87-3.4-2.35-5.17-.57-1.95-.98-3.94-1.22-5.9-.17-1.58-.3-3.17-.4-4.74-.1-1.75-.15-3.51-.15-5.25-.03-1.79-.03-3.6 0-5.36.07-1.82.15-3.61.25-5.38.13-1.85.29-3.67.45-5.48.2-1.85.42-3.67.65-5.48.27-1.88.57-3.77.9-5.63.33-1.87.71-3.76 1.1-5.62.4-1.89.84-3.81 1.3-5.72.33-1.4.71-2.82 1.11-4.23.4-1.46.82-2.93 1.25-4.41.47-1.54.94-3.06 1.4-4.56q.75-2.415 1.56-4.77c.47-1.37.95-2.74 1.46-4.12.6-1.73 1.26-3.46 1.96-5.13.77-1.78 1.62-3.56 2.52-5.3.31-.59.67-1.17 1.05-1.73 1.06-1.65 2.19-3.31 3.36-4.92l.5-.68.1.1c.45-.53.9-1.06 1.33-1.6.57-.7 1.17-1.4 1.77-2.08.4-.5.81-1.02 1.21-1.55l.03-.04.04-.04c.27-.27.53-.58.78-.91l.42-.53 1.95-1.96 2.82-2.62c.45-.38.9-.74 1.37-1.07.31-.3.63-.59.97-.86l.59-.49.46-.31.12-.03c.21-.05.34-.15.44-.35.19-.29.17-.43.17-.48-.12-.1-.21-.19-.31-.24-.49-.21-1.04-.35-1.61-.37h-.07l-.07-.02c-1.25-.32-2.52-.53-3.78-.63-.41-.01-.85-.02-1.29-.02s-.88 0-1.32.02l-1.01.1c-.72.04-1.4.08-2.05.15-1.05.07-2.06.15-3.05.25l-3.68.2h-.19c-1.59 0-2.93-.52-4-1.55-.69-.65-.99-1.53-.86-2.56.07-.3.15-.49.26-.66.51-.59.98-1.08 1.46-1.53.91-.73 1.84-1.33 2.82-1.82 1.12-.61 2.34-1.09 3.6-1.4 1.34-.43 2.76-.8 4.17-1.11h.05l.05-.01c1.53-.11 3.09-.16 4.64-.16.39 0 .78 0 1.17.01 1.7 0 3.43.19 5.14.57 1.62.19 3.31.5 4.97.9 2.83.8 5.71 1.78 8.58 2.91-.06-.52-.15-1.06-.25-1.57-.19-.77-.43-1.53-.71-2.23-.19-.51-.4-.95-.65-1.35-.39-.73-.77-1.41-1.15-2.06l-1.19-1.89c-.22-.3-.49-.64-.78-.95a7.7 7.7 0 0 0-1.03-1.03c-.6-.59-1.16-1.12-1.72-1.61-1.52-1.45-3.02-2.87-4.51-4.26a27.7 27.7 0 0 1-4.62-5.7c-.35-.59-.33-1.22.07-1.79.11-.16.26-.32.44-.44l1-.5 3.25-.32.11.03c1.18.27 2.39.61 3.57 1.02 1.02.39 2 .86 2.93 1.41.91.5 1.81 1.1 2.67 1.75.9.73 1.76 1.5 2.57 2.31.83.87 1.59 1.78 2.28 2.74 1.17 1.57 2.26 3.25 3.24 4.96 1.14 2.11 2.23 4.25 3.27 6.39.11.25.22.49.35.74.34.77.74 1.55 1.22 2.35.12.17.24.34.34.51.37-.22.73-.47 1.1-.76.51-.37.85-.82 1.07-1.39.08-.21.07-.45-.02-.73-.57-2.19-1.16-4.34-1.75-6.47-.6-2.19-1.25-4.38-1.94-6.52-.2-.59-.4-1.17-.59-1.73-.16-.44-.33-.87-.52-1.29-.67-1.76-1.11-3.57-1.31-5.42a6.26 6.26 0 0 1 .51-3.42c.47-.99 1.22-1.59 2.18-1.76l.12-.02.12.02c.52.07 1.02.21 1.51.39.93.41 1.77.96 2.52 1.64 1.1.9 2.16 1.96 3.12 3.13.92 1.05 1.84 2.2 2.72 3.38.62.94 1.22 1.89 1.79 2.87.72 1.14 1.45 2.36 2.15 3.61.4.7.8 1.46 1.17 2.24.74 1.65 1.42 3.37 2.03 5.13.6 1.63 1.14 3.33 1.61 5.05.3.99.6 2.02.9 3.1l.8 3.22c.14.65.28 1.27.45 1.89.11.53.22 1.04.35 1.56.14.63.26 1.24.36 1.85.67 3.88 1.29 7.8 1.85 11.67.24 1.55.41 3.13.51 4.71.2 3.11.5 6.19.9 9.15.2 1.63.31 3.21.31 4.7v.44l-.4.2c-.52.26-1.02.53-1.5.82-.75.54-1.51 1.19-2.21 1.89-.69.69-1.31 1.47-1.85 2.32-.26.43-.47.92-.61 1.46-.19.65-.34 1.31-.43 2-.06.37-.08.73-.05 1.1.1.86.58 1.48 1.49 1.91.61.27 1.34.51 2.16.7l.33.08.15.3c.07.13.15.25.27.36.33.33.71.63 1.13.9.43.23.92.48 1.44.74.46.15.94.31 1.44.46.61.1 1.22.21 1.82.34.86.03 1.71.08 2.57.15l3.27-.1c.9-.13 1.89-.25 2.9-.35 1.19-.18 2.39-.54 3.53-1.04.67-.27 1.33-.49 1.99-.68-.98.2-1.95.39-2.9.59-.88.11-1.71.22-2.53.36-.9.1-1.75.2-2.58.3-.64 0-1.17.02-1.69.05h-.09c-1.44 0-2.86-.03-4.24-.1-.63-.04-1.35-.18-2.13-.43l.14-1.4c1.74-.2 3.48-.48 5.18-.84 1.64-.38 3.24-.91 4.77-1.56.69-.35 1.48-.59 2.29-.7 1.66-.36 3.42-.63 5.18-.8 1.36-.17 2.75-.32 4.15-.45l3.1-.3c3.4-.23 6.77-.54 10.04-.9 3.8-.37 7.66-.67 11.49-.9 3.23-.2 6.43-.42 9.59-.65l4.4-.3c1.89-.07 3.78-.1 5.65-.1 1.64 0 3.32.05 4.99.15h.07l.07.02c.9.24 1.78.56 2.61.94.82.43 1.5.97 2.05 1.64a7.3 7.3 0 0 1 1.24 2.57c.37 1.25.63 2.58.77 3.91.2 1.64.3 3.33.3 5.02s-.08 3.33-.25 4.97c-.2 1.7-.49 3.39-.86 5.03a99 99 0 0 1-1.46 5.45c-.37 1.18-.8 2.36-1.27 3.52-.48 1.13-1.01 2.22-1.58 3.27-.84 1.57-1.76 3.14-2.73 4.64-.74 1.21-1.56 2.39-2.44 3.51l-4.4 5.5c-2.03 2.5-4.32 4.76-6.82 6.72a59 59 0 0 1-4.6 3.29l-.87.56-.22-1.01c-.08-.35-.12-.71-.12-1.06-.07-2.62.12-5.27.56-7.87.07-.43.03-.79-.13-1.1-.05-.06-.1-.11-.14-.17s-.95 0-.95 0c-1.28 1.13-2.57 2.29-3.83 3.46a83 83 0 0 1-11.81 8.88c-2.76 1.72-5.79 3.17-8.99 4.32-1.65.58-3.31.98-4.95 1.19-1.73.2-3.45.42-5.14.65l-1.02.03-3.63.08c-1.22 0-2.4-.02-3.57-.05l-4.36-.5c-1.13-.17-2.21-.34-3.28-.5l-4.4-.7c-1.21-.27-2.35-.52-3.48-.76-1.43-.37-2.83-.72-4.22-1.05-1.65-.51-3.23-1.01-4.8-1.51-1.33-.48-2.62-.99-3.87-1.52a87 87 0 0 1-4.05-1.6c-1.39-.68-2.76-1.37-4.1-2.07-1.46-.73-2.91-1.49-4.31-2.26-1.68-.97-3.33-1.92-4.96-2.86a74 74 0 0 1-2.79-1.78c-.99-.62-1.97-1.29-2.92-1.96a49.2 49.2 0 0 1-7.04-5.93c-1.52-1.49-3.08-3.06-4.61-4.66l-.18-.19-.02-.26c-.07-.88-.12-1.73-.15-2.58l-.1-1.48-.2-5.07c-.03-1.58-.05-3.14-.05-4.68 0-1.41.03-2.82.1-4.19.07-1.56.17-3.15.3-4.73.1-.99.22-1.95.35-2.89.25-1.67.32-3.35.21-4.99-.47 1.65-.87 3.34-1.19 5.02l-.6 3.3c-.2 1.06-.38 2.14-.55 3.23-.16 1.05-.3 2.11-.4 3.16-.13 1.08-.25 2.14-.35 3.2-.1 1.03-.18 2.07-.25 3.13-.07 1.03-.12 2.05-.15 3.08-.03.99-.05 1.98-.05 2.98.03 1.17.08 2.38.15 3.61.07 1.81.15 3.62.25 5.45.1 1.8.18 3.62.25 5.46.1 1.94.1 3.9 0 5.81-.03.93-.1 1.89-.2 2.84-.17 1.67-.52 3.31-1.03 4.85-.62 1.87-1.6 3.66-2.92 5.32-.96 1.13-1.95 2.2-2.96 3.21-.93 1-1.97 1.97-3.06 2.85-1.06.85-2.2 1.65-3.38 2.36-1.13.7-2.29 1.39-3.46 2.06-.73.39-1.41.58-2.05.58Zm96.04-42.73c-.11.02-.33.06-.7.2-.37.11-.94.38-1.84 1.13-.72.57-1.24 1.22-1.55 1.94-.25.54-.25.77-.24.83v.18h.02c.04 0 .14-.02.3-.1.33-.16.97-.58 2.2-1.65 1.24-1.16 1.62-1.61 1.73-1.77.09-.17.14-.38.12-.57v-.1s-.02-.08-.03-.1Zm4.96 1.65c.05.03.13.06.23.1h.05c.27 0 .76-.12 1.72-.85 1.05-.85 1.75-1.42 2.09-1.69.25-.23.52-.54.75-.89a.54.54 0 0 0 .08-.3v-.05c-.76.03-1.59.4-2.49 1.08-1.42 1.03-1.92 1.68-2.08 2.03l-.02.05-.03.04c-.15.23-.24.38-.28.48Zm1.18-22.02c.11.42.52 1.34 1.95 3.44 1.12 1.67 2.64 3.3 4.51 4.85 1.9 1.54 3.93 3 6.03 4.35 2.1 1.29 4.6 2.47 7.41 3.48 2.77 1 4.81 1.51 6.06 1.51 2.12-.08 3.04-.24 3.43-.37 1.61-.45 3.69-1.53 6.22-3.21 2.4-1.56 4.77-3.75 7.04-6.51 2.28-2.71 4-5.32 5.1-7.79.59-1.37.98-3.28 1.14-5.65v-.05c.03-.8.07-1.46.1-1.99l-.05-1.02-.05-.16c-.05-.55-.12-.69-.13-.7-.17-.25-.86-.87-3.22-1.42-1.08-.25-3-.42-5.7-.48-.84-.03-1.67-.04-2.49-.04-1.91 0-3.82.08-5.68.24-2.71.2-4.56.33-5.56.4-4.93.26-8.65.6-11.08.99-2.44.36-3.98.63-4.58.79-.71.14-2.57.56-5.57 1.26-2.79.61-4.57 1.77-5.3 3.44-.08.26-.14.62-.14 1.01l-.04.41.04.42c0 .49.07.93.21 1.38l1.06 1.06h-.8c.03.12.07.24.11.38Zm-6.39 13.87c.18 0 .51-.05 1.06-.29.74-.34 1.36-.69 1.81-1.02.42-.36.83-.72 1.19-1.05.45-.41.61-.63.66-.72.05-.11.09-.19.11-.25v-.2s-.02-.08-.05-.13c-.12-.19-.2-.2-.26-.21h-.09l-.12.06h-.12c-.49.02-1.08.29-1.76.8-.81.58-1.66 1.3-2.53 2.14a1.1 1.1 0 0 0-.26.3l.04.04-.06.28.06.09s.07.1.25.15h.07Zm-37.58-24.33-1.4 1.2a35.3 35.3 0 0 1-4.63 3.51 45.4 45.4 0 0 1-7.93 3.87c-.37.11-.68.21-.97.31-1.15.43-2.24.81-3.25 1.15-.97.37-1.94.74-2.91 1.12.39-.03.77-.1 1.15-.2 1.95-.25 3.81-.63 5.64-1.15 2.67-.75 5.29-1.85 7.79-3.28 3.1-1.79 6-3.96 8.61-6.45 2.17-2.1 3.77-4.62 4.77-7.46.16-.43.13-.79-.08-1.13l-.12-.19v-.22c.04-.89 0-1.79-.14-2.67-.08-.59-.29-1.11-.62-1.59-1.02-1.38-2.38-2.05-4.15-2.05h-.33c-1.46.13-2.94.36-4.37.68-1.69.21-3.27.55-4.79 1.03-1.42.4-2.78.89-4.07 1.47-1.63.67-3.23 1.4-4.77 2.18-.64.35-1.32.74-2.02 1.13a23.8 23.8 0 0 0-5.45 4.98c-.72.93-1.19 1.97-1.4 3.08-.07.27-.04.55.08.87.1.15.2.32.31.52.17.35.35.73.52 1.15.25.47.64.88 1.17 1.22 1.31.8 2.73 1.21 4.18 1.21.59 0 1.21-.07 1.83-.2 2.02-.24 3.96-.51 5.84-.81 3.86-.71 7.45-2.2 10.65-4.43l.88 1.14Z" class="g"/><path d="M117.35 198.74q-1.11-.855-2.16-1.71c-1.16-.93-2.32-1.84-3.49-2.74-1.09-.86-2.21-1.7-3.33-2.48-1.18-.85-2.42-1.64-3.69-2.36-1.28-.79-2.36-1.55-3.25-2.27l-.23-.19-2.87-26.88 1.19.62c1.85.96 3.73 1.86 5.61 2.68 1.39.55 2.85 1.08 4.34 1.58 1.46.57 2.92 1.11 4.4 1.6l4.47 1.29c3.18.95 6.44 1.63 9.69 2.03l.64.08-.21 15.73-.14.19c-2.89 3.78-5.87 7.64-8.85 11.46-.34.45-.73.89-1.16 1.32l-.45.45-.5-.39Z" class="g"/><path d="M91.99 105.39c-1.6-.15-2.92-.66-4-1.51l-.37-.29.12-.46c.14-.52.29-1.02.47-1.51.59-1.82 1.58-3.41 2.93-4.72 1.35-1.32 2.92-2.39 4.65-3.19 1.33-.67 2.79-1.27 4.32-1.78 1.73-.54 3.5-.99 5.29-1.32 2.01-.18 3.95-.33 5.88-.46 1.33.07 2.58.15 3.86.25h.08l.08.03c.86.27 1.44.84 1.67 1.63.37 1.11.13 2.23-.69 3.21a20 20 0 0 1-5.85 4.97c-.82.44-1.62.86-2.43 1.27-1.53.9-3.26 1.68-5.09 2.29-1.43.48-2.95.84-4.52 1.08l-4.77.51h-1.64Zm5.23-6.4c-.56.52-.41.85-.33 1.03.05.13.13.37.73.49.12.02.23.04.35.04.27 0 .59-.06.94-.17.51-.11.87-.22 1.15-.36l.56-.33c.35-.16.66-.25 1.01-.33 1.19-.37 2.21-.77 2.96-1.18.46-.22.75-.47.91-.76.12-.18.16-.35.16-.56 0-.19-.03-.34-.09-.39q-.21-.21-.69-.24c-.29-.04-.5-.06-.71-.06-.28 0-.55.03-.82.09l-3.81 1.3-2.32 1.42Zm33.72 5.4c-1.47 0-2.86-.21-4.13-.64l-1.52-.63-.79-1.81.13-.29c.24-.55.43-1.13.55-1.75.27-1.2.87-2.2 1.78-3 1.36-1.12 2.88-2.06 4.53-2.81 1.33-.49 2.67-.91 4.02-1.24 1.47-.4 3.01-.73 4.57-.96h.1c1.5 0 3.01.14 4.48.41.98.06 2.01.36 3 .87.99.5 1.47 1.38 1.33 2.48-.11 1.15-.52 2.18-1.21 3.02-1.17 1.45-2.71 2.57-4.59 3.31-1.37.57-2.76 1.09-4.13 1.56-1.39.41-2.79.78-4.16 1.12h-.06l-.06.02c-1.26.1-2.52.22-3.78.35h-.08Zm.46-7.25c-.19.12-.39.27-.55.43-.54.43-.73.7-.82.86-.21.39-.28.75-.23 1.14.09.43.28.79.57 1.06.19.19.39.31.63.41.12.04.3.08.49.11.07 0 .15.01.23.01.33 0 .63-.08.93-.24l.81-.43 1.67-.52c.81-.36 1.2-.6 1.37-.73.18-.15.35-.32.49-.49.06-.12.15-.33.2-.54.09-.5-.04-.92-.41-1.29-.36-.41-.86-.67-1.53-.8h-.13c-.39 0-.83.06-1.3.18-.2.04-.34.07-.46.1-.51.1-.94.21-1.32.35l-.65.37Z" style="fill:#fff"/><path d="M160.25 114c-1.38-1.52-2.02-2.71-1.99-3.71l-.11-.44.16-.2c.03-.16.12-.46.25-.83l.08-.23.2-.13c.73-.47 1.64-.86 2.71-1.14 1.67-.56 3.72-1.1 6.03-1.61 2.31-.53 4.35-.91 6.07-1.11 1.66-.23 4.01-.45 6.99-.65 2.95-.23 6.2-.4 9.63-.5 1.52-.06 2.98-.09 4.33-.09 1.69 0 3.27.05 4.68.14 1.04.07 2.07.26 3.08.57.56.12.89.64.99 1.57v.8l-.03.11s-.01.05-.01.12v.21c-.07.42-.12.8-.15 1.16l-.06.71-.71-.06c-1.49-.12-3.38-.19-5.61-.19-2.52 0-5.55.08-9 .24-6.52.3-12.36 1.08-17.36 2.33-4.93 1.21-8.03 2.23-9.22 3.05l-.52.35-.42-.47Z" style="fill:#d6dee8"/><path d="M193.84 206.52c-.4-1.3-.93-2.5-1.6-3.6 1.77-.93 3.53-1.85 5.3-2.75q.3-.195.6-.45c.37-.27.68-.55.95-.85.37-.47.65-.95.85-1.45.2-.53.28-1.07.25-1.6-.07-.77-.28-1.47-.65-2.1-.43-.77-1-1.42-1.7-1.95-.87-.7-1.78-1.3-2.75-1.8-3.87-1.93-7.83-3.18-11.9-3.75-6.57-1.03-13.15-1.48-19.75-1.35-2.67.07-5.32.38-7.95.95-1.47-.7-2.95-1.35-4.45-1.95-1.7-.67-3.42-1.23-5.15-1.7-1.2-.4-2.45-.78-3.75-1.15-2.83-.67-5.67-1.35-8.5-2.05-.63-.2-1.27-.33-1.9-.4l-.3-7.5c1.73.1 3.48.22 5.25.35l6.9.1c1.7-.2 3.4-.38 5.1-.55q1.995-.45 4.05-.9c3.83-.93 7.5-2.47 11-4.6a80 80 0 0 0 7.5-5.4c2.9-2.33 5.57-4.82 8-7.45.53-.57 1.07-1.13 1.6-1.7-.2 1.07-.38 2.15-.55 3.25-.2 1.33-.33 2.7-.4 4.1-.03.43 0 .85.1 1.25.1.43.28.82.55 1.15s.6.62 1 .85c.3.2.65.33 1.05.4.3.13.62.13.95 0q1.605-.15 3.15-.75c1.13-.4 2.22-.97 3.25-1.7 1.63-1.17 3.17-2.43 4.6-3.8 1.77-1.7 3.48-3.45 5.15-5.25 1.27-1.37 2.45-2.78 3.55-4.25 1.1-1.43 2.1-2.92 3-4.45 1.23-2 2.37-4.03 3.4-6.1.77-1.57 1.43-3.17 2-4.8.6-1.8 1.07-3.53 1.4-5.2.33-1.53.63-3.05.9-4.55.27-1.53.52-3.07.75-4.6.43-3.07.55-6.17.35-9.3-.1-1.43-.32-2.82-.65-4.15-.3-1.3-.77-2.5-1.4-3.6s-1.38-2.12-2.25-3.05c-.47-.5-.98-.92-1.55-1.25-.83-.53-1.72-.97-2.65-1.3-.3-.17-.62-.28-.95-.35-.4-.03-.78-.05-1.15-.05-.8-.07-1.58-.12-2.35-.15h-2.5c-1.07-.03-2.12-.05-3.15-.05h-3.75c-1.3 0-2.58.02-3.85.05-4.17.07-8.28.3-12.35.7-5.5.47-11 1.05-16.5 1.75-3.23.47-6.47.92-9.7 1.35.23-.87.47-1.73.7-2.6.13-.6.05-1.17-.25-1.7q-.405-.75-.9-1.35c-.8-.87-1.78-1.45-2.95-1.75q-2.895-.795-5.85-.45-4.05.45-7.8 1.65c-.33-3.5-.62-6.93-.85-10.3-.37-5.6-.98-11.1-1.85-16.5q-1.005-6-2.55-11.7c-.63-2.4-1.42-4.85-2.35-7.35-.4-1.03-.78-2.07-1.15-3.1-.53-1.57-1.15-3.1-1.85-4.6-.57-1.27-1.17-2.53-1.8-3.8-.27-.6-.57-1.17-.9-1.7-.67-1.1-1.35-2.18-2.05-3.25q-1.095-1.545-2.25-3c-.8-.9-1.65-1.73-2.55-2.5-.8-.7-1.65-1.32-2.55-1.85a13.3 13.3 0 0 0-2.7-1c-.77-.27-1.53-.45-2.3-.55-2.2-.03-3.87.92-5 2.85-.83 1.53-1.12 3.15-.85 4.85.57 3.43 1.48 6.73 2.75 9.9-.8-1.6-1.82-3.07-3.05-4.4-1.27-1.47-2.67-2.7-4.2-3.7-1.43-.93-2.97-1.75-4.6-2.45-1.1-.53-2.23-.97-3.4-1.3s-2.33-.58-3.5-.75c-.63 0-1.25.08-1.85.25-1.17.2-2.3.52-3.4.95-.5.27-.93.62-1.3 1.05a6.6 6.6 0 0 0-1.25 2.25q-.345 1.05-.15 2.25c.13.73.4 1.43.8 2.1 1.33 2.37 2.95 4.47 4.85 6.3a85 85 0 0 0 4.9 4.45c.83.67 1.6 1.42 2.3 2.25q1.395 1.605 2.4 3.3c-2.9-1.4-5.92-2.32-9.05-2.75-1.87-.23-3.72-.35-5.55-.35s-3.63.18-5.4.55c-1.83.23-3.62.63-5.35 1.2-1.67.63-3.3 1.37-4.9 2.2-.43.2-.83.43-1.2.7-.33.23-.65.48-.95.75-.57.43-1.05.93-1.45 1.5-.47.7-.8 1.45-1 2.25-.2.7-.23 1.4-.1 2.1.17.8.47 1.57.9 2.3.33.53.72 1.05 1.15 1.55 1.03 1.07 2.3 1.72 3.8 1.95q3.645.195 7.35-.45c1.9-.37 3.82-.62 5.75-.75q-2.445 2.655-4.8 5.4c-1.2 1.47-2.33 2.97-3.4 4.5q-1.245 1.695-2.4 3.45c-.43.67-.85 1.33-1.25 2a65 65 0 0 0-2.25 4.2c-.93 1.8-1.83 3.63-2.7 5.5-.43 1-.85 2-1.25 3a90 90 0 0 0-1.25 3.15c-.83 2.2-1.63 4.43-2.4 6.7-.6 1.8-1.18 3.63-1.75 5.5-.7 2.17-1.33 4.28-1.9 6.35-.4 1.53-.82 3.07-1.25 4.6-.4 1.47-.78 2.93-1.15 4.4-.37 1.43-.72 2.87-1.05 4.3-.3 1.4-.58 2.8-.85 4.2-.27 1.37-.52 2.75-.75 4.15-.47 2.6-.83 5.28-1.1 8.05-.3 3.13-.5 6.27-.6 9.4-.1 3.2-.03 6.42.2 9.65.2 2.77.53 5.43 1 8 .4 2.27 1.05 4.5 1.95 6.7.5 1.13 1.07 2.27 1.7 3.4.47.8 1.02 1.57 1.65 2.3q.345.405.9.6c.77.33 1.58.48 2.45.45q1.095.3 2.25 0 1.395-.3 2.7-.9c1.2-.53 2.37-1.15 3.5-1.85 1.17-.73 2.3-1.52 3.4-2.35 1.7-1.37 3.3-2.9 4.8-4.6 1.1-1.3 2.13-2.65 3.1-4.05.93-1.4 1.75-2.87 2.45-4.4.57-1.27.98-2.57 1.25-3.9.43-2.17.63-4.38.6-6.65-.07-2.87-.15-5.8-.25-8.8a91 91 0 0 0 8.1 7.05c3.23 2.5 6.62 4.8 10.15 6.9.53 6.63 1.07 13.28 1.6 19.95-.33.23-.63.42-.9.55-2.43 1.13-4.85 2.28-7.25 3.45-1.67.8-3.23 1.72-4.7 2.75-1.9-.1-3.8.03-5.7.4-2.93.33-5.9.75-8.9 1.25-2.13.3-4.22.7-6.25 1.2-2.07.37-4.13.82-6.2 1.35-1.23.33-2.47.67-3.7 1-1.13.3-2.27.62-3.4.95-.67.23-1.33.47-2 .7-1.3.47-2.6.95-3.9 1.45-1.23.5-2.45 1.02-3.65 1.55-1.17.53-2.3 1.12-3.4 1.75-.87.4-1.7.88-2.5 1.45-.43.3-.8.67-1.1 1.1-.9 1.33-.93 2.67-.1 4 1.73 2.67 4.1 4.53 7.1 5.6.73.23 1.45.5 2.15.8.3.13.58.3.85.5-.24.95-.47 1.92-.68 2.9.93 1.68 1.91 3.33 2.93 4.96.03-.29.07-.57.1-.86.23-2 .48-3.98.75-5.95.03-.2.03-.38 0-.55-.1-.67-.18-1.25-.25-1.75-.57-.5-1.13-.97-1.7-1.4-.2-.17-.4-.3-.6-.4q-2.955-1.8-5.85-3.6c-.27-.17-.52-.33-.75-.5-.57-.43-.82-1.02-.75-1.75q.705-.6 1.5-.9c1.57-.8 3.18-1.52 4.85-2.15 1.7-.6 3.42-1.18 5.15-1.75 1.8-.53 3.6-1.07 5.4-1.6 1.87-.5 3.75-.98 5.65-1.45l4.4-.9c1.53-.3 3.07-.58 4.6-.85.8-.13 1.62-.27 2.45-.4 2.53-.4 5.07-.78 7.6-1.15l-5.4 5.1c-.07.43-.08.87-.05 1.3.1.83.28 1.65.55 2.45.13.4.35.77.65 1.1.7.73 1.47 1.38 2.3 1.95.67.43 1.38.83 2.15 1.2.5.17 1 .33 1.5.5.57.17 1.13.33 1.7.5l12.2 3.6c-.23.33-.48.67-.75 1-.6.83-1.23 1.6-1.9 2.3a33.5 33.5 0 0 0-3 3.8c-.33.5-.65 1.02-.95 1.55-.27.5-.47 1.03-.6 1.6-.2.83-.3 1.7-.3 2.6.03 1.33.35 2.55.95 3.65.53.93 1.12 1.82 1.75 2.65.73.97 1.53 1.9 2.4 2.8 1.23 1.23 2.5 2.43 3.8 3.6 1.33 1.2 2.7 2.37 4.1 3.5 1.47 1.2 2.98 2.37 4.55 3.5 1.6 1.17 3.23 2.3 4.9 3.4 1.23.83 2.48 1.67 3.75 2.5 1.47.9 2.95 1.82 4.45 2.75 1.7 1 3.42 2.02 5.15 3.05.93.53 1.88 1.07 2.85 1.6s1.95 1.08 2.95 1.65c.13.07.28.13.45.2.13 2.27.27 4.55.4 6.85.09 1.62.16 3.24.24 4.86.67-.01 1.34-.04 2-.06-.05-.81-.09-1.64-.14-2.44-.13-1.9-.28-3.78-.45-5.65-.03-.57-.1-1.12-.2-1.65-.07-.47-.15-.93-.25-1.4h.05l21.1-29c.33-.47.65-.93.95-1.4.57-.8 1.07-1.62 1.5-2.45.43-.77.77-1.57 1-2.4.27-.87.38-1.75.35-2.65-.03-.97-.25-1.87-.65-2.7-.5-1.13-1.13-2.15-1.9-3.05-.63-.73-1.3-1.42-2-2.05-.5-.4-1-.78-1.5-1.15q-1.005-.705-1.95-1.35c-.3-.2-.58-.4-.85-.6-.23-.2-.45-.38-.65-.55s-.4-.33-.6-.5c4.1-2.33 8.2-4.67 12.3-7 .7-.47 1.38-.97 2.05-1.5.57-.47 1.08-1 1.55-1.6.53-.67.83-1.15.9-1.45.33-1.1.2-2.45-.4-4.05l-1-2.05c.3-.03.62-.05.95-.05 1.27-.07 2.53-.12 3.8-.15.87-.03 1.75-.05 2.65-.05s1.87.02 2.8.05c1.07.07 2.15.13 3.25.2 1.23.1 2.48.22 3.75.35q2.1.195 4.2.45 1.545.3 3.15.6c1.57.37 3.12.8 4.65 1.3 1.27.33 2.53.73 3.8 1.2.53.27 1.05.58 1.55.95.5.27.98.57 1.45.9q.6.495 1.2 1.05c-.2.8-1.53 1.75-4 2.85l-3.65 1.4c.2 1.67.48 3.33.85 5 .3 1.37.6 2.75.9 4.15.33 1.6.65 3.17.95 4.7.3 1.77.57 3.63.8 5.6.23 1.73.42 3.47.55 5.2.1 1.27.2 2.55.3 3.85.13 1.97.23 3.88.3 5.75l.06 2.45c1.03-1.13 2.05-2.27 3.05-3.46.36-.43.71-.86 1.06-1.29-.11-1.97-.25-3.94-.43-5.89q-.9-9.945-3.75-19.65Zm-71.95 43.05c-.9-.53-1.78-1.05-2.65-1.55-.83-.5-1.65-1-2.45-1.5-1.9-1.23-3.8-2.45-5.7-3.65-5.6-3.5-10.85-7.43-15.75-11.8-1.8-1.63-3.48-3.4-5.05-5.3-1.03-1.27-1.67-2.63-1.9-4.1-.17-1.2.02-2.32.55-3.35.97-1.9 2.23-3.65 3.8-5.25.63-.63 1.23-1.3 1.8-2 .4-.5.72-1.05.95-1.65.27-.73.42-1.47.45-2.2.03-.4-.02-.78-.15-1.15-.13-.33-.32-.67-.55-1-.13-.13-.28-.27-.45-.4-.27-.17-.53-.3-.8-.4-.33-.17-.67-.3-1-.4-.43-.13-.87-.27-1.3-.4-2.13-.53-4.25-1.07-6.35-1.6-2-.63-3.98-1.3-5.95-2-.67-.23-1.3-.5-1.9-.8-.53-.3-.88-.83-1.05-1.6l.5-.5c.4-.47.82-.93 1.25-1.4.73-.73 1.48-1.42 2.25-2.05 1-.9 2.03-1.77 3.1-2.6.53-.43 1.08-.85 1.65-1.25.33-.23.67-.45 1-.65.27-.2.55-.38.85-.55.23-.17.47-.32.7-.45.27-.17.53-.32.8-.45.37-.2.72-.42 1.05-.65.27-.1.53-.2.8-.3 2.17-1.13 4.4-2.25 6.7-3.35.2 1.77.48 3.53.85 5.3.23 1.07.55 2.13.95 3.2.5 1.2 1 2.42 1.5 3.65.7 1.7 1.42 3.42 2.15 5.15.4 1.03.82 2.08 1.25 3.15.43 1 .87 2.02 1.3 3.05q.6 1.395 1.2 2.85c.37.9.75 1.8 1.15 2.7.7 1.63 1.4 3.27 2.1 4.9.6 1.4 1.23 2.82 1.9 4.25.8 1.77 1.55 3.45 2.25 5.05.37.83.75 1.67 1.15 2.5l13.05 24.1c-2-1.2-4-2.38-6-3.55M75.84 133.52l-.1-1.5c-.07-1.7-.13-3.38-.2-5.05-.03-1.57-.05-3.12-.05-4.65 0-1.4.03-2.78.1-4.15.07-1.57.17-3.13.3-4.7.1-.97.22-1.92.35-2.85.27-1.8.33-3.58.2-5.35-.07-.63-.2-1.35-.4-2.15-.4.57-.72 1.25-.95 2.05-.5 1.73-.92 3.48-1.25 5.25l-.6 3.3c-.2 1.07-.38 2.15-.55 3.25-.17 1.07-.3 2.13-.4 3.2-.13 1.07-.25 2.13-.35 3.2-.1 1.03-.18 2.08-.25 3.15-.07 1.03-.12 2.07-.15 3.1-.03 1-.05 2-.05 3 .03 1.2.08 2.42.15 3.65.07 1.8.15 3.62.25 5.45.1 1.8.18 3.62.25 5.45.1 1.93.1 3.85 0 5.75-.03.93-.1 1.87-.2 2.8-.17 1.63-.5 3.2-1 4.7-.6 1.8-1.53 3.5-2.8 5.1-.93 1.1-1.9 2.15-2.9 3.15-.93 1-1.93 1.93-3 2.8-1.03.83-2.13 1.6-3.3 2.3-1.13.7-2.28 1.38-3.45 2.05-1.63.87-2.95.57-3.95-.9q-1.545-2.4-2.25-4.95a35 35 0 0 1-1.2-5.8c-.17-1.57-.3-3.13-.4-4.7-.1-1.73-.15-3.47-.15-5.2-.03-1.8-.03-3.58 0-5.35.07-1.8.15-3.58.25-5.35.13-1.83.28-3.65.45-5.45.2-1.83.42-3.65.65-5.45.27-1.87.57-3.73.9-5.6s.7-3.73 1.1-5.6c.4-1.9.83-3.8 1.3-5.7.33-1.4.7-2.8 1.1-4.2.4-1.47.82-2.93 1.25-4.4.47-1.53.93-3.05 1.4-4.55.5-1.6 1.02-3.18 1.55-4.75.47-1.37.95-2.73 1.45-4.1q.9-2.595 1.95-5.1c.77-1.77 1.6-3.52 2.5-5.25.3-.57.63-1.12 1-1.65a96 96 0 0 1 3.35-4.9l.05.05c.63-.73 1.25-1.47 1.85-2.2.57-.7 1.15-1.38 1.75-2.05.43-.53.85-1.07 1.25-1.6.3-.3.58-.63.85-1 .13-.17.27-.33.4-.5l1.9-1.9c.93-.87 1.87-1.73 2.8-2.6q.645-.555 1.35-1.05c.3-.3.62-.58.95-.85.2-.17.4-.33.6-.5.1-.07.2-.13.3-.2.4-.1.7-.33.9-.7.2-.3.28-.6.25-.9a.6.6 0 0 0-.15-.3c-.17-.23-.35-.4-.55-.5-.6-.27-1.23-.42-1.9-.45-1.3-.33-2.6-.55-3.9-.65q-1.35-.045-2.7 0c-.37.03-.72.07-1.05.1-.7.03-1.38.08-2.05.15-1.03.07-2.05.15-3.05.25-1.23.07-2.45.13-3.65.2-1.47.03-2.68-.42-3.65-1.35-.53-.5-.75-1.15-.65-1.95.03-.13.08-.25.15-.35.43-.5.88-.97 1.35-1.4.83-.67 1.72-1.23 2.65-1.7q1.65-.9 3.45-1.35c1.37-.43 2.75-.8 4.15-1.1 1.9-.13 3.82-.18 5.75-.15a23 23 0 0 1 5 .55q2.505.3 4.95.9c2.93.83 5.9 1.85 8.9 3.05.17 0 .35-.03.55-.1.03-.17.05-.32.05-.45-.07-.7-.17-1.37-.3-2-.2-.83-.45-1.62-.75-2.35-.2-.53-.43-1.02-.7-1.45a45 45 0 0 0-1.15-2.05c-.4-.63-.8-1.27-1.2-1.9-.27-.37-.55-.72-.85-1.05-.33-.4-.7-.77-1.1-1.1-.57-.57-1.13-1.1-1.7-1.6-1.5-1.43-3-2.85-4.5-4.25a27 27 0 0 1-4.5-5.55c-.2-.33-.18-.67.05-1 .07-.1.15-.18.25-.25.27-.13.53-.27.8-.4l3-.3c1.17.27 2.33.6 3.5 1 .97.37 1.9.82 2.8 1.35.9.5 1.77 1.07 2.6 1.7.87.7 1.7 1.45 2.5 2.25.8.83 1.53 1.72 2.2 2.65 1.17 1.57 2.23 3.2 3.2 4.9 1.13 2.1 2.22 4.22 3.25 6.35.1.23.22.48.35.75.33.77.75 1.57 1.25 2.4.3.43.53.8.7 1.1.6-.3 1.2-.68 1.8-1.15.6-.43 1.03-1 1.3-1.7q.195-.555 0-1.2c-.57-2.17-1.15-4.32-1.75-6.45-.6-2.2-1.25-4.38-1.95-6.55-.2-.6-.4-1.18-.6-1.75-.17-.47-.35-.92-.55-1.35-.63-1.67-1.05-3.4-1.25-5.2-.13-1.07.02-2.08.45-3.05q.555-1.155 1.65-1.35c.47.07.92.18 1.35.35.83.37 1.6.87 2.3 1.5 1.1.9 2.12 1.92 3.05 3.05.93 1.07 1.83 2.18 2.7 3.35.6.9 1.18 1.83 1.75 2.8a104 104 0 0 1 2.15 3.6c.4.7.78 1.43 1.15 2.2.73 1.63 1.4 3.32 2 5.05.6 1.63 1.13 3.3 1.6 5 .3 1 .6 2.03.9 3.1.27 1.07.53 2.13.8 3.2.13.63.28 1.27.45 1.9.1.5.22 1.02.35 1.55.13.6.25 1.2.35 1.8.67 3.87 1.28 7.75 1.85 11.65.23 1.53.4 3.08.5 4.65.2 3.13.5 6.2.9 9.2.2 1.6.3 3.13.3 4.6-.53.27-1.05.55-1.55.85-.83.6-1.62 1.27-2.35 2s-1.38 1.55-1.95 2.45c-.3.5-.53 1.05-.7 1.65q-.3 1.005-.45 2.1c-.07.4-.08.82-.05 1.25.13 1.13.77 1.97 1.9 2.5.67.3 1.43.55 2.3.75.1.2.23.38.4.55.37.37.78.7 1.25 1 .5.27 1.02.53 1.55.8.5.17 1.02.33 1.55.5.63.1 1.27.22 1.9.35.87.03 1.73.08 2.6.15 1.1-.03 2.22-.07 3.35-.1.97-.13 1.95-.25 2.95-.35 1.3-.2 2.55-.57 3.75-1.1.83-.33 1.67-.6 2.5-.8.4-.1.65-.37.75-.8l-.55-.5c-.2-.03-.4-.05-.6-.05-1.17.23-2.32.47-3.45.7-.83.1-1.67.22-2.5.35q-1.305.15-2.55.3c-.57 0-1.12.02-1.65.05-1.43 0-2.85-.03-4.25-.1-.57-.03-1.22-.17-1.95-.4 1.77-.2 3.52-.48 5.25-.85 1.7-.4 3.33-.93 4.9-1.6.67-.33 1.37-.55 2.1-.65 1.7-.37 3.42-.63 5.15-.8 1.37-.17 2.75-.32 4.15-.45l3.1-.3q5.1-.345 10.05-.9c3.8-.37 7.62-.67 11.45-.9 3.23-.2 6.43-.42 9.6-.65l4.4-.3c1.87-.07 3.73-.1 5.6-.1q2.445 0 4.95.15c.87.23 1.7.53 2.5.9.7.37 1.3.85 1.8 1.45.5.67.87 1.43 1.1 2.3.37 1.23.62 2.5.75 3.8q.3 2.445.3 4.95c0 1.63-.08 3.27-.25 4.9-.2 1.67-.48 3.32-.85 4.95-.43 1.83-.92 3.63-1.45 5.4-.37 1.17-.78 2.32-1.25 3.45-.47 1.1-.98 2.17-1.55 3.2-.83 1.57-1.73 3.1-2.7 4.6q-1.095 1.8-2.4 3.45c-1.47 1.83-2.93 3.67-4.4 5.5-2 2.47-4.23 4.67-6.7 6.6a58 58 0 0 1-4.55 3.25c-.07-.3-.1-.6-.1-.9-.07-2.6.12-5.18.55-7.75.1-.63.02-1.18-.25-1.65-.1-.1-.18-.2-.25-.3-.13-.1-.25-.18-.35-.25-.27 0-.53.02-.8.05-.03 0-.05.02-.05.05h-.5c-1.37 1.2-2.72 2.42-4.05 3.65-3.67 3.3-7.57 6.23-11.7 8.8-2.73 1.7-5.68 3.12-8.85 4.25-1.6.57-3.2.95-4.8 1.15-1.73.2-3.45.42-5.15.65-1.53.03-3.05.07-4.55.1-1.2 0-2.38-.02-3.55-.05-1.43-.17-2.87-.33-4.3-.5-1.1-.17-2.18-.33-3.25-.5-1.47-.23-2.93-.47-4.4-.7q-1.755-.405-3.45-.75-2.1-.555-4.2-1.05c-1.6-.5-3.18-1-4.75-1.5-1.3-.47-2.57-.97-3.8-1.5-1.37-.5-2.72-1.03-4.05-1.6-1.37-.67-2.72-1.35-4.05-2.05-1.47-.73-2.9-1.48-4.3-2.25q-2.505-1.455-4.95-2.85c-.93-.57-1.85-1.15-2.75-1.75-1-.63-1.97-1.28-2.9-1.95-2.5-1.73-4.82-3.68-6.95-5.85-1.53-1.5-3.07-3.05-4.6-4.65q-.105-1.305-.15-2.55m72.45-38.6c-.1 1.03-.45 1.92-1.05 2.65-1.1 1.37-2.53 2.4-4.3 3.1a69 69 0 0 1-4.1 1.55c-1.37.4-2.73.77-4.1 1.1-1.27.1-2.53.22-3.8.35q-2.1 0-3.9-.6c-.4-.17-.8-.33-1.2-.5l-.55-1.25c.27-.6.47-1.23.6-1.9.23-1.03.75-1.9 1.55-2.6q1.95-1.605 4.35-2.7 1.905-.705 3.9-1.2c1.47-.4 2.97-.72 4.5-.95 1.47 0 2.92.13 4.35.4.97.07 1.9.33 2.8.8.73.37 1.05.95.95 1.75m8.7 98.45c-.03.2-.1.42-.2.65-.3.73-.82 1.32-1.55 1.75-4.1 2.53-8.3 4.9-12.6 7.1-.77.43-1.47.97-2.1 1.6q-.645.645-.75 1.5c-.1.7.03 1.35.4 1.95.57.9 1.28 1.7 2.15 2.4 2.03 1.7 4.1 3.38 6.2 5.05.43.4.87.82 1.3 1.25.67.7.95 1.48.85 2.35-.1.7-.27 1.38-.5 2.05-.13.43-.3.87-.5 1.3-.27.5-.53 1-.8 1.5s-.57 1-.9 1.5a96 96 0 0 1-2.2 3.5c-.83 1.3-1.7 2.6-2.6 3.9-1.03 1.43-2.07 2.88-3.1 4.35q-1.65 2.295-3.3 4.65c-.93 1.3-1.85 2.62-2.75 3.95-.73 1.1-1.47 2.2-2.2 3.3-.57.87-1.12 1.73-1.65 2.6.1-.97.18-1.93.25-2.9l.3-3.2c.1-1.13.18-2.25.25-3.35.1-1.2.18-2.4.25-3.6.07-1.6.12-3.18.15-4.75.07-1.83.12-3.65.15-5.45v-4.05c.03-1.43.05-2.85.05-4.25.03-1.53.05-3.05.05-4.55v-9.95l.1-22.95c.87.23 1.65.5 2.35.8.53.13 1.07.3 1.6.5.37.07.73.15 1.1.25.43.13.88.27 1.35.4.5.13 1 .27 1.5.4 1.23.33 2.47.67 3.7 1 1.73.57 3.47 1.2 5.2 1.9a30 30 0 0 1 3.85 1.7c.73.4 1.45.87 2.15 1.4.53.43 1.03.9 1.5 1.4.23.23.47.5.7.8zm-36.1 4.65c.8-1 1.58-2 2.35-3 1.53-2.03 3.02-4.1 4.45-6.2l-.15 16.4-7.9-5.65c.43-.53.85-1.05 1.25-1.55m-18.55-8.75c.33.23.67.48 1 .75.83.6 1.67 1.22 2.5 1.85 1.07.8 2.13 1.62 3.2 2.45 1.27 1 2.53 2.02 3.8 3.05 1.2.97 2.42 1.95 3.65 2.95-.47.67-.95 1.33-1.45 2-.37.53-.73 1.07-1.1 1.6-.57.87-1.12 1.75-1.65 2.65-.6 1.03-1.2 2.07-1.8 3.1l-8.2-19.5zm15.45 8.9c-.73-.57-1.45-1.13-2.15-1.7-1.17-.93-2.33-1.85-3.5-2.75-1.1-.87-2.22-1.7-3.35-2.5q-1.8-1.305-3.75-2.4c-1.23-.77-2.28-1.5-3.15-2.2l-2.7-25.25c1.87.97 3.75 1.87 5.65 2.7 1.43.57 2.9 1.1 4.4 1.6 1.43.57 2.9 1.1 4.4 1.6l4.5 1.3c3.23.97 6.5 1.65 9.8 2.05l-.2 14.85c-2.93 3.83-5.88 7.65-8.85 11.45-.33.43-.7.85-1.1 1.25m2.1 19.15-1.6 9.5-6.95-15.35 2.75-4.25 5.75 8.4zm7.75 8.65c-.53-1.03-1.03-2.07-1.5-3.1a42.6 42.6 0 0 0-4.55-7.5l3.15-9.3 2.75 2.1z"/><path d="M142.79 256.82c-.2-.97-.43-1.65-.7-2.05-.21-.28-.48-.47-.78-.61-.03-.01-.05-.03-.07-.04-.4-.13-.74-.11-1.04.05-.37.17-.68.57-.95 1.2a32.6 32.6 0 0 0-2.75 9.7c-.08.78-.11 1.51-.11 2.21.47-.05.94-.11 1.41-.17-.01-2.23.35-4.63 1.1-7.2.57-1.9 1.23-3.32 2-4.25.67 3.23 1 6.05 1 8.45 0 .83-.03 1.64-.1 2.42.53-.09 1.06-.19 1.59-.29.18-2.79-.01-5.93-.59-9.43Zm29.55-11.35c.13-2.13.27-4.25.4-6.35v-.25c.03-.3.05-.6.05-.9v-3.7c0-2.1-.02-4.18-.05-6.25 0-2.03-.05-4.07-.15-6.1-.1-1.93-.23-3.87-.4-5.8-.13-1.9-.32-3.77-.55-5.6-.17-1.23-.37-2.42-.6-3.55q-.15-.645-.6-1.95c-.3-.87-.48-1.35-.55-1.45l-.4-.4c-.13-.03-.27-.07-.4-.1-.13 0-.27.02-.4.05-.1.07-.2.15-.3.25-.07.07-.1.15-.1.25q-.045.795 0 1.65c.23 4.33.33 8.65.3 12.95 0 1.8-.02 3.6-.05 5.4-.03 2.3-.07 4.57-.1 6.8 0 2.07-.02 4.13-.05 6.2-.03 1.17-.07 2.33-.1 3.5-.03.7-.07 1.42-.1 2.15-.1 1.93-.23 3.85-.4 5.75l-.3 4.2c-.13 1.5-.27 3-.4 4.5-.05.44-.09.89-.14 1.34 1.6-.84 3.18-1.74 4.74-2.69.27-3.33.48-6.63.65-9.9m-98.9-5.25c.13-1.3.35-2.58.65-3.85.23-1.1.47-2.2.7-3.3.2-.9.38-1.8.55-2.7q.255-1.155.45-2.25c.13-.63.23-1.27.3-1.9.03-.37.05-.73.05-1.1-.03-.37-.07-.72-.1-1.05q-.045-1.455-.9-2.7c-.1.1-.2.22-.3.35s-.18.28-.25.45c-.2.37-.37.77-.5 1.2-.67 2.6-1.33 5.22-2 7.85-.47 1.87-.92 3.7-1.35 5.5-.47 1.9-.95 3.82-1.45 5.75l-.6 2.6c-.09.34-.16.69-.24 1.03q2.7 2.325 5.49 4.41c-.23-1.8-.42-3.58-.55-5.34-.1-1.67-.08-3.32.05-4.95m12.85-135.7c.17.33.33.7.5 1.1.33.63.82 1.15 1.45 1.55 2.03 1.23 4.22 1.6 6.55 1.1 1.97-.23 3.9-.5 5.8-.8 4-.73 7.65-2.25 10.95-4.55-.47.4-.93.8-1.4 1.2a35.7 35.7 0 0 1-4.55 3.45c-2.5 1.53-5.1 2.8-7.8 3.8-.33.1-.65.2-.95.3-1.17.43-2.25.82-3.25 1.15-1.77.67-3.52 1.35-5.25 2.05l.05.05c.07 0 .15.02.25.05h.25q.195.045.45.15c.3.07.62.15.95.25.67 0 1.32-.08 1.95-.25a37 37 0 0 0 5.65-1.15c2.73-.77 5.38-1.88 7.95-3.35 3.17-1.83 6.08-4.02 8.75-6.55 2.27-2.2 3.92-4.78 4.95-7.75.23-.63.18-1.22-.15-1.75.03-.93-.02-1.87-.15-2.8-.1-.7-.35-1.33-.75-1.9-1.23-1.67-2.93-2.45-5.1-2.35-1.53.13-3.03.37-4.5.7-1.67.2-3.28.55-4.85 1.05-1.43.4-2.82.9-4.15 1.5-1.63.67-3.23 1.4-4.8 2.2-.67.37-1.35.75-2.05 1.15-2.13 1.4-4.02 3.12-5.65 5.15a7.85 7.85 0 0 0-1.55 3.4q-.15.6.15 1.35c.1.13.2.3.3.5m30-12.25c.3.9.12 1.75-.55 2.55a19 19 0 0 1-5.65 4.8c-.8.43-1.6.85-2.4 1.25-1.53.9-3.2 1.65-5 2.25-1.4.47-2.87.82-4.4 1.05-1.57.17-3.13.33-4.7.5h-1.6c-1.4-.13-2.58-.58-3.55-1.35.13-.5.28-.98.45-1.45.57-1.73 1.48-3.22 2.75-4.45 1.3-1.27 2.78-2.28 4.45-3.05 1.33-.67 2.75-1.25 4.25-1.75 1.7-.53 3.43-.97 5.2-1.3 1.93-.17 3.87-.32 5.8-.45 1.23.07 2.48.15 3.75.25.63.2 1.03.58 1.2 1.15m33.15 36.25h.15c.37 0 .82-.12 1.35-.35.8-.37 1.45-.73 1.95-1.1.47-.4.88-.77 1.25-1.1.4-.37.67-.67.8-.9.1-.2.17-.37.2-.5v-.3c-.01-.18-.06-.35-.15-.5-.2-.33-.47-.52-.8-.55-.06-.01-.11 0-.16 0-.1 0-.2.01-.29.06-.63.03-1.35.35-2.15.95-.83.6-1.7 1.33-2.6 2.2-.27.23-.43.48-.5.75q-.045.045 0 .15v.05q-.045.105 0 .15c-.03.17.03.35.2.55q.255.345.75.45Zm-3.3 10.6c.53-.27 1.32-.85 2.35-1.75 1-.93 1.62-1.57 1.85-1.9.2-.37.28-.72.25-1.05v-.1c-.07-.4-.25-.65-.55-.75-.23-.03-.62.05-1.15.25-.57.17-1.25.58-2.05 1.25-.8.63-1.38 1.37-1.75 2.2q-.345.75-.3 1.2-.045.345.15.6c.27.3.67.32 1.2.05m8.8-26.4s-.03.07 0 .1c-.03 0-.03.03 0 .1.03.1.15.5.35 1.2.17.67.85 1.88 2.05 3.65 1.17 1.73 2.72 3.4 4.65 5 1.93 1.57 3.97 3.03 6.1 4.4 2.17 1.33 4.68 2.52 7.55 3.55s4.97 1.55 6.3 1.55c1.8-.07 3.02-.2 3.65-.4 1.67-.47 3.8-1.57 6.4-3.3 2.47-1.6 4.87-3.82 7.2-6.65 2.33-2.77 4.07-5.42 5.2-7.95.63-1.47 1.03-3.43 1.2-5.9v-.1c.03-.77.07-1.42.1-1.95-.02-.37-.03-.73-.05-1.1 0-.06-.02-.12-.05-.2-.04-.46-.11-.77-.2-.95-.47-.73-1.7-1.33-3.7-1.8-1.13-.27-3.08-.43-5.85-.5-2.8-.1-5.55-.03-8.25.2-2.7.2-4.55.33-5.55.4-4.97.27-8.68.6-11.15 1-2.47.37-4.02.63-4.65.8-.67.13-2.52.55-5.55 1.25-3.03.67-4.97 1.95-5.8 3.85-.13.4-.2.83-.2 1.3-.02.13-.03.27-.05.4l.05.5c0 .5.08 1.02.25 1.55m47.7-6.4c-.03.1-.05.22-.05.35v.1q-.105.645-.15 1.2c-3.23-.27-8.13-.25-14.7.05-6.6.3-12.43 1.08-17.5 2.35q-7.545 1.845-9.45 3.15-1.905-2.1-1.8-3.3c-.01-.06-.03-.12-.05-.2.02-.02.04-.06.05-.1.03-.2.12-.48.25-.85.67-.43 1.5-.78 2.5-1.05 1.7-.57 3.7-1.1 6-1.6 2.3-.53 4.3-.9 6-1.1 1.67-.23 3.98-.45 6.95-.65 2.97-.23 6.17-.4 9.6-.5 3.43-.13 6.42-.12 8.95.05 1 .07 1.98.25 2.95.55.23.03.38.35.45.95zm-45.85 26.45c-1.23.9-2 1.67-2.3 2.3-.33.5-.48.83-.45 1 0 .1.02.17.05.2.1.17.33.32.7.45.53.2 1.35-.12 2.45-.95 1.07-.87 1.77-1.43 2.1-1.7q.495-.45.9-1.05c.13-.2.2-.43.2-.7 0-.23-.07-.48-.2-.75q-1.605-.195-3.45 1.2m-21.4-37.35a5.5 5.5 0 0 0-1.75.2c-.17.03-.32.07-.45.1-.53.1-1.02.23-1.45.4l-.7.4c-.27.17-.5.35-.7.55-.47.37-.78.72-.95 1.05-.27.5-.37 1.02-.3 1.55.13.63.4 1.13.8 1.5.23.23.52.42.85.55.2.07.42.12.65.15.57.07 1.1-.03 1.6-.3l.75-.4 1.6-.5c.77-.33 1.3-.62 1.6-.85q.345-.3.6-.6c.17-.27.28-.55.35-.85q.195-1.155-.6-1.95c-.43-.5-1.07-.83-1.9-1"/><path d="M104.94 95.52c-.6-.1-1.18-.08-1.75.05l-3.95 1.35-2.45 1.5c-.67.6-.85 1.23-.55 1.9.17.47.58.77 1.25.9q.705.15 1.65-.15c.5-.1.92-.23 1.25-.4l.6-.35c.23-.1.5-.18.8-.25 1.3-.4 2.35-.82 3.15-1.25q.855-.405 1.2-1.05c.17-.23.25-.53.25-.9q0-.6-.3-.9c-.27-.27-.65-.42-1.15-.45"/></svg>