<svg xmlns="http://www.w3.org/2000/svg" id="a" viewBox="0 0 253 291.35"><defs><style>.d{fill:#9fb5c5}.f{fill:#6a414a}</style></defs><path d="M184.6 231.05c-.4-2.44-.82-4.87-1.25-7.31-.55-2.95-1.22-5.95-2-8.91q.06-.18.06-.36v-.09l-.14-.54-.4-1.2c-.2-.6-.4-1.19-.6-1.75l-.79-2.38c-.27-.87-.56-1.75-.86-2.62-.16-.48-.27-1.03-.34-1.65a9 9 0 0 1 1.72-1.93q1.095-.93 1.53-2.19c.13-.45.16-.9.07-1.32-.12-.76-.44-1.46-.95-2.09a10 10 0 0 0-2.71-2.34c-.6-.4-1.19-.79-1.78-1.17-.76-.45-1.54-.85-2.29-1.17-3.2-1.6-6.47-3.13-9.72-4.56-1.64-.77-3.32-1.5-5.01-2.18-1.74-.63-3.46-1.25-5.16-1.85l-2.27-.8 1.45 1.91c2.57 3.39 4.54 7.12 5.84 11.1.33.96.67 1.95 1 2.96.23.62.3 1.28.22 1.92-.06.31-.16.62-.3.94-.08.19-.21.36-.37.51-.26.15-.53.26-.83.34-.53.16-1.06.26-1.56.32l-4.3.4c-1.44.13-2.88.29-4.33.45-1.43.2-2.85.4-4.25.6-1.44.2-2.88.42-4.32.65l-1.06.17.57.92c.87 1.4 1.83 2.84 2.88 4.3.8 1.09 1.5 2.25 2.08 3.44.59 1.22.98 2.51 1.13 3.81.13 1.14.13 2.28 0 3.41-.02.3-.13.57-.35.89-.13.22-.32.4-.6.55-.47.28-.97.54-1.39.73-4.33 1.33-8.67 2.68-13 4.05l-.49.15v.51c-.08 2.43-.08 4.94-.01 7.45.07 1.83.08 3.67.05 5.45-.07 2.33-.08 4.7-.05 7.02v9.81c.03 1.81.02 3.62-.05 5.39v1.5c0 .45-.02.9-.05 1.4 0 .38-.02.76-.05 1.17l-.04.86c7.59-.24 14.86-1.37 21.82-3.4.12-.29.24-.58.38-.85a416 416 0 0 1 7.08-13.27 68.5 68.5 0 0 0 4.6-9.85c1.44-3.83 1.85-7.91 1.24-12.1a27.5 27.5 0 0 0-2.21-7.7 75 75 0 0 0-4.84-8.92c1.17.2 2.14.82 2.96 1.86 1.14 1.5 2.19 3.04 3.1 4.57a25.7 25.7 0 0 1 2.72 6.86c.29 1.21.54 2.45.74 3.67.16 1.24.26 2.5.29 3.71 0 1.2-.08 2.41-.25 3.62-.13 1.2-.34 2.4-.63 3.55-.26 1.04-.57 2.1-.92 3.12-.2.52-.41 1.04-.62 1.53l-.91 1.82-.96 2.13c-.11.19-.23.42-.35.71-.22.57-.48 1.16-.76 1.72-.24.46-.52.87-.82 1.23l-.17.2v.26c0 .41.04.81.11 1.18.17.94.37 1.89.61 2.79.23.94.45 1.89.66 2.84l.26 1.13c8.47-3.86 16.42-9.18 23.86-15.96-.22-1.62-.44-3.25-.67-4.88-.4-2.77-.82-5.52-1.25-8.26Zm-57.64 24.73c.03-1.58-.03-3.18-.2-4.75-.14-1.27-.46-2.49-.95-3.64-.83-2.03-1.73-4.06-2.67-6.04a874 874 0 0 1-6-12.54l-.14-.3-.32-.09c-.27-.08-.53-.13-.75-.16-3.88-.8-7.88-1.2-11.88-1.2-1.56 0-3.15.06-4.72.18-1.03-.06-2.07-.11-3.1-.15-.69-.16-1.36-.35-2.05-.58-.38-.11-.73-.27-1-.47-.47-.38-.65-.78-.58-1.31.16-1.4.5-2.77 1-4.06.73-1.82 1.5-3.63 2.29-5.37s1.66-3.48 2.58-5.16c.9-1.7 1.79-3.41 2.66-5.11l.48-.94-1.05-.1c-2.04-.2-4.07-.38-6.11-.55-3.4-.28-6.86-.42-10.28-.42-1.84 0-3.71.04-5.56.12-1.51.07-3 .15-4.42.25h-2.02c-.6-.13-1.2-.24-1.81-.33-.8-.26-1.46-.7-2.03-1.32-.62-.7-.92-1.53-.92-2.53-.03-2.21.46-4.35 1.47-6.37 1.21-2.38 2.64-4.61 4.27-6.62l-.87-1.1c-.9.43-1.79.87-2.66 1.31-2.02 1.03-4.04 2.04-5.97 3.01-3.92 1.42-7.24 3.19-9.86 5.26-3.19 2.56-4.83 5.26-4.87 8.01 0 .67.4 1.31 1.19 1.92.91.69 2.17 1.06 3.76 1.11l-2.76 7.85c-.13.39-.26.79-.39 1.17-.34.91-.66 1.82-.96 2.72-.54 1.57-1.05 3.16-1.56 4.78l-.22.76c2.42 3.54 5.04 6.99 7.87 10.33 4.17 4.91 8.52 9.29 13.05 13.15l.09-.36s.28-1.2.35-1.45c.94-3.78 1.86-7.61 2.75-11.41.37-1.56.75-3.14 1.14-4.73.47-1.73.95-3.46 1.45-5.18.06-.19.12-.38.2-.58.39 1.07.53 2.1.4 3.06-.1.62-.21 1.24-.35 1.88l-.4 2.09c-.17.79-.35 1.6-.54 2.42-.3 1.16-.25 2.38.16 3.6.2.62.38 1.24.53 1.84.34 1.48.76 2.99 1.27 4.47.74 2.22 1.64 4.41 2.68 6.49 1.01 2.1 2.04 4.2 3.06 6.31l.52 1.08c10.7 6.29 22.27 10.06 34.73 11.31l-.1-.31c-.15-.46-.29-.98-.41-1.55a28 28 0 0 1-.49-3.68c-.08-.68-.07-1.02-.05-1.27 0-.54.08-1.16.23-1.83l.55-2.29c.27-1.09.63-1.9 1.06-2.42.55-.67 1.13-1 1.77-1h.19c.61.07 1.11.43 1.55 1.1.19.27.48.86.78 2.15.61 2.63.71 5.66.29 8.99-.12.89-.3 1.64-.53 2.24l-.09.23c1.55.08 3.12.12 4.69.12h.49c-.03-4.41-.01-8.34.06-12.01Z" class="f"/><path d="M120.27 267.31c.96-1.74 1.38-4.14 1.24-7.14-.14-2.45-.52-4.32-1.17-5.71l-.09-.2-.19-.11c-.17-.1-.37-.16-.57-.16-.27 0-.55.1-.79.27-.61.39-1.12 1.19-1.54 2.41-.56 1.55-.86 2.71-.89 3.63l.15 3.52c0 .47.05.81.18 1.12l.47.94c.36.61.8 1.14 1.3 1.58.56.05 1.11.09 1.67.12l.18-.18z" style="fill:#3d262b"/><path d="M149.26 166.02c-.98 0-1.98-.03-2.97-.09l-7.09-.3c-2.64-.24-5.22-.49-7.79-.75-2.61-.44-5.17-.86-7.74-1.25l-7.16-1.71c-2.56-.64-5.09-1.48-7.51-2.49-2.87-1.1-5.69-2.43-8.38-3.94-2.65-1.43-5.34-2.93-7.96-4.46a72 72 0 0 1-7.68-5.31 82 82 0 0 1-7.17-6.46l-3.77-4.07-2.46-2.86.27-.45c1.48-2.46 2.79-5.02 3.91-7.61 1.21-2.78 2.17-5.72 2.86-8.73.33-1.53.59-3.09.79-4.63 0-.09.04-.26.12-.43l.09-.17.16-.11c1.95-1.29 4.37-2.93 7.19-4.89l.15-.1.18-.02c.3-.04.56-.06.79-.06h.63l.08.63c.32 2.57.97 5.13 1.91 7.64.77 1.88 1.58 3.41 2.4 4.52 2.03 2.69 4.65 4.2 8.01 4.61l1.85.1c2.24-.03 4.69-.63 7.21-1.79 4.35-2.06 8.12-5.44 11.2-10.05 2.24-3.38 3.88-7.04 4.85-10.88.05-.19.13-.37.25-.53.06-.19.13-.4.23-.63v-.03l.08-.2c.13-.26.26-.53.39-.82l.92-2.06.44 2.22c.29 1.46.67 2.87 1.12 4.21.95 2.66 2.31 4.78 4.04 6.29 2.09 1.88 4.62 2.82 7.53 2.82 2.52 0 5.13-.84 7.77-2.49 2.69-1.73 5-4.16 6.87-7.21l.19-.31.36-.04c5.7-.56 11.48-1.09 17.16-1.55 5.46-.27 10.91-.65 16.24-1.15a114 114 0 0 1 11.25-.16c1.04.11 2.03.26 3.02.46.92.31 1.7.71 2.42 1.21 1.68 1.34 2.64 3.01 2.9 5 .03.11.06.3.06.49.51 3.88.48 7.8-.11 11.56a59.8 59.8 0 0 1-5.78 15.93 82.6 82.6 0 0 1-10.14 14.93c-.97 1.21-2.05 2.37-3.21 3.46l-.95.89-.25-1.27c-.13-.68-.25-1.36-.36-2.03-.22-1.56-.69-2.91-1.39-4.02-.16-.23-.37-.42-.61-.57-.34-.19-.68-.29-.98-.29-.46 0-.89.23-1.32.7-1.04 1.2-1.97 2.61-2.74 4.18l-1.73 3.24-.42-1.9c-.06-.29-.13-.57-.2-.83-.14-.89-.32-1.68-.54-2.42-.22-.79-.63-1.34-1.25-1.68-.33-.19-.62-.28-.92-.28-.23 0-.46.05-.7.16-.84.41-1.57.97-2.13 1.65a31.1 31.1 0 0 0-4.08 7.35 46 46 0 0 0-2.46 8.52l-.08.45-.44.11c-1.81.47-3.65.86-5.46 1.16-2.16.49-4.4.92-6.61 1.25-1.78.2-3.57.3-5.33.3Zm.48-31.63c-.11.02-.33.06-.7.2-.52.15-1.12.53-1.84 1.13-.72.57-1.23 1.22-1.55 1.94-.33.73-.25.96-.24.96 0-.03.11-.04.31-.15.33-.16.97-.58 2.2-1.65 1.24-1.16 1.62-1.61 1.73-1.77.09-.17.14-.38.12-.56 0-.05-.02-.08-.03-.1m5.01 1.57s.11.05.19.08h.05c.27 0 .76-.12 1.72-.85 1.05-.85 1.75-1.42 2.08-1.69.26-.23.52-.54.75-.89.03-.05.06-.13.06-.25-.75.04-1.58.4-2.47 1.08-1.42 1.03-1.91 1.68-2.08 2.03l-.02.05-.03.04c-.12.17-.19.3-.24.4Zm1.13-22.04c.11.42.53 1.34 1.95 3.44 1.12 1.67 2.64 3.3 4.51 4.85 1.9 1.54 3.93 3 6.03 4.35 2.1 1.29 4.6 2.47 7.41 3.48 2.77 1 4.81 1.51 6.06 1.51 2.12-.08 3.04-.24 3.43-.37 1.61-.45 3.69-1.53 6.22-3.21 2.4-1.56 4.77-3.75 7.04-6.51 2.28-2.71 4-5.33 5.1-7.79.59-1.38.98-3.28 1.14-5.65.18-3.1-.06-3.71-.11-3.79-.18-.29-.88-.9-3.24-1.46-1.08-.25-3-.42-5.7-.48-.84-.03-1.67-.04-2.49-.04-1.91 0-3.82.08-5.68.24-2.71.2-4.56.33-5.56.4-4.93.26-8.65.6-11.08.99-2.44.36-3.98.63-4.58.79-.7.14-2.56.56-5.57 1.26-2.79.61-4.57 1.77-5.3 3.44-.26.86-.24 1.99.09 3.28l.19.76c.04.15.09.33.15.53Zm-6.39 13.87c.18 0 .51-.05 1.06-.29.74-.34 1.36-.69 1.81-1.02.42-.36.83-.72 1.19-1.05.45-.41.61-.63.66-.72.08-.16.12-.27.13-.32 0-.03-.03-.08-.05-.12-.13-.22-.22-.23-.27-.23h-.1l-.12.06h-.12c-.49.02-1.08.29-1.76.8-.81.58-1.66 1.3-2.53 2.14-.12.1-.2.19-.25.28l.02.05-.06.19s.02.03.03.04c.06.08.11.15.28.2h.07Zm-48.89 55.98-2.63-23.64 2.78 1.39c2.07.91 4.26 1.83 6.45 2.73 2.16.83 4.33 1.68 6.5 2.55 4.61 1.94 9.42 3.37 14.31 4.26l.58.11.26 16.17-10.72 11.94-17.54-15.51Z" class="d"/><path d="M48.02 143.18c-2.14-.03-4.13-.55-5.93-1.54-2.76-1.56-4.23-3.9-4.37-6.95-.14-2.58.26-5.16 1.2-7.64 1.34-3.56 3.01-7.01 4.96-10.27 1.04-1.71 2.07-3.39 3.11-5.06 1.58-2.68 3.22-5.34 4.85-7.91.31-.45.61-.89.9-1.35.52-.89 1.14-1.86 1.81-2.86.82-1.31 1.62-2.62 2.38-3.92 2.02-3.38 4.07-6.76 6.11-10.06 1.39-2.35 2.84-4.71 4.31-7.01 1.12-1.85 2.29-3.73 3.45-5.55.81-1.28 1.7-2.52 2.65-3.67 1.72-2.15 3.71-4.1 5.93-5.81.03-.05.07-.1.12-.14.77-.67 1.56-1.34 2.4-2.04.14-.1.23-.19.28-.25 0-.05-.01-.1-.02-.16a.6.6 0 0 0-.15-.23c-.42-.37-.92-.59-1.51-.64-1.73-.38-3.38-.56-4.98-.56-.54 0-1.07.02-1.6.06-.3 0-.64.05-1.05.14h-.05l-7.05.51c-.38.07-.85.12-1.31.12-1.15 0-2.3-.26-3.44-.78-.47-.25-.85-.53-1.16-.85-.7-.78-.99-1.61-.91-2.48v-.13l.07-.11a7 7 0 0 1 2.39-2.78c1.8-1.17 3.68-2.05 5.61-2.6 2.37-.68 4.8-1.09 7.21-1.23.74-.04 1.49-.07 2.23-.07 3.7 0 7.37.57 10.93 1.7 1.89.64 3.76 1.31 5.59 2.01.98.4 1.92.75 2.82 1.03-.01-.58-.07-1.16-.18-1.72-.19-1.01-.49-1.99-.9-2.9-.64-1.31-1.36-2.58-2.14-3.74-.42-.64-.88-1.25-1.39-1.82-.57-.6-1.19-1.21-1.84-1.79a71 71 0 0 1-9.53-9.79c-.26-.39-.46-.75-.61-1.13-.21-.52-.18-1.07.07-1.59l.07-.13.12-.1c.28-.23.58-.4.91-.49.57-.23 1.23-.42 1.9-.56l.1-.02h.1c1.13.07 2.26.23 3.36.47 1.15.28 2.28.66 3.38 1.14 1.97.93 3.82 2.13 5.52 3.56 1.35 1.17 2.55 2.49 3.57 3.93 2.22 3.06 4.11 6.38 5.62 9.88.36.86.81 1.8 1.33 2.81.35.67.73 1.33 1.12 1.95.08.16.16.32.24.46.35-.17.7-.38 1.03-.62.37-.21.61-.55.79-1.05.1-.25.13-.45.11-.63-.32-2.4-.82-4.77-1.48-7.03-.89-3.24-1.95-6.5-3.13-9.7-.51-1.33-.9-2.72-1.14-4.13-.18-1.21-.18-2.41 0-3.58.17-1.12.76-1.98 1.73-2.48.54-.23 1.03-.33 1.52-.33.69 0 1.36.21 2 .61 1.8 1.14 3.4 2.63 4.74 4.43.87 1.17 1.73 2.37 2.57 3.57.9 1.27 1.77 2.63 2.58 4.05.69 1.12 1.39 2.33 2.06 3.56.58 1.09 1.11 2.22 1.58 3.37 1.31 3.08 2.36 6.34 3.13 9.66.2.82.41 1.67.64 2.53.34 1.38.67 2.73 1 4.06.3 1.07.54 2.17.71 3.26.6 3.89 1.15 7.85 1.65 11.77.33 2.45.62 4.97.85 7.47.07.72.15 1.45.25 2.17l.09.64-42.71 10.87-7.11 6.17v-1.58c0-1.7-.04-3.42-.13-5.15-.82 6.32-2.11 12.52-3.86 18.45-.84 2.88-1.89 5.8-3.13 8.68a59 59 0 0 1-4.96 9.16 42 42 0 0 1-4.48 5.7 19.5 19.5 0 0 1-3.79 3.11c-.53.32-1.04.61-1.55.88-.46.31-.98.62-1.5.9-2.65 1.23-5.4 1.84-8.2 1.84h-.46Z" class="d"/><path d="M160.15 113.99c-1.6-1.8-2.23-3.15-1.96-4.25.03-.2.12-.52.27-.93l.08-.23.2-.13c.73-.47 1.64-.86 2.71-1.14 1.67-.56 3.72-1.1 6.03-1.61 2.31-.53 4.35-.91 6.07-1.11 1.66-.23 4.01-.45 6.99-.65 2.95-.23 6.2-.4 9.63-.5 1.52-.06 2.98-.09 4.33-.09 1.69 0 3.27.05 4.68.14 1.05.07 2.1.27 3.12.58 1.11.19.96 1.98.9 2.74-.07.47-.12.85-.15 1.21l-.06.71-.71-.06c-1.49-.12-3.38-.19-5.61-.19-2.52 0-5.55.08-9 .24-6.52.3-12.36 1.08-17.36 2.33-4.93 1.21-8.03 2.23-9.22 3.05l-.52.36z" style="fill:#d6dee8"/><path d="M129.77 225.43c.07-1.36.12-2.71.15-4.03l.3-7.56c.13-3.13.25-6.26.35-9.4l.2-6.8.3-9.45c.13-3.26.06-6.5-.2-9.62l.06-5.34.98.41c1.44.6 2.91 1.3 4.36 2.08 3.07 1.54 6.14 3.44 9.09 5.66 3.12 2.38 5.8 5.21 7.96 8.42 1.82 2.78 3 5.8 3.51 8.99l.12.71-.71.11c-6.18.96-12.41 2.02-18.53 3.15-.49.08-.97.24-1.44.47q-.105.135-.18.3c-.22.52-.24 1.01-.04 1.5.3.74.74 1.42 1.3 2.02.93.89 1.86 1.93 2.74 3.05.6.85 1.14 1.72 1.62 2.6.96 1.82 1.67 3.76 2.12 5.79.08.45.1.9.06 1.37 0 .33-.1.71-.29 1.05-.47.81-1.21 1.34-2.2 1.59-3.54 1.18-7.12 2.4-10.69 3.63l-1.01.35.05-1.06Zm-14.97.99c-.12-.02-.24-.04-.36-.04h-.11c-2.17-.33-4.36-.53-6.51-.6-4.28-.1-8.54-.49-12.64-1.16l-.76-.12.17-.75c.28-1.22.7-2.4 1.26-3.51 1.93-3.87 3.95-7.92 6.05-12.15.15-.34.32-.71.48-1.11.48-1.07.56-2.16.27-3.35-.17-.6-.46-.78-.65-.85-1.22-.38-2.49-.58-3.75-.58-.25 0-.5 0-.75.02-4.75-.27-9.46-.5-14.08-.7-3.86-.13-7.9-.2-12.02-.2h-.39l-.21-.32c-.94-1.41-1.05-2.97-.31-4.64 1.19-2.71 2.72-5.24 4.55-7.51 2.45-3.06 5.2-5.82 8.16-8.21l.5-.4c2.39-1.95 4.97-3.66 7.66-5.07 1.42-.74 2.81-1.66 4.13-2.72l1.13-.91.24 7.78c.13.55.28 1.11.47 1.66.59 1.61 1.21 3.24 1.84 4.87 1.12 2.95 2.3 5.86 3.49 8.68.52 1.24 1.13 2.47 1.81 3.68.25.47.47.93.65 1.4 1.5 4.09 3.07 8.2 4.7 12.24 1.85 4.49 3.8 9.06 5.79 13.58l.56 1.27-1.36-.27Z" class="f"/><path d="m118.89 200.06 9.82-11-.92 17.98zm-16.02-11.27 1.15-.81 13.42 12.18-6.27 8.84zm21.09 31.23q-.615-.9-1.2-1.74h-.79l.29-.74c-.42-.61-.84-1.19-1.26-1.75l-.25-.33 3.91-9.55 3.04 2.36v.37c-.15 3.47-.3 6.94-.46 10.41l-.1 3.29c0 .36-.02.77-.05 1.19l-.22 2.67-2.92-6.17Zm-12.5-10.26 2.75-3.54.56.77c.9 1.24 2.44 3.46 4.71 6.79l.07.04.11.19c.22.38.48.79.77 1.2l.12.17.06 1.99v.07c-.45 2.43-.86 4.88-1.26 7.34l-.4 2.44z" style="fill:#bba799"/><path d="M101.94 119.61c-.35 0-.69 0-1.04-.03-2.12-.14-3.87-.79-5.22-1.92l-.48-.4 5.63-9.13c3.54-5.67 6.75-11.07 9.53-16.07l.15-.27 11.63-3.06-1.05 1.58c-2.51 3.76-4.92 7.68-7.17 11.66-1.51 2.66-3.96 7.23-7.29 13.58-.61 1.22-1.04 2.17-1.26 2.8-.08.2-.17.41-.27.65l-.16.37-.4.06c-.86.12-1.74.19-2.6.19Zm39.09-11.45c-.57 0-1.15-.05-1.71-.14-.86-.14-1.67-.38-2.42-.7l-.64-.27.25-.65c.34-.89.77-1.89 1.27-2.99.23-.55.5-1.17.8-1.85l1.2-2.74.22-.43c2.97-6.84 5.48-12.4 7.45-16.49l.14-.29 10.03-2.85v1.46l-.11.18c-1.98 3.13-4.62 8.07-7.86 14.68l-1.35 2.8c-.96 1.94-1.83 3.77-2.59 5.44-.47 1-.9 1.95-1.3 2.84-.23.45-.4.87-.52 1.27l-.12.4-.41.09c-.77.16-1.54.24-2.3.24Z" style="fill:#686f7d"/><path d="M167.64 161.86c.77-3.44 1.9-6.75 3.35-9.85.96-2.16 2.33-4.12 4.05-5.81.5-.41 1.08-.61 1.76-.65l.38-.02.23.3q.42.54.66 1.2c.62 2 1.07 4.06 1.34 6.15.03.22.1.35.17.44h.24c.13-.16.24-.34.33-.52.86-1.76 1.73-3.54 2.59-5.34.47-.97 1.11-1.85 1.9-2.61.47-.38.92-.55 1.39-.55h.18l.25.03.18.18c.16.15.31.34.46.56.17.19.28.43.34.71.34 2.06.66 4.13.96 6.24l.06.45-6.03 3.95c-1.57.8-3.16 1.57-4.8 2.3l-.05.02h-.05c-.32.1-.63.2-.92.32-.64.37-1.3.71-1.97 1.01-1.94.94-4 1.73-6.09 2.33l-1.17.34.27-1.19Z" style="fill:#9d316a"/><path d="M187.59 228.12c0-1.43-.17-2.87-.5-4.3-.07-.33-.13-.67-.2-1-.1-.4-.18-.78-.25-1.15-.2-.83-.42-1.65-.65-2.45-1.1-4.03-2.2-8.2-3.3-12.5-.2-.8-.43-1.6-.7-2.4.53-.3 1.02-.7 1.45-1.2a5.6 5.6 0 0 0 1.3-2.6c.5-2.17.03-4.13-1.4-5.9-.87-1.1-1.95-2.1-3.25-3a84 84 0 0 0-13.35-7.05c-3.63-1.6-7.43-3.02-11.4-4.25-1.37-.43-2.73-.87-4.1-1.3-1.53-.47-3.02-1.05-4.45-1.75-1.23-.53-2.37-1.13-3.4-1.8-1.43-.9-2.9-1.78-4.4-2.65 3.07.03 6.2-.02 9.4-.15 1.23-.13 2.48-.25 3.75-.35 8.1-.8 15.93-2.72 23.5-5.75q5.55-2.25 10.95-5.25c2.83-1.5 5.47-3.33 7.9-5.5.63-.57 1.25-1.13 1.85-1.7l.15-.15a58 58 0 0 0 6.9-7.85c3.7-5.03 6.57-10.47 8.6-16.3 2-5.7 3.08-11.62 3.25-17.75q-.06-5.88-1.65-11.7c-.17-.33-.33-.67-.5-1-.77-1.43-1.8-2.63-3.1-3.6-.87-.63-1.8-1.12-2.8-1.45-1.37-.6-2.77-.92-4.2-.95-2.2-.07-4.42-.1-6.65-.1-2.47 0-5 .03-7.6.1-7.57.2-15.15.78-22.75 1.75-2.27.27-4.53.55-6.8.85q1.2-3.855 1.35-7.95v-1.45c.03-.53.07-1.1.1-1.7l-1.1-9-27.1 6.9c-.07-.7-.13-1.4-.2-2.1q-.345-3.555-.75-7.05c-.9-8.33-2.48-16.55-4.75-24.65-1.1-4-2.45-7.88-4.05-11.65a50 50 0 0 0-4.75-8.75c-1.4-2.1-3-3.97-4.8-5.6-2.43-2.23-5.27-3.32-8.5-3.25-1.53.1-2.72.78-3.55 2.05-.2.23-.37.5-.5.8-.27.5-.5 1.03-.7 1.6-.33 1.03-.4 2.1-.2 3.2.6 3.43 1.52 6.73 2.75 9.9-.27-.47-.55-.92-.85-1.35-2.03-3.13-4.62-5.62-7.75-7.45-1.07-.67-2.13-1.28-3.2-1.85-1.6-.9-3.27-1.5-5-1.8q-3.705-.705-7.2 1.05c-.5.27-.98.58-1.45.95-1.07.87-1.57 2-1.5 3.4.07 1.6.58 3.05 1.55 4.35 1.37 1.87 2.85 3.58 4.45 5.15 1.3 1.3 2.63 2.6 4 3.9.23.23.48.47.75.7.23.2.48.42.75.65.5.47 1.03.98 1.6 1.55a9.8 9.8 0 0 1 2.4 3.3c-5.43-2.6-11.2-3.65-17.3-3.15-1.83.3-3.65.6-5.45.9-3.13.7-6.03 1.97-8.7 3.8-.63.47-1.22.98-1.75 1.55s-.97 1.18-1.3 1.85c-.3.7-.45 1.42-.45 2.15 0 2.5 1.1 4.43 3.3 5.8 1.6 1.03 3.33 1.4 5.2 1.1h.45c.17-.03.35-.05.55-.05 1.27-.17 2.5-.32 3.7-.45 2.1-.33 4.15-.6 6.15-.8-.4.37-.78.75-1.15 1.15-1.4 1.37-2.65 2.8-3.75 4.3-1.6 2.1-3.08 4.32-4.45 6.65q-1.305 2.355-2.7 4.65c-1.97 3.1-3.98 6.18-6.05 9.25l-9.75 14.35c-.63.97-1.27 1.92-1.9 2.85-3 4.53-5.78 9.1-8.35 13.7-1.77 3.17-3.03 6.45-3.8 9.85-.6 2.63-.63 5.32-.1 8.05.37 1.77 1.08 3.33 2.15 4.7.97 1.27 2.08 2.32 3.35 3.15 1.73 1.17 3.65 1.95 5.75 2.35 2.8.6 5.63.62 8.5.05.43-.13.87-.3 1.3-.5.93-.23 1.85-.5 2.75-.8 2-.77 3.83-1.78 5.5-3.05 2.5-1.87 4.68-3.98 6.55-6.35q1.455 1.8 3 3.6c.5.63 1.02 1.25 1.55 1.85 1.1 1.17 2.22 2.33 3.35 3.5 2.37 2.33 4.83 4.45 7.4 6.35 3.3 2.5 6.67 4.78 10.1 6.85l.85 8.85c-.43.27-.85.53-1.25.8-3.13 1.97-6.17 4.02-9.1 6.15-.9.63-1.85 1.2-2.85 1.7-.77.43-1.57.85-2.4 1.25-3.4 1.37-6.78 2.83-10.15 4.4-.63.27-1.27.53-1.9.8-1.31.68-2.62 1.33-3.95 1.95-4.03 1.8-7.83 3.81-11.4 6.05-3.54 2.27-6.19 5.11-7.95 8.5s-.21 5.91 4.65 7.55l-2.65 6.8c-.35.99-.68 1.99-1 3-.17.57-.33 1.12-.49 1.69 1.1 1.78 2.26 3.54 3.46 5.27.13-.44.25-.88.38-1.31.5-1.6 1.02-3.18 1.55-4.75.3-.9.62-1.8.95-2.7.14-.4.27-.8.4-1.2l3.1-8.8c-1.93.1-3.38-.22-4.35-.95q-.9-.705-.9-1.35c.03-2.53 1.57-5.02 4.6-7.45 2.57-2.03 5.78-3.75 9.65-5.15 2.01-1 4.03-2.02 6.05-3.05.87-.43 1.75-.87 2.65-1.3a38 38 0 0 0-4.35 6.75 14.3 14.3 0 0 0-1.55 6.7c0 1.17.37 2.17 1.1 3 .67.73 1.47 1.25 2.4 1.55.63.1 1.27.22 1.9.35h2.1c1.47-.1 2.95-.18 4.45-.25q7.905-.345 15.75.3c2.03.17 4.07.35 6.1.55-.87 1.7-1.75 3.4-2.65 5.1-.93 1.7-1.8 3.43-2.6 5.2s-1.57 3.57-2.3 5.4c-.53 1.37-.88 2.78-1.05 4.25-.1.77.18 1.42.85 1.95.37.27.78.47 1.25.6.7.23 1.42.43 2.15.6 1.07.03 2.13.08 3.2.15 5.6-.43 11.08-.1 16.45 1 .23.03.47.08.7.15 1.93 4.13 3.93 8.32 6 12.55.93 1.97 1.82 3.97 2.65 6q.705 1.65.9 3.45c.17 1.53.23 3.08.2 4.65-.08 3.99-.09 8-.06 12.03h.23c1.29 0 2.57-.03 3.85-.08.01-.27.03-.53.04-.8.03-.4.05-.8.05-1.2.03-.47.05-.93.05-1.4v-1.5c.07-1.77.08-3.57.05-5.4v-9.8c-.03-2.33-.02-4.67.05-7 .03-1.83.02-3.67-.05-5.5-.07-2.5-.07-4.97 0-7.4 4.33-1.37 8.67-2.72 13-4.05.53-.23 1.05-.5 1.55-.8.37-.2.65-.47.85-.8q.405-.555.45-1.2c.13-1.17.13-2.35 0-3.55q-.255-2.1-1.2-4.05c-.6-1.23-1.32-2.42-2.15-3.55a75 75 0 0 1-2.85-4.25c1.43-.23 2.87-.45 4.3-.65 1.4-.2 2.82-.4 4.25-.6 1.43-.17 2.87-.32 4.3-.45s2.87-.27 4.3-.4c.57-.07 1.13-.18 1.7-.35q.555-.15 1.05-.45c.27-.23.47-.5.6-.8.17-.37.28-.73.35-1.1.1-.8.02-1.57-.25-2.3-.33-1-.67-1.98-1-2.95-1.33-4.07-3.32-7.83-5.95-11.3 1.7.6 3.42 1.22 5.15 1.85 1.67.67 3.32 1.38 4.95 2.15 3.27 1.43 6.5 2.95 9.7 4.55.77.33 1.52.72 2.25 1.15.57.37 1.15.75 1.75 1.15.97.57 1.82 1.3 2.55 2.2.43.53.7 1.12.8 1.75a2 2 0 0 1-.05 1c-.23.7-.67 1.32-1.3 1.85-.8.67-1.47 1.43-2 2.3.07.77.2 1.45.4 2.05.3.87.58 1.73.85 2.6.27.8.53 1.6.8 2.4.2.57.4 1.15.6 1.75.13.4.27.8.4 1.2.03.13.07.27.1.4 0 .07-.02.13-.05.2-.03.03-.05.07-.05.1.8 3.03 1.48 6.07 2.05 9.1.43 2.43.85 4.87 1.25 7.3.43 2.73.85 5.48 1.25 8.25.26 1.79.5 3.58.74 5.36 1.28-1.14 2.54-2.33 3.78-3.56-.16-1.15-.31-2.3-.47-3.46-.43-3.2-.97-6.42-1.6-9.65Zm-148-100.8c1.33-3.53 2.97-6.92 4.9-10.15 1.03-1.7 2.07-3.38 3.1-5.05 1.6-2.7 3.22-5.33 4.85-7.9q.45-.645.9-1.35.795-1.35 1.8-2.85c.83-1.33 1.63-2.65 2.4-3.95 2.03-3.4 4.07-6.75 6.1-10.05 1.4-2.37 2.83-4.7 4.3-7q1.695-2.805 3.45-5.55c.8-1.27 1.67-2.47 2.6-3.6 1.73-2.17 3.72-4.1 5.95-5.8 0-.03.02-.07.05-.1.73-.63 1.52-1.3 2.35-2 .27-.2.45-.4.55-.6 0-.17-.02-.33-.05-.5-.07-.23-.18-.43-.35-.6-.57-.5-1.22-.78-1.95-.85-2.27-.5-4.5-.67-6.7-.5-.3 0-.68.05-1.15.15-2.33.17-4.67.33-7 .5-1.47.27-2.93.07-4.4-.6-.37-.2-.68-.43-.95-.7-.53-.6-.77-1.23-.7-1.9.5-1.03 1.22-1.87 2.15-2.5 1.73-1.13 3.53-1.97 5.4-2.5q3.495-1.005 7.05-1.2c4.4-.27 8.7.27 12.9 1.6 1.87.63 3.72 1.3 5.55 2 1.3.53 2.53.97 3.7 1.3.07-.27.1-.52.1-.75 0-.7-.07-1.38-.2-2.05-.2-1.07-.52-2.08-.95-3.05-.67-1.37-1.4-2.65-2.2-3.85-.43-.67-.92-1.3-1.45-1.9-.6-.63-1.23-1.25-1.9-1.85a70 70 0 0 1-9.45-9.7c-.2-.3-.37-.62-.5-.95s-.12-.67.05-1c.2-.17.42-.28.65-.35.6-.23 1.22-.42 1.85-.55 1.1.07 2.18.22 3.25.45 1.1.27 2.18.63 3.25 1.1 1.9.9 3.68 2.05 5.35 3.45 1.3 1.13 2.45 2.4 3.45 3.8q3.3 4.545 5.55 9.75.555 1.305 1.35 2.85c.37.7.75 1.37 1.15 2 .17.33.35.67.55 1a8 8 0 0 0 1.75-.95c.47-.27.82-.73 1.05-1.4.13-.33.18-.65.15-.95-.33-2.47-.83-4.85-1.5-7.15q-1.35-4.905-3.15-9.75c-.5-1.3-.87-2.63-1.1-4-.17-1.13-.17-2.25 0-3.35q.195-1.35 1.35-1.95c.97-.4 1.9-.32 2.8.25 1.73 1.1 3.25 2.52 4.55 4.25.87 1.17 1.72 2.35 2.55 3.55.9 1.27 1.75 2.6 2.55 4 .7 1.13 1.38 2.32 2.05 3.55.57 1.07 1.08 2.17 1.55 3.3 1.3 3.07 2.33 6.25 3.1 9.55.2.83.42 1.68.65 2.55.33 1.37.67 2.72 1 4.05.3 1.07.53 2.13.7 3.2.6 3.9 1.15 7.82 1.65 11.75.33 2.47.62 4.95.85 7.45.07.73.15 1.47.25 2.2L86.84 94.37l-6.05 5.25c0-2.4-.08-4.82-.25-7.25-.03-.43-.25-.8-.65-1.1-.13 0-.2.02-.2.05-.13.57-.23 1.15-.3 1.75-.8 6.77-2.13 13.32-4 19.65a74 74 0 0 1-3.1 8.6c-1.37 3.17-3 6.18-4.9 9.05-1.33 2.03-2.8 3.9-4.4 5.6a19 19 0 0 1-3.65 3c-.5.3-1 .58-1.5.85q-.75.495-1.5.9c-2.67 1.23-5.43 1.82-8.3 1.75-2.03-.03-3.9-.52-5.6-1.45-2.53-1.43-3.87-3.55-4-6.35-.13-2.5.25-4.95 1.15-7.35m56.55-10.2 5.3-8.6c3.57-5.7 6.75-11.07 9.55-16.1l9.5-2.5q-3.795 5.7-7.2 11.7c-1.53 2.7-3.97 7.23-7.3 13.6-.63 1.27-1.07 2.23-1.3 2.9-.07.17-.15.37-.25.6-1.17.17-2.33.22-3.5.15-1.97-.13-3.57-.72-4.8-1.75m-19.7 7.45c1.23-2.83 2.2-5.78 2.9-8.85.33-1.57.6-3.13.8-4.7 0-.07.02-.13.05-.2 1.97-1.3 4.37-2.93 7.2-4.9.27-.03.5-.05.7-.05q.495 3.945 1.95 7.8c.8 1.97 1.63 3.53 2.5 4.7 2.13 2.83 4.97 4.47 8.5 4.9.6.03 1.23.07 1.9.1 2.4-.03 4.92-.65 7.55-1.85 4.5-2.13 8.33-5.57 11.5-10.3q3.45-5.205 4.95-11.1c.03-.13.1-.25.2-.35.07-.23.17-.52.3-.85v-.05c.13-.27.27-.55.4-.85.3 1.5.68 2.93 1.15 4.3 1 2.8 2.42 5 4.25 6.6 2.23 2 4.9 3 8 3 2.67 0 5.38-.87 8.15-2.6 2.8-1.8 5.17-4.28 7.1-7.45 5.73-.57 11.45-1.08 17.15-1.55 5.47-.27 10.88-.65 16.25-1.15 3.67-.23 7.38-.28 11.15-.15.97.1 1.93.25 2.9.45.77.27 1.48.63 2.15 1.1 1.5 1.2 2.37 2.7 2.6 4.5.03.13.05.27.05.4.51 3.93.48 7.74-.1 11.45a59.3 59.3 0 0 1-5.7 15.7 81.7 81.7 0 0 1-10.05 14.8c-.97 1.2-2.02 2.33-3.15 3.4-.13-.67-.25-1.33-.35-2-.23-1.67-.73-3.1-1.5-4.3-.23-.33-.52-.6-.85-.8-1.2-.67-2.27-.48-3.2.55q-1.65 1.905-2.85 4.35l-.8 1.5c-.07-.3-.13-.58-.2-.85-.13-.87-.32-1.68-.55-2.45-.27-.97-.8-1.67-1.6-2.1q-1.095-.645-2.25-.15c-.97.47-1.77 1.08-2.4 1.85a31.8 31.8 0 0 0-4.2 7.55c-1.1 2.77-1.93 5.65-2.5 8.65-1.8.47-3.6.85-5.4 1.15-2.2.5-4.4.92-6.6 1.25-2.7.3-5.42.37-8.15.2l-7.1-.3c-2.6-.23-5.18-.48-7.75-.75-2.57-.43-5.13-.85-7.7-1.25-2.37-.57-4.73-1.13-7.1-1.7-2.53-.63-5-1.45-7.4-2.45-2.87-1.1-5.63-2.4-8.3-3.9-2.67-1.43-5.32-2.92-7.95-4.45-2.67-1.6-5.2-3.35-7.6-5.25-2.47-1.97-4.83-4.1-7.1-6.4q-1.905-2.055-3.75-4.05l-2.1-2.45c1.5-2.5 2.82-5.07 3.95-7.7m64.2-25.85c3-6.9 5.48-12.4 7.45-16.5l8.8-2.5v.3c-2 3.17-4.63 8.08-7.9 14.75l-1.35 2.8c-.97 1.97-1.83 3.78-2.6 5.45-.47 1-.9 1.95-1.3 2.85-.23.47-.42.92-.55 1.35-1.27.27-2.52.3-3.75.1-.8-.13-1.55-.35-2.25-.65.33-.87.75-1.85 1.25-2.95.23-.57.5-1.18.8-1.85l1.2-2.75c.07-.13.13-.27.2-.4m31 53.6c.93-2.1 2.23-3.97 3.9-5.6.33-.27.77-.42 1.3-.45.23.3.42.63.55 1 .6 1.93 1.03 3.93 1.3 6q.105.705.6 1.05l.85.05c.27-.3.48-.62.65-.95.87-1.77 1.73-3.55 2.6-5.35.43-.9 1.02-1.7 1.75-2.4.33-.27.67-.38 1-.35.13.13.27.3.4.5.1.1.17.23.2.4.33 2.03.65 4.1.95 6.2l-5.65 3.7c-1.5.77-3.07 1.52-4.7 2.25-.37.1-.72.22-1.05.35-.63.37-1.28.7-1.95 1-1.93.93-3.93 1.7-6 2.3.77-3.4 1.87-6.63 3.3-9.7m-15.5 46.6c-6.2.97-12.38 2.02-18.55 3.15-.6.1-1.18.3-1.75.6-.17.17-.3.37-.4.6-.3.7-.32 1.38-.05 2.05.33.83.82 1.58 1.45 2.25q1.395 1.35 2.7 3c.57.8 1.08 1.63 1.55 2.5.93 1.77 1.62 3.63 2.05 5.6.07.37.08.75.05 1.15 0 .27-.07.52-.2.75-.37.63-.95 1.05-1.75 1.25-3.6 1.2-7.18 2.42-10.75 3.65q.105-2.055.15-4.05l.3-7.55c.13-3.13.25-6.27.35-9.4.07-2.27.13-4.53.2-6.8l.3-9.45c.13-3.3.07-6.53-.2-9.7l.05-4.2c1.43.6 2.87 1.28 4.3 2.05 3.07 1.53 6.07 3.4 9 5.6q4.605 3.495 7.8 8.25c1.77 2.7 2.9 5.6 3.4 8.7m-39.65 1.35-5.15 7.25-7.8-19zm-2.3 7.15c.9 1.23 2.48 3.52 4.75 6.85 0 .03.03.07.1.1.23.4.5.82.8 1.25l.05 1.7c-.43 2.43-.85 4.88-1.25 7.35l-6.35-14.8zm-12.9-24-2.45-22.05c.53.27 1.07.53 1.6.8 2.13.93 4.3 1.85 6.5 2.75 2.17.83 4.33 1.68 6.5 2.55 4.67 1.97 9.48 3.4 14.45 4.3l.25 15.3-10.05 11.2zm-5.15-4c.13.6.3 1.2.5 1.8.6 1.63 1.22 3.27 1.85 4.9 1.13 2.97 2.3 5.87 3.5 8.7.53 1.27 1.15 2.52 1.85 3.75.23.43.43.87.6 1.3 1.5 4.1 3.07 8.18 4.7 12.25 1.87 4.53 3.8 9.07 5.8 13.6-.17-.03-.33-.05-.5-.05q-3.3-.495-6.6-.6c-4.27-.1-8.45-.48-12.55-1.15.27-1.17.67-2.28 1.2-3.35 1.93-3.87 3.95-7.92 6.05-12.15.17-.37.33-.75.5-1.15.53-1.2.63-2.47.3-3.8-.2-.7-.57-1.15-1.1-1.35q-2.4-.75-4.8-.6c-4.67-.27-9.33-.5-14-.7-3.9-.13-7.92-.2-12.05-.2-.8-1.2-.88-2.52-.25-3.95 1.17-2.67 2.65-5.12 4.45-7.35 2.43-3.03 5.12-5.73 8.05-8.1.17-.13.33-.27.5-.4 2.37-1.93 4.88-3.6 7.55-5 1.47-.77 2.88-1.7 4.25-2.8zm30.4 39.6c-.03 1.1-.07 2.2-.1 3.3 0 .37-.02.75-.05 1.15-.6-1.27-1.2-2.53-1.8-3.8-.5-.73-.98-1.43-1.45-2.1h-.1l.05-.1q-.75-1.095-1.5-2.1l3.4-8.3 2 1.55c-.13 3.47-.28 6.93-.45 10.4m-6.6-19.05 7.95-8.9-.75 14.55z"/><path d="M154.84 112.92c.03.1.15.5.35 1.2.17.67.85 1.88 2.05 3.65 1.17 1.73 2.72 3.4 4.65 5 1.93 1.57 3.97 3.03 6.1 4.4 2.17 1.33 4.68 2.52 7.55 3.55s4.97 1.55 6.3 1.55c1.8-.07 3.02-.2 3.65-.4 1.67-.47 3.8-1.57 6.4-3.3 2.47-1.6 4.87-3.82 7.2-6.65 2.33-2.77 4.07-5.42 5.2-7.95.63-1.47 1.03-3.43 1.2-5.9.13-2.33.07-3.73-.2-4.2-.47-.73-1.7-1.33-3.7-1.8-1.13-.27-3.08-.43-5.85-.5-2.8-.1-5.55-.03-8.25.2-2.7.2-4.55.33-5.55.4-4.97.27-8.68.6-11.15 1-2.47.37-4.02.63-4.65.8-.67.13-2.52.55-5.55 1.25-3.03.67-4.97 1.95-5.8 3.85-.33 1.07-.32 2.32.05 3.75-.03 0-.03.03 0 .1m47.65-6.15q-.105.645-.15 1.2c-3.23-.27-8.13-.25-14.7.05-6.6.3-12.43 1.08-17.5 2.35q-7.545 1.845-9.45 3.15-2.1-2.355-1.8-3.6c.03-.2.12-.48.25-.85.67-.43 1.5-.78 2.5-1.05 1.7-.57 3.7-1.1 6-1.6 2.3-.53 4.3-.9 6-1.1 1.67-.23 3.98-.45 6.95-.65 2.97-.23 6.17-.4 9.6-.5 3.43-.13 6.42-.12 8.95.05 1 .07 1.98.25 2.95.55.37.07.5.73.4 2m-45.8 26.1c-1.23.9-2 1.67-2.3 2.3-.4.6-.53.97-.4 1.1.1.17.33.32.7.45.53.2 1.35-.12 2.45-.95 1.07-.87 1.77-1.43 2.1-1.7q.495-.45.9-1.05.345-.6 0-1.35-1.605-.195-3.45 1.2m-10.65 6.25c.53-.27 1.32-.85 2.35-1.75 1-.93 1.62-1.57 1.85-1.9.2-.37.28-.72.25-1.05-.07-.4-.25-.65-.55-.75-.23-.03-.62.05-1.15.25-.57.17-1.25.58-2.05 1.25-.8.63-1.38 1.37-1.75 2.2-.37.8-.42 1.37-.15 1.7.27.3.67.32 1.2.05m3.3-10.6h.15c.37 0 .82-.12 1.35-.35.8-.37 1.45-.73 1.95-1.1.47-.4.88-.77 1.25-1.1.4-.37.67-.67.8-.9.1-.2.17-.37.2-.5.03-.27-.02-.5-.15-.7-.2-.33-.47-.52-.8-.55-.06-.01-.11 0-.16 0-.1 0-.2.01-.29.06-.63.03-1.35.35-2.15.95-.83.6-1.7 1.33-2.6 2.2-.27.23-.43.48-.5.75q-.045.045 0 .15c-.07.2 0 .42.2.65q.255.345.75.45Zm-72.7 113.4c-.5-1.47-.92-2.93-1.25-4.4-.17-.63-.35-1.27-.55-1.9-.37-1.1-.42-2.17-.15-3.2.2-.83.38-1.65.55-2.45.13-.7.27-1.4.4-2.1.13-.63.25-1.27.35-1.9.17-1.27-.05-2.58-.65-3.95-.13-.3-.27-.58-.4-.85-.1.1-.18.22-.25.35-.3.53-.53 1.08-.7 1.65-.5 1.73-.98 3.47-1.45 5.2-.4 1.6-.78 3.18-1.15 4.75-.9 3.83-1.82 7.63-2.75 11.4-.12.48-.23.97-.35 1.45 1.03.9 2.08 1.77 3.13 2.61l.21-1.11.9-4.4c.77 1.67 1.52 3.4 2.25 5.2.23.63.48 1.2.75 1.7.41.86.81 1.7 1.21 2.56 2.16 1.49 4.35 2.87 6.59 4.14-1.35-2.78-2.71-5.56-4.05-8.34-1.03-2.07-1.92-4.2-2.65-6.4Zm85.2 11.35c-.07-.33-.1-.68-.1-1.05q.495-.6.9-1.35c.3-.6.57-1.2.8-1.8q.15-.345.3-.6c.33-.73.67-1.47 1-2.2l.9-1.8c.23-.53.45-1.07.65-1.6.37-1.07.68-2.13.95-3.2.3-1.2.52-2.42.65-3.65.17-1.23.25-2.47.25-3.7-.03-1.27-.13-2.53-.3-3.8q-.3-1.905-.75-3.75c-.6-2.5-1.53-4.85-2.8-7.05q-1.395-2.355-3.15-4.65c-1.27-1.6-2.9-2.33-4.9-2.2 2.13 3.23 3.98 6.57 5.55 10 1.07 2.33 1.78 4.83 2.15 7.5.6 4.1.2 8.02-1.2 11.75-1.27 3.4-2.78 6.65-4.55 9.75-2.43 4.37-4.8 8.8-7.1 13.3-.23.47-.44.95-.64 1.44 1.78-.5 3.54-1.04 5.28-1.65.42-.84 3.16-4.88 3.16-4.88l.83 3.36c1.21-.5 2.41-1.03 3.61-1.58-.29-1.28-.58-2.56-.89-3.83-.23-.9-.43-1.82-.6-2.75Zm-39.1 2.8q-.405-1.695-.9-2.4c-.53-.83-1.22-1.3-2.05-1.4-.97-.1-1.83.32-2.6 1.25q-.75.9-1.2 2.7l-.55 2.3c-.17.73-.25 1.4-.25 2-.03.3-.02.75.05 1.35.1 1.4.27 2.65.5 3.75.12.62.27 1.16.43 1.63 2.07.23 4.18.38 6.3.46.24-.63.44-1.42.57-2.4.43-3.43.33-6.52-.3-9.25Zm-3.35 11.15-.35-.1a5.9 5.9 0 0 1-1.35-1.6l-.45-.9c-.07-.17-.1-.43-.1-.8l-.15-3.55c.03-.77.32-1.88.85-3.35.37-1.07.78-1.75 1.25-2.05.23-.17.43-.2.6-.1.6 1.3.97 3.12 1.1 5.45.13 2.87-.25 5.12-1.15 6.75z"/></svg>